<svg width="42" height="42" viewBox="0 0 42 42" fill="none" xmlns="http://www.w3.org/2000/svg">
<path d="M16.024 17.2058C16.3042 16.9254 16.6842 16.7678 17.0806 16.7676C17.477 16.7675 17.8572 16.9248 18.1376 17.2049C18.418 17.4851 18.5756 17.8652 18.5757 18.2615C18.5759 18.6579 18.4186 19.0381 18.1384 19.3185L16.2382 21.2187L20.2408 25.2196L22.1375 23.3193C22.421 23.0545 22.7963 22.9102 23.1842 22.9168C23.5721 22.9234 23.9423 23.0804 24.2166 23.3547C24.4909 23.629 24.648 23.9992 24.6546 24.3871C24.6611 24.775 24.5168 25.1503 24.252 25.4338L22.3569 27.3271L24.2641 29.2342C24.4005 29.3724 24.4005 29.597 24.2641 29.7335L19.7467 34.2491C18.9247 35.0735 17.9478 35.7273 16.8722 36.1728C15.7967 36.6184 14.6436 36.847 13.4794 36.8455C11.7089 36.8483 9.97853 36.3186 8.51294 35.3253L6.32941 37.5088C6.01328 37.8245 5.5847 38.0017 5.13795 38.0013C4.69121 38.001 4.26289 37.8232 3.94722 37.5071C3.63155 37.191 3.45439 36.7624 3.45471 36.3157C3.45504 35.8689 3.63282 35.4406 3.94894 35.1249L6.12902 32.9483C4.97663 31.2416 4.4538 29.1873 4.65016 27.1373C4.84651 25.0874 5.74982 23.1697 7.20524 21.7128L11.7157 17.1989C11.7838 17.1339 11.8738 17.0969 11.9679 17.0952C12.0594 17.0952 12.1493 17.1281 12.2201 17.1989L14.1272 19.1043L16.024 17.2041V17.2058ZM35.1282 3.94742C35.4464 3.6416 35.8719 3.47275 36.3132 3.47713C36.7545 3.48152 37.1765 3.65879 37.4886 3.97087C37.8007 4.28296 37.978 4.70498 37.9824 5.14632C37.9868 5.58766 37.8179 6.01311 37.5121 6.33134L35.3303 8.51314C36.4821 10.2194 37.0046 12.2731 36.8082 14.3223C36.6119 16.3716 35.7089 18.2887 34.2541 19.7452L29.7402 24.2608C29.671 24.3248 29.5804 24.3606 29.4862 24.361C29.4399 24.3619 29.3939 24.3534 29.3509 24.3362C29.3078 24.319 29.2687 24.2934 29.2357 24.2608L17.1952 12.2203C17.1292 12.1537 17.0921 12.0636 17.0921 11.9698C17.0921 11.876 17.1292 11.786 17.1952 11.7193L21.7109 7.20544C22.5332 6.38093 23.5103 5.72708 24.5862 5.2815C25.6621 4.83592 26.8154 4.60739 27.9799 4.60905C29.7504 4.60625 31.4808 5.13591 32.9464 6.12923L35.1282 3.94742Z" fill="#070808"/>
</svg>
