<svg width="32" height="32" viewBox="0 0 32 32" fill="none" xmlns="http://www.w3.org/2000/svg">
<path d="M20.6212 8.98685C21.4543 9.02448 23.7877 9.32556 25.284 11.5162C25.1711 11.5888 22.6625 13.0449 22.5367 16.0738L22.5315 16.3723C22.5665 20.2305 25.9173 21.5127 25.9549 21.536C25.9277 21.6217 25.4189 23.3619 24.19 25.1567C23.1284 26.7101 22.0279 28.2557 20.2903 28.2908C18.5785 28.3206 18.0322 27.2772 16.0791 27.2772C14.126 27.2772 13.516 28.257 11.9029 28.3206C10.225 28.3816 8.94669 26.6439 7.87605 25.0944C5.68286 21.9318 4.00877 16.1491 6.25906 12.2442C7.37512 10.3067 9.36975 9.08158 11.5331 9.04784C13.1812 9.0167 14.7333 10.1548 15.7404 10.1548C16.7474 10.1548 18.6343 8.787 20.6199 8.98685H20.6212ZM20.6484 2.82257C20.8003 4.22413 20.2838 5.62959 19.4857 6.68725L19.3221 6.89489C18.4319 7.97202 16.9693 8.81295 15.5418 8.70005C15.3459 7.23749 16.0739 5.71135 16.8954 4.75491C17.8142 3.67519 19.3676 2.87578 20.6484 2.82387V2.82257Z" fill="white"/>
</svg>
