<svg width="34" height="34" viewBox="0 0 34 34" fill="none" xmlns="http://www.w3.org/2000/svg">
<path d="M28.2783 20.8288C27.6334 20.8244 26.6669 21.0347 25.6398 21.261C24.999 21.4027 24.3413 21.5476 23.7627 21.6384C23.7212 21.4491 23.6484 21.2665 23.5472 21.0994C23.2378 20.587 22.6429 20.2704 21.9924 20.2704C21.9875 20.2704 21.9825 20.2704 21.9778 20.2704L14.7043 20.3247C14.0464 20.3169 13.4291 20.1122 12.9252 19.7132C12.2515 19.1797 11.407 18.8859 10.5473 18.8859H8.97985V18.0497C8.97985 17.7741 8.75628 17.5505 8.4807 17.5505H5.02259C4.74701 17.5505 4.52344 17.7741 4.52344 18.0497V26.0207C4.52344 26.2962 4.74701 26.5198 5.02259 26.5198H8.4807C8.75628 26.5198 8.97985 26.2962 8.97985 26.0207V25.5331H10.1378C10.8868 25.5331 11.5924 25.7489 12.1784 26.1573C13.4335 27.0311 15.8615 28.3687 17.4079 28.4744C17.4367 28.476 17.4666 28.4771 17.4978 28.4771C18.8384 28.4771 22.3159 26.7024 27.4618 23.8525C28.023 23.5415 28.4853 23.2853 28.7999 23.1176C29.2362 22.8852 29.501 22.4391 29.475 21.9798C29.4557 21.6428 29.304 21.3368 29.0448 21.1149C28.8309 20.935 28.5592 20.8332 28.2783 20.8288ZM7.98154 25.5215H5.52174V18.5488H7.98154V19.385V25.034V25.5215ZM28.3301 22.2366C28.0122 22.4065 27.5448 22.6655 26.9784 22.9792C24.5341 24.3328 18.8514 27.4799 17.5238 27.4799C17.507 27.4799 17.4906 27.4794 17.4751 27.4783C16.212 27.3925 13.9509 26.175 12.749 25.3383C11.995 24.8126 11.0918 24.5348 10.1378 24.5348H8.97985V19.8842H10.5473C11.1829 19.8842 11.8074 20.1011 12.3054 20.4957C12.9869 21.0352 13.8447 21.3252 14.7115 21.323L21.985 21.2687H21.9927C22.2954 21.2687 22.5633 21.401 22.6933 21.6163C22.7669 21.7375 22.8056 21.8764 22.8056 22.0175C22.8056 22.0501 22.8037 22.0817 22.799 22.1138C22.7976 22.1209 22.7965 22.1287 22.7954 22.1364C22.7929 22.1519 22.7896 22.1741 22.789 22.1807C22.7378 22.4176 22.5779 22.6754 21.7844 22.7872L14.807 23.6743C14.5334 23.7092 14.3399 23.9593 14.3748 24.2327C14.4097 24.506 14.6604 24.7025 14.9326 24.6649L21.9169 23.7767C22.2794 23.7258 23.3203 23.5786 23.6839 22.6588C24.3518 22.5675 25.1141 22.3993 25.8551 22.2355C26.7659 22.0346 27.7072 21.8265 28.2368 21.8265C28.246 21.8265 28.2548 21.8271 28.2634 21.8271C28.3287 21.8282 28.3752 21.8559 28.399 21.8758C28.4327 21.9046 28.4737 21.956 28.4784 22.0368C28.4823 22.1049 28.4203 22.189 28.3301 22.2366Z" fill="#070808"/>
<path d="M20.985 18.5485C22.6535 18.5479 24.3225 17.9132 25.5925 16.6432C28.1331 14.1026 28.1331 9.96882 25.5925 7.42822C23.0522 4.88818 18.9181 4.88818 16.3778 7.42822C15.1487 8.65729 14.4719 10.2937 14.4719 12.0357C14.4719 13.7778 15.1487 15.4141 16.3778 16.6432C17.6481 17.9132 19.3163 18.5485 20.985 18.5485ZM17.0833 8.13434C18.1591 7.05856 19.5719 6.52067 20.985 6.52067C22.3981 6.52067 23.8111 7.05856 24.8869 8.13434C27.0382 10.2854 27.0382 13.7861 24.8869 15.9371C22.7354 18.0886 19.2349 18.0892 17.0833 15.9371C16.043 14.8967 15.47 13.5116 15.47 12.0357C15.47 10.5598 16.043 9.17471 17.0833 8.13434Z" fill="#070808"/>
<path d="M19.165 14.0904H18.66C18.3845 14.0904 18.1609 14.3139 18.1609 14.5895C18.1609 14.8651 18.3845 15.0887 18.66 15.0887H19.6642H19.8158V15.9071C19.8158 16.1827 20.0394 16.4063 20.3149 16.4063C20.5905 16.4063 20.8141 16.1827 20.8141 15.9071V15.0887H21.3462V15.9071C21.3462 16.1827 21.5697 16.4063 21.8453 16.4063C22.1209 16.4063 22.3445 16.1827 22.3445 15.9071V15.062C23.2375 14.9323 23.928 14.1691 23.928 13.2404C23.928 12.7069 23.6973 12.2293 23.3344 11.8917C23.6973 11.5541 23.928 11.0764 23.928 10.5426C23.928 9.61391 23.2375 8.85072 22.3445 8.72106V7.87586C22.3445 7.60028 22.1209 7.37671 21.8453 7.37671C21.5697 7.37671 21.3462 7.60028 21.3462 7.87586V8.69432H20.8141V7.87586C20.8141 7.60028 20.5905 7.37671 20.3149 7.37671C20.0394 7.37671 19.8158 7.60028 19.8158 7.87586V8.69432H19.6642H18.66C18.3845 8.69432 18.1609 8.91789 18.1609 9.19347C18.1609 9.46906 18.3845 9.69263 18.66 9.69263H19.165V11.8918V14.0904ZM22.9297 13.2404C22.9297 13.7091 22.5487 14.0904 22.08 14.0904H20.1633V12.3909H22.08C22.5487 12.3909 22.9297 12.7722 22.9297 13.2404ZM22.9297 10.5426C22.9297 11.0113 22.5487 11.3926 22.08 11.3926H20.1633V9.69263H22.08C22.5487 9.69263 22.9297 10.0739 22.9297 10.5426Z" fill="#D1AA67"/>
</svg>
