<svg width="34" height="34" viewBox="0 0 34 34" fill="none" xmlns="http://www.w3.org/2000/svg">
<path d="M18.2144 12.8715H6.55725C6.26582 12.8715 6.07153 12.6772 6.07153 12.3857V6.16861C6.07153 5.44003 6.65439 4.85718 7.38296 4.85718H17.3887C18.1172 4.85718 18.7001 5.44003 18.7001 6.16861V12.3857C18.7001 12.6772 18.5058 12.8715 18.2144 12.8715ZM7.04296 11.9H17.7287V6.16861C17.7287 5.97432 17.583 5.82861 17.3887 5.82861H7.38296C7.18868 5.82861 7.04296 5.97432 7.04296 6.16861V11.9Z" fill="#525152"/>
<path d="M17.7286 15.1543H7.09146C5.87718 15.1543 4.85718 14.1343 4.85718 12.92V12.3857C4.85718 12.0943 5.05146 11.9 5.34289 11.9H19.4772C19.7686 11.9 19.9629 12.0943 19.9629 12.3857V12.92C19.9629 14.1343 18.9429 15.1543 17.7286 15.1543ZM5.82861 12.8715V12.92C5.82861 13.6 6.41146 14.1829 7.09146 14.1829H17.7286C18.4086 14.1829 18.9915 13.6 18.9915 12.92V12.8715H5.82861Z" fill="#525152"/>
<path d="M27.4429 26.8601H15.7858C15.4943 26.8601 15.3 26.6658 15.3 26.3744V20.1573C15.3 19.4287 15.8829 18.8458 16.6115 18.8458H26.6172C27.3458 18.8458 27.9286 19.4287 27.9286 20.1573V26.3744C27.9286 26.6173 27.6858 26.8601 27.4429 26.8601ZM16.2715 25.8887H26.9572V20.1573C26.9572 19.963 26.8115 19.8173 26.6172 19.8173H16.5629C16.3686 19.8173 16.2229 19.963 16.2229 20.1573V25.8887H16.2715Z" fill="#D1AA67"/>
<path d="M26.9085 29.143H16.2714C15.0571 29.143 14.0371 28.123 14.0371 26.9087V26.3744C14.0371 26.083 14.2314 25.8887 14.5228 25.8887H28.6571C28.9485 25.8887 29.1428 26.083 29.1428 26.3744V26.9087C29.1428 28.123 28.1228 29.143 26.9085 29.143ZM15.0085 26.8601V26.9087C15.0085 27.5887 15.5914 28.1715 16.2714 28.1715H26.9085C27.5885 28.1715 28.1714 27.5887 28.1714 26.9087V26.8601H15.0085Z" fill="#D1AA67"/>
<path d="M23.8971 14.0372C23.6056 14.0372 23.4114 13.843 23.4114 13.5515V9.37438H20.9828C20.6914 9.37438 20.4971 9.1801 20.4971 8.88867C20.4971 8.59724 20.6914 8.40295 20.9828 8.40295H23.8971C24.1885 8.40295 24.3828 8.59724 24.3828 8.88867V13.5515C24.3828 13.7944 24.1885 14.0372 23.8971 14.0372Z" fill="#070808"/>
<path d="M23.8972 14.0372C23.7515 14.0372 23.6544 13.9887 23.5572 13.8915L22.1486 12.4829C21.9544 12.2887 21.9544 11.9972 22.1486 11.8029C22.3429 11.6087 22.6344 11.6087 22.8286 11.8029L23.8972 12.8715L24.9658 11.8029C25.1601 11.6087 25.4515 11.6087 25.6458 11.8029C25.8401 11.9972 25.8401 12.2887 25.6458 12.4829L24.2372 13.8915C24.1401 13.9401 24.0429 14.0372 23.8972 14.0372Z" fill="#070808"/>
<path d="M13.0172 25.6458H10.1029C9.81147 25.6458 9.61719 25.4515 9.61719 25.16V20.4972C9.61719 20.2058 9.81147 20.0115 10.1029 20.0115C10.3943 20.0115 10.5886 20.2058 10.5886 20.4972V24.6743H13.0172C13.3086 24.6743 13.5029 24.8686 13.5029 25.16C13.5029 25.4515 13.3086 25.6458 13.0172 25.6458Z" fill="#070808"/>
<path d="M11.5114 22.3429C11.3656 22.3429 11.2685 22.2943 11.1714 22.1972L10.1028 21.1286L9.03421 22.1972C8.83992 22.3915 8.5485 22.3915 8.35421 22.1972C8.15992 22.0029 8.15992 21.7115 8.35421 21.5172L9.76278 20.1086C9.95707 19.9143 10.2485 19.9143 10.4428 20.1086L11.8514 21.5172C12.0456 21.7115 12.0456 22.0029 11.8514 22.1972C11.7542 22.2943 11.6085 22.3429 11.5114 22.3429Z" fill="#070808"/>
</svg>
