<svg width="355" height="360" viewBox="0 0 355 360" fill="none" xmlns="http://www.w3.org/2000/svg">
<mask id="mask0_1_8483" style="mask-type:alpha" maskUnits="userSpaceOnUse" x="31" y="206" width="48" height="54">
<path d="M39.284 233.026C31.1456 224.268 30.9133 212.611 31.9253 207.08L77.2435 252.351L65.1876 258.66C59.938 253.784 47.8537 242.249 39.284 233.026Z" fill="black" stroke="#66DD8C" stroke-linecap="round"/>
</mask>
<g mask="url(#mask0_1_8483)">
<path d="M39.284 233.026C31.1456 224.268 30.9133 212.611 31.9253 207.08L77.2435 252.351L65.1876 258.66C59.938 253.784 47.8537 242.249 39.284 233.026Z" fill="#EBE9E9" stroke="black" stroke-linecap="round"/>
<path d="M63.8207 240.448C48.6249 240.693 39.5678 234.89 36.9267 231.946L55.9351 253.168L75.533 252.347L63.8207 240.448Z" fill="black"/>
<path d="M39.284 233.026C31.1456 224.268 30.9133 212.611 31.9253 207.08L77.2435 252.351L65.1876 258.66C59.938 253.784 47.8537 242.249 39.284 233.026Z" stroke="#2D3033" stroke-linecap="round"/>
</g>
<mask id="mask1_1_8483" style="mask-type:alpha" maskUnits="userSpaceOnUse" x="48" y="149" width="72" height="114">
<path d="M93.6702 262.2L50.9994 218.984C47.2425 207.34 50.6053 193.412 56.4115 180.668C62.1084 168.164 70.122 156.877 75.8993 150.146L118.456 190.324C89.4179 229.414 89.6885 252.103 93.6702 262.2Z" fill="black" stroke="#66DD8C" stroke-linecap="round"/>
</mask>
<g mask="url(#mask1_1_8483)">
<path d="M93.6702 262.2L50.9994 218.984C47.2425 207.34 50.6053 193.412 56.4115 180.668C62.1084 168.164 70.122 156.877 75.8993 150.146L118.456 190.324C89.4179 229.414 89.6885 252.103 93.6702 262.2Z" fill="#EBE9E9" stroke="black" stroke-linecap="round"/>
<path d="M59.3993 183.878C66.9276 166.869 72.2659 159.855 83.1681 147.306L126.398 188.12C103.697 217.733 103.697 230.084 103.697 230.084L60.8568 190.327C59.0017 188.606 58.4191 186.093 59.3993 183.878Z" fill="black"/>
<path d="M93.6702 262.2L50.9994 218.984C47.2425 207.34 50.6053 193.412 56.4115 180.668C62.1084 168.164 70.122 156.877 75.8993 150.146L118.456 190.324C89.4179 229.414 89.6885 252.103 93.6702 262.2Z" stroke="black" stroke-linecap="round"/>
</g>
<mask id="mask2_1_8483" style="mask-type:alpha" maskUnits="userSpaceOnUse" x="69" y="93" width="115" height="129">
<path d="M112.211 220.697L69.6793 181.541C75.4668 165.84 88.2288 147.702 102.437 131.615C116.563 115.62 132.077 101.7 143.503 94.252L183.157 136.495C177.733 139.382 171.446 144.323 164.874 150.508C158.09 156.895 150.979 164.629 144.17 172.855C130.767 189.047 118.507 207.174 112.211 220.697Z" fill="#66DD8C" stroke="black" stroke-linecap="round"/>
</mask>
<g mask="url(#mask2_1_8483)">
<path d="M111.597 220.614L69.065 181.458C74.8525 165.757 87.6146 147.619 101.823 131.533C115.949 115.538 131.463 101.617 142.889 94.1704L182.543 136.412C177.118 139.3 170.831 144.24 164.26 150.427C157.476 156.812 150.365 164.547 143.556 172.772C130.152 188.965 117.893 207.092 111.597 220.614Z" fill="#EBE9E9" stroke="black" stroke-linecap="round"/>
<path d="M93.9639 159.459L130.148 200.401L143.776 191.255L111.351 118.102C106.652 119.071 96.2665 124.004 92.3192 135.975C88.3719 147.945 91.771 156.619 93.9639 159.459Z" fill="black"/>
<path d="M107.567 135.257C115.397 123.34 133.036 106.981 154.336 93.2852L194.085 135.651C172.184 146.899 162.801 151.744 150.438 178.824L108.548 141.176C106.78 139.587 106.301 137.184 107.567 135.257Z" fill="black"/>
<path d="M112.211 220.697L69.6793 181.541C75.4668 165.84 88.2288 147.702 102.437 131.615C116.563 115.62 132.077 101.7 143.503 94.252L183.157 136.495C177.733 139.382 171.446 144.323 164.874 150.508C158.09 156.895 150.979 164.629 144.17 172.855C130.767 189.047 118.507 207.174 112.211 220.697Z" stroke="black" stroke-linecap="round"/>
</g>
<path d="M161.832 167.227L118.692 129.308C143.775 100.299 193.168 67.4758 214.484 54.8906L256.817 100.217C254.647 100.715 252.031 101.722 249.079 103.123C245.748 104.705 241.96 106.806 237.863 109.291C229.67 114.262 220.217 120.784 210.671 127.804C191.788 141.687 172.507 157.538 161.832 167.227Z" fill="black" stroke="#D1AA67" stroke-linecap="round"/>
<path d="M208.849 134.927L166.484 94.4812C204.57 64.2882 252.978 47.1205 272.792 42.2109L317.045 91.0395C295.413 92.2221 273.741 99.5981 254.817 108.456C235.821 117.348 219.56 127.749 208.849 134.927Z" fill="black" stroke="#D1AA67" stroke-linecap="round"/>
<path d="M262.899 112.53L221.422 70.2477C242.832 60.4757 260.61 56.6796 274.098 55.925C287.659 55.1663 296.849 57.4823 301.057 59.8552L341.372 100.812C330.631 96.1501 315.97 96.8683 301.806 99.7253C286.675 102.779 271.968 108.303 262.899 112.53Z" fill="black" stroke="#D1AA67" stroke-linecap="round"/>
<path d="M283.679 74.6385C281.6 71.8789 273.844 66.6843 259.459 67.9832L282.762 91.5162" stroke="#D1AA67" stroke-linecap="round"/>
<path d="M250.904 193.85C255.678 200.916 256.313 212.791 252.297 220.224L214.352 290.547C210.337 297.98 203.148 298.285 198.374 291.206L106.492 155.258C101.718 148.192 101.083 136.316 105.098 128.883L143.043 58.56C147.058 51.1274 154.247 50.8222 159.021 57.901L250.904 193.85Z" fill="white" stroke="black" stroke-miterlimit="10"/>
<path d="M119.4 102.379L228.738 263.887L218.335 283.167L108.997 121.658L119.4 102.379Z" fill="black"/>
<mask id="mask3_1_8483" style="mask-type:alpha" maskUnits="userSpaceOnUse" x="24" y="238" width="118" height="59">
<path d="M66.0693 292.336L24.7651 250.093C37.3955 254.592 52.6949 253.85 66.8274 251.045C81.5082 248.13 95.0131 242.971 103.124 239.029L140.886 281.558C121.978 292.169 106.323 295.752 93.8916 296.245C81.4444 296.74 72.1905 294.139 66.0693 292.336Z" fill="black" stroke="black" stroke-linecap="round"/>
</mask>
<g mask="url(#mask3_1_8483)">
<path d="M66.0693 292.336L24.7651 250.093C37.3955 254.592 52.6949 253.85 66.8274 251.045C81.5082 248.13 95.0131 242.971 103.124 239.029L140.886 281.558C121.978 292.169 106.323 295.752 93.8916 296.245C81.4444 296.74 72.1905 294.139 66.0693 292.336Z" fill="black" stroke="black" stroke-linecap="round"/>
<path d="M76.8658 287.389C82.3429 286.248 84.7467 277.675 82.2348 268.241C79.723 258.807 73.2467 252.084 67.7696 253.225C62.2925 254.366 59.8888 262.938 62.4006 272.372C64.9124 281.807 71.3887 288.53 76.8658 287.389Z" fill="#35404D"/>
<path d="M66.0693 292.336L24.7651 250.093C37.3955 254.592 52.6949 253.85 66.8274 251.045C81.5082 248.13 95.0131 242.971 103.124 239.029L140.886 281.558C121.978 292.169 106.323 295.752 93.8916 296.245C81.4444 296.74 72.1905 294.139 66.0693 292.336Z" stroke="black" stroke-linecap="round"/>
</g>
<mask id="mask4_1_8483" style="mask-type:alpha" maskUnits="userSpaceOnUse" x="51" y="213" width="150" height="97">
<path d="M93.3617 309.285L51.9776 266.901C71.2514 262.391 92.7133 252.741 111.758 242.483C130.813 232.219 147.482 221.327 157.168 214.315L199.316 258.231C170.85 281.949 121.141 300.817 93.3617 309.285Z" fill="black" stroke="#66DD8C" stroke-linecap="round"/>
</mask>
<g mask="url(#mask4_1_8483)">
<path d="M93.2933 308.891L51.9093 266.507C71.1831 261.997 92.645 252.348 111.689 242.089C130.745 231.825 147.414 220.933 157.1 213.921L199.247 257.838C170.781 281.555 121.073 300.422 93.2933 308.891Z" fill="black" stroke="#D1AA67" stroke-linecap="round"/>
<path d="M126.713 291.305C136.204 291.305 143.898 280.109 143.898 266.298C143.898 252.487 136.204 241.292 126.713 241.292C117.222 241.292 109.527 252.487 109.527 266.298C109.527 280.109 117.222 291.305 126.713 291.305Z" fill="#35404D"/>
<path d="M93.3617 309.285L51.9776 266.901C71.2514 262.391 92.7133 252.741 111.758 242.483C130.813 232.219 147.482 221.327 157.168 214.315L199.316 258.231C170.85 281.949 121.141 300.817 93.3617 309.285Z" stroke="#D1AA67" stroke-linecap="round"/>
</g>
<mask id="mask5_1_8483" style="mask-type:alpha" maskUnits="userSpaceOnUse" x="107" y="173" width="147" height="124">
<path d="M149.593 295.746L107.853 253.35C146.566 233.301 190.937 195.43 211.441 173.72L253.296 215.51C250.012 220.468 244.141 226.756 236.611 233.703C228.947 240.773 219.589 248.507 209.546 256.191C189.594 271.455 166.966 286.502 149.593 295.746Z" fill="#66DD8C" stroke="black" stroke-linecap="round"/>
</mask>
<g mask="url(#mask5_1_8483)">
<path d="M149.593 295.746L107.853 253.35C146.566 233.301 190.937 195.43 211.441 173.72L253.296 215.51C250.012 220.468 244.141 226.756 236.611 233.703C228.947 240.773 219.589 248.507 209.546 256.191C189.594 271.455 166.966 286.502 149.593 295.746Z" fill="#D1AA67" stroke="black" stroke-linecap="round"/>
<path d="M182.5 267.342C192.097 267.342 199.877 254.958 199.877 239.681C199.877 224.404 192.097 212.019 182.5 212.019C172.903 212.019 165.123 224.404 165.123 239.681C165.123 254.958 172.903 267.342 182.5 267.342Z" fill="#A27C3B"/>
<path d="M127.769 250.222C125.677 251.101 123.253 252.61 121.715 253.628C120.842 254.206 120.703 255.298 121.39 256.047C122.61 257.377 124.452 259.332 125.529 260.22" stroke="#A27C3B" stroke-linecap="round"/>
<path d="M147.172 283.464C148.545 285.067 150.17 286.702 151.127 287.639C151.629 288.13 152.401 288.307 153.072 288.015C154.147 287.547 155.966 286.605 158.407 284.799" stroke="#A27C3B" stroke-linecap="round"/>
<path d="M167.214 219.674C200.698 194.083 229.866 162.818 245.107 141.748L277.811 184.162C267.718 204.356 230.73 243.84 203.858 262.329L166.795 224.716C165.328 223.227 165.524 220.966 167.214 219.674Z" fill="black"/>
<path d="M149.593 295.746L107.853 253.35C146.566 233.301 190.937 195.43 211.441 173.72L253.296 215.51C250.012 220.468 244.141 226.756 236.611 233.703C228.947 240.773 219.589 248.507 209.546 256.191C189.594 271.455 166.966 286.502 149.593 295.746Z" stroke="black" stroke-linecap="round"/>
</g>
<mask id="mask6_1_8483" style="mask-type:alpha" maskUnits="userSpaceOnUse" x="180" y="126" width="119" height="132">
<path d="M223.324 256.998L181.367 214.505C221.347 179.701 243.916 150.845 255.895 127.595L297.679 169.312C293.705 180.692 283.781 195.274 270.494 210.702C257.219 226.114 240.618 242.337 223.324 256.998Z" fill="#66DD8C" stroke="black" stroke-linecap="round"/>
</mask>
<g mask="url(#mask6_1_8483)">
<path d="M223.324 256.998L181.367 214.505C221.347 179.701 243.916 150.845 255.895 127.595L297.679 169.312C293.705 180.692 283.781 195.274 270.494 210.702C257.219 226.114 240.618 242.337 223.324 256.998Z" fill="#D1AA67" stroke="black" stroke-linecap="round"/>
<path d="M248.614 221.498C257.793 220.694 263.868 207.842 262.184 192.792C260.5 177.742 251.694 166.193 242.515 166.997C233.337 167.8 227.261 180.652 228.945 195.702C230.63 210.753 239.436 222.302 248.614 221.498Z" fill="#A27C3B"/>
<path d="M198.941 209.339C197.111 210.882 195.335 212.322 194.147 213.276C193.339 213.924 193.256 215.024 193.966 215.756C195.205 217.035 197.042 218.929 198.053 219.966" stroke="#A27C3B" stroke-linecap="round"/>
<path d="M219.017 240.612C220.255 241.936 221.735 243.582 222.819 244.799C223.604 245.679 225.105 245.709 225.932 244.859C226.886 243.877 228.192 242.541 229.633 241.08" stroke="#A27C3B" stroke-linecap="round"/>
<path d="M237.207 163.061C252.196 146.565 260.118 130.515 263.329 118.405L305.831 163.775C301.682 176.231 295.305 192.452 276.958 208.453L237.266 167.663C235.988 166.349 235.98 164.411 237.207 163.061Z" fill="black"/>
<path d="M223.324 256.998L181.367 214.505C221.347 179.701 243.916 150.845 255.895 127.595L297.679 169.312C293.705 180.692 283.781 195.274 270.494 210.702C257.219 226.114 240.618 242.337 223.324 256.998Z" stroke="black" stroke-linecap="round"/>
</g>
<mask id="mask7_1_8483" style="mask-type:alpha" maskUnits="userSpaceOnUse" x="246" y="89" width="72" height="114">
<path d="M247.122 158.946L290.428 202.138C314.821 170.243 321.14 143.117 315.174 132.368L273.194 90.9365C279.204 114.076 258.317 145.917 247.122 158.946Z" fill="#66DD8C" stroke="black" stroke-linecap="round"/>
</mask>
<g mask="url(#mask7_1_8483)">
<path d="M247.122 158.946L290.428 202.138C314.821 170.243 321.14 143.117 315.174 132.368L273.194 90.9365C279.204 114.076 258.317 145.917 247.122 158.946Z" fill="#D1AA67" stroke="black" stroke-linecap="round"/>
<path d="M305.195 165.786C309.945 163.683 307.76 151.312 300.315 138.154C292.87 124.996 282.984 116.033 278.234 118.136C273.484 120.239 275.668 132.61 283.113 145.768C290.559 158.927 300.445 167.889 305.195 165.786Z" fill="#A27C3B"/>
<path d="M262.137 151.728C260.674 153.79 259.469 155.382 258.701 156.374C258.171 157.057 258.225 157.976 258.846 158.597C259.922 159.673 261.568 161.324 262.59 162.373" stroke="#A27C3B" stroke-linecap="round"/>
<path d="M284.253 183.747C285.292 184.857 286.504 186.283 287.509 187.5C288.429 188.613 290.382 188.441 291.002 187.174C291.577 186 292.273 184.568 292.988 183.072" stroke="#A27C3B" stroke-linecap="round"/>
<path d="M279.816 113.753L320.614 154.694C319.671 137.99 319.783 133.498 313.818 122.749L276.514 91.0044C279.942 98.0337 279.511 101.716 278.827 111.192C278.759 112.127 279.116 113.051 279.816 113.753Z" fill="black"/>
<path d="M247.122 158.946L290.428 202.138C314.821 170.243 321.14 143.117 315.174 132.368L273.194 90.9365C279.204 114.076 258.317 145.917 247.122 158.946Z" stroke="black" stroke-linecap="round"/>
</g>
<mask id="mask8_1_8483" style="mask-type:alpha" maskUnits="userSpaceOnUse" x="288" y="79" width="48" height="68">
<path d="M291.593 102.627L334.207 145.134C336.91 132.515 329.576 120.946 325.571 116.739L288.589 79.8774C293.245 87.8477 292.531 98.3642 291.593 102.627Z" fill="#66DD8C" stroke="black" stroke-linecap="round"/>
</mask>
<g mask="url(#mask8_1_8483)">
<path d="M291.593 102.627L334.207 145.134C336.91 132.515 329.576 120.946 325.571 116.739L288.589 79.8774C293.245 87.8477 292.531 98.3642 291.593 102.627Z" fill="#D1AA67" stroke="black" stroke-linecap="round"/>
<path d="M298.147 99.2832C298.31 100.346 298.308 101.175 298.266 101.736C298.227 102.27 298.361 102.82 298.733 103.242C299.61 104.237 301.283 106.113 302.431 107.292" stroke="#A27C3B" stroke-linecap="round"/>
<path d="M324.66 128.895C326.471 130.831 328.924 133.408 329.82 134.348C329.939 134.474 330.128 134.402 330.098 134.24C329.975 133.585 329.627 132.098 328.644 128.895" stroke="#A27C3B" stroke-linecap="round"/>
<path d="M291.593 102.627L334.207 145.134C336.91 132.515 329.576 120.946 325.571 116.739L288.589 79.8774C293.245 87.8477 292.531 98.3642 291.593 102.627Z" stroke="black" stroke-linecap="round"/>
</g>
<mask id="mask9_1_8483" style="mask-type:alpha" maskUnits="userSpaceOnUse" x="239" y="269" width="83" height="78">
<path d="M310.475 275.078L310.457 275.097L310.848 275.389C317.97 280.72 321.713 289.658 320.158 300.683C318.705 310.984 312.905 321.117 304.683 329.167C296.461 337.218 285.849 343.154 274.81 345.095C264.146 346.971 255.065 344.777 248.855 339.739L248.775 339.675L248.762 339.663L248.758 339.661C248.632 339.558 248.508 339.454 248.385 339.348L248.381 339.346L243.487 335.249L243.696 335.258L244.626 335.3L244.152 334.591C240.705 329.443 239.194 322.743 240.283 315.02C241.735 304.72 247.536 294.586 255.758 286.536C263.98 278.486 274.592 272.55 285.631 270.608C293.637 269.2 300.75 270.087 306.421 272.743L307.462 273.231L307.18 272.367L310.475 275.078Z" fill="#D9D9D9" stroke="black"/>
</mask>
<g mask="url(#mask9_1_8483)">
<path d="M310.475 275.078L310.457 275.097L310.848 275.389C317.97 280.72 321.713 289.658 320.158 300.683C318.705 310.984 312.905 321.117 304.683 329.167C296.461 337.218 285.849 343.154 274.81 345.095C264.146 346.971 255.065 344.777 248.855 339.739L248.775 339.675L248.762 339.663L248.758 339.661C248.632 339.558 248.508 339.454 248.385 339.348L248.381 339.346L243.487 335.249L243.696 335.258L244.626 335.3L244.152 334.591C240.705 329.443 239.194 322.743 240.283 315.02C241.735 304.72 247.536 294.586 255.758 286.536C263.98 278.486 274.592 272.55 285.631 270.608C293.637 269.2 300.75 270.087 306.421 272.743L307.462 273.231L307.18 272.367L310.475 275.078Z" fill="#C2C8CF" stroke="black"/>
<path d="M284.566 328.249L297.659 339.336L257.268 351.93L237.218 330.853L284.566 328.249Z" fill="black"/>
<path d="M291.764 326.278L301.182 334.755L305.873 331.047L296.071 321.792L291.764 326.278Z" fill="black"/>
<path d="M310.475 275.078L310.457 275.097L310.848 275.389C317.97 280.72 321.713 289.658 320.158 300.683C318.705 310.984 312.905 321.117 304.683 329.167C296.461 337.218 285.849 343.154 274.81 345.095C264.146 346.971 255.065 344.777 248.855 339.739L248.775 339.675L248.762 339.663L248.758 339.661C248.632 339.558 248.508 339.454 248.385 339.348L248.381 339.346L243.487 335.249L243.696 335.258L244.626 335.3L244.152 334.591C240.705 329.443 239.194 322.743 240.283 315.02C241.735 304.72 247.536 294.586 255.758 286.536C263.98 278.486 274.592 272.55 285.631 270.608C293.637 269.2 300.75 270.087 306.421 272.743L307.462 273.231L307.18 272.367L310.475 275.078Z" stroke="black"/>
</g>
<path d="M312.942 294.838C310.04 315.421 289.789 335.226 267.748 339.104C245.706 342.982 230.153 329.476 233.056 308.893C235.959 288.31 256.209 268.504 278.251 264.627C300.292 260.749 315.845 274.255 312.942 294.838Z" fill="white" stroke="black"/>
<mask id="mask10_1_8483" style="mask-type:alpha" maskUnits="userSpaceOnUse" x="242" y="273" width="62" height="58">
<path d="M302.257 296.718C300.13 311.807 285.287 326.316 269.142 329.157C252.997 331.998 241.596 322.105 243.724 307.016C245.851 291.927 260.694 277.417 276.839 274.577C292.984 271.736 304.385 281.629 302.257 296.718Z" fill="#66DD8C" stroke="black"/>
</mask>
<g mask="url(#mask10_1_8483)">
<path d="M302.257 296.718C300.13 311.807 285.287 326.316 269.142 329.157C252.997 331.998 241.596 322.105 243.724 307.016C245.851 291.927 260.694 277.417 276.839 274.577C292.984 271.736 304.385 281.629 302.257 296.718Z" fill="#D1AA67" stroke="black"/>
<path d="M304.252 298.29C302.213 312.75 287.99 326.653 272.52 329.375C257.05 332.097 246.125 322.617 248.164 308.158C250.203 293.699 264.426 279.795 279.896 277.073C295.365 274.352 306.291 283.83 304.252 298.29Z" stroke="white"/>
<path d="M302.257 296.718C300.13 311.807 285.287 326.316 269.142 329.157C252.997 331.998 241.596 322.105 243.724 307.016C245.851 291.927 260.694 277.417 276.839 274.577C292.984 271.736 304.385 281.629 302.257 296.718Z" stroke="black"/>
</g>
<path d="M266.524 292.456L272.848 292.163L274.567 287.61L275.593 286.217L278.181 287.442L276.461 291.995L279.171 291.87L281.917 285.924L284.504 287.149L282.785 291.702C291.817 291.284 289.798 298.769 285.178 300.61C284.904 300.719 285.298 301.042 285.298 301.042C290.635 302.081 287.256 312.373 274.76 312.952L273.041 317.506L269.427 317.674L267.225 316.454L271.147 313.12L268.437 313.246L266.717 317.799L263.103 317.966L260.549 316.714L264.823 313.413L258.499 313.707L255.945 312.449L260.549 310.629L262.356 310.544C263.35 310.498 264.421 309.778 264.736 308.944L269.321 296.801C269.636 295.966 269.081 295.32 268.088 295.366L265.378 295.492L262.78 294.278L266.524 292.456ZM275.315 295.031L273.022 301.103C273.022 301.103 281.009 301.105 282.299 297.69C283.588 294.275 275.315 295.031 275.315 295.031ZM272.162 303.38L269.583 310.21C269.583 310.21 279.52 309.749 280.81 306.334C282.099 302.919 272.162 303.38 272.162 303.38Z" fill="black"/>
<path d="M271.93 311.744L270.29 316.088L267.176 316.232L268.816 311.888L268.895 311.678L268.646 311.69L265.935 311.816L265.686 311.827L265.607 312.037L263.966 316.381L260.852 316.525L262.492 312.181L262.572 311.971L262.322 311.983L256.318 312.261L258.084 309.609L259.696 309.534C260.828 309.482 262.046 308.662 262.405 307.711L266.991 295.569C267.35 294.618 266.718 293.884 265.587 293.936L263.126 294.05L264.114 291.434L270.188 291.152L270.438 291.141L270.517 290.931L272.157 286.587L275.271 286.443L273.631 290.787L273.552 290.997L273.801 290.985L276.512 290.859L276.761 290.848L276.84 290.638L278.481 286.294L281.595 286.149L279.955 290.493L279.875 290.703L280.125 290.691C284.985 290.467 286.523 292.571 286.224 294.765C286.073 295.87 285.457 297.002 284.559 297.886C283.665 298.766 282.493 299.404 281.197 299.551L281.075 299.968C282.823 299.798 283.968 300.383 284.507 301.376C285.048 302.372 284.974 303.78 284.264 305.234C283.555 306.684 282.216 308.175 280.234 309.342C278.252 310.509 275.602 311.367 272.259 311.522L272.009 311.534L271.93 311.744ZM272.734 293.811L272.8 293.602L272.56 293.624L272.485 293.823L270.192 299.894L270.117 300.092H270.349L270.442 299.882C270.349 300.092 270.349 300.092 270.349 300.092H270.351H270.355H270.374C270.389 300.092 270.413 300.092 270.443 300.091C270.503 300.09 270.591 300.089 270.703 300.086C270.927 300.079 271.248 300.066 271.638 300.039C272.414 299.985 273.468 299.877 274.566 299.66C275.66 299.445 276.821 299.116 277.802 298.61C278.794 298.098 279.614 297.396 279.968 296.459C280.322 295.52 280.012 294.871 279.379 294.435C278.752 294.003 277.802 293.772 276.835 293.652C275.865 293.531 274.856 293.518 274.093 293.536C273.711 293.545 273.389 293.562 273.162 293.576C273.048 293.583 272.958 293.589 272.896 293.594C272.865 293.596 272.842 293.599 272.825 293.6L272.807 293.602H272.802L272.8 293.602C272.8 293.602 272.8 293.602 272.734 293.811ZM269.661 301.95L269.411 301.961L269.332 302.171L266.753 309.001L266.674 309.211L266.923 309.199L267.003 308.99C266.923 309.199 266.923 309.199 266.924 309.199H266.926H266.931L266.954 309.197C266.963 309.197 266.975 309.196 266.989 309.196C267.004 309.195 267.02 309.194 267.039 309.193C267.113 309.189 267.222 309.182 267.36 309.173C267.637 309.153 268.034 309.121 268.513 309.073C269.472 308.975 270.766 308.81 272.105 308.536C273.439 308.262 274.837 307.877 275.994 307.333C277.154 306.787 278.118 306.058 278.479 305.102C278.84 304.147 278.402 303.482 277.62 303.026C276.841 302.572 275.688 302.305 274.517 302.148C273.342 301.99 272.128 301.941 271.21 301.93C270.751 301.926 270.365 301.93 270.093 301.936C269.957 301.939 269.849 301.943 269.776 301.945C269.739 301.946 269.71 301.947 269.691 301.948L269.669 301.949L269.663 301.95H269.661C269.661 301.95 269.661 301.95 269.582 302.159L269.661 301.95Z" fill="white"/>
<path d="M272.8 293.602L272.734 293.811C272.8 293.602 272.8 293.602 272.8 293.602ZM272.8 293.602L272.56 293.624L272.485 293.823L270.192 299.894L270.117 300.092H270.349M272.8 293.602L272.802 293.602H272.807L272.825 293.6C272.842 293.599 272.865 293.596 272.896 293.594C272.958 293.589 273.048 293.583 273.162 293.576C273.389 293.562 273.711 293.545 274.093 293.536C274.856 293.518 275.865 293.531 276.835 293.652C277.802 293.772 278.752 294.003 279.379 294.435C280.012 294.871 280.322 295.52 279.968 296.459C279.614 297.396 278.794 298.098 277.802 298.61C276.821 299.116 275.66 299.445 274.566 299.66C273.468 299.877 272.414 299.985 271.638 300.039C271.248 300.066 270.927 300.079 270.703 300.086C270.591 300.089 270.503 300.09 270.443 300.091C270.413 300.092 270.389 300.092 270.374 300.092H270.355H270.351H270.349M270.349 300.092L270.442 299.882C270.349 300.092 270.349 300.092 270.349 300.092ZM269.661 301.95L269.411 301.961L269.332 302.171L266.753 309.001L266.674 309.211L266.923 309.199L267.003 308.99C266.923 309.199 266.923 309.199 266.924 309.199H266.926H266.931L266.954 309.197C266.963 309.197 266.975 309.196 266.989 309.196C267.004 309.195 267.02 309.194 267.039 309.193C267.113 309.189 267.222 309.182 267.36 309.173C267.637 309.153 268.034 309.121 268.513 309.073C269.472 308.975 270.766 308.81 272.105 308.536C273.439 308.262 274.837 307.877 275.994 307.333C277.154 306.787 278.118 306.058 278.479 305.102C278.84 304.147 278.402 303.482 277.62 303.026C276.841 302.572 275.688 302.305 274.517 302.148C273.342 301.99 272.128 301.941 271.21 301.93C270.751 301.926 270.365 301.93 270.093 301.936C269.957 301.939 269.849 301.943 269.776 301.945C269.739 301.946 269.71 301.947 269.691 301.948L269.669 301.949L269.663 301.95H269.661ZM269.661 301.95C269.661 301.95 269.661 301.95 269.582 302.159L269.661 301.95ZM271.93 311.744L270.29 316.088L267.176 316.232L268.816 311.888L268.895 311.678L268.646 311.69L265.935 311.816L265.686 311.827L265.607 312.037L263.966 316.381L260.852 316.525L262.492 312.181L262.572 311.971L262.322 311.983L256.318 312.261L258.084 309.609L259.696 309.534C260.828 309.482 262.046 308.662 262.405 307.711L266.991 295.569C267.35 294.618 266.718 293.884 265.587 293.936L263.126 294.05L264.114 291.434L270.188 291.152L270.438 291.141L270.517 290.931L272.157 286.587L275.271 286.443L273.631 290.787L273.552 290.997L273.801 290.985L276.512 290.859L276.761 290.848L276.84 290.638L278.481 286.294L281.595 286.149L279.955 290.493L279.875 290.703L280.125 290.691C284.985 290.467 286.523 292.571 286.224 294.765C286.073 295.87 285.457 297.002 284.559 297.886C283.665 298.766 282.493 299.404 281.197 299.551L281.075 299.968C282.823 299.798 283.968 300.383 284.507 301.376C285.048 302.372 284.974 303.78 284.264 305.234C283.555 306.684 282.216 308.175 280.234 309.342C278.252 310.509 275.602 311.367 272.259 311.522L272.009 311.534L271.93 311.744Z" stroke="black" stroke-width="0.5"/>
<mask id="mask11_1_8483" style="mask-type:alpha" maskUnits="userSpaceOnUse" x="25" y="28" width="67" height="64">
<path d="M36.0543 31.2701L33.6904 33.215L33.7081 33.2327L33.3174 33.5252C27.558 37.8361 24.5222 45.0707 25.7829 54.0105C26.9607 62.3628 31.6654 70.5843 38.337 77.1166C45.0094 83.6495 53.618 88.4627 62.5667 90.0371C71.2095 91.5576 78.5587 89.7779 83.5809 85.7042L83.645 85.6523L83.6556 85.6433L83.6594 85.6402C83.7608 85.5571 83.8613 85.473 83.9608 85.3879L83.9645 85.3848L87.7586 82.2092L86.9119 82.2472L87.3863 81.5384C90.1751 77.3721 91.4014 71.9459 90.5183 65.6842C89.3405 57.3319 84.6358 49.1104 77.9642 42.5781C71.2918 36.0452 62.6832 31.2319 53.7345 29.6574C47.2451 28.5157 41.4864 29.2359 36.8986 31.385L35.858 31.8723L36.0543 31.2701Z" fill="#D9D9D9" stroke="black"/>
</mask>
<g mask="url(#mask11_1_8483)">
<path d="M36.0543 31.2701L33.6904 33.215L33.7081 33.2327L33.3174 33.5252C27.558 37.8361 24.5222 45.0707 25.7829 54.0105C26.9607 62.3628 31.6654 70.5843 38.337 77.1166C45.0094 83.6495 53.618 88.4627 62.5667 90.0371C71.2095 91.5576 78.5587 89.7779 83.5809 85.7042L83.645 85.6523L83.6556 85.6433L83.6594 85.6402C83.7608 85.5571 83.8613 85.473 83.9608 85.3879L83.9645 85.3848L87.7586 82.2092L86.9119 82.2472L87.3863 81.5384C90.1751 77.3721 91.4014 71.9459 90.5183 65.6842C89.3405 57.3319 84.6358 49.1104 77.9642 42.5781C71.2918 36.0452 62.6832 31.2319 53.7345 29.6574C47.2451 28.5157 41.4864 29.2359 36.8986 31.385L35.858 31.8723L36.0543 31.2701Z" fill="#C2C8CF" stroke="black"/>
<path d="M54.6147 76.4263L43.9727 85.4375L76.8019 95.6741L93.0986 78.5434L54.6147 76.4263Z" fill="black"/>
<path d="M48.7715 74.8265L41.1161 81.717L37.3036 78.7028L45.2706 71.1807L48.7715 74.8265Z" fill="black"/>
<path d="M36.0543 31.2701L33.6904 33.215L33.7081 33.2327L33.3174 33.5252C27.558 37.8361 24.5222 45.0707 25.7829 54.0105C26.9607 62.3628 31.6654 70.5843 38.337 77.1166C45.0094 83.6495 53.618 88.4627 62.5667 90.0371C71.2095 91.5576 78.5587 89.7779 83.5809 85.7042L83.645 85.6523L83.6556 85.6433L83.6594 85.6402C83.7608 85.5571 83.8613 85.473 83.9608 85.3879L83.9645 85.3848L87.7586 82.2092L86.9119 82.2472L87.3863 81.5384C90.1751 77.3721 91.4014 71.9459 90.5183 65.6842C89.3405 57.3319 84.6358 49.1104 77.9642 42.5781C71.2918 36.0452 62.6832 31.2319 53.7345 29.6574C47.2451 28.5157 41.4864 29.2359 36.8986 31.385L35.858 31.8723L36.0543 31.2701Z" stroke="black"/>
</g>
<path d="M31.6417 49.2853C33.995 65.9728 50.411 82.0235 68.2719 85.166C86.1328 88.3084 98.742 77.3644 96.3887 60.6769C94.0354 43.9894 77.6194 27.9387 59.7585 24.7963C41.8977 21.6538 29.2884 32.5977 31.6417 49.2853Z" fill="white" stroke="black"/>
<mask id="mask12_1_8483" style="mask-type:alpha" maskUnits="userSpaceOnUse" x="39" y="31" width="50" height="47">
<path d="M40.3096 50.8185C42.0331 63.0402 54.0535 74.7871 67.122 77.0864C80.1904 79.3856 89.425 71.3783 87.7015 59.1566C85.978 46.9349 73.9576 35.188 60.8892 32.8887C47.8208 30.5895 38.5861 38.5967 40.3096 50.8185Z" fill="#66DD8C" stroke="black"/>
</mask>
<g mask="url(#mask12_1_8483)">
<path d="M40.3096 50.8185C42.0331 63.0402 54.0535 74.7871 67.122 77.0864C80.1904 79.3856 89.425 71.3783 87.7015 59.1566C85.978 46.9349 73.9576 35.188 60.8892 32.8887C47.8208 30.5895 38.5861 38.5967 40.3096 50.8185Z" fill="#D1AA67" stroke="black"/>
<path d="M38.6891 52.0952C40.3405 63.8054 51.8575 75.0595 64.377 77.2622C76.8966 79.4648 85.7448 71.7939 84.0934 60.0836C82.442 48.3734 70.925 37.1194 58.4055 34.9166C45.8859 32.7139 37.0377 40.3849 38.6891 52.0952Z" stroke="white"/>
<path d="M40.3096 50.8185C42.0331 63.0402 54.0535 74.7871 67.122 77.0864C80.1904 79.3856 89.425 71.3783 87.7015 59.1566C85.978 46.9349 73.9576 35.188 60.8892 32.8887C47.8208 30.5895 38.5861 38.5967 40.3096 50.8185Z" stroke="black"/>
</g>
<path d="M54.8927 55.5642L53.7597 55.0517L57.735 42.6358L60.3004 41.0757L70.6482 55.1335L75.3082 55.7005L72.7987 58.666L71.2343 67.8033L68.6731 69.3769L54.2251 56.1895L54.2494 56.2013C54.2466 56.1998 54.2438 56.1982 54.241 56.1966L54.8927 55.5642Z" fill="black"/>
<path d="M60.4641 41.4702L74.9497 55.5627L67.3358 58.2697L56.6349 53.43L60.4641 41.4702ZM68.2867 60.3157L75.2803 57.3295L71.0804 67.4245L57.7888 55.2926L68.0473 60.2879L68.1896 60.3572L68.2867 60.3157Z" fill="white" stroke="black" stroke-width="0.5"/>
</svg>
