<svg width="314" height="360" viewBox="0 0 314 360" fill="none" xmlns="http://www.w3.org/2000/svg">
<path d="M20.695 309.315L15.1617 306.329C8.56344 302.766 4.02529 298.517 8.1355 292.238L28.2586 261.486L20.695 309.315Z" fill="black" stroke="black" stroke-width="0.884521" stroke-miterlimit="10"/>
<path d="M307.813 132.665C307.813 126.674 301.663 121.001 291.602 118.682L166.852 89.8813C153.765 86.8557 139.026 90.6473 133.93 98.34L14.8142 278.194C13.6398 279.976 13.0824 281.807 13.0725 283.608L12.9929 298.547C12.9829 304.547 19.1333 310.22 29.2048 312.549L153.954 341.351C167.042 344.376 181.78 340.585 186.876 332.891L305.992 153.037C307.166 151.265 307.724 149.434 307.733 147.633L307.813 132.695C307.813 132.695 307.813 132.715 307.813 132.725C307.813 132.705 307.813 132.685 307.813 132.675V132.665ZM307.784 133.372C307.784 133.372 307.784 133.342 307.784 133.322C307.784 133.342 307.784 133.352 307.784 133.372Z" fill="#D1AA67"/>
<path d="M291.6 118.682C304.687 121.708 311.166 130.396 306.071 138.089L186.954 317.944C181.858 325.636 167.119 329.428 154.033 326.402L29.2831 297.6C16.1961 294.575 9.71732 285.888 14.8128 278.194L133.93 98.34C139.024 90.6473 153.764 86.8557 166.851 89.8813L291.6 118.682Z" fill="white" stroke="black" stroke-width="0.884521" stroke-miterlimit="10"/>
<path d="M287.45 121.279C298.357 123.798 303.762 131.043 299.512 137.451L181.908 315.027C177.658 321.436 165.368 324.601 154.461 322.083L33.8313 294.237C22.9238 291.719 17.5198 284.474 21.7693 278.064L139.373 100.49C143.623 94.0805 155.913 90.9156 166.821 93.4339L287.45 121.279Z" fill="black"/>
<path d="M307.813 132.665C307.813 126.674 301.663 121.001 291.602 118.682L166.852 89.8813C153.765 86.8557 139.026 90.6473 133.93 98.34L14.8142 278.194C13.6398 279.976 13.0824 281.807 13.0725 283.608L12.9929 298.547C12.9829 304.547 19.1333 310.22 29.2048 312.549L153.954 341.351C167.042 344.376 181.78 340.585 186.876 332.891L305.992 153.037C307.166 151.265 307.724 149.434 307.733 147.633L307.813 132.695C307.813 132.695 307.813 132.715 307.813 132.725C307.813 132.705 307.813 132.685 307.813 132.675V132.665ZM307.784 133.372C307.784 133.372 307.784 133.342 307.784 133.322C307.784 133.342 307.784 133.352 307.784 133.372Z" stroke="black" stroke-width="0.884521" stroke-miterlimit="10" stroke-linecap="round"/>
<path d="M120.643 328.322C121.665 328.322 122.494 327.494 122.494 326.472C122.494 325.449 121.665 324.621 120.643 324.621C119.621 324.621 118.792 325.449 118.792 326.472C118.792 327.494 119.621 328.322 120.643 328.322Z" fill="black"/>
<path d="M127.022 329.787C128.045 329.787 128.874 328.958 128.874 327.936C128.874 326.914 128.045 326.084 127.022 326.084C126.001 326.084 125.172 326.914 125.172 327.936C125.172 328.958 126.001 329.787 127.022 329.787Z" fill="black"/>
<path d="M133.393 331.258C134.415 331.258 135.244 330.429 135.244 329.407C135.244 328.385 134.415 327.556 133.393 327.556C132.371 327.556 131.542 328.385 131.542 329.407C131.542 330.429 132.371 331.258 133.393 331.258Z" fill="black"/>
<path d="M139.762 332.731C140.785 332.731 141.612 331.902 141.612 330.881C141.612 329.858 140.785 329.028 139.762 329.028C138.74 329.028 137.911 329.858 137.911 330.881C137.911 331.902 138.74 332.731 139.762 332.731Z" fill="black"/>
<path d="M32.6675 307.882C33.6898 307.882 34.5185 307.054 34.5185 306.031C34.5185 305.009 33.6898 304.181 32.6675 304.181C31.6452 304.181 30.8163 305.009 30.8163 306.031C30.8163 307.054 31.6452 307.882 32.6675 307.882Z" fill="black"/>
<path d="M39.0362 309.355C40.0585 309.355 40.8872 308.526 40.8872 307.504C40.8872 306.481 40.0585 305.653 39.0362 305.653C38.0139 305.653 37.1851 306.481 37.1851 307.504C37.1851 308.526 38.0139 309.355 39.0362 309.355Z" fill="black"/>
<path d="M45.4066 310.817C46.4289 310.817 47.2577 309.988 47.2577 308.966C47.2577 307.943 46.4289 307.114 45.4066 307.114C44.3843 307.114 43.5555 307.943 43.5555 308.966C43.5555 309.988 44.3843 310.817 45.4066 310.817Z" fill="black"/>
<path d="M51.7856 312.291C52.8079 312.291 53.6368 311.463 53.6368 310.44C53.6368 309.418 52.8079 308.589 51.7856 308.589C50.7633 308.589 49.9346 309.418 49.9346 310.44C49.9346 311.463 50.7633 312.291 51.7856 312.291Z" fill="black"/>
<path d="M97.3678 320.453C97.3678 322.394 95.8252 323.627 93.9341 323.19L78.678 319.667C76.787 319.229 75.2445 317.288 75.2445 315.347C75.2445 313.407 76.787 312.173 78.678 312.611L93.9341 316.134C95.8252 316.572 97.3678 318.512 97.3678 320.453Z" fill="black"/>
<path d="M148.768 9.08245L143.135 11.6701L143.612 12.7148C136.766 19.6614 135.253 32.3107 140.627 44.0144C146.001 55.718 156.59 62.8041 166.323 62.1273L166.801 63.1721L172.434 60.5845C183.461 55.5189 187.103 39.8741 180.565 25.6525C174.027 11.431 159.785 4.00688 148.758 9.08245H148.768Z" fill="#AA9753" stroke="black" stroke-width="0.884521" stroke-miterlimit="10"/>
<path d="M148.489 54.9906C153.773 59.9069 160.213 62.5446 166.323 62.1267L166.801 63.1714L172.433 60.5838C179.858 57.1702 183.908 48.9697 183.789 39.6445L148.479 55.0008L148.489 54.9906Z" fill="black" stroke="black" stroke-width="0.884521" stroke-miterlimit="10"/>
<path d="M166.474 63.3617C177.501 58.2943 181.142 42.6558 174.605 28.432C168.07 14.2082 153.831 6.78544 142.804 11.8528C131.777 16.9202 128.135 32.5588 134.672 46.7826C141.208 61.0064 155.446 68.4291 166.474 63.3617Z" fill="#D1AA67"/>
<path d="M143.135 11.6708C134.557 15.6118 130.456 25.9421 132.118 37.0287L176.087 53.3102C179.121 46.2741 178.962 36.9987 174.931 28.2409C168.393 14.0194 154.152 6.59525 143.125 11.6708H143.135Z" fill="white"/>
<path d="M166.672 31.177L159.168 35.4465C157.456 36.4218 156.292 35.3172 156.571 32.9983L157.804 22.8271L156.152 22.1006L154.918 32.2719C154.64 34.5907 153.336 34.6002 152.022 32.2913L146.27 22.1803L144.946 22.9365L150.698 33.0479C152.013 35.3468 151.336 36.4612 149.195 35.5258L139.821 31.3957L139.602 33.1873L148.977 37.3174C151.117 38.2628 151.465 39.8253 149.754 40.8006L142.249 45.0701L143.265 46.8516L150.768 42.5821C152.48 41.6067 153.645 42.7114 153.366 45.0303L152.132 55.1913L153.783 55.9178L155.018 45.7567C155.297 43.4379 156.601 43.4279 157.914 45.7368L163.666 55.8482L164.989 55.0917L159.237 44.9802C157.924 42.6813 158.601 41.5669 160.74 42.5024L170.115 46.6324L170.334 44.8413L160.96 40.7112C158.82 39.7658 158.471 38.2033 160.183 37.228L167.687 32.9585L166.672 31.177Z" fill="black"/>
<path d="M166.474 63.3617C177.501 58.2943 181.142 42.6558 174.605 28.432C168.07 14.2082 153.831 6.78544 142.804 11.8528C131.777 16.9202 128.135 32.5588 134.672 46.7826C141.208 61.0064 155.446 68.4291 166.474 63.3617Z" stroke="black" stroke-width="0.884521" stroke-miterlimit="10"/>
<path d="M65.5989 226.94L85.9608 231.638L76.3372 246.178L55.9752 241.47L65.5989 226.94Z" stroke="#AA9753" stroke-width="0.884521" stroke-miterlimit="10"/>
<path d="M85.9601 231.639L106.322 236.337L96.6984 250.877L76.3364 246.179L85.9601 231.639Z" stroke="#AA9753" stroke-width="0.884521" stroke-miterlimit="10"/>
<path d="M106.323 236.337L126.685 241.044L117.062 255.574L96.6993 250.878L106.323 236.337Z" stroke="#AA9753" stroke-width="0.884521" stroke-miterlimit="10"/>
<path d="M126.684 241.045L147.056 245.742L137.422 260.281L117.061 255.574L126.684 241.045Z" stroke="#AA9753" stroke-width="0.884521" stroke-miterlimit="10"/>
<path d="M147.056 245.74L167.418 250.448L157.785 264.978L137.422 260.28L147.056 245.74Z" stroke="#AA9753" stroke-width="0.884521" stroke-miterlimit="10"/>
<path d="M167.418 250.449L187.78 255.146L178.147 269.677L157.785 264.98L167.418 250.449Z" stroke="#AA9753" stroke-width="0.884521" stroke-miterlimit="10"/>
<path d="M187.78 255.146L208.142 259.843L198.508 274.384L178.146 269.677L187.78 255.146Z" stroke="#AA9753" stroke-width="0.884521" stroke-miterlimit="10"/>
<path d="M75.2212 212.401L95.5933 217.108L85.9596 231.638L65.5975 226.941L75.2212 212.401Z" stroke="#AA9753" stroke-width="0.884521" stroke-miterlimit="10"/>
<path d="M95.5944 217.11L115.956 221.808L106.323 236.338L85.9607 231.64L95.5944 217.11Z" stroke="#AA9753" stroke-width="0.884521" stroke-miterlimit="10"/>
<path d="M115.956 221.808L136.318 226.504L126.684 241.045L106.322 236.338L115.956 221.808Z" stroke="#AA9753" stroke-width="0.884521" stroke-miterlimit="10"/>
<path d="M136.318 226.503L156.68 231.21L147.056 245.74L126.685 241.044L136.318 226.503Z" stroke="#AA9753" stroke-width="0.884521" stroke-miterlimit="10"/>
<path d="M156.68 231.211L177.042 235.909L167.418 250.448L147.056 245.742L156.68 231.211Z" stroke="#AA9753" stroke-width="0.884521" stroke-miterlimit="10"/>
<path d="M177.043 235.909L197.404 240.606L187.781 255.146L167.418 250.448L177.043 235.909Z" stroke="#AA9753" stroke-width="0.884521" stroke-miterlimit="10"/>
<path d="M197.405 240.606L217.767 245.313L208.143 259.843L187.782 255.146L197.405 240.606Z" stroke="#AA9753" stroke-width="0.884521" stroke-miterlimit="10"/>
<path d="M84.8557 197.873L105.218 202.57L95.5943 217.11L75.222 212.403L84.8557 197.873Z" stroke="#AA9753" stroke-width="0.884521" stroke-miterlimit="10"/>
<path d="M105.216 202.569L125.579 207.267L115.955 221.807L95.5928 217.109L105.216 202.569Z" stroke="#AA9753" stroke-width="0.884521" stroke-miterlimit="10"/>
<path d="M125.58 207.267L145.941 211.974L136.318 226.504L115.956 221.806L125.58 207.267Z" stroke="#AA9753" stroke-width="0.884521" stroke-miterlimit="10"/>
<path d="M145.942 211.975L166.305 216.672L156.681 231.212L136.319 226.505L145.942 211.975Z" stroke="#AA9753" stroke-width="0.884521" stroke-miterlimit="10"/>
<path d="M166.304 216.671L186.666 221.369L177.042 235.909L156.68 231.211L166.304 216.671Z" stroke="#AA9753" stroke-width="0.884521" stroke-miterlimit="10"/>
<path d="M186.667 221.369L207.029 226.076L197.406 240.607L177.043 235.909L186.667 221.369Z" stroke="#AA9753" stroke-width="0.884521" stroke-miterlimit="10"/>
<path d="M207.027 226.076L227.389 230.772L217.765 245.313L197.403 240.606L207.027 226.076Z" stroke="#AA9753" stroke-width="0.884521" stroke-miterlimit="10"/>
<path d="M94.479 183.333L114.841 188.03L105.217 202.57L84.8551 197.873L94.479 183.333Z" stroke="#AA9753" stroke-width="0.884521" stroke-miterlimit="10"/>
<path d="M114.842 188.03L135.204 192.737L125.58 207.267L105.218 202.57L114.842 188.03Z" stroke="#AA9753" stroke-width="0.884521" stroke-miterlimit="10"/>
<path d="M135.204 192.736L155.566 197.434L145.942 211.974L125.581 207.267L135.204 192.736Z" stroke="#AA9753" stroke-width="0.884521" stroke-miterlimit="10"/>
<path d="M155.566 197.434L175.938 202.141L166.304 216.671L145.942 211.974L155.566 197.434Z" stroke="#AA9753" stroke-width="0.884521" stroke-miterlimit="10"/>
<path d="M175.938 202.141L196.3 206.838L186.666 221.368L166.305 216.671L175.938 202.141Z" stroke="#AA9753" stroke-width="0.884521" stroke-miterlimit="10"/>
<path d="M196.299 206.838L216.661 211.535L207.027 226.075L186.666 221.368L196.299 206.838Z" stroke="#AA9753" stroke-width="0.884521" stroke-miterlimit="10"/>
<path d="M216.661 211.536L237.022 216.243L227.389 230.773L207.027 226.076L216.661 211.536Z" stroke="#AA9753" stroke-width="0.884521" stroke-miterlimit="10"/>
<path d="M104.103 168.792L124.476 173.5L114.842 188.03L94.4799 183.332L104.103 168.792Z" stroke="#AA9753" stroke-width="0.884521" stroke-miterlimit="10"/>
<path d="M124.475 173.499L144.837 178.197L135.203 192.736L114.842 188.03L124.475 173.499Z" stroke="#AA9753" stroke-width="0.884521" stroke-miterlimit="10"/>
<path d="M144.838 178.196L165.2 182.904L155.567 197.434L135.204 192.737L144.838 178.196Z" stroke="#AA9753" stroke-width="0.884521" stroke-miterlimit="10"/>
<path d="M165.199 182.903L185.562 187.601L175.938 202.141L155.566 197.433L165.199 182.903Z" stroke="#AA9753" stroke-width="0.884521" stroke-miterlimit="10"/>
<path d="M185.561 187.601L205.923 192.298L196.3 206.838L175.937 202.14L185.561 187.601Z" stroke="#AA9753" stroke-width="0.884521" stroke-miterlimit="10"/>
<path d="M205.924 192.299L226.285 197.007L216.662 211.537L196.3 206.839L205.924 192.299Z" stroke="#AA9753" stroke-width="0.884521" stroke-miterlimit="10"/>
<path d="M226.284 197.006L246.646 201.703L237.023 216.242L216.66 211.535L226.284 197.006Z" stroke="#AA9753" stroke-width="0.884521" stroke-miterlimit="10"/>
<path d="M113.737 154.261L134.098 158.959L124.475 173.499L104.102 168.791L113.737 154.261Z" stroke="#AA9753" stroke-width="0.884521" stroke-miterlimit="10"/>
<path d="M134.099 158.96L154.461 163.667L144.837 178.197L124.476 173.5L134.099 158.96Z" stroke="#AA9753" stroke-width="0.884521" stroke-miterlimit="10"/>
<path d="M154.461 163.666L174.823 168.363L165.199 182.903L144.837 178.196L154.461 163.666Z" stroke="#AA9753" stroke-width="0.884521" stroke-miterlimit="10"/>
<path d="M174.824 168.363L195.185 173.06L185.562 187.6L165.2 182.903L174.824 168.363Z" stroke="#AA9753" stroke-width="0.884521" stroke-miterlimit="10"/>
<path d="M195.185 173.062L215.546 177.769L205.923 192.299L185.561 187.602L195.185 173.062Z" stroke="#AA9753" stroke-width="0.884521" stroke-miterlimit="10"/>
<path d="M215.546 177.77L235.908 182.466L226.284 197.007L205.923 192.3L215.546 177.77Z" stroke="#AA9753" stroke-width="0.884521" stroke-miterlimit="10"/>
<path d="M235.908 182.466L256.27 187.173L246.646 201.703L226.284 197.006L235.908 182.466Z" stroke="#AA9753" stroke-width="0.884521" stroke-miterlimit="10"/>
<path d="M287.451 121.279C298.358 123.798 303.763 131.043 299.513 137.452L211.904 269.735L51.7659 232.763L139.374 100.48C143.624 94.0707 155.914 90.9059 166.822 93.4241L287.451 121.27V121.279Z" fill="url(#paint0_linear_1_8756)"/>
<path d="M68.1952 223.646L73.4599 224.859L88.8756 210.747L90.1299 218.022L98.0419 215.235L104.281 214.987L118.542 202.627L122.414 205.95L113.736 228.213L121.468 225.705L124.843 229.786L131.908 228.282L143.135 220.5L147.165 223.565L155.177 220.64L159.784 222.859L169.965 216.639L171.07 224.143L187.411 208.637L190.686 212.857L198.896 209.633L205.036 209.533L219.646 196.645L227.558 193.858L218.82 216.221L224.652 216.579L226.413 223.078L233.768 221.157" stroke="#D1AA67" stroke-width="0.884521" stroke-miterlimit="10"/>
<path d="M155.257 288.206C159.228 289.121 161.188 291.759 159.645 294.088L153.575 303.253C152.032 305.582 147.564 306.737 143.593 305.821L59.9456 286.515C55.9747 285.599 54.0142 282.962 55.5567 280.633L61.6275 271.467C63.1701 269.138 67.6386 267.983 71.6095 268.899L155.257 288.206Z" fill="#D1AA67"/>
<path d="M100.839 282.225L103.805 282.912C104.521 283.081 104.979 283.329 105.178 283.628C105.387 283.947 105.357 284.275 105.108 284.653C104.78 285.151 104.153 285.37 103.427 285.38V285.399C104.043 285.728 104.242 286.285 103.854 286.882C103.556 287.33 103.158 287.599 102.601 287.758C102.063 287.917 101.386 287.917 100.68 287.758L97.6448 287.051L100.839 282.225ZM99.5253 286.554L101.068 286.913C101.714 287.061 102.282 286.892 102.541 286.494C102.849 286.037 102.541 285.698 101.924 285.549L100.411 285.2L99.5155 286.554H99.5253ZM102.351 284.822C102.939 284.952 103.467 284.842 103.715 284.464C103.954 284.106 103.725 283.817 103.138 283.678L101.655 283.34L100.899 284.484L102.351 284.822Z" fill="black"/>
<path d="M106.621 289.122L106.89 288.714H106.86C106.323 288.953 105.835 289.042 105.168 288.893C104.114 288.654 103.845 288.017 104.343 287.261L105.875 284.951L107.129 285.24L105.706 287.39C105.437 287.798 105.537 288.077 106.074 288.196C106.671 288.335 107.239 288.097 107.548 287.638L108.871 285.638L110.135 285.927L107.846 289.39L106.631 289.112L106.621 289.122Z" fill="black"/>
<path d="M108.484 290.028L108.931 290.128C109.428 290.248 109.757 290.098 109.946 289.819C110.076 289.63 110.125 289.382 110.205 288.794L110.553 286.038L111.877 286.347L111.548 288.068C111.488 288.417 111.349 288.894 111.349 288.894H111.369C111.369 288.894 111.787 288.486 112.145 288.207L113.847 286.804L115.121 287.093L111.111 290.257C110.235 290.944 109.707 291.133 108.742 290.914L108.005 290.746L108.484 290.028Z" fill="black"/>
<path d="M64.1751 252.328C63.558 253.253 63.9461 254.208 65.0309 254.468L73.4504 256.408C74.5352 256.658 75.9186 256.11 76.5256 255.184L77.5109 253.702C78.1279 252.776 77.7397 251.82 76.6549 251.562L68.2355 249.62C67.1508 249.372 65.7674 249.919 65.1603 250.845L64.1751 252.328Z" fill="#AA9753"/>
<path d="M84.5372 257.026C83.9202 257.951 84.3083 258.906 85.3931 259.165L93.813 261.105C94.8974 261.355 96.2808 260.807 96.8876 259.881L97.873 258.399C98.4904 257.473 98.1021 256.518 97.0168 256.259L88.5979 254.318C87.5129 254.07 86.1295 254.616 85.5225 255.542L84.5372 257.026Z" fill="#AA9753"/>
<path d="M104.899 261.723C104.281 262.649 104.669 263.604 105.754 263.863L114.174 265.804C115.258 266.052 116.641 265.505 117.249 264.58L118.234 263.096C118.851 262.171 118.463 261.216 117.378 260.957L108.958 259.016C107.874 258.767 106.491 259.315 105.884 260.24L104.899 261.723Z" fill="#AA9753"/>
<path d="M125.271 266.431C124.654 267.356 125.042 268.311 126.127 268.571L134.546 270.511C135.631 270.76 137.015 270.212 137.622 269.287L138.607 267.804C139.223 266.879 138.836 265.923 137.751 265.664L129.332 263.724C128.247 263.475 126.863 264.022 126.256 264.949L125.271 266.431Z" fill="#AA9753"/>
<path d="M145.632 271.128C145.015 272.053 145.403 273.008 146.488 273.267L154.907 275.208C155.992 275.457 157.375 274.909 157.983 273.984L158.967 272.501C159.585 271.575 159.196 270.62 158.112 270.362L149.692 268.42C148.608 268.172 147.224 268.719 146.617 269.644L145.632 271.128Z" fill="#AA9753"/>
<path d="M165.995 275.834C165.378 276.76 165.766 277.716 166.852 277.974L175.271 279.915C176.356 280.164 177.739 279.616 178.346 278.69L179.331 277.208C179.948 276.282 179.56 275.327 178.475 275.068L170.056 273.128C168.971 272.878 167.588 273.426 166.981 274.352L165.995 275.834Z" fill="#AA9753"/>
<path d="M169.456 183.957L175.089 181.369C182.523 177.946 186.584 169.715 186.454 160.36" stroke="#AA9753" stroke-width="0.884521" stroke-miterlimit="10"/>
<path d="M137.66 167.378C144.198 181.599 158.44 189.024 169.466 183.949C176.931 180.515 180.991 172.245 180.831 162.849L137.262 140.796C133.5 147.972 133.35 157.973 137.669 167.368L137.66 167.378Z" stroke="#AA9753" stroke-width="0.884521" stroke-miterlimit="10"/>
<path d="M183.231 146.439C176.693 132.217 162.451 124.793 151.424 129.869L145.791 132.456L146.269 133.501L180.822 162.869L186.455 160.372C186.386 155.853 185.361 151.077 183.231 146.449V146.439Z" fill="#AA9753" stroke="black" stroke-width="0.884521" stroke-miterlimit="10"/>
<path d="M177.597 149.024C171.059 134.803 156.817 127.378 145.791 132.454C142.048 134.175 139.182 137.132 137.252 140.814L180.821 162.867C180.742 158.379 179.707 153.632 177.597 149.034V149.024Z" fill="#D1AA67" stroke="black" stroke-width="0.884521" stroke-miterlimit="10"/>
<path d="M249.085 89.7608L242.924 86.5859L242.397 87.6108C236.943 88.6853 229.151 96.8963 223.259 108.341C217.367 119.786 215.227 130.903 217.517 135.968L216.989 136.993L223.149 140.168C228.305 142.815 238.287 133.679 245.443 119.766C252.597 105.843 254.23 92.4179 249.074 89.7608H249.085Z" fill="#AA9753" stroke="black" stroke-width="0.884521" stroke-miterlimit="10"/>
<path d="M218.283 120.703C216.401 127.231 216.083 132.795 217.527 135.969L216.998 136.995L223.159 140.169C226.622 141.951 232.275 138.388 237.788 131.63L218.283 120.703Z" fill="black" stroke="black" stroke-width="0.884521" stroke-miterlimit="10"/>
<path d="M239.315 116.533C246.475 102.613 248.104 89.1802 242.952 86.5306C237.8 83.8806 227.82 93.0173 220.66 106.937C213.499 120.858 211.871 134.29 217.022 136.94C222.174 139.59 232.155 130.454 239.315 116.533Z" fill="#D1AA67"/>
<path d="M242.925 86.5866C238.914 84.5264 231.997 89.5923 225.747 98.4888L224.652 135.212C229.41 131.898 234.883 125.151 239.292 116.592C246.448 102.669 248.08 89.2438 242.925 86.5866Z" fill="white"/>
<path d="M239.315 116.533C246.475 102.613 248.104 89.1802 242.952 86.5306C237.8 83.8806 227.82 93.0173 220.66 106.937C213.499 120.858 211.871 134.29 217.022 136.94C222.174 139.59 232.155 130.454 239.315 116.533Z" stroke="black" stroke-width="0.884521" stroke-miterlimit="10"/>
<defs>
<linearGradient id="paint0_linear_1_8756" x1="162.503" y1="254.329" x2="178.087" y2="174.384" gradientUnits="userSpaceOnUse">
<stop stop-opacity="0"/>
<stop offset="1"/>
</linearGradient>
</defs>
</svg>
