<svg width="34" height="34" viewBox="0 0 34 34" fill="none" xmlns="http://www.w3.org/2000/svg">
<path d="M15.5496 15.4116C15.3459 15.4116 15.1495 15.3015 15.0477 15.1089C14.1196 13.3475 12.3073 12.2535 10.3179 12.2535C8.329 12.2535 6.51667 13.3475 5.58809 15.1095C5.44144 15.3862 5.10111 15.4913 4.8222 15.3463C4.54551 15.2002 4.43926 14.8577 4.58535 14.5804C5.71094 12.446 7.90732 11.1201 10.3179 11.1201C12.729 11.1201 14.9254 12.446 16.0504 14.581C16.1965 14.8577 16.0902 15.2002 15.813 15.3463C15.7289 15.3906 15.6387 15.4116 15.5496 15.4116Z" fill="#D1AA67"/>
<path d="M10.3178 12.2535C8.46561 12.2535 6.95874 10.7466 6.95874 8.89445C6.95874 7.04227 8.46561 5.5354 10.3178 5.5354C12.17 5.5354 13.6768 7.04227 13.6768 8.89445C13.6768 10.7466 12.17 12.2535 10.3178 12.2535ZM10.3178 6.66873C9.09038 6.66873 8.09207 7.66704 8.09207 8.89445C8.09207 10.1219 9.09038 11.1202 10.3178 11.1202C11.5452 11.1202 12.5435 10.1219 12.5435 8.89445C12.5435 7.66704 11.5452 6.66873 10.3178 6.66873Z" fill="#D1AA67"/>
<path d="M28.9133 28.7759C28.7096 28.7759 28.5126 28.6658 28.4113 28.4732C27.4833 26.7118 25.671 25.6177 23.6816 25.6177C21.6921 25.6177 19.8804 26.7118 18.9523 28.4732C18.8068 28.7499 18.4631 28.8556 18.187 28.7106C17.9098 28.5645 17.8035 28.2219 17.9496 27.9452C19.0741 25.8103 21.2705 24.4844 23.6816 24.4844C26.0927 24.4844 28.2896 25.8103 29.4141 27.9452C29.5602 28.2219 29.4539 28.5645 29.1767 28.7106C29.0926 28.7549 29.0024 28.7759 28.9133 28.7759Z" fill="#D1AA67"/>
<path d="M23.6816 25.6178C21.8294 25.6178 20.3225 24.1109 20.3225 22.2587C20.3225 20.4065 21.8294 18.8997 23.6816 18.8997C25.5343 18.8997 27.0412 20.4065 27.0412 22.2587C27.0412 24.1109 25.5343 25.6178 23.6816 25.6178ZM23.6816 20.033C22.4542 20.033 21.4558 21.0313 21.4558 22.2587C21.4558 23.4861 22.4542 24.4844 23.6816 24.4844C24.909 24.4844 25.9078 23.4861 25.9078 22.2587C25.9078 21.0313 24.909 20.033 23.6816 20.033Z" fill="#D1AA67"/>
<path d="M10.3178 17.8029C6.19064 17.8029 2.83325 14.4449 2.83325 10.3178C2.83325 6.19064 6.19064 2.83325 10.3178 2.83325C14.4449 2.83325 17.8023 6.19064 17.8023 10.3178C17.8023 14.4449 14.4449 17.8029 10.3178 17.8029ZM10.3178 3.96659C6.81597 3.96659 3.96659 6.81597 3.96659 10.3178C3.96659 13.8202 6.81597 16.6695 10.3178 16.6695C13.8196 16.6695 16.669 13.8202 16.669 10.3178C16.669 6.81597 13.8196 3.96659 10.3178 3.96659Z" fill="#525152"/>
<path d="M23.6816 31.1667C19.5544 31.1667 16.197 27.8093 16.197 23.6821C16.197 19.555 19.5544 16.197 23.6816 16.197C27.8087 16.197 31.1667 19.555 31.1667 23.6821C31.1667 27.8093 27.8087 31.1667 23.6816 31.1667ZM23.6816 17.3304C20.1797 17.3304 17.3304 20.1797 17.3304 23.6821C17.3304 27.1839 20.1797 30.0333 23.6816 30.0333C27.1839 30.0333 30.0333 27.1839 30.0333 23.6821C30.0333 20.1797 27.1839 17.3304 23.6816 17.3304Z" fill="#525152"/>
<path d="M23.6814 14.1667C23.3682 14.1667 23.1147 13.9132 23.1147 13.6V10.8846H19.5603C19.2471 10.8846 18.9937 10.6311 18.9937 10.3179C18.9937 10.0047 19.2471 9.75122 19.5603 9.75122H23.6814C23.9946 9.75122 24.248 10.0047 24.248 10.3179V13.6C24.248 13.9132 23.9946 14.1667 23.6814 14.1667Z" fill="#070808"/>
<path d="M23.6815 14.1666C23.5365 14.1666 23.3915 14.1113 23.2809 14.0006L22.0474 12.7671C21.826 12.5458 21.826 12.1872 22.0474 11.9658C22.2687 11.7445 22.6273 11.7445 22.8487 11.9658L23.6815 12.7987L24.5149 11.9658C24.7363 11.7445 25.0949 11.7445 25.3162 11.9658C25.5376 12.1872 25.5376 12.5458 25.3162 12.7671L24.0822 14.0006C23.9715 14.1113 23.8265 14.1666 23.6815 14.1666Z" fill="#070808"/>
<path d="M14.4393 24.2487H10.3176C10.0044 24.2487 9.75098 23.9953 9.75098 23.682V20.3999C9.75098 20.0867 10.0044 19.8333 10.3176 19.8333C10.6309 19.8333 10.8843 20.0867 10.8843 20.3999V23.1154H14.4393C14.7525 23.1154 15.0059 23.3688 15.0059 23.682C15.0059 23.9953 14.7525 24.2487 14.4393 24.2487Z" fill="#070808"/>
<path d="M11.5512 22.2001C11.4062 22.2001 11.2613 22.1447 11.1506 22.0341L10.3177 21.2012L9.4849 22.0341C9.26354 22.2554 8.90495 22.2554 8.68359 22.0341C8.46224 21.8127 8.46224 21.4541 8.68359 21.2328L9.91709 19.9993C10.1384 19.7779 10.497 19.7779 10.7184 19.9993L11.9519 21.2328C12.1732 21.4541 12.1732 21.8127 11.9519 22.0341C11.8412 22.1447 11.6962 22.2001 11.5512 22.2001Z" fill="#070808"/>
</svg>
