<svg width="37" height="37" viewBox="0 0 37 37" fill="none" xmlns="http://www.w3.org/2000/svg">
<path d="M0 11.3568C0 5.08468 5.08456 0.00012207 11.3567 0.00012207H24.9847C31.2568 0.00012207 36.3414 5.08468 36.3414 11.3568V24.9848C36.3414 31.2569 31.2568 36.3415 24.9847 36.3415H11.3567C5.08456 36.3415 0 31.2569 0 24.9848V11.3568Z" fill="url(#paint0_linear_33_2022)"/>
<path d="M17.8401 11.5577C17.8728 11.4983 17.9208 11.4488 17.9792 11.4143C18.0375 11.3799 18.104 11.3617 18.1718 11.3617C18.2395 11.3617 18.306 11.3799 18.3644 11.4143C18.4227 11.4488 18.4707 11.4983 18.5034 11.5577L20.7384 15.8005C20.7917 15.8988 20.8661 15.984 20.9562 16.0501C21.0463 16.1162 21.15 16.1615 21.2597 16.1828C21.3694 16.204 21.4825 16.2008 21.5908 16.1732C21.6991 16.1456 21.8 16.0943 21.8861 16.0231L25.1243 13.2491C25.1865 13.1985 25.2631 13.169 25.3431 13.1647C25.4231 13.1605 25.5024 13.1817 25.5696 13.2254C25.6367 13.2691 25.6883 13.333 25.7169 13.4078C25.7454 13.4827 25.7495 13.5647 25.7285 13.642L23.5828 21.3994C23.539 21.5581 23.4447 21.6982 23.3141 21.7985C23.1835 21.8988 23.0237 21.9538 22.859 21.9551H13.4852C13.3204 21.9539 13.1605 21.899 13.0298 21.7987C12.899 21.6985 12.8045 21.5582 12.7607 21.3994L10.6158 13.6428C10.5948 13.5654 10.5988 13.4834 10.6274 13.4086C10.656 13.3337 10.7075 13.2698 10.7747 13.2262C10.8419 13.1825 10.9212 13.1612 11.0012 13.1655C11.0812 13.1697 11.1578 13.1993 11.22 13.2498L14.4574 16.0239C14.5435 16.0951 14.6444 16.1463 14.7527 16.1739C14.861 16.2015 14.9741 16.2048 15.0838 16.1835C15.1935 16.1622 15.2972 16.1169 15.3873 16.0508C15.4775 15.9847 15.5519 15.8995 15.6051 15.8013L17.8401 11.5577Z" stroke="white" stroke-width="1.51422" stroke-linecap="round" stroke-linejoin="round"/>
<path d="M12.8721 24.9852H23.4716" stroke="white" stroke-width="1.51422" stroke-linecap="round" stroke-linejoin="round"/>
<defs>
<linearGradient id="paint0_linear_33_2022" x1="0" y1="0.00012207" x2="36.3414" y2="36.3415" gradientUnits="userSpaceOnUse">
<stop stop-color="#C9A14A"/>
<stop offset="0.0769231" stop-color="#CCA653"/>
<stop offset="0.153846" stop-color="#D0AB5C"/>
<stop offset="0.230769" stop-color="#D3B065"/>
<stop offset="0.307692" stop-color="#D6B56D"/>
<stop offset="0.384615" stop-color="#DABB75"/>
<stop offset="0.461538" stop-color="#DDC07D"/>
<stop offset="0.538462" stop-color="#E0C585"/>
<stop offset="0.615385" stop-color="#E4CA8D"/>
<stop offset="0.692308" stop-color="#E7CF95"/>
<stop offset="0.769231" stop-color="#EAD49D"/>
<stop offset="0.846154" stop-color="#EDDAA5"/>
<stop offset="0.923077" stop-color="#F1DFAD"/>
<stop offset="1" stop-color="#F4E4B5"/>
</linearGradient>
</defs>
</svg>
