<svg width="17" height="21" viewBox="0 0 17 21" fill="none" xmlns="http://www.w3.org/2000/svg">
<path d="M12.2983 4.91304C12.9624 4.94304 14.8221 5.183 16.0147 6.92894C15.9247 6.98686 13.9253 8.14737 13.825 10.5615L13.8209 10.7994C13.8488 13.8744 16.5194 14.8963 16.5494 14.915C16.5277 14.9832 16.1222 16.3703 15.1427 17.8007C14.2967 19.0388 13.4196 20.2707 12.0346 20.2986C10.6703 20.3224 10.2349 19.4908 8.67821 19.4908C7.12155 19.4908 6.63542 20.2717 5.34975 20.3224C4.01237 20.371 2.99356 18.9861 2.14024 17.7511C0.392233 15.2304 -0.942045 10.6215 0.851474 7.5092C1.74099 5.96495 3.33075 4.98855 5.05497 4.96165C6.36856 4.93683 7.60561 5.84393 8.40825 5.84393C9.21089 5.84393 10.7148 4.75375 12.2973 4.91304H12.2983ZM12.3201 0C12.4411 1.11707 12.0294 2.23724 11.3933 3.08022L11.263 3.24571C10.5534 4.1042 9.38775 4.77444 8.25 4.68446C8.09381 3.51877 8.67407 2.30241 9.3288 1.54011C10.0611 0.679551 11.2992 0.0424075 12.3201 0.0010345V0Z" fill="#4B4747"/>
</svg>
