<svg width="32" height="32" viewBox="0 0 32 32" fill="none" xmlns="http://www.w3.org/2000/svg">
<path d="M0 16C0 7.16344 7.16344 0 16 0V0C24.8366 0 32 7.16344 32 16V16C32 24.8366 24.8366 32 16 32V32C7.16344 32 0 24.8366 0 16V16Z" fill="#D0FAE5"/>
<g clip-path="url(#clip0_139_19340)">
<path d="M16.0001 24.3332C20.6025 24.3332 24.3334 20.6022 24.3334 15.9998C24.3334 11.3975 20.6025 7.6665 16.0001 7.6665C11.3977 7.6665 7.66675 11.3975 7.66675 15.9998C7.66675 20.6022 11.3977 24.3332 16.0001 24.3332Z" stroke="#009966" stroke-width="2.08333" stroke-linecap="round" stroke-linejoin="round"/>
<path d="M13.5 16.0002L15.1667 17.6668L18.5 14.3335" stroke="#009966" stroke-width="2.08333" stroke-linecap="round" stroke-linejoin="round"/>
</g>
<defs>
<clipPath id="clip0_139_19340">
<rect width="20" height="20" fill="white" transform="translate(6 6)"/>
</clipPath>
</defs>
</svg>
