<svg width="34" height="34" viewBox="0 0 34 34" fill="none" xmlns="http://www.w3.org/2000/svg">
<path d="M4.10161 20.2766C3.86864 20.2766 3.65946 20.1344 3.57424 19.9175C3.08283 18.6674 2.83325 17.3398 2.83325 15.9729C2.83325 10.1563 7.41528 5.38944 13.16 5.09393V3.40002C13.16 3.18088 13.2867 2.9811 13.4848 2.88758C13.6829 2.79351 13.9176 2.82394 14.0869 2.96284L21.3479 8.94605C21.4785 9.0534 21.5543 9.21388 21.5543 9.38322C21.5543 9.55256 21.4785 9.71304 21.3479 9.82039L14.0869 15.8036C13.9176 15.9431 13.6829 15.9729 13.4848 15.8789C13.2867 15.7853 13.16 15.5856 13.16 15.3664V13.7029C9.33608 13.9188 6.02629 16.3083 4.63009 19.9147C4.54598 20.1322 4.3368 20.2761 4.10327 20.2766C4.10272 20.2766 4.10216 20.2766 4.10161 20.2766ZM14.2933 4.60142V5.64621C14.2933 5.95942 14.0399 6.21287 13.7266 6.21287C8.34497 6.21287 3.96659 10.5913 3.96659 15.9729C3.96659 16.7123 4.04793 17.4383 4.20897 18.1433C6.10874 14.7046 9.70187 12.5536 13.7266 12.5536C14.0399 12.5536 14.2933 12.807 14.2933 13.1202V14.165L20.0967 9.38322L14.2933 4.60142Z" fill="#D1AA67"/>
<path d="M20.2727 31.1666C20.1438 31.1666 20.0159 31.1224 19.9125 31.0372L12.6515 25.054C12.5209 24.9466 12.4451 24.7861 12.4451 24.6168C12.4451 24.4474 12.5209 24.287 12.6515 24.1796L19.9125 18.1964C20.0818 18.0569 20.3164 18.0271 20.5145 18.1211C20.7126 18.2147 20.8394 18.4144 20.8394 18.6336V20.2971C24.6633 20.0812 27.9731 17.6917 29.3693 14.0853C29.4534 13.8678 29.6625 13.7239 29.8961 13.7234H29.8977C30.1307 13.7234 30.3399 13.8656 30.4251 14.0825C30.9171 15.3337 31.1667 16.6608 31.1667 18.0265C31.1667 23.8437 26.5841 28.6106 20.8394 28.9061V30.6C20.8394 30.8191 20.7126 31.0189 20.5145 31.1124C20.4376 31.1489 20.3546 31.1666 20.2727 31.1666ZM13.9027 24.6168L19.706 29.3986V28.3538C19.706 28.0406 19.9595 27.7871 20.2727 27.7871C25.6549 27.7871 30.0333 23.4087 30.0333 18.0265C30.0333 17.2877 29.952 16.5617 29.7904 15.8561C27.8912 19.2949 24.2975 21.4464 20.2727 21.4464C19.9595 21.4464 19.706 21.193 19.706 20.8798V19.835L13.9027 24.6168Z" fill="#070808"/>
</svg>
