<svg width="13" height="14" viewBox="0 0 13 14" fill="none" xmlns="http://www.w3.org/2000/svg">
<path d="M11.1537 9.06224C11.1537 9.44725 10.8416 9.75934 10.4566 9.75934L9.75947 9.75934L9.75947 4.87967C9.75947 3.72468 8.82317 2.78838 7.66818 2.78838L4.06308 2.78838C3.50848 2.78838 2.97652 3.00871 2.58434 3.4009L0.61267 5.37259C0.220485 5.76477 0.000132964 6.29672 0.000132915 6.85133L0.000132478 11.8506C0.000132377 13.0056 0.936401 13.9419 2.09142 13.9419L7.66818 13.9419C8.82316 13.9419 9.75947 13.0056 9.75947 11.8506L9.75947 11.1535L10.4566 11.1535C11.6115 11.1535 12.5479 10.2173 12.5479 9.06224L12.5479 2.09129C12.5479 0.936304 11.6115 -8.18543e-08 10.4566 -1.82826e-07L6.85147 -4.97994e-07C6.29686 -5.46479e-07 5.7649 0.22033 5.37272 0.612523L5.08398 0.901267C4.81177 1.1735 4.81177 1.61488 5.08398 1.88711C5.3562 2.15934 5.7976 2.15934 6.06981 1.88711L6.35855 1.59836C6.48932 1.46764 6.6666 1.39419 6.85147 1.39419L10.4566 1.39419C10.8416 1.39419 11.1537 1.70629 11.1537 2.09129L11.1537 9.06224Z" fill="black"/>
</svg>
