<svg width="24" height="24" viewBox="0 0 24 24" fill="none" xmlns="http://www.w3.org/2000/svg">
<path d="M5.70139 0.75C4.0416 0.75 2.68876 2.0891 2.68876 3.75V5.25008C2.68876 5.66426 3.02451 6 3.43869 6C3.85286 6 4.18864 5.66423 4.18864 5.25008V3.75C4.18864 2.92562 4.86188 2.25 5.70139 2.25H18.5234C19.363 2.25 20.0362 2.92562 20.0362 3.75V12.75C20.0362 13.5744 19.363 14.25 18.5234 14.25H5.70139C4.86188 14.25 4.18864 13.5744 4.18864 12.75V8.99992C4.18864 8.58574 3.85286 8.25 3.43869 8.25C3.02451 8.25 2.68876 8.58574 2.68876 8.99992V12.75C2.68876 13.5667 3.01589 14.3056 3.54578 14.8458C3.11095 15.1689 2.76219 15.6097 2.55112 16.1344L1.34434 19.1344C0.549144 21.1113 2.01551 23.25 4.14098 23.25H13.125C13.5392 23.25 13.875 22.9142 13.875 22.5C13.875 22.0858 13.5392 21.75 13.125 21.75H4.14098C3.06483 21.75 2.34199 20.6733 2.73583 19.6943L3.9426 16.6943C4.17124 16.1259 4.72661 15.75 5.34773 15.75H18.8037C19.4492 15.75 20.0207 16.1555 20.232 16.7557L21.2879 19.7557C21.629 20.7249 20.9073 21.75 19.8596 21.75H16.875C16.4608 21.75 16.125 22.0858 16.125 22.5C16.125 22.9142 16.4608 23.25 16.875 23.25H19.8596C21.9292 23.25 23.3913 21.2143 22.7027 19.2577L21.6467 16.2577C21.4494 15.6972 21.0969 15.2237 20.6475 14.8775C21.1959 14.3347 21.5361 13.5828 21.5361 12.75V3.75C21.5361 2.0891 20.1832 0.75 18.5234 0.75H5.70139Z" fill="#303236"/>
<path d="M7.96428 19.125C7.55013 19.125 7.21436 19.4608 7.21436 19.875C7.21436 20.2892 7.55013 20.625 7.96428 20.625H16.2609C16.6751 20.625 17.0108 20.2892 17.0108 19.875C17.0108 19.4608 16.6751 19.125 16.2609 19.125H7.96428Z" fill="#303236"/>
<path d="M12 4.125C12.4142 4.125 12.75 4.46078 12.75 4.875V4.96324H13.875C14.2892 4.96324 14.625 5.29901 14.625 5.71324C14.625 6.12746 14.2892 6.46324 13.875 6.46324H11.4792C11.1496 6.46324 10.875 6.73312 10.875 7.07535C10.875 7.41757 11.1496 7.6875 11.4792 7.6875H12.5208C13.6871 7.6875 14.625 8.6373 14.625 9.79965C14.625 10.8848 13.8075 11.7846 12.75 11.8994V12C12.75 12.4142 12.4142 12.75 12 12.75C11.5858 12.75 11.25 12.4142 11.25 12V11.9118H10.125C9.71078 11.9118 9.375 11.576 9.375 11.1618C9.375 10.7475 9.71078 10.4118 10.125 10.4118H12.5208C12.8504 10.4118 13.125 10.1419 13.125 9.79965C13.125 9.45743 12.8504 9.1875 12.5208 9.1875H11.4792C10.3129 9.1875 9.375 8.2377 9.375 7.07535C9.375 5.99021 10.1925 5.09036 11.25 4.97557V4.875C11.25 4.46078 11.5858 4.125 12 4.125Z" fill="#303236"/>
</svg>
