<svg width="32" height="32" viewBox="0 0 32 32" fill="none" xmlns="http://www.w3.org/2000/svg">
<path d="M11.6798 16.8707C12.3682 16.8707 13.0284 17.1442 13.5151 17.6309C14.0019 18.1177 14.2753 18.7779 14.2753 19.4662V24.6572C14.2753 25.3456 14.0019 26.0057 13.5151 26.4925C13.0284 26.9792 12.3682 27.2527 11.6798 27.2527H6.48886C5.80049 27.2527 5.14032 26.9792 4.65357 26.4925C4.16682 26.0057 3.89337 25.3456 3.89337 24.6572V19.4662C3.89337 18.7779 4.16682 18.1177 4.65357 17.6309C5.14032 17.1442 5.80049 16.8707 6.48886 16.8707H11.6798ZM24.6573 25.3061C24.8294 25.3061 24.9944 25.3744 25.1161 25.4961C25.2378 25.6178 25.3061 25.7829 25.3061 25.9549V26.6038C25.3061 26.7759 25.2378 26.9409 25.1161 27.0626C24.9944 27.1843 24.8294 27.2527 24.6573 27.2527H19.4663C19.2942 27.2527 19.1292 27.1843 19.0075 27.0626C18.8858 26.9409 18.8174 26.7759 18.8174 26.6038V25.9549C18.8174 25.7829 18.8858 25.6178 19.0075 25.4961C19.1292 25.3744 19.2942 25.3061 19.4663 25.3061H24.6573ZM6.48886 18.8174C6.31677 18.8174 6.15172 18.8857 6.03004 19.0074C5.90835 19.1291 5.83999 19.2941 5.83999 19.4662V24.6572C5.83999 24.8293 5.90835 24.9943 6.03004 25.116C6.15172 25.2377 6.31677 25.3061 6.48886 25.3061H11.6798C11.8519 25.3061 12.017 25.2377 12.1387 25.116C12.2603 24.9943 12.3287 24.8293 12.3287 24.6572V19.4662C12.3287 19.2941 12.2603 19.1291 12.1387 19.0074C12.017 18.8857 11.8519 18.8174 11.6798 18.8174H6.48886ZM18.1685 18.8174C18.3406 18.8174 18.5057 18.8857 18.6274 19.0074C18.7491 19.1291 18.8174 19.2941 18.8174 19.4662V24.6572C18.8174 24.8293 18.7491 24.9943 18.6274 25.116C18.5057 25.2377 18.3406 25.3061 18.1685 25.3061H17.5197C17.3476 25.3061 17.1825 25.2377 17.0609 25.116C16.9392 24.9943 16.8708 24.8293 16.8708 24.6572V19.4662C16.8708 19.2941 16.9392 19.1291 17.0609 19.0074C17.1825 18.8857 17.3476 18.8174 17.5197 18.8174H18.1685ZM26.6039 21.4128C26.776 21.4128 26.941 21.4812 27.0627 21.6029C27.1844 21.7246 27.2527 21.8896 27.2527 22.0617V24.6572C27.2527 24.8293 27.1844 24.9943 27.0627 25.116C26.941 25.2377 26.776 25.3061 26.6039 25.3061H25.955C25.7829 25.3061 25.6179 25.2377 25.4962 25.116C25.3745 24.9943 25.3061 24.8293 25.3061 24.6572V22.0617C25.3061 21.8896 25.3745 21.7246 25.4962 21.6029C25.6179 21.4812 25.7829 21.4128 25.955 21.4128H26.6039ZM9.73322 20.764C9.90531 20.764 10.0703 20.8323 10.192 20.954C10.3137 21.0757 10.3821 21.2408 10.3821 21.4128V22.7106C10.3821 22.8827 10.3137 23.0477 10.192 23.1694C10.0703 23.2911 9.90531 23.3595 9.73322 23.3595H8.43547C8.26338 23.3595 8.09834 23.2911 7.97665 23.1694C7.85496 23.0477 7.7866 22.8827 7.7866 22.7106V21.4128C7.7866 21.2408 7.85496 21.0757 7.97665 20.954C8.09834 20.8323 8.26338 20.764 8.43547 20.764H9.73322ZM24.0084 21.4128C24.1805 21.4128 24.3455 21.4812 24.4672 21.6029C24.5889 21.7246 24.6573 21.8896 24.6573 22.0617V22.7106C24.6573 22.8827 24.5889 23.0477 24.4672 23.1694C24.3455 23.2911 24.1805 23.3595 24.0084 23.3595H21.4129C21.2408 23.3595 21.0758 23.2911 20.9541 23.1694C20.8324 23.0477 20.764 22.8827 20.764 22.7106V22.0617C20.764 21.8896 20.8324 21.7246 20.9541 21.6029C21.0758 21.4812 21.2408 21.4128 21.4129 21.4128H24.0084ZM24.6573 16.8707C24.8294 16.8707 24.9944 16.9391 25.1161 17.0608C25.2378 17.1825 25.3061 17.3475 25.3061 17.5196V18.1685C25.3061 18.3406 25.2378 18.5056 25.1161 18.6273C24.9944 18.749 24.8294 18.8174 24.6573 18.8174H19.4663C19.2942 18.8174 19.1292 18.749 19.0075 18.6273C18.8858 18.5056 18.8174 18.3406 18.8174 18.1685V17.5196C18.8174 17.3475 18.8858 17.1825 19.0075 17.0608C19.1292 16.9391 19.2942 16.8707 19.4663 16.8707H24.6573ZM11.6798 3.89331C12.3682 3.89331 13.0284 4.16676 13.5151 4.65351C14.0019 5.14026 14.2753 5.80043 14.2753 6.4888V11.6798C14.2753 12.3681 14.0019 13.0283 13.5151 13.5151C13.0284 14.0018 12.3682 14.2753 11.6798 14.2753H6.48886C5.80049 14.2753 5.14032 14.0018 4.65357 13.5151C4.16682 13.0283 3.89337 12.3681 3.89337 11.6798V6.4888C3.89337 5.80043 4.16682 5.14026 4.65357 4.65351C5.14032 4.16676 5.80049 3.89331 6.48886 3.89331H11.6798ZM24.6573 3.89331C25.3456 3.89331 26.0058 4.16676 26.4925 4.65351C26.9793 5.14026 27.2527 5.80043 27.2527 6.4888V11.6798C27.2527 12.3681 26.9793 13.0283 26.4925 13.5151C26.0058 14.0018 25.3456 14.2753 24.6573 14.2753H19.4663C18.7779 14.2753 18.1178 14.0018 17.631 13.5151C17.1443 13.0283 16.8708 12.3681 16.8708 11.6798V6.4888C16.8708 5.80043 17.1443 5.14026 17.631 4.65351C18.1178 4.16676 18.7779 3.89331 19.4663 3.89331H24.6573ZM6.48886 5.83993C6.31677 5.83993 6.15172 5.90829 6.03004 6.02998C5.90835 6.15166 5.83999 6.31671 5.83999 6.4888V11.6798C5.83999 11.8519 5.90835 12.0169 6.03004 12.1386C6.15172 12.2603 6.31677 12.3286 6.48886 12.3286H11.6798C11.8519 12.3286 12.017 12.2603 12.1387 12.1386C12.2603 12.0169 12.3287 11.8519 12.3287 11.6798V6.4888C12.3287 6.31671 12.2603 6.15166 12.1387 6.02998C12.017 5.90829 11.8519 5.83993 11.6798 5.83993H6.48886ZM19.4663 5.83993C19.2942 5.83993 19.1292 5.90829 19.0075 6.02998C18.8858 6.15166 18.8174 6.31671 18.8174 6.4888V11.6798C18.8174 11.8519 18.8858 12.0169 19.0075 12.1386C19.1292 12.2603 19.2942 12.3286 19.4663 12.3286H24.6573C24.8294 12.3286 24.9944 12.2603 25.1161 12.1386C25.2378 12.0169 25.3061 11.8519 25.3061 11.6798V6.4888C25.3061 6.31671 25.2378 6.15166 25.1161 6.02998C24.9944 5.90829 24.8294 5.83993 24.6573 5.83993H19.4663ZM9.73322 7.78654C9.90531 7.78654 10.0703 7.8549 10.192 7.97659C10.3137 8.09828 10.3821 8.26332 10.3821 8.43541V9.73315C10.3821 9.90525 10.3137 10.0703 10.192 10.192C10.0703 10.3137 9.90531 10.382 9.73322 10.382H8.43547C8.26338 10.382 8.09834 10.3137 7.97665 10.192C7.85496 10.0703 7.7866 9.90525 7.7866 9.73315V8.43541C7.7866 8.26332 7.85496 8.09828 7.97665 7.97659C8.09834 7.8549 8.26338 7.78654 8.43547 7.78654H9.73322ZM22.7106 7.78654C22.8827 7.78654 23.0478 7.8549 23.1695 7.97659C23.2912 8.09828 23.3595 8.26332 23.3595 8.43541V9.73315C23.3595 9.90525 23.2912 10.0703 23.1695 10.192C23.0478 10.3137 22.8827 10.382 22.7106 10.382H21.4129C21.2408 10.382 21.0758 10.3137 20.9541 10.192C20.8324 10.0703 20.764 9.90525 20.764 9.73315V8.43541C20.764 8.26332 20.8324 8.09828 20.9541 7.97659C21.0758 7.8549 21.2408 7.78654 21.4129 7.78654H22.7106Z" fill="white"/>
</svg>
