<svg width="24" height="24" viewBox="0 0 24 24" fill="none" xmlns="http://www.w3.org/2000/svg">
<path fill-rule="evenodd" clip-rule="evenodd" d="M4.8 3C4.32261 3 3.86477 3.18964 3.52721 3.52721C3.18964 3.86477 3 4.32261 3 4.8V19.2C3 19.4364 3.04656 19.6704 3.13702 19.8888C3.22748 20.1072 3.36006 20.3056 3.52721 20.4728C3.69435 20.6399 3.89278 20.7725 4.11117 20.863C4.32956 20.9534 4.56362 21 4.8 21H19.2C19.4364 21 19.6704 20.9534 19.8888 20.863C20.1072 20.7725 20.3056 20.6399 20.4728 20.4728C20.6399 20.3056 20.7725 20.1072 20.863 19.8888C20.9534 19.6704 21 19.4364 21 19.2V4.8C21 4.56362 20.9534 4.32956 20.863 4.11117C20.7725 3.89278 20.6399 3.69435 20.4728 3.52721C20.3056 3.36006 20.1072 3.22748 19.8888 3.13702C19.6704 3.04656 19.4364 3 19.2 3H4.8ZM6.346 17.596H8.816V9.65H6.346V17.596ZM6.15 7.132C6.15 7.32005 6.18704 7.50626 6.259 7.68C6.33097 7.85374 6.43645 8.0116 6.56942 8.14458C6.7024 8.27755 6.86026 8.38303 7.034 8.455C7.20774 8.52696 7.39395 8.564 7.582 8.564C7.77005 8.564 7.95626 8.52696 8.13 8.455C8.30374 8.38303 8.4616 8.27755 8.59458 8.14458C8.72755 8.0116 8.83303 7.85374 8.905 7.68C8.97696 7.50626 9.014 7.32005 9.014 7.132C9.014 6.75221 8.86313 6.38798 8.59458 6.11942C8.32602 5.85087 7.96179 5.7 7.582 5.7C7.20221 5.7 6.83798 5.85087 6.56942 6.11942C6.30087 6.38798 6.15 6.75221 6.15 7.132ZM15.597 17.596H18.065V13.238C18.065 11.098 17.605 9.452 15.103 9.452C13.901 9.452 13.095 10.112 12.766 10.737H12.733V9.65H10.364V17.596H12.831V13.665C12.831 12.629 13.028 11.625 14.313 11.625C15.58 11.625 15.597 12.81 15.597 13.732V17.596Z" fill="#C4C7CA"/>
</svg>
