<svg width="24" height="24" viewBox="0 0 24 24" fill="none" xmlns="http://www.w3.org/2000/svg">
<path d="M9.888 17H5.943V10.889H2V7H9.888V17ZM17.774 17H13.268L17.493 7H22L17.774 17ZM13.84 7C14.4361 6.99899 15.0086 7.23246 15.434 7.65C15.6424 7.85535 15.8079 8.10007 15.9208 8.36994C16.0338 8.63981 16.0919 8.92945 16.0919 9.222C16.0919 9.51456 16.0338 9.80419 15.9208 10.0741C15.8079 10.3439 15.6424 10.5887 15.434 10.794C15.0086 11.2115 14.4361 11.445 13.84 11.444C13.2439 11.445 12.6714 11.2115 12.246 10.794C12.0374 10.5889 11.8716 10.3444 11.7583 10.0747C11.645 9.80505 11.5865 9.51553 11.586 9.223C11.586 8.633 11.823 8.067 12.246 7.65C12.6714 7.23246 13.2439 6.99899 13.84 7Z" fill="#C4C7CA"/>
</svg>
