<svg width="24" height="24" viewBox="0 0 24 24" fill="none" xmlns="http://www.w3.org/2000/svg">
<path d="M12 3C14.445 3 14.75 3.009 15.71 3.054C16.67 3.099 17.32 3.249 17.895 3.472C18.4933 3.7029 19.0366 4.05644 19.4901 4.50991C19.9436 4.96337 20.2971 5.50671 20.528 6.105C20.75 6.678 20.901 7.331 20.946 8.29C20.991 9.249 21 9.555 21 12C21 14.445 20.991 14.75 20.946 15.71C20.901 16.669 20.75 17.32 20.528 17.895C20.2971 18.4932 19.9435 19.0364 19.4901 19.4897C19.0366 19.943 18.4933 20.2963 17.895 20.527C17.322 20.75 16.669 20.901 15.71 20.946C14.751 20.991 14.445 21 12 21C9.555 21 9.25 20.99 8.29 20.946C7.33 20.901 6.68 20.75 6.105 20.527C5.50693 20.2962 4.96379 19.9428 4.51049 19.4895C4.0572 19.0362 3.70379 18.4931 3.473 17.895C3.249 17.322 3.099 16.669 3.053 15.71C3.01 14.75 3 14.445 3 12C3 9.554 3.009 9.25 3.054 8.29C3.099 7.33 3.249 6.68 3.473 6.105C3.70379 5.50681 4.05718 4.96353 4.51046 4.51007C4.96375 4.05661 5.5069 3.70301 6.105 3.472C6.68 3.25 7.332 3.1 8.29 3.054C9.25 3.009 9.555 3 12 3ZM12 7.5C10.8065 7.5 9.66193 7.97411 8.81802 8.81802C7.97411 9.66193 7.5 10.8065 7.5 12C7.5 13.1935 7.97411 14.3381 8.81802 15.182C9.66193 16.0259 10.8065 16.5 12 16.5C13.1935 16.5 14.3381 16.0259 15.182 15.182C16.0259 14.3381 16.5 13.1935 16.5 12C16.5 10.8065 16.0259 9.66193 15.182 8.81802C14.3381 7.97411 13.1935 7.5 12 7.5ZM17.85 7.275C17.8564 7.12327 17.832 6.97182 17.7784 6.82975C17.7247 6.68768 17.6429 6.55793 17.5378 6.44831C17.4327 6.33869 17.3065 6.25146 17.1668 6.19186C17.0272 6.13227 16.8769 6.10156 16.725 6.10156C16.5731 6.10156 16.4228 6.13227 16.2832 6.19186C16.1435 6.25146 16.0173 6.33869 15.9122 6.44831C15.8071 6.55793 15.7253 6.68768 15.6716 6.82975C15.618 6.97182 15.5936 7.12327 15.6 7.275C15.6122 7.56516 15.7361 7.83937 15.9458 8.04036C16.1554 8.24134 16.4346 8.35356 16.725 8.35356C17.0154 8.35356 17.2946 8.24134 17.5042 8.04036C17.7139 7.83937 17.8378 7.56516 17.85 7.275ZM12 9.3C12.7161 9.3 13.4028 9.58446 13.9092 10.0908C14.4155 10.5972 14.7 11.2839 14.7 12C14.7 12.7161 14.4155 13.4028 13.9092 13.9092C13.4028 14.4155 12.7161 14.7 12 14.7C11.2839 14.7 10.5972 14.4155 10.0908 13.9092C9.58446 13.4028 9.3 12.7161 9.3 12C9.3 11.2839 9.58446 10.5972 10.0908 10.0908C10.5972 9.58446 11.2839 9.3 12 9.3Z" fill="#C4C7CA"/>
</svg>
