<svg width="24" height="24" viewBox="0 0 24 24" fill="none" xmlns="http://www.w3.org/2000/svg">
<path d="M4.9 13.9001C4.39609 13.9001 3.91282 13.6999 3.5565 13.3436C3.20018 12.9873 3 12.504 3 12.0001C3 11.4962 3.20018 11.0129 3.5565 10.6566C3.91282 10.3003 4.39609 10.1001 4.9 10.1001C5.40391 10.1001 5.88718 10.3003 6.2435 10.6566C6.59982 11.0129 6.8 11.4962 6.8 12.0001C6.8 12.504 6.59982 12.9873 6.2435 13.3436C5.88718 13.6999 5.40391 13.9001 4.9 13.9001ZM12 13.9001C11.4961 13.9001 11.0128 13.6999 10.6565 13.3436C10.3002 12.9873 10.1 12.504 10.1 12.0001C10.1 11.4962 10.3002 11.0129 10.6565 10.6566C11.0128 10.3003 11.4961 10.1001 12 10.1001C12.5039 10.1001 12.9872 10.3003 13.3435 10.6566C13.6998 11.0129 13.9 11.4962 13.9 12.0001C13.9 12.504 13.6998 12.9873 13.3435 13.3436C12.9872 13.6999 12.5039 13.9001 12 13.9001ZM17.2 12.0001C17.2 12.504 17.4002 12.9873 17.7565 13.3436C18.1128 13.6999 18.5961 13.9001 19.1 13.9001C19.6039 13.9001 20.0872 13.6999 20.4435 13.3436C20.7998 12.9873 21 12.504 21 12.0001C21 11.4962 20.7998 11.0129 20.4435 10.6566C20.0872 10.3003 19.6039 10.1001 19.1 10.1001C18.5961 10.1001 18.1128 10.3003 17.7565 10.6566C17.4002 11.0129 17.2 11.4962 17.2 12.0001Z" fill="#C4C7CA"/>
</svg>
