<svg width="24" height="24" viewBox="0 0 24 24" fill="none" xmlns="http://www.w3.org/2000/svg">
<path d="M20 10.2988C18.4272 10.3026 16.893 9.81221 15.614 8.89678V15.2808C15.6136 16.4633 15.2522 17.6175 14.5781 18.589C13.9041 19.5606 12.9494 20.3032 11.8419 20.7176C10.7344 21.132 9.52678 21.1984 8.38051 20.9079C7.23424 20.6174 6.20398 19.9839 5.42747 19.0921C4.65096 18.2003 4.16523 17.0926 4.03521 15.9173C3.9052 14.742 4.1371 13.555 4.69991 12.515C5.26273 11.475 6.12962 10.6316 7.18469 10.0976C8.23975 9.56365 9.43269 9.36449 10.604 9.52678V12.7388C10.0681 12.5704 9.49275 12.5756 8.96003 12.7537C8.4273 12.9318 7.96446 13.2737 7.63762 13.7305C7.31077 14.1873 7.13663 14.7357 7.14005 15.2974C7.14348 15.8591 7.3243 16.4054 7.65669 16.8582C7.98908 17.311 8.45605 17.6472 8.99091 17.8188C9.52577 17.9904 10.1012 17.9886 10.6349 17.8137C11.1687 17.6387 11.6336 17.2996 11.9631 16.8447C12.2927 16.3899 12.4701 15.8425 12.47 15.2808V2.80078H15.614C15.612 3.06578 15.634 3.33078 15.68 3.59178C15.7892 4.17537 16.0164 4.73054 16.3476 5.22333C16.6787 5.71612 17.1069 6.13617 17.606 6.45778C18.316 6.92778 19.149 7.17778 20 7.17778V10.2988Z" fill="#C4C7CA"/>
</svg>
