<svg width="24" height="24" viewBox="0 0 24 24" fill="none" xmlns="http://www.w3.org/2000/svg">
<path d="M19.2735 4.957L17.9455 4.817C13.975 4.39467 9.97097 4.39433 6.00045 4.816L4.72845 4.956C3.9645 5.04739 3.26349 5.42469 2.76645 6.012C2.25959 6.60974 1.98734 7.37139 2.00045 8.155V15.845C1.98759 16.6283 2.25982 17.3895 2.76645 17.987C3.26349 18.5743 3.9645 18.9516 4.72845 19.043L6.05545 19.183C10.0259 19.605 14.03 19.605 18.0005 19.183L19.2735 19.043C20.037 18.9514 20.7377 18.5741 21.2345 17.987C21.7411 17.3895 22.0133 16.6283 22.0005 15.845V8.155C22.0133 7.37173 21.7411 6.61048 21.2345 6.013C20.7374 5.42569 20.0364 5.04839 19.2725 4.957H19.2735ZM14.7275 12.581L11.1915 15.02C11.0385 15.1075 10.8571 15.1308 10.6871 15.0846C10.517 15.0385 10.3722 14.9268 10.2845 14.774C10.2232 14.6721 10.1882 14.5567 10.1825 14.438V9.562C10.1826 9.43479 10.2164 9.30989 10.2805 9.2C10.3435 9.09168 10.4347 9.00251 10.5445 8.942C10.6532 8.88231 10.7765 8.85424 10.9004 8.86096C11.0243 8.86767 11.1438 8.9089 11.2455 8.98L14.7825 11.419C14.8765 11.482 14.9525 11.568 15.0065 11.669C15.0861 11.8223 15.1073 11.9994 15.0661 12.1672C15.0249 12.335 14.9241 12.482 14.7825 12.581H14.7275Z" fill="#C4C7CA"/>
</svg>
