<svg width="306" height="350" viewBox="0 0 306 350" fill="none" xmlns="http://www.w3.org/2000/svg">
<path d="M97.5469 335.311C115.958 351.343 125.584 348.348 129.172 348.348L136.492 258.98L26.6523 264.894C22.7007 265.107 21.0465 270.076 24.0855 272.611C50.2265 294.415 94.7082 332.841 97.5469 335.311Z" fill="black"/>
<path d="M210.058 221.803L199.502 209.958C195.129 205.052 184.67 203.092 176.16 205.598L155.59 211.636L174.091 232.354L210.058 221.803Z" fill="#D1AA67" stroke="black" stroke-width="0.859951" stroke-linecap="round" stroke-linejoin="round"/>
<path d="M155.59 211.636V244.849L174.09 258.316V232.354L155.59 211.636Z" fill="white" stroke="black" stroke-width="0.859951" stroke-linecap="round" stroke-linejoin="round"/>
<path d="M210.058 221.802V247.764L174.09 258.315V232.353L210.058 221.802Z" fill="#EBE9E9" stroke="black" stroke-width="0.859951" stroke-linecap="round" stroke-linejoin="round"/>
<path d="M155.622 204.374L174.09 225.108L138.139 235.668L119.671 214.941L155.622 204.374Z" fill="#D1AA67" stroke="black" stroke-width="0.859951" stroke-linecap="round" stroke-linejoin="round"/>
<path d="M138.139 235.667V268.873L174.09 258.312V225.108L138.139 235.667Z" fill="#73541E" stroke="black" stroke-width="0.859951" stroke-linecap="round" stroke-linejoin="round"/>
<path d="M138.139 235.667V268.872L119.671 255.397V214.94L138.139 235.667Z" fill="white" stroke="black" stroke-width="0.859951" stroke-linecap="round" stroke-linejoin="round"/>
<path d="M119.672 207.694L138.14 228.42L102.181 238.98L83.7125 218.253L119.672 207.694Z" fill="#D1AA67" stroke="black" stroke-width="0.859951" stroke-linecap="round" stroke-linejoin="round"/>
<path d="M102.181 238.978V279.435L138.14 268.875V228.418L102.181 238.978Z" fill="#73541E" stroke="black" stroke-width="0.859951" stroke-linecap="round" stroke-linejoin="round"/>
<path d="M102.181 238.98V279.437L83.7125 265.962V218.254L102.181 238.98Z" fill="white" stroke="black" stroke-width="0.859951" stroke-linecap="round" stroke-linejoin="round"/>
<path d="M102.18 279.432V231.732L66.2296 236.816V289.952L102.18 279.432Z" fill="#73541E" stroke="black" stroke-width="0.859951" stroke-linecap="round" stroke-linejoin="round"/>
<path d="M53.7588 225.904V273.603C53.7588 275.137 54.3731 276.695 55.6824 278.156L66.1977 289.953H66.2301V236.809L53.7669 225.896L53.7588 225.904Z" fill="#EBE9E9" stroke="black" stroke-width="0.859951" stroke-linecap="round" stroke-linejoin="round"/>
<path d="M66.1977 242.254L55.6824 230.458C54.3811 228.997 53.7588 227.439 53.7588 225.905C53.7588 222.283 57.1939 218.798 63.1829 217.039L83.7528 210.992L102.181 231.735L66.1896 242.254H66.1977Z" fill="#D1AA67" stroke="black" stroke-width="0.859951" stroke-linecap="round" stroke-linejoin="round"/>
<path d="M210.059 221.8L228.527 242.527L192.576 253.094L174.107 232.36L210.059 221.8Z" fill="#D1AA67" stroke="black" stroke-width="0.859951" stroke-linecap="round" stroke-linejoin="round"/>
<path d="M192.576 253.093V278.999L228.527 268.439V242.525L192.576 253.093Z" fill="#EBE9E9" stroke="black" stroke-width="0.859951" stroke-linecap="round" stroke-linejoin="round"/>
<path d="M192.576 253.094V279.001L174.107 262.627V232.361L192.576 253.094Z" fill="white" stroke="black" stroke-width="0.859951" stroke-linecap="round" stroke-linejoin="round"/>
<path d="M174.107 230.191L192.575 250.917L156.616 261.477L138.148 240.751L174.107 230.191Z" fill="#D1AA67" stroke="black" stroke-width="0.859951" stroke-linecap="round" stroke-linejoin="round"/>
<path d="M156.616 261.477V289.566L192.575 278.999V250.917L156.616 261.477Z" fill="#73541E" stroke="black" stroke-width="0.859951" stroke-linecap="round" stroke-linejoin="round"/>
<path d="M156.616 261.479V289.568L138.148 271.01V240.752L156.616 261.479Z" fill="white" stroke="black" stroke-width="0.859951" stroke-linecap="round" stroke-linejoin="round"/>
<path d="M138.148 238.58L156.617 259.307L120.666 269.866L102.197 249.139L138.148 238.58Z" fill="#D1AA67" stroke="black" stroke-width="0.859951" stroke-linecap="round" stroke-linejoin="round"/>
<path d="M120.665 269.864V300.131L156.616 289.571V259.305L120.665 269.864Z" fill="#73541E" stroke="black" stroke-width="0.859951" stroke-linecap="round" stroke-linejoin="round"/>
<path d="M120.666 269.866V300.132L102.197 281.575V249.141L120.666 269.866Z" fill="white" stroke="black" stroke-width="0.859951" stroke-linecap="round" stroke-linejoin="round"/>
<path d="M102.197 246.96L120.666 267.694L84.7066 278.254L66.2382 257.528L102.197 246.96Z" fill="#D1AA67" stroke="black" stroke-width="0.859951" stroke-linecap="round" stroke-linejoin="round"/>
<path d="M84.7062 278.253V310.687L120.665 300.127V267.693L84.7062 278.253Z" fill="#73541E" stroke="black" stroke-width="0.859951" stroke-linecap="round" stroke-linejoin="round"/>
<path d="M84.7066 278.252V310.686L66.2382 289.96V257.526L84.7066 278.252Z" fill="#EBE9E9" stroke="black" stroke-width="0.859951" stroke-linecap="round" stroke-linejoin="round"/>
<path d="M228.574 242.593L247.043 263.32L211.084 273.879L192.615 253.153L228.574 242.593Z" fill="#D1AA67" stroke="black" stroke-width="0.859951" stroke-linecap="round" stroke-linejoin="round"/>
<path d="M211.084 273.877L211.044 299.743L246.995 289.183L247.043 263.318L211.084 273.877Z" fill="#EBE9E9" stroke="black" stroke-width="0.859951" stroke-linecap="round" stroke-linejoin="round"/>
<path d="M211.085 273.879L211.044 296.846L192.576 276.111L192.616 253.153L211.085 273.879Z" fill="#EBE9E9" stroke="black" stroke-width="0.859951" stroke-linecap="round" stroke-linejoin="round"/>
<path d="M192.616 256.048L211.085 276.774L175.134 287.334L156.665 266.608L192.616 256.048Z" fill="#D1AA67" stroke="black" stroke-width="0.859951" stroke-linecap="round" stroke-linejoin="round"/>
<path d="M175.133 287.333L175.085 310.3L211.043 299.74L211.084 276.774L175.133 287.333Z" fill="#73541E" stroke="black" stroke-width="0.859951" stroke-linecap="round" stroke-linejoin="round"/>
<path d="M175.133 287.335L175.084 310.302L156.616 289.576L156.664 266.609L175.133 287.335Z" fill="#EBE9E9" stroke="black" stroke-width="0.859951" stroke-linecap="round" stroke-linejoin="round"/>
<path d="M156.664 269.504L175.133 290.23L139.174 300.79L120.705 280.064L156.664 269.504Z" fill="#D1AA67" stroke="black" stroke-width="0.859951" stroke-linecap="round" stroke-linejoin="round"/>
<path d="M139.174 300.789L139.134 320.856L175.085 310.297L175.133 290.229L139.174 300.789Z" fill="#73541E" stroke="black" stroke-width="0.859951" stroke-linecap="round" stroke-linejoin="round"/>
<path d="M139.174 300.791L139.134 320.858L120.665 300.132L120.705 280.064L139.174 300.791Z" fill="#EBE9E9" stroke="black" stroke-width="0.859951" stroke-linecap="round" stroke-linejoin="round"/>
<path d="M120.705 282.959L139.174 303.685L103.215 314.245L84.7465 293.519L120.705 282.959Z" fill="#D1AA67" stroke="black" stroke-width="0.859951" stroke-linecap="round" stroke-linejoin="round"/>
<path d="M103.216 314.245L103.175 331.413L139.134 320.853L139.175 303.685L103.216 314.245Z" fill="#73541E" stroke="black" stroke-width="0.859951" stroke-linecap="round" stroke-linejoin="round"/>
<path d="M103.215 314.245L103.174 331.414L84.7062 310.688L84.7466 293.519L103.215 314.245Z" fill="#EBE9E9" stroke="black" stroke-width="0.859951" stroke-linecap="round" stroke-linejoin="round"/>
<path d="M229.521 294.561L229.554 320.467L250.018 314.452C255.999 312.694 259.434 309.208 259.434 305.586L259.466 279.665L229.513 294.561H229.521Z" fill="white" stroke="black" stroke-width="0.859951" stroke-linecap="round" stroke-linejoin="round"/>
<path d="M247.044 263.313L257.559 275.109C258.86 276.57 259.474 278.128 259.474 279.661C259.474 283.283 256.039 286.768 250.059 288.527L229.593 294.542L211.061 273.832C211.061 273.832 247.084 263.344 247.051 263.304L247.044 263.313Z" fill="#D1AA67" stroke="black" stroke-width="0.859951" stroke-linecap="round" stroke-linejoin="round"/>
<path d="M211.052 273.833L211.02 299.755L229.553 320.465L229.586 294.544L211.052 273.833Z" fill="#EBE9E9" stroke="black" stroke-width="0.859951" stroke-linecap="round" stroke-linejoin="round"/>
<path d="M211.052 281.083L229.52 301.809L193.561 312.369L175.092 291.643L211.052 281.083Z" fill="#D1AA67" stroke="black" stroke-width="0.859951" stroke-linecap="round" stroke-linejoin="round"/>
<path d="M193.561 312.369L193.594 331.023L229.553 320.464L229.52 301.809L193.561 312.369Z" fill="white" stroke="black" stroke-width="0.859951" stroke-linecap="round" stroke-linejoin="round"/>
<path d="M193.561 312.372L193.593 331.025L175.125 310.299L175.092 291.645L193.561 312.372Z" fill="#EBE9E9" stroke="black" stroke-width="0.859951" stroke-linecap="round" stroke-linejoin="round"/>
<path d="M175.092 298.885L193.561 319.62L157.61 330.179L139.142 309.453L175.092 298.885Z" fill="#D1AA67" stroke="black" stroke-width="0.859951" stroke-linecap="round" stroke-linejoin="round"/>
<path d="M157.61 330.178L157.643 341.581L193.594 331.021L193.561 319.619L157.61 330.178Z" fill="white" stroke="black" stroke-width="0.859951" stroke-linecap="round" stroke-linejoin="round"/>
<path d="M157.61 330.177L157.643 341.58L139.173 320.854L139.142 309.452L157.61 330.177Z" fill="#EBE9E9" stroke="black" stroke-width="0.859951" stroke-linecap="round" stroke-linejoin="round"/>
<path d="M127.373 337.413L103.175 327.247V331.414L113.73 343.259C116.511 346.375 121.741 348.302 127.373 348.647C130.607 348.848 133.969 348.534 137.073 347.619L157.634 341.581V337.413H127.366H127.373Z" fill="#EBE9E9"/>
<path d="M124.771 344.21V348.41" stroke="white" stroke-width="0.859951" stroke-miterlimit="10"/>
<path d="M127.374 337.417V348.651C130.607 348.853 133.969 348.539 137.073 347.624L157.635 341.585V337.417H127.365H127.374Z" fill="white"/>
<path d="M127.373 337.413L103.175 327.247V331.414L113.73 343.259C116.511 346.375 121.741 348.302 127.373 348.647C130.607 348.848 133.969 348.534 137.073 347.619L157.634 341.581V337.413H127.366H127.373Z" stroke="black" stroke-width="0.859951" stroke-linecap="round" stroke-linejoin="round"/>
<path d="M157.643 337.417L137.081 343.456C128.562 345.962 118.112 344.002 113.739 339.096L103.183 327.251L139.15 316.699L157.651 337.417H157.643Z" fill="#D1AA67" stroke="black" stroke-width="0.859951" stroke-linecap="round" stroke-linejoin="round"/>
<path d="M210.025 18.5855L199.469 6.7409C195.096 1.83441 184.638 -0.124725 176.127 2.38072L155.558 8.41988L174.058 29.1378L210.025 18.5855Z" fill="white" stroke="black" stroke-width="0.859951" stroke-linecap="round" stroke-linejoin="round"/>
<path d="M155.558 8.41797L155.589 34.3712L174.058 55.0978V29.1359L155.558 8.41797Z" fill="white" stroke="black" stroke-width="0.859951" stroke-linecap="round" stroke-linejoin="round"/>
<path d="M210.025 18.585V44.5469L174.057 55.0992V29.1372L210.025 18.585Z" fill="#EBE9E9" stroke="black" stroke-width="0.859951" stroke-linecap="round" stroke-linejoin="round"/>
<path d="M155.59 8.40967L174.058 29.1362L138.107 39.6955L119.639 18.9698L155.59 8.40967Z" fill="white" stroke="black" stroke-width="0.859951" stroke-linecap="round" stroke-linejoin="round"/>
<path d="M138.108 39.6936V138.86L174.059 128.3V29.1343L138.108 39.6936Z" fill="#73541E" stroke="black" stroke-width="0.859951" stroke-linecap="round" stroke-linejoin="round"/>
<path d="M138.107 39.697V138.863L119.639 118.137V18.9712L138.107 39.697Z" fill="white" stroke="black" stroke-width="0.859951" stroke-linecap="round" stroke-linejoin="round"/>
<path d="M119.639 18.9683L138.107 39.694L102.148 50.262L83.6798 29.5284L119.639 18.9683Z" fill="white" stroke="black" stroke-width="0.859951" stroke-linecap="round" stroke-linejoin="round"/>
<path d="M102.149 50.2618V184.929L138.108 174.37V39.6938L102.149 50.2618Z" fill="#73541E" stroke="black" stroke-width="0.859951" stroke-linecap="round" stroke-linejoin="round"/>
<path d="M102.148 50.2634V184.931L83.6798 164.205V29.5298L102.148 50.2634Z" fill="white" stroke="black" stroke-width="0.859951" stroke-linecap="round" stroke-linejoin="round"/>
<path d="M102.148 231.742V50.2583L66.1969 55.3415V242.254L102.148 231.742Z" fill="#73541E" stroke="black" stroke-width="0.859951" stroke-linecap="round" stroke-linejoin="round"/>
<path d="M53.7261 44.4209V225.912C53.7261 227.447 54.3403 229.004 55.6497 230.466L66.165 242.263H66.1973V55.3338L53.7342 44.4209H53.7261Z" fill="#EBE9E9" stroke="black" stroke-width="0.859951" stroke-linecap="round" stroke-linejoin="round"/>
<path d="M66.165 60.7814L55.6497 48.9845C54.3484 47.5231 53.7261 45.9653 53.7261 44.4314C53.7261 40.8099 57.1611 37.3246 63.1503 35.566L83.7201 29.519L102.149 50.2612L66.1569 60.7814H66.165Z" fill="white" stroke="black" stroke-width="0.859951" stroke-linecap="round" stroke-linejoin="round"/>
<path d="M210.025 18.584L228.493 39.3183L192.542 49.8785L174.074 29.1519L210.025 18.584Z" fill="white" stroke="black" stroke-width="0.859951" stroke-linecap="round" stroke-linejoin="round"/>
<path d="M192.542 49.8775V75.7907L228.493 65.2315V39.3174L192.542 49.8775Z" fill="#EBE9E9" stroke="black" stroke-width="0.859951" stroke-linecap="round" stroke-linejoin="round"/>
<path d="M192.542 49.8764V75.7897L174.074 59.4085V29.1499L192.542 49.8764Z" fill="white" stroke="black" stroke-width="0.859951" stroke-linecap="round" stroke-linejoin="round"/>
<path d="M174.075 29.1553L192.543 49.8818L156.584 60.4411L138.115 39.7154L174.075 29.1553Z" fill="white" stroke="black" stroke-width="0.859951" stroke-linecap="round" stroke-linejoin="round"/>
<path d="M156.584 60.4421V88.5326L192.543 77.9644V49.8828L156.584 60.4421Z" fill="#73541E" stroke="black" stroke-width="0.859951" stroke-linecap="round" stroke-linejoin="round"/>
<path d="M156.584 60.4416V88.5321L138.115 69.9736V39.7158L156.584 60.4416Z" fill="white" stroke="black" stroke-width="0.859951" stroke-linecap="round" stroke-linejoin="round"/>
<path d="M138.115 39.7139L156.585 60.4396L120.633 70.9997L102.165 50.2732L138.115 39.7139Z" fill="white" stroke="black" stroke-width="0.859951" stroke-linecap="round" stroke-linejoin="round"/>
<path d="M120.633 70.9981V101.256L156.584 90.6968V60.438L120.633 70.9981Z" fill="#73541E" stroke="black" stroke-width="0.859951" stroke-linecap="round" stroke-linejoin="round"/>
<path d="M120.633 71.001V101.258L102.165 82.7092V50.2744L120.633 71.001Z" fill="white" stroke="black" stroke-width="0.859951" stroke-linecap="round" stroke-linejoin="round"/>
<path d="M102.164 50.2759L120.633 71.0024L84.6739 81.5618L66.2054 60.836L102.164 50.2759Z" fill="white" stroke="black" stroke-width="0.859951" stroke-linecap="round" stroke-linejoin="round"/>
<path d="M84.6741 81.5598V150.235L120.633 139.675V71.0005L84.6741 81.5598Z" fill="#73541E" stroke="black" stroke-width="0.859951" stroke-linecap="round" stroke-linejoin="round"/>
<path d="M84.6739 81.5622V150.238L66.2054 129.512V60.8364L84.6739 81.5622Z" fill="#EBE9E9" stroke="black" stroke-width="0.859951" stroke-linecap="round" stroke-linejoin="round"/>
<path d="M228.493 39.3174L246.962 60.0439L211.011 70.6033L192.542 49.8775L228.493 39.3174Z" fill="white" stroke="black" stroke-width="0.859951" stroke-linecap="round" stroke-linejoin="round"/>
<path d="M211.01 70.6023L210.961 96.4677L246.92 85.9084L246.961 60.043L211.01 70.6023Z" fill="#EBE9E9" stroke="black" stroke-width="0.859951" stroke-linecap="round" stroke-linejoin="round"/>
<path d="M211.01 70.6042L210.962 93.5708L192.494 72.8446L192.542 49.8784L211.01 70.6042Z" fill="white" stroke="black" stroke-width="0.859951" stroke-linecap="round" stroke-linejoin="round"/>
<path d="M192.541 49.875L211.01 70.6008L175.051 81.1609L156.582 60.4343L192.541 49.875Z" fill="white" stroke="black" stroke-width="0.859951" stroke-linecap="round" stroke-linejoin="round"/>
<path d="M175.052 81.1592L175.011 104.125L210.962 93.5661L211.011 70.5991L175.052 81.1592Z" fill="#73541E" stroke="black" stroke-width="0.859951" stroke-linecap="round" stroke-linejoin="round"/>
<path d="M175.051 81.1617L175.01 104.128L156.542 83.4021L156.583 60.4351L175.051 81.1617Z" fill="white" stroke="black" stroke-width="0.859951" stroke-linecap="round" stroke-linejoin="round"/>
<path d="M156.583 60.436L175.051 81.1626L139.101 91.7217L120.632 70.9961L156.583 60.436Z" fill="white" stroke="black" stroke-width="0.859951" stroke-linecap="round" stroke-linejoin="round"/>
<path d="M139.1 91.7206L139.051 111.788L175.01 101.228L175.051 81.1611L139.1 91.7206Z" fill="#73541E" stroke="black" stroke-width="0.859951" stroke-linecap="round" stroke-linejoin="round"/>
<path d="M139.101 91.7226L139.052 111.79L120.584 91.0647L120.632 70.9966L139.101 91.7226Z" fill="white" stroke="black" stroke-width="0.859951" stroke-linecap="round" stroke-linejoin="round"/>
<path d="M120.632 70.9956L139.101 91.7216L103.142 102.282L84.6734 81.5549L120.632 70.9956Z" fill="white" stroke="black" stroke-width="0.859951" stroke-linecap="round" stroke-linejoin="round"/>
<path d="M103.142 102.283L103.101 126.703L139.052 116.135L139.101 91.7227L103.142 102.283Z" fill="#73541E" stroke="black" stroke-width="0.859951" stroke-linecap="round" stroke-linejoin="round"/>
<path d="M103.142 102.283L103.101 126.703L84.6331 105.969L84.6735 81.5562L103.142 102.283Z" fill="#EBE9E9" stroke="black" stroke-width="0.859951" stroke-linecap="round" stroke-linejoin="round"/>
<path d="M229.455 91.351L229.487 117.257L249.952 111.242C255.933 109.484 259.368 105.999 259.368 102.377L259.4 76.4551L229.446 91.351H229.455Z" fill="white" stroke="black" stroke-width="0.859951" stroke-linecap="round" stroke-linejoin="round"/>
<path d="M246.969 60.0962L257.485 71.893C258.786 73.3546 259.4 74.9124 259.4 76.4461C259.4 80.0678 255.965 83.5529 249.984 85.3116L229.519 91.3261L210.987 70.6163C210.987 70.6163 247.01 60.1285 246.977 60.0884L246.969 60.0962Z" fill="white" stroke="black" stroke-width="0.859951" stroke-linecap="round" stroke-linejoin="round"/>
<path d="M210.987 70.6235L210.955 96.545L229.488 117.255L229.52 91.326L210.987 70.6235Z" fill="#EBE9E9" stroke="black" stroke-width="0.859951" stroke-linecap="round" stroke-linejoin="round"/>
<path d="M211.052 70.6011L229.52 91.3279L193.561 101.887L175.092 81.1612L211.052 70.6011Z" fill="white" stroke="black" stroke-width="0.859951" stroke-linecap="round" stroke-linejoin="round"/>
<path d="M193.561 101.888L193.594 120.551L229.553 109.99L229.52 91.3286L193.561 101.888Z" fill="white" stroke="black" stroke-width="0.859951" stroke-linecap="round" stroke-linejoin="round"/>
<path d="M193.561 101.887L193.593 120.55L175.125 99.823L175.092 81.1611L193.561 101.887Z" fill="#EBE9E9" stroke="black" stroke-width="0.859951" stroke-linecap="round" stroke-linejoin="round"/>
<path d="M175.092 81.1611L193.561 101.887L157.61 112.455L139.142 91.7206L175.092 81.1611Z" fill="white" stroke="black" stroke-width="0.859951" stroke-linecap="round" stroke-linejoin="round"/>
<path d="M157.61 112.454L157.643 123.857L193.594 113.297L193.561 101.886L157.61 112.454Z" fill="white" stroke="black" stroke-width="0.859951" stroke-linecap="round" stroke-linejoin="round"/>
<path d="M157.61 112.456L157.643 123.86L139.173 103.133L139.142 91.7217L157.61 112.456Z" fill="#EBE9E9" stroke="black" stroke-width="0.859951" stroke-linecap="round" stroke-linejoin="round"/>
<path d="M127.341 112.454L103.142 102.288V106.456L113.697 118.301C116.478 121.416 121.707 123.343 127.341 123.689C130.574 123.89 133.936 123.577 137.04 122.661L157.601 116.622V112.454H127.333H127.341Z" fill="#EBE9E9"/>
<path d="M124.739 119.25V123.45" stroke="white" stroke-width="0.859951" stroke-miterlimit="10"/>
<path d="M127.342 112.458V123.694C130.574 123.894 133.937 123.581 137.04 122.665L157.602 116.627V112.458H127.333H127.342Z" fill="white"/>
<path d="M127.341 112.454L103.142 102.288V106.456L113.697 118.301C116.478 121.416 121.707 123.343 127.341 123.689C130.574 123.89 133.936 123.577 137.04 122.661L157.601 116.622V112.454H127.333H127.341Z" stroke="black" stroke-width="0.859951" stroke-linecap="round" stroke-linejoin="round"/>
<path d="M157.61 112.458L137.049 118.495C128.529 121.001 118.079 119.042 113.706 114.135L103.151 102.291L139.118 91.7397L157.618 112.458H157.61Z" fill="white" stroke="black" stroke-width="0.859951" stroke-linecap="round" stroke-linejoin="round"/>
<path d="M149.734 250.943C125.844 252.91 124.707 262.894 127.124 267.641V278.489C139.502 284.267 159.155 282.353 166.225 280.969V276.8C190.103 276.391 199.296 267.801 198.062 262.962C197.073 259.089 190.972 257.939 188.044 257.849L178.532 260.549V255.524C170.903 254.771 158.629 254.959 153.446 255.147L149.734 250.943Z" fill="#845D1C"/>
<mask id="mask0_1_8604" style="mask-type:alpha" maskUnits="userSpaceOnUse" x="126" y="250" width="73" height="33">
<path d="M149.734 250.944C125.844 252.911 124.707 262.896 127.124 267.642V278.491C139.502 284.269 159.155 282.355 166.225 280.971V276.802C190.103 276.392 199.296 267.803 198.062 262.963C197.073 259.091 190.972 257.941 188.044 257.851L178.532 260.551V255.526C170.903 254.772 158.629 254.961 153.446 255.149L149.734 250.944Z" fill="#095120"/>
</mask>
<g mask="url(#mask0_1_8604)">
<path d="M192.574 250.921L156.616 261.481V265.964L180.784 259.542" stroke="#95743B" stroke-width="0.859951" stroke-linecap="round" stroke-linejoin="round"/>
<path d="M138.148 238.59L156.616 259.316L120.665 269.876L102.197 249.15L138.148 238.59Z" stroke="#95743B" stroke-width="0.859951" stroke-linecap="round" stroke-linejoin="round"/>
<path d="M120.665 269.871L156.616 259.312V269.395" stroke="#95743B" stroke-width="0.859951" stroke-linecap="round" stroke-linejoin="round"/>
<path d="M175.133 287.338L175.085 310.304L211.043 299.744L211.084 276.778L175.133 287.338Z" stroke="#95743B" stroke-width="0.859951" stroke-linecap="round" stroke-linejoin="round"/>
<path d="M175.133 287.34L156.665 266.614" stroke="#95743B" stroke-width="0.859951" stroke-linecap="round" stroke-linejoin="round"/>
<path d="M156.664 269.506L175.133 290.232L139.173 300.792L120.705 280.065L156.664 269.506Z" stroke="#95743B" stroke-width="0.859951" stroke-linecap="round" stroke-linejoin="round"/>
</g>
<mask id="mask1_1_8604" style="mask-type:alpha" maskUnits="userSpaceOnUse" x="115" y="146" width="95" height="100">
<path d="M193.267 149.767L197.532 153.709L197.516 153.727L197.854 154.013C206.078 160.927 210.386 172.508 208.596 186.768C206.923 200.088 200.247 213.187 190.788 223.59C181.329 233.993 169.114 241.67 156.399 244.183C144.113 246.612 133.634 243.772 126.462 237.239L126.37 237.155L126.354 237.139L126.35 237.136C126.206 237.002 126.062 236.868 125.92 236.732L125.917 236.729L120.018 231.182L120.644 231.214L121.446 231.254L121.035 230.565C117.059 223.892 115.319 215.217 116.573 205.23C118.245 191.909 124.922 178.81 134.381 168.407C143.84 158.004 156.055 150.326 168.77 147.813C177.994 145.991 186.198 147.138 192.745 150.583L193.64 151.054L193.358 150.082L193.267 149.767Z" fill="#D9D9D9" stroke="black" stroke-width="0.859951"/>
</mask>
<g mask="url(#mask1_1_8604)">
<path d="M193.267 149.767L197.532 153.709L197.516 153.727L197.854 154.013C206.078 160.927 210.387 172.508 208.596 186.768C206.924 200.088 200.247 213.187 190.788 223.59C181.329 233.993 169.114 241.67 156.399 244.183C144.113 246.612 133.634 243.772 126.462 237.239L126.37 237.155L126.354 237.139L126.35 237.136C126.206 237.002 126.062 236.868 125.92 236.732L125.917 236.729L120.018 231.182L120.644 231.214L121.446 231.254L121.035 230.565C117.059 223.892 115.319 215.217 116.573 205.23C118.245 191.909 124.922 178.81 134.381 168.407C143.84 158.004 156.055 150.326 168.77 147.813C177.994 145.991 186.198 147.138 192.745 150.583L193.64 151.054L193.358 150.082L193.267 149.767Z" fill="#C2C8CF" stroke="black" stroke-width="0.859951"/>
<path d="M167.575 222.315L182.613 236.618L136.223 252.866L113.196 225.676L167.575 222.315Z" fill="black"/>
<path d="M175.843 219.77L186.66 230.707L192.047 225.923L180.789 213.983L175.843 219.77Z" fill="black"/>
<path d="M193.267 149.767L197.532 153.709L197.516 153.727L197.854 154.013C206.078 160.927 210.387 172.508 208.596 186.768C206.924 200.088 200.247 213.187 190.788 223.59C181.329 233.993 169.114 241.67 156.399 244.183C144.113 246.612 133.634 243.772 126.462 237.239L126.37 237.155L126.354 237.139L126.35 237.136C126.206 237.002 126.062 236.868 125.92 236.732L125.917 236.729L120.018 231.182L120.644 231.214L121.446 231.254L121.035 230.565C117.059 223.892 115.319 215.217 116.573 205.23C118.245 191.909 124.922 178.81 134.381 168.407C143.84 158.004 156.055 150.326 168.77 147.813C177.994 145.991 186.198 147.138 192.745 150.583L193.64 151.054L193.358 150.082L193.267 149.767Z" stroke="black" stroke-width="0.859951"/>
</g>
<path d="M200.309 179.179C196.967 205.803 173.645 231.433 148.244 236.454C122.843 241.473 104.934 223.99 108.277 197.367C111.619 170.745 134.941 145.113 160.341 140.094C185.743 135.074 203.652 152.557 200.309 179.179Z" fill="white" stroke="black" stroke-width="0.859951"/>
<path d="M148.954 230.802C171.415 226.363 191.991 203.715 194.938 180.241C197.885 156.768 182.094 141.307 159.632 145.746C137.171 150.185 116.595 172.833 113.648 196.307C110.701 219.78 126.493 235.241 148.954 230.802Z" fill="#D1AA67" stroke="black" stroke-width="0.859951"/>
<path d="M170.712 172.706L169.329 172.85L163.658 201.833L165.041 201.689L170.712 172.706Z" fill="#B27307"/>
<path d="M177.399 214.699C168.761 223.325 157.406 230.236 145.839 231.443C134.274 232.652 124.864 227.909 119.311 220.766L119.453 220.044C120.546 214.449 125.065 209.073 130.791 206.551L141.785 201.709C148.632 198.694 155.671 197.959 161.6 199.64L171.118 202.34C176.076 203.746 178.635 208.384 177.541 213.978L177.399 214.699Z" fill="black"/>
<path d="M147.662 186.651L147.235 186.696L147.152 187.118L144.309 201.65C143.526 205.652 146.179 208.553 150.234 208.129C154.29 207.706 158.212 204.118 158.994 200.117L161.838 185.585L161.921 185.163L161.493 185.207L147.662 186.651Z" fill="white" stroke="black" stroke-width="0.859951"/>
<mask id="mask2_1_8604" style="mask-type:alpha" maskUnits="userSpaceOnUse" x="144" y="185" width="18" height="23">
<path d="M147.578 187.074L161.409 185.63L158.566 200.162C157.829 203.93 154.134 207.309 150.315 207.707C146.496 208.106 143.998 205.375 144.735 201.606L147.578 187.074Z" fill="white"/>
</mask>
<g mask="url(#mask2_1_8604)">
<path d="M156.961 187.589L161.803 187.083L157.624 208.439L155.203 208.692L152.783 208.945L156.961 187.589Z" fill="#D1AA67"/>
</g>
<g filter="url(#filter0_d_1_8604)">
<path d="M147.38 167.32C147.835 164.99 150.119 162.901 152.482 162.654L170.334 160.79L166.048 182.696C164.954 188.289 159.471 193.303 153.803 193.895L152.201 194.063C146.533 194.654 142.824 190.601 143.919 185.007L147.38 167.32Z" fill="white"/>
</g>
<path d="M170.761 160.745L170.844 160.323L170.416 160.367L152.564 162.232C149.966 162.504 147.453 164.801 146.952 167.365L143.491 185.051C142.351 190.879 146.214 195.102 152.118 194.485L153.72 194.317C159.625 193.701 165.336 188.478 166.475 182.651L170.761 160.745Z" stroke="black" stroke-width="0.859951"/>
<path d="M154.713 171.386C155.702 166.332 160.656 161.8 165.779 161.266L170.334 160.79L167.946 172.994L157.207 174.115C155.5 174.293 154.383 173.072 154.713 171.386Z" fill="#D2D2D2"/>
<path d="M147.011 169.202C147.67 165.832 150.973 162.811 154.389 162.454L170.334 160.79L169.927 162.865C168.833 168.459 163.351 173.473 157.682 174.065L152.001 174.658C148.586 175.015 146.352 172.572 147.011 169.202Z" fill="white"/>
<path opacity="0.8" d="M143.554 173.03C144.101 170.233 146.843 167.725 149.677 167.43L167.074 165.613C169.908 165.317 171.762 167.344 171.215 170.141L169.914 176.793C169.366 179.59 166.626 182.097 163.791 182.393L163.049 182.47C162.37 182.541 161.746 182.412 161.255 182.097L157.647 179.787C156.643 179.145 155.138 179.301 153.836 180.185L149.154 183.361C148.517 183.793 147.815 184.061 147.136 184.131L146.394 184.21C143.559 184.506 141.705 182.478 142.252 179.681L143.554 173.03Z" fill="#D1AA67" stroke="black" stroke-width="0.859951"/>
<path d="M139.909 316.119L148.325 322.666L135.498 329.12L127.091 322.579L139.909 316.119Z" fill="black" stroke="black" stroke-width="0.859951" stroke-linecap="round" stroke-linejoin="round"/>
<path d="M140.322 337.173L127.092 322.579L135.499 329.12L140.322 337.173Z" fill="black" stroke="black" stroke-width="0.859951" stroke-linecap="round" stroke-linejoin="round"/>
<path d="M140.322 337.172L148.326 322.665L135.498 329.119L140.322 337.172Z" fill="#D1AA67" stroke="black" stroke-width="0.859951" stroke-linecap="round" stroke-linejoin="round"/>
<path d="M133.637 300.983L126.413 318.906L134.821 325.456L133.637 300.983Z" fill="#73541E" stroke="black" stroke-width="0.859951" stroke-linecap="round" stroke-linejoin="round"/>
<path d="M133.638 300.985L147.649 319.005L134.822 325.459L133.638 300.985Z" fill="#D1AA67" stroke="black" stroke-width="0.859951" stroke-linecap="round" stroke-linejoin="round"/>
<path d="M231.534 238.698L235.567 246.15L224.131 246.795L220.09 239.343L231.534 238.698Z" fill="black" stroke="black" stroke-width="0.859951" stroke-linecap="round" stroke-linejoin="round"/>
<path d="M225.063 254.196L220.092 239.342L224.133 246.795L225.063 254.196Z" fill="black" stroke="black" stroke-width="0.859951" stroke-linecap="round" stroke-linejoin="round"/>
<path d="M225.063 254.195L235.568 246.147L224.132 246.793L225.063 254.195Z" fill="#D1AA67" stroke="black" stroke-width="0.859951" stroke-linecap="round" stroke-linejoin="round"/>
<path d="M231.814 225.654L220.775 236.448L224.818 243.893L231.814 225.654Z" fill="#D1AA67" stroke="black" stroke-width="0.859951" stroke-linecap="round" stroke-linejoin="round"/>
<path d="M231.814 225.657L236.252 243.257L224.817 243.895L231.814 225.657Z" fill="#D1AA67" stroke="black" stroke-width="0.859951" stroke-linecap="round" stroke-linejoin="round"/>
<defs>
<filter id="filter0_d_1_8604" x="139.428" y="157.35" width="30.9064" height="36.7704" filterUnits="userSpaceOnUse" color-interpolation-filters="sRGB">
<feFlood flood-opacity="0" result="BackgroundImageFix"/>
<feColorMatrix in="SourceAlpha" type="matrix" values="0 0 0 0 0 0 0 0 0 0 0 0 0 0 0 0 0 0 127 0" result="hardAlpha"/>
<feOffset dx="-4.29975" dy="-3.4398"/>
<feComposite in2="hardAlpha" operator="out"/>
<feColorMatrix type="matrix" values="0 0 0 0 0.868668 0 0 0 0 0.775774 0 0 0 0 0.616187 0 0 0 1 0"/>
<feBlend mode="normal" in2="BackgroundImageFix" result="effect1_dropShadow_1_8604"/>
<feBlend mode="normal" in="SourceGraphic" in2="effect1_dropShadow_1_8604" result="shape"/>
</filter>
</defs>
</svg>
