<svg width="22" height="22" viewBox="0 0 22 22" fill="none" xmlns="http://www.w3.org/2000/svg">
<g clip-path="url(#clip0_1_3912)">
<path d="M10.7813 4.26746C12.3715 4.26746 13.7955 4.8155 14.9186 5.88464L17.9957 2.80749C16.127 1.06902 13.6877 -0.00012207 10.7813 -0.00012207C6.56759 -0.00012207 2.92442 2.41667 1.15001 5.93855L4.73477 8.71921C5.5838 6.16316 7.96915 4.26746 10.7813 4.26746Z" fill="#EA4335"/>
<path d="M21.1043 11.0282C21.1043 10.3229 21.0369 9.64011 20.9335 8.98425H10.7812V13.0362H16.5941C16.3335 14.3659 15.5789 15.4979 14.4468 16.2616L17.9193 18.9569C19.9453 17.0792 21.1043 14.303 21.1043 11.0282Z" fill="#4285F4"/>
<path d="M4.73018 12.8431C4.51456 12.1917 4.38878 11.4999 4.38878 10.7812C4.38878 10.0624 4.51006 9.37063 4.73018 8.71926L1.14542 5.9386C0.41319 7.39407 -9.15527e-05 9.03821 -9.15527e-05 10.7812C-9.15527e-05 12.5241 0.41319 14.1683 1.14991 15.6238L4.73018 12.8431Z" fill="#FBBC05"/>
<path d="M10.7812 21.5625C13.6922 21.5625 16.1404 20.6056 17.9193 18.9525L14.4468 16.2572C13.481 16.9085 12.2367 17.2904 10.7812 17.2904C7.96911 17.2904 5.58376 15.3947 4.73024 12.8386L1.14548 15.6193C2.92438 19.1457 6.56755 21.5625 10.7812 21.5625Z" fill="#34A853"/>
</g>
<defs>
<clipPath id="clip0_1_3912">
<rect width="21.5625" height="21.5625" fill="white"/>
</clipPath>
</defs>
</svg>
