<svg width="24" height="24" viewBox="0 0 24 24" fill="none" xmlns="http://www.w3.org/2000/svg">
<path d="M21.4816 8.86231C21.3216 8.7063 21.0696 8.7063 20.9136 8.86231L20.7736 9.0023L19.8736 8.1063C19.7176 7.9463 19.4656 7.9463 19.3096 8.1063C19.1536 8.26231 19.1536 8.51431 19.3096 8.67029L20.2096 9.57029L19.4016 10.3783L18.7456 9.7223C18.5896 9.56631 18.3376 9.56631 18.1816 9.7223C18.0216 9.8783 18.0216 10.1303 18.1816 10.2903L18.8336 10.9423L15.6296 14.1463C14.3496 13.1423 12.4856 13.2303 11.3056 14.4103C10.0296 15.6863 10.0296 17.7623 11.3056 19.0383C11.9416 19.6743 12.7816 19.9943 13.6176 19.9943C14.4576 19.9943 15.2936 19.6743 15.9336 19.0383C17.1136 17.8583 17.2016 15.9943 16.1976 14.7143L21.4816 9.4303C21.6376 9.2743 21.6376 9.01832 21.4816 8.86231ZM12.8871 18.2543C12.417 18.2543 12.0376 17.8721 12.0376 17.4049C12.0376 16.9349 12.417 16.5554 12.8871 16.5554C13.3543 16.5554 13.7365 16.9349 13.7365 17.4049C13.7365 17.8721 13.3543 18.2543 12.8871 18.2543Z" fill="black"/>
<path d="M10.7466 13.8462C9.27464 15.3182 9.16663 17.6462 10.4266 19.2422H2.80261C2.69463 19.2422 2.59063 19.1982 2.51463 19.1222C2.43863 19.0462 2.39864 18.9382 2.40261 18.8302C2.51062 15.3342 5.33462 12.5902 8.83062 12.5902C9.79063 12.5902 10.7226 12.8022 11.5706 13.2062C11.2746 13.3822 10.9986 13.5942 10.7466 13.8462Z" fill="black"/>
<path d="M5.02246 7.81824C5.02246 5.71824 6.73044 4.00623 8.83044 4.00623C10.9304 4.00623 12.6385 5.71824 12.6385 7.81824C12.6385 9.91824 10.9304 11.6262 8.83044 11.6262C6.73044 11.6262 5.02246 9.91824 5.02246 7.81824Z" fill="black"/>
</svg>
