<svg preserveAspectRatio="none" width="100%" height="100%" overflow="visible" style="display: block;" viewBox="0 0 157.087 180.933" fill="none" xmlns="http://www.w3.org/2000/svg">
<g id="Group">
<path id="Vector" d="M153.182 154.726C152.161 154.124 150.495 154.124 149.445 154.712L149.431 154.726C148.899 155.02 148.647 155.426 148.661 155.832L141.354 157.05L126.937 148.721C128.504 145.809 129.344 142.73 129.344 139.58L129.372 125.709V125.639C129.358 117.422 123.843 109.723 113.835 103.942C111.777 102.753 109.551 101.717 107.256 100.765L96.2956 6.46249C96.1137 4.8108 95.3437 3.53703 94.1959 2.96308C94.1539 2.93507 94.098 2.92115 94.042 2.90715C94.028 2.89314 94.028 2.86514 94 2.86514L87.7571 0.247584C86.7213 -0.186341 85.5033 -0.0463144 84.3275 0.63958L39.7729 26.3673C39.7589 26.3673 39.7589 26.3673 39.7589 26.3813C37.1274 27.893 35.2937 31.7284 35.6577 34.9338C35.6577 34.9338 35.6577 34.9338 35.6577 34.9478L43.4544 102.081C42.2225 102.669 41.0188 103.271 39.871 103.943C30.0306 109.668 24.5993 117.282 24.5853 125.401C24.5853 125.415 24.5715 125.415 24.5715 125.415L24.5435 139.287C24.5435 142.534 25.3973 145.698 27.0489 148.693L12.5615 157.05L5.26864 155.832C5.28264 155.426 5.03059 155.02 4.49888 154.726C4.48488 154.726 4.48488 154.712 4.48488 154.712C3.42107 154.124 1.75523 154.124 0.747427 154.726C-0.260529 155.328 -0.246527 156.294 0.775431 156.882C0.789277 156.882 0.789277 156.896 0.80328 156.896C1.83908 157.484 3.51893 157.47 4.52689 156.868C4.72269 156.756 4.86279 156.63 4.97474 156.49L12.5756 157.764H12.6314C12.6873 157.764 12.7574 157.75 12.7994 157.722L27.3989 149.295C29.1346 152.249 31.6402 155.034 34.8738 157.568L20.8902 165.63L15.2771 162.369C15.165 162.299 15.0252 162.299 14.9272 162.369L8.43222 166.106C7.38241 165.7 5.99662 165.742 5.10076 166.274C4.09296 166.876 4.10696 167.842 5.12877 168.43L5.14277 168.444C6.19258 169.032 7.85826 169.018 8.88007 168.416C9.76208 167.898 9.86002 167.086 9.16012 166.498L15.0951 163.069L20.7222 166.33C20.8202 166.4 20.9603 166.4 21.0721 166.33L35.4897 158.016C36.9035 159.079 38.4293 160.101 40.081 161.053C40.893 161.515 41.7188 161.963 42.5726 162.383L29.2188 170.096C29.0928 170.165 29.0368 170.305 29.0508 170.445L29.7367 175.751C29.7507 175.849 29.8068 175.932 29.8767 175.989C29.9468 176.045 30.0448 176.073 30.1427 176.058L40.039 174.645L46.7439 178.55C46.044 179.138 46.1561 179.964 47.0658 180.482L47.0798 180.496C48.1296 181.084 49.7953 181.084 50.8173 180.468C51.8251 179.88 51.8111 178.914 50.7753 178.326L50.7612 178.312C49.8514 177.794 48.4796 177.766 47.4718 178.158L40.291 173.973C40.2211 173.931 40.137 173.917 40.0669 173.931L30.3946 175.317L29.7787 170.585L43.3145 162.761C43.3145 162.761 43.3145 162.761 43.3285 162.761C52.7629 167.366 64.7869 169.927 77.1468 169.927C77.7906 169.927 78.4487 169.927 79.0926 169.913C90.7946 169.647 101.853 167.156 110.713 162.817C110.713 162.817 110.713 162.831 110.727 162.831L124.151 170.585L123.535 175.317C113.331 173.889 113.835 173.861 113.639 173.973L106.444 178.158C105.436 177.766 104.078 177.794 103.155 178.312C103.155 178.312 103.155 178.326 103.141 178.326C102.119 178.914 102.105 179.88 103.113 180.468C104.12 181.084 105.8 181.084 106.836 180.496C106.85 180.496 106.85 180.482 106.864 180.482C107.774 179.964 107.886 179.138 107.186 178.55L113.891 174.645L123.787 176.059C123.871 176.073 123.969 176.045 124.039 175.989C124.123 175.933 124.165 175.849 124.179 175.751L124.879 170.445C124.893 170.305 124.823 170.166 124.697 170.096L111.441 162.439C112.323 161.991 113.205 161.543 114.045 161.053C115.669 160.115 117.152 159.107 118.538 158.072L132.858 166.33C132.97 166.4 133.096 166.4 133.208 166.33L138.821 163.069L144.756 166.498C144.07 167.086 144.154 167.898 145.05 168.416C146.058 169.018 147.737 169.032 148.773 168.444C148.787 168.444 148.787 168.43 148.801 168.43C149.823 167.842 149.837 166.876 148.829 166.274C147.933 165.742 146.534 165.7 145.498 166.106L139.003 162.369C138.891 162.299 138.765 162.299 138.653 162.369L133.026 165.63L119.14 157.624C122.373 155.09 124.865 152.29 126.587 149.337L141.116 157.722C141.172 157.75 141.228 157.763 141.298 157.763H141.354L148.941 156.49C149.067 156.63 149.207 156.756 149.389 156.868C150.411 157.47 152.076 157.484 153.126 156.896L153.14 156.882C154.162 156.294 154.176 155.328 153.182 154.726ZM77.0349 137.257C82.1301 137.257 87.2112 136.137 91.0606 133.897C94.8539 131.7 96.9396 128.746 96.9396 125.583C96.9396 124.379 96.6037 123.217 96.0017 122.097L104.106 117.436C106.724 115.91 108.572 112.075 108.194 108.87L107.998 107.134C108.18 107.218 108.362 107.316 108.544 107.414C116.998 112.299 121.66 118.766 121.674 125.625C121.674 132.442 117.096 138.867 108.754 143.71C91.3406 153.83 62.9253 153.83 45.4002 143.71C36.9596 138.825 32.2982 132.358 32.2842 125.499C32.2703 118.976 36.4835 112.831 44.1544 108.058L47.5559 137.341C47.7657 139.105 48.6057 140.406 49.8514 140.938L56.0943 143.556C56.1363 143.57 56.1784 143.57 56.2204 143.57C56.5844 143.71 56.9623 143.794 57.3543 143.794C58.0542 143.794 58.7959 143.584 59.5379 143.164L70.7919 136.655C72.8216 137.047 74.9212 137.257 77.0349 137.257ZM92.5583 3.34107C92.7682 3.32707 92.9643 3.32707 93.1602 3.35507C93.2301 3.36908 93.3002 3.397 93.3703 3.41101C93.5521 3.45301 93.7202 3.49502 93.888 3.57896C94.8121 4.05489 95.4419 5.1327 95.6098 6.5465L107.494 108.954C107.844 111.907 106.164 115.435 103.756 116.82L59.1878 142.548C58.166 143.15 57.144 143.248 56.3043 142.87C56.1502 142.8 56.0243 142.702 55.8843 142.59C55.8002 142.534 55.7164 142.492 55.6323 142.422C55.5063 142.296 55.3942 142.142 55.2964 142.002C55.2265 141.918 55.1564 141.848 55.1004 141.75C54.9885 141.568 54.9186 141.372 54.8345 141.176C54.7925 141.078 54.7504 140.994 54.7084 140.896C54.6105 140.574 54.5406 140.238 54.4986 139.874L51.0971 110.661L42.6005 37.4674C42.2506 34.5138 43.9442 30.9864 46.3518 29.6006L90.9066 3.87294C91.4384 3.56496 91.9564 3.383 92.4603 3.34099C92.4882 3.32707 92.5163 3.34107 92.5583 3.34107ZM84.6775 1.25538C85.6575 0.681431 86.6653 0.555485 87.477 0.891391L91.8583 2.72511C91.7742 2.75312 91.6903 2.78104 91.6064 2.80913C91.5504 2.82313 91.4943 2.83713 91.4383 2.86506C91.1444 2.96308 90.8505 3.0891 90.5566 3.25705L46.1419 28.9007L40.7106 26.6331L84.6775 1.25538ZM36.4276 35.4518L41.9287 37.7474L50.2853 109.723L53.7987 139.958C53.8407 140.378 53.9247 140.756 54.0506 141.12C54.1207 141.344 54.2187 141.526 54.3167 141.722C54.3865 141.848 54.4286 142.002 54.4986 142.114V142.128L50.1174 140.294C49.1094 139.874 48.4235 138.769 48.2417 137.257L36.4276 35.4518ZM126.195 148.609C126.167 148.623 126.139 148.637 126.125 148.665C126.111 148.693 126.111 148.721 126.111 148.749C123.647 153.102 119.448 157.106 113.695 160.451C104.47 165.812 92.1802 168.92 79.0784 169.214C64.7169 169.522 50.6211 166.33 40.4308 160.451C34.6498 157.106 30.4086 153.116 27.9029 148.777C27.9029 148.721 27.9029 148.665 27.8749 148.609C27.8469 148.567 27.8048 148.553 27.7628 148.525C26.1112 145.572 25.2434 142.464 25.2434 139.287L25.2714 130.454C25.2992 130.552 25.3412 130.65 25.3693 130.734C25.5513 131.35 25.7613 131.966 25.9991 132.568C26.0411 132.666 26.0832 132.778 26.1252 132.89C26.4051 133.547 26.741 134.205 27.091 134.849C27.1891 135.017 27.287 135.185 27.3711 135.353C27.7629 135.997 28.1548 136.641 28.6169 137.271C28.6589 137.341 28.7148 137.397 28.7568 137.453C29.1907 138.055 29.6527 138.629 30.1566 139.203C30.2826 139.342 30.4087 139.496 30.5485 139.65C31.0806 140.252 31.6544 140.84 32.2703 141.414C32.3963 141.54 32.5224 141.652 32.6622 141.778C33.2223 142.296 33.8101 142.8 34.4399 143.304C34.552 143.402 34.6779 143.514 34.8039 143.612C35.5038 144.158 36.2597 144.704 37.0297 145.236C37.2115 145.361 37.3937 145.487 37.5755 145.599C38.3875 146.145 39.2272 146.663 40.1092 147.181C50.3276 153.088 63.7372 156.042 77.119 156.042C90.3469 156.042 103.575 153.144 113.695 147.377C113.821 147.307 113.961 147.251 114.073 147.181C114.955 146.677 115.767 146.145 116.578 145.613C116.746 145.501 116.914 145.389 117.082 145.277C117.866 144.745 118.608 144.2 119.308 143.64C119.406 143.556 119.49 143.486 119.588 143.416C120.232 142.884 120.834 142.366 121.422 141.82C121.534 141.722 121.646 141.61 121.758 141.512C122.374 140.924 122.961 140.322 123.507 139.706C123.605 139.594 123.703 139.482 123.801 139.37C124.305 138.783 124.781 138.195 125.229 137.593C125.271 137.537 125.313 137.481 125.355 137.425C125.817 136.781 126.223 136.123 126.615 135.465C126.685 135.339 126.769 135.199 126.839 135.059C127.217 134.387 127.553 133.715 127.847 133.044C127.847 133.016 127.861 132.988 127.875 132.959C128.155 132.302 128.379 131.63 128.574 130.958C128.602 130.874 128.645 130.79 128.659 130.72L128.645 139.58C128.644 142.688 127.79 145.726 126.195 148.609Z" fill="var(--fill-0, black)"/>
<path id="Vector_2" d="M41.7098 60.3781C41.5178 60.4007 41.3803 60.5743 41.4022 60.7663L42.5402 70.5716C42.5614 70.75 42.7124 70.8812 42.8874 70.8812C42.9011 70.8812 42.9148 70.8805 42.9284 70.8791C43.1205 70.8566 43.2579 70.683 43.236 70.4909L42.098 60.6857C42.0748 60.4929 41.9005 60.3542 41.7098 60.3781Z" fill="var(--fill-0, black)"/>
<path id="Vector_3" d="M40.2754 44.9674C40.2522 44.7746 40.0725 44.6414 39.8872 44.6598C39.6952 44.6824 39.5577 44.856 39.5796 45.048L40.7176 54.8532C40.7388 55.0317 40.8898 55.1629 41.0648 55.1629C41.0785 55.1629 41.0922 55.1622 41.1058 55.1608C41.2978 55.1382 41.4353 54.9646 41.4134 54.7726L40.2754 44.9674Z" fill="var(--fill-0, black)"/>
<path id="Vector_4" d="M59.6971 30.9278L71.8631 23.9038C72.7356 23.4001 73.3432 22.129 73.2198 21.066C73.0974 20.0132 72.2894 19.5594 71.4169 20.0631L59.2509 27.0871C58.3784 27.5909 57.7707 28.862 57.8931 29.9149C58.0164 30.9779 58.8246 31.4315 59.6971 30.9278Z" fill="var(--fill-0, black)"/>
<path id="Vector_5" d="M87.6871 117.942L75.5212 124.966C74.6487 125.469 74.0409 126.74 74.1633 127.793C74.2868 128.856 75.0947 129.31 75.9674 128.806L88.1332 121.782C89.0058 121.278 89.6136 120.007 89.4901 118.944C89.3678 117.891 88.5596 117.438 87.6871 117.942Z" fill="var(--fill-0, black)"/>
<path id="Vector_6" d="M77.5598 20.6148C78.4324 20.1111 79.0401 18.84 78.9166 17.777C78.7943 16.7242 77.9862 16.2705 77.1136 16.7742C76.2411 17.2779 75.6417 18.5443 75.7641 19.5972C75.8875 20.6602 76.6873 21.1186 77.5598 20.6148Z" fill="var(--fill-0, black)"/>
<path id="Vector_7" d="M54.8483 106.154C54.9462 106.952 55.3242 107.596 55.9121 107.876C56.1359 108.002 56.388 108.058 56.654 108.058C57.0039 108.058 57.3818 107.946 57.7457 107.736L98.2551 84.3457C99.5148 83.6178 100.383 81.7981 100.215 80.2723C100.117 79.4745 99.7387 78.8446 99.1648 78.5506C98.619 78.2847 97.9612 78.3266 97.3311 78.7046L56.8077 102.095C55.5342 102.837 54.6663 104.614 54.8483 106.154Z" fill="var(--fill-0, #D1AA67)"/>
<path id="Vector_8" d="M91.3397 97.8535C90.7937 97.5735 90.1359 97.6296 89.4921 97.9935L58.4172 115.939C57.1432 116.68 56.2755 118.458 56.4573 119.998C56.5554 120.81 56.9333 121.44 57.5211 121.72C57.7452 121.846 57.9972 121.902 58.263 121.902C58.6129 121.902 58.9769 121.79 59.3409 121.58L90.4298 103.635C91.6896 102.921 92.5574 101.087 92.3895 99.5753C92.2916 98.7634 91.9137 98.1335 91.3397 97.8535Z" fill="var(--fill-0, #D1AA67)"/>
<path id="Vector_9" d="M115.611 149.66C114.139 150.51 112.95 152.568 112.955 154.26C112.96 155.951 114.156 156.633 115.628 155.783C117.1 154.933 118.274 152.883 118.269 151.192C118.264 149.501 117.083 148.81 115.611 149.66Z" fill="var(--fill-0, black)"/>
<path id="Vector_10" d="M83.8923 35.8007C79.8748 33.771 75.0036 34.2049 70.1605 36.9904C59.9143 42.9114 52.7615 57.8609 54.2173 70.3329C54.9451 76.6599 57.8285 81.531 62.1258 83.6867C63.7774 84.5126 65.5692 84.9325 67.445 84.9325C70.1044 84.9325 72.918 84.1066 75.7315 82.4829C86.02 76.5479 93.2147 61.5144 91.759 48.9724C91.0311 42.7575 88.1617 37.9423 83.8923 35.8007ZM75.3816 81.881C70.7903 84.5266 66.1993 84.9465 62.4338 83.0708C58.3606 81.0132 55.6171 76.3519 54.9172 70.2489C53.4894 58.0289 60.4882 43.3873 70.5105 37.6062C75.1438 34.9326 79.777 34.5127 83.5704 36.4165C87.6296 38.4601 90.3593 43.0654 91.0592 49.0563C92.4868 61.3465 85.4461 76.072 75.3816 81.881Z" fill="var(--fill-0, black)"/>
<path id="Vector_11" d="M79.8042 71.5389C79.5342 71.4726 79.308 71.3988 79.1125 71.3134C77.9711 70.8151 77.0997 69.9252 76.4559 68.6075L76.3984 68.4728C76.3807 68.4311 76.3554 68.3935 76.3232 68.3621L76.2385 68.278C76.1599 68.2002 76.0485 68.1652 75.9412 68.1796C75.8319 68.196 75.7368 68.2623 75.6842 68.3587L75.4231 69.066C75.3342 69.3544 75.2461 69.6409 75.1498 69.93C74.2714 72.5887 73.072 75.1696 71.5833 77.6007C71.4829 77.7654 71.5348 77.9807 71.6995 78.0819C71.7562 78.1167 71.8192 78.1332 71.882 78.1332C71.9995 78.1332 72.1144 78.0737 72.1807 77.9657C73.6967 75.4888 74.9194 72.8594 75.8141 70.1508C75.9016 69.8876 75.9836 69.6258 76.0643 69.3627C76.7607 70.5854 77.6902 71.4562 78.8317 71.9545C79.0648 72.0563 79.3279 72.1431 79.6375 72.2183C79.8275 72.2648 80.0155 72.1493 80.0606 71.962C80.1069 71.7741 79.9915 71.5847 79.8042 71.5389Z" fill="var(--fill-0, black)"/>
<path id="Vector_12" d="M72.8995 70.1901C72.9629 70.173 73.0245 70.1668 73.0903 70.1288C73.5364 69.8713 73.8471 69.2214 73.7839 68.6781C73.7214 68.1398 73.3082 67.9079 72.8622 68.1654C72.4163 68.4229 72.1097 69.0703 72.1723 69.6085C72.1856 69.7229 72.2217 69.8152 72.2627 69.9005L72.1704 70.1093C68.9112 77.5144 67.8795 77.605 68.5233 77.9891C68.6843 78.0873 68.9019 78.0374 69.0031 77.8689C70.8445 74.7935 71.5686 73.2152 72.8108 70.3909L72.8995 70.1901Z" fill="var(--fill-0, black)"/>
<path id="Vector_13" d="M72.3222 59.2834C71.1956 64.6218 68.8852 70.5225 65.266 76.1175C65.1614 76.2795 65.2078 76.4962 65.3699 76.6014C65.53 76.7057 65.7484 76.6609 65.8538 76.4975C69.5255 70.8192 71.8636 64.8451 73.0071 59.4282C73.1026 58.9719 72.4178 58.835 72.3222 59.2834Z" fill="var(--fill-0, black)"/>
<path id="Vector_14" d="M71.1236 58.8232C71.3977 58.0153 71.928 57.3209 72.5425 56.9662C73.9274 56.1654 74.6892 57.6111 74.2998 59.2224C73.314 63.2336 72.8581 64.4703 72.5965 65.2568C72.4549 65.6946 73.1189 65.9159 73.2622 65.4714L73.4673 64.8515C73.6204 64.3943 73.7735 63.9357 73.9013 63.4777C74.2725 62.1169 74.6435 60.7547 74.9798 59.3877C75.6003 56.8198 73.9169 55.3629 72.1926 56.3605C71.4353 56.7973 70.7881 57.6345 70.4627 58.5935C70.0719 59.6807 69.0525 65.5427 64.6108 72.7644C64.4746 72.7403 64.3269 72.7506 64.168 72.8422C63.7221 73.0997 63.4155 73.7471 63.478 74.2854C63.5411 74.8288 63.95 75.0631 64.3959 74.8057C64.8421 74.5481 65.1529 73.8982 65.0897 73.3549C65.0887 73.3456 65.0836 73.3402 65.0821 73.3311C69.6997 65.8948 70.7878 59.7667 71.1236 58.8232Z" fill="var(--fill-0, black)"/>
<path id="Vector_15" d="M81.6861 68.0204C79.9145 67.4292 78.7266 66.1101 78.0555 63.992C77.9345 63.5969 77.8429 63.1595 77.754 62.7371C77.7069 62.5136 77.6604 62.2901 77.6167 62.1199C77.519 60.9791 77.5551 59.8555 77.728 58.6833C78.7391 51.6058 72.2715 50.1207 68.8168 56.235C68.6919 56.459 68.6438 56.5458 68.5941 56.6246C68.3481 57.0208 68.9486 57.3877 69.1887 56.995C69.2435 56.9063 69.2944 56.8151 69.4245 56.5829C72.3819 51.3508 77.9633 52.1088 77.0351 58.5828C76.8546 59.8075 76.817 60.9845 76.9271 62.2291C76.9776 62.4444 77.0234 62.6624 77.0692 62.8805C77.6388 65.6053 78.8136 67.7994 81.4647 68.6846C81.9036 68.8311 82.1255 68.168 81.6861 68.0204Z" fill="var(--fill-0, black)"/>
<path id="Vector_16" d="M68.0216 59.3967C67.831 59.3434 67.6444 59.4603 67.5951 59.6469C67.455 60.1813 67.2794 60.763 67.0566 61.424C65.9828 64.5735 64.4306 67.4611 62.4424 70.0078C62.3234 70.1603 62.3508 70.3803 62.5032 70.4993C62.5674 70.5491 62.6426 70.573 62.7185 70.573C62.8224 70.573 62.9256 70.5265 62.9946 70.4384C65.5493 67.1646 67.3544 63.3399 68.2718 59.8232C68.3211 59.6366 68.209 59.4452 68.0216 59.3967Z" fill="var(--fill-0, black)"/>
<path id="Vector_17" d="M62.9201 53.3209C63.9874 51.145 64.8911 49.1062 67.1481 46.5961C68.3475 45.2705 69.753 44.0951 71.3344 43.245C73.9291 41.8383 76.417 41.7843 78.1754 42.4754C78.5527 42.6264 78.9164 42.8057 79.2718 42.9899C79.2236 43.1683 79.195 43.3492 79.2151 43.5217C79.278 44.065 79.687 44.2994 80.133 44.0419C80.579 43.7844 80.8898 43.1345 80.8268 42.5911C80.7642 42.0529 80.3511 41.821 79.9051 42.0785C79.7851 42.1477 79.6784 42.2477 79.5832 42.3635C79.2136 42.1722 78.8337 41.9854 78.4337 41.8254C76.0602 40.8907 73.29 41.3882 71.0015 42.6292C67.1957 44.7013 64.6805 48.1403 62.758 52.0619L62.2885 53.0201C62.2051 53.1944 62.2789 53.4028 62.4539 53.4862C62.6271 53.5692 62.8599 53.4466 62.9201 53.3209Z" fill="var(--fill-0, black)"/>
<path id="Vector_18" d="M62.049 60.7184C62.4618 60.4801 62.7449 59.908 62.7369 59.393C64.1845 56.8031 64.2545 54.7567 66.6145 51.3456C71.5738 44.2046 78.0531 44.0464 80.9279 48.9596C81.025 49.1277 81.2417 49.1817 81.4064 49.0853C81.5739 48.9876 81.6299 48.7737 81.5322 48.6069C78.4016 43.2529 71.3406 43.3117 66.039 50.9472C63.6429 54.412 63.6036 56.2675 62.3316 58.6922C62.1802 58.6428 62.0068 58.6478 61.8211 58.755C61.3751 59.0125 61.0685 59.6599 61.1311 60.1981C61.1941 60.7415 61.603 60.9759 62.049 60.7184Z" fill="var(--fill-0, black)"/>
<path id="Vector_19" d="M82.7355 63.3588C82.6392 63.4144 82.5534 63.495 82.4724 63.5819C81.5839 62.7943 80.9762 61.7009 80.66 60.223C80.0539 57.4027 81.1108 56.0376 80.0298 52.7827C77.823 46.1759 69.8587 47.5654 66.1373 55.8399C65.6624 56.8911 65.3507 57.9539 65.0288 59.2266C64.4832 61.4045 63.5259 63.292 62.2236 64.8903C62.0978 64.8784 61.9638 64.8946 61.8211 64.977C61.3751 65.2346 61.0685 65.8819 61.1311 66.4202C61.1942 66.9636 61.603 67.1979 62.049 66.9405C62.4951 66.683 62.8059 66.0331 62.7427 65.4897C62.7383 65.4522 62.7203 65.4286 62.7127 65.3942C64.1077 63.7031 65.1295 61.7042 65.7075 59.3974C68.4047 48.7501 77.1553 46.3814 79.3655 53.0042C80.3574 55.9851 79.3626 57.5209 79.9752 60.3701C80.3327 62.0372 81.0691 63.3044 82.1266 64.197C82.0622 64.3983 82.0227 64.6056 82.0455 64.802C82.1086 65.3454 82.5175 65.5798 82.9636 65.3223C83.4095 65.0647 83.7202 64.4149 83.6573 63.8715C83.5946 63.3333 83.1815 63.1013 82.7355 63.3588Z" fill="var(--fill-0, black)"/>
<path id="Vector_20" d="M83.1795 54.696C83.1615 53.7992 83.0411 52.9485 82.8673 52.1299C83.094 51.819 83.2318 51.4096 83.1889 51.0409C83.1264 50.5026 82.7133 50.2707 82.2672 50.5282C81.8213 50.7858 81.5147 51.4331 81.5772 51.9713C81.6281 52.4093 81.9063 52.6314 82.2447 52.5722C82.3723 53.259 82.4648 53.9664 82.4796 54.7111C82.5215 56.5163 82.8387 58.2453 83.9067 59.7121C84.1779 60.0863 84.7455 59.6755 84.4727 59.3006C83.4977 57.9604 83.2182 56.3637 83.1795 54.696Z" fill="var(--fill-0, black)"/>
<path id="Vector_21" d="M157.031 6.71443C157.031 5.03467 156.401 3.83091 155.421 3.27104C155.421 3.27104 155.421 3.25703 155.407 3.25703L150.438 0.401435C149.43 -0.214446 148.044 -0.102424 146.631 0.709415L113.498 19.8582C110.699 21.4679 108.445 25.3873 108.473 28.5787L108.557 60.1715C108.557 60.2975 108.627 60.4095 108.739 60.4794L113.694 63.3769C113.722 63.3909 113.736 63.3909 113.764 63.3909L113.778 63.4049C113.806 63.4189 113.834 63.4189 113.862 63.4189C113.876 63.4189 113.876 63.4189 113.876 63.4189C113.876 63.4189 113.876 63.4189 113.89 63.4189C114.002 63.4189 114.114 63.363 114.17 63.265L121.603 51.9268L152.062 34.3457C154.847 32.736 157.087 28.8306 157.087 25.6392L157.031 6.71443ZM151.712 33.73L121.183 51.3671C121.141 51.3951 121.099 51.4231 121.071 51.4791L114.226 61.9074L114.198 48.1476L114.156 31.4764C114.142 29.3208 115.262 26.8012 116.858 25.0095C116.914 24.9535 116.956 24.8834 116.998 24.8415L117.04 24.7995C117.6 24.2116 118.201 23.7218 118.831 23.3578L151.978 4.22298C152.286 4.04103 152.566 3.901 152.86 3.80306C153 3.76105 153.14 3.73297 153.28 3.70504C153.42 3.67704 153.546 3.63495 153.672 3.62103C153.826 3.60702 153.979 3.62103 154.133 3.63495C154.218 3.63495 154.329 3.62103 154.427 3.63495C154.511 3.66296 154.581 3.70504 154.665 3.73297C155.673 4.05495 156.331 5.07675 156.331 6.71451L156.387 25.6394C156.387 28.6068 154.302 32.2462 151.712 33.73Z" fill="var(--fill-0, #D1AA67)"/>
<path id="Vector_22" d="M124.617 34.8174C124.59 34.8329 124.563 34.8504 124.536 34.8702L122.123 36.6367L122.123 36.5822L123.643 33.3811C123.872 32.9119 123.784 32.4712 123.459 32.4401L123.427 32.4402C123.332 32.4324 123.23 32.4623 123.128 32.5207C122.891 32.6576 122.662 32.9508 122.557 33.2795L121.583 36.4472L121.544 36.47L120.531 34.4674C120.426 34.2622 120.198 34.2377 119.964 34.3732C119.86 34.4328 119.756 34.5231 119.659 34.6426L119.604 34.711C119.28 35.1167 119.195 35.658 119.425 35.862L120.943 37.2448V37.2903L118.6 38.2973C118.573 38.3086 118.546 38.3222 118.52 38.3373C118.188 38.5288 117.904 39.0036 117.905 39.3997C117.906 39.7959 118.192 39.9413 118.524 39.7498C118.55 39.7347 118.577 39.7173 118.604 39.698L120.961 37.9905L120.962 38.036L119.432 41.2054C119.204 41.6653 119.276 42.1062 119.594 42.1509C119.698 42.1655 119.813 42.1343 119.927 42.0689C120.158 41.9352 120.382 41.6581 120.487 41.3342L121.525 38.1208L121.564 38.098L122.537 40.1325C122.643 40.3394 122.874 40.3671 123.113 40.2288C123.216 40.1696 123.32 40.0803 123.417 39.9617L123.488 39.8661C123.812 39.4605 123.897 38.91 123.659 38.7106L122.125 37.3915L122.125 37.3461L124.548 36.2751C124.575 36.2634 124.602 36.2497 124.629 36.2343C124.965 36.0405 125.236 35.5733 125.234 35.1682C125.233 34.7722 124.954 34.6229 124.617 34.8174Z" fill="var(--fill-0, black)"/>
<path id="Vector_23" d="M133.749 29.545C133.722 29.5603 133.695 29.578 133.668 29.5978L131.247 31.369L131.247 31.3144L132.776 28.1086C133.004 27.6396 132.908 27.2034 132.583 27.1724L132.559 27.168C132.464 27.1601 132.361 27.1905 132.259 27.2493C132.02 27.3873 131.788 27.6818 131.689 28.0072L130.707 31.1796L130.668 31.2024L129.663 29.1952C129.558 28.9901 129.33 28.9655 129.095 29.1011C128.992 29.1606 128.888 29.2509 128.792 29.3704L128.736 29.4389C128.412 29.8445 128.327 30.3859 128.557 30.5898L130.075 31.9726L130.075 32.0181L127.732 33.0252C127.704 33.0369 127.677 33.0506 127.65 33.0659C127.314 33.2605 127.036 33.7316 127.037 34.1276C127.038 34.5237 127.318 34.673 127.655 34.4784C127.681 34.4631 127.708 34.4455 127.736 34.4258L130.093 32.7182L130.093 32.7637L128.556 35.9377C128.336 36.3931 128.408 36.834 128.725 36.8786C128.83 36.8932 128.945 36.8621 129.058 36.797C129.289 36.6635 129.511 36.3875 129.611 36.0666L130.656 32.8486L130.696 32.8258L131.669 34.8603C131.77 35.0705 132.002 35.0968 132.241 34.9588C132.343 34.9001 132.446 34.8112 132.541 34.694L132.612 34.5984C132.944 34.1882 133.029 33.6378 132.791 33.4383L131.249 32.1238V32.0784L133.68 31.0029C133.706 30.9914 133.733 30.9781 133.759 30.963C134.09 30.7721 134.367 30.3011 134.366 29.8959C134.365 29.4998 134.086 29.3504 133.749 29.545Z" fill="var(--fill-0, black)"/>
<path id="Vector_24" d="M142.882 24.2713C142.856 24.2864 142.829 24.3038 142.802 24.3232L140.381 26.0944L140.381 26.0399L141.91 22.834C142.131 22.3695 142.042 21.9288 141.717 21.8978L141.693 21.8933C141.596 21.8867 141.492 21.9177 141.39 21.9766C141.15 22.1148 140.923 22.4071 140.824 22.7325L139.842 25.9049L139.802 25.9277L138.789 23.9251C138.684 23.7199 138.457 23.6952 138.222 23.8309C138.119 23.8905 138.014 23.9808 137.918 24.1003L137.871 24.1641C137.547 24.5696 137.461 25.1111 137.691 25.315L139.202 26.7024V26.7479L136.866 27.7504C136.839 27.7621 136.812 27.7758 136.785 27.7911C136.448 27.9857 136.17 28.4568 136.171 28.8528C136.173 29.2489 136.452 29.3982 136.789 29.2036C136.816 29.1883 136.843 29.1707 136.87 29.151L139.228 27.4434V27.489L137.691 30.663C137.47 31.1183 137.543 31.5592 137.852 31.6083C137.956 31.623 138.072 31.5919 138.185 31.5265C138.417 31.3927 138.64 31.1157 138.746 30.7918L139.783 27.5784L139.823 27.5555L140.804 29.5855C140.904 29.7957 141.133 29.8244 141.372 29.6861C141.474 29.6272 141.578 29.5379 141.675 29.4192L141.746 29.3236C142.078 28.9134 142.156 28.3675 141.917 28.168L140.384 26.849L140.383 26.8036L142.814 25.7281C142.841 25.7166 142.867 25.7033 142.894 25.6882C143.224 25.4973 143.502 25.0263 143.501 24.6211C143.499 24.2253 143.213 24.0799 142.882 24.2713Z" fill="var(--fill-0, black)"/>
<path id="Vector_25" d="M152.009 19.0017C151.982 19.017 151.955 19.0345 151.928 19.0543L149.515 20.821V20.7665L151.036 17.5652C151.264 17.0962 151.175 16.6554 150.85 16.6244L150.819 16.6246C150.724 16.6167 150.621 16.6466 150.52 16.7051C150.283 16.8419 150.054 17.1351 149.949 17.4638L148.975 20.6316L148.935 20.6544L147.923 18.6518C147.817 18.4466 147.59 18.422 147.355 18.5576C147.252 18.6171 147.148 18.7074 147.051 18.8269L146.996 18.8953C146.672 19.3009 146.586 19.8424 146.817 20.0464L148.335 21.4292L148.335 21.4746L145.991 22.4816C145.965 22.4931 145.938 22.5065 145.912 22.5216C145.58 22.713 145.296 23.1879 145.297 23.584C145.298 23.9801 145.584 24.1255 145.916 23.9341C145.942 23.919 145.969 23.9017 145.995 23.8822L148.353 22.1749L148.353 22.2204L146.824 25.3899C146.595 25.8498 146.668 26.2907 146.985 26.3352C147.09 26.3499 147.205 26.3188 147.318 26.2534C147.55 26.1197 147.773 25.8427 147.879 25.5188L148.916 22.3053L148.956 22.2824L149.929 24.317C150.035 24.5239 150.265 24.5516 150.505 24.4131C150.607 24.3542 150.712 24.2649 150.808 24.1462L150.88 24.0506C151.203 23.645 151.289 23.0945 151.051 22.895L149.517 21.576L149.517 21.5306L151.94 20.4596C151.967 20.4478 151.994 20.4342 152.021 20.4188C152.357 20.2248 152.628 19.7577 152.626 19.3525C152.625 18.9564 152.345 18.8071 152.009 19.0017Z" fill="var(--fill-0, black)"/>
</g>
</svg>
