<svg width="313" height="51" viewBox="0 0 313 51" fill="none" xmlns="http://www.w3.org/2000/svg">
<path d="M29.1267 30.6227C27.8403 30.6227 26.6277 30.4243 25.4887 30.0277C24.3497 29.631 23.3183 29.2003 22.3947 28.7413C21.5333 29.767 20.655 30.77 19.7427 31.7617C18.836 32.7533 17.901 33.728 16.9433 34.6857C17.5043 35.0823 18.0653 35.462 18.6263 35.8247C19.1873 36.1873 19.7823 36.516 20.4113 36.8163C21.0403 37.111 21.7147 37.3547 22.44 37.536C23.1653 37.7173 23.9757 37.808 24.8653 37.808C26.0213 37.808 27.1093 37.6947 28.135 37.4623C29.1607 37.23 30.1977 37.0487 31.2573 36.9183L31.603 37.7117C31.076 38.505 30.43 39.27 29.6707 40.0123C28.9113 40.7547 28.067 41.4177 27.1433 41.9957C26.2197 42.5737 25.228 43.027 24.174 43.3557C23.1143 43.6843 22.0093 43.8487 20.8533 43.8487C18.904 43.8487 17.1247 43.4917 15.504 42.7833C13.8833 42.075 12.4497 41.2533 11.1973 40.3297C10.8007 40.0633 10.3643 39.763 9.88267 39.4117C9.401 39.066 8.90233 38.743 8.36967 38.4483C7.84267 38.1537 7.28733 37.9043 6.70933 37.706C6.13133 37.5077 5.54767 37.4113 4.95267 37.4113C4.35767 37.4113 3.74567 37.5417 3.12233 37.808C2.89 38.2047 2.70867 38.607 2.57833 39.0207C2.448 39.4343 2.38 39.8197 2.38 40.1823C2.38 40.7433 2.57833 41.2363 2.975 41.667L1.241 43.4973C0.844333 43.2027 0.538333 42.789 0.323 42.262C0.107667 41.735 0 41.191 0 40.63C0 39.8027 0.198333 39.0547 0.595 38.3747C0.991666 37.7003 1.46767 37.077 2.02867 36.516C2.58967 35.955 3.16767 35.4337 3.76267 34.9577C4.35767 34.4817 4.86767 34.0397 5.29833 33.643C5.85933 33.116 6.53933 32.7023 7.327 32.402C8.12033 32.1073 8.976 31.9543 9.90533 31.9543C11.2257 31.9543 12.3703 32.1697 13.345 32.6003C14.3197 33.031 15.249 33.541 16.1443 34.136C17.034 33.1783 17.918 32.2037 18.7963 31.212C19.669 30.2203 20.536 29.2173 21.3973 28.1917C20.4737 27.6987 19.5557 27.166 18.649 26.605C17.7423 26.044 16.8243 25.5057 15.9007 24.9957C14.977 24.4857 14.0193 24.0153 13.0277 23.5847C12.036 23.154 10.999 22.7913 9.90533 22.4967C9.44067 22.3947 8.98733 22.3097 8.54533 22.2247C8.09767 22.1453 7.66133 22.1 7.23067 22.1C6.307 22.1 5.49667 22.2417 4.80533 22.5193C4.114 22.8027 3.468 23.137 2.873 23.5337C2.64067 23.8283 2.42533 24.1343 2.227 24.4517C2.02867 24.7633 1.84733 25.1033 1.683 25.466L0.442 26.4067C0.544 26.01 0.68 25.636 0.861333 25.2903C1.04267 24.9447 1.24667 24.6047 1.479 24.276C1.87567 23.749 2.47067 23.0803 3.264 22.27C4.05733 21.4597 4.964 20.6833 5.98967 19.941C7.01533 19.1987 8.126 18.5527 9.333 18.0087C10.54 17.4647 11.7867 17.1927 13.073 17.1927C14.3593 17.1927 15.6343 17.3683 16.7847 17.714C17.9407 18.0597 19.0457 18.4903 20.1053 19.0003C21.1593 19.5103 22.1623 20.0713 23.103 20.6833C24.0437 21.2953 24.9447 21.879 25.8003 22.44C27.285 20.3603 28.6903 18.2127 30.0107 16.0027C31.331 13.7927 32.521 11.4467 33.575 8.97033C33.7053 7.55367 33.9547 6.14833 34.3173 4.76L34.5157 4.114C35.241 3.621 35.9493 3.10533 36.6463 2.57833L38.0347 1.53567C38.726 1.00867 39.44 0.493 40.1653 0L40.7093 0.940667C40.7093 1.666 40.6583 2.39133 40.562 3.12233L39.8707 7.429C39.7403 8.15433 39.6723 8.89667 39.6723 9.656C39.6723 14.0817 40.1597 18.207 41.1343 22.0377C42.109 25.8683 43.435 29.3023 45.1237 32.3397C45.4523 32.9687 45.8433 33.6033 46.2853 34.2437C46.733 34.8897 47.243 35.4847 47.821 36.0287C48.399 36.5727 49.0677 37.0203 49.827 37.366C50.5863 37.7117 51.442 37.8873 52.4053 37.8873C53.3687 37.8873 54.1053 37.672 54.7343 37.2413L55.2273 37.7853C55.097 38.08 54.706 38.5673 54.0657 39.2473C53.4197 39.9217 52.6773 40.6017 51.8387 41.276C50.9943 41.9503 50.1217 42.5453 49.215 43.061C48.3083 43.571 47.4867 43.8317 46.7613 43.8317C45.8717 43.8317 45.0103 43.5993 44.1887 43.1403C42.9987 42.5113 41.9617 41.6727 41.0663 40.613C40.1767 39.5533 39.389 38.386 38.7147 37.094C38.0347 35.8077 37.4453 34.442 36.9297 33.0083C36.4197 31.5747 35.9663 30.1467 35.5697 28.7243C34.7083 29.3193 33.7223 29.784 32.6003 30.1127C31.4783 30.4413 30.3223 30.6057 29.1323 30.6057M22.8933 4.95267L26.9053 9.163L27.3983 10.1547L22.2473 15.3567L21.1593 14.7617C21.0913 14.6653 21.012 14.5803 20.91 14.5123L20.4623 14.0193C20.3943 13.923 20.315 13.838 20.213 13.77L18.3827 11.6903C18.3147 11.5883 18.2353 11.509 18.1333 11.441L17.6857 10.948C17.6177 10.8517 17.5383 10.7667 17.4363 10.6987L22.882 4.95267H22.8933ZM26.9053 23.1313C27.6987 23.6243 28.475 24.1117 29.2343 24.5933C29.9937 25.075 30.804 25.5453 31.6597 26.0043C32.1527 26.2707 32.674 26.4973 33.218 26.6957C33.762 26.894 34.3173 26.9903 34.8783 26.9903H35.1277C34.6347 25.007 34.2097 22.8367 33.864 20.4793C33.5183 18.1163 33.3427 15.7477 33.3427 13.3733C31.3933 16.8073 29.2457 20.06 26.9053 23.1313Z" fill="#D1AA67"/>
<path d="M74.7837 28V26.7109C75.7433 26.7109 76.4093 26.6322 76.7817 26.4746C77.1685 26.3171 77.3618 26.0521 77.3618 25.6797C77.3618 25.5938 77.3475 25.472 77.3188 25.3145C77.2902 25.1426 77.2186 24.8991 77.104 24.584C77.0037 24.2546 76.8534 23.832 76.6528 23.3164C76.4523 22.7865 76.173 22.1204 75.8149 21.3184H68.7896C68.5461 21.9199 68.3312 22.4714 68.145 22.9727C67.9875 23.4023 67.8371 23.8177 67.6938 24.2188C67.5649 24.6055 67.5005 24.8561 67.5005 24.9707C67.5005 25.515 67.7297 25.9232 68.188 26.1953C68.6606 26.4674 69.4054 26.6393 70.4224 26.7109V28H62.2583V26.7109C62.6307 26.6393 62.9601 26.5534 63.2466 26.4531C63.5474 26.3385 63.8267 26.1667 64.0845 25.9375C64.3566 25.694 64.6144 25.3717 64.8579 24.9707C65.1014 24.5553 65.3592 24.0254 65.6313 23.3809L72.9575 5.57031H74.2466L82.3892 24.1113C82.604 24.5983 82.8475 25.0065 83.1196 25.3359C83.3918 25.651 83.6782 25.916 83.979 26.1309C84.2798 26.3314 84.5806 26.4746 84.8813 26.5605C85.1965 26.6465 85.4972 26.6966 85.7837 26.7109V28H74.7837ZM72.0767 12.9609L69.4771 19.4277H74.9771L72.0767 12.9609ZM101.898 28L94.765 18.0742C94.6791 18.1029 94.5287 18.1172 94.3138 18.1172C94.2279 18.1172 94.1348 18.1172 94.0346 18.1172C93.9486 18.1029 93.8698 18.0957 93.7982 18.0957V23.8535C93.7982 24.3835 93.834 24.8346 93.9056 25.207C93.9916 25.5651 94.142 25.8587 94.3568 26.0879C94.586 26.3027 94.8939 26.4603 95.2806 26.5605C95.6817 26.6608 96.2045 26.7109 96.849 26.7109V28H85.6986V26.7109C86.3575 26.7109 86.8874 26.6608 87.2885 26.5605C87.6895 26.4603 87.9903 26.2956 88.1908 26.0664C88.4056 25.8229 88.5417 25.5078 88.599 25.1211C88.6706 24.7344 88.7064 24.2617 88.7064 23.7031V9.91016C88.7064 9.39453 88.6706 8.97201 88.599 8.64258C88.5417 8.31315 88.4056 8.05534 88.1908 7.86914C87.9903 7.66862 87.6895 7.53255 87.2885 7.46094C86.8874 7.375 86.3575 7.33203 85.6986 7.33203V6.04297H94.808C96.0541 6.04297 97.2715 6.10026 98.4603 6.21484C99.6635 6.3151 100.731 6.55859 101.662 6.94531C102.592 7.33203 103.337 7.90495 103.896 8.66406C104.469 9.40885 104.755 10.4186 104.755 11.6934C104.755 12.5671 104.641 13.3405 104.412 14.0137C104.197 14.6868 103.896 15.2669 103.509 15.7539C103.122 16.2409 102.664 16.6348 102.134 16.9355C101.604 17.2363 101.031 17.4512 100.415 17.5801L105.163 23.209C105.679 23.8249 106.159 24.3548 106.603 24.7988C107.047 25.2285 107.477 25.5866 107.892 25.873C108.307 26.1452 108.723 26.3529 109.138 26.4961C109.568 26.625 110.033 26.6966 110.535 26.7109V28H101.898ZM99.4271 12.0156C99.4271 11.5143 99.3842 11.0202 99.2982 10.5332C99.2123 10.0462 99.0261 9.61654 98.7396 9.24414C98.4675 8.85742 98.0593 8.54948 97.515 8.32031C96.9707 8.07682 96.2403 7.95508 95.3236 7.95508C95.0515 7.95508 94.8223 7.96224 94.6361 7.97656C94.4499 7.97656 94.2924 7.98372 94.1635 7.99805C94.0059 8.01237 93.8842 8.02669 93.7982 8.04102V16.1836C93.9558 16.2122 94.2064 16.2409 94.5502 16.2695C94.9082 16.2839 95.252 16.291 95.5814 16.291C96.0684 16.291 96.5411 16.1908 96.9994 15.9902C97.4721 15.7897 97.8874 15.5033 98.2455 15.1309C98.6036 14.7585 98.89 14.3073 99.1049 13.7773C99.3197 13.2474 99.4271 12.6602 99.4271 12.0156ZM120.891 28V26.7109C121.851 26.7109 122.517 26.6322 122.889 26.4746C123.276 26.3171 123.469 26.0521 123.469 25.6797C123.469 25.5938 123.455 25.472 123.426 25.3145C123.397 25.1426 123.326 24.8991 123.211 24.584C123.111 24.2546 122.961 23.832 122.76 23.3164C122.56 22.7865 122.28 22.1204 121.922 21.3184H114.897C114.653 21.9199 114.438 22.4714 114.252 22.9727C114.095 23.4023 113.944 23.8177 113.801 24.2188C113.672 24.6055 113.608 24.8561 113.608 24.9707C113.608 25.515 113.837 25.9232 114.295 26.1953C114.768 26.4674 115.513 26.6393 116.53 26.7109V28H108.365V26.7109C108.738 26.6393 109.067 26.5534 109.354 26.4531C109.655 26.3385 109.934 26.1667 110.192 25.9375C110.464 25.694 110.722 25.3717 110.965 24.9707C111.209 24.5553 111.466 24.0254 111.739 23.3809L119.065 5.57031H120.354L128.496 24.1113C128.711 24.5983 128.955 25.0065 129.227 25.3359C129.499 25.651 129.785 25.916 130.086 26.1309C130.387 26.3314 130.688 26.4746 130.989 26.5605C131.304 26.6465 131.604 26.6966 131.891 26.7109V28H120.891ZM118.184 12.9609L115.584 19.4277H121.084L118.184 12.9609ZM152.173 22.0059C152.173 22.9941 151.937 23.8607 151.464 24.6055C151.006 25.3503 150.39 25.9805 149.616 26.4961C148.857 26.9974 147.984 27.377 146.995 27.6348C146.007 27.8783 144.997 28 143.966 28H131.87V26.7109C132.529 26.7109 133.059 26.6608 133.46 26.5605C133.875 26.446 134.191 26.2741 134.405 26.0449C134.635 25.8014 134.785 25.4863 134.857 25.0996C134.943 24.6986 134.985 24.2188 134.985 23.6602V10.3828C134.985 9.82422 134.943 9.35156 134.857 8.96484C134.785 8.5638 134.635 8.2487 134.405 8.01953C134.191 7.77604 133.875 7.60417 133.46 7.50391C133.059 7.38932 132.529 7.33203 131.87 7.33203V6.04297H144.116C145.362 6.04297 146.429 6.20768 147.318 6.53711C148.206 6.86654 148.929 7.2819 149.487 7.7832C150.046 8.28451 150.454 8.83594 150.712 9.4375C150.984 10.0391 151.12 10.6191 151.12 11.1777C151.12 11.7363 151.063 12.2663 150.948 12.7676C150.848 13.2689 150.612 13.7344 150.239 14.1641C149.881 14.5938 149.359 14.9948 148.671 15.3672C147.998 15.7253 147.081 16.0475 145.921 16.334C148.127 16.778 149.717 17.4798 150.691 18.4395C151.679 19.3848 152.173 20.5736 152.173 22.0059ZM145.706 11.5859C145.706 10.9844 145.627 10.4616 145.47 10.0176C145.327 9.55924 145.076 9.17969 144.718 8.87891C144.36 8.57812 143.887 8.35612 143.3 8.21289C142.727 8.05534 142.004 7.97656 141.13 7.97656C141.001 7.97656 140.872 7.98372 140.743 7.99805C140.629 8.01237 140.521 8.02669 140.421 8.04102C140.306 8.05534 140.192 8.06966 140.077 8.08398V15.625C140.192 15.6393 140.306 15.6465 140.421 15.6465C140.521 15.6608 140.629 15.668 140.743 15.668C140.872 15.668 141.001 15.668 141.13 15.668C142.677 15.668 143.823 15.3027 144.568 14.5723C145.327 13.8275 145.706 12.832 145.706 11.5859ZM146.458 22.1562C146.458 20.5091 145.985 19.3132 145.04 18.5684C144.109 17.8092 142.806 17.4297 141.13 17.4297C141.001 17.4297 140.872 17.4368 140.743 17.4512C140.629 17.4512 140.521 17.4583 140.421 17.4727C140.306 17.487 140.192 17.4941 140.077 17.4941V24.1758C140.077 24.9492 140.221 25.4648 140.507 25.7227C140.808 25.9661 141.259 26.0879 141.86 26.0879C142.376 26.0879 142.899 26.0378 143.429 25.9375C143.973 25.8372 144.467 25.6439 144.911 25.3574C145.37 25.071 145.742 24.6771 146.028 24.1758C146.315 23.6602 146.458 22.987 146.458 22.1562ZM187.989 17.2793C187.431 17.2793 186.979 17.3366 186.636 17.4512C186.292 17.5514 186.027 17.7233 185.841 17.9668C185.655 18.196 185.533 18.5111 185.475 18.9121C185.418 19.2988 185.39 19.7715 185.39 20.3301V26.1738C184.029 26.9902 182.568 27.5775 181.007 27.9355C179.46 28.2936 177.734 28.4727 175.829 28.4727C173.795 28.4727 172.026 28.1504 170.522 27.5059C169.018 26.847 167.772 25.9805 166.784 24.9062C165.796 23.832 165.058 22.6074 164.571 21.2324C164.099 19.8574 163.862 18.4538 163.862 17.0215C163.862 15.5892 164.134 14.1855 164.679 12.8105C165.237 11.4355 166.032 10.2109 167.063 9.13672C168.109 8.0625 169.377 7.20312 170.866 6.55859C172.37 5.89974 174.067 5.57031 175.958 5.57031C176.832 5.57031 177.627 5.65625 178.343 5.82812C179.073 5.98568 179.718 6.16471 180.276 6.36523C180.849 6.56576 181.336 6.75195 181.737 6.92383C182.153 7.08138 182.489 7.16016 182.747 7.16016C182.905 7.16016 183.026 7.0957 183.112 6.9668C183.212 6.82357 183.284 6.66602 183.327 6.49414C183.37 6.30794 183.399 6.12891 183.413 5.95703C183.442 5.77083 183.47 5.6276 183.499 5.52734H184.745L185.39 13.4336H184.122C183.864 12.4596 183.492 11.5931 183.005 10.834C182.518 10.0605 181.952 9.41602 181.308 8.90039C180.677 8.37044 179.99 7.9694 179.245 7.69727C178.5 7.41081 177.734 7.26758 176.946 7.26758C175.671 7.26758 174.576 7.51823 173.659 8.01953C172.757 8.50651 172.005 9.18685 171.403 10.0605C170.816 10.9342 170.379 11.9655 170.093 13.1543C169.821 14.3431 169.684 15.6322 169.684 17.0215C169.684 18.2533 169.785 19.4564 169.985 20.6309C170.186 21.791 170.544 22.8294 171.059 23.7461C171.575 24.6628 172.284 25.4004 173.186 25.959C174.103 26.5033 175.27 26.7754 176.688 26.7754C177.447 26.7754 178.106 26.7109 178.665 26.582C179.224 26.4531 179.768 26.2025 180.298 25.8301V20.3301C180.298 19.7715 180.255 19.2988 180.169 18.9121C180.097 18.5111 179.954 18.196 179.739 17.9668C179.539 17.7233 179.252 17.5514 178.88 17.4512C178.522 17.3366 178.056 17.2793 177.483 17.2793V15.9902H187.989V17.2793ZM206.553 28H188.205V26.7109C188.864 26.7109 189.394 26.6608 189.795 26.5605C190.21 26.446 190.525 26.2741 190.74 26.0449C190.969 25.8014 191.12 25.4863 191.191 25.0996C191.263 24.6986 191.299 24.2188 191.299 23.6602V10.3828C191.299 9.82422 191.263 9.35156 191.191 8.96484C191.12 8.5638 190.969 8.2487 190.74 8.01953C190.525 7.77604 190.21 7.60417 189.795 7.50391C189.394 7.38932 188.864 7.33203 188.205 7.33203V6.04297H199.742V7.33203C199.083 7.33203 198.539 7.38932 198.109 7.50391C197.679 7.60417 197.336 7.77604 197.078 8.01953C196.82 8.2487 196.641 8.5638 196.541 8.96484C196.441 9.35156 196.39 9.82422 196.39 10.3828V23.6602C196.39 24.1471 196.419 24.5482 196.476 24.8633C196.548 25.1784 196.706 25.429 196.949 25.6152C197.192 25.7871 197.551 25.9089 198.023 25.9805C198.51 26.0521 199.162 26.0879 199.978 26.0879H201.676C202.248 26.0879 202.793 26.002 203.308 25.8301C203.838 25.6582 204.347 25.3574 204.834 24.9277C205.321 24.4837 205.793 23.8893 206.252 23.1445C206.71 22.3997 207.161 21.4544 207.605 20.3086H208.894L206.553 28ZM233.022 17.0215C233.022 18.554 232.75 20.015 232.206 21.4043C231.676 22.7936 230.909 24.0182 229.907 25.0781C228.904 26.1237 227.68 26.9616 226.233 27.5918C224.801 28.2077 223.182 28.5156 221.378 28.5156C219.573 28.5156 217.947 28.2077 216.501 27.5918C215.054 26.9759 213.822 26.1452 212.805 25.0996C211.803 24.054 211.029 22.8366 210.485 21.4473C209.955 20.0436 209.69 18.5684 209.69 17.0215C209.69 15.4316 209.977 13.9421 210.549 12.5527C211.137 11.1491 211.946 9.93164 212.977 8.90039C214.023 7.86914 215.255 7.0599 216.673 6.47266C218.105 5.87109 219.659 5.57031 221.335 5.57031C223.139 5.57031 224.765 5.87826 226.212 6.49414C227.658 7.0957 228.883 7.91927 229.885 8.96484C230.902 10.0104 231.676 11.2279 232.206 12.6172C232.75 13.9922 233.022 15.4603 233.022 17.0215ZM227.178 17.1289C227.178 16.3984 227.135 15.6465 227.049 14.873C226.978 14.0996 226.856 13.3477 226.684 12.6172C226.512 11.8724 226.276 11.1777 225.975 10.5332C225.689 9.87435 225.324 9.30143 224.88 8.81445C224.45 8.31315 223.941 7.91927 223.354 7.63281C222.767 7.34635 222.094 7.20312 221.335 7.20312C220.576 7.20312 219.902 7.34635 219.315 7.63281C218.728 7.91927 218.219 8.30599 217.79 8.79297C217.36 9.27995 217.002 9.8457 216.715 10.4902C216.429 11.1348 216.193 11.8151 216.007 12.5312C215.835 13.2474 215.713 13.985 215.641 14.7441C215.57 15.4889 215.534 16.2051 215.534 16.8926C215.534 17.5228 215.57 18.2103 215.641 18.9551C215.713 19.6999 215.835 20.4447 216.007 21.1895C216.193 21.9199 216.429 22.6289 216.715 23.3164C217.002 23.9896 217.36 24.5911 217.79 25.1211C218.219 25.6367 218.721 26.0521 219.294 26.3672C219.881 26.6823 220.561 26.8398 221.335 26.8398C222.48 26.8398 223.426 26.5319 224.171 25.916C224.93 25.2858 225.531 24.4909 225.975 23.5312C226.419 22.5716 226.727 21.526 226.899 20.3945C227.085 19.2487 227.178 18.1602 227.178 17.1289ZM254.293 22.0059C254.293 22.9941 254.056 23.8607 253.584 24.6055C253.125 25.3503 252.509 25.9805 251.736 26.4961C250.977 26.9974 250.103 27.377 249.115 27.6348C248.127 27.8783 247.117 28 246.085 28H233.99V26.7109C234.649 26.7109 235.179 26.6608 235.58 26.5605C235.995 26.446 236.31 26.2741 236.525 26.0449C236.754 25.8014 236.905 25.4863 236.976 25.0996C237.062 24.6986 237.105 24.2188 237.105 23.6602V10.3828C237.105 9.82422 237.062 9.35156 236.976 8.96484C236.905 8.5638 236.754 8.2487 236.525 8.01953C236.31 7.77604 235.995 7.60417 235.58 7.50391C235.179 7.38932 234.649 7.33203 233.99 7.33203V6.04297H246.236C247.482 6.04297 248.549 6.20768 249.437 6.53711C250.325 6.86654 251.048 7.2819 251.607 7.7832C252.166 8.28451 252.574 8.83594 252.832 9.4375C253.104 10.0391 253.24 10.6191 253.24 11.1777C253.24 11.7363 253.183 12.2663 253.068 12.7676C252.968 13.2689 252.731 13.7344 252.359 14.1641C252.001 14.5938 251.478 14.9948 250.791 15.3672C250.117 15.7253 249.201 16.0475 248.041 16.334C250.246 16.778 251.836 17.4798 252.81 18.4395C253.798 19.3848 254.293 20.5736 254.293 22.0059ZM247.826 11.5859C247.826 10.9844 247.747 10.4616 247.589 10.0176C247.446 9.55924 247.196 9.17969 246.837 8.87891C246.479 8.57812 246.007 8.35612 245.419 8.21289C244.847 8.05534 244.123 7.97656 243.25 7.97656C243.121 7.97656 242.992 7.98372 242.863 7.99805C242.748 8.01237 242.641 8.02669 242.541 8.04102C242.426 8.05534 242.311 8.06966 242.197 8.08398V15.625C242.311 15.6393 242.426 15.6465 242.541 15.6465C242.641 15.6608 242.748 15.668 242.863 15.668C242.992 15.668 243.121 15.668 243.25 15.668C244.796 15.668 245.942 15.3027 246.687 14.5723C247.446 13.8275 247.826 12.832 247.826 11.5859ZM248.578 22.1562C248.578 20.5091 248.105 19.3132 247.16 18.5684C246.229 17.8092 244.925 17.4297 243.25 17.4297C243.121 17.4297 242.992 17.4368 242.863 17.4512C242.748 17.4512 242.641 17.4583 242.541 17.4727C242.426 17.487 242.311 17.4941 242.197 17.4941V24.1758C242.197 24.9492 242.34 25.4648 242.627 25.7227C242.927 25.9661 243.378 26.0879 243.98 26.0879C244.496 26.0879 245.018 26.0378 245.548 25.9375C246.093 25.8372 246.587 25.6439 247.031 25.3574C247.489 25.071 247.862 24.6771 248.148 24.1758C248.434 23.6602 248.578 22.987 248.578 22.1562ZM267.399 28V26.7109C268.358 26.7109 269.025 26.6322 269.397 26.4746C269.784 26.3171 269.977 26.0521 269.977 25.6797C269.977 25.5938 269.963 25.472 269.934 25.3145C269.905 25.1426 269.834 24.8991 269.719 24.584C269.619 24.2546 269.469 23.832 269.268 23.3164C269.067 22.7865 268.788 22.1204 268.43 21.3184H261.405C261.161 21.9199 260.946 22.4714 260.76 22.9727C260.603 23.4023 260.452 23.8177 260.309 24.2188C260.18 24.6055 260.116 24.8561 260.116 24.9707C260.116 25.515 260.345 25.9232 260.803 26.1953C261.276 26.4674 262.021 26.6393 263.038 26.7109V28H254.873V26.7109C255.246 26.6393 255.575 26.5534 255.862 26.4531C256.163 26.3385 256.442 26.1667 256.7 25.9375C256.972 25.694 257.23 25.3717 257.473 24.9707C257.717 24.5553 257.974 24.0254 258.247 23.3809L265.573 5.57031H266.862L275.004 24.1113C275.219 24.5983 275.463 25.0065 275.735 25.3359C276.007 25.651 276.293 25.916 276.594 26.1309C276.895 26.3314 277.196 26.4746 277.497 26.5605C277.812 26.6465 278.112 26.6966 278.399 26.7109V28H267.399ZM264.692 12.9609L262.092 19.4277H267.592L264.692 12.9609ZM296.704 28H278.357V26.7109C279.016 26.7109 279.546 26.6608 279.947 26.5605C280.362 26.446 280.677 26.2741 280.892 26.0449C281.121 25.8014 281.271 25.4863 281.343 25.0996C281.415 24.6986 281.45 24.2188 281.45 23.6602V10.3828C281.45 9.82422 281.415 9.35156 281.343 8.96484C281.271 8.5638 281.121 8.2487 280.892 8.01953C280.677 7.77604 280.362 7.60417 279.947 7.50391C279.546 7.38932 279.016 7.33203 278.357 7.33203V6.04297H289.894V7.33203C289.235 7.33203 288.691 7.38932 288.261 7.50391C287.831 7.60417 287.488 7.77604 287.23 8.01953C286.972 8.2487 286.793 8.5638 286.693 8.96484C286.592 9.35156 286.542 9.82422 286.542 10.3828V23.6602C286.542 24.1471 286.571 24.5482 286.628 24.8633C286.7 25.1784 286.857 25.429 287.101 25.6152C287.344 25.7871 287.702 25.9089 288.175 25.9805C288.662 26.0521 289.314 26.0879 290.13 26.0879H291.827C292.4 26.0879 292.945 26.002 293.46 25.8301C293.99 25.6582 294.499 25.3574 294.986 24.9277C295.473 24.4837 295.945 23.8893 296.404 23.1445C296.862 22.3997 297.313 21.4544 297.757 20.3086H299.046L296.704 28Z" fill="white"/>
<path d="M128.401 43.2845C128.29 43.469 128.152 43.6719 127.986 43.8932C127.82 44.11 127.613 44.3129 127.364 44.502C127.119 44.6864 126.829 44.8409 126.492 44.9654C126.155 45.0899 125.766 45.1522 125.323 45.1522C124.691 45.1522 124.14 45.0553 123.67 44.8617C123.204 44.6634 122.817 44.4005 122.508 44.0731C122.199 43.741 121.968 43.3629 121.816 42.9386C121.664 42.5098 121.588 42.0648 121.588 41.6036C121.588 41.2946 121.622 40.9856 121.691 40.6767C121.761 40.3677 121.862 40.0726 121.996 39.7913C122.129 39.51 122.298 39.2471 122.501 39.0027C122.708 38.7537 122.946 38.5392 123.213 38.3594C123.481 38.1795 123.783 38.0389 124.119 37.9374C124.456 37.8314 124.825 37.7783 125.226 37.7783C125.494 37.7783 125.738 37.806 125.959 37.8613C126.181 37.9121 126.374 37.9697 126.54 38.0343C126.711 38.0988 126.852 38.1588 126.962 38.2141C127.078 38.2648 127.161 38.2902 127.211 38.2902C127.285 38.2902 127.343 38.2764 127.384 38.2487C127.426 38.221 127.458 38.1841 127.481 38.138C127.509 38.0873 127.53 38.0296 127.543 37.9651C127.562 37.9005 127.583 37.8337 127.606 37.7645H128.007L128.166 40.4899H127.751C127.673 40.1579 127.555 39.8604 127.398 39.5976C127.241 39.3347 127.059 39.1134 126.852 38.9335C126.649 38.7537 126.427 38.6153 126.188 38.5185C125.948 38.4216 125.71 38.3732 125.475 38.3732C125.115 38.3732 124.804 38.4585 124.541 38.6292C124.278 38.7952 124.062 39.0257 123.891 39.3209C123.72 39.6114 123.594 39.9527 123.511 40.3446C123.428 40.7366 123.386 41.1563 123.386 41.6036C123.386 42.0509 123.441 42.4567 123.552 42.821C123.663 43.1807 123.817 43.4874 124.016 43.741C124.219 43.9947 124.458 44.1907 124.735 44.329C125.016 44.4628 125.328 44.5296 125.669 44.5296C125.946 44.5296 126.201 44.4835 126.437 44.3913C126.672 44.299 126.886 44.1815 127.08 44.0385C127.278 43.8909 127.454 43.7249 127.606 43.5404C127.762 43.356 127.901 43.1715 128.021 42.9871L128.401 43.2845ZM134.792 45L132.496 41.8042C132.468 41.8134 132.42 41.818 132.35 41.818C132.323 41.818 132.293 41.818 132.26 41.818C132.233 41.8134 132.207 41.8111 132.184 41.8111V43.665C132.184 43.8356 132.196 43.9808 132.219 44.1007C132.247 44.216 132.295 44.3106 132.364 44.3844C132.438 44.4535 132.537 44.5043 132.662 44.5365C132.791 44.5688 132.959 44.585 133.167 44.585V45H129.577V44.585C129.789 44.585 129.959 44.5688 130.088 44.5365C130.218 44.5043 130.314 44.4512 130.379 44.3774C130.448 44.299 130.492 44.1976 130.51 44.0731C130.533 43.9486 130.545 43.7964 130.545 43.6165V39.1756C130.545 39.0096 130.533 38.8736 130.51 38.7675C130.492 38.6614 130.448 38.5784 130.379 38.5185C130.314 38.4539 130.218 38.4101 130.088 38.387C129.959 38.3594 129.789 38.3455 129.577 38.3455V37.9305H132.51C132.911 37.9305 133.303 37.9489 133.685 37.9858C134.073 38.0181 134.416 38.0965 134.716 38.221C135.016 38.3455 135.256 38.53 135.436 38.7744C135.62 39.0142 135.712 39.3393 135.712 39.7498C135.712 40.0311 135.675 40.2801 135.602 40.4968C135.532 40.7136 135.436 40.9003 135.311 41.0571C135.187 41.2139 135.039 41.3407 134.868 41.4376C134.698 41.5344 134.513 41.6036 134.315 41.6451L135.844 43.4574C136.01 43.6557 136.164 43.8264 136.307 43.9693C136.45 44.1077 136.588 44.223 136.722 44.3152C136.856 44.4028 136.99 44.4697 137.123 44.5158C137.262 44.5573 137.412 44.5803 137.573 44.585V45H134.792ZM133.997 39.8535C133.997 39.6921 133.983 39.533 133.955 39.3762C133.928 39.2194 133.868 39.0811 133.775 38.9612C133.688 38.8367 133.556 38.7375 133.381 38.6637C133.206 38.5853 132.971 38.5461 132.676 38.5461C132.588 38.5461 132.514 38.5484 132.454 38.5531C132.394 38.5531 132.343 38.5554 132.302 38.56C132.251 38.5646 132.212 38.5692 132.184 38.5738V41.1955C132.235 41.2047 132.316 41.2139 132.426 41.2231C132.542 41.2278 132.652 41.2301 132.759 41.2301C132.915 41.2301 133.068 41.1978 133.215 41.1332C133.367 41.0687 133.501 40.9764 133.616 40.8565C133.732 40.7366 133.824 40.5914 133.893 40.4207C133.962 40.2501 133.997 40.061 133.997 39.8535ZM145.23 38.3455C145.11 38.3455 145.002 38.3571 144.905 38.3801C144.808 38.3986 144.706 38.4493 144.6 38.5323C144.499 38.6153 144.388 38.7375 144.268 38.8989C144.148 39.0603 144.006 39.2817 143.84 39.563L142.318 42.1431V43.6719C142.318 43.8517 142.336 44.0016 142.373 44.1215C142.415 44.2368 142.479 44.329 142.567 44.3982C142.659 44.4674 142.779 44.5158 142.926 44.5435C143.074 44.5711 143.254 44.585 143.466 44.585V45H139.502V44.585C139.714 44.585 139.894 44.5711 140.042 44.5435C140.189 44.5158 140.309 44.4674 140.402 44.3982C140.498 44.329 140.568 44.2368 140.609 44.1215C140.651 44.0016 140.671 43.8517 140.671 43.6719V42.4198L138.894 39.4177C138.774 39.2194 138.668 39.0511 138.575 38.9128C138.483 38.7744 138.393 38.6637 138.306 38.5807C138.218 38.4977 138.128 38.4378 138.036 38.4009C137.948 38.364 137.847 38.3455 137.732 38.3455V37.9305H141.121V38.3455C140.872 38.3455 140.681 38.3663 140.547 38.4078C140.418 38.4493 140.353 38.5231 140.353 38.6292C140.353 38.6845 140.381 38.7721 140.436 38.892C140.492 39.0073 140.581 39.1733 140.706 39.3901C140.835 39.6022 141.003 39.872 141.211 40.1994C141.423 40.5268 141.684 40.928 141.993 41.403L143.245 39.2725C143.318 39.1526 143.371 39.0396 143.404 38.9335C143.441 38.8228 143.459 38.726 143.459 38.643C143.459 38.5508 143.408 38.4793 143.307 38.4285C143.205 38.3732 143.03 38.3455 142.781 38.3455V37.9305H145.23V38.3455ZM152.105 39.8535C152.105 40.1256 152.052 40.3861 151.946 40.6352C151.845 40.8796 151.679 41.0963 151.448 41.2854C151.222 41.4745 150.929 41.6243 150.57 41.735C150.21 41.8457 149.774 41.901 149.262 41.901C149.198 41.901 149.138 41.901 149.082 41.901C149.027 41.8964 148.976 41.8918 148.93 41.8872C148.879 41.8826 148.831 41.878 148.785 41.8734V43.7341C148.785 43.9048 148.796 44.0454 148.819 44.1561C148.847 44.2622 148.896 44.3475 148.965 44.412C149.034 44.4766 149.131 44.5227 149.255 44.5504C149.384 44.5734 149.553 44.585 149.76 44.585V45H146.177V44.585C146.389 44.585 146.557 44.5734 146.682 44.5504C146.811 44.5227 146.91 44.4766 146.979 44.412C147.049 44.3429 147.092 44.2506 147.111 44.1353C147.134 44.0154 147.145 43.8656 147.145 43.6857V39.1064C147.145 38.9404 147.134 38.809 147.111 38.7122C147.092 38.6107 147.049 38.5346 146.979 38.4839C146.91 38.4285 146.811 38.3917 146.682 38.3732C146.557 38.3548 146.389 38.3455 146.177 38.3455V37.9305H149.553C149.954 37.9305 150.311 37.9766 150.625 38.0688C150.943 38.1611 151.211 38.2902 151.427 38.4562C151.649 38.6222 151.817 38.8251 151.932 39.0649C152.048 39.3001 152.105 39.563 152.105 39.8535ZM150.369 39.8535C150.369 39.6598 150.348 39.4823 150.307 39.3209C150.265 39.1595 150.194 39.0211 150.092 38.9058C149.991 38.7906 149.852 38.7029 149.677 38.643C149.507 38.5784 149.288 38.5461 149.02 38.5461C148.992 38.5461 148.965 38.5484 148.937 38.5531C148.909 38.5531 148.884 38.5554 148.861 38.56C148.833 38.5646 148.808 38.5692 148.785 38.5738V41.2716C148.813 41.2762 148.838 41.2808 148.861 41.2854C148.884 41.29 148.907 41.2946 148.93 41.2992C148.958 41.2992 148.988 41.2992 149.02 41.2992C149.283 41.2992 149.502 41.2623 149.677 41.1886C149.852 41.1102 149.991 41.0064 150.092 40.8773C150.194 40.7482 150.265 40.596 150.307 40.4207C150.348 40.2455 150.369 40.0564 150.369 39.8535ZM159.389 40.0472C159.338 39.5307 159.188 39.1526 158.939 38.9128C158.69 38.6683 158.316 38.5461 157.818 38.5461H157.369V43.6719C157.369 43.8517 157.38 44.0016 157.403 44.1215C157.431 44.2368 157.482 44.329 157.555 44.3982C157.634 44.4674 157.738 44.5158 157.867 44.5435C158 44.5711 158.176 44.585 158.392 44.585V45H154.712V44.585C154.925 44.585 155.097 44.5711 155.231 44.5435C155.365 44.5158 155.469 44.4674 155.543 44.3982C155.616 44.329 155.665 44.2368 155.688 44.1215C155.715 44.0016 155.729 43.8517 155.729 43.6719V38.5461H155.21C154.966 38.5461 154.752 38.5738 154.567 38.6292C154.387 38.6799 154.233 38.7652 154.104 38.8851C153.975 39.0004 153.873 39.1549 153.799 39.3486C153.73 39.5376 153.684 39.7705 153.661 40.0472H153.239L153.308 37.9305H159.734L159.804 40.0472H159.389ZM168.581 41.4653C168.581 41.9587 168.493 42.4291 168.318 42.8764C168.148 43.3237 167.901 43.718 167.578 44.0592C167.255 44.3959 166.861 44.6657 166.395 44.8686C165.934 45.0669 165.413 45.166 164.832 45.166C164.251 45.166 163.727 45.0669 163.262 44.8686C162.796 44.6703 162.399 44.4028 162.072 44.0662C161.749 43.7295 161.5 43.3375 161.325 42.8902C161.154 42.4383 161.069 41.9633 161.069 41.4653C161.069 40.9534 161.161 40.4738 161.346 40.0264C161.535 39.5745 161.795 39.1825 162.127 38.8505C162.464 38.5185 162.86 38.2579 163.317 38.0688C163.778 37.8752 164.279 37.7783 164.818 37.7783C165.399 37.7783 165.923 37.8775 166.388 38.0758C166.854 38.2694 167.248 38.5346 167.571 38.8713C167.899 39.2079 168.148 39.5999 168.318 40.0472C168.493 40.4899 168.581 40.9626 168.581 41.4653ZM166.7 41.4998C166.7 41.2646 166.686 41.0225 166.658 40.7735C166.635 40.5245 166.596 40.2824 166.54 40.0472C166.485 39.8074 166.409 39.5837 166.312 39.3762C166.22 39.1641 166.102 38.9796 165.959 38.8228C165.821 38.6614 165.657 38.5346 165.468 38.4424C165.279 38.3502 165.062 38.304 164.818 38.304C164.574 38.304 164.357 38.3502 164.168 38.4424C163.979 38.5346 163.815 38.6591 163.677 38.8159C163.538 38.9727 163.423 39.1549 163.331 39.3624C163.239 39.5699 163.163 39.789 163.103 40.0195C163.047 40.2501 163.008 40.4876 162.985 40.732C162.962 40.9718 162.95 41.2024 162.95 41.4237C162.95 41.6267 162.962 41.848 162.985 42.0878C163.008 42.3276 163.047 42.5674 163.103 42.8072C163.163 43.0424 163.239 43.2707 163.331 43.492C163.423 43.7088 163.538 43.9025 163.677 44.0731C163.815 44.2391 163.976 44.3728 164.161 44.4743C164.35 44.5757 164.569 44.6265 164.818 44.6265C165.187 44.6265 165.491 44.5273 165.731 44.329C165.976 44.1261 166.169 43.8702 166.312 43.5612C166.455 43.2522 166.554 42.9156 166.61 42.5513C166.67 42.1823 166.7 41.8319 166.7 41.4998ZM179.44 45H173.865V44.585C174.086 44.585 174.261 44.5688 174.391 44.5365C174.524 44.4996 174.626 44.4397 174.695 44.3567C174.764 44.2691 174.81 44.1538 174.833 44.0108C174.856 43.8679 174.868 43.688 174.868 43.4713V39.4385C174.868 39.2171 174.859 39.0373 174.84 38.8989C174.822 38.756 174.778 38.643 174.709 38.56C174.64 38.477 174.538 38.4193 174.404 38.387C174.271 38.3548 174.091 38.3386 173.865 38.3386V37.9305H179.509L179.592 39.8328H179.191C179.131 39.6068 179.074 39.4131 179.018 39.2517C178.968 39.0857 178.896 38.952 178.804 38.8505C178.716 38.7444 178.594 38.6683 178.437 38.6222C178.285 38.5715 178.077 38.5461 177.815 38.5461H176.493V41.0986H177.13C177.347 41.0986 177.519 41.0733 177.649 41.0225C177.782 40.9718 177.888 40.8957 177.967 40.7943C178.05 40.6928 178.11 40.566 178.147 40.4138C178.188 40.2616 178.223 40.0818 178.25 39.8743H178.665V42.828H178.25C178.223 42.6204 178.188 42.4452 178.147 42.3022C178.11 42.1593 178.052 42.044 177.974 41.9564C177.895 41.8641 177.789 41.7996 177.656 41.7627C177.526 41.7212 177.351 41.7004 177.13 41.7004H176.493V43.5404C176.493 43.6788 176.496 43.801 176.5 43.9071C176.51 44.0131 176.533 44.1031 176.57 44.1768C176.611 44.2506 176.671 44.3083 176.749 44.3498C176.828 44.3867 176.941 44.4051 177.088 44.4051H177.649C177.958 44.4051 178.214 44.3774 178.416 44.3221C178.619 44.2622 178.795 44.1745 178.942 44.0592C179.09 43.9393 179.223 43.7872 179.343 43.6027C179.463 43.4182 179.595 43.2015 179.738 42.9525H180.167L179.44 45ZM185.209 45V44.585C185.435 44.585 185.601 44.5481 185.707 44.4743C185.817 44.4005 185.873 44.3083 185.873 44.1976C185.873 44.1376 185.845 44.05 185.79 43.9347C185.734 43.8148 185.658 43.6765 185.561 43.5197C185.465 43.3583 185.349 43.1807 185.216 42.9871C185.082 42.7934 184.937 42.5928 184.78 42.3853L183.964 43.326C183.871 43.4321 183.795 43.5243 183.735 43.6027C183.675 43.6811 183.629 43.7526 183.597 43.8171C183.565 43.8771 183.542 43.9347 183.528 43.9901C183.519 44.0408 183.514 44.0961 183.514 44.1561C183.514 44.2022 183.525 44.2506 183.549 44.3014C183.572 44.3521 183.613 44.3982 183.673 44.4397C183.733 44.4812 183.814 44.5158 183.915 44.5435C184.017 44.5711 184.143 44.585 184.296 44.585V45H181.231V44.585C181.397 44.5573 181.549 44.525 181.688 44.4881C181.831 44.4512 181.964 44.4005 182.089 44.3359C182.218 44.2714 182.34 44.1907 182.456 44.0938C182.571 43.997 182.684 43.8771 182.795 43.7341L184.351 41.735C184.06 41.3108 183.8 40.9303 183.569 40.5937C183.339 40.257 183.143 39.9711 182.981 39.7359C182.792 39.4592 182.622 39.2148 182.469 39.0027C182.373 38.8597 182.278 38.7467 182.186 38.6637C182.094 38.5761 182.006 38.5093 181.923 38.4631C181.84 38.417 181.759 38.387 181.681 38.3732C181.602 38.3548 181.529 38.3455 181.459 38.3455V37.9305H185.105V38.3455C184.856 38.3455 184.674 38.3709 184.558 38.4216C184.448 38.4677 184.392 38.5438 184.392 38.6499C184.392 38.673 184.392 38.6937 184.392 38.7122C184.392 38.726 184.402 38.7537 184.42 38.7952C184.439 38.8321 184.469 38.8874 184.51 38.9612C184.552 39.0304 184.614 39.1318 184.697 39.2655C184.78 39.3947 184.886 39.5607 185.015 39.7636C185.149 39.9665 185.315 40.2178 185.513 40.5176C185.817 40.144 186.057 39.8489 186.232 39.6322C186.412 39.4108 186.546 39.2402 186.634 39.1203C186.721 39.0004 186.777 38.9174 186.8 38.8713C186.823 38.8205 186.834 38.7767 186.834 38.7398C186.834 38.6799 186.811 38.6245 186.765 38.5738C186.719 38.5231 186.657 38.4816 186.578 38.4493C186.505 38.417 186.417 38.3917 186.315 38.3732C186.214 38.3548 186.106 38.3455 185.99 38.3455V37.9305H188.66V38.3455C188.522 38.3455 188.4 38.364 188.294 38.4009C188.192 38.4332 188.096 38.4862 188.003 38.56C187.911 38.6338 187.817 38.726 187.72 38.8367C187.627 38.9427 187.521 39.0696 187.401 39.2171L185.949 41.0087L187.996 43.9278C188.047 44.0016 188.109 44.0777 188.183 44.1561C188.262 44.2345 188.351 44.306 188.453 44.3705C188.554 44.4305 188.67 44.4812 188.799 44.5227C188.928 44.5642 189.069 44.585 189.221 44.585V45H185.209ZM196.822 43.2845C196.712 43.469 196.573 43.6719 196.407 43.8932C196.241 44.11 196.034 44.3129 195.785 44.502C195.54 44.6864 195.25 44.8409 194.913 44.9654C194.576 45.0899 194.187 45.1522 193.744 45.1522C193.112 45.1522 192.561 45.0553 192.091 44.8617C191.625 44.6634 191.238 44.4005 190.929 44.0731C190.62 43.741 190.389 43.3629 190.237 42.9386C190.085 42.5098 190.009 42.0648 190.009 41.6036C190.009 41.2946 190.043 40.9856 190.112 40.6767C190.182 40.3677 190.283 40.0726 190.417 39.7913C190.551 39.51 190.719 39.2471 190.922 39.0027C191.129 38.7537 191.367 38.5392 191.634 38.3594C191.902 38.1795 192.204 38.0389 192.54 37.9374C192.877 37.8314 193.246 37.7783 193.647 37.7783C193.915 37.7783 194.159 37.806 194.38 37.8613C194.602 37.9121 194.796 37.9697 194.962 38.0343C195.132 38.0988 195.273 38.1588 195.383 38.2141C195.499 38.2648 195.582 38.2902 195.633 38.2902C195.706 38.2902 195.764 38.2764 195.805 38.2487C195.847 38.221 195.879 38.1841 195.902 38.138C195.93 38.0873 195.951 38.0296 195.965 37.9651C195.983 37.9005 196.004 37.8337 196.027 37.7645H196.428L196.587 40.4899H196.172C196.094 40.1579 195.976 39.8604 195.819 39.5976C195.662 39.3347 195.48 39.1134 195.273 38.9335C195.07 38.7537 194.849 38.6153 194.609 38.5185C194.369 38.4216 194.131 38.3732 193.896 38.3732C193.537 38.3732 193.225 38.4585 192.962 38.6292C192.7 38.7952 192.483 39.0257 192.312 39.3209C192.142 39.6114 192.015 39.9527 191.932 40.3446C191.849 40.7366 191.807 41.1563 191.807 41.6036C191.807 42.0509 191.863 42.4567 191.973 42.821C192.084 43.1807 192.238 43.4874 192.437 43.741C192.64 43.9947 192.879 44.1907 193.156 44.329C193.437 44.4628 193.749 44.5296 194.09 44.5296C194.367 44.5296 194.623 44.4835 194.858 44.3913C195.093 44.299 195.307 44.1815 195.501 44.0385C195.699 43.8909 195.875 43.7249 196.027 43.5404C196.184 43.356 196.322 43.1715 196.442 42.9871L196.822 43.2845ZM202.273 45V44.585C202.485 44.585 202.655 44.5688 202.784 44.5365C202.918 44.4996 203.022 44.4443 203.096 44.3705C203.17 44.2921 203.218 44.1907 203.241 44.0662C203.264 43.937 203.276 43.7826 203.276 43.6027V41.8042H200.647V43.6027C200.647 43.7826 200.659 43.937 200.682 44.0662C200.705 44.1907 200.753 44.2921 200.827 44.3705C200.901 44.4443 201.002 44.4996 201.131 44.5365C201.26 44.5688 201.433 44.585 201.65 44.585V45H198.012V44.585C198.224 44.585 198.394 44.5688 198.523 44.5365C198.657 44.4996 198.759 44.4443 198.828 44.3705C198.902 44.2921 198.95 44.1907 198.973 44.0662C198.996 43.937 199.008 43.7826 199.008 43.6027V39.3278C199.008 39.1479 198.996 38.9958 198.973 38.8713C198.95 38.7421 198.902 38.6407 198.828 38.5669C198.759 38.4885 198.657 38.4332 198.523 38.4009C198.394 38.364 198.224 38.3455 198.012 38.3455V37.9305H201.65V38.3455C201.433 38.3455 201.26 38.364 201.131 38.4009C201.002 38.4332 200.901 38.4885 200.827 38.5669C200.753 38.6407 200.705 38.7421 200.682 38.8713C200.659 38.9958 200.647 39.1479 200.647 39.3278V41.1471H203.276V39.3278C203.276 39.1479 203.264 38.9958 203.241 38.8713C203.218 38.7421 203.17 38.6407 203.096 38.5669C203.022 38.4885 202.918 38.4332 202.784 38.4009C202.655 38.364 202.485 38.3455 202.273 38.3455V37.9305H205.911V38.3455C205.699 38.3455 205.526 38.364 205.392 38.4009C205.263 38.4332 205.162 38.4885 205.088 38.5669C205.019 38.6407 204.973 38.7421 204.95 38.8713C204.927 38.9958 204.915 39.1479 204.915 39.3278V43.6027C204.915 43.7826 204.927 43.937 204.95 44.0662C204.973 44.1907 205.019 44.2921 205.088 44.3705C205.162 44.4443 205.263 44.4996 205.392 44.5365C205.526 44.5688 205.699 44.585 205.911 44.585V45H202.273ZM210.787 45V44.585C211.096 44.585 211.311 44.5596 211.431 44.5089C211.555 44.4581 211.617 44.3728 211.617 44.2529C211.617 44.2253 211.613 44.1861 211.603 44.1353C211.594 44.08 211.571 44.0016 211.534 43.9001C211.502 43.7941 211.454 43.658 211.389 43.492C211.324 43.3214 211.235 43.107 211.119 42.8487H208.857C208.779 43.0424 208.71 43.2199 208.65 43.3813C208.599 43.5197 208.551 43.6534 208.505 43.7826C208.463 43.9071 208.442 43.9878 208.442 44.0247C208.442 44.1999 208.516 44.3313 208.664 44.4189C208.816 44.5066 209.056 44.5619 209.383 44.585V45H206.754V44.585C206.874 44.5619 206.98 44.5342 207.073 44.502C207.169 44.4651 207.259 44.4097 207.342 44.3359C207.43 44.2575 207.513 44.1538 207.591 44.0247C207.67 43.8909 207.753 43.7203 207.84 43.5128L210.199 37.7783H210.614L213.236 43.748C213.305 43.9048 213.384 44.0362 213.471 44.1423C213.559 44.2437 213.651 44.329 213.748 44.3982C213.845 44.4628 213.942 44.5089 214.038 44.5365C214.14 44.5642 214.237 44.5803 214.329 44.585V45H210.787ZM209.916 40.1579L209.079 42.24H210.85L209.916 40.1579ZM222.235 38.3455C222.069 38.3455 221.933 38.3571 221.827 38.3801C221.725 38.3986 221.645 38.4355 221.585 38.4908C221.529 38.5461 221.49 38.6245 221.467 38.726C221.444 38.8228 221.432 38.9497 221.432 39.1064V45.1107H220.824L216.694 39.7705V43.8241C216.694 43.9855 216.71 44.1169 216.743 44.2183C216.779 44.3152 216.835 44.3913 216.909 44.4466C216.982 44.502 217.079 44.5388 217.199 44.5573C217.319 44.5757 217.467 44.585 217.642 44.585V45H215.131V44.585C215.297 44.585 215.435 44.5757 215.546 44.5573C215.661 44.5388 215.756 44.502 215.829 44.4466C215.903 44.3913 215.956 44.3152 215.989 44.2183C216.021 44.1169 216.037 43.9855 216.037 43.8241V38.9335C215.931 38.7952 215.846 38.6868 215.781 38.6084C215.716 38.53 215.654 38.4724 215.594 38.4355C215.539 38.394 215.477 38.3686 215.407 38.3594C215.338 38.3455 215.246 38.3386 215.131 38.3386V37.9305H217.455L220.775 42.2331V39.1064C220.775 38.9497 220.761 38.8228 220.734 38.726C220.706 38.6245 220.66 38.5461 220.595 38.4908C220.531 38.4355 220.441 38.3986 220.326 38.3801C220.21 38.3571 220.067 38.3455 219.897 38.3455V37.9305H222.235V38.3455ZM231.165 41.5483C230.985 41.5483 230.839 41.5667 230.729 41.6036C230.618 41.6359 230.533 41.6912 230.473 41.7696C230.413 41.8434 230.374 41.9449 230.355 42.074C230.337 42.1985 230.328 42.3507 230.328 42.5305V44.412C229.889 44.6749 229.419 44.864 228.916 44.9792C228.418 45.0945 227.863 45.1522 227.249 45.1522C226.595 45.1522 226.025 45.0484 225.541 44.8409C225.057 44.6288 224.655 44.3498 224.337 44.0039C224.019 43.658 223.781 43.2638 223.625 42.821C223.473 42.3783 223.396 41.9264 223.396 41.4653C223.396 41.0041 223.484 40.5522 223.659 40.1095C223.839 39.6667 224.095 39.2725 224.427 38.9266C224.764 38.5807 225.172 38.304 225.651 38.0965C226.136 37.8844 226.682 37.7783 227.291 37.7783C227.572 37.7783 227.828 37.806 228.059 37.8613C228.294 37.9121 228.501 37.9697 228.681 38.0343C228.866 38.0988 229.023 38.1588 229.152 38.2141C229.285 38.2648 229.394 38.2902 229.477 38.2902C229.527 38.2902 229.567 38.2694 229.594 38.2279C229.627 38.1818 229.65 38.1311 229.664 38.0758C229.677 38.0158 229.687 37.9582 229.691 37.9028C229.7 37.8429 229.71 37.7968 229.719 37.7645H230.12L230.328 40.3101H229.919C229.836 39.9965 229.717 39.7175 229.56 39.4731C229.403 39.224 229.221 39.0165 229.013 38.8505C228.81 38.6799 228.589 38.5508 228.349 38.4631C228.109 38.3709 227.863 38.3248 227.609 38.3248C227.199 38.3248 226.846 38.4055 226.551 38.5669C226.26 38.7237 226.018 38.9427 225.824 39.224C225.635 39.5053 225.495 39.8374 225.402 40.2201C225.315 40.6029 225.271 41.0179 225.271 41.4653C225.271 41.8618 225.303 42.2492 225.368 42.6274C225.432 43.0009 225.548 43.3352 225.714 43.6304C225.88 43.9255 226.108 44.163 226.399 44.3429C226.694 44.5181 227.07 44.6057 227.526 44.6057C227.77 44.6057 227.983 44.585 228.162 44.5435C228.342 44.502 228.518 44.4213 228.688 44.3014V42.5305C228.688 42.3507 228.674 42.1985 228.647 42.074C228.624 41.9449 228.577 41.8434 228.508 41.7696C228.444 41.6912 228.352 41.6359 228.232 41.6036C228.116 41.5667 227.966 41.5483 227.782 41.5483V41.1332H231.165V41.5483ZM237.68 45H232.105V44.585C232.326 44.585 232.501 44.5688 232.63 44.5365C232.764 44.4996 232.866 44.4397 232.935 44.3567C233.004 44.2691 233.05 44.1538 233.073 44.0108C233.096 43.8679 233.108 43.688 233.108 43.4713V39.4385C233.108 39.2171 233.099 39.0373 233.08 38.8989C233.062 38.756 233.018 38.643 232.949 38.56C232.88 38.477 232.778 38.4193 232.644 38.387C232.511 38.3548 232.331 38.3386 232.105 38.3386V37.9305H237.749L237.832 39.8328H237.431C237.371 39.6068 237.314 39.4131 237.258 39.2517C237.207 39.0857 237.136 38.952 237.044 38.8505C236.956 38.7444 236.834 38.6683 236.677 38.6222C236.525 38.5715 236.317 38.5461 236.055 38.5461H234.733V41.0986H235.37C235.586 41.0986 235.759 41.0733 235.889 41.0225C236.022 40.9718 236.128 40.8957 236.207 40.7943C236.29 40.6928 236.35 40.566 236.387 40.4138C236.428 40.2616 236.463 40.0818 236.49 39.8743H236.905V42.828H236.49C236.463 42.6204 236.428 42.4452 236.387 42.3022C236.35 42.1593 236.292 42.044 236.214 41.9564C236.135 41.8641 236.029 41.7996 235.895 41.7627C235.766 41.7212 235.591 41.7004 235.37 41.7004H234.733V43.5404C234.733 43.6788 234.736 43.801 234.74 43.9071C234.749 44.0131 234.773 44.1031 234.809 44.1768C234.851 44.2506 234.911 44.3083 234.989 44.3498C235.068 44.3867 235.181 44.4051 235.328 44.4051H235.889C236.198 44.4051 236.453 44.3774 236.656 44.3221C236.859 44.2622 237.035 44.1745 237.182 44.0592C237.33 43.9393 237.463 43.7872 237.583 43.6027C237.703 43.4182 237.835 43.2015 237.978 42.9525H238.406L237.68 45Z" fill="white"/>
<line x1="62.0005" y1="41.5" x2="112" y2="41.5" stroke="url(#paint0_linear_19_10316)"/>
<line x1="298" y1="42.5" x2="248" y2="42.5" stroke="url(#paint1_linear_19_10316)"/>
<defs>
<linearGradient id="paint0_linear_19_10316" x1="62.0005" y1="42.5" x2="112" y2="42.5" gradientUnits="userSpaceOnUse">
<stop stop-color="#6B5735" stop-opacity="0"/>
<stop offset="1" stop-color="#D1AA67"/>
</linearGradient>
<linearGradient id="paint1_linear_19_10316" x1="298" y1="41.5" x2="248" y2="41.5" gradientUnits="userSpaceOnUse">
<stop stop-color="#6B5735" stop-opacity="0"/>
<stop offset="1" stop-color="#D1AA67"/>
</linearGradient>
</defs>
</svg>
