<svg width="120" height="144" viewBox="0 0 120 144" fill="none" xmlns="http://www.w3.org/2000/svg">
<path d="M106.582 55.5458C106.582 55.4997 104 54.1265 101.413 52.7212C101.64 51.119 101.366 49.5093 99.9995 48.6685C87.0947 35.5872 72.118 24.4109 55.4274 15.27C55.4066 15.2489 55.3909 15.22 55.3698 15.1997C55.2983 15.131 55.205 15.1036 55.1123 15.0986C49.8101 12.2069 46.1927 10.4286 42.023 8.4841C41.8995 8.4216 41.7597 8.38723 41.6402 8.46067C41.6344 8.46418 41.6323 8.46906 41.6269 8.47278C39.8675 8.16633 37.8552 8.88996 35.7519 10.6122C35.6562 10.6911 35.6193 10.8034 35.6188 10.9185C26.6167 10.946 18.6538 17.3042 17.5379 25.5282C16.6212 32.1585 20.0368 38.0814 25.5303 41.1113C25.4878 41.1943 25.4648 41.2896 25.4894 41.3872C26.1458 43.9949 27.6049 46.4966 30.2839 46.4966C31.2101 46.4962 32.1995 46.1642 33.2152 45.572C44.7855 47.8029 56.3289 50.6822 67.5485 54.12C63.4558 57.6218 62.627 63.4978 65.5517 68.0265C56.6349 81.6201 47.7226 93.9167 37.3878 108.918C37.2628 109.1 37.3089 109.35 37.4909 109.475C37.6748 109.6 37.9212 109.553 38.0472 109.372C48.1043 94.7709 57.2123 82.1785 66.0461 68.7261C67.8769 71.1103 70.5555 72.5866 73.4983 72.8411C71.3075 83.4054 70.3636 94.22 70.6655 105.041C63.7542 105.115 58.2457 106.346 58.2457 107.882C58.2457 109.45 64.1018 110.73 71.3177 110.73C78.5497 110.73 84.4058 109.45 84.4058 107.882C84.4058 106.309 78.6284 105.052 71.4653 105.035C71.1632 94.2376 72.1067 83.447 74.3001 72.9083C74.3734 72.9101 74.4473 72.9216 74.5175 72.9216C78.8199 72.9216 82.6632 70.3128 84.3373 66.4427C87.3314 82.5255 93.244 97.6517 101.972 111.408C102.048 111.528 102.178 111.593 102.31 111.593C102.621 111.593 102.818 111.247 102.647 110.979C93.7361 96.9329 87.7533 81.4589 84.8607 64.9843C85.3476 63.245 85.341 61.658 84.9713 59.9841C87.4973 60.9177 89.6096 61.7187 91.4823 62.4513C93.0702 63.3824 94.8513 62.5384 96.2862 61.3853C97.7786 62.5825 99.2602 63.7911 100.71 65.0017C104.278 67.1618 110.278 57.7857 106.582 55.5458ZM77.8457 107.882C77.8457 108.666 74.9177 109.306 71.3177 109.306C67.7177 109.306 64.7898 108.666 64.7898 107.882C64.7898 107.143 67.3993 106.539 70.7118 106.471C70.73 106.947 70.7351 107.424 70.7581 107.9C70.7683 108.114 70.9448 108.281 71.1573 108.281H71.1769C71.3972 108.27 71.5675 108.083 71.5566 107.862C71.534 107.395 71.5292 106.929 71.5113 106.462C75.0199 106.485 77.8457 107.112 77.8457 107.882ZM77.318 49.1341C74.7875 48.5591 72.2805 47.795 69.8656 46.8607C69.6602 46.781 69.5571 46.5482 69.6367 46.3435C69.7164 46.1357 69.95 46.0325 70.1547 46.1138C72.5328 47.0341 75.0024 47.7872 77.4946 48.3529C77.7102 48.4029 77.8453 48.6169 77.7961 48.8325C77.7491 49.0382 77.545 49.1819 77.318 49.1341ZM72.4672 36.7404C72.2563 36.6763 72.1367 36.4529 72.2008 36.2419C72.2649 36.0294 72.4852 35.9154 72.7 35.9747C74.9086 36.645 77.0969 37.3325 79.2039 38.02C79.706 38.1812 79.4571 38.9498 78.9555 38.7794C76.8539 38.095 74.6711 37.4091 72.4672 36.7404ZM64.9925 21.7655C64.969 21.7636 64.9499 21.7443 64.9261 21.7466C64.7066 21.7747 64.5527 21.9763 64.5808 22.195C65.4628 28.9622 64.9339 35.9716 63.0073 43.0294C62.9495 43.2419 63.0745 43.4622 63.2878 43.52C63.5065 43.5784 63.7223 43.448 63.7792 43.2388C65.7331 36.0794 66.2698 28.9654 65.3745 22.0919C65.3659 22.0288 65.3183 21.9896 65.2842 21.9411C67.3935 23.264 69.457 24.6368 71.5017 26.0302C72.5463 34.6395 71.1431 43.8874 66.8935 53.0927C60.0151 51.007 53.0196 49.1462 45.9719 47.5021C47.412 46.5784 48.8497 44.9482 50.1955 42.915C50.273 42.8667 50.3373 42.7984 50.3675 42.7044C50.3718 42.6907 50.3613 42.6786 50.3642 42.665C53.8193 37.3266 56.8612 28.8849 57.1797 22.4157C57.4475 22.2695 57.4587 21.8883 57.1995 21.7263C57.1973 21.7247 57.1947 21.7236 57.1925 21.722C57.228 19.6581 56.9559 17.9568 56.3756 16.696C59.3 18.3267 62.1799 20.0083 64.9925 21.7655ZM54.9184 15.9038C55.8841 16.9333 56.3889 18.7902 56.4029 21.2642C53.5061 19.6251 49.5009 18.1665 46.2502 17.5956C46.2721 15.2652 46.0096 12.6644 44.7724 10.7032C48.2247 12.3525 51.6031 14.0907 54.9184 15.9038ZM46.2235 18.4044C49.5175 19.0013 53.5713 20.5103 56.3802 22.1747C56.2736 24.917 55.7225 27.5741 54.968 30.2279C51.4178 29.5587 47.9776 28.4726 44.7413 26.9868C45.6267 23.9372 46.1165 21.0118 46.2235 18.4044ZM44.5081 27.7577C47.7527 29.2363 51.1962 30.3236 54.7484 30.9993C53.548 34.9743 51.7892 39.006 49.8112 42.1044C42.7728 39.827 40.1856 38.3733 39.8264 38.279C41.6185 35.331 43.2951 31.675 44.5081 27.7577ZM32.5078 35.4857C36.5906 28.5075 37.911 20.4263 36.1289 13.3122C36.0042 12.8095 36.7702 12.5891 36.9055 13.1185C38.7375 20.4325 37.386 28.7325 33.1985 35.8888C33.0871 36.081 32.8403 36.1435 32.6508 36.0325C32.4602 35.9216 32.3961 35.6763 32.5078 35.4857ZM23.1247 26.3779C22.0979 25.2388 22.1054 23.4857 22.3996 22.045C22.7675 20.2392 23.7755 18.4931 25.3238 17.2368C25.8867 16.7798 26.6229 16.3611 27.3276 16.5173C27.9566 16.6571 28.3363 17.2091 28.5802 17.747C29.7768 20.3923 28.9615 23.7376 26.7565 25.9165C25.6638 26.9943 24.246 27.6224 23.1247 26.3779ZM29.387 45.5622C28.0241 45.1445 26.986 43.7468 26.3636 41.531C27.4668 42.0614 28.6352 42.4927 29.87 42.7814C36.8342 44.613 48.3635 13.6849 40.6789 11.5923C38.6965 11.0442 37.6259 10.9955 36.6334 10.9462C38.5011 9.5177 40.2445 8.95793 41.7119 9.31028C41.7616 9.33235 41.8105 9.34231 41.8624 9.34367C43.0702 9.68477 43.8781 10.5615 44.4355 11.6966C46.2519 15.3966 45.6722 22.5294 42.9589 29.87C39.2323 39.881 33.28 46.7825 29.387 45.5622ZM39.4443 38.8798C39.478 38.9204 39.4955 38.9728 39.5456 38.9982C42.1848 40.3372 46.8455 41.9775 49.3513 42.796C47.8929 44.9353 46.3353 46.5443 44.8027 47.2269C41.2608 46.4142 37.7119 45.645 34.1558 44.9507C35.9238 43.6478 37.7404 41.564 39.4443 38.8798ZM74.5175 72.1216C74.3612 72.1169 74.1972 72.1232 73.9933 72.0904C64.7814 71.6434 61.1789 59.8182 68.6152 54.2638C75.0115 49.4232 84.4378 54.0086 84.4378 62.2013C84.4378 67.6839 79.9641 72.1216 74.5175 72.1216ZM91.8316 61.7341C89.7699 60.9222 87.5055 60.0646 84.736 59.0447C83.0271 53.4994 78.1428 52.1796 77.9827 52.0767C80.0658 45.8411 81.1036 39.2947 80.8796 32.8232C93.2224 42.3738 99.0395 49.0364 99.5456 49.3294C103.607 51.734 95.8631 64.0932 91.8316 61.7341Z" fill="black"/>
<path d="M30.2024 53.697C31.4379 54.0903 30.4679 55.3932 39.4399 60.6657C40.0883 61.046 40.6883 60.376 40.2321 59.8767C37.4969 56.8907 35.0204 53.8423 32.8704 50.8173C32.7415 50.6345 32.4923 50.5939 32.3126 50.722C32.1329 50.8501 32.0907 51.1001 32.2188 51.2798C34.0977 53.9251 36.2235 56.586 38.5509 59.2079C30.65 54.4474 32.2239 53.5087 30.4477 52.9345C29.8766 52.7532 29.2993 52.8095 28.6813 53.1142C24.8969 54.9798 22.3985 57.6173 20.2071 60.1251C20.1305 60.1454 19.9501 60.0798 19.9188 60.0423C19.4372 57.4756 20.5385 55.21 21.1188 52.7282C21.2134 52.3251 21.0884 51.7704 20.4266 51.5298C20.1485 51.4282 19.8798 51.4235 19.629 51.4298C16.9962 51.4876 14.5329 51.7579 12.2852 52.2376L19.6477 47.5532C19.8337 47.4345 19.8891 47.1876 19.7704 47.0017C19.6516 46.8142 19.4032 46.7626 19.218 46.8782L10.6352 52.3392C10.0838 52.6889 10.5958 53.4819 11.2196 53.311C13.7368 52.6595 16.5719 52.297 19.6469 52.2298C19.946 52.2118 20.4086 52.2544 20.3399 52.5454C19.7751 54.9714 18.6096 57.4057 19.1329 60.1907C19.2574 60.8441 20.322 61.1928 20.7641 60.686C23.0368 58.1032 25.3798 55.6345 29.0352 53.8314C29.304 53.6985 29.7173 53.5392 30.2024 53.697Z" fill="black"/>
<path d="M15.3792 55.1246C14.4746 55.6059 13.6199 56.1809 12.841 56.8293C12.5547 57.0694 12.7251 57.5371 13.0972 57.5371C13.4702 57.5371 13.7246 56.9122 15.7558 55.8309C16.2189 55.5854 15.8523 54.8766 15.3792 55.1246Z" fill="black"/>
<path d="M30.2937 58.356C30.0349 57.8909 29.3376 58.2872 29.5953 58.7466L31.5656 62.2623C31.8212 62.719 32.5236 62.3343 32.264 61.8716L30.2937 58.356Z" fill="black"/>
<path d="M75.9583 59.359C73.569 59.5475 72.3529 61.7083 73.2466 63.3012C73.7638 64.2231 74.9982 64.62 75.8841 64.1528C76.0794 64.0497 76.1544 63.8075 76.0513 63.6122C75.9474 63.4184 75.7052 63.345 75.5107 63.4465C75.0005 63.7184 74.2529 63.4606 73.9443 62.9106C73.3436 61.8387 74.2025 60.2998 76.0208 60.1559C77.7351 60.0323 78.7147 61.063 79.0841 62.7622C79.715 65.6528 78.1777 67.7394 75.4318 67.9044C73.0724 68.0419 70.6896 66.4762 69.9021 64.2387C69.1146 62.0044 69.9794 59.2872 71.9122 57.9169C73.8458 56.5481 76.6982 56.6309 78.5443 58.1169C78.9588 58.4477 79.4566 57.8242 79.0458 57.4919C76.9279 55.7934 73.6615 55.6934 71.4497 57.2637C69.2357 58.8325 68.2458 61.945 69.1474 64.5044C70.023 66.991 72.6663 68.8565 75.4802 68.7044C78.7222 68.5081 80.6002 65.9589 79.8654 62.5919C79.3565 60.2447 77.8524 59.227 75.9583 59.359Z" fill="black"/>
<path d="M108.499 27.8179C107.24 23.7632 103.083 20.8163 98.8466 20.8679C98.6255 20.8725 98.4505 21.0554 98.4552 21.2772C98.4606 21.4975 98.6505 21.6975 98.8638 21.6679C102.787 21.6007 106.579 24.3288 107.735 28.0554C108.227 29.6413 108.31 31.8382 107.187 33.5069C106.245 32.5105 105.195 32.4622 104.456 33.01C102.817 34.2153 105.009 36.817 107.163 34.7788C109.154 37.771 109.356 41.8647 107.652 45.0335C107.401 45.4989 108.107 45.8781 108.357 45.4116C110.232 41.9257 109.97 37.4038 107.707 34.1554C108.911 32.5225 109.218 30.135 108.499 27.8179ZM104.865 34.4632C104.341 33.934 105.076 33.3326 105.729 33.4882C106.104 33.5819 106.422 33.8475 106.678 34.1335C106.133 34.6813 105.39 34.9972 104.865 34.4632Z" fill="black"/>
<path d="M48.9659 129.909V143H47.4318L40.2983 132.722H40.1705V143H38.5852V129.909H40.1193L47.2784 140.213H47.4062V129.909H48.9659ZM55.9221 143.205C55.0357 143.205 54.258 142.994 53.589 142.572C52.9242 142.15 52.4043 141.56 52.0293 140.801C51.6586 140.043 51.4732 139.156 51.4732 138.142C51.4732 137.119 51.6586 136.227 52.0293 135.464C52.4043 134.701 52.9242 134.109 53.589 133.687C54.258 133.265 55.0357 133.054 55.9221 133.054C56.8084 133.054 57.584 133.265 58.2488 133.687C58.9178 134.109 59.4377 134.701 59.8084 135.464C60.1834 136.227 60.3709 137.119 60.3709 138.142C60.3709 139.156 60.1834 140.043 59.8084 140.801C59.4377 141.56 58.9178 142.15 58.2488 142.572C57.584 142.994 56.8084 143.205 55.9221 143.205ZM55.9221 141.849C56.5953 141.849 57.1493 141.677 57.584 141.332C58.0186 140.987 58.3404 140.533 58.5492 139.97C58.758 139.408 58.8624 138.798 58.8624 138.142C58.8624 137.486 58.758 136.874 58.5492 136.308C58.3404 135.741 58.0186 135.283 57.584 134.933C57.1493 134.584 56.5953 134.409 55.9221 134.409C55.2488 134.409 54.6948 134.584 54.2601 134.933C53.8255 135.283 53.5037 135.741 53.2949 136.308C53.0861 136.874 52.9817 137.486 52.9817 138.142C52.9817 138.798 53.0861 139.408 53.2949 139.97C53.5037 140.533 53.8255 140.987 54.2601 141.332C54.6948 141.677 55.2488 141.849 55.9221 141.849ZM71.4435 143.205C70.6254 143.205 69.9031 142.998 69.2766 142.585C68.6502 142.167 68.1602 141.579 67.8065 140.82C67.4528 140.058 67.2759 139.156 67.2759 138.116C67.2759 137.085 67.4528 136.19 67.8065 135.432C68.1602 134.673 68.6523 134.087 69.283 133.674C69.9137 133.261 70.6424 133.054 71.4691 133.054C72.1083 133.054 72.6133 133.161 72.984 133.374C73.359 133.582 73.6445 133.821 73.8406 134.089C74.0408 134.354 74.1964 134.571 74.3072 134.741H74.435V129.909H75.9435V143H74.4862V141.491H74.3072C74.1964 141.67 74.0387 141.896 73.8342 142.169C73.6296 142.437 73.3377 142.678 72.9585 142.891C72.5792 143.1 72.0742 143.205 71.4435 143.205ZM71.6481 141.849C72.2532 141.849 72.7646 141.692 73.1822 141.376C73.5998 141.057 73.9173 140.616 74.1346 140.053C74.3519 139.487 74.4606 138.832 74.4606 138.091C74.4606 137.358 74.354 136.717 74.141 136.167C73.9279 135.613 73.6126 135.183 73.195 134.876C72.7773 134.565 72.2617 134.409 71.6481 134.409C71.0089 134.409 70.4762 134.573 70.0501 134.901C69.6282 135.225 69.3107 135.666 69.0977 136.224C68.8888 136.778 68.7844 137.401 68.7844 138.091C68.7844 138.79 68.891 139.425 69.104 139.996C69.3214 140.562 69.641 141.014 70.0629 141.351C70.489 141.683 71.0174 141.849 71.6481 141.849ZM81.805 143.23C81.1829 143.23 80.6183 143.113 80.1112 142.879C79.604 142.64 79.2013 142.297 78.9031 141.849C78.6048 141.398 78.4556 140.852 78.4556 140.213C78.4556 139.651 78.5664 139.195 78.788 138.845C79.0096 138.491 79.3058 138.214 79.6765 138.014C80.0472 137.814 80.4563 137.665 80.9038 137.567C81.3555 137.464 81.8093 137.384 82.2653 137.324C82.8619 137.247 83.3455 137.19 83.7163 137.151C84.0913 137.109 84.364 137.038 84.5344 136.94C84.7092 136.842 84.7965 136.672 84.7965 136.429V136.378C84.7965 135.747 84.6239 135.257 84.2788 134.908C83.9379 134.558 83.4201 134.384 82.7255 134.384C82.0053 134.384 81.4407 134.541 81.0316 134.857C80.6225 135.172 80.3349 135.509 80.1687 135.866L78.7369 135.355C78.9925 134.759 79.3335 134.294 79.7596 133.962C80.19 133.625 80.6587 133.391 81.1658 133.259C81.6772 133.122 82.18 133.054 82.6744 133.054C82.9897 133.054 83.3519 133.092 83.761 133.169C84.1744 133.241 84.5728 133.393 84.9563 133.623C85.3441 133.853 85.6658 134.2 85.9215 134.665C86.1772 135.129 86.305 135.751 86.305 136.531V143H84.7965V141.67H84.7198C84.6175 141.884 84.4471 142.112 84.2085 142.354C83.9698 142.597 83.6523 142.804 83.256 142.974C82.8597 143.145 82.3761 143.23 81.805 143.23ZM82.0352 141.875C82.6317 141.875 83.1346 141.758 83.5437 141.523C83.957 141.289 84.2681 140.987 84.4769 140.616C84.69 140.245 84.7965 139.855 84.7965 139.446V138.065C84.7326 138.142 84.592 138.212 84.3746 138.276C84.1616 138.336 83.9144 138.389 83.6332 138.436C83.3562 138.479 83.0856 138.517 82.8214 138.551C82.5614 138.581 82.3505 138.607 82.1886 138.628C81.7965 138.679 81.43 138.762 81.0891 138.877C80.7525 138.988 80.4798 139.156 80.271 139.382C80.0664 139.604 79.9641 139.906 79.9641 140.29C79.9641 140.814 80.158 141.21 80.5458 141.479C80.9379 141.743 81.4343 141.875 82.0352 141.875ZM93.3283 133.182V134.46H88.2402V133.182H93.3283ZM89.7232 130.83H91.2317V140.188C91.2317 140.614 91.2935 140.933 91.4171 141.146C91.5449 141.355 91.7069 141.496 91.9029 141.568C92.1032 141.636 92.3141 141.67 92.5357 141.67C92.7019 141.67 92.8382 141.662 92.9448 141.645C93.0513 141.624 93.1365 141.607 93.2005 141.594L93.5073 142.949C93.405 142.987 93.2623 143.026 93.079 143.064C92.8958 143.107 92.6635 143.128 92.3823 143.128C91.9561 143.128 91.5385 143.036 91.1294 142.853C90.7246 142.67 90.388 142.391 90.1195 142.016C89.8553 141.641 89.7232 141.168 89.7232 140.597V130.83ZM98.4867 143.23C97.8645 143.23 97.2999 143.113 96.7928 142.879C96.2857 142.64 95.883 142.297 95.5847 141.849C95.2864 141.398 95.1373 140.852 95.1373 140.213C95.1373 139.651 95.248 139.195 95.4696 138.845C95.6912 138.491 95.9874 138.214 96.3581 138.014C96.7289 137.814 97.138 137.665 97.5854 137.567C98.0371 137.464 98.4909 137.384 98.9469 137.324C99.5435 137.247 100.027 137.19 100.398 137.151C100.773 137.109 101.046 137.038 101.216 136.94C101.391 136.842 101.478 136.672 101.478 136.429V136.378C101.478 135.747 101.306 135.257 100.96 134.908C100.619 134.558 100.102 134.384 99.4071 134.384C98.687 134.384 98.1223 134.541 97.7132 134.857C97.3042 135.172 97.0165 135.509 96.8503 135.866L95.4185 135.355C95.6742 134.759 96.0151 134.294 96.4412 133.962C96.8716 133.625 97.3404 133.391 97.8475 133.259C98.3588 133.122 98.8617 133.054 99.356 133.054C99.6713 133.054 100.034 133.092 100.443 133.169C100.856 133.241 101.254 133.393 101.638 133.623C102.026 133.853 102.347 134.2 102.603 134.665C102.859 135.129 102.987 135.751 102.987 136.531V143H101.478V141.67H101.401C101.299 141.884 101.129 142.112 100.89 142.354C100.651 142.597 100.334 142.804 99.9377 142.974C99.5414 143.145 99.0577 143.23 98.4867 143.23ZM98.7168 141.875C99.3134 141.875 99.8162 141.758 100.225 141.523C100.639 141.289 100.95 140.987 101.159 140.616C101.372 140.245 101.478 139.855 101.478 139.446V138.065C101.414 138.142 101.274 138.212 101.056 138.276C100.843 138.336 100.596 138.389 100.315 138.436C100.038 138.479 99.7672 138.517 99.503 138.551C99.2431 138.581 99.0321 138.607 98.8702 138.628C98.4782 138.679 98.1117 138.762 97.7708 138.877C97.4341 138.988 97.1614 139.156 96.9526 139.382C96.748 139.604 96.6458 139.906 96.6458 140.29C96.6458 140.814 96.8397 141.21 97.2275 141.479C97.6195 141.743 98.1159 141.875 98.7168 141.875Z" fill="#070709"/>
</svg>
