<svg width="28" height="28" viewBox="0 0 28 28" fill="none" xmlns="http://www.w3.org/2000/svg">
<rect x="0.5" y="0.5" width="27" height="27" rx="13.5" stroke="#F2F3F4"/>
<path d="M8 9.33317C8 9.15636 8.07024 8.98679 8.19526 8.86177C8.32029 8.73674 8.48986 8.6665 8.66667 8.6665H11.3333C12.0406 8.6665 12.7189 8.94746 13.219 9.44755C13.719 9.94765 14 10.6259 14 11.3332C14 10.6259 14.281 9.94765 14.781 9.44755C15.2811 8.94746 15.9594 8.6665 16.6667 8.6665H19.3333C19.5101 8.6665 19.6797 8.73674 19.8047 8.86177C19.9298 8.98679 20 9.15636 20 9.33317V17.9998C20 18.1766 19.9298 18.3462 19.8047 18.4712C19.6797 18.5963 19.5101 18.6665 19.3333 18.6665H15.7293C15.1858 18.9137 14.7122 19.2921 14.3513 19.7678C14.1853 19.9865 13.8147 19.9865 13.6487 19.7678C13.2878 19.2921 12.8142 18.9137 12.2707 18.6665H8.66667C8.48986 18.6665 8.32029 18.5963 8.19526 18.4712C8.07024 18.3462 8 18.1766 8 17.9998V9.33317ZM15.3333 11.3332V12.3332H18.6667V11.3332H15.3333ZM15.3333 13.6665V14.6665H17.3333V13.6665H15.3333Z" fill="#84888C"/>
</svg>
