<svg width="34" height="34" viewBox="0 0 34 34" fill="none" xmlns="http://www.w3.org/2000/svg">
<path d="M22.604 19.4907H11.3958C11.0826 19.4907 10.8291 19.2373 10.8291 18.9241V15.7056C10.8291 14.3454 11.9353 13.2391 13.295 13.2391H14.1953C14.3187 13.2391 14.4388 13.2795 14.5373 13.3537L16.9999 15.2169L19.4625 13.3537C19.561 13.2795 19.6811 13.2391 19.8045 13.2391H20.7048C22.0645 13.2391 23.1707 14.3454 23.1707 15.7056V18.9241C23.1707 19.2373 22.9173 19.4907 22.604 19.4907ZM13.6364 18.3574H22.0374V15.7056C22.0374 14.9707 21.4397 14.3725 20.7048 14.3725H19.9948L17.3419 16.3796C17.1394 16.5323 16.8604 16.5323 16.6579 16.3796L14.005 14.3725H13.295C12.5601 14.3725 11.9624 14.9707 11.9624 15.7056V18.3574H13.6364Z" fill="#525152"/>
<path d="M17.187 13.5353C15.2568 13.5353 13.6863 11.7385 13.6863 9.53046C13.6863 9.04569 13.7593 8.57531 13.9043 8.13261C13.9502 7.99149 14.0499 7.87362 14.1821 7.80556C14.8689 7.44973 15.3005 7.04686 15.5412 6.77128C15.6464 6.65119 15.7963 6.58091 15.9557 6.57759C16.099 6.56431 16.2678 6.63791 16.3779 6.75302C16.9933 7.39771 18.1538 8.23166 20.1847 8.541C20.442 8.57974 20.639 8.78892 20.6634 9.04791C20.6783 9.20562 20.6877 9.36666 20.6877 9.53046C20.6877 11.7385 19.1172 13.5353 17.187 13.5353ZM14.9209 8.69374C14.8539 8.96102 14.8196 9.24159 14.8196 9.53046C14.8196 11.1137 15.8816 12.402 17.187 12.402C18.4786 12.402 19.5317 11.1408 19.5538 9.58082C17.8544 9.24436 16.7144 8.56646 15.9806 7.9356C15.7122 8.17743 15.363 8.44361 14.9209 8.69374Z" fill="#525152"/>
<path d="M19.4369 12.2968C19.1237 12.2968 18.8702 12.0434 18.8702 11.7301C18.8702 11.4169 19.1237 11.1635 19.4369 11.1635C20.3085 11.1635 21.0174 10.4546 21.0174 9.583V8.5537C21.0174 7.47847 20.5996 6.46855 19.8409 5.70986C19.0816 4.95116 18.0717 4.53336 16.997 4.53336C14.7835 4.53336 12.9822 6.33684 12.9822 8.5537V9.583C12.9822 10.4546 13.6911 11.1635 14.5627 11.1635H14.9334C15.2467 11.1635 15.5001 11.4169 15.5001 11.7301C15.5001 12.0434 15.2467 12.2968 14.9334 12.2968H14.5627C13.0663 12.2968 11.8489 11.0794 11.8489 9.583V8.5537C11.8489 5.71207 14.1582 3.40002 16.997 3.40002C18.3744 3.40002 19.6688 3.9357 20.6422 4.90855C21.615 5.8814 22.1507 7.17577 22.1507 8.5537V9.583C22.1507 11.0794 20.9333 12.2968 19.4369 12.2968Z" fill="#525152"/>
<path d="M26.4407 30.6H22.723C22.4812 30.6 22.2659 30.4467 22.1873 30.2182L21.9411 29.5032H12.056L11.8097 30.2176C11.7311 30.4467 11.5159 30.6 11.274 30.6H7.56081C7.24759 30.6 6.99414 30.3466 6.99414 30.0333V18.9258C6.99414 18.6126 7.24759 18.3591 7.56081 18.3591H26.4407C26.7539 18.3591 27.0073 18.6126 27.0073 18.9258V30.0333C27.0073 30.3466 26.7539 30.6 26.4407 30.6ZM23.127 29.4667H25.874V19.4925H8.12747V29.4667H10.8695L11.1158 28.7523C11.1943 28.5232 11.4096 28.3699 11.6514 28.3699H22.3451C22.5869 28.3699 22.8021 28.5232 22.8807 28.7517L23.127 29.4667Z" fill="#D1AA67"/>
<path d="M27.4661 19.4925H6.53371C6.22049 19.4925 5.96704 19.239 5.96704 18.9258C5.96704 18.6126 6.22049 18.3591 6.53371 18.3591H27.4661C27.7793 18.3591 28.0327 18.6126 28.0327 18.9258C28.0327 19.239 27.7793 19.4925 27.4661 19.4925Z" fill="#D1AA67"/>
<path d="M16.9999 26.5249C15.5595 26.5249 14.3879 25.3533 14.3879 23.9129C14.3879 22.4724 15.5595 21.3009 16.9999 21.3009C18.4404 21.3009 19.6119 22.4724 19.6119 23.9129C19.6119 25.3533 18.4404 26.5249 16.9999 26.5249ZM16.9999 22.4342C16.1848 22.4342 15.5213 23.0977 15.5213 23.9129C15.5213 24.728 16.1848 25.3915 16.9999 25.3915C17.8151 25.3915 18.4786 24.728 18.4786 23.9129C18.4786 23.0977 17.8151 22.4342 16.9999 22.4342Z" fill="#070808"/>
</svg>
