<svg width="24" height="24" viewBox="0 0 24 24" fill="none" xmlns="http://www.w3.org/2000/svg">
<path d="M5 11.75C6.515 11.75 7.75 10.515 7.75 9C7.75 7.485 6.515 6.25 5 6.25C3.485 6.25 2.25 7.485 2.25 9C2.25 10.515 3.485 11.75 5 11.75ZM5 7.75C5.69 7.75 6.25 8.31 6.25 9C6.25 9.69 5.69 10.25 5 10.25C4.31 10.25 3.75 9.69 3.75 9C3.75 8.31 4.31 7.75 5 7.75Z" fill="#303236"/>
<path d="M2 17.75H8C8.415 17.75 8.75 17.415 8.75 17V15C8.75 13.485 7.515 12.25 6 12.25H4C2.485 12.25 1.25 13.485 1.25 15V17C1.25 17.415 1.585 17.75 2 17.75ZM2.75 15C2.75 14.31 3.31 13.75 4 13.75H6C6.69 13.75 7.25 14.31 7.25 15V16.25H2.75V15Z" fill="#303236"/>
<path d="M19 11.75C20.515 11.75 21.75 10.515 21.75 9C21.75 7.485 20.515 6.25 19 6.25C17.485 6.25 16.25 7.485 16.25 9C16.25 10.515 17.485 11.75 19 11.75ZM19 7.75C19.69 7.75 20.25 8.31 20.25 9C20.25 9.69 19.69 10.25 19 10.25C18.31 10.25 17.75 9.69 17.75 9C17.75 8.31 18.31 7.75 19 7.75Z" fill="#303236"/>
<path d="M16 17.75H22C22.415 17.75 22.75 17.415 22.75 17V15C22.75 13.485 21.515 12.25 20 12.25H18C16.485 12.25 15.25 13.485 15.25 15V17C15.25 17.415 15.585 17.75 16 17.75ZM16.75 15C16.75 14.31 17.31 13.75 18 13.75H20C20.69 13.75 21.25 14.31 21.25 15V16.25H16.75V15Z" fill="#303236"/>
<path d="M10 11.2502H14C14.26 11.2502 14.5 11.1152 14.64 10.8952C14.78 10.6752 14.79 10.4002 14.675 10.1652L13.675 8.16521C13.49 7.79521 13.04 7.64521 12.67 7.83021C12.3 8.01521 12.15 8.46521 12.335 8.83521L12.79 9.75021H10C9.585 9.75021 9.25 10.0852 9.25 10.5002C9.25 10.9152 9.585 11.2502 10 11.2502Z" fill="#303236"/>
<path d="M14.75 12.5C14.75 12.085 14.415 11.75 14 11.75H9.99996C9.73996 11.75 9.49996 11.885 9.35996 12.105C9.21996 12.325 9.20996 12.6 9.32496 12.835L10.325 14.835C10.455 15.1 10.72 15.25 10.995 15.25C11.11 15.25 11.22 15.225 11.33 15.17C11.7 14.985 11.85 14.535 11.665 14.165L11.21 13.25H14C14.415 13.25 14.75 12.915 14.75 12.5Z" fill="#303236"/>
</svg>
