<svg width="34" height="34" viewBox="0 0 34 34" fill="none" xmlns="http://www.w3.org/2000/svg">
<path d="M3.71924 14.6869C3.82992 14.7976 3.9749 14.8529 4.11989 14.8529C4.26488 14.8529 4.40986 14.7976 4.52054 14.6869L9.31452 9.8929L12.6542 13.2326C12.769 13.3474 12.9287 13.4088 13.0892 13.3975C13.251 13.3878 13.401 13.3089 13.5012 13.1811L18.247 7.11905L23.5631 11.9194C23.6799 12.0245 23.8323 12.0754 23.9925 12.0633C24.1494 12.0494 24.2936 11.9711 24.3901 11.8469L29.2971 5.54187L29.4719 6.80916C29.5111 7.09277 29.7538 7.29835 30.0324 7.29835C30.0584 7.29835 30.0845 7.29669 30.1107 7.29309C30.4206 7.2502 30.6373 6.96438 30.5947 6.65421L30.2419 4.09646C30.199 3.78629 29.9099 3.56881 29.603 3.61252L29.5983 3.61318C29.5804 3.61463 29.5637 3.61726 29.546 3.62038L27.045 3.96531C26.7351 4.0082 26.5184 4.29402 26.5611 4.60419C26.6039 4.91409 26.8925 5.13101 27.1999 5.08813L28.3361 4.93148L23.8702 10.6696L18.5555 5.87061C18.439 5.76547 18.2843 5.71401 18.1269 5.72673C17.9703 5.74001 17.8264 5.81804 17.7293 5.942L13.0031 11.9789L9.71517 8.69094C9.49382 8.46959 9.13522 8.46959 8.91387 8.69094L3.71924 13.8856C3.49788 14.1069 3.49788 14.4655 3.71924 14.6869Z" fill="#D1AA67"/>
<path d="M3.96657 30.3932H5.74598H8.88395H11.4807H14.6187H17.2107H20.3487H22.9455H26.0834H27.8629C28.1758 30.3932 28.4295 30.1394 28.4295 29.8265C28.4295 29.5135 28.1758 29.2598 27.8629 29.2598H26.6501V14.8095C26.6501 14.4966 26.3964 14.2429 26.0834 14.2429H22.9455C22.6325 14.2429 22.3788 14.4966 22.3788 14.8095V29.2598H20.9154V10.7934C20.9154 10.4804 20.6617 10.2267 20.3487 10.2267H17.2107C16.8978 10.2267 16.6441 10.4804 16.6441 10.7934V29.2598H15.1854V14.8095C15.1854 14.4966 14.9316 14.2429 14.6187 14.2429H11.4807C11.1678 14.2429 10.914 14.4966 10.914 14.8095V29.2598H9.45062V17.1501C9.45062 16.8372 9.19689 16.5834 8.88395 16.5834H5.74598C5.43304 16.5834 5.17931 16.8372 5.17931 17.1501V29.2598H3.96657C3.65363 29.2598 3.3999 29.5135 3.3999 29.8265C3.3999 30.1394 3.65363 30.3932 3.96657 30.3932ZM23.5121 15.3762H25.5168V29.2598H23.5121V15.3762ZM17.7774 11.36H19.782V29.2598H17.7774V11.36ZM12.0474 15.3762H14.052V29.2598H12.0474V15.3762ZM6.31265 17.7168H8.31729V29.2598H6.31265V17.7168Z" fill="#231F20"/>
</svg>
