<svg width="161" height="160" viewBox="0 0 161 160" fill="none" xmlns="http://www.w3.org/2000/svg">
<path d="M146.346 135.915L114.788 117.968L123.854 112.735C124.834 112.198 125.324 111.171 125.324 110.193C125.324 109.215 124.834 108.237 123.854 107.65L75.0467 79.5313C72.9397 78.3086 70.2935 78.3086 68.1858 79.5313L19.3297 107.65C18.3496 108.188 17.8596 109.215 17.8596 110.193C17.8596 111.171 18.3496 112.149 19.3297 112.735L33.0506 120.609L68.1858 140.854C70.2935 142.077 72.9397 142.077 75.0467 140.854L87.8365 133.47L119.395 151.417C120.718 152.199 122.727 152.249 123.903 151.613L145.513 139.143L146.738 138.458C147.278 138.165 147.523 137.773 147.523 137.333C147.425 136.844 147.082 136.355 146.346 135.915Z" fill="black"/>
<path d="M127.535 84.48C127.535 85.4853 127.032 86.5407 126.025 87.0933L111.923 95.1853L75.8137 115.992C73.6485 117.248 70.9289 117.248 68.7631 115.992L32.6537 95.1853L18.5524 87.0933C17.5451 86.5407 17.0415 85.4853 17.0415 84.48C17.0415 83.4753 17.5451 82.47 18.5524 81.8667L68.713 52.9687C70.8781 51.7123 73.5977 51.7123 75.7636 52.9687L125.924 81.8667C127.032 82.42 127.535 83.4753 127.535 84.48Z" fill="#D1AA67" stroke="black" stroke-width="0.672" stroke-miterlimit="10" stroke-linecap="round" stroke-linejoin="round"/>
<path d="M118.975 78.1279V83.9966C118.975 84.9546 118.495 85.9133 117.535 86.4526L76.9533 109.817C74.3119 111.314 71.0698 111.314 68.4284 109.817L27.8473 86.4526C26.8868 85.9133 26.4066 84.9546 26.4066 83.9966V78.1279C26.4066 79.0866 26.8868 80.0446 27.8473 80.5839L68.4284 103.948C71.0698 105.445 74.3119 105.445 76.9533 103.948L117.535 80.5839C118.495 80.0446 118.916 79.0866 118.975 78.1279Z" fill="#494949" stroke="black" stroke-width="0.672" stroke-miterlimit="10" stroke-linecap="round" stroke-linejoin="round"/>
<path d="M118.916 78.128C118.916 79.0867 118.435 80.0447 117.535 80.584L76.9533 103.948C74.3119 105.445 71.0698 105.445 68.4284 103.948L27.8473 80.584C26.8868 80.0447 26.4066 79.0867 26.4066 78.128C26.4066 77.1694 26.8868 76.2107 27.8473 75.672L68.4284 52.3078C71.0698 50.8102 74.3119 50.8102 76.9533 52.3078L117.535 75.672C118.495 76.2107 118.916 77.1694 118.916 78.128Z" fill="#E1E1E1" stroke="black" stroke-width="0.672" stroke-miterlimit="10" stroke-linecap="round" stroke-linejoin="round"/>
<path d="M33.1726 88.0625C33.7522 87.8165 33.8748 86.8025 33.4464 85.7979C33.0179 84.7932 32.2007 84.1779 31.621 84.4245C31.0413 84.6705 30.9188 85.6845 31.3472 86.6892C31.7757 87.6939 32.5929 88.3085 33.1726 88.0625Z" fill="black"/>
<path d="M38.817 91.2847C39.3967 91.038 39.5193 90.024 39.0909 89.0193C38.6624 88.0147 37.8452 87.4 37.2655 87.646C36.6858 87.892 36.5632 88.906 36.9917 89.9107C37.4201 90.916 38.2374 91.5307 38.817 91.2847Z" fill="black"/>
<path d="M44.4029 94.5308C44.9825 94.2848 45.1051 93.2701 44.6766 92.2654C44.2482 91.2608 43.431 90.6461 42.8513 90.8921C42.2716 91.1381 42.1491 92.1528 42.5775 93.1574C43.006 94.1621 43.8232 94.7768 44.4029 94.5308Z" fill="black"/>
<path d="M96.8859 83.0413C95.7008 85.1973 93.6098 87.2147 90.6129 88.9533C80.7151 94.6567 64.6149 94.6567 54.6478 88.9533C51.6507 87.2147 49.5598 85.1973 48.3749 83.0413C45.5869 77.9633 47.6779 72.26 54.6478 68.226C64.5452 62.5223 80.6456 62.5223 90.6129 68.226C97.6522 72.26 99.6737 77.9633 96.8859 83.0413Z" fill="#DCDCDC" stroke="black" stroke-width="0.672" stroke-miterlimit="10" stroke-linecap="round" stroke-linejoin="round"/>
<path d="M96.8866 83.0415C95.7022 85.1975 93.6112 87.2149 90.6136 88.9535C80.7165 94.6575 64.6159 94.6575 54.6488 88.9535C51.6518 87.2149 49.5608 85.1975 48.3759 83.0415C49.5608 80.8855 51.6518 78.8682 54.6488 77.1296C64.5462 71.4262 80.647 71.4262 90.6136 77.1296C93.6807 78.7989 95.7022 80.8855 96.8866 83.0415Z" fill="black" stroke="black" stroke-width="0.672" stroke-miterlimit="10" stroke-linecap="round" stroke-linejoin="round"/>
<path d="M127.535 84.4805V99.9358C127.535 100.941 127.031 101.946 126.024 102.549L75.8631 131.447C73.6979 132.704 70.9783 132.704 68.8125 131.447L18.6522 102.549C17.6449 101.946 17.1413 100.941 17.1413 99.9358V84.4805C17.1413 85.4851 17.6449 86.4905 18.6522 87.0938L32.7535 95.1851L68.8633 115.992C71.0284 117.248 73.748 117.248 75.9138 115.992L112.023 95.1851L126.124 87.0938C127.031 86.4905 127.535 85.4851 127.535 84.4805Z" fill="#494949" stroke="black" stroke-width="0.672" stroke-miterlimit="10" stroke-linecap="round" stroke-linejoin="round"/>
<path d="M116.657 105.721L85.5832 123.562C84.9793 123.914 84.2237 123.462 84.2237 122.758V115.54C84.2237 114.686 84.6766 113.881 85.4322 113.429L116.505 95.588C117.11 95.236 117.865 95.688 117.865 96.392V103.66C117.865 104.515 117.412 105.319 116.657 105.721Z" fill="black" stroke="#E1E1E1" stroke-width="0.672" stroke-miterlimit="10" stroke-linecap="round" stroke-linejoin="round"/>
<path d="M150.213 123.032C150.213 123.484 149.961 123.887 149.407 124.188L148.148 124.891L125.939 137.707C124.78 138.411 122.715 138.31 121.305 137.506L89.9803 119.464L89.0737 118.961C88.3182 118.509 87.9655 117.956 87.9655 117.453C87.9655 117.001 88.2173 116.599 88.7711 116.297L112.19 102.778C113.398 102.075 115.463 102.175 116.823 102.979L149.055 121.575C149.81 121.977 150.213 122.529 150.213 123.032Z" fill="#E1E1E1" stroke="black" stroke-width="0.672" stroke-miterlimit="10" stroke-linecap="round" stroke-linejoin="round"/>
<mask id="mask0_1_5947" style="mask-type:luminance" maskUnits="userSpaceOnUse" x="100" y="100" width="37" height="31">
<path d="M136.189 100.145H100.18V130.4H136.189V100.145Z" fill="white"/>
</mask>
<g mask="url(#mask0_1_5947)">
<path d="M134.929 119.92C135.08 120.197 135.13 120.498 135.13 120.775C135.13 121.001 135.08 121.227 135.004 121.453C134.879 121.78 134.652 122.081 134.349 122.383C134.173 122.559 133.972 122.735 133.72 122.885C132.033 124.067 130.069 124.493 127.828 124.192C127.652 124.167 127.45 124.142 127.249 124.091C127.35 124.167 127.425 124.267 127.501 124.343C128.105 124.971 128.432 125.599 128.483 126.203V126.554C128.483 126.629 128.457 126.68 128.457 126.755C128.382 127.031 128.256 127.333 128.029 127.609C127.929 127.71 127.828 127.836 127.702 127.936C127.223 128.389 126.543 128.816 125.662 129.243C124.806 129.645 123.925 129.947 123.043 130.123C122.162 130.299 121.306 130.374 120.5 130.349C119.669 130.323 118.813 130.198 117.907 129.972C117 129.745 116.144 129.469 115.313 129.143C114.583 128.841 113.777 128.464 112.946 128.037C112.769 127.936 112.543 127.936 112.367 128.037L109.647 129.595L108.716 130.123C108.539 130.223 108.288 130.223 108.111 130.123L106.776 129.343C106.374 129.117 106.374 128.514 106.776 128.288L108.036 127.559L109.143 126.931C109.546 126.705 109.546 126.102 109.143 125.876C108.841 125.7 108.589 125.549 108.363 125.398C108.161 125.273 107.935 125.273 107.734 125.398L105.14 126.881L104.158 127.459C103.981 127.559 103.729 127.559 103.553 127.459L102.118 126.78C101.715 126.554 101.715 125.951 102.118 125.725L102.521 125.499L104.536 124.343C104.939 124.117 104.939 123.513 104.536 123.287C104.309 123.162 104.032 122.986 103.755 122.835C102.975 122.383 102.068 121.855 101.388 121.478C100.96 121.227 100.985 120.573 101.463 120.397L103.604 119.518C103.78 119.443 103.981 119.468 104.132 119.543L105.719 120.448C106.273 120.749 106.852 120.775 107.482 120.523C107.507 120.523 107.532 120.498 107.582 120.473L117.201 114.919L119.014 113.864C119.266 113.638 119.417 113.412 119.393 113.211C119.393 112.935 119.141 112.658 118.662 112.381L117.73 111.829C117.328 111.603 117.328 110.999 117.73 110.773L119.241 109.894C119.443 109.793 119.669 109.793 119.845 109.894C120.752 110.421 123.446 111.979 124.378 112.507C124.555 112.607 124.806 112.607 124.982 112.507L128.558 110.447C128.735 110.346 128.986 110.346 129.163 110.447L130.497 111.225C130.9 111.452 130.9 112.055 130.497 112.281L127.299 114.115C127.425 114.191 127.576 114.266 127.702 114.341C128.256 114.643 128.709 114.895 129.062 115.095C129.263 115.196 129.49 115.196 129.666 115.095L130.497 114.618L131.429 114.09L133.141 113.085C133.343 112.985 133.569 112.985 133.746 113.085L135.08 113.864C135.483 114.09 135.483 114.693 135.08 114.919L131.806 116.804C131.932 116.879 132.033 116.955 132.159 117.055C132.788 117.508 133.343 117.96 133.77 118.362C133.922 118.513 134.073 118.664 134.199 118.815C134.526 119.217 134.778 119.569 134.929 119.92Z" fill="black"/>
<path d="M119.417 103.786C119.417 104.012 119.29 104.214 119.038 104.44L117.225 105.495L116.848 105.269V101.876L118.686 102.932C119.165 103.208 119.391 103.485 119.417 103.786Z" fill="#A9E8A1"/>
<path d="M105.441 114.341L102.52 116.049C101.362 115.396 100.329 114.768 100.329 114.768V111.375C100.329 111.375 102.268 112.507 103.753 113.361C104.66 113.889 105.39 114.316 105.441 114.341Z" fill="#A9E8A1"/>
<path d="M103.779 118.261V121.653L101.21 120.196V116.803L103.779 118.261Z" fill="#A9E8A1"/>
<path d="M108.362 120.925V124.317L105.794 122.835V119.442L106.725 119.97L108.362 120.925Z" fill="#A9E8A1"/>
<path d="M128.783 109.969C128.809 110.195 128.733 110.421 128.582 110.672C128.431 110.923 128.179 111.149 127.827 111.351C127.676 111.451 127.499 111.527 127.348 111.577C127.223 111.476 127.071 111.375 126.92 111.275C126.543 111.024 126.24 110.823 125.989 110.697C125.737 110.571 125.434 110.395 125.082 110.195C124.73 109.993 124.503 109.868 124.428 109.817L124.377 106.451L124.428 106.425C124.478 106.451 124.579 106.526 124.755 106.626C124.855 106.677 124.956 106.727 125.082 106.802C125.46 107.003 125.762 107.179 125.989 107.305C126.24 107.431 126.543 107.631 126.92 107.883C127.298 108.134 127.6 108.36 127.801 108.561C128.028 108.762 128.229 108.989 128.431 109.24C128.658 109.516 128.759 109.767 128.783 109.969Z" fill="#A9E8A1"/>
<path d="M124.402 109.842L122.337 111.024C122.085 110.923 121.808 110.798 121.506 110.622C121.129 110.42 120.826 110.27 120.65 110.169C120.449 110.068 120.197 109.918 119.869 109.717C119.542 109.516 119.366 109.415 119.316 109.39L124.377 106.475L124.402 109.842Z" fill="#A9E8A1"/>
<path d="M116.747 110.848V114.24L114.128 115.748C113.927 115.647 113.7 115.522 113.448 115.396C113.045 115.195 112.743 115.019 112.542 114.894C112.341 114.768 112.063 114.617 111.761 114.416C111.434 114.215 111.258 114.115 111.157 114.065L116.747 110.848Z" fill="#A9E8A1"/>
<path d="M121.884 115.849C121.733 116.125 121.456 116.376 121.078 116.603C120.978 116.653 120.877 116.703 120.776 116.753C120.524 116.527 120.171 116.276 119.744 115.999C119.29 115.698 118.913 115.471 118.636 115.321C118.358 115.17 118.006 114.944 117.553 114.718C117.1 114.467 116.848 114.316 116.747 114.265V110.848C116.848 110.898 117.1 111.049 117.553 111.3C118.006 111.551 118.358 111.753 118.636 111.903C118.913 112.054 119.24 112.28 119.668 112.557C119.693 112.582 119.718 112.582 119.744 112.607C120.197 112.909 120.55 113.185 120.826 113.411C121.028 113.562 121.204 113.763 121.381 113.964C121.456 114.039 121.532 114.14 121.607 114.215C121.859 114.517 122.01 114.793 122.06 115.045C122.085 115.296 122.035 115.572 121.884 115.849Z" fill="#A9E8A1"/>
<path d="M136.036 104.968V108.36L134.223 109.39C134.097 109.24 133.946 109.088 133.794 108.938C133.367 108.51 132.838 108.084 132.183 107.631C132.082 107.556 131.957 107.48 131.83 107.38L136.036 104.968Z" fill="#A9E8A1"/>
<path d="M131.453 102.329V104.666L130.521 105.194L129.388 105.847C129.01 105.621 128.456 105.319 127.726 104.917C127.6 104.842 127.474 104.766 127.348 104.691L131.453 102.329Z" fill="#A9E8A1"/>
<path d="M135.154 111.3V114.692C135.154 114.918 135.104 115.144 135.028 115.371C134.827 115.874 134.399 116.351 133.744 116.828C132.233 117.884 130.496 118.361 128.507 118.21V116.778C128.481 116.175 128.154 115.572 127.525 114.918C127.449 114.843 127.348 114.742 127.273 114.667C127.474 114.692 127.65 114.742 127.852 114.768C130.118 115.069 132.082 114.642 133.744 113.461C133.996 113.285 134.198 113.109 134.374 112.958C134.701 112.657 134.903 112.356 135.028 112.029C135.104 111.752 135.154 111.526 135.154 111.3Z" fill="#A9E8A1"/>
<path d="M128.481 117.105V120.497C128.481 120.573 128.456 120.623 128.456 120.699C128.255 121.553 127.323 122.382 125.636 123.186C124.78 123.588 123.898 123.89 123.017 124.066C122.135 124.241 121.28 124.317 120.449 124.292C119.618 124.267 118.762 124.141 117.855 123.915C116.949 123.689 116.092 123.413 115.261 123.086C114.43 122.759 113.549 122.332 112.592 121.829L108.362 124.267V120.925L109.596 120.221L112.592 118.487C113.549 118.99 114.43 119.417 115.261 119.743C116.092 120.07 116.949 120.347 117.855 120.573C118.762 120.799 119.618 120.925 120.449 120.95C121.28 120.975 122.111 120.899 123.017 120.723C123.898 120.548 124.78 120.246 125.636 119.844C126.517 119.417 127.197 118.99 127.676 118.537C127.801 118.437 127.902 118.311 128.003 118.211C128.229 117.934 128.38 117.658 128.431 117.356C128.456 117.256 128.481 117.181 128.481 117.105Z" fill="#A9E8A1"/>
<path d="M109.974 117.029L107.959 118.185L105.794 119.442V120.497L103.753 121.679V118.261L105.063 117.507L107.959 115.849C108.412 116.125 109.092 116.527 109.974 117.029Z" fill="#A9E8A1"/>
<path d="M108.362 120.924V124.316L105.794 122.834V119.442M108.362 120.924L106.725 119.97L105.794 119.442M108.362 120.924V124.266L112.592 121.829C113.549 122.332 114.43 122.759 115.261 123.086C116.092 123.412 116.949 123.688 117.855 123.914C118.762 124.141 119.618 124.266 120.449 124.292C121.28 124.316 122.136 124.241 123.017 124.066C123.898 123.89 124.78 123.588 125.636 123.186C127.323 122.382 128.255 121.552 128.456 120.698C128.456 120.623 128.481 120.572 128.481 120.497V117.105C128.481 117.18 128.456 117.256 128.431 117.356C128.38 117.658 128.229 117.934 128.003 118.21C127.902 118.311 127.801 118.436 127.676 118.537C127.197 118.99 126.517 119.416 125.636 119.844C124.78 120.246 123.898 120.548 123.017 120.723C122.111 120.899 121.28 120.974 120.449 120.95C119.618 120.924 118.762 120.798 117.855 120.572C116.949 120.346 116.092 120.07 115.261 119.743C114.43 119.416 113.549 118.99 112.592 118.487L109.596 120.22L108.362 120.924ZM105.794 119.442L107.959 118.185L109.974 117.029C109.092 116.527 108.412 116.124 107.959 115.848L105.063 117.507L103.753 118.26V121.678L105.794 120.497V119.442ZM116.747 110.848V114.24L114.128 115.748C113.927 115.647 113.7 115.522 113.448 115.396C113.045 115.195 112.743 115.019 112.542 114.894C112.341 114.768 112.063 114.617 111.761 114.416C111.434 114.215 111.258 114.114 111.157 114.064L116.747 110.848ZM116.747 110.848V114.265C116.848 114.316 117.1 114.466 117.553 114.718C118.006 114.944 118.358 115.17 118.636 115.32C118.913 115.471 119.29 115.698 119.744 115.999C120.171 116.276 120.524 116.527 120.776 116.753C120.877 116.702 120.978 116.652 121.078 116.602C121.456 116.376 121.733 116.124 121.884 115.848C122.035 115.572 122.085 115.296 122.06 115.044C122.01 114.793 121.859 114.516 121.607 114.215C121.532 114.14 121.456 114.039 121.381 113.964C121.204 113.762 121.028 113.562 120.826 113.411C120.55 113.184 120.197 112.908 119.744 112.606C119.719 112.582 119.693 112.582 119.668 112.556C119.24 112.28 118.913 112.054 118.636 111.903C118.358 111.752 118.006 111.551 117.553 111.3C117.1 111.048 116.848 110.898 116.747 110.848ZM119.417 103.786C119.417 104.012 119.29 104.214 119.038 104.44L117.225 105.495L116.848 105.269V101.876L118.686 102.932C119.165 103.208 119.391 103.485 119.417 103.786ZM105.441 114.34L102.52 116.049C101.362 115.396 100.329 114.768 100.329 114.768V111.375C100.329 111.375 102.268 112.506 103.753 113.36C104.66 113.888 105.39 114.316 105.441 114.34ZM103.779 118.26V121.653L101.21 120.196V116.803L103.779 118.26ZM128.783 109.968C128.809 110.194 128.733 110.42 128.582 110.672C128.431 110.923 128.179 111.149 127.827 111.35C127.676 111.451 127.499 111.526 127.348 111.576C127.223 111.476 127.071 111.375 126.92 111.275C126.543 111.024 126.24 110.822 125.989 110.697C125.737 110.571 125.434 110.395 125.082 110.194C124.73 109.993 124.503 109.868 124.428 109.817L124.377 106.45L124.428 106.425C124.478 106.45 124.579 106.526 124.755 106.626C124.855 106.676 124.956 106.726 125.082 106.802C125.46 107.003 125.762 107.179 125.989 107.304C126.24 107.43 126.543 107.631 126.92 107.882C127.298 108.134 127.6 108.36 127.801 108.561C128.028 108.762 128.229 108.988 128.431 109.24C128.658 109.516 128.759 109.767 128.783 109.968ZM124.402 109.842L122.337 111.024C122.085 110.923 121.808 110.798 121.506 110.622C121.129 110.42 120.826 110.27 120.65 110.169C120.449 110.068 120.197 109.918 119.869 109.717C119.542 109.516 119.366 109.415 119.316 109.39L124.377 106.475L124.402 109.842ZM136.036 104.968V108.36L134.223 109.39C134.097 109.24 133.946 109.088 133.794 108.938C133.367 108.51 132.838 108.084 132.183 107.631C132.082 107.556 131.957 107.48 131.83 107.38L136.036 104.968ZM131.453 102.329V104.666L130.521 105.194L129.388 105.847C129.01 105.621 128.456 105.319 127.726 104.917C127.6 104.842 127.474 104.766 127.348 104.691L131.453 102.329ZM135.154 111.3V114.692C135.154 114.918 135.104 115.144 135.028 115.371C134.827 115.874 134.399 116.351 133.744 116.828C132.233 117.884 130.496 118.361 128.507 118.21V116.778C128.481 116.175 128.154 115.572 127.525 114.918C127.449 114.843 127.348 114.742 127.273 114.667C127.474 114.692 127.65 114.742 127.852 114.768C130.118 115.069 132.082 114.642 133.744 113.461C133.996 113.285 134.198 113.109 134.374 112.958C134.701 112.657 134.903 112.356 135.028 112.029C135.104 111.752 135.154 111.526 135.154 111.3Z" stroke="black" stroke-width="0.672" stroke-miterlimit="10" stroke-linecap="round" stroke-linejoin="round"/>
<path d="M134.248 109.391C134.122 109.24 133.971 109.089 133.82 108.938C133.391 108.511 132.863 108.084 132.208 107.631C132.107 107.556 131.982 107.481 131.856 107.38L136.061 104.968L133.492 103.485L131.478 104.667L130.546 105.194L129.413 105.847C129.035 105.621 128.481 105.32 127.751 104.917C127.626 104.842 127.499 104.767 127.374 104.691L131.478 102.329L128.884 100.847L124.704 103.259C124.327 103.058 119.568 100.294 119.568 100.294L116.848 101.877L118.686 102.933C119.165 103.209 119.417 103.485 119.417 103.762C119.417 103.988 119.29 104.189 119.038 104.415L117.225 105.471L107.556 111.049C106.901 111.325 106.297 111.301 105.743 110.974L103.905 109.918L100.329 111.376C100.329 111.376 102.268 112.507 103.753 113.361C104.635 113.863 105.365 114.291 105.441 114.341L102.52 116.05L101.21 116.803L103.779 118.286L105.088 117.532L107.984 115.874C108.437 116.15 109.117 116.552 109.998 117.055L107.984 118.211L105.818 119.467L106.725 119.995L108.387 120.95L109.621 120.246L112.617 118.513C113.574 119.015 114.456 119.442 115.287 119.769C116.118 120.095 116.973 120.372 117.88 120.598C118.787 120.824 119.643 120.95 120.474 120.975C121.305 121 122.136 120.925 123.042 120.749C123.924 120.573 124.805 120.271 125.661 119.869C126.543 119.442 127.223 119.015 127.701 118.563C127.827 118.462 127.928 118.337 128.028 118.236C128.255 117.959 128.406 117.683 128.456 117.381C128.481 117.306 128.481 117.256 128.481 117.181V116.829C128.456 116.225 128.129 115.623 127.499 114.969C127.424 114.894 127.323 114.793 127.247 114.718C127.449 114.743 127.626 114.793 127.827 114.819C130.093 115.12 132.057 114.693 133.719 113.512C133.971 113.336 134.172 113.16 134.349 113.009C134.676 112.707 134.877 112.406 135.003 112.079C135.104 111.853 135.129 111.627 135.129 111.401C135.129 111.125 135.054 110.823 134.928 110.547C134.776 110.094 134.55 109.743 134.248 109.391ZM121.884 115.849C121.733 116.125 121.456 116.377 121.078 116.603C120.978 116.653 120.877 116.703 120.776 116.753C120.55 116.854 120.323 116.929 120.071 117.005C119.719 117.08 119.341 117.13 118.988 117.155C118.636 117.181 118.258 117.13 117.83 117.055C117.402 116.979 117.024 116.904 116.697 116.803C116.344 116.703 115.967 116.577 115.539 116.401C115.11 116.225 114.733 116.075 114.456 115.924C114.355 115.874 114.229 115.823 114.103 115.748C113.902 115.647 113.675 115.522 113.423 115.397C113.021 115.195 112.718 115.019 112.517 114.894C112.315 114.768 112.038 114.617 111.736 114.417C111.409 114.215 111.232 114.115 111.132 114.065L116.747 110.823C116.848 110.873 117.1 111.024 117.553 111.275C118.006 111.527 118.358 111.727 118.636 111.879C118.913 112.029 119.24 112.255 119.668 112.532C119.693 112.557 119.719 112.557 119.744 112.582C120.197 112.883 120.55 113.16 120.826 113.386C121.028 113.537 121.204 113.738 121.381 113.939C121.456 114.014 121.532 114.115 121.607 114.19C121.859 114.492 122.01 114.768 122.06 115.019C122.085 115.296 122.035 115.572 121.884 115.849ZM128.582 110.672C128.431 110.923 128.179 111.149 127.827 111.351C127.676 111.451 127.499 111.527 127.348 111.577C127.197 111.652 127.021 111.703 126.845 111.753C126.492 111.853 126.14 111.879 125.762 111.853C125.384 111.828 125.032 111.803 124.704 111.753C124.351 111.703 123.999 111.602 123.597 111.476C123.194 111.325 122.841 111.2 122.564 111.099C122.514 111.074 122.463 111.049 122.387 111.024C122.136 110.923 121.859 110.798 121.557 110.622C121.179 110.421 120.877 110.27 120.701 110.169C120.499 110.069 120.247 109.918 119.92 109.717C119.592 109.516 119.417 109.416 119.366 109.391L124.428 106.475L124.478 106.451C124.528 106.475 124.629 106.551 124.805 106.651C124.906 106.702 125.007 106.752 125.132 106.827C125.51 107.029 125.812 107.205 126.039 107.33C126.291 107.455 126.593 107.657 126.971 107.908C127.348 108.159 127.65 108.385 127.852 108.587C128.078 108.787 128.28 109.013 128.481 109.265C128.683 109.516 128.809 109.767 128.809 109.994C128.783 110.195 128.733 110.446 128.582 110.672Z" fill="white" stroke="black" stroke-width="0.672" stroke-miterlimit="10" stroke-linecap="round" stroke-linejoin="round"/>
</g>
<path d="M150.213 123.033V125.105C150.213 125.557 149.961 125.959 149.407 126.261L125.939 139.781C124.78 140.484 122.715 140.383 121.305 139.579L89.0737 120.984C88.3182 120.532 87.9655 119.979 87.9655 119.477V117.454C87.9655 117.957 88.3683 118.509 89.0737 118.962L89.9803 119.465L121.305 137.507C122.665 138.311 124.73 138.361 125.939 137.708L148.148 124.892L149.407 124.189C149.961 123.887 150.213 123.485 150.213 123.033Z" fill="#494949" stroke="black" stroke-width="0.672" stroke-miterlimit="10" stroke-linecap="round" stroke-linejoin="round"/>
<path d="M91.0672 76.7587L82.283 82.8967L82.281 82.898C79.7378 84.6747 76.0194 84.6187 71.8407 82.2113L63.9948 77.6907C60.0833 75.4373 56.5257 71.5547 53.9456 67.086C51.3654 62.6174 49.7747 57.5837 49.7747 53.0405V25.2777C49.7747 21.0241 51.1666 18.0102 53.3939 16.4545L62.1628 10.3271C62.1637 10.3265 62.1645 10.3259 62.1654 10.3253L62.1803 10.3149C62.4975 10.0933 62.8322 9.90079 63.1831 9.73805C65.6342 8.60132 68.914 8.90459 72.5569 11.0033L80.4025 15.5237C81.3798 16.0866 82.3358 16.7521 83.2617 17.5039C89.7552 22.7769 94.6847 32.2498 94.6847 40.2094V67.972C94.6847 71.6767 93.6178 74.4367 91.8622 76.108C91.611 76.3467 91.3458 76.564 91.0672 76.7587ZM67.3448 29.5055C67.2753 29.4655 67.1898 29.4655 67.1203 29.5055C67.0508 29.5455 67.0081 29.6195 67.0081 29.6995V50.1755C67.0081 52.3232 67.7489 54.6837 68.9374 56.7644C70.1252 58.8449 71.7726 60.6668 73.6071 61.7238L77.0522 63.7089C77.1217 63.7489 77.2072 63.7489 77.2767 63.7089C77.3461 63.6689 77.3889 63.5949 77.3889 63.5149V43.0388C77.3889 40.8911 76.648 38.5306 75.4602 36.4499C74.2718 34.3695 72.625 32.5475 70.7906 31.4905L67.3448 29.5055Z" fill="#E1E1E1" stroke="black" stroke-width="0.672" stroke-linejoin="round"/>
<mask id="mask1_1_5947" style="mask-type:alpha" maskUnits="userSpaceOnUse" x="49" y="8" width="47" height="77">
<path d="M91.0592 76.7464L82.2743 82.8844L82.2723 82.8858C79.7351 84.6578 76.024 84.6044 71.8474 82.1984L64.002 77.6778C60.0931 75.4258 56.5372 71.5458 53.958 67.0784C51.3788 62.6116 49.789 57.5804 49.789 53.0403V25.2775C49.789 21.0266 51.18 18.0182 53.4021 16.466L62.171 10.3387C62.1718 10.3381 62.1728 10.3374 62.1736 10.3368L62.1886 10.3264C62.5051 10.1054 62.839 9.91323 63.1891 9.75089C65.6346 8.61676 68.9093 8.91823 72.5495 11.0155L80.3951 15.5358C81.3718 16.0984 82.3278 16.7634 83.253 17.5148C89.7431 22.7854 94.67 32.2544 94.67 40.2092V67.9718C94.67 71.6738 93.6038 74.4298 91.8521 76.0971C91.6016 76.3358 91.3371 76.5524 91.0592 76.7464ZM67.3521 29.4928C67.2779 29.4502 67.1871 29.4502 67.1129 29.4928C67.0394 29.5354 66.994 29.6141 66.994 29.6992V50.1753C66.994 52.3261 67.7356 54.689 68.9247 56.7713C70.1138 58.8533 71.7626 60.6774 73.5997 61.736L77.0455 63.7211C77.119 63.7636 77.2098 63.7636 77.284 63.7211C77.3581 63.6785 77.4036 63.5998 77.4036 63.5146V43.0386C77.4036 40.8878 76.6614 38.5249 75.4722 36.4426C74.2838 34.3605 72.635 32.5364 70.7972 31.4779L67.3521 29.4928Z" fill="#E1E1E1" stroke="black" stroke-width="0.715076" stroke-linejoin="round"/>
</mask>
<g mask="url(#mask1_1_5947)">
<path d="M109.628 32.3048L45.8394 76.5664L72.3315 114.588L136.12 70.3266L109.628 32.3048Z" fill="black"/>
<path d="M111.79 6.51481L48.002 50.7764L62.0949 71.0026L125.883 26.741L111.79 6.51481Z" fill="#D1AA67"/>
<path d="M91.0672 76.7587L82.283 82.8967L82.281 82.898C79.7378 84.6747 76.0194 84.6187 71.8407 82.2113L63.9948 77.6907C60.0833 75.4373 56.5257 71.5547 53.9456 67.086C51.3654 62.6174 49.7747 57.5837 49.7747 53.0405V25.2777C49.7747 21.0241 51.1666 18.0102 53.3939 16.4545L62.1628 10.3271C62.1637 10.3265 62.1645 10.3259 62.1654 10.3253L62.1803 10.3149C62.4975 10.0933 62.8322 9.90079 63.1831 9.73805C65.6342 8.60132 68.914 8.90459 72.5569 11.0033L80.4025 15.5237C81.3798 16.0866 82.3358 16.7521 83.2617 17.5039C89.7552 22.7769 94.6847 32.2498 94.6847 40.2094V67.972C94.6847 71.6767 93.6178 74.4367 91.8622 76.108C91.611 76.3467 91.3458 76.564 91.0672 76.7587ZM67.3448 29.5055C67.2753 29.4655 67.1898 29.4655 67.1203 29.5055C67.0508 29.5455 67.0081 29.6195 67.0081 29.6995V50.1755C67.0081 52.3233 67.7489 54.6837 68.9374 56.7644C70.1252 58.8449 71.7726 60.6668 73.6071 61.7238L77.0522 63.7089C77.1217 63.7489 77.2072 63.7489 77.2767 63.7089C77.3461 63.6689 77.3889 63.5949 77.3889 63.5149V43.0388C77.3889 40.8911 76.648 38.5306 75.4602 36.4499C74.2718 34.3695 72.625 32.5475 70.7906 31.4905L67.3448 29.5055Z" stroke="black" stroke-width="0.672" stroke-linejoin="round"/>
</g>
<path d="M49.7446 25.3888C49.7446 16.3288 56.0829 12.6782 63.8825 17.1719L71.7285 21.6923C79.5286 26.1867 85.9279 37.1773 85.9279 46.2361V73.9985C85.9279 83.0579 79.5286 86.6745 71.7285 82.1799L63.8825 77.6599C56.0829 73.1659 49.7446 62.2116 49.7446 53.1516V25.3888ZM70.6783 71.2025C74.372 73.3312 77.3588 71.5305 77.3588 67.2112V43.1499C77.3588 38.8303 74.372 33.5879 70.6783 31.4596L64.9327 28.1494C61.2387 26.0211 58.2517 27.8215 58.2517 32.1411V56.2021C58.2517 60.5217 61.2387 65.7641 64.9327 67.8925L70.6783 71.2025Z" fill="#E1E1E1" stroke="black" stroke-width="0.672"/>
<path opacity="0.9" d="M38.5146 132.389C46.7215 132.389 53.3749 125.749 53.3749 117.559C53.3749 109.369 46.7215 102.73 38.5146 102.73C30.3076 102.73 23.6548 109.369 23.6548 117.559C23.6548 125.749 30.3076 132.389 38.5146 132.389Z" fill="black"/>
<path d="M41.0303 103.042C33.8879 101.132 25.7162 105.569 22.8128 112.937C19.909 120.305 23.3618 127.851 30.5092 129.761C37.6565 131.671 45.8232 127.231 48.7241 119.866C51.6249 112.5 48.1721 104.951 41.0303 103.042Z" fill="#A9E8A1" stroke="black" stroke-width="0.672" stroke-linejoin="round"/>
<path d="M40.0394 104.833C34.2883 103.279 27.1687 106.911 24.8308 112.909C22.4926 118.908 24.3887 125.072 30.1439 126.626C35.8992 128.181 43.3593 124.547 45.6951 118.55C48.031 112.554 45.7902 106.388 40.0394 104.833Z" fill="white" stroke="black" stroke-width="0.672" stroke-linejoin="round"/>
<path fill-rule="evenodd" clip-rule="evenodd" d="M41.4501 115.474C42.1321 113.813 41.0552 112.565 39.4225 111.508L40.5779 109.316L39.2514 108.614L38.1264 110.749C37.7777 110.564 37.4175 110.382 37.0596 110.202L38.1923 108.053L36.8666 107.352L35.7109 109.544C35.4206 109.398 35.1357 109.254 34.8606 109.108L34.864 109.101L33.0348 108.132L32.2839 109.558C32.2839 109.558 33.2734 110.058 33.2475 110.067C33.7847 110.352 33.7942 110.758 33.7024 111.056L32.3861 113.554C32.4231 113.574 32.4706 113.601 32.5214 113.638L32.4764 113.614C32.4457 113.597 32.4138 113.58 32.3812 113.564L30.5367 117.063C30.4235 117.22 30.1811 117.439 29.8054 117.241C29.8144 117.265 28.8413 116.73 28.8413 116.73L27.7377 118.185L29.464 119.098C29.6567 119.201 29.8466 119.304 30.0345 119.406C30.1596 119.474 30.2839 119.541 30.4075 119.608L29.2394 121.826L30.5643 122.527L31.7206 120.333C32.0805 120.533 32.4311 120.722 32.7749 120.904L31.6234 123.088L32.9499 123.79L34.1169 121.576C36.4149 122.627 38.2737 122.888 39.578 120.883C40.6286 119.27 40.2343 118.092 39.1296 117.117C40.1063 117.13 40.953 116.69 41.4501 115.474ZM37.0948 119.233C36.2943 120.754 33.9378 119.464 32.8597 118.874C32.7627 118.822 32.676 118.774 32.6018 118.735L34.1505 115.796C34.2409 115.844 34.3521 115.9 34.478 115.963C35.6049 116.526 37.9143 117.678 37.0948 119.233ZM35.0767 114.57C35.9749 115.065 37.9342 116.144 38.663 114.762C39.4078 113.348 37.4805 112.393 36.5392 111.926C36.4333 111.874 36.3399 111.828 36.2643 111.788L34.8598 114.452C34.9222 114.486 34.995 114.526 35.0767 114.57Z" fill="#A9E8A1"/>
<path d="M39.4225 111.508L39.2238 111.404L39.1285 111.585L39.3003 111.696L39.4225 111.508ZM41.4502 115.473L41.2425 115.388L41.2423 115.389L41.4502 115.473ZM40.5779 109.315L40.7766 109.419L40.8808 109.222L40.6831 109.117L40.5779 109.315ZM39.2514 108.613L39.3566 108.415L39.1575 108.31L39.0527 108.509L39.2514 108.613ZM38.1264 110.749L38.0213 110.946L38.2203 111.051L38.3251 110.853L38.1264 110.749ZM37.0597 110.202L36.861 110.097L36.7547 110.299L36.9585 110.402L37.0597 110.202ZM38.1923 108.053L38.391 108.157L38.4952 107.959L38.2975 107.855L38.1923 108.053ZM36.8666 107.351L36.9717 107.153L36.7728 107.048L36.6679 107.247L36.8666 107.351ZM35.7109 109.543L35.6099 109.743L35.8068 109.842L35.9095 109.647L35.7109 109.543ZM34.8606 109.108L34.6594 109.009L34.5628 109.204L34.7556 109.306L34.8606 109.108ZM34.8641 109.101L35.0653 109.2L35.1618 109.005L34.9693 108.903L34.8641 109.101ZM33.0348 108.132L33.14 107.935L32.9409 107.829L32.8361 108.028L33.0348 108.132ZM32.2839 109.558L32.0852 109.454L31.9792 109.655L32.1826 109.758L32.2839 109.558ZM33.2476 110.067L33.1697 109.857L32.6995 110.031L33.1424 110.265L33.2476 110.067ZM33.7024 111.055L33.9011 111.16L33.9108 111.141L33.917 111.121L33.7024 111.055ZM32.3861 113.553L32.1874 113.449L32.0839 113.646L32.2799 113.751L32.3861 113.553ZM32.5215 113.637L32.4162 113.835L32.6527 113.455L32.5215 113.637ZM32.4764 113.613L32.3709 113.811L32.3716 113.811L32.4764 113.613ZM32.3812 113.563L32.4847 113.365L32.2865 113.262L32.1826 113.459L32.3812 113.563ZM30.5368 117.063L30.7192 117.193L30.7282 117.18L30.7354 117.167L30.5368 117.063ZM29.8054 117.241L29.9102 117.043L29.3895 116.768L29.5951 117.319L29.8054 117.241ZM28.8413 116.73L28.9495 116.534L28.7795 116.441L28.6623 116.595L28.8413 116.73ZM27.7377 118.185L27.5588 118.049L27.3996 118.259L27.6326 118.383L27.7377 118.185ZM29.464 119.098L29.5694 118.901L29.5692 118.9L29.464 119.098ZM30.4075 119.607L30.6062 119.711L30.7096 119.515L30.5139 119.41L30.4075 119.607ZM29.2394 121.825L29.0407 121.721L28.9366 121.919L29.1342 122.023L29.2394 121.825ZM30.5643 122.527L30.4592 122.725L30.6582 122.83L30.763 122.631L30.5643 122.527ZM31.7207 120.333L31.8299 120.137L31.629 120.025L31.522 120.228L31.7207 120.333ZM32.7749 120.903L32.9736 121.008L33.0779 120.81L32.8799 120.705L32.7749 120.903ZM31.6234 123.087L31.4247 122.983L31.3205 123.181L31.5183 123.285L31.6234 123.087ZM32.95 123.789L32.8448 123.987L33.0437 124.092L33.1486 123.893L32.95 123.789ZM34.117 121.575L34.2105 121.372L34.0173 121.283L33.9184 121.471L34.117 121.575ZM39.1296 117.117L39.1326 116.893L38.5283 116.885L38.9808 117.284L39.1296 117.117ZM32.8597 118.874L32.7482 119.069L32.7518 119.071L32.8597 118.874ZM32.8597 118.874L32.9712 118.679L32.9676 118.678L32.8597 118.874ZM32.6018 118.735L32.4032 118.63L32.2989 118.828L32.4969 118.933L32.6018 118.735ZM34.1506 115.796L34.2558 115.599L34.0568 115.493L33.952 115.692L34.1506 115.796ZM36.2643 111.787L36.3694 111.589L36.1704 111.484L36.0656 111.683L36.2643 111.787ZM34.8598 114.452L34.6612 114.348L34.557 114.545L34.7547 114.65L34.8598 114.452ZM39.3003 111.696C40.1068 112.218 40.7497 112.771 41.1114 113.379C41.465 113.973 41.5556 114.626 41.2425 115.388L41.6578 115.558C42.0267 114.66 41.9198 113.859 41.4973 113.15C41.0829 112.454 40.3709 111.855 39.5446 111.32L39.3003 111.696ZM40.3793 109.211L39.2238 111.404L39.6212 111.612L40.7766 109.419L40.3793 109.211ZM39.1463 108.811L40.4728 109.513L40.6831 109.117L39.3566 108.415L39.1463 108.811ZM38.3251 110.853L39.4501 108.717L39.0527 108.509L37.9277 110.644L38.3251 110.853ZM36.9585 110.402C37.3166 110.582 37.6748 110.763 38.0213 110.946L38.2316 110.551C37.8805 110.365 37.5185 110.182 37.1608 110.002L36.9585 110.402ZM37.9937 107.949L36.861 110.097L37.2583 110.306L38.391 108.157L37.9937 107.949ZM36.7614 107.549L38.0872 108.251L38.2975 107.855L36.9717 107.153L36.7614 107.549ZM35.9095 109.647L37.0652 107.455L36.6679 107.247L35.5123 109.439L35.9095 109.647ZM34.7556 109.306C35.0329 109.453 35.3196 109.597 35.6099 109.743L35.8119 109.343C35.5216 109.197 35.2386 109.054 34.9657 108.91L34.7556 109.306ZM34.6628 109.002L34.6594 109.009L35.0619 109.207L35.0653 109.2L34.6628 109.002ZM32.9296 108.33L34.7588 109.299L34.9693 108.903L33.14 107.935L32.9296 108.33ZM32.4827 109.662L33.2335 108.237L32.8361 108.028L32.0852 109.454L32.4827 109.662ZM33.3254 110.277C33.3561 110.266 33.4068 110.239 33.4414 110.18C33.4775 110.119 33.476 110.058 33.4673 110.019C33.4537 109.956 33.4166 109.918 33.4132 109.914C33.395 109.894 33.376 109.881 33.3721 109.878C33.3578 109.867 33.3413 109.857 33.3282 109.85C33.2996 109.833 33.2599 109.811 33.2148 109.787C33.1237 109.737 33.0009 109.673 32.8786 109.61C32.756 109.547 32.6327 109.483 32.5401 109.437C32.4937 109.413 32.4551 109.393 32.428 109.379C32.4144 109.373 32.4038 109.367 32.3965 109.364C32.3929 109.362 32.3901 109.361 32.3882 109.359C32.3872 109.359 32.3865 109.359 32.386 109.359C32.3858 109.358 32.3856 109.358 32.3855 109.358C32.3854 109.358 32.3855 109.358 32.3855 109.358C32.3855 109.358 32.3853 109.358 32.2839 109.558C32.1826 109.758 32.1826 109.758 32.1826 109.758C32.1831 109.759 32.1844 109.759 32.1854 109.759C32.1872 109.76 32.19 109.761 32.1936 109.763C32.2008 109.767 32.2114 109.772 32.2248 109.779C32.2517 109.793 32.2901 109.812 32.3362 109.836C32.4283 109.883 32.5508 109.945 32.6722 110.008C32.7941 110.071 32.9138 110.133 33.001 110.181C33.0451 110.204 33.0784 110.223 33.0989 110.235C33.1104 110.242 33.1126 110.243 33.11 110.241C33.1088 110.241 33.1059 110.239 33.1021 110.235C33.0991 110.233 33.0906 110.226 33.0809 110.215C33.0787 110.213 33.0423 110.176 33.0288 110.114C33.0202 110.075 33.0186 110.014 33.0546 109.953C33.089 109.895 33.1393 109.868 33.1697 109.857L33.3254 110.277ZM33.917 111.121C33.9712 110.945 34.0015 110.719 33.9239 110.486C33.8444 110.247 33.6625 110.033 33.3528 109.869L33.1424 110.265C33.3699 110.385 33.4613 110.517 33.4979 110.627C33.5363 110.743 33.5255 110.868 33.4879 110.99L33.917 111.121ZM32.5848 113.658L33.9011 111.16L33.5037 110.951L32.1874 113.449L32.5848 113.658ZM32.6527 113.455C32.5909 113.411 32.534 113.379 32.4923 113.356L32.2799 113.751C32.3122 113.768 32.3504 113.79 32.3902 113.819L32.6527 113.455ZM32.3716 113.811L32.4162 113.835L32.6267 113.439L32.5817 113.415L32.3716 113.811ZM32.3716 113.811L32.5817 113.415H32.5809L32.3716 113.811ZM32.2778 113.762C32.3092 113.778 32.34 113.795 32.3709 113.811L32.5817 113.415C32.5511 113.399 32.5184 113.382 32.4847 113.365L32.2778 113.762ZM30.7354 117.167L32.5799 113.667L32.1826 113.459L30.3381 116.958L30.7354 117.167ZM29.7006 117.439C29.943 117.567 30.1669 117.569 30.3544 117.492C30.5306 117.421 30.6499 117.289 30.7192 117.193L30.3543 116.932C30.3104 116.993 30.2518 117.05 30.1846 117.077C30.1286 117.101 30.0435 117.113 29.9102 117.043L29.7006 117.439ZM28.8413 116.73C28.733 116.927 28.733 116.927 28.733 116.927C28.7332 116.927 28.7335 116.927 28.7338 116.927C28.7342 116.927 28.735 116.927 28.7359 116.928C28.7377 116.929 28.7405 116.931 28.744 116.933C28.7512 116.937 28.7617 116.942 28.775 116.949C28.8017 116.964 28.8398 116.985 28.8855 117.01C28.9767 117.06 29.0984 117.126 29.22 117.191C29.3413 117.257 29.4633 117.322 29.5549 117.37C29.6003 117.393 29.6403 117.414 29.6696 117.428C29.6831 117.434 29.6994 117.442 29.7143 117.447C29.7183 117.449 29.7374 117.457 29.7608 117.461C29.7679 117.463 29.7801 117.465 29.7952 117.465C29.8076 117.466 29.8383 117.466 29.8749 117.455C29.9148 117.441 29.981 117.406 30.0137 117.325C30.0433 117.251 30.0253 117.188 30.0157 117.163L29.5951 117.319C29.5857 117.294 29.5677 117.231 29.5972 117.157C29.6297 117.077 29.6957 117.041 29.7354 117.029C29.7716 117.017 29.8018 117.017 29.8137 117.018C29.8283 117.018 29.8398 117.02 29.8461 117.021C29.8586 117.024 29.8677 117.027 29.8706 117.028C29.8745 117.029 29.8771 117.03 29.8779 117.031C29.8795 117.031 29.8757 117.029 29.8636 117.024C29.8413 117.013 29.8068 116.995 29.7622 116.973C29.6738 116.927 29.5543 116.863 29.4335 116.797C29.3128 116.733 29.1918 116.667 29.1009 116.617C29.0555 116.592 29.0176 116.571 28.9911 116.557C28.9779 116.549 28.9674 116.544 28.9604 116.54C28.9568 116.538 28.9541 116.537 28.9523 116.535C28.9513 116.535 28.9507 116.535 28.9502 116.535C28.95 116.534 28.9497 116.534 28.9495 116.534C28.9495 116.534 28.9495 116.534 28.8413 116.73ZM27.9167 118.32L29.0202 116.865L28.6623 116.595L27.5588 118.049L27.9167 118.32ZM29.5692 118.9L27.8428 117.987L27.6326 118.383L29.3589 119.296L29.5692 118.9ZM30.1419 119.209C29.9541 119.107 29.7632 119.003 29.5694 118.901L29.3589 119.296C29.5505 119.397 29.7392 119.5 29.9272 119.602L30.1419 119.209ZM30.5139 119.41C30.3909 119.344 30.2671 119.277 30.1419 119.209L29.9272 119.602C30.0523 119.67 30.1769 119.738 30.3011 119.805L30.5139 119.41ZM29.4381 121.929L30.6062 119.711L30.2088 119.503L29.0407 121.721L29.4381 121.929ZM30.6696 122.329L29.3446 121.627L29.1342 122.023L30.4592 122.725L30.6696 122.329ZM31.522 120.228L30.3657 122.423L30.763 122.631L31.9193 120.437L31.522 120.228ZM32.8799 120.705C32.5373 120.525 32.1882 120.336 31.8299 120.137L31.6114 120.528C31.9728 120.729 32.3248 120.919 32.67 121.101L32.8799 120.705ZM31.822 123.191L32.9736 121.008L32.5763 120.799L31.4247 122.983L31.822 123.191ZM33.0551 123.591L31.7285 122.889L31.5183 123.285L32.8448 123.987L33.0551 123.591ZM33.9184 121.471L32.7513 123.685L33.1486 123.893L34.3156 121.68L33.9184 121.471ZM39.3898 120.761C38.7721 121.71 38.043 122.102 37.2069 122.151C36.3495 122.202 35.3524 121.894 34.2105 121.372L34.0234 121.779C35.1795 122.308 36.2609 122.656 37.2334 122.599C38.2272 122.54 39.0796 122.06 39.7663 121.005L39.3898 120.761ZM38.9808 117.284C39.5115 117.753 39.8472 118.249 39.9408 118.798C40.0339 119.344 39.8947 119.985 39.3898 120.761L39.7663 121.005C40.312 120.167 40.5009 119.412 40.3833 118.723C40.2663 118.036 39.8524 117.456 39.2784 116.949L38.9808 117.284ZM41.2423 115.389C41.0073 115.964 40.6971 116.338 40.3462 116.569C39.9952 116.799 39.5858 116.899 39.1326 116.893L39.1266 117.341C39.6502 117.347 40.1525 117.233 40.5932 116.943C41.0342 116.653 41.3958 116.199 41.6578 115.558L41.2423 115.389ZM32.7518 119.071C33.2863 119.363 34.1701 119.848 35.0269 120.062C35.4558 120.169 35.8993 120.215 36.2993 120.119C36.7097 120.021 37.062 119.777 37.2936 119.337L36.8962 119.128C36.7275 119.448 36.4849 119.614 36.1947 119.683C35.894 119.755 35.5309 119.726 35.1359 119.627C34.3448 119.43 33.5112 118.975 32.9676 118.678L32.7518 119.071ZM32.4969 118.933C32.5693 118.971 32.6544 119.017 32.7518 119.071L32.9676 118.678C32.8711 118.625 32.7828 118.577 32.7068 118.537L32.4969 118.933ZM33.952 115.692L32.4032 118.63L32.8004 118.839L34.3493 115.901L33.952 115.692ZM34.5785 115.762C34.4517 115.699 34.3432 115.645 34.2558 115.599L34.0454 115.994C34.1387 116.043 34.2525 116.101 34.3776 116.163L34.5785 115.762ZM37.2936 119.337C37.5276 118.893 37.5415 118.464 37.4018 118.07C37.2655 117.685 36.9885 117.348 36.6664 117.059C36.0242 116.482 35.1366 116.041 34.5785 115.762L34.3776 116.163C34.9464 116.447 35.7769 116.863 36.3662 117.392C36.6599 117.655 36.8772 117.933 36.9786 118.219C37.0766 118.496 37.0719 118.795 36.8962 119.128L37.2936 119.337ZM38.4644 114.657C38.3105 114.949 38.1006 115.1 37.86 115.169C37.6103 115.24 37.3109 115.226 36.9836 115.151C36.3263 115.001 35.6392 114.624 35.1851 114.374L34.9683 114.767C35.4125 115.011 36.1542 115.421 36.8832 115.588C37.2493 115.671 37.6324 115.699 37.9832 115.599C38.343 115.497 38.6512 115.265 38.8617 114.866L38.4644 114.657ZM36.4394 112.127C36.9158 112.363 37.6018 112.705 38.0799 113.152C38.3174 113.374 38.4882 113.609 38.5632 113.853C38.6357 114.089 38.6245 114.353 38.4644 114.657L38.8617 114.866C39.0741 114.463 39.1013 114.077 38.9925 113.722C38.8861 113.375 38.6559 113.077 38.3869 112.825C37.8523 112.325 37.104 111.956 36.6391 111.725L36.4394 112.127ZM36.1591 111.985C36.238 112.027 36.3345 112.075 36.4394 112.127L36.6391 111.725C36.5323 111.673 36.4419 111.628 36.3694 111.589L36.1591 111.985ZM35.0585 114.557L36.4629 111.891L36.0656 111.683L34.6612 114.348L35.0585 114.557ZM35.1851 114.374C35.104 114.329 35.0293 114.288 34.965 114.254L34.7547 114.65C34.8151 114.682 34.8862 114.721 34.9683 114.767L35.1851 114.374Z" fill="black"/>
<path d="M24.2047 125.707C24.8629 126.419 25.5162 127.124 26.1956 127.826C27.6747 129.324 29.533 130.395 31.5727 130.925C38.7145 132.837 46.8862 128.398 49.7871 121.032C51.7326 116.098 50.825 111.082 47.8683 107.734C47.2649 107.017 46.6239 106.335 45.947 105.687C49.0337 109.032 50.0102 114.141 48.0304 119.165C45.1296 126.531 36.9574 130.969 29.8155 129.06C27.6631 128.499 25.7161 127.336 24.2047 125.707Z" fill="#A9E8A1" stroke="black" stroke-width="0.672" stroke-linejoin="round"/>
<mask id="mask2_1_5947" style="mask-type:alpha" maskUnits="userSpaceOnUse" x="23" y="105" width="29" height="27">
<path d="M24.2047 125.707C24.8629 126.419 25.5162 127.124 26.1956 127.826C27.6747 129.324 29.533 130.395 31.5727 130.925C38.7145 132.837 46.8862 128.398 49.7871 121.032C51.7326 116.098 50.825 111.082 47.8683 107.734C47.2649 107.017 46.6239 106.335 45.947 105.687C49.0337 109.032 50.0102 114.141 48.0304 119.165C45.1296 126.531 36.9574 130.969 29.8155 129.06C27.6631 128.499 25.7161 127.336 24.2047 125.707Z" fill="#789BCD" stroke="black" stroke-width="0.527705" stroke-linejoin="round"/>
</mask>
<g mask="url(#mask2_1_5947)">
<path d="M24.5571 126.24L36.8224 127.394L39.461 132.238L28.8708 135.584L24.5571 126.24Z" fill="black"/>
</g>
<path d="M34.0435 129.473L35.2005 131.321" stroke="black" stroke-width="0.672"/>
<path d="M37.5155 128.781L38.6726 130.86" stroke="black" stroke-width="0.672"/>
<path d="M40.7546 127.396L42.1431 129.474" stroke="black" stroke-width="0.672"/>
<path d="M43.7648 125.317L45.3847 127.395" stroke="black" stroke-width="0.672"/>
<path d="M45.8472 122.777L47.6985 125.086" stroke="black" stroke-width="0.672"/>
<path d="M47.4678 120.236L49.3191 122.546" stroke="black" stroke-width="0.672"/>
<path d="M48.6244 117.233L50.4758 119.543" stroke="black" stroke-width="0.672"/>
<path d="M49.0844 114L50.9357 116.31" stroke="black" stroke-width="0.672"/>
<path d="M48.6244 110.768L50.4758 113.078" stroke="black" stroke-width="0.672"/>
</svg>
