<svg width="161" height="160" viewBox="0 0 161 160" fill="none" xmlns="http://www.w3.org/2000/svg">
<mask id="mask0_1_8352" style="mask-type:alpha" maskUnits="userSpaceOnUse" x="115" y="36" width="24" height="19">
<path d="M129.294 53.6104C126.158 54.5528 123.048 54.4854 120.557 53.6226C118.066 52.7596 116.207 51.1068 115.535 48.8824C114.864 46.6581 115.5 44.2555 117.1 42.1635C118.699 40.0716 121.255 38.3018 124.392 37.3595C127.527 36.4171 130.638 36.4844 133.128 37.3474C135.619 38.2103 137.479 39.8631 138.15 42.0874C138.821 44.3118 138.185 46.7144 136.586 48.8064C134.987 50.8982 132.431 52.668 129.294 53.6104Z" fill="white" stroke="black" stroke-width="0.488512"/>
</mask>
<g mask="url(#mask0_1_8352)">
<path d="M128.028 39.3328L134.412 55.8242L144.415 51.9678L138.03 35.4764L128.028 39.3328Z" fill="black"/>
<path d="M120.868 43.5676L127.253 60.0591L137.255 56.2027L130.871 39.7112L120.868 43.5676Z" fill="#9EBBD1"/>
<path d="M118.553 53.6165L117.145 50.0306M120.419 54.4935L119.083 51.042M122.103 54.8373L120.944 51.5044M123.677 54.9393L122.659 51.769M125.205 54.8573L124.169 51.7535M126.675 54.6389L125.655 51.7053M128.123 54.3129L127.099 51.1868M129.512 53.8507L128.513 51.0396M130.864 53.2975L129.876 50.4097M132.516 52.7636L131.427 49.6228M134.047 51.9483L132.814 48.6098M135.433 50.9353L134.201 47.5969M136.674 49.7247L135.42 46.3578M137.334 48.1356L136.236 45.396" stroke="black" stroke-width="0.593429" stroke-miterlimit="10" stroke-linecap="round" stroke-linejoin="round"/>
<path d="M129.284 53.5766C126.154 54.5171 123.052 54.4494 120.569 53.5892C118.085 52.7288 116.236 51.083 115.569 48.872C114.902 46.6611 115.533 44.27 117.128 42.1844C118.722 40.099 121.271 38.3331 124.402 37.3926C127.531 36.4522 130.634 36.5198 133.117 37.38C135.601 38.2404 137.45 39.8862 138.117 42.0972C138.784 44.3081 138.153 46.6992 136.558 48.7848C134.963 50.8702 132.414 52.6361 129.284 53.5766Z" stroke="black" stroke-width="0.593429"/>
</g>
<path d="M128.634 51.4238C125.499 52.3659 122.428 52.4168 120.001 51.7473C117.571 51.0771 115.817 49.6958 115.243 47.7939C114.669 45.8919 115.368 43.7735 117.023 41.8759C118.676 39.9807 121.264 38.3311 124.4 37.3891C127.535 36.4469 130.606 36.3961 133.032 37.0655C135.462 37.7358 137.217 39.117 137.791 41.019C138.365 42.9209 137.666 45.0394 136.011 46.9369C134.358 48.8321 131.77 50.4817 128.634 51.4238Z" fill="#D7EEFF" stroke="black" stroke-width="0.593429"/>
<path d="M128.35 50.1755C125.601 51.0015 122.92 51.0798 120.812 50.5485C118.7 50.016 117.198 48.8837 116.724 47.3157C116.251 45.7477 116.877 43.9761 118.344 42.3681C119.808 40.7636 122.086 39.3519 124.835 38.526C127.583 37.7001 130.264 37.6217 132.372 38.1531C134.485 38.6855 135.987 39.8179 136.46 41.3859C136.933 42.9538 136.308 44.7255 134.84 46.3334C133.377 47.9379 131.099 49.3496 128.35 50.1755Z" fill="white" stroke="black" stroke-width="0.593429"/>
<path d="M127.139 48.1443L128.418 44.0352L124.684 44.8879L120.383 45.8705L127.139 48.1443Z" fill="#F5F9FE" stroke="black" stroke-width="0.593429" stroke-linejoin="round"/>
<path d="M120.501 45.8158L124.804 44.8332L128.383 44.083L125.534 40.8965L120.501 45.8158Z" fill="#9EBBD1" stroke="black" stroke-width="0.593429" stroke-linejoin="round"/>
<path d="M127.918 48.1123L132.119 43.3359L129.196 44.0034L127.918 48.1123Z" fill="white" stroke="black" stroke-width="0.593429" stroke-linejoin="round"/>
<path d="M129.186 44.0007L132.109 43.3332L126.356 40.6787L129.186 44.0007Z" fill="#9EBBD1" stroke="black" stroke-width="0.593429" stroke-linejoin="round"/>
<mask id="mask1_1_8352" style="mask-type:luminance" maskUnits="userSpaceOnUse" x="19" y="89" width="25" height="21">
<path d="M43.0212 89.9805H19.8002V109.934H43.0212V89.9805Z" fill="white"/>
</mask>
<g mask="url(#mask1_1_8352)">
<path d="M42.9195 103.302C42.9195 103.782 42.8233 104.263 42.6468 104.727C42.1974 105.928 41.1543 107.065 39.5495 107.994C35.0562 110.588 27.7706 110.588 23.2612 107.994C21.6564 107.065 20.6133 105.928 20.1639 104.727C19.9874 104.263 19.8911 103.782 19.8911 103.302C19.8911 101.604 21.0144 99.9069 23.2612 98.6096C27.7545 96.0149 35.0401 96.0149 39.5495 98.6096C41.7962 99.9069 42.9195 101.604 42.9195 103.302Z" fill="black"/>
<path d="M42.9195 96.706C42.9195 97.186 42.8233 97.6667 42.6468 98.1314C42.1974 99.332 41.1543 100.469 39.5495 101.398C35.0562 103.992 27.7706 103.992 23.2612 101.398C21.6564 100.469 20.6133 99.332 20.1639 98.1314C19.9874 97.6667 19.8911 97.186 19.8911 96.706C19.8911 95.008 21.0144 93.3107 23.2612 92.0134C27.7545 89.4194 35.0401 89.4194 39.5495 92.0134C41.7962 93.3107 42.9195 95.008 42.9195 96.706Z" fill="#AFEFB4" stroke="black" stroke-width="0.593429" stroke-miterlimit="10" stroke-linecap="round" stroke-linejoin="round"/>
<path d="M40.5696 96.7055C40.5696 97.0575 40.5054 97.4102 40.3609 97.7622C39.9918 98.6429 39.1734 99.4915 37.8896 100.164C34.3109 102.086 28.5017 102.086 24.907 100.164C23.6232 99.4755 22.7887 98.6429 22.4357 97.7622C22.2913 97.4102 22.2271 97.0575 22.2271 96.7055C22.2271 95.4562 23.1257 94.1909 24.923 93.2462C28.5017 91.3242 34.3109 91.3242 37.9056 93.2462C39.6709 94.2069 40.5696 95.4562 40.5696 96.7055Z" fill="white" stroke="black" stroke-width="0.593429" stroke-miterlimit="10" stroke-linecap="round" stroke-linejoin="round"/>
<path fill-rule="evenodd" clip-rule="evenodd" d="M35.3322 93.678L33.7709 100.197L32.1575 100.035L32.7497 97.5626L31.7076 97.458C31.1628 99.3766 30.4247 100.796 29.9576 100.749C29.4903 100.702 29.4507 99.204 29.8292 97.268L26.4264 96.9266L26.8032 95.3526L30.2074 95.6946C30.7514 93.79 31.4845 92.3846 31.9494 92.4313C32.4144 92.478 32.4559 93.9613 32.0833 95.884L33.1266 95.9886L33.7188 93.516L35.3322 93.678ZM31.9927 95.8746C32.3171 94.2066 32.3184 92.9346 31.9641 92.8986C31.5546 92.858 30.8256 94.4826 30.3358 96.5286C29.8459 98.574 29.7807 100.265 30.1901 100.307C30.5464 100.342 31.1448 99.116 31.6169 97.4486L30.3783 97.3246L30.7552 95.7506L31.9927 95.8746Z" fill="#2C903D"/>
<mask id="mask2_1_8352" style="mask-type:luminance" maskUnits="userSpaceOnUse" x="26" y="92" width="10" height="9">
<path fill-rule="evenodd" clip-rule="evenodd" d="M35.3322 93.678L33.7709 100.197L32.1575 100.035L32.7497 97.5626L31.7076 97.458C31.1628 99.3766 30.4247 100.796 29.9576 100.749C29.4903 100.702 29.4507 99.204 29.8292 97.268L26.4264 96.9266L26.8032 95.3526L30.2074 95.6946C30.7514 93.79 31.4845 92.3846 31.9494 92.4313C32.4144 92.478 32.4559 93.9613 32.0833 95.884L33.1266 95.9886L33.7188 93.516L35.3322 93.678ZM31.9927 95.8746C32.3171 94.2066 32.3184 92.9346 31.9641 92.8986C31.5546 92.858 30.8256 94.4826 30.3358 96.5286C29.8459 98.574 29.7807 100.265 30.1901 100.307C30.5464 100.342 31.1448 99.116 31.6169 97.4486L30.3783 97.3246L30.7552 95.7506L31.9927 95.8746Z" fill="white"/>
</mask>
<g mask="url(#mask2_1_8352)">
<path d="M33.771 100.197L33.6788 100.582L34.0733 100.621L34.1655 100.237L33.771 100.197ZM35.3322 93.6781L35.7266 93.7175L35.8188 93.3328L35.4243 93.2935L35.3322 93.6781ZM32.1576 100.035L31.7631 99.9955L31.671 100.381L32.0654 100.42L32.1576 100.035ZM32.7497 97.5628L33.1442 97.6021L33.2363 97.2175L32.8419 97.1781L32.7497 97.5628ZM31.7076 97.4581L31.7998 97.0735L31.4216 97.0355L31.3174 97.4021L31.7076 97.4581ZM29.8293 97.2681L30.2272 97.2915L30.2996 96.9215L29.9214 96.8835L29.8293 97.2681ZM26.4264 96.9268L26.0319 96.8875L25.9398 97.2721L26.3342 97.3115L26.4264 96.9268ZM26.8033 95.3528L26.8954 94.9681L26.501 94.9288L26.4088 95.3135L26.8033 95.3528ZM30.2075 95.6948L30.1153 96.0795L30.4929 96.1175L30.5975 95.7508L30.2075 95.6948ZM32.0833 95.8841L31.6852 95.8615L31.6136 96.2308L31.9912 96.2688L32.0833 95.8841ZM33.1266 95.9888L33.0345 96.3735L33.4289 96.4135L33.5211 96.0281L33.1266 95.9888ZM33.7188 93.5161L33.8109 93.1315L33.4165 93.0915L33.3243 93.4768L33.7188 93.5161ZM31.9927 95.8748L31.9006 96.2601L32.3123 96.3008L32.3908 95.8981L31.9927 95.8748ZM31.617 97.4488L32.0072 97.5048L32.1203 97.1055L31.7091 97.0641L31.617 97.4488ZM30.3783 97.3248L29.9839 97.2855L29.8917 97.6701L30.2862 97.7095L30.3783 97.3248ZM30.7553 95.7508L30.8474 95.3661L30.453 95.3268L30.3608 95.7115L30.7553 95.7508ZM34.1655 100.237L35.7266 93.7175L34.9377 93.6381L33.3765 100.157L34.1655 100.237ZM32.0654 100.42L33.6788 100.582L33.8632 99.8121L32.2498 99.6508L32.0654 100.42ZM32.3553 97.5228L31.7631 99.9955L32.552 100.075L33.1442 97.6021L32.3553 97.5228ZM31.6155 97.8428L32.6576 97.9475L32.8419 97.1781L31.7998 97.0735L31.6155 97.8428ZM29.8654 101.134C30.2049 101.168 30.4804 100.933 30.6413 100.757C30.8233 100.559 30.9974 100.287 31.1608 99.9788C31.4903 99.3548 31.8207 98.4901 32.0978 97.5141L31.3174 97.4021C31.0498 98.3448 30.7387 99.1495 30.4463 99.7035C30.2985 99.9828 30.1666 100.177 30.0617 100.291C29.9358 100.429 29.9439 100.354 30.0497 100.364L29.8654 101.134ZM29.4313 97.2448C29.2387 98.2301 29.1491 99.1188 29.1714 99.7781C29.1824 100.105 29.2214 100.398 29.302 100.623C29.3732 100.822 29.5259 101.1 29.8654 101.134L30.0497 100.364C30.1556 100.375 30.1282 100.448 30.0724 100.293C30.0259 100.163 29.9911 99.9515 29.9811 99.6561C29.9613 99.0708 30.0413 98.2428 30.2272 97.2915L29.4313 97.2448ZM26.3342 97.3115L29.7371 97.6528L29.9214 96.8835L26.5185 96.5421L26.3342 97.3115ZM26.4088 95.3135L26.0319 96.8875L26.8208 96.9661L27.1977 95.3928L26.4088 95.3135ZM30.2996 95.3101L26.8954 94.9681L26.7111 95.7381L30.1153 96.0795L30.2996 95.3101ZM32.0416 92.0468C31.7037 92.0128 31.4291 92.2455 31.2685 92.4201C31.0872 92.6175 30.9137 92.8868 30.7512 93.1935C30.4232 93.8121 30.0942 94.6688 29.8174 95.6381L30.5975 95.7508C30.8647 94.8155 31.1743 94.0181 31.4651 93.4695C31.6119 93.1928 31.7429 93.0008 31.8468 92.8875C31.9714 92.7521 31.9628 92.8268 31.8573 92.8168L32.0416 92.0468ZM32.4814 95.9068C32.671 94.9288 32.7585 94.0468 32.7353 93.3928C32.7238 93.0688 32.6845 92.7775 32.6038 92.5541C32.5324 92.3568 32.3796 92.0808 32.0416 92.0468L31.8573 92.8168C31.7518 92.8061 31.7786 92.7328 31.834 92.8868C31.8803 93.0148 31.9153 93.2235 31.9256 93.5161C31.9463 94.0961 31.8682 94.9175 31.6852 95.8615L32.4814 95.9068ZM33.2188 95.6041L32.1755 95.4995L31.9912 96.2688L33.0345 96.3735L33.2188 95.6041ZM33.3243 93.4768L32.7322 95.9495L33.5211 96.0281L34.1132 93.5555L33.3243 93.4768ZM35.4243 93.2935L33.8109 93.1315L33.6267 93.9008L35.24 94.0628L35.4243 93.2935ZM31.8719 93.2841C31.7896 93.2755 31.7519 93.2335 31.7473 93.2275C31.7446 93.2241 31.757 93.2395 31.7728 93.2921C31.804 93.3975 31.8263 93.5741 31.8279 93.8261C31.8311 94.3241 31.7541 95.0321 31.5947 95.8521L32.3908 95.8981C32.5558 95.0495 32.6416 94.2875 32.638 93.7235C32.6362 93.4448 32.6126 93.1921 32.5546 92.9968C32.5257 92.8995 32.4826 92.7961 32.4134 92.7101C32.3423 92.6215 32.2272 92.5315 32.0562 92.5141L31.8719 93.2841ZM30.7303 96.5681C30.9711 95.5621 31.2685 94.6708 31.5496 94.0441C31.6915 93.7275 31.8208 93.4981 31.9253 93.3581C31.9784 93.2875 32.0106 93.2595 32.0184 93.2535C32.026 93.2481 31.9678 93.2935 31.8719 93.2841L32.0562 92.5141C31.858 92.4941 31.6874 92.5815 31.5749 92.6655C31.4625 92.7481 31.3668 92.8561 31.2863 92.9641C31.1237 93.1815 30.9634 93.4781 30.8106 93.8188C30.5024 94.5061 30.1904 95.4495 29.9414 96.4888L30.7303 96.5681ZM30.2823 99.9221C30.3781 99.9315 30.4123 99.9861 30.4077 99.9795C30.403 99.9721 30.3854 99.9395 30.3681 99.8615C30.3338 99.7075 30.3179 99.4635 30.3306 99.1341C30.3557 98.4821 30.4894 97.5741 30.7303 96.5681L29.9414 96.4888C29.6924 97.5288 29.5486 98.4888 29.521 99.2041C29.5073 99.5581 29.5212 99.8728 29.5745 100.112C29.6009 100.23 29.6416 100.352 29.7098 100.453C29.778 100.555 29.8998 100.671 30.098 100.691L30.2823 99.9221ZM31.2267 97.3935C30.9947 98.2128 30.7353 98.9095 30.4978 99.3888C30.3775 99.6315 30.2729 99.7975 30.1929 99.8928C30.1527 99.9408 30.1332 99.9535 30.137 99.9515C30.1435 99.9468 30.1994 99.9135 30.2823 99.9221L30.098 100.691C30.2699 100.709 30.4225 100.645 30.5317 100.573C30.6383 100.505 30.7277 100.414 30.8011 100.326C30.9483 100.15 31.0895 99.9121 31.2224 99.6441C31.4912 99.1021 31.7671 98.3521 32.0072 97.5048L31.2267 97.3935ZM30.2862 97.7095L31.5248 97.8335L31.7091 97.0641L30.4705 96.9401L30.2862 97.7095ZM30.3608 95.7115L29.9839 97.2855L30.7728 97.3641L31.1497 95.7901L30.3608 95.7115ZM32.0849 95.4901L30.8474 95.3661L30.6631 96.1355L31.9006 96.2601L32.0849 95.4901Z" fill="black"/>
</g>
<path d="M42.9195 96.7012V99.5678C42.9195 101.265 41.7962 102.963 39.5495 104.26C35.0562 106.855 27.7706 106.855 23.2612 104.26C21.0144 102.963 19.8911 101.265 19.8911 99.5678V96.7012C19.8911 97.1818 19.9874 97.6618 20.1639 98.1265C20.6133 99.3278 21.6564 100.465 23.2612 101.393C27.7545 103.988 35.0401 103.988 39.5495 101.393C41.1704 100.465 42.1974 99.3278 42.6468 98.1265C42.8233 97.6618 42.9195 97.1818 42.9195 96.7012Z" fill="#2C903D" stroke="black" stroke-width="0.593429" stroke-miterlimit="10"/>
<path d="M42.3702 101.623V98.7559" stroke="black" stroke-width="0.593429" stroke-miterlimit="10" stroke-linecap="round" stroke-linejoin="round"/>
<path d="M41.0962 103.17V100.319" stroke="black" stroke-width="0.593429" stroke-miterlimit="10" stroke-linecap="round" stroke-linejoin="round"/>
<path d="M39.7917 104.116V101.265" stroke="black" stroke-width="0.593429" stroke-miterlimit="10" stroke-linecap="round" stroke-linejoin="round"/>
<path d="M38.4872 104.789V101.938" stroke="black" stroke-width="0.593429" stroke-miterlimit="10" stroke-linecap="round" stroke-linejoin="round"/>
<path d="M37.1827 105.305V102.438" stroke="black" stroke-width="0.593429" stroke-miterlimit="10" stroke-linecap="round" stroke-linejoin="round"/>
<path d="M35.9087 105.668V102.817" stroke="black" stroke-width="0.593429" stroke-miterlimit="10" stroke-linecap="round" stroke-linejoin="round"/>
<path d="M34.6345 105.941V103.074" stroke="black" stroke-width="0.593429" stroke-miterlimit="10" stroke-linecap="round" stroke-linejoin="round"/>
<path d="M33.3301 106.11V103.259" stroke="black" stroke-width="0.593429" stroke-miterlimit="10" stroke-linecap="round" stroke-linejoin="round"/>
<path d="M32.0559 106.185V103.335" stroke="black" stroke-width="0.593429" stroke-miterlimit="10" stroke-linecap="round" stroke-linejoin="round"/>
<path d="M30.7515 106.185V103.335" stroke="black" stroke-width="0.593429" stroke-miterlimit="10" stroke-linecap="round" stroke-linejoin="round"/>
<path d="M29.4774 106.11V103.259" stroke="black" stroke-width="0.593429" stroke-miterlimit="10" stroke-linecap="round" stroke-linejoin="round"/>
<path d="M28.173 105.925V103.074" stroke="black" stroke-width="0.593429" stroke-miterlimit="10" stroke-linecap="round" stroke-linejoin="round"/>
<path d="M26.8988 105.668V102.801" stroke="black" stroke-width="0.593429" stroke-miterlimit="10" stroke-linecap="round" stroke-linejoin="round"/>
<path d="M25.5944 105.289V102.438" stroke="black" stroke-width="0.593429" stroke-miterlimit="10" stroke-linecap="round" stroke-linejoin="round"/>
<path d="M24.3202 104.79V101.923" stroke="black" stroke-width="0.593429" stroke-miterlimit="10" stroke-linecap="round" stroke-linejoin="round"/>
<path d="M23.0461 104.101V101.25" stroke="black" stroke-width="0.593429" stroke-miterlimit="10" stroke-linecap="round" stroke-linejoin="round"/>
<path d="M21.7416 103.158V100.308" stroke="black" stroke-width="0.593429" stroke-miterlimit="10" stroke-linecap="round" stroke-linejoin="round"/>
<path d="M20.6495 101.925V99.0742" stroke="black" stroke-width="0.593429" stroke-miterlimit="10" stroke-linecap="round" stroke-linejoin="round"/>
</g>
<path d="M138.467 108.998L90.7124 81.4839C89.3462 80.6967 87.1311 80.6967 85.7649 81.4839L38.0106 108.998C36.6444 109.785 36.6444 111.061 38.0106 111.848L85.7649 139.362C87.1311 140.149 89.3462 140.149 90.7124 139.362L138.467 111.848C139.833 111.061 139.833 109.785 138.467 108.998Z" fill="black"/>
<path d="M138.467 93.3879L90.7124 65.874C89.3462 65.0869 87.1311 65.0869 85.7649 65.874L38.0106 93.3879C36.6444 94.175 36.6444 95.4513 38.0106 96.2385L85.7649 123.752C87.1311 124.539 89.3462 124.539 90.7124 123.752L138.467 96.2385C139.833 95.4513 139.833 94.175 138.467 93.3879Z" fill="#E1E1E1" stroke="black" stroke-width="0.593429" stroke-miterlimit="10" stroke-linecap="round" stroke-linejoin="round"/>
<path d="M85.7729 123.749L38.0183 96.2347C36.6521 95.4474 35.5446 96.0854 35.5446 97.6601V104.511C35.5446 106.086 36.6523 108 38.0187 108.787L85.7729 136.295C87.139 137.081 88.2467 136.443 88.2467 134.869V128.025C88.2467 126.45 87.139 124.535 85.7729 123.749Z" fill="#494949" stroke="black" stroke-width="0.593429" stroke-miterlimit="10" stroke-linecap="round" stroke-linejoin="round"/>
<path d="M90.7351 123.749L138.489 96.2347C139.856 95.4474 140.963 96.0854 140.963 97.6601V104.511C140.963 106.086 139.856 108 138.489 108.787L90.7345 136.295C89.3683 137.081 88.2614 136.443 88.2614 134.869V128.025C88.2614 126.45 89.369 124.535 90.7351 123.749Z" fill="#494949" stroke="black" stroke-width="0.593429" stroke-miterlimit="10" stroke-linecap="round" stroke-linejoin="round"/>
<path d="M138.467 91.1818L90.7124 63.668C89.3462 62.8808 87.1311 62.8808 85.7649 63.668L38.0106 91.1818C36.6444 91.969 36.6444 93.2452 38.0106 94.0324L85.7649 121.546C87.1311 122.333 89.3462 122.333 90.7124 121.546L138.467 94.0324C139.833 93.2452 139.833 91.969 138.467 91.1818Z" fill="black"/>
<path d="M138.467 75.8937L90.7124 48.3799C89.3462 47.5927 87.1311 47.5927 85.7649 48.3799L38.0106 75.8937C36.6444 76.6809 36.6444 77.9571 38.0106 78.7443L85.7649 106.258C87.1311 107.045 89.3462 107.045 90.7124 106.258L138.467 78.7443C139.833 77.9571 139.833 76.6809 138.467 75.8937Z" fill="#E1E1E1" stroke="black" stroke-width="0.593429" stroke-miterlimit="10" stroke-linecap="round" stroke-linejoin="round"/>
<path d="M85.7729 106.258L38.0183 78.7439C36.6521 77.9566 35.5446 78.5952 35.5446 80.1692V87.0206C35.5446 88.5952 36.6523 90.5099 38.0187 91.2966L85.7729 118.804C87.139 119.591 88.2467 118.953 88.2467 117.379V110.534C88.2467 108.959 87.139 107.045 85.7729 106.258Z" fill="#494949" stroke="black" stroke-width="0.593429" stroke-miterlimit="10" stroke-linecap="round" stroke-linejoin="round"/>
<path d="M138.467 73.3659L90.7124 45.852C89.3462 45.0649 87.1311 45.0649 85.7649 45.852L38.0106 73.3659C36.6444 74.1531 36.6444 75.4293 38.0106 76.2165L85.7649 103.73C87.1311 104.517 89.3462 104.517 90.7124 103.73L138.467 76.2165C139.833 75.4293 139.833 74.1531 138.467 73.3659Z" fill="black"/>
<path d="M90.7351 106.258L138.489 78.7439C139.856 77.9566 140.963 78.5952 140.963 80.1692V87.0206C140.963 88.5952 139.856 90.5099 138.489 91.2966L90.7345 118.804C89.3683 119.591 88.2614 118.953 88.2614 117.379V110.534C88.2614 108.959 89.369 107.045 90.7351 106.258Z" fill="#494949" stroke="black" stroke-width="0.593429" stroke-miterlimit="10" stroke-linecap="round" stroke-linejoin="round"/>
<path d="M138.467 56.7458L90.7124 29.2319C89.3462 28.4448 87.1311 28.4448 85.7649 29.2319L38.0106 56.7458C36.6444 57.5329 36.6444 58.8092 38.0106 59.5964L85.7649 87.1102C87.1311 87.8974 89.3462 87.8974 90.7124 87.1102L138.467 59.5964C139.833 58.8092 139.833 57.5329 138.467 56.7458Z" fill="#E1E1E1" stroke="black" stroke-width="0.593429" stroke-miterlimit="10" stroke-linecap="round" stroke-linejoin="round"/>
<path d="M106.38 61.4983C105.494 63.1117 103.929 64.621 101.687 65.9221C94.2806 70.19 82.233 70.19 74.7755 65.9221C72.5329 64.621 70.9683 63.1117 70.0818 61.4983C67.9955 57.699 69.5601 53.4313 74.7755 50.4127C82.1809 46.145 94.2285 46.145 101.687 50.4127C106.954 53.4313 108.466 57.699 106.38 61.4983Z" fill="#494949" stroke="black" stroke-width="0.593429" stroke-miterlimit="10" stroke-linecap="round" stroke-linejoin="round"/>
<path d="M106.396 61.4967C105.51 63.1101 103.945 64.6194 101.703 65.9205C94.2965 70.188 82.2489 70.188 74.7915 65.9205C72.5489 64.6194 70.9843 63.1101 70.0978 61.4967C70.9843 59.8833 72.5489 58.374 74.7915 57.0729C82.1968 52.8051 94.2444 52.8051 101.703 57.0729C103.997 58.3219 105.51 59.8833 106.396 61.4967Z" fill="black" stroke="black" stroke-width="0.593429" stroke-miterlimit="10" stroke-linecap="round" stroke-linejoin="round"/>
<path d="M85.7729 87.1098L38.0183 59.596C36.6521 58.8088 35.5446 59.4469 35.5446 61.0212V67.8724C35.5446 69.4471 36.6523 71.3618 38.0187 72.1484L85.7729 99.6558C87.139 100.442 88.2467 99.8044 88.2467 98.2304V91.3858C88.2467 89.8111 87.139 87.8971 85.7729 87.1098Z" fill="#494949" stroke="black" stroke-width="0.593429" stroke-miterlimit="10" stroke-linecap="round" stroke-linejoin="round"/>
<path d="M44.5848 70.6695C44.9296 70.5228 45.0025 69.9202 44.7477 69.3222C44.4928 68.7248 44.0067 68.3588 43.6619 68.5055C43.3172 68.6522 43.2443 69.2548 43.4991 69.8528C43.7539 70.4502 44.24 70.8162 44.5848 70.6695Z" fill="black"/>
<path d="M47.9218 72.5918C48.2666 72.4451 48.3394 71.8418 48.0846 71.2445C47.8298 70.6465 47.3436 70.2811 46.9989 70.4271C46.6541 70.5738 46.5812 71.1771 46.8361 71.7745C47.0909 72.3725 47.577 72.7378 47.9218 72.5918Z" fill="black"/>
<path d="M51.2588 74.5254C51.6036 74.3788 51.6764 73.7761 51.4216 73.1781C51.1668 72.5808 50.6807 72.2148 50.3359 72.3614C49.9912 72.5081 49.9182 73.1108 50.1731 73.7088C50.4279 74.3061 50.914 74.6721 51.2588 74.5254Z" fill="black"/>
<path d="M44.5848 90.7027C44.9296 90.5567 45.0025 89.9534 44.7477 89.3554C44.4928 88.758 44.0067 88.392 43.6619 88.5387C43.3172 88.6854 43.2443 89.288 43.4991 89.886C43.7539 90.4834 44.24 90.8494 44.5848 90.7027Z" fill="black"/>
<path d="M47.9218 92.6175C48.2666 92.4715 48.3394 91.8682 48.0846 91.2709C47.8298 90.6729 47.3436 90.3075 46.9989 90.4535C46.6541 90.6002 46.5812 91.2035 46.8361 91.8009C47.0909 92.3982 47.577 92.7642 47.9218 92.6175Z" fill="black"/>
<path d="M51.2588 94.5472C51.6036 94.4012 51.6764 93.7979 51.4216 93.2005C51.1668 92.6025 50.6807 92.2372 50.3359 92.3832C49.9912 92.5299 49.9182 93.1332 50.1731 93.7305C50.4279 94.3279 50.914 94.6939 51.2588 94.5472Z" fill="black"/>
<path d="M44.5848 107.588C44.9296 107.441 45.0025 106.838 44.7477 106.241C44.4928 105.643 44.0067 105.277 43.6619 105.424C43.3172 105.57 43.2443 106.173 43.4991 106.771C43.7539 107.369 44.24 107.734 44.5848 107.588Z" fill="black"/>
<path d="M47.9218 109.502C48.2666 109.356 48.3394 108.753 48.0846 108.155C47.8298 107.558 47.3436 107.192 46.9989 107.338C46.6541 107.484 46.5812 108.088 46.8361 108.686C47.0909 109.283 47.577 109.648 47.9218 109.502Z" fill="black"/>
<path d="M51.2588 111.433C51.6036 111.286 51.6764 110.683 51.4216 110.085C51.1668 109.488 50.6807 109.122 50.3359 109.269C49.9912 109.415 49.9182 110.018 50.1731 110.615C50.4279 111.213 50.914 111.579 51.2588 111.433Z" fill="black"/>
<path d="M90.7351 87.1098L138.489 59.596C139.856 58.8088 140.963 59.4469 140.963 61.0212V67.8724C140.963 69.4471 139.856 71.3618 138.489 72.1484L90.7345 99.6558C89.3683 100.442 88.2614 99.8044 88.2614 98.2304V91.3858C88.2614 89.8111 89.369 87.8971 90.7351 87.1098Z" fill="#494949" stroke="black" stroke-width="0.593429" stroke-miterlimit="10" stroke-linecap="round" stroke-linejoin="round"/>
<path fill-rule="evenodd" clip-rule="evenodd" d="M129.541 98.3992C129.477 98.3618 129.413 98.3265 129.347 98.2925L129.529 98.3978C129.593 98.4345 129.656 98.4725 129.719 98.5118C130.121 98.4398 130.51 98.3985 130.884 98.3878C131.961 98.3545 132.915 98.5718 133.698 99.0232C133.778 99.0698 133.858 99.1185 133.935 99.1705L138.63 101.875C140.072 102.706 140.937 104.331 140.939 106.644L140.95 106.651C140.95 111.98 136.366 118.942 130.712 122.2L125.764 119.35L125.763 119.35L130.696 122.192C129.187 123.062 127.754 123.58 126.465 123.77L121.534 120.929L121.534 120.93L126.471 123.774C125.364 124.968 124.166 125.962 122.916 126.682L117.976 123.837L117.974 123.838L122.912 126.684C121.858 127.292 120.84 127.662 119.882 127.812H119.882C118.759 128.857 117.543 129.776 116.272 130.508L111.335 127.664L111.324 127.67L116.253 130.51C113.056 132.352 110.201 132.616 108.324 131.534L103.377 128.684C103.493 128.75 103.611 128.811 103.733 128.867L103.549 128.761C103.502 128.736 103.456 128.71 103.41 128.684C101.967 127.852 101.101 126.226 101.101 123.909V123.906C101.102 121.554 101.995 118.885 103.478 116.357C104.738 114.181 106.442 112.109 108.412 110.426L108.426 110.434C108.429 110.432 108.432 110.429 108.436 110.426C109.735 105.142 112.741 100.03 116.384 97.1565C116.903 96.7472 117.433 96.3832 117.974 96.0705L117.968 96.0672C119.391 95.2478 120.745 94.8605 121.977 94.8618C122.938 94.8612 123.824 95.0965 124.608 95.5485C124.687 95.5938 124.766 95.6418 124.842 95.6918L129.541 98.3992Z" fill="black"/>
<mask id="mask3_1_8352" style="mask-type:luminance" maskUnits="userSpaceOnUse" x="101" y="94" width="40" height="39">
<path fill-rule="evenodd" clip-rule="evenodd" d="M129.541 98.3992C129.477 98.3618 129.413 98.3265 129.347 98.2925L129.529 98.3978C129.593 98.4345 129.656 98.4725 129.719 98.5118C130.121 98.4398 130.51 98.3985 130.884 98.3878C131.961 98.3545 132.915 98.5718 133.698 99.0232C133.778 99.0698 133.858 99.1185 133.935 99.1705L138.63 101.875C140.072 102.706 140.937 104.331 140.939 106.644L140.95 106.651C140.95 111.98 136.366 118.942 130.712 122.2L125.764 119.35L125.763 119.35L130.696 122.192C129.187 123.062 127.754 123.58 126.465 123.77L121.534 120.929L121.534 120.93L126.471 123.774C125.364 124.968 124.166 125.962 122.916 126.682L117.976 123.837L117.974 123.838L122.912 126.684C121.858 127.292 120.84 127.662 119.882 127.812H119.882C118.759 128.857 117.543 129.776 116.272 130.508L111.335 127.664L111.324 127.67L116.253 130.51C113.056 132.352 110.201 132.616 108.324 131.534L103.377 128.684C103.493 128.75 103.611 128.811 103.733 128.867L103.549 128.761C103.502 128.736 103.456 128.71 103.41 128.684C101.967 127.852 101.101 126.226 101.101 123.909V123.906C101.102 121.554 101.995 118.885 103.478 116.357C104.738 114.181 106.442 112.109 108.412 110.426L108.426 110.434C108.429 110.432 108.432 110.429 108.436 110.426C109.735 105.142 112.741 100.03 116.384 97.1565C116.903 96.7472 117.433 96.3832 117.974 96.0705L117.968 96.0672C119.391 95.2478 120.745 94.8605 121.977 94.8618C122.938 94.8612 123.824 95.0965 124.608 95.5485C124.687 95.5938 124.766 95.6418 124.842 95.6918L129.541 98.3992Z" fill="white"/>
</mask>
<g mask="url(#mask3_1_8352)">
<path d="M103.477 128.512L103.476 128.512L103.277 128.854H103.278L103.477 128.512ZM129.347 98.2923L129.53 97.9416C129.339 97.8423 129.103 97.9137 128.999 98.1023C128.896 98.291 128.962 98.5277 129.149 98.635L129.347 98.2923ZM129.541 98.399L129.343 98.7417C129.532 98.851 129.775 98.7857 129.884 98.5963C129.994 98.4077 129.929 98.1657 129.739 98.0563L129.541 98.399ZM129.719 98.5117L129.505 98.8456C129.59 98.899 129.69 98.919 129.789 98.901L129.719 98.5117ZM130.884 98.3877L130.896 98.7836L130.896 98.783L130.884 98.3877ZM133.935 99.1703L133.714 99.499C133.721 99.5036 133.729 99.5083 133.737 99.5123L133.935 99.1703ZM140.939 106.644H140.542C140.542 106.786 140.618 106.916 140.741 106.987L140.939 106.644ZM140.95 106.651H141.347C141.347 106.51 141.271 106.379 141.148 106.308L140.95 106.651ZM130.712 122.2L130.514 122.543C130.636 122.614 130.787 122.614 130.91 122.543L130.712 122.2ZM125.764 119.35L125.963 119.007C125.841 118.936 125.69 118.936 125.567 119.007L125.764 119.35ZM125.763 119.35L125.565 119.008C125.442 119.078 125.367 119.209 125.367 119.35C125.367 119.492 125.442 119.622 125.565 119.693L125.763 119.35ZM130.696 122.192L130.894 122.535C131.017 122.464 131.092 122.334 131.092 122.192C131.092 122.051 131.017 121.92 130.894 121.85L130.696 122.192ZM126.465 123.77L126.267 124.112C126.344 124.157 126.434 124.174 126.523 124.162L126.465 123.77ZM121.534 120.929L121.732 120.586C121.572 120.494 121.369 120.524 121.244 120.66L121.534 120.929ZM121.534 120.93L121.243 120.66C121.161 120.748 121.123 120.869 121.141 120.988C121.159 121.108 121.231 121.212 121.335 121.272L121.534 120.93ZM126.471 123.774L126.762 124.043C126.844 123.954 126.881 123.834 126.863 123.715C126.845 123.596 126.774 123.492 126.67 123.432L126.471 123.774ZM122.916 126.682L122.717 127.025C122.84 127.096 122.991 127.096 123.114 127.025L122.916 126.682ZM117.976 123.837L118.175 123.494C118.052 123.424 117.901 123.424 117.778 123.494L117.976 123.837ZM117.974 123.838L117.775 123.496C117.653 123.566 117.577 123.697 117.577 123.838C117.577 123.98 117.652 124.11 117.775 124.181L117.974 123.838ZM122.912 126.684L123.111 127.027C123.233 126.956 123.309 126.826 123.309 126.684C123.309 126.543 123.233 126.412 123.111 126.342L122.912 126.684ZM119.882 127.812L119.684 128.154C119.762 128.2 119.854 128.217 119.944 128.203L119.882 127.812ZM119.882 127.812L120.08 127.469C119.929 127.382 119.739 127.404 119.611 127.522L119.882 127.812ZM116.272 130.508L116.074 130.85C116.197 130.921 116.348 130.921 116.47 130.85L116.272 130.508ZM111.335 127.664L111.533 127.321C111.411 127.25 111.26 127.25 111.137 127.32L111.335 127.664ZM111.324 127.67L111.125 127.327C111.003 127.398 110.927 127.528 110.927 127.67C110.927 127.811 111.002 127.942 111.125 128.012L111.324 127.67ZM116.253 130.51L116.451 130.852C116.574 130.782 116.649 130.652 116.649 130.51C116.649 130.369 116.574 130.238 116.451 130.168L116.253 130.51ZM103.377 128.684L103.576 128.341C103.386 128.232 103.144 128.296 103.034 128.486C102.925 128.675 102.99 128.917 103.18 129.026L103.377 128.684ZM103.733 128.867L103.568 129.226C103.76 129.315 103.989 129.236 104.085 129.049C104.183 128.861 104.116 128.63 103.932 128.524L103.733 128.867ZM103.549 128.761L103.747 128.418C103.743 128.416 103.739 128.414 103.735 128.411L103.549 128.761ZM103.478 116.357L103.82 116.556L103.821 116.555L103.478 116.357ZM108.412 110.426L108.61 110.084C108.465 110 108.282 110.017 108.155 110.126L108.412 110.426ZM108.426 110.434L108.228 110.777C108.374 110.861 108.557 110.844 108.684 110.735L108.426 110.434ZM108.436 110.426L108.694 110.727C108.756 110.673 108.801 110.601 108.821 110.52L108.436 110.426ZM116.384 97.1563L116.63 97.4663H116.631L116.384 97.1563ZM117.974 96.0703L118.173 96.413C118.296 96.3423 118.37 96.2117 118.37 96.0703C118.37 95.929 118.295 95.7983 118.173 95.7276L117.974 96.0703ZM117.968 96.067L117.77 95.7243C117.648 95.795 117.572 95.9256 117.572 96.067C117.572 96.2083 117.648 96.339 117.77 96.4097L117.968 96.067ZM121.977 94.8617L121.976 95.2576H121.977L121.977 94.8617ZM124.842 95.6916L124.627 96.0236C124.632 96.027 124.638 96.031 124.644 96.0343L124.842 95.6916ZM129.164 98.6437C129.224 98.675 129.284 98.7077 129.343 98.7417L129.739 98.0563C129.67 98.0163 129.6 97.9783 129.53 97.9416L129.164 98.6437ZM129.727 98.055L129.545 97.9497L129.149 98.635L129.331 98.7403L129.727 98.055ZM129.931 98.1783C129.864 98.1357 129.796 98.0943 129.727 98.055L129.331 98.7403C129.39 98.7743 129.448 98.809 129.505 98.8456L129.931 98.1783ZM130.873 97.9923C130.477 98.0037 130.069 98.047 129.648 98.1223L129.789 98.901C130.173 98.8323 130.542 98.7936 130.896 98.7836L130.873 97.9923ZM133.896 98.6803C133.038 98.1856 132.009 97.957 130.872 97.9923L130.896 98.783C131.913 98.7517 132.791 98.957 133.5 99.3656L133.896 98.6803ZM134.155 98.841C134.071 98.785 133.985 98.731 133.896 98.6803L133.5 99.3656C133.573 99.4076 133.645 99.4523 133.714 99.499L134.155 98.841ZM138.828 101.532L134.133 98.8277L133.737 99.5123L138.432 102.218L138.828 101.532ZM141.335 106.644C141.334 104.23 140.425 102.452 138.828 101.532L138.432 102.218C139.719 102.96 140.541 104.432 140.542 106.644L141.335 106.644ZM141.148 106.308L141.137 106.302L140.741 106.987L140.752 106.994L141.148 106.308ZM130.91 122.543C133.799 120.878 136.402 118.277 138.283 115.42C140.161 112.567 141.347 109.419 141.347 106.651H140.554C140.554 109.213 139.447 112.21 137.62 114.985C135.796 117.756 133.28 120.264 130.514 121.858L130.91 122.543ZM125.567 119.692L130.514 122.543L130.91 121.858L125.963 119.007L125.567 119.692ZM125.961 119.693L125.963 119.692L125.567 119.007L125.565 119.008L125.961 119.693ZM130.894 121.85L125.961 119.008L125.565 119.693L130.497 122.535L130.894 121.85ZM126.523 124.162C127.872 123.962 129.352 123.424 130.894 122.535L130.497 121.85C129.022 122.7 127.637 123.197 126.407 123.379L126.523 124.162ZM121.336 121.272L126.267 124.112L126.664 123.428L121.732 120.586L121.336 121.272ZM121.824 121.199L121.825 121.198L121.244 120.66L121.243 120.66L121.824 121.199ZM126.67 123.432L121.732 120.586L121.335 121.272L126.273 124.117L126.67 123.432ZM123.114 127.025C124.405 126.282 125.633 125.26 126.762 124.043L126.18 123.506C125.094 124.676 123.927 125.643 122.717 126.34L123.114 127.025ZM117.778 124.18L122.717 127.025L123.114 126.34L118.175 123.494L117.778 124.18ZM118.171 124.181L118.175 124.18L117.778 123.494L117.775 123.496L118.171 124.181ZM123.111 126.342L118.171 123.496L117.775 124.181L122.714 127.027L123.111 126.342ZM119.944 128.203C120.957 128.044 122.021 127.655 123.111 127.027L122.714 126.342C121.694 126.93 120.723 127.28 119.821 127.421L119.944 128.203ZM119.683 128.154L119.684 128.154L120.081 127.47L120.08 127.469L119.683 128.154ZM116.47 130.85C117.77 130.102 119.01 129.164 120.152 128.101L119.611 127.522C118.508 128.55 117.316 129.45 116.074 130.166L116.47 130.85ZM111.137 128.006L116.074 130.85L116.47 130.166L111.533 127.321L111.137 128.006ZM111.522 128.012L111.533 128.006L111.137 127.32L111.125 127.327L111.522 128.012ZM116.451 130.168L111.522 127.327L111.125 128.012L116.055 130.852L116.451 130.168ZM108.126 131.876C110.182 133.061 113.201 132.725 116.451 130.852L116.055 130.168C112.911 131.978 110.221 132.17 108.522 131.191L108.126 131.876ZM103.18 129.026L108.126 131.876L108.522 131.191L103.576 128.341L103.18 129.026ZM103.899 128.508C103.788 128.456 103.68 128.401 103.576 128.341L103.18 129.026C103.305 129.098 103.435 129.166 103.568 129.226L103.899 128.508ZM103.351 129.104L103.536 129.21L103.932 128.524L103.747 128.418L103.351 129.104ZM103.212 129.027C103.262 129.056 103.313 129.084 103.364 129.11L103.735 128.411C103.692 128.389 103.65 128.366 103.608 128.342L103.212 129.027ZM100.704 123.909C100.704 126.326 101.614 128.106 103.212 129.027L103.608 128.342C102.32 127.599 101.497 126.125 101.497 123.909H100.704ZM100.704 123.906V123.909H101.497V123.906H100.704ZM103.136 116.157C101.63 118.723 100.706 121.462 100.704 123.906H101.497C101.499 121.646 102.359 119.047 103.82 116.556L103.136 116.157ZM108.155 110.126C106.15 111.838 104.417 113.946 103.135 116.158L103.821 116.555C105.059 114.417 106.736 112.38 108.67 110.727L108.155 110.126ZM108.624 110.092L108.61 110.084L108.214 110.769L108.228 110.777L108.624 110.092ZM108.178 110.126C108.175 110.128 108.171 110.131 108.168 110.134L108.684 110.735C108.687 110.732 108.69 110.73 108.694 110.727L108.178 110.126ZM116.138 96.8456C112.411 99.7856 109.366 104.982 108.05 110.332L108.821 110.52C110.103 105.302 113.07 100.274 116.63 97.4663L116.138 96.8456ZM117.775 95.7283C117.217 96.051 116.67 96.4256 116.138 96.8456L116.631 97.4663C117.135 97.0676 117.65 96.715 118.173 96.413L117.775 95.7283ZM117.77 96.4097L117.776 96.413L118.173 95.7276L118.167 95.7243L117.77 96.4097ZM121.977 94.4663C120.662 94.4643 119.239 94.8783 117.77 95.7243L118.167 96.4097C119.543 95.617 120.829 95.2563 121.976 95.2576L121.977 94.4663ZM124.806 95.2057C123.959 94.7177 123.005 94.465 121.976 94.4663L121.977 95.2576C122.871 95.2563 123.688 95.475 124.41 95.891L124.806 95.2057ZM125.058 95.3596C124.975 95.3063 124.891 95.255 124.806 95.2057L124.41 95.891C124.483 95.933 124.555 95.977 124.627 96.0236L125.058 95.3596ZM129.739 98.0563L125.041 95.349L124.644 96.0343L129.343 98.7417L129.739 98.0563Z" fill="black"/>
</g>
<path fill-rule="evenodd" clip-rule="evenodd" d="M132.397 102.053C137.256 100.007 140.963 101.849 140.963 106.641C140.963 111.971 136.378 118.933 130.724 122.191C129.212 123.062 127.776 123.58 126.483 123.769C125.376 124.964 124.178 125.958 122.928 126.678C121.874 127.285 120.857 127.655 119.9 127.805C118.776 128.853 117.557 129.775 116.284 130.508C110.63 133.766 106.046 132.086 106.046 126.756C106.046 122.377 109.14 116.897 113.38 113.274C114.865 107.233 118.58 101.417 122.928 98.912C127.202 96.4494 130.864 97.8914 132.397 102.053Z" fill="#E1E1E1"/>
<mask id="mask4_1_8352" style="mask-type:luminance" maskUnits="userSpaceOnUse" x="106" y="97" width="35" height="36">
<path fill-rule="evenodd" clip-rule="evenodd" d="M132.397 102.053C137.256 100.007 140.963 101.849 140.963 106.641C140.963 111.971 136.378 118.933 130.724 122.191C129.212 123.062 127.776 123.58 126.483 123.769C125.376 124.964 124.178 125.958 122.928 126.678C121.874 127.285 120.857 127.655 119.9 127.805C118.776 128.853 117.557 129.775 116.284 130.508C110.63 133.766 106.046 132.086 106.046 126.756C106.046 122.377 109.14 116.897 113.38 113.274C114.865 107.233 118.58 101.417 122.928 98.912C127.202 96.4494 130.864 97.8914 132.397 102.053Z" fill="white"/>
</mask>
<g mask="url(#mask4_1_8352)">
<path d="M132.397 102.053L132.073 102.371L132.144 102.56L132.352 102.472L132.397 102.053ZM126.483 123.769L126.603 123.33L126.473 123.349L126.346 123.486L126.483 123.769ZM119.9 127.805L120.017 127.366L119.909 127.383L119.799 127.486L119.9 127.805ZM113.38 113.274L113.461 113.612L113.647 113.453L113.706 113.21L113.38 113.274ZM132.352 102.472C137.097 100.473 140.619 102.304 140.619 106.839L141.306 106.443C141.306 101.393 137.415 99.5408 132.444 101.635L132.352 102.472ZM140.619 106.839C140.619 111.88 136.257 118.607 130.724 121.795V122.586C136.501 119.258 141.306 112.062 141.306 106.443L140.619 106.839ZM130.724 121.795C129.252 122.643 127.857 123.146 126.603 123.33L126.364 124.209C127.694 124.014 129.171 123.481 130.724 122.586V121.795ZM126.346 123.486C125.28 124.635 124.129 125.591 122.928 126.283V127.074C124.227 126.325 125.471 125.293 126.621 124.053L126.346 123.486ZM122.928 126.283C121.915 126.866 120.938 127.222 120.017 127.366L119.783 128.245C120.776 128.089 121.833 127.705 122.928 127.074V126.283ZM119.799 127.486C118.708 128.503 117.523 129.399 116.284 130.113V130.904C117.591 130.151 118.844 129.204 120.001 128.125L119.799 127.486ZM116.284 130.113C110.752 133.3 106.39 131.599 106.39 126.559L105.703 126.954C105.703 132.573 110.508 134.232 116.284 130.904V130.113ZM106.39 126.559C106.39 122.413 109.327 117.144 113.461 113.612L113.299 112.936C108.954 116.649 105.703 122.341 105.703 126.954L106.39 126.559ZM113.706 113.21C115.155 107.313 118.761 101.709 122.928 99.3081V98.5168C118.398 101.126 114.574 107.154 113.054 113.338L113.706 113.21ZM122.928 99.3081C127.024 96.9475 130.577 98.3081 132.073 102.371L132.721 101.736C131.152 97.4741 127.38 95.9515 122.928 98.5168V99.3081Z" fill="black"/>
</g>
<path d="M78.0388 88.2862L67.7547 82.361C67.3899 82.1508 67.0942 82.3212 67.0942 82.7415L67.0942 82.7415C67.0942 83.1618 67.3899 83.6729 67.7547 83.8831L78.0388 89.8083C78.4035 90.0185 78.6992 89.8481 78.6992 89.4278C78.6992 89.0075 78.4035 88.4964 78.0388 88.2862Z" fill="black"/>
<path d="M78.0388 108.032L67.7547 102.107C67.3899 101.897 67.0942 102.067 67.0942 102.488L67.0942 102.488C67.0942 102.908 67.3899 103.419 67.7547 103.629L78.0388 109.554C78.4035 109.765 78.6992 109.594 78.6992 109.174C78.6992 108.754 78.4035 108.242 78.0388 108.032Z" fill="black"/>
<path d="M78.0388 126.545L67.7547 120.62C67.3899 120.41 67.0942 120.58 67.0942 121L67.0942 121C67.0942 121.421 67.3899 121.932 67.7547 122.142L78.0388 128.067C78.4035 128.277 78.6992 128.107 78.6992 127.687C78.6992 127.266 78.4035 126.755 78.0388 126.545Z" fill="black"/>
<path d="M130.8 71.2591C130.455 71.1131 130.383 70.5098 130.638 69.9125C130.892 69.3145 131.379 68.9491 131.723 69.0951C132.068 69.2418 132.141 69.8451 131.886 70.4425C131.631 71.0405 131.146 71.4058 130.8 71.2591Z" fill="black"/>
<path d="M127.433 73.1749C127.088 73.0282 127.016 72.4249 127.27 71.8275C127.525 71.2302 128.011 70.8642 128.356 71.0109C128.7 71.1569 128.774 71.7602 128.519 72.3575C128.264 72.9555 127.778 73.3209 127.433 73.1749Z" fill="black"/>
<path d="M124.096 75.1045C123.752 74.9578 123.679 74.3545 123.933 73.7572C124.188 73.1592 124.674 72.7938 125.019 72.9398C125.364 73.0865 125.436 73.6898 125.182 74.2872C124.927 74.8852 124.441 75.2505 124.096 75.1045Z" fill="black"/>
<path d="M130.8 91.2779C130.455 91.1312 130.383 90.5285 130.638 89.9305C130.892 89.3332 131.379 88.9672 131.723 89.1139C132.068 89.2599 132.141 89.8632 131.886 90.4612C131.631 91.0586 131.146 91.4246 130.8 91.2779Z" fill="black"/>
<path d="M127.433 93.1924C127.088 93.0464 127.016 92.4431 127.27 91.8451C127.525 91.2478 128.011 90.8818 128.356 91.0284C128.7 91.1751 128.774 91.7778 128.519 92.3758C128.264 92.9731 127.778 93.3391 127.433 93.1924Z" fill="black"/>
<path d="M124.096 95.1185C123.752 94.9725 123.679 94.3692 123.933 93.7718C124.188 93.1738 124.674 92.8085 125.019 92.9545C125.364 93.1012 125.436 93.7045 125.182 94.3018C124.927 94.8992 124.441 95.2651 124.096 95.1185Z" fill="black"/>
<mask id="mask5_1_8352" style="mask-type:alpha" maskUnits="userSpaceOnUse" x="66" y="23" width="38" height="37">
<path d="M74.5797 52.0112C70.4412 48.0533 67.8638 43.2632 67.0361 38.7246C66.2085 34.1857 67.131 29.913 69.9695 26.9576C72.8081 24.0023 77.0468 22.901 81.6256 23.5338C86.2051 24.1664 91.11 26.5328 95.2479 30.4907C99.3864 34.4486 101.964 39.2387 102.791 43.7773C103.619 48.3162 102.697 52.5889 99.8581 55.5442C97.0195 58.4996 92.7807 59.6009 88.2019 58.9682C83.6225 58.3354 78.7176 55.9692 74.5797 52.0112Z" fill="white" stroke="black" stroke-width="0.534483"/>
</mask>
<g mask="url(#mask5_1_8352)">
<path d="M74.5931 51.9969C70.4579 48.0415 67.8826 43.2551 67.0555 38.721C66.2288 34.1866 67.1511 29.9208 69.9836 26.9711C72.8168 24.0215 77.0482 22.921 81.623 23.5531C86.1978 24.1852 91.0993 26.5494 95.2346 30.5047C99.3698 34.4601 101.945 39.2466 102.772 43.7807C103.599 48.3151 102.677 52.5809 99.8441 55.5305C97.0109 58.4802 92.7795 59.5807 88.2047 58.9486C83.6299 58.3165 78.7284 55.9523 74.5931 51.9969Z" fill="url(#paint0_linear_1_8352)" stroke="black" stroke-width="0.593429"/>
<path d="M96.0444 45.9107L71.1895 66.1025L83.4362 81.1152L108.291 60.9234L96.0444 45.9107Z" fill="black"/>
<path d="M67.3782 30.5725L72.7707 26.146M66.9105 34.2657L72.1126 30.0409M67.2612 37.3503L72.3571 33.4937M67.9654 40.1077L72.8608 36.5863M68.9621 42.6847L73.7327 39.1694M70.1619 45.0873L74.6479 41.693M71.5334 47.3891L76.3501 43.8832M73.1087 49.5165L77.3949 46.2267M74.8189 51.5277L79.2434 48.2141M76.6634 54.0635L81.4687 50.4382M78.9261 56.2359L83.9912 52.251M81.448 58.0487L86.5131 54.0639M84.2297 59.5019L89.3323 55.4653M87.3381 59.7443L91.4467 56.3266" stroke="black" stroke-width="0.593429" stroke-miterlimit="10" stroke-linecap="round" stroke-linejoin="round"/>
</g>
<path d="M77.3074 49.1711C73.1675 45.2119 70.4399 40.5787 69.3697 36.2966C68.2988 32.0114 68.8913 28.1085 71.3411 25.5583C73.7901 23.0081 77.6722 22.2511 82.0078 23.1373C86.3408 24.0227 91.0953 26.5456 95.2345 30.5049C99.3744 34.4642 102.101 39.0973 103.172 43.3795C104.243 47.6646 103.65 51.5675 101.201 54.1177C98.7518 56.668 94.8691 57.4249 90.5335 56.5388C86.2012 55.6533 81.4467 53.1304 77.3074 49.1711Z" fill="#A9E8A1" stroke="black" stroke-width="0.593429"/>
<path d="M78.7317 47.6094C75.0848 44.1213 72.6391 40.0858 71.627 36.389C70.6136 32.6876 71.0431 29.363 73.0827 27.2393C75.1222 25.1156 78.4324 24.546 82.1815 25.3996C85.9253 26.2521 90.0692 28.5191 93.7167 32.0072C97.3636 35.4954 99.8087 39.5309 100.821 43.2278C101.835 46.929 101.405 50.2537 99.3658 52.3774C97.3262 54.5011 94.0154 55.0707 90.2669 54.2172C86.5232 53.3646 82.3786 51.0976 78.7317 47.6094Z" fill="white" stroke="black" stroke-width="0.593429"/>
<path fill-rule="evenodd" clip-rule="evenodd" d="M88.8366 34.9074C87.1712 33.0262 85.1891 32.8671 83.1776 33.3007L81.0959 30.6157L79.6489 31.095L81.6758 33.7093C81.2957 33.8353 80.9135 33.9725 80.5334 34.1091L78.4939 31.4775L77.0475 31.9563L79.1278 34.6407C78.8199 34.7517 78.5179 34.8601 78.218 34.9597L78.2113 34.9514L76.2145 35.6115L77.5686 37.3569C77.5686 37.3569 78.6195 36.9801 78.6188 37.0081C79.2047 36.8143 79.6937 37.1355 80.0063 37.4487L82.3779 40.5075C82.4187 40.4943 82.4728 40.4788 82.5396 40.4683L82.4908 40.4845C82.4567 40.4955 82.422 40.507 82.3866 40.5191L85.7088 44.8043C85.8444 45.0211 85.9934 45.3892 85.5845 45.5256C85.6179 45.538 84.5324 45.8736 84.5324 45.8736L85.7582 47.9206L87.6415 47.2971C87.8519 47.2277 88.0623 47.1613 88.2701 47.0955C88.4091 47.0517 88.5467 47.0082 88.683 46.9644L90.7887 49.6798L92.2343 49.2015L90.1513 46.5145C90.5555 46.3924 90.9423 46.2688 91.3171 46.1443L93.3894 48.819L94.8364 48.3397L92.7354 45.6288C95.0461 44.6657 96.2119 43.4097 94.4228 40.7594C92.9832 38.6252 91.3986 37.9847 89.7271 38.0673C90.1921 37.3071 90.0578 36.2832 88.8366 34.9074ZM91.3311 41.3849C92.7754 43.2465 90.1547 44.0633 88.9555 44.4371C88.848 44.4707 88.7511 44.5007 88.6703 44.5276L85.8812 40.9295C85.9794 40.8969 86.0969 40.854 86.2299 40.8055C87.4183 40.3711 89.8554 39.4809 91.3311 41.3849ZM84.835 39.2026C85.8377 38.8937 88.0249 38.2198 86.7129 36.5271C85.3708 34.7962 83.3459 35.5447 82.3565 35.9103C82.2456 35.9514 82.1474 35.9877 82.0646 36.015L84.5945 39.2783C84.6626 39.2557 84.7441 39.2307 84.835 39.2026Z" fill="#A9E8A1"/>
<path d="M83.1775 33.3009L83.0192 33.354L83.1455 33.5165L83.3005 33.4831L83.1775 33.3009ZM88.8366 34.9075L88.6923 34.9773L88.693 34.9776L88.8366 34.9075ZM81.0959 30.6159L81.2542 30.5627L81.1166 30.3853L80.9583 30.4377L81.0959 30.6159ZM79.6489 31.0951L79.5113 30.9169L79.3523 30.9697L79.4906 31.1483L79.6489 31.0951ZM81.6758 33.7094L81.8134 33.8876L81.9724 33.8349L81.8341 33.6563L81.6758 33.7094ZM80.5334 34.1093L80.3757 34.1623L80.516 34.3434L80.6744 34.2864L80.5334 34.1093ZM78.4938 31.4776L78.6515 31.4245L78.5146 31.247L78.3562 31.2994L78.4938 31.4776ZM77.0475 31.9564L76.9099 31.7782L76.7509 31.8309L76.8892 32.0095L77.0475 31.9564ZM79.1278 34.6409L79.2688 34.8179L79.4218 34.7627L79.2862 34.5877L79.1278 34.6409ZM78.2179 34.9598L78.063 35.0175L78.2012 35.1891L78.3556 35.138L78.2179 34.9598ZM78.2113 34.9515L78.3656 34.8939L78.228 34.7223L78.0736 34.7733L78.2113 34.9515ZM76.2145 35.6116L76.0775 35.4333L75.9178 35.486L76.0568 35.6647L76.2145 35.6116ZM77.5686 37.357L77.4103 37.4102L77.5506 37.591L77.7089 37.5342L77.5686 37.357ZM78.6188 37.0083L78.4083 36.9287L78.4017 37.3037L78.7557 37.1865L78.6188 37.0083ZM80.0063 37.4489L80.1646 37.3957L80.1513 37.3791L80.1359 37.3638L80.0063 37.4489ZM82.3779 40.5076L82.2196 40.5607L82.3565 40.7372L82.5142 40.6861L82.3779 40.5076ZM82.5396 40.4684L82.6772 40.6466L82.4253 40.2847L82.5396 40.4684ZM82.3866 40.5192L82.2483 40.3414L82.0913 40.3952L82.2289 40.5723L82.3866 40.5192ZM85.7088 44.8044L85.8845 44.7762L85.8765 44.7635L85.8671 44.7513L85.7088 44.8044ZM85.5845 45.5257L85.4469 45.3476L85.0314 45.4862L85.5819 45.6939L85.5845 45.5257ZM84.5324 45.8737L84.3974 45.6947L84.2584 45.7377L84.354 45.8971L84.5324 45.8737ZM85.7582 47.9207L85.5799 47.9441L85.7095 48.1607L85.8958 48.0989L85.7582 47.9207ZM88.2701 47.0956L88.1358 46.9164L88.1345 46.9169L88.2701 47.0956ZM88.2701 47.0956L88.4044 47.2749L88.4064 47.2744L88.2701 47.0956ZM88.6829 46.9645L88.8406 46.9113L88.7043 46.7351L88.546 46.7859L88.6829 46.9645ZM90.7886 49.6799L90.6303 49.7331L90.7679 49.9105L90.9262 49.8581L90.7886 49.6799ZM92.2343 49.2016L92.3719 49.3798L92.5309 49.3271L92.3926 49.1484L92.2343 49.2016ZM90.1513 46.5147L90.017 46.3354L89.8514 46.3854L89.993 46.5679L90.1513 46.5147ZM91.3171 46.1444L91.4747 46.0913L91.3371 45.9137L91.1788 45.9662L91.3171 46.1444ZM93.3894 48.8191L93.2317 48.8722L93.3693 49.0497L93.527 48.9973L93.3894 48.8191ZM94.8364 48.3399L94.974 48.5181L95.133 48.4653L94.9947 48.2867L94.8364 48.3399ZM92.7353 45.6289L92.589 45.454L92.4467 45.5134L92.577 45.682L92.7353 45.6289ZM94.4228 40.7595L94.2525 40.7961L94.2531 40.7961L94.4228 40.7595ZM89.7271 38.0675L89.5327 37.9329L89.3216 38.2779L89.824 38.253L89.7271 38.0675ZM88.9555 44.4372L88.8199 44.2583L88.8159 44.2595L88.8119 44.2611L88.9555 44.4372ZM88.9555 44.4372L89.0904 44.6161L89.0945 44.6148L89.0985 44.6133L88.9555 44.4372ZM88.6702 44.5277L88.5119 44.5809L88.6495 44.7585L88.8079 44.7059L88.6702 44.5277ZM85.8811 40.9296L85.7435 40.7514L85.5839 40.8041L85.7228 40.9827L85.8811 40.9296ZM82.0646 36.0151L81.927 35.8369L81.768 35.8897L81.9062 36.0683L82.0646 36.0151ZM84.5945 39.2784L84.4361 39.3315L84.5738 39.509L84.7321 39.4566L84.5945 39.2784ZM83.3005 33.4831C84.2972 33.2681 85.2645 33.206 86.1717 33.4157C87.0649 33.6221 87.91 34.0932 88.6923 34.9773L88.9816 34.8377C88.0984 33.8407 87.119 33.2917 86.1023 33.0566C85.0989 32.8249 84.0694 32.9 83.0546 33.1187L83.3005 33.4831ZM80.9376 30.669L83.0192 33.354L83.3359 33.2477L81.2542 30.5627L80.9376 30.669ZM79.7865 31.2734L81.2335 30.7941L80.9583 30.4377L79.5113 30.9169L79.7865 31.2734ZM81.8341 33.6563L79.8072 31.042L79.4906 31.1483L81.5174 33.7625L81.8341 33.6563ZM80.6744 34.2864C81.0538 34.1497 81.4346 34.013 81.8134 33.8876L81.5382 33.5311C81.156 33.6578 80.7726 33.7955 80.3931 33.9321L80.6744 34.2864ZM78.3355 31.5307L80.3757 34.1623L80.6917 34.0561L78.6515 31.4245L78.3355 31.5307ZM77.1845 32.1346L78.6308 31.6558L78.3562 31.2994L76.9099 31.7782L77.1845 32.1346ZM79.2862 34.5877L77.2058 31.9033L76.8892 32.0095L78.9695 34.6939L79.2862 34.5877ZM78.3556 35.138C78.6569 35.0379 78.9608 34.9289 79.2688 34.8179L78.9869 34.4637C78.6796 34.5747 78.3783 34.6827 78.0803 34.7816L78.3556 35.138ZM78.0563 35.0092L78.063 35.0175L78.3723 34.9021L78.3656 34.8939L78.0563 35.0092ZM76.3521 35.7898L78.3489 35.1298L78.0736 34.7733L76.0775 35.4333L76.3521 35.7898ZM77.7263 37.3038L76.3728 35.5584L76.0568 35.6647L77.4103 37.4102L77.7263 37.3038ZM78.8285 37.0879C78.8292 37.0633 78.8225 37.0181 78.7831 36.9631C78.7417 36.9059 78.6876 36.8704 78.6502 36.852C78.5907 36.8228 78.5446 36.8216 78.5399 36.8213C78.5159 36.8199 78.4972 36.8231 78.4918 36.8239C78.4765 36.8264 78.4591 36.8307 78.4437 36.8347C78.4117 36.8431 78.3683 36.8564 78.3188 36.8722C78.2186 36.9041 78.0863 36.949 77.9547 36.9944C77.8231 37.0399 77.6909 37.0863 77.5926 37.1212C77.5432 37.1387 77.5018 37.1533 77.4731 37.1636C77.459 37.1687 77.4477 37.1728 77.4397 37.1755C77.4357 37.1769 77.433 37.178 77.431 37.1787C77.4296 37.1791 77.429 37.1793 77.4283 37.1795C77.4283 37.1795 77.4283 37.1796 77.4283 37.1795L77.4276 37.1798C77.4276 37.1798 77.4276 37.1798 77.5686 37.357C77.7089 37.5342 77.7089 37.5342 77.7089 37.5342C77.7089 37.5341 77.7096 37.534 77.7096 37.5339C77.7102 37.5337 77.7109 37.5335 77.7116 37.5331C77.7136 37.5324 77.7169 37.5313 77.7202 37.53C77.7283 37.5273 77.7396 37.5232 77.7536 37.5181C77.7824 37.5079 77.8231 37.4933 77.8726 37.4759C77.9708 37.4411 78.1017 37.395 78.2326 37.3498C78.3636 37.3045 78.4938 37.2605 78.5907 37.2296C78.6395 37.214 78.6782 37.2025 78.7029 37.1957C78.717 37.1921 78.7223 37.1912 78.7217 37.1913C78.721 37.1913 78.719 37.1917 78.715 37.1921C78.7123 37.1923 78.7036 37.193 78.6909 37.1923C78.6882 37.1921 78.6442 37.1913 78.5854 37.1625C78.5486 37.1443 78.4952 37.1091 78.4538 37.0523C78.4143 36.9977 78.4083 36.9529 78.4083 36.9287L78.8285 37.0879ZM80.1359 37.3638C79.9589 37.1863 79.7177 36.9921 79.4251 36.8732C79.1272 36.7522 78.8072 36.7223 78.4812 36.8301L78.7557 37.1865C79.0163 37.1005 79.234 37.1341 79.4051 37.2035C79.5814 37.2751 79.7404 37.3981 79.876 37.5339L80.1359 37.3638ZM82.5362 40.4545L80.1646 37.3957L79.848 37.502L82.2196 40.5607L82.5362 40.4545ZM82.4253 40.2847C82.3478 40.2969 82.2857 40.3147 82.2409 40.3291L82.5142 40.6861C82.5516 40.6742 82.5977 40.6609 82.6545 40.6521L82.4253 40.2847ZM82.6277 40.6629L82.6772 40.6466L82.4019 40.2901L82.3532 40.3063L82.6277 40.6629ZM82.5255 40.697C82.5603 40.6852 82.5943 40.674 82.6277 40.6629L82.3532 40.3063C82.3198 40.3174 82.2844 40.3291 82.2483 40.3414L82.5255 40.697ZM85.8671 44.7513L82.5449 40.4661L82.2289 40.5723L85.5505 44.8575L85.8671 44.7513ZM85.7228 45.7039C85.9707 45.6211 86.0655 45.4593 86.0609 45.2691C86.0568 45.0883 85.9633 44.9025 85.8845 44.7762L85.5331 44.8326C85.5899 44.9231 85.6393 45.0299 85.6413 45.1214C85.6433 45.2036 85.6079 45.2939 85.4469 45.3476L85.7228 45.7039ZM84.5324 45.8737C84.6673 46.0527 84.6673 46.0527 84.6673 46.0527L84.668 46.0527C84.668 46.0526 84.668 46.0526 84.6686 46.0525C84.6686 46.0523 84.67 46.0521 84.6706 46.0517C84.6726 46.0511 84.676 46.0502 84.68 46.0489C84.688 46.0465 84.6994 46.0429 84.7141 46.0383C84.7441 46.029 84.7862 46.0159 84.837 46C84.9385 45.9683 85.0735 45.9259 85.2071 45.883C85.3407 45.8403 85.4743 45.7968 85.5732 45.7631C85.6219 45.7465 85.6634 45.7316 85.6927 45.7202C85.7068 45.7148 85.7215 45.7087 85.7328 45.7027C85.7368 45.7009 85.7502 45.6941 85.7622 45.6829C85.7662 45.6796 85.7722 45.6737 85.7776 45.6652C85.7823 45.6583 85.793 45.6408 85.795 45.6125C85.797 45.5816 85.7883 45.5222 85.7288 45.4551C85.6747 45.3944 85.6133 45.3673 85.5872 45.3577L85.5819 45.6939C85.5571 45.6844 85.4957 45.6575 85.4422 45.5971C85.3821 45.5303 85.3734 45.4712 85.3761 45.4406C85.3774 45.4127 85.3881 45.3956 85.3928 45.3891C85.3981 45.381 85.4035 45.3756 85.4068 45.3727C85.4128 45.3671 85.4182 45.3637 85.4202 45.3627C85.4222 45.3614 85.4235 45.3607 85.4235 45.3606C85.4242 45.3605 85.4229 45.3611 85.4188 45.3627C85.4155 45.3642 85.4108 45.3661 85.4048 45.3683C85.3814 45.3777 85.344 45.391 85.2953 45.4075C85.1997 45.4403 85.0681 45.4831 84.9345 45.5257C84.8016 45.5683 84.6673 45.6106 84.5664 45.6422C84.5156 45.658 84.4736 45.6711 84.4442 45.6803C84.4295 45.6849 84.4174 45.6885 84.4094 45.6909C84.4061 45.6921 84.4027 45.6931 84.4007 45.6937C84.3994 45.6941 84.3987 45.6943 84.3981 45.6945C84.3981 45.6945 84.3974 45.6947 84.3974 45.6947C84.3974 45.6947 84.3974 45.6947 84.5324 45.8737ZM85.9366 47.8973L84.7114 45.8503L84.354 45.8971L85.5799 47.9441L85.9366 47.8973ZM87.5038 47.1189L85.6206 47.7425L85.8958 48.0989L87.7791 47.4754L87.5038 47.1189ZM88.1345 46.9169C87.9267 46.9825 87.7156 47.0492 87.5038 47.1189L87.7791 47.4754C87.9888 47.4063 88.1979 47.3402 88.4064 47.2744L88.1345 46.9169ZM88.546 46.7859C88.4104 46.8297 88.2734 46.8731 88.1345 46.9169L88.4064 47.2744C88.5447 47.2306 88.6829 47.187 88.8192 47.1431L88.546 46.7859ZM90.947 49.6267L88.8406 46.9113L88.5246 47.0177L90.6303 49.7331L90.947 49.6267ZM92.0967 49.0233L90.651 49.5017L90.9262 49.8581L92.3719 49.3798L92.0967 49.0233ZM89.993 46.5679L92.076 49.2547L92.3926 49.1484L90.3096 46.4615L89.993 46.5679ZM91.1788 45.9662C90.8053 46.0905 90.4199 46.2137 90.017 46.3354L90.2856 46.694C90.6904 46.5715 91.0786 46.4475 91.4547 46.3226L91.1788 45.9662ZM93.5477 48.766L91.4747 46.0913L91.1587 46.1975L93.2317 48.8722L93.5477 48.766ZM94.6987 48.1616L93.2524 48.6409L93.527 48.9973L94.974 48.5181L94.6987 48.1616ZM92.577 45.682L94.6787 48.3929L94.9947 48.2867L92.8937 45.5758L92.577 45.682ZM94.2531 40.7961C95.1129 42.0699 95.2505 42.9847 94.9165 43.7019C94.5765 44.4323 93.7387 44.9746 92.589 45.454L92.8816 45.8038C94.042 45.3201 94.9432 44.7529 95.3167 43.9519C95.6955 43.1378 95.5224 42.0994 94.5932 40.7229L94.2531 40.7961ZM89.824 38.253C90.6357 38.2129 91.3992 38.3499 92.1201 38.7325C92.8382 39.1137 93.553 39.7594 94.2525 40.7961L94.5932 40.7229C93.8523 39.6254 93.0553 38.8838 92.2036 38.4318C91.3551 37.9813 90.4907 37.8393 89.6309 37.8819L89.824 38.253ZM88.693 34.9776C89.2788 35.6381 89.5915 36.1995 89.7091 36.6789C89.8266 37.1583 89.7525 37.5729 89.5327 37.9329L89.9222 38.202C90.1667 37.8018 90.2582 37.3242 90.1193 36.7577C89.981 36.1912 89.6155 35.5528 88.9809 34.8374L88.693 34.9776ZM89.0904 44.6161C89.6863 44.4305 90.663 44.1273 91.3064 43.6295C91.6277 43.3804 91.8782 43.0737 91.9457 42.6937C92.0152 42.3062 91.8923 41.8508 91.4894 41.3319L91.1734 41.4382C91.4928 41.85 91.5836 42.1949 91.5302 42.4959C91.4747 42.8043 91.2656 43.0741 90.963 43.3087C90.3564 43.7781 89.4231 44.0702 88.8199 44.2583L89.0904 44.6161ZM88.8079 44.7059C88.8874 44.6795 88.9822 44.6499 89.0904 44.6161L88.8199 44.2583C88.7123 44.2917 88.6148 44.3222 88.5326 44.3496L88.8079 44.7059ZM85.7228 40.9827L88.5119 44.5809L88.8279 44.4746L86.0388 40.8765L85.7228 40.9827ZM86.0882 40.6287C85.9546 40.6775 85.8397 40.7195 85.7435 40.7514L86.0181 41.1079C86.119 41.0745 86.2385 41.0309 86.3708 40.9825L86.0882 40.6287ZM91.4894 41.3319C91.0819 40.8061 90.5976 40.4637 90.0845 40.2634C89.5815 40.0668 89.0651 40.0127 88.5781 40.0328C87.606 40.0729 86.6788 40.413 86.0882 40.6287L86.3708 40.9825C86.9694 40.7639 87.8552 40.4417 88.7678 40.4041C89.2227 40.3853 89.667 40.4385 90.0725 40.5969C90.4686 40.7517 90.8428 41.0119 91.1734 41.4382L91.4894 41.3319ZM86.5552 36.5804C86.8458 36.9554 86.936 37.2624 86.9053 37.5239C86.8732 37.7921 86.7115 38.0246 86.4684 38.2254C85.9793 38.6281 85.2057 38.8679 84.7 39.0237L84.9699 39.3818C85.467 39.2286 86.2886 38.977 86.8157 38.5425C87.0803 38.3245 87.2827 38.0519 87.3235 37.7081C87.3649 37.3575 87.2366 36.9455 86.8712 36.4742L86.5552 36.5804ZM82.4981 36.0871C82.9972 35.9027 83.7287 35.6342 84.4936 35.6184C84.8744 35.6105 85.2458 35.6661 85.5899 35.8123C85.9266 35.9553 86.2539 36.1923 86.5552 36.5804L86.8712 36.4742C86.5011 35.9969 86.0722 35.6783 85.6206 35.4861C85.1763 35.2973 84.7288 35.2383 84.3112 35.2469C83.4808 35.264 82.7052 35.5525 82.2149 35.7336L82.4981 36.0871ZM82.2022 36.1933C82.287 36.1651 82.3879 36.128 82.4981 36.0871L82.2149 35.7336C82.1027 35.775 82.0071 35.8104 81.927 35.8369L82.2022 36.1933ZM84.7528 39.2253L82.2229 35.962L81.9062 36.0683L84.4361 39.3315L84.7528 39.2253ZM84.7 39.0237C84.6092 39.0516 84.5263 39.0771 84.4569 39.1002L84.7321 39.4566C84.7982 39.4346 84.8784 39.41 84.9699 39.3818L84.7 39.0237Z" fill="black"/>
<path fill-rule="evenodd" clip-rule="evenodd" d="M125.756 108.203L124.519 107.491L124.341 107.799L124.347 107.803L118.884 117.247L118.878 117.249L118.881 117.251L118.878 117.255L120.115 117.967L120.12 117.959L122.428 116.629V126.949L122.434 126.953L122.428 126.956L123.665 127.669L127.665 125.364L126.432 124.653L126.438 124.65V124.648L127.669 125.357V113.61L131.057 111.658L131.148 111.711L131.327 111.402L130.09 110.689L128.547 109.801L127.31 109.088L127.305 109.096L127.299 109.093L125.756 108.203Z" fill="black"/>
<mask id="mask6_1_8352" style="mask-type:luminance" maskUnits="userSpaceOnUse" x="118" y="106" width="15" height="23">
<path d="M132.239 106.824H118.21V128.158H132.239V106.824Z" fill="white"/>
<path fill-rule="evenodd" clip-rule="evenodd" d="M125.756 108.203L124.519 107.491L124.341 107.799L124.347 107.803L118.884 117.247L118.878 117.249L118.881 117.251L118.878 117.255L120.115 117.967L120.12 117.959L122.428 116.629V126.949L122.434 126.953L122.428 126.956L123.665 127.669L127.665 125.364L126.432 124.653L126.438 124.65V124.648L127.669 125.357V113.61L131.057 111.658L131.148 111.711L131.327 111.402L130.09 110.689L128.547 109.801L127.31 109.088L127.305 109.096L127.299 109.093L125.756 108.203Z" fill="black"/>
</mask>
<g mask="url(#mask6_1_8352)">
<path d="M124.519 107.491L124.718 107.149C124.626 107.096 124.518 107.082 124.416 107.109C124.315 107.136 124.229 107.202 124.176 107.294L124.519 107.491ZM124.341 107.8L123.997 107.602C123.945 107.693 123.931 107.801 123.957 107.902C123.985 108.004 124.052 108.09 124.142 108.142L124.341 107.8ZM124.347 107.804L124.69 108.001C124.742 107.91 124.757 107.802 124.73 107.701C124.702 107.6 124.636 107.513 124.545 107.461L124.347 107.804ZM118.884 117.247L119.081 117.589C119.141 117.554 119.191 117.504 119.226 117.444L118.884 117.247ZM118.878 117.25L118.68 116.907C118.558 116.978 118.482 117.108 118.482 117.25C118.482 117.391 118.558 117.522 118.68 117.592L118.878 117.25ZM118.881 117.251L119.224 117.449C119.276 117.358 119.291 117.25 119.264 117.148C119.236 117.047 119.17 116.961 119.079 116.908L118.881 117.251ZM118.878 117.255L118.535 117.057C118.425 117.246 118.491 117.488 118.68 117.598L118.878 117.255ZM120.115 117.968L119.917 118.31C120.008 118.363 120.116 118.377 120.218 118.35C120.319 118.323 120.406 118.256 120.459 118.166L120.115 117.968ZM120.12 117.96L119.922 117.617C119.862 117.652 119.811 117.702 119.777 117.762L120.12 117.96ZM122.428 116.63H122.824C122.824 116.488 122.749 116.358 122.626 116.287C122.503 116.216 122.352 116.216 122.23 116.287L122.428 116.63ZM122.428 126.95H122.031C122.031 127.091 122.107 127.222 122.23 127.292L122.428 126.95ZM122.434 126.953L122.632 127.296C122.755 127.225 122.83 127.094 122.83 126.953C122.83 126.812 122.755 126.681 122.632 126.61L122.434 126.953ZM122.428 126.956L122.23 126.614C122.107 126.685 122.031 126.815 122.031 126.956C122.031 127.098 122.107 127.228 122.23 127.299L122.428 126.956ZM123.665 127.669L123.466 128.012C123.589 128.082 123.74 128.082 123.862 128.012L123.665 127.669ZM127.665 125.364L127.863 125.707C127.986 125.636 128.062 125.506 128.062 125.364C128.062 125.223 127.986 125.092 127.863 125.022L127.665 125.364ZM126.432 124.654L126.234 124.311C126.111 124.382 126.036 124.512 126.036 124.654C126.036 124.795 126.111 124.926 126.234 124.996L126.432 124.654ZM126.438 124.65L126.636 124.993C126.759 124.922 126.835 124.792 126.835 124.65H126.438ZM126.438 124.648L126.636 124.306C126.514 124.236 126.362 124.236 126.24 124.306C126.117 124.377 126.042 124.507 126.042 124.648H126.438ZM127.669 125.358L127.471 125.7C127.594 125.771 127.745 125.771 127.867 125.7C127.99 125.63 128.065 125.499 128.065 125.358H127.669ZM127.669 113.61L127.471 113.268C127.348 113.338 127.272 113.469 127.272 113.61H127.669ZM131.057 111.658L131.255 111.316C131.132 111.245 130.981 111.245 130.858 111.316L131.057 111.658ZM131.148 111.711L130.95 112.054C131.14 112.163 131.382 112.098 131.492 111.909L131.148 111.711ZM131.327 111.402L131.67 111.6C131.78 111.411 131.715 111.169 131.525 111.06L131.327 111.402ZM127.31 109.088L127.508 108.746C127.319 108.636 127.076 108.701 126.967 108.89L127.31 109.088ZM127.305 109.096L127.107 109.439C127.297 109.548 127.539 109.484 127.648 109.294L127.305 109.096ZM124.321 107.834L125.558 108.546L125.954 107.861L124.718 107.149L124.321 107.834ZM124.684 107.998L124.863 107.689L124.176 107.294L123.997 107.602L124.684 107.998ZM124.545 107.461L124.539 107.457L124.142 108.142L124.148 108.146L124.545 107.461ZM119.226 117.444L124.69 108.001L124.003 107.606L118.54 117.049L119.226 117.444ZM119.077 117.592L119.081 117.589L118.685 116.904L118.68 116.907L119.077 117.592ZM119.079 116.908L119.077 116.907L118.68 117.592L118.682 117.594L119.079 116.908ZM119.222 117.453L119.224 117.449L118.537 117.053L118.535 117.057L119.222 117.453ZM120.313 117.625L119.077 116.912L118.68 117.598L119.917 118.31L120.313 117.625ZM119.777 117.762L119.772 117.77L120.459 118.166L120.463 118.157L119.777 117.762ZM122.23 116.287L119.922 117.617L120.318 118.302L122.626 116.972L122.23 116.287ZM122.824 126.95V116.63H122.031V126.95H122.824ZM122.632 126.61L122.626 126.607L122.23 127.292L122.236 127.296L122.632 126.61ZM122.626 127.299L122.632 127.296L122.236 126.61L122.23 126.614L122.626 127.299ZM123.862 127.327L122.626 126.614L122.23 127.299L123.466 128.012L123.862 127.327ZM127.467 125.022L123.466 127.327L123.862 128.012L127.863 125.707L127.467 125.022ZM126.234 124.996L127.467 125.707L127.863 125.022L126.63 124.311L126.234 124.996ZM126.24 124.308L126.234 124.311L126.63 124.996L126.636 124.993L126.24 124.308ZM126.042 124.648V124.65H126.835V124.648H126.042ZM127.867 125.015L126.636 124.306L126.24 124.991L127.471 125.7L127.867 125.015ZM127.272 113.61V125.358H128.065V113.61H127.272ZM130.858 111.316L127.471 113.268L127.867 113.953L131.255 112.001L130.858 111.316ZM131.347 111.368L131.255 111.316L130.858 112.001L130.95 112.054L131.347 111.368ZM130.983 111.204L130.805 111.513L131.492 111.909L131.67 111.6L130.983 111.204ZM129.892 111.032L131.128 111.745L131.525 111.06L130.288 110.347L129.892 111.032ZM128.348 110.144L129.892 111.032L130.288 110.347L128.745 109.458L128.348 110.144ZM127.112 109.431L128.348 110.144L128.745 109.458L127.508 108.746L127.112 109.431ZM127.648 109.294L127.654 109.286L126.967 108.89L126.962 108.899L127.648 109.294ZM127.101 109.436L127.107 109.439L127.503 108.754L127.497 108.75L127.101 109.436ZM125.558 108.546L127.101 109.436L127.497 108.75L125.954 107.861L125.558 108.546Z" fill="black"/>
</g>
<path fill-rule="evenodd" clip-rule="evenodd" d="M131.203 111.56L125.643 108.356L120.084 117.966L123.671 115.899V127.667L127.672 125.362V113.594L131.203 111.56Z" fill="#D1AA67"/>
<mask id="mask7_1_8352" style="mask-type:luminance" maskUnits="userSpaceOnUse" x="119" y="104" width="13" height="27">
<path d="M131.655 104.227H119.505V130.56H131.655V104.227Z" fill="white"/>
<path fill-rule="evenodd" clip-rule="evenodd" d="M131.203 111.56L125.643 108.356L120.084 117.966L123.671 115.899V127.667L127.672 125.362V113.594L131.203 111.56Z" fill="black"/>
</mask>
<g mask="url(#mask7_1_8352)">
<path d="M125.643 108.357L125.886 107.937C125.822 107.9 125.734 107.909 125.643 107.961C125.553 108.013 125.465 108.105 125.401 108.217L125.643 108.357ZM131.203 111.56V111.955C131.342 111.875 131.467 111.707 131.52 111.529C131.573 111.35 131.544 111.197 131.445 111.14L131.203 111.56ZM120.084 117.966L119.841 117.826C119.743 117.996 119.714 118.183 119.767 118.301C119.82 118.417 119.945 118.442 120.084 118.362V117.966ZM123.671 115.899L124.015 115.701C124.015 115.483 123.861 115.394 123.671 115.503V115.899ZM123.671 127.667L123.328 127.865C123.328 127.97 123.365 128.05 123.429 128.087C123.493 128.124 123.581 128.115 123.671 128.063V127.667ZM127.672 125.363V125.758C127.862 125.649 128.016 125.383 128.016 125.165L127.672 125.363ZM127.672 113.594V113.199C127.581 113.251 127.494 113.343 127.429 113.454C127.365 113.565 127.329 113.687 127.329 113.792L127.672 113.594ZM125.401 108.776L130.96 111.979L131.445 111.14L125.886 107.937L125.401 108.776ZM120.326 118.106L125.886 108.497L125.401 108.217L119.841 117.826L120.326 118.106ZM123.671 115.503L120.084 117.571V118.362L123.671 116.295V115.503ZM124.015 127.469V115.701L123.328 116.097V127.865L124.015 127.469ZM127.672 124.967L123.671 127.272V128.063L127.672 125.758V124.967ZM127.329 113.792V125.56L128.016 125.165V113.397L127.329 113.792ZM131.203 111.164L127.672 113.199V113.99L131.203 111.955V111.164Z" fill="black"/>
</g>
<path fill-rule="evenodd" clip-rule="evenodd" d="M66.5412 106.09V104.315H66.5532L57.6272 92.5254L57.6384 92.5161H57.6214H57.6204H57.6084H54.0678H54.0508H54.0497L54.0503 92.5168L54.033 92.5441L47.4971 97.7894H50.5413L50.5415 97.7914H47.4971L48.0429 104.981L45.6009 102.703L45.6052 102.688H45.5845H45.5768H42.0346H42.0062L42.0133 102.764L40.0966 109.59H40.0951L40.0959 109.593L40.0951 109.596H40.0968L43.2688 119.343H46.2678L46.269 119.346H43.25L47.4535 122.575L47.4617 122.597H47.7882L51.5063 124.117L52.8752 126.025L52.8774 126.051H53.3245L60.026 128.542V128.553H63.5966V128.551H63.6037L63.6078 128.553V128.551H63.6209L63.6078 128.547V128.385L64.2174 128.045L64.2574 128.095L64.2428 128.155L64.3416 128.202L64.3503 128.213H64.3651L71.0712 131.352H74.6419L74.6359 131.349L74.6365 131.346H74.6392L78.7998 118.498H78.7938L73.2523 106.096L73.255 106.086H73.2483H73.2437H73.1187L73.1628 105.897H73.1288H69.5921H69.558L66.5412 106.09ZM69.538 106.129L69.5373 106.132L66.5412 106.324V106.32L69.538 106.129ZM54.1304 98.0228L54.1323 98.0195L54.6682 104.796L54.6303 104.344L54.1304 98.0228ZM46.2892 109.392L48.9397 116.797L48.9428 116.838L48.8976 116.714L46.277 109.393H46.2821L45.9654 106.381L45.9732 106.389L46.2892 109.392Z" fill="black"/>
<path d="M69.5781 105.9L61.8964 106.392L60.936 123.911L64.3503 128.215L69.5781 105.9Z" fill="black" stroke="black" stroke-width="0.593429" stroke-linejoin="round"/>
<path d="M75.2324 118.505L69.6843 106.088L64.2427 128.157L71.0711 131.353L75.2324 118.505Z" fill="#D1AA67" stroke="black" stroke-width="0.593429" stroke-linejoin="round"/>
<path d="M50.5308 97.6545L52.7601 125.845L60.0348 128.549V101.103L54.0508 92.6519L50.5308 97.6545Z" fill="#D1AA67" stroke="black" stroke-width="0.593429" stroke-linejoin="round"/>
<path d="M47.4971 97.7948L54.0678 92.5215L50.5478 98.0648L52.8944 126.052L49.2571 120.982L47.4971 97.7948Z" fill="black" stroke="black" stroke-width="0.593429" stroke-linejoin="round"/>
<path d="M62.9686 104.315L54.0358 92.5161L59.9179 101.069V128.447L62.9686 126.745V104.315Z" fill="#494949" stroke="black" stroke-width="0.593429" stroke-linejoin="round"/>
<path d="M49.4116 109.603L42.0062 102.695L42.7115 109.4L47.3839 122.454L52.2326 124.435L49.4116 109.603Z" fill="#D1AA67" stroke="black" stroke-width="0.593429" stroke-linejoin="round"/>
<path d="M40.0951 109.597L42.0346 102.689L42.6517 109.343L47.5004 122.6L43.2688 119.349L40.0951 109.597Z" fill="black" stroke="black" stroke-width="0.593429" stroke-linejoin="round"/>
<defs>
<linearGradient id="paint0_linear_1_8352" x1="98.7238" y1="56.5498" x2="69.9023" y2="26.7746" gradientUnits="userSpaceOnUse">
<stop offset="0.614583" stop-color="#A9E8A1"/>
<stop offset="0.614683" stop-color="white"/>
</linearGradient>
</defs>
</svg>
