<svg width="161" height="160" viewBox="0 0 161 160" fill="none" xmlns="http://www.w3.org/2000/svg">
<path d="M149.685 95.3064L132.09 105.441L131.258 105.93L131.209 105.954H131.184C130.597 106.247 129.888 106.247 129.3 105.954H129.276L128.419 105.466L110.849 95.3311C110.188 94.9404 110.188 94.0124 110.849 93.6218L129.251 83.0231C129.863 82.6811 130.622 82.6811 131.233 83.0231L149.66 93.6464C150.345 94.0124 150.345 94.9404 149.685 95.3064Z" fill="black"/>
<path d="M150.187 84.2768V88.5934C150.187 88.9348 150.04 89.2528 149.697 89.4481L132.102 99.5827L131.27 100.071L131.222 100.095H131.197C130.61 100.388 129.9 100.388 129.312 100.095H129.288L128.432 99.6068L110.861 89.4721C110.69 89.3747 110.568 89.2528 110.494 89.1061C110.421 88.9594 110.372 88.7888 110.372 88.6421V84.2768H117.909L129.264 77.7321C129.876 77.3901 130.634 77.3901 131.246 77.7321L142.601 84.2768H150.187Z" fill="#494949" stroke="black" stroke-width="0.654943" stroke-miterlimit="10" stroke-linecap="round"/>
<path d="M149.685 85.0852L132.09 95.2199L131.258 95.7086L131.209 95.7332H131.184C130.597 96.0259 129.888 96.0259 129.3 95.7332H129.276L128.419 95.2446L110.849 85.1099C110.188 84.7192 110.188 83.7912 110.849 83.4006L129.251 72.8019C129.863 72.4599 130.622 72.4599 131.233 72.8019L149.66 83.4246C150.345 83.7912 150.345 84.7192 149.685 85.0852Z" fill="#E1E1E1" stroke="black" stroke-width="0.654943" stroke-miterlimit="10" stroke-linecap="round" stroke-linejoin="round"/>
<path d="M139.922 84.6645L137.279 86.1785L130.769 89.9392H130.745C130.451 90.0858 130.109 90.0858 129.815 89.9392L123.281 86.1785L120.663 84.6645C120.345 84.4692 120.345 84.0052 120.663 83.8092L129.791 78.5592C130.085 78.3878 130.476 78.3878 130.769 78.5592L139.922 83.8338C140.24 84.0292 140.24 84.4692 139.922 84.6645Z" fill="#494949" stroke="black" stroke-width="0.654943" stroke-miterlimit="10" stroke-linecap="round" stroke-linejoin="round"/>
<path d="M137.284 86.1807L130.774 89.9413H130.749C130.456 90.088 130.113 90.088 129.819 89.9413L123.286 86.1807L129.795 82.42C130.089 82.2487 130.48 82.2487 130.774 82.42L137.284 86.1807Z" fill="#F2F2F2" stroke="black" stroke-width="0.654943" stroke-miterlimit="10" stroke-linecap="round" stroke-linejoin="round"/>
<path d="M135.947 78.7106C135.283 81.0093 134.168 82.6253 132.828 83.5306C132.371 83.83 131.874 84.056 131.366 84.2166L131.069 84.2846C129.026 84.7413 126.629 83.8666 124.436 81.5433C119.858 76.8113 117.659 67.906 119.474 61.6332C120.377 58.511 122.091 56.637 124.158 56.095C124.724 55.9505 125.35 55.9157 125.951 55.9661C127.598 56.133 129.332 57.0631 130.986 58.8005C135.543 63.4962 137.771 72.41 135.947 78.7106Z" fill="#A9E8A1" stroke="black" stroke-width="0.655106" stroke-miterlimit="10" stroke-linecap="round" stroke-linejoin="round"/>
<path d="M130.303 80.6879C133.668 79.8572 135.227 74.4719 133.787 68.6592C132.346 62.8466 128.45 58.8079 125.086 59.6385C121.721 60.4691 120.161 65.8545 121.602 71.6672C123.043 77.4799 126.939 81.5185 130.303 80.6879Z" fill="white" stroke="black" stroke-width="0.655106" stroke-miterlimit="10" stroke-linecap="round" stroke-linejoin="round"/>
<path fill-rule="evenodd" clip-rule="evenodd" d="M131.735 70.206C131.716 69.048 130.721 68.1434 129.433 67.362L129.564 65.838L128.559 65.3138L128.431 66.7974C128.167 66.6596 127.897 66.5236 127.628 66.3885L127.757 64.8952L126.753 64.3711L126.621 65.8942C126.402 65.7848 126.189 65.6771 125.98 65.5685L125.981 65.5637L124.595 64.8401L124.509 65.8308C124.509 65.8308 125.252 66.205 125.239 66.2112C125.646 66.4236 125.76 66.7107 125.782 66.9194L125.631 68.6554C125.659 68.67 125.696 68.69 125.737 68.7167L125.703 68.6994C125.679 68.6867 125.655 68.674 125.631 68.6614L125.42 71.0934C125.392 71.202 125.301 71.3514 125.016 71.2034C125.028 71.2207 124.286 70.822 124.286 70.822L123.99 71.826L125.298 72.508C125.444 72.584 125.589 72.6614 125.732 72.7374C125.826 72.788 125.921 72.8387 126.016 72.888L125.883 74.4294L126.886 74.9534L127.018 73.4287C127.293 73.5774 127.56 73.7187 127.821 73.854L127.688 75.372L128.694 75.896L128.827 74.358C130.524 75.15 131.741 75.374 132.015 73.986C132.235 72.8694 131.679 72.0294 130.739 71.3167C131.345 71.3467 131.751 71.054 131.735 70.206ZM130.036 72.7754C129.945 73.832 128.149 72.8707 127.326 72.4307C127.253 72.3914 127.187 72.356 127.13 72.3267L127.307 70.2847C127.376 70.3207 127.459 70.362 127.553 70.4094C128.398 70.8307 130.129 71.6947 130.036 72.7754ZM127.568 69.4354C128.254 69.804 129.749 70.608 129.833 69.648C129.918 68.6654 128.475 67.9494 127.77 67.6C127.691 67.5607 127.621 67.526 127.563 67.496L127.403 69.3474C127.45 69.372 127.506 69.402 127.568 69.4354Z" fill="#A9E8A1"/>
<path d="M129.433 67.362L129.22 67.2514L129.205 67.4294L129.397 67.546L129.433 67.362ZM129.564 65.838L129.777 65.9482L129.794 65.754L129.582 65.6436L129.564 65.838ZM128.559 65.3138L128.577 65.1193L128.364 65.0081L128.347 65.2036L128.559 65.3138ZM128.431 66.7974L128.414 66.992L128.627 67.1034L128.644 66.9074L128.431 66.7974ZM127.628 66.3885L127.415 66.2783L127.398 66.4764L127.614 66.5852L127.628 66.3885ZM127.757 64.8952L127.97 65.0054L127.986 64.8112L127.775 64.7007L127.757 64.8952ZM126.753 64.3711L126.77 64.1767L126.557 64.0654L126.54 64.2609L126.753 64.3711ZM126.621 65.8942L126.607 66.091L126.817 66.1959L126.833 66.0045L126.621 65.8942ZM125.98 65.5685L125.768 65.4633L125.756 65.6554L125.963 65.763L125.98 65.5685ZM125.981 65.5637L126.193 65.6689L126.205 65.477L125.998 65.3693L125.981 65.5637ZM124.595 64.8401L124.612 64.6457L124.399 64.5344L124.382 64.73L124.595 64.8401ZM124.509 65.8308L124.297 65.7207L124.279 65.9186L124.496 66.0274L124.509 65.8308ZM125.239 66.2112L125.092 65.9989L124.747 66.1578L125.221 66.4056L125.239 66.2112ZM125.782 66.9194L125.994 67.0294L125.996 67.0114L125.993 66.9914L125.782 66.9194ZM125.631 68.6554L125.419 68.5447L125.402 68.738L125.613 68.8487L125.631 68.6554ZM125.737 68.7167L125.72 68.9114L125.784 68.5394L125.737 68.7167ZM125.703 68.6994L125.686 68.8934V68.894L125.703 68.6994ZM125.631 68.6614L125.647 68.466L125.435 68.3574L125.418 68.5514L125.631 68.6614ZM125.42 71.0934L125.629 71.2294L125.631 71.2167L125.633 71.2034L125.42 71.0934ZM125.016 71.2034L125.033 71.0087L124.476 70.7187L124.862 71.2754L125.016 71.2034ZM124.286 70.822L124.307 70.6294L124.123 70.5314L124.079 70.682L124.286 70.822ZM123.99 71.826L123.783 71.6854L123.723 71.89L123.973 72.02L123.99 71.826ZM126.016 72.888L126.228 72.998L126.245 72.8054L126.034 72.694L126.016 72.888ZM125.883 74.4294L125.67 74.3194L125.653 74.5134L125.865 74.624L125.883 74.4294ZM126.886 74.9534L126.869 75.1474L127.082 75.2587L127.098 75.0634L126.886 74.9534ZM127.018 73.4287L127.04 73.236L126.823 73.1187L126.806 73.318L127.018 73.4287ZM127.821 73.854L128.033 73.9647L128.05 73.77L127.838 73.66L127.821 73.854ZM127.688 75.372L127.476 75.2614L127.459 75.456L127.671 75.566L127.688 75.372ZM128.694 75.896L128.676 76.0907L128.889 76.2014L128.906 76.006L128.694 75.896ZM128.827 74.358L128.832 74.1574L128.63 74.0634L128.614 74.2474L128.827 74.358ZM130.739 71.3167L130.658 71.0927L130.127 71.0667L130.672 71.4794L130.739 71.3167ZM127.13 72.3267L126.917 72.2167L126.901 72.4107L127.112 72.5214L127.13 72.3267ZM127.307 70.2847L127.325 70.0907L127.112 69.9794L127.094 70.1747L127.307 70.2847ZM127.563 67.496L127.581 67.3014L127.368 67.19L127.351 67.3854L127.563 67.496ZM127.403 69.3474L127.191 69.2374L127.174 69.4314L127.386 69.542L127.403 69.3474ZM129.397 67.546C130.029 67.93 130.562 68.3274 130.934 68.7514C131.295 69.1607 131.514 69.6027 131.522 70.1147L131.949 70.2974C131.938 69.6514 131.649 69.0614 131.186 68.534C130.733 68.0207 130.124 67.5754 129.469 67.178L129.397 67.546ZM129.352 65.7278L129.22 67.2514L129.645 67.472L129.777 65.9482L129.352 65.7278ZM128.542 65.5083L129.547 66.0325L129.582 65.6436L128.577 65.1193L128.542 65.5083ZM128.644 66.9074L128.772 65.424L128.347 65.2036L128.219 66.6874L128.644 66.9074ZM127.614 66.5852C127.883 66.72 128.152 66.8554 128.414 66.992L128.449 66.603C128.182 66.4638 127.909 66.3268 127.641 66.1918L127.614 66.5852ZM127.545 64.785L127.415 66.2783L127.84 66.4987L127.97 65.0054L127.545 64.785ZM126.735 64.5656L127.74 65.0896L127.775 64.7007L126.77 64.1767L126.735 64.5656ZM126.833 66.0045L126.965 64.4814L126.54 64.2609L126.408 65.784L126.833 66.0045ZM125.963 65.763C126.174 65.8728 126.39 65.9816 126.607 66.091L126.633 65.6976C126.416 65.5881 126.204 65.4813 125.997 65.374L125.963 65.763ZM125.768 65.4585V65.4633L126.193 65.6737V65.6689L125.768 65.4585ZM124.577 65.0346L125.963 65.7582L125.998 65.3693L124.612 64.6457L124.577 65.0346ZM124.722 65.941L124.807 64.9503L124.382 64.73L124.297 65.7207L124.722 65.941ZM125.386 66.4234C125.408 66.413 125.442 66.3878 125.45 66.3304C125.459 66.2704 125.435 66.2092 125.412 66.1695C125.377 66.1068 125.331 66.0677 125.327 66.0642C125.303 66.044 125.283 66.0306 125.279 66.0282C125.265 66.0188 125.249 66.0101 125.239 66.0042C125.216 65.9908 125.184 65.9739 125.15 65.9556C125.08 65.9186 124.987 65.8704 124.895 65.8231C124.802 65.7757 124.709 65.7285 124.639 65.6932C124.604 65.6755 124.575 65.6608 124.555 65.6505C124.544 65.6454 124.536 65.6413 124.531 65.6386C124.528 65.6372 124.526 65.6361 124.524 65.6354C124.524 65.635 124.524 65.6348 124.523 65.6346C124.523 65.6345 124.523 65.6344 124.522 65.6344C124.522 65.6344 124.522 65.6343 124.509 65.8308C124.496 66.0274 124.496 66.0274 124.496 66.0274C124.496 66.0274 124.496 66.0275 124.496 66.0274C124.496 66.0276 124.497 66.0281 124.498 66.0284C124.499 66.0292 124.501 66.0302 124.504 66.0316C124.509 66.0342 124.517 66.0382 124.527 66.0434C124.547 66.0536 124.576 66.0681 124.611 66.0856C124.68 66.1207 124.772 66.1674 124.864 66.2142C124.955 66.2612 125.046 66.3078 125.111 66.3426C125.144 66.3603 125.169 66.3736 125.183 66.3819C125.192 66.3868 125.192 66.3868 125.186 66.3835C125.185 66.3824 125.181 66.3799 125.176 66.3764C125.172 66.3736 125.162 66.3661 125.149 66.3548C125.146 66.3522 125.1 66.3139 125.066 66.2517C125.044 66.2123 125.019 66.1513 125.027 66.0916C125.035 66.0342 125.07 66.0092 125.092 65.9989L125.386 66.4234ZM125.993 66.9914C125.979 66.8607 125.935 66.6867 125.814 66.5027C125.689 66.3132 125.504 66.146 125.257 66.0167L125.221 66.4056C125.381 66.4888 125.456 66.5714 125.495 66.6308C125.538 66.696 125.561 66.7694 125.57 66.8467L125.993 66.9914ZM125.844 68.7654L125.994 67.0294L125.569 66.8087L125.419 68.5447L125.844 68.7654ZM125.784 68.5394C125.73 68.504 125.684 68.4787 125.65 68.4614L125.613 68.8487C125.636 68.8614 125.662 68.876 125.691 68.8947L125.784 68.5394ZM125.686 68.8934L125.72 68.9114L125.755 68.5227L125.721 68.5047L125.686 68.8934ZM125.615 68.8574C125.639 68.8694 125.662 68.8814 125.686 68.8934L125.721 68.5047C125.698 68.4927 125.673 68.4794 125.647 68.466L125.615 68.8574ZM125.633 71.2034L125.844 68.772L125.418 68.5514L125.208 70.9834L125.633 71.2034ZM124.999 71.398C125.2 71.5027 125.357 71.5114 125.466 71.4547C125.567 71.4014 125.61 71.3007 125.629 71.2294L125.212 70.9574C125.203 70.9947 125.185 71.0234 125.162 71.0354C125.152 71.04 125.14 71.0427 125.124 71.0414C125.107 71.0394 125.078 71.032 125.033 71.0087L124.999 71.398ZM124.286 70.822C124.265 71.0147 124.265 71.0147 124.265 71.0147C124.265 71.0154 124.265 71.0154 124.265 71.0154C124.266 71.0154 124.266 71.016 124.267 71.016C124.269 71.0167 124.271 71.018 124.273 71.0194C124.279 71.0227 124.287 71.0267 124.297 71.032C124.317 71.0434 124.346 71.0587 124.381 71.0774C124.451 71.1147 124.544 71.164 124.636 71.2127C124.728 71.262 124.822 71.3107 124.891 71.3467C124.925 71.364 124.957 71.38 124.979 71.3907C124.989 71.396 125.003 71.4027 125.017 71.408C125.02 71.4094 125.039 71.4174 125.06 71.422C125.067 71.424 125.078 71.426 125.092 71.4274C125.102 71.428 125.13 71.4294 125.157 71.4187C125.187 71.4074 125.231 71.3734 125.229 71.294C125.228 71.2214 125.188 71.1574 125.17 71.132L124.862 71.2754C124.844 71.25 124.805 71.186 124.803 71.114C124.801 71.034 124.846 71.0007 124.875 70.9894C124.903 70.9787 124.929 70.98 124.94 70.9807C124.953 70.982 124.964 70.984 124.97 70.9854C124.982 70.9887 124.991 70.992 124.995 70.9927C124.999 70.9947 125.002 70.996 125.003 70.996C125.007 70.998 125.006 70.9974 124.997 70.9934C124.981 70.986 124.957 70.9734 124.923 70.956C124.857 70.922 124.766 70.8747 124.675 70.826C124.583 70.7774 124.491 70.728 124.422 70.6914C124.387 70.6727 124.358 70.6574 124.338 70.6467C124.328 70.6414 124.32 70.6367 124.315 70.634C124.312 70.6327 124.31 70.6314 124.309 70.6307C124.308 70.63 124.307 70.63 124.307 70.63C124.307 70.63 124.307 70.6294 124.307 70.6294C124.307 70.6294 124.307 70.6294 124.286 70.822ZM124.197 71.966L124.492 70.9627L124.079 70.682L123.783 71.6854L124.197 71.966ZM125.315 72.3134L124.007 71.6314L123.973 72.02L125.28 72.7027L125.315 72.3134ZM125.752 72.5447C125.609 72.4687 125.463 72.3907 125.315 72.3134L125.28 72.7027C125.425 72.7787 125.569 72.8547 125.712 72.9307L125.752 72.5447ZM126.034 72.694C125.941 72.6447 125.847 72.5947 125.752 72.5447L125.712 72.9307C125.806 72.9814 125.902 73.032 125.996 73.082L126.034 72.694ZM126.095 74.5394L126.228 72.998L125.803 72.778L125.67 74.3194L126.095 74.5394ZM126.904 74.7587L125.9 74.2347L125.865 74.624L126.869 75.1474L126.904 74.7587ZM126.806 73.318L126.674 74.8427L127.098 75.0634L127.231 73.5387L126.806 73.318ZM127.838 73.66C127.579 73.5247 127.314 73.3847 127.04 73.236L126.996 73.6207C127.273 73.7707 127.541 73.9127 127.803 74.0487L127.838 73.66ZM127.901 75.482L128.033 73.9647L127.608 73.744L127.476 75.2614L127.901 75.482ZM128.711 75.7014L127.706 75.1774L127.671 75.566L128.676 76.0907L128.711 75.7014ZM128.614 74.2474L128.481 75.786L128.906 76.006L129.04 74.468L128.614 74.2474ZM131.804 73.8587C131.678 74.5007 131.343 74.7494 130.859 74.7654C130.358 74.7827 129.674 74.55 128.832 74.1574L128.821 74.5587C129.678 74.958 130.451 75.2334 131.05 75.2134C131.667 75.1927 132.077 74.8594 132.224 74.114L131.804 73.8587ZM130.672 71.4794C131.116 71.816 131.44 72.1607 131.633 72.5307C131.824 72.8974 131.908 73.3307 131.804 73.8587L132.224 74.114C132.341 73.5247 132.258 72.9794 131.991 72.4687C131.727 71.9614 131.302 71.5294 130.806 71.1534L130.672 71.4794ZM131.522 70.1147C131.53 70.506 131.439 70.7527 131.292 70.9C131.145 71.0474 130.93 71.1067 130.658 71.0927L130.82 71.54C131.154 71.5567 131.445 71.4847 131.649 71.2814C131.852 71.0774 131.957 70.754 131.949 70.2974L131.522 70.1147ZM127.306 72.624C127.712 72.8414 128.394 73.2074 128.989 73.38C129.287 73.466 129.584 73.51 129.817 73.448C130.058 73.384 130.22 73.208 130.248 72.8854L129.823 72.6654C129.805 72.8707 129.709 72.9707 129.562 73.01C129.407 73.0514 129.187 73.026 128.922 72.9487C128.39 72.7947 127.763 72.4607 127.347 72.238L127.306 72.624ZM127.112 72.5214C127.167 72.5494 127.231 72.584 127.306 72.624L127.347 72.238C127.273 72.1987 127.206 72.1627 127.148 72.132L127.112 72.5214ZM127.094 70.1747L126.917 72.2167L127.343 72.4367L127.52 70.3954L127.094 70.1747ZM127.566 70.2127C127.471 70.1647 127.39 70.1247 127.325 70.0907L127.289 70.4794C127.361 70.5167 127.447 70.56 127.541 70.6067L127.566 70.2127ZM130.248 72.8854C130.276 72.5607 130.165 72.24 129.963 71.9407C129.767 71.6514 129.495 71.3987 129.215 71.1834C128.656 70.7554 127.983 70.42 127.566 70.2127L127.541 70.6067C127.969 70.82 128.583 71.128 129.078 71.5067C129.324 71.696 129.521 71.8874 129.65 72.0774C129.771 72.2574 129.842 72.4494 129.823 72.6654L130.248 72.8854ZM129.62 69.5374C129.604 69.7254 129.523 69.816 129.406 69.8547C129.282 69.896 129.105 69.882 128.888 69.8234C128.453 69.706 127.938 69.43 127.589 69.2434L127.547 69.628C127.885 69.8094 128.46 70.12 128.964 70.2567C129.218 70.3254 129.473 70.3554 129.674 70.2887C129.883 70.2194 130.02 70.0507 130.045 69.758L129.62 69.5374ZM127.758 67.7974C128.117 67.9747 128.621 68.2267 129.025 68.5454C129.225 68.7027 129.381 68.8627 129.483 69.0214C129.579 69.1727 129.637 69.34 129.62 69.5374L130.045 69.758C130.071 69.4634 129.98 69.174 129.808 68.9034C129.641 68.6414 129.409 68.416 129.17 68.228C128.698 67.8554 128.129 67.574 127.782 67.4027L127.758 67.7974ZM127.546 67.69C127.607 67.722 127.68 67.758 127.758 67.7974L127.782 67.4027C127.702 67.3627 127.635 67.3294 127.581 67.3014L127.546 67.69ZM127.616 69.458L127.776 67.606L127.351 67.3854L127.191 69.2374L127.616 69.458ZM127.589 69.2434C127.528 69.21 127.47 69.1787 127.42 69.1534L127.386 69.542C127.43 69.5654 127.485 69.5947 127.547 69.628L127.589 69.2434Z" fill="black"/>
<path d="M139.307 77.8661C138.42 80.9315 136.735 82.8141 134.725 83.3721L134.456 83.4488L131.367 84.2195C131.868 84.0868 132.365 83.8608 132.829 83.5335C134.198 82.6361 135.293 80.9841 135.949 78.7135C137.765 72.4408 135.545 63.4988 131.016 58.8113C129.354 57.1023 127.62 56.1722 125.982 55.9769C125.352 55.9183 124.754 55.9613 124.188 56.1058L127.509 55.2791L127.61 55.247C129.698 54.7415 132.132 55.5965 134.382 57.9361C138.902 62.6519 141.13 71.5655 139.307 77.8661Z" fill="black"/>
<path d="M131.016 58.8113C129.354 57.1023 127.62 56.1722 125.982 55.9769C125.373 55.9203 124.794 55.9585 124.245 56.0915L124.188 56.1058C124.207 56.1009 124.227 56.0962 124.245 56.0915L127.509 55.2791L127.61 55.247C129.698 54.7415 132.132 55.5965 134.382 57.9361L131.016 58.8113Z" fill="white"/>
<path d="M131.017 58.8073C135.546 63.4948 137.765 72.4365 135.95 78.7092L139.307 77.8625C141.131 71.5612 138.903 62.648 134.382 57.9321L131.017 58.8073Z" fill="#A9E8A1"/>
<path d="M139.307 77.8661C138.42 80.9315 136.735 82.8141 134.725 83.3721L134.456 83.4488L131.367 84.2195C131.868 84.0868 132.365 83.8608 132.829 83.5335C134.198 82.6361 135.293 80.9841 135.949 78.7135C137.765 72.4408 135.545 63.4988 131.016 58.8113C129.354 57.1023 127.62 56.1722 125.982 55.9769C125.352 55.9183 124.754 55.9613 124.188 56.1058L127.509 55.2791L127.61 55.247C129.698 54.7415 132.132 55.5965 134.382 57.9361C138.902 62.6519 141.13 71.5655 139.307 77.8661Z" stroke="black" stroke-width="0.655106" stroke-miterlimit="10" stroke-linecap="round" stroke-linejoin="round"/>
<path d="M130.986 55.543L127.629 56.3898M133.34 56.9902L129.983 57.837M134.962 58.626L131.585 59.4362M136.23 60.3136L132.873 61.1604M137.258 62.0858L133.901 62.9326M138.091 63.8939L134.734 64.7407M138.785 65.7544L135.399 66.593M139.284 67.6507L135.927 68.4974M139.652 69.5714L136.296 70.418M139.894 71.824L136.517 72.6347M139.912 74.1047L136.527 74.9434M139.625 76.482L136.247 77.292M138.918 78.9227L135.561 79.7694M138.072 80.6774L134.694 81.488" stroke="black" stroke-width="0.655106" stroke-miterlimit="10" stroke-linecap="round" stroke-linejoin="round"/>
<path d="M40.5362 98.2902L22.9369 108.428L22.1047 108.916L22.0557 108.94H22.0312C21.4438 109.234 20.734 109.234 20.1465 108.94H20.122L19.2653 108.452L1.6905 98.3149C1.0296 97.9242 1.0296 96.9956 1.6905 96.6049L20.0975 86.0036C20.7094 85.6616 21.4683 85.6616 22.0802 86.0036L40.5117 96.6296C41.1971 96.9956 41.1971 97.9242 40.5362 98.2902Z" fill="black"/>
<path d="M41.0196 87.2622V91.5795C41.0196 91.9215 40.8727 92.2388 40.5301 92.4342L22.9308 102.571L22.0986 103.06L22.0496 103.084H22.0251C21.4377 103.377 20.7278 103.377 20.1403 103.084H20.1159L19.2592 102.596L1.68438 92.4588C1.51304 92.3608 1.39065 92.2388 1.31721 92.0922C1.24378 91.9455 1.19482 91.7748 1.19482 91.6282V87.2622H8.73385L20.0914 80.7155C20.7034 80.3735 21.4621 80.3735 22.0741 80.7155L33.4316 87.2622H41.0196Z" fill="#494949" stroke="black" stroke-width="0.655106" stroke-miterlimit="10" stroke-linecap="round"/>
<path d="M40.5362 88.0651L22.9369 98.2025L22.1047 98.6911L22.0557 98.7158H22.0312C21.4438 99.0085 20.734 99.0085 20.1465 98.7158H20.122L19.2653 98.2271L1.6905 88.0898C1.0296 87.6991 1.0296 86.7711 1.6905 86.3798L20.0975 75.7785C20.7094 75.4365 21.4683 75.4365 22.0802 75.7785L40.5117 86.4045C41.1971 86.7711 41.1971 87.6991 40.5362 88.0651Z" fill="#E1E1E1" stroke="black" stroke-width="0.655106" stroke-miterlimit="10" stroke-linecap="round" stroke-linejoin="round"/>
<path d="M30.7718 87.6458L28.1282 89.1605L21.6172 92.9218H21.5927C21.299 93.0685 20.9563 93.0685 20.6626 92.9218L14.1271 89.1605L11.5081 87.6458C11.1899 87.4505 11.1899 86.9865 11.5081 86.7911L20.6382 81.5391C20.9318 81.3685 21.3235 81.3685 21.6172 81.5391L30.7718 86.8151C31.09 87.0105 31.09 87.4505 30.7718 87.6458Z" fill="#494949" stroke="black" stroke-width="0.655106" stroke-miterlimit="10" stroke-linecap="round" stroke-linejoin="round"/>
<path d="M28.1133 89.1669L21.6023 92.9289H21.5778C21.2841 93.0749 20.9414 93.0749 20.6476 92.9289L14.1122 89.1669L20.6232 85.4049C20.9169 85.2342 21.3085 85.2342 21.6023 85.4049L28.1133 89.1669Z" fill="#F2F2F2" stroke="black" stroke-width="0.655106" stroke-miterlimit="10" stroke-linecap="round" stroke-linejoin="round"/>
<mask id="mask0_1_6158" style="mask-type:luminance" maskUnits="userSpaceOnUse" x="3" y="55" width="32" height="35">
<path d="M34.4991 62.2493L11.5265 55.6201L3.57634 83.0563L26.5489 89.6855L34.4991 62.2493Z" fill="white"/>
</mask>
<g mask="url(#mask0_1_6158)">
<path d="M25.5876 81.6233C24.9216 83.922 23.8066 85.5366 22.4662 86.4413C22.0099 86.74 21.5133 86.966 21.0045 87.1266L20.7076 87.1946C18.6653 87.6506 16.2695 86.7746 14.0776 84.4513C9.50292 79.718 7.30764 70.8146 9.12454 64.544C10.0289 61.423 11.7424 59.5501 13.8093 59.009C14.3749 58.8648 15.001 58.8302 15.6026 58.8808C17.2485 59.0484 18.9814 59.9789 20.6346 61.7164C25.189 66.4127 27.4127 75.3246 25.5876 81.6233Z" fill="#D7EEFF" stroke="black" stroke-width="0.654943" stroke-miterlimit="10" stroke-linecap="round" stroke-linejoin="round"/>
<path d="M19.9457 83.594C23.3098 82.7647 24.871 77.3814 23.4327 71.5701C21.9945 65.7584 18.1014 61.7193 14.7373 62.5483C11.3732 63.3774 9.812 68.7607 11.2502 74.5727C12.6885 80.3841 16.5816 84.4234 19.9457 83.594Z" fill="white" stroke="black" stroke-width="0.654943" stroke-miterlimit="10" stroke-linecap="round" stroke-linejoin="round"/>
<path d="M14.4814 70.5453L16.9125 74.3833L18.9925 67.2046L14.4814 70.5453Z" fill="white" stroke="black" stroke-width="0.654943" stroke-miterlimit="10" stroke-linecap="round" stroke-linejoin="round"/>
<path d="M18.9849 67.209L16.9049 74.387L19.9077 76.1456L18.9849 67.209Z" fill="#9EBBD1" stroke="black" stroke-width="0.654943" stroke-miterlimit="10" stroke-linecap="round" stroke-linejoin="round"/>
<path d="M16.4096 76.0596L15.5299 79.0956L19.4123 77.8182L16.4096 76.0596Z" fill="#9EBBD1" stroke="black" stroke-width="0.654943" stroke-miterlimit="10" stroke-linecap="round" stroke-linejoin="round"/>
<path d="M13.9866 72.1953L15.5297 79.0973L16.4094 76.0613L13.9866 72.1953Z" fill="white" stroke="black" stroke-width="0.654943" stroke-miterlimit="10" stroke-linecap="round" stroke-linejoin="round"/>
<path d="M28.9261 80.7795C28.0381 83.8435 26.3531 85.7248 24.343 86.2821L24.0745 86.3581L20.9864 87.1275C21.4869 86.9955 21.9836 86.7695 22.448 86.4421C23.8169 85.5461 24.9117 83.8941 25.5694 81.6248C27.3863 75.3541 25.1708 66.4138 20.6448 61.7258C18.9835 60.0166 17.2505 59.0861 15.6128 58.8902C14.9829 58.8314 14.3852 58.8741 13.8196 59.0183L17.1396 58.1932L17.2413 58.1611C19.3285 57.6565 21.7609 58.5122 24.0097 60.8521C28.5275 65.5685 30.7512 74.4808 28.9261 80.7795Z" fill="black"/>
<path d="M20.6448 61.7258C18.9835 60.0166 17.2505 59.0861 15.6128 58.8902C15.0041 58.8333 14.4254 58.8713 13.8768 59.0041L13.8196 59.0183C13.8386 59.0135 13.8577 59.0087 13.8768 59.0041L17.1396 58.1932L17.2413 58.1611C19.3285 57.6565 21.7609 58.5122 24.0097 60.8521L20.6448 61.7258Z" fill="white"/>
<path d="M20.6656 61.7204C25.1916 66.4084 27.4071 75.3488 25.5902 81.6195L28.9469 80.7742C30.772 74.4755 28.5483 65.5631 24.0305 60.8467L20.6656 61.7204Z" fill="#9EBBD1"/>
<path d="M28.9261 80.7795C28.0381 83.8435 26.3531 85.7248 24.343 86.2821L24.0745 86.3581L20.9864 87.1275C21.4869 86.9955 21.9836 86.7695 22.448 86.4421C23.8169 85.5461 24.9117 83.8941 25.5694 81.6248C27.3863 75.3541 25.1708 66.4138 20.6448 61.7258C18.9835 60.0166 17.2505 59.0861 15.6128 58.8902C14.9829 58.8314 14.3852 58.8741 13.8196 59.0183L17.1396 58.1932L17.2413 58.1611C19.3285 57.6565 21.7609 58.5122 24.0097 60.8521C28.5275 65.5685 30.7512 74.4808 28.9261 80.7795Z" stroke="black" stroke-width="0.654943" stroke-miterlimit="10" stroke-linecap="round" stroke-linejoin="round"/>
<path d="M20.6541 58.4673L17.2975 59.3126M23.0074 59.915L19.6508 60.7604M24.6283 61.551L21.2515 62.3598M25.8954 63.2387L22.5387 64.084M26.9223 65.0108L23.5657 65.8562M27.754 66.8189L24.3974 67.6643M28.4473 68.679L25.0622 69.5163M28.9453 70.575L25.5887 71.4203M29.3132 72.4956L25.9565 73.341M29.554 74.7476L26.1771 75.5563M29.5711 77.0276L26.186 77.865M29.283 79.4043L25.9061 80.213M28.5759 81.8443L25.2193 82.6896M27.7288 83.5983L24.352 84.407" stroke="black" stroke-width="0.654943" stroke-miterlimit="10" stroke-linecap="round" stroke-linejoin="round"/>
</g>
<path d="M115.266 108.877L81.7862 89.5867C79.8435 88.4674 76.6938 88.4674 74.7512 89.5867L34.6666 112.682C32.7239 113.801 32.7239 115.616 34.6666 116.735L68.1468 136.025C70.0895 137.144 73.2392 137.144 75.1818 136.025L115.266 112.93C117.209 111.81 117.209 109.996 115.266 108.877Z" fill="black"/>
<path d="M38.7147 110.169C38.8062 109.703 39.2158 109.367 39.6919 109.367C39.6919 109.367 39.7773 109.367 39.8627 109.367C39.9481 109.367 40.0335 109.367 40.0335 109.367C40.5835 109.367 41.0294 109.812 41.0294 110.361V111.65C41.0294 112.199 40.5835 112.644 40.0335 112.644C40.0335 112.644 39.8848 112.644 39.7362 112.644C39.5875 112.644 39.4388 112.644 39.4388 112.644C38.812 112.644 38.341 112.073 38.4615 111.459L38.7147 110.169Z" fill="black"/>
<path d="M38.0707 110.406L37.9324 111.111C37.897 111.291 38.0356 111.459 38.2202 111.459C38.3603 111.459 38.4809 111.36 38.5078 111.223L38.6461 110.519C38.6816 110.338 38.5429 110.169 38.3584 110.169C38.2182 110.169 38.0977 110.269 38.0707 110.406Z" fill="black"/>
<path d="M37.8462 111.699C37.8706 112.214 38.2973 112.644 38.8413 112.644H39.4388C38.9355 112.644 38.5326 112.276 38.4559 111.813C38.4257 111.631 38.2899 111.459 38.1053 111.459C37.9652 111.459 37.8396 111.559 37.8462 111.699Z" fill="black"/>
<path d="M38.2459 109.84C38.4229 109.553 38.7403 109.367 39.0945 109.367H39.692C39.2978 109.367 38.9494 109.597 38.789 109.941C38.7299 110.068 38.6135 110.169 38.4733 110.169C38.2888 110.169 38.1492 109.997 38.2459 109.84Z" fill="black"/>
<path d="M39.436 112.644C39.8836 112.644 40.2621 112.349 40.3877 111.944C40.4364 111.787 40.5656 111.65 40.7306 111.65C40.8956 111.65 41.0339 111.787 40.9852 111.944C40.8596 112.349 40.4811 112.644 40.0335 112.644H39.436Z" fill="black"/>
<path d="M40.3877 110.067C40.2621 109.661 39.8836 109.367 39.436 109.367H40.0335C40.4811 109.367 40.8596 109.661 40.9852 110.067C41.0339 110.224 40.8956 110.361 40.7306 110.361C40.5656 110.361 40.4364 110.224 40.3877 110.067Z" fill="black"/>
<path d="M40.4319 111.352V110.659C40.4319 110.494 40.5656 110.361 40.7306 110.361C40.8956 110.361 41.0294 110.494 41.0294 110.659V111.352C41.0294 111.517 40.8956 111.65 40.7306 111.65C40.5656 111.65 40.4319 111.517 40.4319 111.352Z" fill="black"/>
<path d="M39.8627 109.367C39.7773 109.367 39.692 109.367 39.692 109.367M39.8627 109.367C39.9482 109.367 40.0335 109.367 40.0335 109.367M39.8627 109.367H39.692M39.8627 109.367H39.436M39.8627 109.367H40.0335M39.692 109.367C39.2158 109.367 38.8062 109.703 38.7147 110.169L38.4615 111.459C38.341 112.073 38.812 112.644 39.4388 112.644M39.692 109.367C39.2978 109.367 38.9493 109.597 38.789 109.941C38.7299 110.068 38.6135 110.169 38.4733 110.169C38.2888 110.169 38.1492 109.997 38.2459 109.84C38.4229 109.553 38.7402 109.367 39.0944 109.367M39.692 109.367H39.0944M39.692 109.367H39.2652M40.0335 109.367C40.5835 109.367 41.0294 109.812 41.0294 110.361V111.65C41.0294 112.199 40.5835 112.644 40.0335 112.644M40.0335 109.367C40.4811 109.367 40.8596 109.661 40.9852 110.067C41.0339 110.224 40.8956 110.361 40.7306 110.361M40.0335 109.367H39.436M39.436 109.367H39.2652M39.436 109.367C39.8836 109.367 40.2621 109.661 40.3877 110.067C40.4364 110.224 40.5656 110.361 40.7306 110.361M39.7362 112.644C39.8848 112.644 40.0335 112.644 40.0335 112.644M39.7362 112.644C39.5875 112.644 39.4388 112.644 39.4388 112.644M39.7362 112.644H39.4388M39.7362 112.644H39.436M39.7362 112.644H40.0335M40.0335 112.644H39.436M40.0335 112.644C40.4811 112.644 40.8596 112.349 40.9852 111.944C41.0339 111.787 40.8956 111.65 40.7306 111.65M39.4388 112.644C38.9355 112.644 38.5326 112.276 38.4559 111.813C38.4257 111.631 38.2899 111.459 38.1053 111.459C37.9652 111.459 37.8396 111.559 37.8462 111.699C37.8706 112.214 38.2973 112.644 38.8413 112.644M39.4388 112.644H38.8413M39.4388 112.644H39.1387M39.436 112.644H39.1387M39.436 112.644C39.8836 112.644 40.2621 112.349 40.3877 111.944C40.4364 111.787 40.5656 111.65 40.7306 111.65M39.0944 109.367H39.2652M40.7306 110.361C40.8956 110.361 41.0294 110.494 41.0294 110.659V111.352C41.0294 111.517 40.8956 111.65 40.7306 111.65M40.7306 110.361C40.5656 110.361 40.4319 110.494 40.4319 110.659V111.352C40.4319 111.517 40.5656 111.65 40.7306 111.65M38.8413 112.644H39.1387M37.9325 111.111L38.0707 110.406C38.0977 110.269 38.2183 110.169 38.3585 110.169C38.543 110.169 38.6817 110.338 38.6462 110.519L38.5079 111.223C38.481 111.36 38.3604 111.459 38.2202 111.459C38.0357 111.459 37.897 111.291 37.9325 111.111Z" stroke="black" stroke-width="0.680945" stroke-linejoin="round"/>
<path d="M69.8052 127.658C69.8967 127.192 70.3062 126.855 70.7825 126.855C70.7825 126.855 70.8674 126.855 70.9529 126.855C71.0384 126.855 71.1239 126.855 71.1239 126.855C71.6737 126.855 72.12 127.301 72.12 127.849V129.139C72.12 129.687 71.6737 130.133 71.1239 130.133C71.1239 130.133 70.9749 130.133 70.8266 130.133C70.6776 130.133 70.5293 130.133 70.5293 130.133C69.902 130.133 69.4311 129.561 69.552 128.948L69.8052 127.658Z" fill="black"/>
<path d="M69.1612 127.895L69.0229 128.599C68.9875 128.78 69.1258 128.948 69.3108 128.948C69.4504 128.948 69.5714 128.849 69.5981 128.712L69.7364 128.008C69.7718 127.826 69.6335 127.658 69.4491 127.658C69.3088 127.658 69.1879 127.758 69.1612 127.895Z" fill="black"/>
<path d="M68.9368 129.188C68.9608 129.703 69.3877 130.133 69.9315 130.133H70.5294C70.0257 130.133 69.6229 129.765 69.546 129.302C69.516 129.12 69.3804 128.948 69.196 128.948C69.0557 128.948 68.9301 129.048 68.9368 129.188Z" fill="black"/>
<path d="M69.3362 127.329C69.5132 127.041 69.8306 126.855 70.1846 126.855H70.7825C70.3884 126.855 70.0397 127.086 69.8793 127.43C69.8205 127.557 69.7036 127.658 69.564 127.658C69.379 127.658 69.2393 127.486 69.3362 127.329Z" fill="black"/>
<path d="M70.5267 130.133C70.9737 130.133 71.3524 129.838 71.478 129.433C71.5268 129.275 71.6557 129.139 71.8207 129.139C71.9858 129.139 72.124 129.275 72.0753 129.433C71.9503 129.838 71.5716 130.133 71.124 130.133H70.5267Z" fill="black"/>
<path d="M71.478 127.555C71.3524 127.15 70.9737 126.855 70.5267 126.855H71.124C71.5716 126.855 71.9503 127.15 72.0753 127.555C72.124 127.713 71.9858 127.849 71.8207 127.849C71.6557 127.849 71.5268 127.713 71.478 127.555Z" fill="black"/>
<path d="M71.5221 128.84V128.147C71.5221 127.982 71.6557 127.849 71.8207 127.849C71.9857 127.849 72.12 127.982 72.12 128.147V128.84C72.12 129.005 71.9857 129.138 71.8207 129.138C71.6557 129.138 71.5221 129.005 71.5221 128.84Z" fill="black"/>
<path d="M70.953 126.855C70.8674 126.855 70.7826 126.855 70.7826 126.855M70.953 126.855C71.0385 126.855 71.124 126.855 71.124 126.855M70.953 126.855H70.7826M70.953 126.855H70.5267M70.953 126.855H71.124M70.7826 126.855C70.3063 126.855 69.8968 127.192 69.8052 127.658L69.5521 128.948C69.4311 129.561 69.9021 130.133 70.5294 130.133M70.7826 126.855C70.3885 126.855 70.0397 127.086 69.8794 127.43C69.8206 127.557 69.7037 127.658 69.5641 127.658C69.379 127.658 69.2394 127.486 69.3363 127.329C69.5133 127.041 69.8306 126.855 70.1847 126.855M70.7826 126.855H70.1847M70.7826 126.855H70.3557M71.124 126.855C71.6738 126.855 72.12 127.301 72.12 127.849V129.139C72.12 129.687 71.6738 130.133 71.124 130.133M71.124 126.855C71.5716 126.855 71.9503 127.15 72.0753 127.555C72.124 127.713 71.9858 127.849 71.8208 127.849M71.124 126.855H70.5267M70.5267 126.855H70.3557M70.5267 126.855C70.9737 126.855 71.3524 127.15 71.478 127.555C71.5268 127.713 71.6557 127.849 71.8208 127.849M70.8267 130.133C70.975 130.133 71.124 130.133 71.124 130.133M70.8267 130.133C70.6777 130.133 70.5294 130.133 70.5294 130.133M70.8267 130.133H70.5294M70.8267 130.133H70.5267M70.8267 130.133H71.124M71.124 130.133H70.5267M71.124 130.133C71.5716 130.133 71.9503 129.838 72.0753 129.433C72.124 129.275 71.9858 129.139 71.8208 129.139M70.5294 130.133C70.0257 130.133 69.6229 129.765 69.546 129.301C69.516 129.12 69.3804 128.948 69.196 128.948C69.0557 128.948 68.9301 129.048 68.9368 129.187C68.9608 129.703 69.3877 130.133 69.9315 130.133M70.5294 130.133H69.9315M70.5294 130.133H70.2288M70.5267 130.133H70.2288M70.5267 130.133C70.9737 130.133 71.3524 129.838 71.478 129.433C71.5268 129.275 71.6557 129.139 71.8208 129.139M70.1847 126.855H70.3557M71.8208 127.849C71.9858 127.849 72.12 127.983 72.12 128.147V128.841C72.12 129.005 71.9858 129.139 71.8208 129.139M71.8208 127.849C71.6557 127.849 71.5221 127.983 71.5221 128.147V128.841C71.5221 129.005 71.6557 129.139 71.8208 129.139M69.9315 130.133H70.2288M69.023 128.599L69.1612 127.895C69.188 127.757 69.3089 127.658 69.4492 127.658C69.6336 127.658 69.7718 127.826 69.7364 128.007L69.5981 128.711C69.5714 128.849 69.4505 128.948 69.3109 128.948C69.1258 128.948 68.9875 128.78 69.023 128.599Z" stroke="black" stroke-width="0.680945" stroke-linejoin="round"/>
<path d="M38.1169 110.169C38.2084 109.703 38.618 109.367 39.0942 109.367H39.4357C39.9857 109.367 40.4316 109.812 40.4316 110.361V111.65C40.4316 112.199 39.9857 112.644 39.4357 112.644H38.841C38.2142 112.644 37.7433 112.073 37.8637 111.459L38.1169 110.169Z" fill="white" stroke="black" stroke-width="0.680945"/>
<path d="M69.2073 127.658C69.2988 127.192 69.7084 126.855 70.1847 126.855H70.5261C71.0765 126.855 71.5221 127.301 71.5221 127.849V129.139C71.5221 129.687 71.0765 130.133 70.5261 130.133H69.9315C69.3049 130.133 68.8339 129.561 68.9541 128.948L69.2073 127.658Z" fill="white" stroke="black" stroke-width="0.680945"/>
<path d="M35.9781 56.1328L75.9546 79.1653V131.138L37.703 109.099C36.7503 108.55 35.9781 107.215 35.9781 106.118V56.1328Z" fill="#E1E1E1" stroke="black" stroke-width="0.680945"/>
<path d="M37.7814 61.0892C37.7814 59.9916 38.5536 59.5466 39.5062 60.0954L72.6945 79.2168C73.6472 79.7661 74.4194 81.1008 74.4194 82.1981V126.507C74.4194 127.604 73.6472 128.049 72.6945 127.5L39.5062 108.379C38.5536 107.83 37.7814 106.495 37.7814 105.397V61.0892Z" fill="#E1E1E1" stroke="black" stroke-width="0.680945"/>
<path d="M75.9552 79.2432L115.931 56.2104V106.195C115.931 107.293 115.159 108.628 114.206 109.177L75.9552 131.215V79.2432Z" fill="#494949" stroke="black" stroke-width="0.680945"/>
<path d="M115.503 55.2784L77.3329 33.2864C76.6853 32.9133 75.6355 32.9133 74.9879 33.2864L36.5083 55.4566C35.8608 55.8297 35.8608 56.4346 36.5083 56.8077L74.6786 78.7997C75.3261 79.1728 76.376 79.1728 77.0235 78.7997L115.503 56.6294C116.151 56.2564 116.151 55.6515 115.503 55.2784Z" fill="#D1AA67" stroke="black" stroke-width="0.680944" stroke-miterlimit="10" stroke-linecap="round" stroke-linejoin="round"/>
<path d="M58.1681 97.6072C58.1681 99.4719 57.5182 100.809 56.5028 101.458L56.3403 101.579C55.2437 102.147 53.7815 102.025 52.1568 101.093C48.8263 99.1879 46.105 94.4859 46.105 90.6759C46.105 88.8119 46.7142 87.5146 47.7702 86.8259L47.9733 86.7039C49.0294 86.1366 50.4915 86.2579 52.1162 87.1499H52.1568C55.4468 89.0952 58.1681 93.7566 58.1681 97.6072Z" fill="#F2F2F2" stroke="black" stroke-width="0.680945" stroke-miterlimit="10" stroke-linecap="round" stroke-linejoin="round"/>
<path d="M62.7372 94.8659V94.9066C62.7372 96.7706 62.0873 98.1086 61.0719 98.7572L60.8688 98.8786L56.3604 101.473C57.3758 100.824 58.0257 99.5272 58.0257 97.6626V97.6219C58.0257 93.7712 55.3044 89.1099 51.9738 87.2052H51.9332C50.3491 86.2732 48.887 86.1919 47.7903 86.7592L52.2581 84.2059L52.4612 84.0839C53.5578 83.5166 55.0201 83.6386 56.6041 84.5706C56.6447 84.5706 56.6853 84.6112 56.6853 84.6519C60.0971 86.4759 62.7372 91.0966 62.7372 94.8659Z" fill="#787878" stroke="black" stroke-width="0.680945" stroke-miterlimit="10" stroke-linecap="round" stroke-linejoin="round"/>
<path d="M52.0824 97.9732L45.2589 97.3246L44.1216 94.1226L49.2799 94.4466L50.9858 94.5686L51.2295 95.2979L52.0824 97.9732Z" fill="#F2F2F2" stroke="black" stroke-width="0.680945" stroke-miterlimit="10" stroke-linecap="round" stroke-linejoin="round"/>
<path d="M56.3472 95.7807L52.0825 97.97L51.2295 95.2947L50.9858 94.5647L49.2799 94.4433L44.1216 94.1193L48.3863 91.9307L55.2505 92.3353L56.3472 95.7807Z" fill="#D1AA67" stroke="black" stroke-width="0.680945" stroke-miterlimit="10" stroke-linecap="round" stroke-linejoin="round"/>
<path d="M50.9049 94.5207L55.1697 92.292" stroke="black" stroke-width="0.680945" stroke-miterlimit="10" stroke-linecap="round" stroke-linejoin="round"/>
<path d="M61.8845 82.4804L49.0903 75.1038C48.8466 74.9418 48.6841 74.6578 48.6841 74.3738V70.3211C48.6841 69.8751 49.1715 69.6318 49.537 69.8344L62.3313 77.2111C62.5749 77.3731 62.7374 77.6571 62.7374 77.9411V81.9944C62.7374 82.3998 62.25 82.6831 61.8845 82.4804Z" fill="#F2F2F2" stroke="black" stroke-width="0.680945" stroke-miterlimit="10" stroke-linecap="round" stroke-linejoin="round"/>
<path d="M54.7726 75.4819L60.1746 78.6026" stroke="black" stroke-width="0.680945" stroke-miterlimit="10" stroke-linecap="round" stroke-linejoin="round"/>
<path d="M51.3818 73.5024L53.2096 74.5564" stroke="black" stroke-width="0.680945" stroke-miterlimit="10" stroke-linecap="round" stroke-linejoin="round"/>
<path d="M48.3768 111.718C47.7676 111.353 47.2802 110.543 47.2802 109.853V105.8C47.2802 105.111 47.7676 104.827 48.3768 105.193C48.9861 105.557 49.4735 106.368 49.4735 107.057V111.11C49.4735 111.799 48.9861 112.042 48.3768 111.718Z" fill="black" stroke="black" stroke-width="0.680945" stroke-miterlimit="10" stroke-linecap="round" stroke-linejoin="round"/>
<path d="M53.1954 114.469C52.5862 114.104 52.0988 113.294 52.0988 112.604V108.551C52.0988 107.862 52.5862 107.578 53.1954 107.943C53.8047 108.308 54.2921 109.119 54.2921 109.808V113.861C54.2921 114.55 53.8047 114.834 53.1954 114.469Z" fill="black" stroke="black" stroke-width="0.680945" stroke-miterlimit="10" stroke-linecap="round" stroke-linejoin="round"/>
<path d="M57.9957 117.373C57.3865 117.007 56.899 116.197 56.899 115.508V111.455C56.899 110.765 57.3865 110.482 57.9957 110.847C58.6049 111.211 59.0923 112.022 59.0923 112.711V116.765C59.0923 117.413 58.6049 117.697 57.9957 117.373Z" fill="black" stroke="black" stroke-width="0.680945" stroke-miterlimit="10" stroke-linecap="round" stroke-linejoin="round"/>
<path d="M37.7662 68.4221C37.7662 68.0061 38.0676 67.6608 38.4643 67.5908C38.5122 67.5828 38.5616 67.5781 38.612 67.5781C39.0792 67.5781 39.4578 67.9561 39.4578 68.4221V74.5581C39.4578 74.9741 39.1566 75.3195 38.76 75.3895C38.712 75.3975 38.6625 75.4021 38.612 75.4021C38.1449 75.4021 37.7662 75.0241 37.7662 74.5581V68.4221Z" fill="#D1AA67"/>
<path d="M36.7855 74.7308C36.7855 75.1968 37.1642 75.5748 37.6313 75.5748L38.612 75.4021C38.1449 75.4021 37.7662 75.0241 37.7662 74.5581L36.7855 74.7308Z" fill="#D1AA67"/>
<path d="M36.7855 68.5945V74.7305L37.7662 74.5579V68.4219L36.7855 68.5945Z" fill="#D1AA67"/>
<path d="M37.6312 75.5745C37.6817 75.5745 37.7312 75.5698 37.7793 75.5618L38.76 75.3892C38.7119 75.3972 38.6624 75.4018 38.6119 75.4018L37.6312 75.5745Z" fill="#D1AA67"/>
<path d="M37.7793 75.5621C38.1759 75.4921 38.4771 75.1461 38.4771 74.7308L39.4578 74.5581C39.4578 74.9741 39.1565 75.3194 38.76 75.3894L37.7793 75.5621Z" fill="#D1AA67"/>
<path d="M36.7855 68.5948C36.7855 68.1788 37.0869 67.8335 37.4836 67.7635L38.4643 67.5908C38.0676 67.6608 37.7662 68.0062 37.7662 68.4222L36.7855 68.5948Z" fill="#D1AA67"/>
<path d="M37.4835 67.7635C37.5315 67.7555 37.5809 67.7508 37.6312 67.7508L38.6119 67.5781C38.5616 67.5781 38.5122 67.5828 38.4642 67.5908L37.4835 67.7635Z" fill="#D1AA67"/>
<path d="M38.4771 74.7305V68.5945L39.4577 68.4219V74.5579L38.4771 74.7305Z" fill="#D1AA67"/>
<path d="M38.477 68.5948C38.477 68.1288 38.0983 67.7508 37.6312 67.7508L38.6119 67.5781C39.0791 67.5781 39.4577 67.9561 39.4577 68.4221L38.477 68.5948Z" fill="#D1AA67"/>
<path d="M38.612 75.4021C38.1449 75.4021 37.7662 75.0241 37.7662 74.5581M38.612 75.4021C38.6625 75.4021 38.712 75.3975 38.76 75.3895M38.612 75.4021L37.6313 75.5748M37.7662 74.5581V68.4221M37.7662 74.5581L36.7855 74.7308M38.76 75.3895C39.1566 75.3195 39.4578 74.9741 39.4578 74.5581M38.76 75.3895L37.7793 75.5621M37.6313 75.5748C37.1642 75.5748 36.7855 75.1968 36.7855 74.7308M37.6313 75.5748C37.6818 75.5748 37.7312 75.5701 37.7793 75.5621M37.7662 68.4221C37.7662 68.0061 38.0676 67.6608 38.4643 67.5908M37.7662 68.4221L36.7855 68.5948M36.7855 74.7308V68.5948M39.4578 74.5581V68.4221M39.4578 74.5581L38.4771 74.7308M39.4578 68.4221C39.4578 67.9561 39.0791 67.5781 38.612 67.5781M39.4578 68.4221L38.4771 68.5948M38.4771 74.7308C38.4771 75.1461 38.1759 75.4921 37.7793 75.5621M38.4771 74.7308V68.5948M38.612 67.5781C38.5616 67.5781 38.5122 67.5828 38.4643 67.5908M38.612 67.5781L37.6313 67.7508M38.4643 67.5908L37.4836 67.7635M37.6313 67.7508C37.5809 67.7508 37.5315 67.7555 37.4836 67.7635M37.6313 67.7508C38.0984 67.7508 38.4771 68.1288 38.4771 68.5948M36.7855 68.5948C36.7855 68.1788 37.0869 67.8335 37.4836 67.7635" stroke="black" stroke-width="0.596273" stroke-miterlimit="10" stroke-linecap="round" stroke-linejoin="round"/>
<path d="M36.7855 68.5945C36.7855 68.1285 37.1642 67.7505 37.6313 67.7505C38.0984 67.7505 38.4771 68.1285 38.4771 68.5945V74.7305C38.4771 75.1965 38.0984 75.5745 37.6313 75.5745C37.1642 75.5745 36.7855 75.1965 36.7855 74.7305V68.5945Z" fill="#F2F2F2" stroke="black" stroke-width="0.596273"/>
<path d="M37.7662 96.248C37.7662 95.832 38.0676 95.486 38.4643 95.4167C38.5122 95.408 38.5616 95.4033 38.612 95.4033C39.0792 95.4033 39.4578 95.7813 39.4578 96.248V102.383C39.4578 102.799 39.1566 103.145 38.76 103.215C38.712 103.223 38.6625 103.227 38.612 103.227C38.1449 103.227 37.7662 102.849 37.7662 102.383V96.248Z" fill="#D1AA67"/>
<path d="M36.7855 102.556C36.7855 103.022 37.1642 103.4 37.6313 103.4L38.612 103.227C38.1449 103.227 37.7662 102.849 37.7662 102.383L36.7855 102.556Z" fill="#D1AA67"/>
<path d="M36.7855 96.4201V102.556L37.7662 102.383V96.248L36.7855 96.4201Z" fill="#D1AA67"/>
<path d="M37.6312 103.4C37.6817 103.4 37.7312 103.396 37.7793 103.388L38.76 103.215C38.7119 103.224 38.6624 103.228 38.6119 103.228L37.6312 103.4Z" fill="#D1AA67"/>
<path d="M37.7793 103.387C38.1759 103.317 38.4771 102.972 38.4771 102.556L39.4578 102.383C39.4578 102.799 39.1565 103.145 38.76 103.215L37.7793 103.387Z" fill="#D1AA67"/>
<path d="M36.7855 96.4198C36.7855 96.0045 37.0869 95.6585 37.4836 95.5892L38.4643 95.4165C38.0676 95.4858 37.7662 95.8318 37.7662 96.2478L36.7855 96.4198Z" fill="#D1AA67"/>
<path d="M37.4835 95.5893C37.5315 95.5807 37.5809 95.576 37.6312 95.576L38.6119 95.4033C38.5616 95.4033 38.5122 95.408 38.4642 95.4167L37.4835 95.5893Z" fill="#D1AA67"/>
<path d="M38.4771 102.556V96.4201L39.4577 96.248V102.383L38.4771 102.556Z" fill="#D1AA67"/>
<path d="M38.477 96.42C38.477 95.954 38.0983 95.576 37.6312 95.576L38.6119 95.4033C39.0791 95.4033 39.4577 95.7813 39.4577 96.248L38.477 96.42Z" fill="#D1AA67"/>
<path d="M38.612 103.227C38.1449 103.227 37.7662 102.849 37.7662 102.383M38.612 103.227C38.6625 103.227 38.712 103.223 38.76 103.215M38.612 103.227L37.6313 103.4M37.7662 102.383V96.248M37.7662 102.383L36.7855 102.556M38.76 103.215C39.1566 103.145 39.4578 102.799 39.4578 102.383M38.76 103.215L37.7793 103.387M37.6313 103.4C37.1642 103.4 36.7855 103.022 36.7855 102.556M37.6313 103.4C37.6818 103.4 37.7312 103.396 37.7793 103.387M37.7662 96.248C37.7662 95.832 38.0676 95.486 38.4643 95.4167M37.7662 96.248L36.7855 96.42M36.7855 102.556V96.42M39.4578 102.383V96.248M39.4578 102.383L38.4771 102.556M39.4578 96.248C39.4578 95.7813 39.0791 95.4033 38.612 95.4033M39.4578 96.248L38.4771 96.42M38.4771 102.556C38.4771 102.972 38.1759 103.317 37.7793 103.387M38.4771 102.556V96.42M38.612 95.4033C38.5616 95.4033 38.5122 95.408 38.4643 95.4167M38.612 95.4033L37.6313 95.576M38.4643 95.4167L37.4836 95.5893M37.6313 95.576C37.5809 95.576 37.5315 95.5807 37.4836 95.5893M37.6313 95.576C38.0984 95.576 38.4771 95.954 38.4771 96.42M36.7855 96.42C36.7855 96.0047 37.0869 95.6587 37.4836 95.5893" stroke="black" stroke-width="0.596273" stroke-miterlimit="10" stroke-linecap="round" stroke-linejoin="round"/>
<path d="M36.7855 96.4202C36.7855 95.9542 37.1642 95.5762 37.6313 95.5762C38.0984 95.5762 38.4771 95.9542 38.4771 96.4202V102.556C38.4771 103.022 38.0984 103.4 37.6313 103.4C37.1642 103.4 36.7855 103.022 36.7855 102.556V96.4202Z" fill="#F2F2F2" stroke="black" stroke-width="0.596273"/>
<path d="M89.2099 62.586L63.8721 47.9874C62.9195 47.4386 61.375 47.4386 60.4224 47.9874L58.0644 49.346C57.1118 49.8949 57.1118 50.7847 58.0644 51.3336L83.4022 65.9321C84.3548 66.481 85.8993 66.481 86.8519 65.9321L89.2099 64.5735C90.1625 64.0247 90.1625 63.1348 89.2099 62.586Z" fill="black" stroke="black" stroke-width="1.00174" stroke-miterlimit="10" stroke-linecap="round" stroke-linejoin="round"/>
<mask id="mask1_1_6158" style="mask-type:alpha" maskUnits="userSpaceOnUse" x="55" y="0" width="43" height="73">
<path d="M96.8189 24.5484L55.1461 0.54834L55.541 48.5618L97.2138 72.5618L96.8189 24.5484Z" fill="#D9D9D9"/>
</mask>
<g mask="url(#mask1_1_6158)">
<path d="M85.5965 60.2992C84.5798 63.8147 82.8749 66.2858 80.8253 67.6701C80.1279 68.1274 79.3683 68.4728 78.59 68.7188L78.1357 68.8228C75.0126 69.5214 71.3477 68.1834 67.9941 64.6307C60.994 57.3945 57.6311 43.7772 60.4064 34.1857C61.7878 29.4116 64.4075 26.546 67.5685 25.7172C68.4337 25.4962 69.391 25.443 70.3115 25.5201C72.8288 25.7754 75.4796 27.1976 78.0095 29.8542C84.9779 37.0345 88.3843 50.6643 85.5965 60.2992Z" fill="white" stroke="black" stroke-width="1.00174" stroke-miterlimit="10" stroke-linecap="round" stroke-linejoin="round"/>
<path d="M76.9654 63.321C82.1107 62.0509 84.4956 53.8161 82.2924 44.928C80.0892 36.0398 74.1322 29.8642 68.9868 31.1343C63.8422 32.4044 61.4575 40.6392 63.6607 49.5273C65.8639 58.4154 71.8207 64.591 76.9654 63.321Z" fill="white" stroke="black" stroke-width="1.00174" stroke-miterlimit="10" stroke-linecap="round" stroke-linejoin="round"/>
<path fill-rule="evenodd" clip-rule="evenodd" d="M79.1551 47.2938C79.1257 45.5228 77.6033 44.1399 75.6338 42.9446L75.8356 40.6146L74.2984 39.813L74.1027 42.0817C73.6985 41.871 73.285 41.6629 72.8741 41.4564L73.0719 39.1729L71.536 38.3716L71.3336 40.7006C71.0002 40.5333 70.6729 40.3686 70.3549 40.2025V40.1952L68.2359 39.0888L68.1049 40.6037C68.1049 40.6037 69.2413 41.1758 69.2212 41.1852C69.8432 41.5101 70.0169 41.9493 70.051 42.2678L69.8211 44.9223C69.8646 44.9449 69.92 44.9758 69.9828 45.0169L69.9307 44.9897C69.8953 44.971 69.8586 44.9518 69.8205 44.9324L69.4985 48.6507C69.4557 48.8173 69.3154 49.0454 68.8805 48.8192C68.8986 48.8455 67.7635 48.2361 67.7635 48.2361L67.3113 49.7706L69.3114 50.8138C69.5345 50.9306 69.7557 51.0482 69.9741 51.1646L69.9755 51.1652C70.1204 51.2425 70.2647 51.3193 70.4084 51.3949L70.2046 53.7518L71.7398 54.5529L71.9415 52.2212C72.3624 52.4492 72.7699 52.6651 73.1681 52.8725L72.967 55.1931L74.5035 55.9946L74.7079 53.6425C77.3026 54.8536 79.1631 55.1962 79.5813 53.0744C79.9187 51.366 79.0696 50.082 77.6313 48.9919C78.5586 49.038 79.1792 48.5909 79.1551 47.2938ZM76.5571 51.2236C76.4181 52.8396 73.6711 51.3696 72.4138 50.6971C72.3009 50.6366 72.2001 50.5825 72.1139 50.5377L72.3844 47.4157C72.4893 47.4704 72.6169 47.5339 72.7612 47.606C74.0526 48.2505 76.7 49.5714 76.5571 51.2236ZM72.7839 46.1156C73.8321 46.6792 76.1188 47.9086 76.2464 46.4401C76.376 44.9378 74.1695 43.843 73.0919 43.3082C72.971 43.2481 72.8641 43.195 72.7766 43.1493L72.5314 45.981C72.6036 46.0186 72.6884 46.0644 72.7839 46.1156Z" fill="black"/>
<path d="M90.7332 59.0071C89.3771 63.6944 86.8011 66.5725 83.7267 67.4265L83.3159 67.5432L78.5934 68.7212C79.359 68.5185 80.1186 68.1732 80.8287 67.6725C82.9217 66.3011 84.5952 63.7741 85.5999 60.302C88.375 50.7105 84.9813 37.0373 78.0563 29.8695C75.5137 27.2563 72.8629 25.8341 70.3577 25.5354C69.3944 25.4458 68.4798 25.5115 67.6154 25.7325L72.6925 24.4685L72.8482 24.4193C76.0401 23.6463 79.7612 24.9537 83.2023 28.5313C90.1146 35.7424 93.521 49.3722 90.7332 59.0071Z" fill="black"/>
<path d="M78.0563 29.8695C75.5137 27.2563 72.8629 25.8341 70.3577 25.5354C69.4271 25.4489 68.5419 25.5073 67.7029 25.7107L67.6154 25.7325C67.6441 25.7251 67.6735 25.7178 67.7029 25.7107L72.6925 24.4685L72.8482 24.4193C76.0401 23.6463 79.7612 24.9537 83.2023 28.5313L78.0563 29.8695Z" fill="white"/>
<path d="M78.0569 29.8661C84.9819 37.0338 88.3762 50.707 85.6005 60.2986L90.7338 59.0037C93.5222 49.3688 90.1158 35.739 83.2029 28.5278L78.0569 29.8661Z" fill="#D1AA67"/>
<path d="M90.7332 59.0071C89.3771 63.6944 86.8011 66.5725 83.7267 67.4265L83.3159 67.5432L78.5934 68.7212C79.359 68.5185 80.1186 68.1732 80.8287 67.6725C82.9217 66.3011 84.5952 63.7741 85.5999 60.302C88.375 50.7105 84.9813 37.0373 78.0563 29.8695C75.5137 27.2563 72.8629 25.8341 70.3577 25.5354C69.3944 25.4458 68.4798 25.5115 67.6154 25.7325L72.6925 24.4685L72.8482 24.4193C76.0401 23.6463 79.7612 24.9537 83.2023 28.5313C90.1146 35.7424 93.521 49.3722 90.7332 59.0071Z" stroke="black" stroke-width="1.00174" stroke-miterlimit="10" stroke-linecap="round" stroke-linejoin="round"/>
<path d="M78.0095 24.874L72.8762 26.169M81.6103 27.087L76.4763 28.3818M84.0901 29.5884L78.9261 30.8273M86.0295 32.169L80.8955 33.4638M87.6007 34.8788L82.4674 36.1736M88.874 37.6436L83.7407 38.9385M89.9355 40.4886L84.7588 41.7709M90.6985 43.3885L85.5652 44.6834M91.2623 46.3251L86.129 47.62M91.6317 49.77L86.467 51.0089M91.6591 53.2573L86.4824 54.5397M91.2202 56.8923L86.0555 58.1312M90.14 60.6248L85.0067 61.9196M88.8453 63.308L83.6806 64.5469" stroke="black" stroke-width="1.00174" stroke-miterlimit="10" stroke-linecap="round" stroke-linejoin="round"/>
</g>
<path d="M121.888 148.499L104.293 158.633L103.461 159.122L103.412 159.146H103.387C102.8 159.439 102.091 159.439 101.503 159.146H101.479L100.622 158.658L83.0519 148.523C82.3912 148.133 82.3912 147.205 83.0519 146.814L101.454 136.215C102.066 135.873 102.825 135.873 103.437 136.215L121.864 146.838C122.548 147.205 122.548 148.133 121.888 148.499Z" fill="black"/>
<path d="M122.391 137.472V141.788C122.391 142.13 122.244 142.448 121.902 142.643L104.307 152.778L103.474 153.266L103.426 153.29H103.401C102.814 153.584 102.104 153.584 101.517 153.29H101.492L100.636 152.802L83.0654 142.668C82.8943 142.57 82.7714 142.448 82.6986 142.301C82.6251 142.155 82.5757 141.984 82.5757 141.837V137.472H90.1133L101.468 130.927C102.079 130.586 102.838 130.586 103.45 130.927L114.805 137.472H122.391Z" fill="#494949" stroke="black" stroke-width="0.654944" stroke-miterlimit="10" stroke-linecap="round"/>
<path d="M121.888 138.271L104.293 148.405L103.461 148.894L103.412 148.918H103.387C102.8 149.211 102.091 149.211 101.503 148.918H101.479L100.622 148.43L83.0519 138.295C82.3912 137.905 82.3912 136.977 83.0519 136.586L101.454 125.987C102.066 125.645 102.825 125.645 103.437 125.987L121.864 136.61C122.548 136.977 122.548 137.905 121.888 138.271Z" fill="#E1E1E1" stroke="black" stroke-width="0.654944" stroke-miterlimit="10" stroke-linecap="round" stroke-linejoin="round"/>
<path d="M112.145 137.851L109.502 139.365L102.993 143.126H102.968C102.675 143.273 102.332 143.273 102.038 143.126L95.5044 139.365L92.8856 137.851C92.5676 137.656 92.5676 137.192 92.8856 136.997L102.014 131.746C102.307 131.575 102.699 131.575 102.993 131.746L112.145 137.021C112.463 137.216 112.463 137.656 112.145 137.851Z" fill="#494949" stroke="black" stroke-width="0.654944" stroke-miterlimit="10" stroke-linecap="round" stroke-linejoin="round"/>
<path d="M109.487 139.371L102.978 143.131H102.953C102.659 143.278 102.317 143.278 102.023 143.131L95.4897 139.371L101.999 135.61C102.292 135.439 102.684 135.439 102.978 135.61L109.487 139.371Z" fill="#F2F2F2" stroke="black" stroke-width="0.654944" stroke-miterlimit="10" stroke-linecap="round" stroke-linejoin="round"/>
<path d="M101.195 138.557C100.634 138.379 100.109 138.083 99.6136 137.699C98.363 136.719 97.4171 135.089 96.9321 132.827C95.5552 126.613 98.2808 118.031 103.002 113.713C104.695 112.171 106.409 111.383 108.006 111.271C108.624 111.272 109.223 111.331 109.784 111.509C111.794 112.145 113.353 114.098 114.056 117.209C115.453 123.461 112.727 132.044 107.977 136.352C105.636 138.5 103.205 139.192 101.195 138.557Z" fill="#A9E8A1" stroke="#080809" stroke-width="0.898258" stroke-miterlimit="10" stroke-linecap="round" stroke-linejoin="round"/>
<path d="M102.069 135.823C101.655 135.691 101.269 135.472 100.912 135.165C100.008 134.425 99.3123 133.133 98.9923 131.377C98.0851 126.448 100.249 119.635 103.834 116.127C105.11 114.875 106.424 114.22 107.59 114.134C108.06 114.088 108.502 114.131 108.916 114.261C110.393 114.729 111.534 116.258 111.993 118.707C112.899 123.635 110.735 130.449 107.15 133.957C105.361 135.695 103.546 136.29 102.069 135.823Z" fill="white" stroke="black" stroke-width="0.654944" stroke-miterlimit="10" stroke-linecap="round" stroke-linejoin="round"/>
<path d="M101.206 138.56L96.95 137.214C94.9398 136.578 93.3813 134.624 92.6778 131.514C91.3103 125.271 94.036 116.688 98.7564 112.371C101.127 110.232 103.558 109.54 105.539 110.166L109.795 111.512C109.233 111.335 108.634 111.275 108.007 111.304C106.42 111.386 104.706 112.175 103.003 113.746C98.2828 118.063 95.5665 126.617 96.934 132.86C97.4283 135.093 98.3743 136.723 99.6149 137.732C100.12 138.086 100.644 138.382 101.206 138.56Z" fill="#A9E8A1" stroke="black" stroke-width="0.654944" stroke-miterlimit="10" stroke-linecap="round" stroke-linejoin="round"/>
<mask id="mask2_1_6158" style="mask-type:alpha" maskUnits="userSpaceOnUse" x="91" y="109" width="20" height="30">
<path d="M101.206 138.56L96.95 137.214C94.9398 136.578 93.3813 134.624 92.6778 131.514C91.3103 125.271 94.036 116.688 98.7564 112.371C101.127 110.232 103.558 109.54 105.539 110.166L109.795 111.512C109.233 111.335 108.634 111.275 108.007 111.304C106.42 111.386 104.706 112.175 103.003 113.746C98.2828 118.063 95.5665 126.617 96.934 132.86C97.4283 135.093 98.3743 136.723 99.6149 137.732C100.12 138.086 100.644 138.382 101.206 138.56Z" fill="#F5BC41" stroke="black" stroke-width="0.689621" stroke-miterlimit="10" stroke-linecap="round" stroke-linejoin="round"/>
</mask>
<g mask="url(#mask2_1_6158)">
<path d="M102.628 109.681L107.632 111M100.201 110.999L105 112.292M98.4938 112.546L103.025 113.934M97.137 114.163L101.379 115.576M96.016 115.877L100.201 117.218M95.0875 117.638L99.0757 118.86M94.2945 119.458L98.4938 120.83M93.6946 121.325L97.5339 122.472M93.2236 123.222L97.137 124.443M92.4948 125.427L96.7602 126.741M92.1654 127.726L96.7602 129.04M92.1654 130.025L96.7602 131.339M92.4948 132.324L97.137 133.637M93.6946 134.294L97.5339 135.279" stroke="black" stroke-width="0.654944" stroke-miterlimit="10" stroke-linecap="round" stroke-linejoin="round"/>
<path d="M101.258 134.844L91.1212 131.999L89.5171 137.689L99.6539 140.535L101.258 134.844Z" fill="black"/>
</g>
<path d="M103.374 128.682L103.107 129.531L103.041 129.739L103.248 129.81L104.742 130.321L104.949 130.392L105.014 130.184L105.267 129.38C105.518 129.41 105.762 129.414 105.999 129.391C106.512 129.341 106.961 129.168 107.337 128.866L107.338 128.865C107.713 128.56 107.979 128.146 108.141 127.632C108.314 127.08 108.31 126.552 108.114 126.06C107.919 125.57 107.543 125.136 107.01 124.754L105.245 123.487C105.245 123.486 105.245 123.486 105.245 123.486C105.033 123.332 104.915 123.192 104.86 123.074V123.074L104.857 123.068C104.804 122.961 104.794 122.843 104.839 122.698C104.903 122.496 105.051 122.349 105.333 122.266H105.334C105.613 122.182 105.939 122.195 106.32 122.326C106.717 122.461 107.014 122.688 107.222 123.006C107.428 123.323 107.517 123.685 107.485 124.103L107.469 124.306L107.668 124.341L109.222 124.62L109.435 124.658L109.469 124.443C109.562 123.862 109.525 123.309 109.351 122.79C109.177 122.276 108.885 121.823 108.48 121.436L108.479 121.434C108.305 121.27 108.114 121.123 107.905 120.992L108.165 120.166L108.231 119.958L105.239 120.542M103.374 128.682C103.221 128.58 103.079 128.468 102.947 128.347C102.571 128.007 102.294 127.602 102.117 127.134C101.936 126.668 101.864 126.156 101.894 125.6L101.906 125.362L102.139 125.398L103.762 125.652L103.968 125.684L103.95 125.894C103.931 126.112 103.958 126.314 104.029 126.503L104.03 126.505C104.101 126.697 104.212 126.866 104.365 127.012L104.369 127.015C104.517 127.162 104.701 127.279 104.925 127.363C105.14 127.444 105.342 127.478 105.531 127.471C105.719 127.462 105.872 127.417 105.997 127.34C106.111 127.27 106.183 127.178 106.22 127.059C106.257 126.94 106.244 126.816 106.156 126.67C106.062 126.52 105.873 126.338 105.562 126.126L104.291 125.256L104.29 125.256C103.638 124.806 103.182 124.334 102.958 123.834C102.727 123.325 102.718 122.762 102.908 122.158C103.075 121.626 103.362 121.198 103.77 120.88C104.174 120.566 104.657 120.382 105.212 120.323M103.374 128.682C103.436 128.723 103.5 128.763 103.565 128.802L103.633 128.588C103.567 128.549 103.504 128.508 103.442 128.466M105.212 120.323H105.213L105.239 120.542M105.212 120.323L105.239 120.542L105.212 120.323ZM105.212 120.323C105.468 120.295 105.732 120.297 106.002 120.328L105.935 120.542C105.696 120.517 105.464 120.517 105.239 120.542M102.11 125.616L102.326 125.65C102.327 125.644 102.327 125.638 102.327 125.633L102.11 125.616ZM102.11 125.616L102.081 125.834L102.104 125.837C102.104 125.764 102.106 125.691 102.11 125.616Z" fill="#A9E8A1"/>
<path d="M103.374 128.682L103.107 129.531L103.041 129.739L103.248 129.81L104.742 130.321L104.949 130.392L105.014 130.184L105.267 129.38C105.518 129.41 105.762 129.414 105.999 129.391C106.512 129.341 106.961 129.168 107.337 128.866L107.338 128.865C107.713 128.56 107.979 128.146 108.141 127.632C108.314 127.08 108.31 126.552 108.114 126.06C107.919 125.57 107.543 125.136 107.01 124.754L105.245 123.487C105.245 123.486 105.245 123.486 105.245 123.486C105.033 123.332 104.915 123.192 104.86 123.074V123.074L104.857 123.068C104.804 122.961 104.794 122.843 104.839 122.698C104.903 122.496 105.051 122.349 105.333 122.266H105.334C105.613 122.182 105.939 122.195 106.32 122.326C106.717 122.461 107.014 122.688 107.222 123.006C107.428 123.323 107.517 123.685 107.485 124.103L107.469 124.306L107.668 124.341L109.222 124.62L109.435 124.658L109.469 124.443C109.562 123.862 109.525 123.309 109.351 122.79C109.177 122.276 108.885 121.823 108.48 121.436L108.479 121.434C108.305 121.27 108.114 121.123 107.905 120.992L108.165 120.166L108.231 119.958L105.239 120.542M103.374 128.682C103.221 128.58 103.079 128.468 102.947 128.347C102.571 128.007 102.294 127.602 102.117 127.134C101.936 126.668 101.864 126.156 101.894 125.6L101.906 125.362L102.139 125.398L103.762 125.652L103.968 125.684L103.95 125.894C103.931 126.112 103.958 126.314 104.029 126.503L104.03 126.505C104.101 126.697 104.212 126.866 104.365 127.012L104.369 127.015C104.517 127.162 104.701 127.279 104.925 127.363C105.14 127.444 105.342 127.478 105.531 127.471C105.719 127.462 105.872 127.417 105.997 127.34C106.111 127.27 106.183 127.178 106.22 127.059C106.257 126.94 106.244 126.816 106.156 126.67C106.062 126.52 105.873 126.338 105.562 126.126L104.291 125.256L104.29 125.256C103.638 124.806 103.182 124.334 102.958 123.834C102.727 123.325 102.718 122.762 102.908 122.158C103.075 121.626 103.362 121.198 103.77 120.88C104.174 120.566 104.657 120.382 105.212 120.323M103.374 128.682C103.436 128.723 103.5 128.763 103.565 128.802L103.633 128.588C103.567 128.549 103.504 128.508 103.442 128.466M105.239 120.542L105.213 120.323H105.212M105.239 120.542L105.212 120.323M105.239 120.542C105.464 120.517 105.696 120.517 105.935 120.542L106.002 120.328C105.732 120.297 105.468 120.295 105.212 120.323M102.11 125.616L102.326 125.65C102.327 125.644 102.327 125.638 102.327 125.633L102.11 125.616ZM102.11 125.616L102.081 125.834L102.104 125.837C102.104 125.764 102.106 125.691 102.11 125.616Z" stroke="black" stroke-width="0.654944"/>
</svg>
