<svg width="14" height="14" viewBox="0 0 14 14" fill="none" xmlns="http://www.w3.org/2000/svg">
<path d="M6.66667 13.3333C10.3487 13.3333 13.3333 10.3487 13.3333 6.66667C13.3333 2.98467 10.3487 0 6.66667 0C2.98467 0 0 2.98467 0 6.66667C0 10.3487 2.98467 13.3333 6.66667 13.3333ZM6 3.33333C6 3.28956 6.00862 3.24621 6.02537 3.20577C6.04213 3.16533 6.06668 3.12858 6.09763 3.09763C6.12858 3.06668 6.16533 3.04212 6.20577 3.02537C6.24621 3.00862 6.28956 3 6.33333 3H7C7.04377 3 7.08712 3.00862 7.12756 3.02537C7.168 3.04212 7.20475 3.06668 7.2357 3.09763C7.26665 3.12858 7.29121 3.16533 7.30796 3.20577C7.32471 3.24621 7.33333 3.28956 7.33333 3.33333V6H10C10.0438 6 10.0871 6.00862 10.1276 6.02537C10.168 6.04213 10.2048 6.06668 10.2357 6.09763C10.2667 6.12858 10.2912 6.16533 10.308 6.20577C10.3247 6.24621 10.3333 6.28956 10.3333 6.33333V7C10.3333 7.04377 10.3247 7.08712 10.308 7.12756C10.2912 7.168 10.2667 7.20475 10.2357 7.2357C10.2048 7.26665 10.168 7.29121 10.1276 7.30796C10.0871 7.32471 10.0438 7.33333 10 7.33333H7.33333V10C7.33333 10.0438 7.32471 10.0871 7.30796 10.1276C7.29121 10.168 7.26665 10.2048 7.2357 10.2357C7.20475 10.2667 7.168 10.2912 7.12756 10.308C7.08712 10.3247 7.04377 10.3333 7 10.3333H6.33333C6.28956 10.3333 6.24621 10.3247 6.20577 10.308C6.16533 10.2912 6.12858 10.2667 6.09763 10.2357C6.06668 10.2048 6.04213 10.168 6.02537 10.1276C6.00862 10.0871 6 10.0438 6 10V7.33333H3.33333C3.28956 7.33333 3.24621 7.32471 3.20577 7.30796C3.16533 7.29121 3.12858 7.26665 3.09763 7.2357C3.06668 7.20475 3.04212 7.168 3.02537 7.12756C3.00862 7.08712 3 7.04377 3 7V6.33333C3 6.28956 3.00862 6.24621 3.02537 6.20577C3.04212 6.16533 3.06668 6.12858 3.09763 6.09763C3.12858 6.06668 3.16533 6.04213 3.20577 6.02537C3.24621 6.00862 3.28956 6 3.33333 6H6V3.33333Z" fill="#070808"/>
</svg>
