<svg width="236" height="236" viewBox="0 0 236 236" fill="none" xmlns="http://www.w3.org/2000/svg">
<rect x="0.647804" y="0.647804" width="234.505" height="234.505" rx="20.0819" stroke="#DFE0E2" stroke-width="1.29561"/>
<path d="M71.2326 30.8643H67.8877V34.2093V37.5544H71.2326H74.578V34.2093H71.2326V30.8643Z" fill="black"/>
<path d="M144.824 34.2093V30.8643H141.479H138.134V34.2093H141.479H144.824Z" fill="black"/>
<path d="M151.515 34.2093H154.86V37.5544H158.205V34.2093V30.8643H154.86H151.515H148.17V34.2093V37.5544H151.515V34.2093Z" fill="black"/>
<path d="M148.17 37.5544H144.824V40.8996H148.17V37.5544Z" fill="black"/>
<path d="M71.2326 40.8994H67.8877V44.2444V47.5896H71.2326V44.2444V40.8994Z" fill="black"/>
<path d="M74.5777 47.5896H71.2324V50.9348H74.5777V47.5896Z" fill="black"/>
<path d="M71.2326 54.2795H67.8877V57.6247H71.2326H74.578V54.2795H71.2326Z" fill="black"/>
<path d="M87.9581 64.3149H84.6129V67.6598V71.005H87.9581V67.6598H91.3032V71.005H94.6484V67.6598V64.3149H91.3032H87.9581Z" fill="black"/>
<path d="M61.1973 71.0053H64.5426H67.8876V67.6602H64.5426H61.1973H57.8524H54.5072V71.0053V74.3505H57.8524V71.0053H61.1973Z" fill="black"/>
<path d="M101.338 67.6602H97.9932V71.0053H101.338V67.6602Z" fill="black"/>
<path d="M178.275 67.6602H174.93V71.0053H178.275V67.6602Z" fill="black"/>
<path d="M184.966 67.6602H181.621V71.0053H184.966V67.6602Z" fill="black"/>
<path d="M191.656 67.6602H188.311V71.0053H191.656V67.6602Z" fill="black"/>
<path d="M34.4368 71.0053V67.6602H31.0918V71.0053V74.3505H34.4368V71.0053Z" fill="black"/>
<path d="M124.754 74.3505H128.099V77.6956H124.754V81.0407H121.409V84.3859H124.754V87.731H128.099H131.444V91.0759V94.4211H128.099V97.7663H131.444H134.789H138.134V101.111V104.456H141.479V107.801H144.824V104.456V101.111V97.7663H141.479V94.4211H138.134V91.0759H141.479H144.824V87.731H141.479H138.134H134.789V84.3859H131.444H128.099V81.0407H131.444V77.6956H134.789V81.0407V84.3859H138.134H141.479H144.824V87.731H148.17V84.3859V81.0407V77.6956H144.824V74.3505H148.17V71.0054V67.6602H144.824V71.0054H141.479V74.3505H138.134V71.0054H134.789V67.6602H138.134V71.0054H141.479V67.6602V64.3153H144.824H148.17H151.515H154.86V60.9701H158.205V64.3153V67.6602H154.86V71.0054H151.515V74.3505V77.6956V81.0407V84.3859V87.731V91.0759V94.4211H154.86V91.0759H158.205V87.731V84.3859H154.86V81.0407V77.6956V74.3505H158.205V71.0054H161.55H164.895V67.6602H161.55V64.3153H164.895V60.9701H168.24V57.625V54.2798V50.9349V47.5898H164.895V50.9349H161.55V47.5898H164.895V44.2446H168.24V40.8997V37.5546V34.2094V30.8645H164.895V34.2094H161.55V37.5546H164.895V40.8997H161.55V37.5546H158.205V40.8997H154.86V37.5546H151.515V40.8997H148.17V44.2446H151.515V47.5898H148.17V44.2446H144.824V47.5898H141.479V50.9349V54.2798H144.824V50.9349H148.17H151.515H154.86H158.205V54.2798H161.55H164.895V57.625H161.55H158.205V54.2798H154.86V57.625H151.515H148.17V54.2798H144.824V57.625V60.9701H141.479V57.625H138.134H134.789H131.444V60.9701H134.789V64.3153H131.444V67.6602V71.0054H128.099H124.754H121.409V74.3505H124.754ZM138.134 77.6954H141.479V81.0406H138.134V77.6954ZM158.205 47.5898H154.86V44.2446H158.205V47.5898Z" fill="black"/>
<path d="M121.409 71.0054V67.802H128.405V50.9349H131.444V54.2798H134.789V50.9349H138.134V47.5898V44.2446H141.479V40.8997H138.134V37.5545H134.789V40.8997H131.444V44.2446H128.099V40.8997H131.444V37.5545H134.789V34.2094V30.8645H131.444V34.2094H128.099V30.8645H124.754H121.409H118.063V34.2094V37.5545H114.719V34.2094V30.8645H111.374V34.2094H108.028V30.8645H104.684V34.2094H101.338V30.8645H97.9932V34.2094H94.6483V30.8645H91.3031V34.2094H87.958V30.8645H84.6128H81.2679H77.923H74.5779V34.2094H77.923V37.5545V40.8997H81.2679H84.6128V37.5545H81.2679V34.2094H84.6128V37.5545H87.958V40.8997H91.3031V37.5545H94.6483V40.8997H97.9932H101.338V37.5545H104.684V40.8997H101.338V44.2446H97.9932H94.6483V40.8997H91.3031V44.2446H87.958V40.8997H84.6128V44.2446V47.5898H81.2679V44.2446H77.923H74.5779V47.5898H77.923V50.9349H74.5779V54.2798H77.923V57.625H81.2679V60.9701H77.923V57.625H74.5779V60.9701V64.3153H77.923H81.2679H84.6128V60.9701V57.625H87.958V60.9701H91.3031H94.6483V64.3153H97.9932H101.338H104.684V60.9701H107.969V67.6602H104.684V71.0054H108.028V67.802H114.719V71.0054H118.064H121.409ZM84.6128 54.2798H81.2679V50.9349H84.6128V54.2798ZM121.409 34.2094H124.754V37.5545H121.409V34.2094ZM118.064 40.8996H121.409V44.2445H118.064V40.8996ZM108.028 47.5898C107.969 47.5898 104.684 47.5898 104.684 47.5898V50.9349H101.338V54.2798H104.684V57.625H101.338H97.9932V54.2798H94.6483H91.3031H87.958V50.9349H91.3031V47.5898H94.6483H97.9932H101.338H104.684V44.2446H108.028V47.5898ZM108.028 40.8996V37.5544H111.374V40.8996H114.719V44.2445H111.374V40.8996H108.028ZM111.739 64.2083V51.1364H124.811V64.2083H111.739Z" fill="black"/>
<path d="M84.6128 77.6954V74.3505H81.2679V71.0053H77.923V67.6602H74.5779H71.2324V71.0053H74.5779V74.3505H77.923V77.6954H81.2679H84.6128Z" fill="black"/>
<path d="M121.409 74.3506H118.064V77.6956H121.409V74.3506Z" fill="black"/>
<path d="M161.55 74.3506H158.205V77.6956H161.55V74.3506Z" fill="black"/>
<path d="M164.895 77.6954H168.24V81.0406H171.585V77.6954V74.3505H168.24V71.0054H164.895V74.3505V77.6954Z" fill="black"/>
<path d="M37.7817 81.0405H41.1269H44.472V84.3857H47.8172H51.1624V81.0405H47.8172V77.6954V74.3505H51.1624V71.0053V67.6602H47.8172V71.0053H44.472H41.1269V67.6602H37.7817V71.0053V74.3505H41.1269H44.472V77.6954H41.1269H37.7817H34.4368H31.0918V81.0405V84.3857H34.4368V81.0405H37.7817Z" fill="black"/>
<path d="M61.1972 77.6955V74.3506H57.8524V77.6955H54.5072V81.0406V84.3858H57.8524H61.1972V81.0406V77.6955Z" fill="black"/>
<path d="M87.958 81.0405V84.3857V87.7309H91.3031V91.0757H87.958V94.4209H91.3031V97.7661H94.6483H97.9932V101.111H94.6483V104.456H97.9932H101.338H104.684V101.111H108.028H111.374V104.456V107.782H108.028V104.456H104.684V107.801H107.969V111.146H104.684V107.801H101.338V111.146H97.9932V107.801H94.6483V104.456H91.3031H87.958V101.111V97.7661V94.4209H84.6128H81.2679V97.7661H77.923V101.111V104.456H74.5779V107.801V111.146H77.923V114.491H81.2679H84.6128H87.958V111.146H84.6128H81.2679V107.801V104.456H84.6128V107.801H87.958V111.146H91.3031V114.491H87.958V117.837V121.182V124.527H91.3031V121.182H94.6483V124.527H91.3031V127.872H87.958H84.6128V124.527V121.182V117.837H81.2679V121.182V124.527V127.872V131.217H84.6128V134.562H81.2679V137.907H84.6128H87.958H91.3031V134.562H94.6483V137.907H97.9932V134.562H101.338H104.181H104.684H107.969H108.168H111.86V137.907H114.217V141.252V144.597H117.562V141.252V137.907H115.205V134.562H118.55H121.393H121.895H125.38V131.217H121.895H121.393H118.55V128.041H128.405V124.527H131.444V121.182V117.837H134.789V114.491H131.444V111.146H128.405V107.801H131.444V104.456H128.099V107.782H124.754V104.456H128.099V101.111H124.754H121.409V97.7661V94.4209H118.063H114.719V97.7661H111.374H108.028H104.684V94.4209H101.338H97.9932V91.0757H101.338H104.684V94.4209H108.028V91.0757V87.7309H104.684V84.3857H108.028V81.0405H104.684V77.6954H101.338H97.9932V81.0405V84.3857H101.338V87.7309H97.9932H94.6483V84.3857V81.0405V77.6954H91.3031V74.3503H87.958V77.6954H84.6128V81.0405H87.958ZM97.9932 131.217H94.6483V127.872H97.9932V131.217ZM97.9932 121.182V117.837H101.338V121.182H97.9932ZM104.684 131.217H104.181H101.338V127.872V124.527H104.684V121.182V117.837V114.491H107.969V128.041L107.969 131.217H104.684ZM115.205 131.217H111.86V128.041H115.205V131.217ZM114.719 104.456V101.111H118.064V104.456H121.409V107.782H114.719V104.456ZM111.739 111.376H124.754V114.491V117.837C124.811 117.837 124.811 124.448 124.811 124.448H111.739V111.376Z" fill="black"/>
<path d="M108.028 81.0406H111.374V77.6954H114.719V74.3505V71.0054H111.374V74.3505H108.028H104.684V77.6954H108.028V81.0406Z" fill="black"/>
<path d="M118.064 77.6953H114.719V81.0405H118.064V77.6953Z" fill="black"/>
<path d="M164.895 77.6953H161.55V81.0405H164.895V77.6953Z" fill="black"/>
<path d="M84.6129 84.3857V81.0405H81.268H77.9231V84.3857H81.268H84.6129Z" fill="black"/>
<path d="M174.93 81.0405H171.585V84.3857H174.93V81.0405Z" fill="black"/>
<path d="M184.966 81.0406H188.311V77.6954H184.966V74.3505H181.621V71.0054H178.275V74.3505H174.93V77.6954H178.275V81.0406H181.621V84.3858H184.966V81.0406Z" fill="black"/>
<path d="M111.374 91.0757H114.719H118.064H121.409H124.754V87.7309H121.409V84.3857H118.064V87.7309H114.719V84.3857V81.0405H111.374V84.3857H108.028V87.7309H111.374V91.0757Z" fill="black"/>
<path d="M171.585 87.7307V84.3855H168.24H164.895H161.55V87.7307H164.895H168.24V91.0755H171.585H174.93V94.4207V97.7659H178.275V94.4207V91.0755H181.621H184.966V87.7307H181.621V84.3855H178.275H174.93V87.7307H171.585Z" fill="black"/>
<path d="M81.268 91.0756H84.6129V87.7307H81.268H77.9231V91.0756V94.4208H81.268V91.0756Z" fill="black"/>
<path d="M161.55 91.0757H158.205V94.4209V97.766V101.111H161.55V97.766V94.4209H164.895V91.0757H161.55Z" fill="black"/>
<path d="M151.515 97.7659H148.17V101.111H151.515H154.86V97.7659H151.515Z" fill="black"/>
<path d="M71.2326 101.111H67.8877V104.456H71.2326V101.111Z" fill="black"/>
<path d="M151.515 104.456H148.17V107.801H151.515V104.456Z" fill="black"/>
<path d="M47.8172 107.801H44.472V111.146H47.8172V107.801Z" fill="black"/>
<path d="M158.205 144.597H161.55H164.895H168.24V141.252H164.895V137.907H161.55V141.252H158.205H154.859V144.597H158.205Z" fill="black"/>
<path d="M141.479 121.182V117.836V114.491H144.824H148.17V111.146H144.824H141.479H138.134V107.801V104.456H134.79V107.801H131.444V111.146H134.79V114.491H138.134V117.836V121.182H134.79V124.526H131.444V127.872H134.79H138.134H141.479V124.526V121.182Z" fill="black"/>
<path d="M188.31 127.872H184.966V131.217H188.31V127.872Z" fill="black"/>
<path d="M181.621 137.907H181.481V134.562V131.217H178.136H174.791H171.446H168.24H168.101H164.895V134.562V137.907H168.24V134.562H171.446V137.907H174.791H178.136H178.275V141.252H174.93V144.597V147.942V151.287H178.275H181.621V147.942H178.275V144.597H181.621V141.252V137.907Z" fill="black"/>
<path d="M47.8172 141.252V137.907H44.472H41.1268V141.252H44.472V144.597H47.8172V141.252Z" fill="black"/>
<path d="M91.3031 144.597H94.6483V141.252V137.907H91.3031V141.252V144.597Z" fill="black"/>
<path d="M195.001 141.252H191.656V144.597H195.001V141.252Z" fill="black"/>
<path d="M94.6483 147.942H91.3031V151.287H94.6483V147.942Z" fill="black"/>
<path d="M134.79 147.942H131.444V151.287H134.79V147.942Z" fill="black"/>
<path d="M151.515 147.942H148.17H144.824V151.287H148.17V154.632H151.515H154.86V151.287H151.515V147.942Z" fill="black"/>
<path d="M158.205 147.942H154.859V151.287H158.205V147.942Z" fill="black"/>
<path d="M34.4367 161.322H31.0918V164.667H34.4367V161.322Z" fill="black"/>
<path d="M54.5072 161.322V164.667H57.8524V168.013H61.1972H64.5426V164.667H61.1972V161.322H57.8524H54.5072Z" fill="black"/>
<path d="M174.93 161.322V164.668H171.585V167.871H168.24V164.668H164.895V161.322H168.24H171.585H174.93V157.978V154.632V151.287H171.585H168.24V147.942H164.895H161.55V151.287H158.205V154.632V157.978H154.86H151.515H148.17H144.825V161.322H148.17V164.668H144.825V161.322H141.479H138.134V164.668H141.479V168.013H138.134V171.358H134.79V168.013H138.134V164.668H134.79H131.444V161.322V157.978H134.79V161.322H138.134V157.978H141.479V154.632H138.134H134.79H131.444V151.287H128.099V147.942H124.825V144.597H128.099V147.942H131.444V144.597H134.79V147.942H138.134V151.287H141.479V147.942V144.597H138.134V141.252H134.79V137.907H138.134V134.562H141.479V131.217H138.134H134.79H131.444H128.099V134.562V137.907H131.444V141.252H128.17C128.099 141.252 124.825 141.252 124.825 141.252H120.906L120.907 147.942V151.287H118.064V147.942H117.562H114.719H114.217H111.374H110.872H108.029H107.527V144.597H110.872V141.252H107.527H104.684H104.182H101.339V137.907H97.9936V141.252V144.597H101.339H104.182V147.942V151.287H101.339V147.942H97.9936V151.287V154.632H94.6487H91.3036V151.287H87.9584V154.632H84.6132V151.287H87.9584V147.942H84.6132V144.597H87.9584V141.252H84.6132H81.2683V144.597V147.942V151.287H77.9235V147.942H74.5783V151.287H71.233H67.8881V147.942V144.597H64.5432V147.942H61.1979V144.597H57.853V147.942V151.287V154.632V157.978H61.1979V161.322H64.5432H67.8881V164.668V168.013V171.358H71.233V174.703H74.5783V171.358H77.9235V168.013H74.5783H71.233V164.668V161.322V157.978H67.8881V154.632H71.233V157.978H74.5783V154.632H77.9235H81.2683V157.978H77.9235H74.5783V161.322V164.668H77.9235V161.322H81.2683V164.668H77.9235V168.013H81.2683V171.358H84.6132V174.703H81.2683H77.9235V178.048H81.2683V181.393H77.9235H74.5783V178.048H71.233H67.8881V181.393H71.233V184.738H67.8881V188.083V191.428V194.773V198.118V201.464V204.809H71.233H74.5783H77.9235V201.464H81.2683V204.809H84.6132V201.464V198.118H81.2683H77.9235H74.5783V201.464H71.233V198.118H74.5783V194.773H71.233V191.428V188.083H74.5783H77.9235V184.738H81.2683V188.083H84.6132V184.738V181.393H87.9584H91.3036V184.738H87.9584V188.083H91.3036V191.428H94.6487V194.773H91.3036V198.118H94.6487V201.464H91.3036V204.809H94.6487H97.9936H101.339H104.684V201.464H101.339V198.118V194.773H97.9936V191.428H101.339V194.773H104.684H108.029V198.118H104.684V201.464H108.029V204.809H111.374H114.719V201.464V198.118H111.374V194.773V191.428H108.029H104.684V188.083V184.738V181.393V178.048V174.703H108.146V188.131H124.754V191.428H128.1V194.773H124.754V198.118H128.1V201.464H124.754V204.809H128.1H131.445H134.79H138.135V201.464H134.79V198.118V194.773H131.445V191.428H134.79V194.773H138.135H141.48V198.118H138.135V201.464H141.48V204.809H144.825H148.17V201.464V198.118H144.825V194.773V191.428V188.083V184.738H141.48V181.393H138.135H134.79V184.738H138.135V188.083H141.48V191.428H138.135V188.083H134.79V184.738H131.445V188.083H128.405V171.358H131.445V174.703V178.048H134.79V174.703H138.135V178.048H141.48V174.703V171.358H144.825V168.013H148.17V171.358H144.825V174.703H148.17V178.048H144.825V181.393H148.17V184.738V188.083H151.515V191.428H148.17V194.773H151.515V198.118V201.464H154.86V204.809H158.205V201.464V198.118H161.55V194.773H158.205V191.428H154.86V188.083H158.205V191.428H161.55V194.773H164.895V198.118H168.24H171.585V201.464V204.809H174.931V201.464V198.118H178.275V201.464V204.809H181.621H184.966V201.464V198.118H181.621V194.773V191.428H178.275V194.773H174.93V191.428H171.585H168.24H164.895V188.131H184.921V167.871H181.621V164.668V161.323H178.275L174.93 161.322ZM164.895 154.632H168.24H171.585V157.978H168.24H164.895V154.632ZM64.5425 154.632H61.1972V151.287H64.5425V154.632ZM111.374 151.287H114.217H114.719V154.632H111.374V151.287ZM104.684 154.632V151.287H107.526H108.028V154.632V157.978H104.684V154.632ZM91.3031 161.322H94.6483V157.978H97.9932H101.338V161.322H97.9932H94.6483V164.668H97.9932V168.013H94.6483V164.668H91.3031V161.322ZM84.6128 157.978H87.958V161.322H84.6128V157.978ZM101.338 184.738V188.083H97.9932H94.6483V184.738V181.393H97.9932H101.338V184.738ZM101.338 174.703H97.9932V178.048H94.6483H91.3031V174.703H87.958V171.358V168.013H84.6128V164.668H87.958V168.013H91.3031V171.358V174.703H94.6483V171.358H97.9932H101.338V174.703ZM111.739 184.537V171.465H124.754V174.703C124.811 174.703 124.811 184.537 124.811 184.537H111.739ZM128.099 167.871H124.754V164.668H128.099V167.871ZM128.099 161.322H124.754H121.409V164.668H118.064V167.871H108.145V171.358H104.684V168.013H101.338V164.668H104.684H108.028V161.322H111.374V157.978H114.719V161.322H111.374V164.668H114.719H118.063V161.322V157.978V154.632H121.409V151.287H124.251H124.754V154.632V157.978H128.099V161.322H128.099ZM154.86 184.738H151.515V181.393H154.86V184.738ZM154.86 174.703V178.048H151.515V174.703H154.86V171.358H151.515V168.013H154.86V164.668V161.322H158.205H161.55V164.668H158.205V168.013H154.86V171.358H158.205V174.703H154.86ZM164.661 184.738H161.55V181.393H158.205V178.048H161.55V181.393H164.661V184.738ZM164.661 171.358H161.55V168.013H164.661V171.358ZM181.327 184.537H168.255V171.465H181.327V184.537Z" fill="black"/>
<path d="M198.346 77.6953V81.0405V84.3856H201.691V81.0405H205.036V77.6953H201.691H198.346Z" fill="black"/>
<path d="M201.691 91.0759V94.4211H198.346V91.0759H195.001V87.731V84.3858V81.0407V77.6955V74.3505H198.346H201.691V71.0053V67.6602H198.346V71.0053H195.001H191.656V74.3505V77.6955V81.0407V84.3858H188.31V87.731V91.0759H191.656V94.4211H188.31V91.0759H184.966V94.4211H181.621V97.7662V101.111H178.275H174.93V97.7662H171.585V94.4211H168.24H164.895V97.7662V101.111V104.456H161.55V107.801H164.661V111.146H161.55H158.205V107.801V104.456V101.111H154.86V104.456V107.801V111.146H151.515V114.491V117.837H154.86H158.205H161.55V114.491H164.661V121.182H161.55H158.205H154.86H151.515V124.527H148.17V121.182H151.515V117.837H148.17H144.824V121.182V124.527V127.872H141.479V131.217H144.824V134.562H148.17V137.907H144.824V134.562H141.479V137.907H138.134V141.252H141.479V144.597H144.824H148.17V141.252H151.515H154.86V137.907H158.205H161.55V134.562H158.205H154.86V131.217H158.205V127.872H154.86V124.527H158.205V127.872H161.55H164.661C164.661 127.902 185.047 127.865 185.047 127.865V117.837H188.31H191.656V114.491H188.31V111.146V107.801H185.047C185.092 107.764 184.966 104.456 184.966 104.456H188.31V101.111H184.966V97.7662H188.31V101.111H191.656V104.456H188.31V107.801H191.656V111.146H195.001H198.346H201.691V114.491H198.346H195.001V117.837V121.182H191.656H188.31V124.527V127.872H191.656H195.001V131.217H191.656H188.31V134.562H191.656V137.907H195.001V141.252H198.346V144.597H201.691V147.943V151.287H198.346H195.001V147.943H191.656V144.597H188.31V141.252H191.656V137.907H188.31H184.966V141.252V144.597H181.621V147.943H184.966V151.287V154.633H188.31V151.287H191.656V154.633H188.31V157.978H184.966V154.633H181.621V157.978V161.323H184.966V164.668H188.31H191.656H195.001H198.346H201.691V161.323H198.346H195.001H191.656V157.978H195.001H198.346V154.633H201.691V157.978H205.036V154.633V151.287V147.943V144.597V141.252H201.691V137.907V134.562H205.036V131.217V127.872V124.527V121.182H201.691V117.837H205.036V114.491V111.146V107.801V104.456H201.691V101.111H198.346H195.001V97.7662H198.346H201.691V101.111H205.036V97.7662V94.4211V91.0759V87.731V84.3858H201.691V87.731V91.0759ZM151.515 131.217H148.169V127.872H151.515V131.217ZM168.24 104.456H171.585H174.93H178.275V107.642H168.24V104.456ZM181.327 124.308H168.255V111.236H181.327V124.308ZM201.691 131.217H198.346V127.872H201.691V131.217Z" fill="black"/>
<path d="M205.036 168.013H201.691V171.358H205.036V168.013Z" fill="black"/>
<path d="M191.656 174.703V171.358V168.013H188.311V171.358V174.703V178.048H191.656V174.703Z" fill="black"/>
<path d="M81.268 188.083H77.9231V191.428V194.773H81.268H84.6129V191.428H81.268V188.083Z" fill="black"/>
<path d="M87.9581 188.083H84.6129V191.428H87.9581V188.083Z" fill="black"/>
<path d="M191.656 188.083H195.001V184.738V181.393H191.656H188.311V184.738V188.083V191.428H191.656V188.083Z" fill="black"/>
<path d="M188.31 191.428H184.966V194.773H188.31V191.428Z" fill="black"/>
<path d="M191.656 194.773H188.311V198.118H191.656V194.773Z" fill="black"/>
<path d="M91.3033 198.118H87.9581V201.464H91.3033V198.118Z" fill="black"/>
<path d="M161.55 201.464V204.809H164.895V201.464V198.118H161.55V201.464Z" fill="black"/>
<path d="M198.346 178.048V174.703V171.358V168.013H195.001V171.358V174.703V178.048V181.393H198.346H201.691V184.738H198.346V188.083H195.001V191.428H198.346V194.773H195.001V198.118H191.656V201.463H195.001H198.346V204.809H201.691H205.036V201.463H201.691V198.118H205.036V194.773H201.691V191.428V188.083H205.036V184.738V181.393V178.048H201.691H198.346Z" fill="black"/>
<path d="M121.409 198.119V194.773V191.428H118.064H114.719V194.773H118.064V198.119V201.464H121.409H124.754V198.119H121.409Z" fill="black"/>
<path d="M191.656 201.464H188.311V204.809H191.656V201.464Z" fill="black"/>
<path d="M57.8524 141.252H54.5072V144.597H57.8524V141.252Z" fill="black"/>
<path d="M64.5426 141.252H61.1973V144.597H64.5426V141.252Z" fill="black"/>
<path d="M71.2326 141.252H67.8877V144.597H71.2326V141.252Z" fill="black"/>
<path d="M51.1622 147.942H47.8171H44.4719V144.597H41.1267H37.7816V141.252H34.4367V137.907V134.562H37.7816H41.1267V131.217H37.7816V127.872V124.526H41.1267V121.182H44.4719V124.526H41.1267V127.872H44.4719V131.217V134.562H47.8171H51.1622V137.907H54.5071V134.562H57.8523V137.907V141.252H61.1972V137.907V134.562V131.217H57.8523V127.902H64.5426V131.217V134.562H67.8875H71.2324H74.5777V137.907H71.2324V141.252H74.5777V144.597H77.9228V141.252V137.907V134.562V131.217V127.872V124.526H74.5777V121.182H77.9228V117.836V114.491H74.5777V117.836H71.4661V114.491H74.5777V111.146H71.4661V107.642H67.8873V104.456H64.5425V107.642H61.1972V104.456V101.111H64.5425H67.8873V97.7658V94.4207H71.2322V97.7658H74.5775H77.9227V94.4207H74.5775V91.0755V87.7306H77.9227V84.3855H74.5775V81.0403H77.9227V77.6951H74.5775H71.2322V81.0403V84.3855V87.7306V91.0755H67.8873V87.7306V84.3855V81.0403V77.6951V74.3501H64.5425V77.6951V81.0403V84.3855H61.1972V87.7306V91.0755H64.5425V94.4207H61.1972V97.7658H57.8523H54.5071V101.111V104.456H57.8523V107.642H54.5071V104.456H51.1622V107.801C51.207 107.801 51.207 127.902 51.207 127.902H54.5071V131.217H51.1622V127.872H47.8171V124.526V121.182V117.836H44.4719V114.491V111.146H41.1267V114.491H37.7816V111.146V107.801H41.1267H44.4719V104.456H47.8171L51.1622 104.456V101.111H47.8171H44.4719V97.766H47.8171V94.4208H44.4719V91.0756H47.8171V94.4208H51.1622H54.5071H57.8523L61.1972 94.4207V91.0755L57.8523 91.0756V87.7308H54.5071H51.1622H47.8171H44.4719H41.1267V91.0756H37.7816V87.7308H41.1267V84.3856H37.7816H34.4367V87.7308V91.0756V94.4208H31.0918V97.766H34.4367V101.111H37.7816V104.456H34.4367V101.111H31.0918V104.456V107.801V111.146H34.4367V114.491H31.0918V117.836V121.182V124.526V127.872H34.4367V131.217H31.0918V134.562V137.907V141.252V144.597H34.4367V147.942V151.287H31.0918V154.632H34.4367V157.978H37.7816V161.322H41.1267V164.668H37.7816V168.013H41.1267H44.4719V164.668H47.8171H51.1622V161.322V157.978H54.5071V154.632H51.1622H47.8171V157.978V161.322H44.4719V157.978H41.1267V154.632H37.7816V151.287V147.942H41.1267V151.287H44.4719V154.632H47.8171V151.287H51.1622H54.5071V147.942V144.597H51.1622V147.942ZM54.8009 111.236H67.8729V124.308H54.8009V111.236ZM37.7816 94.4208H41.1267V97.766H37.7816V94.4208ZM34.4367 117.836H37.7816V121.182H34.4367V117.836Z" fill="black"/>
<path d="M74.5777 144.597H71.2324V147.942H74.5777V144.597Z" fill="black"/>
<path d="M176.588 176.204H172.994V179.798H176.588V176.204Z" fill="black"/>
<path d="M176.588 115.975H172.994V119.569H176.588V115.975Z" fill="black"/>
<path d="M63.1338 115.975H59.54V119.569H63.1338V115.975Z" fill="black"/>
<path d="M120.072 176.204H116.478V179.798H120.072V176.204Z" fill="black"/>
<path d="M120.072 116.115H116.478V119.708H120.072V116.115Z" fill="black"/>
<path d="M120.072 55.8752H116.478V59.469H120.072V55.8752Z" fill="black"/>
<path d="M64.5425 30.6328H31.0917V64.0836H64.5425V30.6328ZM61.1972 60.7385H34.4367V33.9777H61.1972V60.7385Z" fill="black"/>
<path d="M55.0649 40.1108H40.5695V54.606H55.0649V40.1108Z" fill="black"/>
<path d="M31.0918 205.04H64.5426V171.589H31.0918V205.04ZM34.4368 174.934H61.1973V201.695H34.4368V174.934Z" fill="black"/>
<path d="M55.0649 181.067H40.5695V195.563H55.0649V181.067Z" fill="black"/>
<path d="M171.585 30.6328V64.0836H205.036V30.6328H171.585ZM201.691 60.7385H174.93V33.9777H201.691V60.7385Z" fill="black"/>
<path d="M195.558 40.1108H181.063V54.606H195.558V40.1108Z" fill="black"/>
</svg>
