<svg width="20" height="20" viewBox="0 0 20 20" fill="none" xmlns="http://www.w3.org/2000/svg">
<path d="M13.2373 14.9998C11.829 15.9685 10.1096 16.376 8.41635 16.1423C6.72311 15.9086 5.17831 15.0506 4.08507 13.7367C2.99183 12.4227 2.42905 10.7476 2.50717 9.04014C2.58528 7.33263 3.29865 5.71595 4.5073 4.5073C5.71595 3.29865 7.33263 2.58528 9.04014 2.50717C10.7476 2.42905 12.4227 2.99183 13.7367 4.08507C15.0506 5.17831 15.9086 6.72311 16.1423 8.41635C16.376 10.1096 15.9685 11.829 14.9998 13.2373L17.744 15.9815C17.8215 16.0589 17.8829 16.1508 17.9249 16.252C17.9668 16.3531 17.9884 16.4616 17.9884 16.5711C17.9884 16.6806 17.9668 16.789 17.9249 16.8902C17.8829 16.9914 17.8215 17.0833 17.744 17.1607L17.1607 17.744C17.0833 17.8215 16.9914 17.8829 16.8902 17.9249C16.789 17.9668 16.6806 17.9884 16.5711 17.9884C16.4616 17.9884 16.3531 17.9668 16.252 17.9249C16.1508 17.8829 16.0589 17.8215 15.9815 17.744L13.2373 14.9998ZM13.714 9.35316C13.714 8.78043 13.6012 8.21331 13.382 7.68418C13.1628 7.15505 12.8416 6.67427 12.4366 6.26929C12.0316 5.86431 11.5509 5.54306 11.0217 5.32389C10.4926 5.10472 9.92547 4.99191 9.35274 4.99191C8.78002 4.99191 8.2129 5.10472 7.68377 5.32389C7.15463 5.54306 6.67385 5.86431 6.26887 6.26929C5.86389 6.67427 5.54265 7.15505 5.32347 7.68418C5.1043 8.21331 4.99149 8.78043 4.99149 9.35316C4.99149 10.5098 5.45098 11.6191 6.26887 12.437C7.08677 13.2549 8.19607 13.7144 9.35274 13.7144C10.5094 13.7144 11.6187 13.2549 12.4366 12.437C13.2545 11.6191 13.714 10.5098 13.714 9.35316Z" fill="#484B51"/>
</svg>
