<svg width="16" height="16" viewBox="0 0 16 16" fill="none" xmlns="http://www.w3.org/2000/svg">
<path d="M10.6344 6.0473C10.4262 5.83905 10.0885 5.83905 9.88019 6.0473L6.91466 9.01283L6.11869 8.21689C5.91044 8.00864 5.57272 8.00864 5.36444 8.21689C5.15619 8.42514 5.15619 8.76286 5.36444 8.97114L6.53756 10.1442C6.74585 10.3525 7.08353 10.3525 7.29181 10.1442L10.6344 6.80152C10.8427 6.59327 10.8427 6.25558 10.6344 6.0473Z" fill="#9FA1A5"/>
<path d="M14.3186 3.67198L8.27227 0.0749531C8.10423 -0.0249844 7.89495 -0.0249844 7.72692 0.0749531L1.68058 3.67198C1.51898 3.76814 1.41992 3.94233 1.41992 4.13036V6.1837C1.41992 10.5085 3.91867 14.4586 7.80702 15.964C7.9308 16.012 8.06823 16.012 8.19214 15.964C12.071 14.4623 14.5792 10.5208 14.5792 6.1837V4.13036C14.5792 3.9423 14.4802 3.76814 14.3186 3.67198ZM13.5125 6.1837C13.5125 10.1633 11.2178 13.5528 7.99958 14.892C4.77948 13.552 2.48664 10.1609 2.48664 6.1837V4.43367L7.99961 1.15392L13.5126 4.43367L13.5125 6.1837Z" fill="#9FA1A5"/>
</svg>
