<svg width="150" height="150" viewBox="0 0 150 150" fill="none" xmlns="http://www.w3.org/2000/svg">
<path fill-rule="evenodd" clip-rule="evenodd" d="M117.036 79.4618L112.162 129.444L81.5332 126.507L83.9323 90.0134L83.9374 89.9027C84.028 89.9126 84.1234 89.9279 84.214 89.933V89.9378C84.6112 89.9882 84.9985 90.0233 85.3657 90.0536C88.132 90.0989 89.8519 89.9378 89.8519 89.9378L103.788 87.8909C100.412 86.3189 97.2943 84.6521 93.619 82.1828L117.036 79.4618ZM110.482 99.539L88.5493 98.3771L86.7538 116.578L109.019 118.188L110.482 99.539Z" fill="black"/>
<path fill-rule="evenodd" clip-rule="evenodd" d="M126.194 49.8684L123.589 76.3077L90.9834 77.8317L91.1493 76.2876L93.6138 53.223L126.194 49.8684ZM121.899 54.7569L97.059 56.7687L95.3289 72.8526L119.721 72.6414L121.899 54.7569Z" fill="black"/>
<path d="M57.3926 69.5244C57.428 69.5796 57.4682 69.6249 57.5135 69.6651L57.4127 69.7053C57.4229 69.645 57.4127 69.5847 57.3926 69.5244Z" fill="#D1AA67"/>
<path d="M59.1668 68.9899L59.1416 68.9998V68.9647C59.1518 68.9749 59.1569 68.9797 59.1668 68.9899Z" fill="#D1AA67"/>
<path d="M85.3657 90.0546C84.913 90.0495 84.4354 90.0345 83.9323 90.0144C68.7193 89.4021 54.3094 83.628 48.2539 69.7509L53.8867 67.4475C54.5989 68.1585 55.4542 70.2876 56.6077 70.3647C56.9095 70.3797 57.2263 70.1886 57.3571 69.9321C58.8055 71.7777 58.1065 74.559 55.8934 75.429C63.694 84.1701 76.3681 88.8777 83.9374 89.9037C84.4354 89.9691 84.913 90.0192 85.3657 90.0546Z" fill="#D1AA67"/>
<path d="M111.765 86.7183L103.789 87.8901C102.32 87.2163 100.902 86.5071 99.5337 85.7676V85.7628C95.7465 83.7108 92.3667 81.4323 89.4096 79.1238C82.7556 73.9335 78.2493 68.5722 76.0515 65.2026C74.4723 65.8515 72.6516 65.2881 71.7111 63.8598L60.9381 68.2656C60.9432 68.0391 60.8778 67.818 60.747 67.6368C60.9786 67.8681 61.4109 67.8129 61.6323 67.5714C61.8537 67.3251 61.8888 66.9477 61.7832 66.636C61.5741 65.9778 60.6489 65.2902 60.0732 64.911C64.1004 63.2637 74.5065 59.0076 76.1823 58.3224C76.1823 58.3224 79.8789 67.662 91.1496 76.2873C97.2789 80.9799 104.211 84.381 111.765 86.7183Z" fill="#D1AA67"/>
<path d="M95.4698 71.8709C95.479 71.8717 95.4881 71.8721 95.4971 71.8721C95.6237 71.8721 95.7328 71.7764 95.7466 71.6477L97.3178 57.0203L101.877 56.651L120.219 56.1986L119.718 72.6434L121.897 54.761L109.723 55.7456C109.702 55.6169 109.587 55.5224 109.457 55.5332L97.0697 56.5361C96.9494 56.546 96.8528 56.6396 96.8399 56.7596L95.2466 71.5937C95.2319 71.7317 95.3318 71.8559 95.4698 71.8709Z" fill="black"/>
<path d="M84.3181 91.5872H84.3382L113.247 88.9922C113.368 88.982 113.463 88.8863 113.478 88.7657C113.91 84.4406 114.016 84.5516 113.861 84.38C113.696 84.2159 113.878 84.3182 107.304 84.914C90.8722 78.6398 82.4377 68.3648 78.8377 62.7083C78.7633 62.5916 78.6085 62.5571 78.4906 62.6312C78.3733 62.7059 78.3388 62.861 78.4135 62.9786C82.1392 68.8331 90.9895 79.5911 108.4 85.8608C108.536 85.9079 108.676 85.8362 108.722 85.709C108.722 85.708 108.722 85.7071 108.722 85.7063C109.709 86.0573 110.72 86.396 111.763 86.7188C108.323 87.2243 91.3024 89.7242 89.8504 89.9375C89.8504 89.9375 88.1305 90.0986 85.3642 90.0533C84.997 90.023 84.6097 89.9879 84.2125 89.9375L84.0667 91.3106C84.0616 91.3862 84.0868 91.4564 84.1372 91.5119C84.1873 91.562 84.2527 91.5872 84.3181 91.5872Z" fill="black"/>
<path fill-rule="evenodd" clip-rule="evenodd" d="M79.922 126.574C80.6126 128.861 78.9026 132.574 75.5537 133.661C72.1199 134.777 68.8709 133.681 65.4719 134.244C64.7945 134.356 64.0361 134.81 63.2162 134.81C61.5827 134.81 61.2851 133.095 61.1363 131.452C60.2165 130.038 61.1051 128.409 61.8044 126.859C61.4213 126.248 61.0958 125.3 61.3184 124.635C61.4117 124.352 61.6034 124.101 61.8794 123.884C61.8772 123.881 61.8751 123.878 61.8731 123.874C61.5293 123.242 61.3388 122.167 61.3427 121.405C58.0979 121.387 55.2428 120.553 54.7256 118.474C53.4482 113.299 49.2587 92.5126 47.4884 83.6758C46.7942 96.199 45.6779 111.901 44.1287 119.741C43.9139 120.836 41.8487 121.132 39.7022 121.052C39.7175 121.747 39.5321 122.473 39.2972 123.051C39.9203 123.323 40.3514 123.682 40.5563 124.133C40.9331 124.954 40.3883 126.023 39.9893 126.767C39.9977 126.794 40.004 126.821 40.0028 126.851C39.9785 127.424 40.8578 128.35 42.1781 128.246C42.4265 128.228 42.668 128.186 42.9062 128.134C42.4742 127.906 42.1151 127.51 41.8211 127.181C41.633 126.961 41.3306 126.691 41.2649 126.287C41.2343 126.097 41.1623 125.651 41.6237 125.383C42.0212 125.152 42.5279 125.385 42.8225 125.735C42.9983 125.943 43.1549 126.152 43.2941 126.363C43.3352 125.57 43.5179 124.665 44.2547 124.37C44.7398 124.178 45.2165 124.348 45.4712 124.804C45.6827 125.183 45.7097 125.607 45.5537 126.101C45.4328 126.484 45.2648 127.002 44.9849 127.444C46.1234 127.019 46.6697 126.324 47.7923 126.487C48.8015 126.634 49.5803 127.287 49.8701 128.385C49.9319 128.393 49.991 128.423 50.0339 128.474C50.5046 129.045 50.8919 129.528 50.9024 130.288C50.9342 132.674 48.2696 135.773 44.7476 135.894C40.7564 136.021 37.2695 133.497 34.0133 133.674C33.3212 133.712 32.5358 133.757 31.9073 133.253C30.9911 132.52 31.3136 130.763 31.4999 129.789C31.0058 128.173 32.3168 126.85 33.4097 125.561C33.2102 124.868 33.1586 123.867 33.5564 123.289C33.7238 123.043 33.977 122.855 34.3028 122.722C34.3018 122.719 34.3008 122.715 34.2998 122.711C34.1441 122.01 34.2569 120.926 34.4702 120.194C31.3604 119.282 28.8485 117.692 28.925 115.552C29.1533 109.307 31.4636 81.3901 31.9784 75.22C31.7519 75.1834 31.5254 75.1486 31.2989 75.1108C31.1471 75.0892 31.0565 74.9386 31.0976 74.794C31.1228 74.7085 33.5759 65.6458 31.0154 50.1328C29.1974 46.9204 29.0816 44.4673 29.7095 41.8417C29.774 41.5834 29.7935 41.5657 29.8106 41.5075C30.6857 38.5495 35.9663 36.2578 39.0158 35.6044C38.7269 33.4678 38.7227 33.5695 38.7239 33.3868C37.3697 32.7823 35.9768 31.771 34.8488 30.5941C34.1063 30.7882 32.3702 30.3481 31.7516 30.1432C30.5525 29.7487 29.636 28.6675 29.0567 27.5353C28.5884 26.842 28.2626 25.9522 28.3202 25.1113C28.2626 24.6331 28.2434 24.1513 28.2809 23.6728C24.0728 21.6172 25.6412 16.9336 29.0384 16.8931C27.5414 16.3015 25.9253 16.5541 24.7133 17.4154C24.6008 17.4964 24.4433 17.4694 24.3629 17.3563C24.2825 17.2429 24.3089 17.0863 24.4223 17.0056C25.8572 15.9853 27.833 15.7348 29.5745 16.5787C28.4114 15.2932 27.7466 13.5454 27.8132 11.8138C27.8186 11.6749 27.9452 11.5831 28.0742 11.5723C28.2131 11.5777 28.3211 11.6944 28.3157 11.8336C28.2566 13.3702 28.8233 14.9191 29.8199 16.0927C29.4344 13.981 31.0841 12.2605 33.0188 12.3745C33.941 12.4285 34.8125 12.94 35.3432 13.6918C35.8034 12.4294 36.3776 12.0697 37.031 11.617C38.3417 10.7092 41.3981 10.1236 43.7117 10.777C47.5979 11.8747 48.6971 15.8719 46.5794 17.9377C46.7165 19.0507 46.595 20.1913 46.2131 21.2446C46.5386 22.6042 46.673 24.0286 46.7435 25.3165C46.8779 27.7786 46.3151 30.1186 45.1598 31.9042C44.861 32.3617 44.5283 32.7403 44.1719 33.0412C44.843 35.7349 44.6462 34.6321 44.7908 35.3566C52.7132 35.8474 62.1296 38.8693 62.2244 38.8993C62.3048 38.9296 62.3651 38.9899 62.3903 39.0703C62.4089 39.13 62.3963 39.19 62.3714 39.2449C62.5796 40.282 62.6984 41.2195 62.7347 42.1078C67.2461 43.6327 75.458 44.8528 80.2106 45.3925C80.9438 44.4856 81.7508 43.6324 82.4675 42.8776C82.706 42.6262 82.9487 42.3943 83.2901 42.3205C83.7827 42.2209 84.3278 42.5299 84.5351 43.0348C84.7577 43.5784 84.5984 44.1097 84.3191 44.6266C85.2842 44.6782 85.9604 44.4739 86.9 44.6167C87.7085 44.7406 88.181 45.1825 88.2308 45.8614C88.2632 46.3045 88.0325 46.7398 87.821 46.8835C88.76 47.6257 88.3238 49.0768 87.176 49.3579C87.3746 49.9726 86.807 50.8831 85.7498 50.9095C85.9868 51.3427 85.7261 51.9505 85.0415 52.1461C84.3194 52.354 83.6189 52.1302 82.9259 51.8965C82.8647 51.8761 80.4431 51.0808 80.2211 50.9356C74.8052 51.3505 66.9944 50.2423 61.4936 48.8113C61.2086 49.5187 60.4592 51.1729 60.2732 51.4066C60.2636 51.4198 60.26 51.4363 60.248 51.4477C60.2276 51.4654 60.1088 51.508 60.0818 51.508C59.9957 51.508 59.0333 51.0376 56.7878 49.9993C59.564 59.0128 62.6705 63.4129 62.7977 63.7948L62.33 63.9859C59.252 58.8862 57.2654 53.3488 56.1389 49.6018C56.075 49.4101 56.273 49.2106 56.486 49.3051L59.6948 50.7988C58.5092 46.3546 58.9058 42.8848 61.7264 39.2716C59.9714 38.7283 51.8237 36.3091 44.8328 35.8615C44.7629 36.2125 44.6063 36.5098 44.0762 36.8329C42.5561 37.7656 40.9781 37.4875 39.4907 36.544C39.3113 36.4303 39.1769 36.2995 39.104 36.0982C36.0473 36.7516 31.2977 38.8927 30.2993 41.6272C28.4216 47.5495 32.8112 52.174 36.86 56.809C38.3837 53.4859 41.1056 50.6707 44.5859 48.8176C44.1818 48.4987 43.8203 48.319 41.2034 46.0726C40.4684 45.4414 39.7079 44.7886 38.852 44.1049C38.7434 44.0185 38.7257 43.8598 38.8124 43.7512C38.8994 43.6438 39.0575 43.6261 39.1658 43.7119C40.0289 44.401 40.7924 45.0568 41.531 45.691C45.4634 49.0666 45.2975 48.5347 45.3098 48.8434C45.6938 49.3771 45.2546 50.677 44.24 52.2196C46.7648 54.9136 51.2318 58.6438 54.101 61.042C54.2246 61.0576 54.251 61.0669 54.9671 61.441C55.1744 61.5511 55.2803 61.7785 55.2482 62.0038C55.6565 62.347 56.0243 62.659 56.3462 62.9362C57.3515 62.6011 58.3799 62.3518 59.3504 62.1277C59.5895 62.0728 59.9498 61.9903 60.2819 62.1217C60.7226 62.2975 60.9833 62.8315 60.8759 63.3379C60.7628 63.8689 60.3722 64.1926 59.8985 64.4485C60.6071 64.9795 61.2059 65.1706 61.8281 65.7628C62.3774 66.2863 62.4977 66.8785 62.1674 67.4311C61.964 67.7713 61.5821 67.987 61.325 68.0062C61.5989 69.0217 60.575 69.9364 59.5322 69.556C59.3375 70.1653 58.4177 70.4989 57.6734 70.0372C57.6131 70.423 57.2471 70.6702 56.8331 70.6702C56.0591 70.6702 55.4759 69.9382 55.0538 69.3742C53.7632 67.669 53.57 67.3789 53.5292 67.2955C53.024 67.0174 52.5059 66.7159 51.9773 66.3934C51.6917 66.4603 51.5948 66.3475 50.7473 65.872C50.5778 65.7754 50.4857 65.608 50.4743 65.4346C47.0375 63.1609 43.3001 60.1219 39.9461 56.8477C38.5514 57.8998 37.3682 58.3624 36.8915 57.9304C36.7553 57.8047 36.6914 57.6124 36.6857 57.3691C34.8557 55.2934 33.059 53.3182 31.6985 51.2482C33.7463 64.6867 32.0267 73.0771 31.6508 74.6581C37.5281 75.6367 44.4167 74.9413 50.2748 73.6273C50.3651 73.7731 50.4608 73.9189 50.5514 74.0647C50.5262 74.0848 50.501 74.095 50.4758 74.1001C48.3302 74.5825 46.2533 74.9386 44.2361 75.1927C44.2365 75.1953 44.2369 75.198 44.2373 75.2008C40.3634 75.6904 36.3305 75.8035 32.4758 75.292C31.9577 81.5233 29.6543 109.346 29.4278 115.572C29.2652 120.094 43.2131 121.82 43.6358 119.641C45.26 111.414 46.4117 94.4554 47.0957 81.6715C47.0936 81.7231 47.2349 78.4552 47.237 78.4033C47.2433 78.2644 47.3618 78.1717 47.4992 78.1627C47.6378 78.1693 47.7458 78.2866 47.7395 78.4249L47.5997 81.6571C49.0445 88.891 53.8322 112.763 55.2185 118.353C56.3021 122.742 70.1951 120.563 69.9998 118.348C69.356 110.774 66.3386 96.3853 63.9245 85.6423C63.9143 85.5871 63.9194 85.5319 63.9446 85.4815C64.1156 85.567 64.2866 85.6423 64.4576 85.723C66.8717 96.4555 69.8591 110.749 70.5029 118.308C70.5959 119.418 68.6954 120.273 66.6071 120.787C66.8144 121.451 66.8366 122.201 66.7706 122.821C67.4444 122.911 67.958 123.137 68.2796 123.515C68.8676 124.199 68.6393 125.378 68.4614 126.203C68.4767 126.226 68.4902 126.251 68.4971 126.28C68.6327 126.838 69.7283 127.481 70.9733 127.02C71.2067 126.934 71.4269 126.828 71.6411 126.713C71.1119 126.601 70.6214 126.273 70.166 125.988C68.6837 125.072 69.722 123.637 70.8998 124.429C71.126 124.58 71.3342 124.737 71.5268 124.903C71.4686 124.653 71.4278 124.391 71.4032 124.114C71.2793 122.732 72.4559 122.074 73.1885 122.803C73.496 123.108 73.6394 123.508 73.6262 124.026C73.6157 124.428 73.5971 124.972 73.4498 125.474C74.4311 124.743 74.7689 123.932 75.8837 123.78C76.8752 123.644 77.813 124.038 78.4049 125.03C78.4664 125.02 78.5315 125.032 78.587 125.07C79.1966 125.489 79.7024 125.847 79.922 126.574ZM52.3532 62.7829C51.9797 63.0628 51.7886 63.5362 51.8654 63.9892C52.0085 64.948 53.1344 65.3668 53.8694 64.8064C53.8696 64.8064 53.8697 64.8064 53.8697 64.8064C54.2762 64.4986 54.461 63.9829 54.341 63.4927C54.0983 62.5762 53.0381 62.2609 52.3532 62.7829ZM56.3705 63.4558C56.3561 63.4606 56.3417 63.4591 56.3273 63.4615C56.3144 63.4633 56.3021 63.4696 56.2889 63.4696C56.2856 63.4696 56.282 63.4678 56.2787 63.4678C56.1542 63.4636 56.1446 63.4156 55.0562 62.4991C54.9582 62.7135 54.8536 62.9253 54.7424 63.1345C55.235 64.3429 54.3068 65.6299 53.0084 65.5483C52.8262 65.7359 52.6361 65.914 52.4381 66.0826C53.9093 66.9703 53.882 66.8647 53.9357 67.0225C54.0566 67.1584 54.299 67.5694 55.2899 68.8525C55.6874 69.382 56.0669 69.9544 56.6369 70.1359C56.7881 70.1845 56.9939 70.183 57.1115 70.0735C57.233 69.9604 57.1883 69.7267 56.9789 69.3757C56.7659 69.1039 56.543 68.7634 56.3675 68.5471C56.2802 68.4391 56.2964 68.2807 56.4044 68.1931C56.5121 68.1055 56.6711 68.1226 56.7581 68.2297C56.7581 68.2299 56.7582 68.2301 56.7584 68.2303C56.9909 68.5126 57.2222 68.7913 57.4097 69.1093C57.6545 69.4138 57.923 69.6664 58.2533 69.7414C58.5086 69.7966 58.9193 69.6802 59.0456 69.4444C59.3147 68.9434 57.7001 67.441 57.2849 67.0594C57.1829 66.9649 57.1763 66.8059 57.2705 66.7039C57.365 66.6025 57.524 66.5962 57.626 66.6889C58.1459 67.1686 59.2868 68.2342 59.525 69.0094C59.5325 69.0133 59.5409 69.0136 59.5481 69.0187C60.1301 69.3907 60.9323 68.8981 60.8729 68.2705C60.7928 67.4275 59.264 66.4867 58.706 65.995C58.6019 65.9032 58.592 65.7442 58.6838 65.6398C58.7765 65.5363 58.9349 65.5264 59.039 65.6179C59.495 66.0217 60.6542 66.7441 61.1432 67.5694C61.1753 67.5418 61.2119 67.519 61.2566 67.5103C61.4534 67.4713 61.6325 67.3456 61.7357 67.1728C62.4215 66.0274 59.6336 65.185 59.3486 64.6381C59.0057 64.6966 58.9184 64.2277 59.207 64.1572C59.5439 64.0747 59.5439 64.0747 59.8244 63.9136C60.1247 63.7417 60.3284 63.4936 60.3836 63.2332C60.4403 62.9686 60.308 62.674 60.0956 62.5894C59.9234 62.5207 59.7077 62.5618 59.4635 62.6179C58.4612 62.8492 57.3971 63.1045 56.3705 63.4558ZM43.2629 51.8878C42.3788 51.8425 41.1335 53.0071 40.7189 53.5903C40.172 54.3526 39.9425 55.1737 39.908 56.1076C43.3148 59.4826 47.1554 62.6287 50.678 64.9669C50.9348 64.7359 51.1814 64.4917 51.4169 64.2421C51.4019 64.1836 51.3776 64.129 51.3686 64.0687C51.1871 62.9977 52.0349 62.011 53.1365 62.0308C53.4452 61.5394 53.4788 61.4317 53.594 61.2733C50.3225 58.5364 45.6074 54.5839 43.2629 51.8878ZM80.5136 45.8146C80.5034 45.8278 80.4446 45.8749 80.4164 45.8872C80.3654 45.9094 80.3678 45.9028 80.3168 45.9094C79.5701 45.8893 67.5224 44.3833 62.1095 42.4195C61.3436 42.6766 60.806 44.458 60.7502 45.2542C60.6791 46.3321 61.0022 47.338 61.604 48.2458C61.6205 48.2707 61.6268 48.2992 61.6337 48.3274C67.8632 49.9465 75.4229 50.8093 80.2379 50.4313C80.3084 50.4202 80.3741 50.4454 80.4236 50.4907C80.6612 50.5561 81.0986 50.7799 82.8137 51.3292C83.5142 51.5647 84.2375 51.853 84.9032 51.6628C85.1201 51.601 85.2902 51.4561 85.3262 51.3028C85.3688 51.1225 85.1717 50.935 84.7394 50.7424C84.3815 50.6335 83.9492 50.4613 83.6564 50.3749H83.6555C83.5226 50.3356 83.4467 50.1958 83.486 50.0626C83.5253 49.93 83.6648 49.8535 83.7977 49.8928C83.7981 49.8928 83.7984 49.8928 83.7986 49.8928C84.1844 50.0026 84.5726 50.1115 84.9362 50.2759C85.3622 50.4001 85.7924 50.4673 86.1581 50.3263C86.4401 50.2189 86.7518 49.8535 86.7176 49.5601C86.6453 48.9478 84.2093 48.5866 83.5988 48.4969L83.6507 47.9959C84.4712 48.1165 86.186 48.3883 86.8457 48.904C86.8574 48.9019 86.8676 48.8962 86.8799 48.8956C87.6584 48.8677 88.1003 47.9398 87.6473 47.401C87.0422 46.6813 85.0733 46.7986 84.2222 46.6879C83.8931 46.6444 83.957 46.1455 84.2879 46.189C84.9812 46.2808 86.4749 46.2019 87.4376 46.6462C87.4445 46.5937 87.464 46.5427 87.5039 46.5022C87.6611 46.3441 87.7454 46.1182 87.7292 45.898C87.6224 44.4337 84.5231 45.4312 83.9696 45.082C83.9694 45.0824 83.9692 45.0827 83.969 45.0829C83.8748 45.1855 83.6996 45.2077 83.5976 45.1147C83.4959 45.0205 83.4731 44.8786 83.5676 44.7769C83.8247 44.4985 83.8247 44.4985 83.9804 44.1841C84.1484 43.846 84.1805 43.4968 84.0698 43.2259C83.9537 42.9433 83.651 42.7573 83.3957 42.8128C83.1947 42.856 83.0216 43.0243 82.8323 43.2238C82.0934 44.0017 81.2561 44.8834 80.5136 45.8146ZM39.2456 33.607L39.2585 33.7201C39.5915 35.8594 39.494 35.9485 39.6917 36.0766C40.8074 36.8059 42.1259 37.1935 43.3418 36.6478C43.7312 36.4732 44.3393 36.1615 44.3399 35.7316C44.3303 35.7064 43.7489 33.424 43.736 33.373C42.3938 34.2541 40.7543 34.1707 39.2456 33.607ZM44.3399 35.7307C44.3399 35.7311 44.3399 35.7314 44.3399 35.7316C44.3401 35.732 44.3401 35.7317 44.3399 35.7307ZM43.736 32.7526C44.099 32.4712 44.4353 32.0938 44.738 31.6303C45.8357 29.9338 46.3697 27.7009 46.2416 25.3441C46.1267 23.2564 45.8477 20.8018 44.8292 18.9166C43.0367 19.4116 41.3429 18.7597 39.8075 17.6929C39.6899 19.0144 38.0957 20.2675 35.6717 19.6489C35.9237 19.9024 36.0569 20.2273 36.1886 20.5597C36.5864 21.5653 35.5862 21.7651 35.3744 21.9049C35.0087 22.1461 34.8614 22.6312 34.9139 23.0662C35.0978 24.5977 34.7204 27.3844 34.2335 26.962C34.004 26.7631 33.7916 26.5012 33.5975 26.1919C32.7218 25.2541 31.3268 23.2597 29.9519 23.6023C27.4175 24.2359 29.5583 29.5282 32.3096 28.3288C32.5712 28.2154 32.879 27.7504 33.305 27.8572C33.7223 27.9667 34.1369 28.9666 34.3304 29.2216C36.4385 32.0176 40.9484 34.9651 43.736 32.7526ZM46.7378 134.225C43.1504 135.664 40.2206 133.001 36.9488 132.152C36.4898 132.033 36.0191 132.009 35.564 131.987C34.6994 131.945 34.6982 131.919 34.0955 131.824C32.9927 131.652 32.4686 131.495 31.8728 130.577C31.7465 131.422 31.6976 132.442 32.2217 132.861C32.7002 133.244 33.3239 133.208 33.9854 133.172C37.4357 132.977 40.8212 135.533 44.7302 135.391C47.9471 135.281 50.4281 132.434 50.3993 130.294C50.3936 129.868 50.2229 129.543 49.988 129.224C50.0297 131.06 48.6254 133.468 46.7378 134.225ZM43.9523 127.744C44.594 127.473 44.8916 126.529 45.074 125.95C45.1877 125.59 45.1742 125.304 45.032 125.05C44.7644 124.569 44.0579 124.779 43.8872 125.667C43.7285 126.487 43.7807 127.206 43.9523 127.744ZM43.4423 127.802C43.2311 127.176 42.9083 126.617 42.4382 126.059C42.2837 125.876 42.0236 125.731 41.8766 125.818C41.7566 125.888 41.7212 125.957 41.7614 126.206C41.7908 126.386 41.9303 126.552 42.059 126.693L42.1961 126.846C42.5645 127.259 42.9719 127.714 43.4423 127.802ZM39.9482 127.896C39.7004 127.637 39.5549 127.338 39.5156 127.036C37.3832 127.469 35.429 127.134 33.6482 126.055C32.2235 127.72 31.136 128.911 32.5415 130.642C32.9414 131.136 33.5123 131.225 34.1729 131.327C34.7909 131.423 34.7396 131.442 35.5886 131.485C36.0692 131.508 36.566 131.533 37.0751 131.665C40.4033 132.531 43.1981 135.101 46.5506 133.758C48.3878 133.021 49.9337 130.324 49.3601 128.415C49.1222 127.624 48.524 127.102 47.7197 126.985C46.8026 126.849 46.2542 127.509 45.2876 127.867C45.1532 127.916 44.7992 128.051 44.7485 128.071C44.1137 128.839 43.8197 129.614 43.8527 130.44C43.8581 130.579 43.7501 130.696 43.6115 130.702C43.6079 130.702 43.6044 130.702 43.601 130.702C43.4672 130.702 43.3556 130.595 43.3502 130.46C43.3214 129.742 43.5125 129.042 43.9181 128.37C43.5527 128.493 43.1768 128.599 42.7835 128.669C42.0071 129.462 41.6243 130.222 41.5865 131.055C41.5712 131.391 41.0687 131.365 41.084 131.033C41.1203 130.226 41.429 129.49 42.0347 128.753C41.2214 128.768 40.502 128.477 39.9482 127.896ZM39.0908 123.498C39.0858 123.508 39.0808 123.518 39.0758 123.527C38.864 124.021 38.4791 124.289 38.0414 124.365C36.6569 124.605 35.0597 124.475 34.4567 123.198C34.2404 123.292 34.0775 123.417 33.9716 123.573C33.6557 124.032 33.7139 125.046 33.9713 125.663C35.6903 126.685 37.5179 126.965 39.5525 126.518C40.3271 125.073 40.5989 124.147 39.0908 123.498ZM39.1982 121.026C37.7651 120.935 36.2819 120.683 34.955 120.33C34.7621 120.984 34.6535 121.984 34.7918 122.607C35.0711 123.988 36.6239 124.101 37.9559 123.869C38.795 123.724 39.2255 121.841 39.1982 121.026ZM71.9042 124.069C71.9669 124.774 72.1541 125.447 72.5402 126.048C73.0817 125.61 73.1075 124.62 73.1231 124.013C73.133 123.636 73.0412 123.365 72.8345 123.161C72.4412 122.771 71.8238 123.171 71.9042 124.069ZM62.3726 131.983C63.002 132.423 63.7238 132.224 64.5122 132.146C66.3269 131.961 65.8415 131.368 70.2515 131.989C72.6209 132.323 74.7743 132.606 76.6973 131.111C78.2621 129.894 79.0001 126.874 77.9231 125.2C77.4755 124.504 76.757 124.172 75.9518 124.278C75.0302 124.404 74.6804 125.192 73.8575 125.797C73.73 125.891 73.4465 126.103 73.3961 126.141C72.9974 127.055 72.9287 127.881 73.1885 128.666C73.2425 128.829 73.121 128.997 72.9497 128.997C72.8441 128.997 72.746 128.93 72.7109 128.824C72.4853 128.142 72.4754 127.416 72.68 126.659C72.3629 126.878 72.0308 127.083 71.672 127.259C71.1446 128.234 70.9862 129.071 71.18 129.883C71.2574 130.208 70.7681 130.325 70.6907 130C70.5035 129.215 70.5965 128.422 70.9751 127.546C70.1981 127.785 69.4268 127.704 68.7338 127.299C68.4236 127.118 68.201 126.871 68.0801 126.592C66.0872 127.634 64.1549 127.808 62.1707 127.268C61.2566 129.267 60.5465 130.709 62.3726 131.983ZM62.3177 123.638C62.9651 124.893 64.4954 124.564 65.7068 123.979C66.4727 123.609 66.3674 121.678 66.1157 120.901C64.7054 121.21 63.2189 121.37 61.8458 121.397C61.8398 122.08 62.0114 123.076 62.3177 123.638ZM62.3723 126.802C64.3079 127.31 66.1415 127.075 67.973 126.084C68.3168 124.485 68.3267 123.515 66.6956 123.309C66.6932 123.321 66.6909 123.333 66.6887 123.345C66.6239 123.869 66.3257 124.238 65.9258 124.432C64.6625 125.042 63.077 125.362 62.1584 124.299C61.9766 124.448 61.8548 124.614 61.7957 124.793C61.619 125.321 61.955 126.28 62.3723 126.802ZM72.0656 126.244C71.6903 125.701 71.2256 125.252 70.6196 124.846C69.9914 124.424 69.5483 125.017 70.4303 125.56C71.6015 126.299 71.819 126.269 72.0656 126.244ZM79.4405 126.719C79.3178 126.313 79.0634 126.049 78.7508 125.808C79.2917 127.547 78.6215 130.251 77.0063 131.507C74.9336 133.12 72.6674 132.837 70.181 132.487C65.8571 131.878 66.4877 132.452 64.5632 132.646C63.2897 132.777 62.6984 132.962 61.712 132.106C61.8239 132.952 62.0585 133.945 62.6777 134.204C63.5309 134.559 64.4696 133.901 65.3897 133.748C68.8616 133.173 72.0656 134.265 75.3986 133.183C78.4688 132.186 80.0567 128.761 79.4405 126.719Z" fill="black"/>
<path d="M56.3907 48.6764L55.4856 45.2465C55.4502 45.1157 55.3146 45.0353 55.1838 45.0656C55.0479 45.1007 54.9675 45.2366 54.9975 45.3722C55.2642 46.4888 55.5711 47.6456 55.908 48.8123C55.9917 49.1192 56.4759 49.0049 56.3907 48.6764Z" fill="black"/>
<path d="M42.8047 25.2217C42.8914 25.4188 42.7954 25.6678 42.6625 25.8274C42.49 26.0335 42.2323 26.176 41.9833 26.3134C41.7565 26.4391 41.8462 26.785 42.1051 26.785C42.1462 26.785 42.1879 26.7751 42.2266 26.7535C42.5026 26.6014 42.8155 26.4286 43.0483 26.1496C43.3324 25.8097 43.4173 25.366 43.2649 25.0195C43.0378 24.5014 41.8222 24.0562 41.2735 22.3342C41.2309 22.2016 41.0899 22.1299 40.9573 22.1707C40.825 22.213 40.7521 22.3543 40.7941 22.4866C41.3764 24.3151 42.6577 24.8869 42.8047 25.2217Z" fill="black"/>
<path d="M31.3499 26.3116C31.3487 26.3116 31.3474 26.3116 31.346 26.3116C31.0994 26.3497 30.8882 25.9882 31.0946 25.7599C31.1876 25.657 31.1795 25.4977 31.0763 25.405C30.9734 25.3126 30.8144 25.3201 30.7214 25.423C30.2414 25.954 30.6185 26.8144 31.3415 26.8144C31.3457 26.8144 31.3498 26.8144 31.3538 26.8144C31.4927 26.8126 31.6037 26.698 31.6013 26.5591C31.5992 26.4217 31.4873 26.3116 31.3499 26.3116Z" fill="black"/>
<path d="M43.1337 21.2333C43.65 20.8544 44.3295 20.7203 44.9502 20.8706C45.0825 20.9015 45.2208 20.8211 45.2541 20.6864C45.2871 20.5514 45.2046 20.4155 45.0693 20.3825C44.3049 20.195 43.4703 20.3618 42.8361 20.8274C42.7242 20.9099 42.6999 21.0671 42.7824 21.1793C42.8655 21.2927 43.0239 21.314 43.1337 21.2333Z" fill="black"/>
<path d="M39.4518 21.7861C39.5844 21.8221 39.7242 21.7459 39.7623 21.6124C39.7998 21.4786 39.7221 21.3397 39.5883 21.3019C38.7102 21.0553 37.719 21.3508 37.122 22.0402C36.9024 22.294 37.2888 22.6162 37.5024 22.369C37.9665 21.8329 38.7684 21.592 39.4518 21.7861Z" fill="black"/>
<path d="M75.9507 65.5078C79.3815 70.7032 86.5518 78.3253 96.5448 84.3475C96.8337 84.5179 97.0863 84.0862 96.8046 83.9161C86.775 77.8726 79.6161 70.2151 76.2609 65.0638C76.1946 64.9621 76.0653 64.921 75.9543 64.9684C74.4906 65.5711 72.7938 65.047 71.9214 63.721C71.8554 63.6202 71.727 63.58 71.616 63.6262L63.507 66.9433C63.3786 66.9961 63.3168 67.1428 63.3693 67.2715C63.4218 67.3996 63.5688 67.4611 63.6975 67.4092L71.6202 64.168C72.6135 65.5126 74.3757 66.0574 75.9507 65.5078Z" fill="black"/>
<path d="M58.3673 72.0485C58.3643 71.9102 58.2572 71.8154 58.1105 71.8025C57.9719 71.8055 57.8615 71.9204 57.8642 72.059C57.893 73.4597 57.0827 74.6894 55.7993 75.1925C55.637 75.2558 55.5866 75.4634 55.7036 75.5942C60.6485 81.1373 67.1132 84.6299 71.666 86.5838C71.6988 86.5974 71.7319 86.6041 71.7653 86.6039C72.0371 86.6039 72.1151 86.2289 71.8646 86.1209C67.4294 84.2183 61.1624 80.8415 56.3093 75.515C57.6002 74.8649 58.3976 73.5401 58.3673 72.0485Z" fill="black"/>
<path d="M109.772 105.365L108.786 117.918L89.6369 116.533C89.4977 116.519 89.378 116.628 89.3678 116.766C89.3579 116.905 89.462 117.025 89.6006 117.035C109.633 118.482 108.964 118.438 109.018 118.438C109.148 118.438 109.258 118.338 109.268 118.206L110.274 105.405C110.299 105.077 109.798 105.027 109.772 105.365Z" fill="black"/>
<path fill-rule="evenodd" clip-rule="evenodd" d="M135.693 54.79L135.643 128.761C135.643 128.897 135.533 129.009 135.397 129.012C135.344 129.014 112.234 129.504 112.179 129.504C112.109 129.504 112.042 129.475 111.995 129.424C111.845 129.263 111.749 131.406 116.753 79.7449L100.974 81.5791C100.639 81.6118 100.589 81.1177 100.916 81.0793L116.964 79.2136L123.351 76.1422C126.159 48.1129 125.851 49.765 126.075 49.6462C126.299 49.5244 125.794 49.4182 135.559 54.568C135.641 54.6118 135.693 54.697 135.693 54.79ZM135.19 54.9406L126.407 50.266L123.838 76.3324C123.829 76.4197 123.776 76.4962 123.697 76.534L117.27 79.6243L112.457 128.995L135.14 128.514L135.19 54.9406Z" fill="black"/>
<path d="M111.045 61.3162L106.676 65.7637L104.821 63.9409C104.722 63.8434 104.563 63.8443 104.466 63.9439C104.368 64.0432 104.37 64.2023 104.469 64.2998C106.539 66.2993 106.484 66.3709 106.679 66.3709C106.9 66.3526 106.59 66.5224 111.404 61.669C111.501 61.5697 111.5 61.4107 111.401 61.3135C111.302 61.2157 111.143 61.2172 111.045 61.3162Z" fill="#D1AA67"/>
<path d="M40.0746 23.2907C40.1304 23.1635 40.0725 23.015 39.945 22.9595C39.8181 22.9037 39.6696 22.9625 39.6138 23.0894C39.456 23.4491 38.9169 23.4047 38.5476 23.3678C38.2107 23.3405 38.1708 23.8352 38.4969 23.8676C39.1482 23.9336 39.8103 23.8952 40.0746 23.2907Z" fill="black"/>
<path d="M45.0501 22.1038C44.8419 22.5796 44.1594 22.5259 43.6833 22.4791C43.5501 22.4653 43.4217 22.5652 43.4076 22.7035C43.3935 22.8415 43.4943 22.9654 43.6323 22.9792C44.3724 23.0557 45.1959 23.0248 45.5109 22.3054C45.5667 22.1782 45.5088 22.0297 45.3816 21.9742C45.2535 21.9184 45.1053 21.9766 45.0501 22.1038Z" fill="black"/>
<path fill-rule="evenodd" clip-rule="evenodd" d="M83.6936 80.3176C82.6979 85.1155 76.2395 87.8236 73.4336 84.5374C71.5421 82.3231 72.6164 78.8518 74.9882 76.8268C79.1849 73.2445 84.6989 75.4726 83.6936 80.3176ZM79.478 75.5617C74.8619 75.5617 71.2619 81.2194 73.8161 84.2113C76.3061 87.1288 82.2767 84.6703 83.201 80.2153C83.7506 77.5678 82.0883 75.5617 79.478 75.5617Z" fill="black"/>
<path d="M81.0053 78.0352L80.6267 78.358C79.9619 77.8264 79.0124 77.8633 78.3926 78.3238C77.8064 78.7576 77.5232 79.5547 77.7038 80.2621C77.8034 80.6521 78.041 81.016 78.1052 81.3445C78.1949 81.8026 77.9636 82.315 77.5559 82.5634C77.1524 82.8082 76.5917 82.7908 76.1915 82.5193C75.7961 82.2511 75.5609 81.7432 75.6065 81.2557C75.6191 81.1174 75.5174 80.9947 75.3791 80.9821C75.2438 80.9701 75.1184 81.0709 75.1055 81.2095C75.068 81.613 75.1682 82.0165 75.3707 82.3564L75.0785 82.6063C74.9009 82.7572 75.0095 83.0488 75.2417 83.0488C75.3917 83.0488 75.4388 82.9408 75.6836 82.7503C76.2887 83.3281 77.1872 83.3767 77.8172 82.9927C78.4079 82.6336 78.7295 81.916 78.599 81.2482C78.5144 80.8168 78.2825 80.4955 78.191 80.1373C78.062 79.6312 78.2723 79.0384 78.692 78.7276C79.1108 78.4171 79.7399 78.3871 80.1863 78.6589C80.6327 78.9301 80.8973 79.5007 80.8154 80.0164C80.7632 80.344 81.26 80.425 81.3119 80.095C81.3881 79.6153 81.2528 79.1176 80.9717 78.7246L81.332 78.4171C81.4376 78.3274 81.4502 78.1687 81.3599 78.0631C81.2693 77.9569 81.1109 77.9446 81.0053 78.0352Z" fill="black"/>
<path d="M71.5036 73.3009C71.5534 73.3009 71.6035 73.2862 71.647 73.2556C71.761 73.1767 71.7892 73.0201 71.71 72.9061L69.6667 69.97C69.5875 69.856 69.4309 69.8275 69.3169 69.907C69.2029 69.9862 69.1747 70.1428 69.2542 70.2568L71.2969 73.1929C71.3458 73.2631 71.4241 73.3009 71.5036 73.3009Z" fill="black"/>
<path d="M68.4772 74.9011C68.6764 74.9011 68.8006 74.6746 68.6836 74.5063L66.6403 71.5702C66.5608 71.4562 66.4039 71.4277 66.2905 71.5072C66.1765 71.5864 66.1483 71.743 66.2278 71.857C68.3506 74.8348 68.2315 74.9011 68.4772 74.9011Z" fill="black"/>
<path d="M40.07 30.0571C41.5352 31.0633 44.0621 30.7768 44.5571 28.9972C44.5943 28.8637 44.5157 28.7251 44.3819 28.6879C44.2496 28.6495 44.1098 28.7284 44.0723 28.8625C43.6811 30.2698 41.5586 30.4696 40.3547 29.6425C40.2398 29.5639 40.0838 29.5936 40.0052 29.7073C39.9266 29.8219 39.9554 29.9785 40.07 30.0571Z" fill="black"/>
<path d="M46.2637 36.8891C45.5029 38.3195 43.8226 39.0128 42.274 38.534C42.1405 38.4917 42.0004 38.5673 41.9596 38.6999C41.9185 38.8325 41.9926 38.9735 42.1252 39.0143C43.9168 39.5675 45.8353 38.7644 46.7077 37.1258C46.7731 37.0031 46.7263 36.8507 46.6039 36.7853C46.4809 36.7196 46.3288 36.7664 46.2637 36.8891Z" fill="black"/>
<path d="M122.843 114.904L128.941 103.081C129.005 102.957 128.956 102.806 128.833 102.742C128.71 102.678 128.558 102.727 128.494 102.85L122.396 114.673C122.244 114.97 122.691 115.199 122.843 114.904Z" fill="black"/>
<path d="M124.319 105.644C124.196 105.58 124.044 105.629 123.981 105.753L120.984 111.563C120.92 111.687 120.969 111.839 121.092 111.902C121.214 111.965 121.367 111.919 121.431 111.794L124.428 105.983C124.491 105.86 124.443 105.708 124.319 105.644H124.319Z" fill="black"/>
<path d="M75.6891 138.996C75.2967 138.986 39.1689 138.141 33.4758 137.973C34.1877 137.606 35.4036 137.033 36.54 136.521C36.7812 136.413 36.711 136.052 36.4482 136.041L25.4814 135.55L15.2394 132.593L21.7668 129.294C22.1898 129.243 25.6071 128.836 29.7735 128.319C29.9112 128.302 30.0093 128.177 29.9922 128.039C29.9748 127.901 29.8503 127.797 29.7117 127.82C25.2597 128.372 21.6636 128.8 21.6633 128.8C21.6339 128.803 21.606 128.812 21.5796 128.825L14.4414 132.432C14.2371 132.536 14.2671 132.836 14.4852 132.899L25.3707 136.041C25.3899 136.047 25.4094 136.05 25.4292 136.051L35.3778 136.496C32.3751 137.873 32.3952 138.019 32.4222 138.216C32.4375 138.326 32.5473 138.429 32.658 138.445C33.0312 138.5 71.3136 139.396 75.6774 139.499C75.6794 139.499 75.6814 139.499 75.6834 139.499C75.8196 139.499 75.9315 139.39 75.9348 139.253C75.9378 139.114 75.828 138.999 75.6891 138.996Z" fill="black"/>
<path fill-rule="evenodd" clip-rule="evenodd" d="M94.2558 137.636C94.2558 138.764 90.7716 139.062 88.9293 139.062C87.0867 139.062 83.6025 138.764 83.6025 137.636C83.6025 136.505 87.0867 136.206 88.9293 136.206C90.7716 136.206 94.2558 136.505 94.2558 137.636ZM93.753 137.636C93.753 137.359 92.1117 136.709 88.9293 136.709C85.7466 136.709 84.1053 137.359 84.1053 137.636C84.1053 137.912 85.7466 138.559 88.9293 138.559C92.1117 138.559 93.753 137.912 93.753 137.636Z" fill="black"/>
<path d="M116.199 46.8928C117.942 43.1095 120.016 39.4483 122.365 36.0124C122.443 35.8972 122.414 35.7412 122.299 35.6626C122.184 35.5849 122.028 35.614 121.95 35.7283C119.585 39.1879 117.497 42.8731 115.742 46.6825C115.602 46.9849 116.06 47.1937 116.199 46.8928Z" fill="black"/>
<path d="M110.962 46.772C110.953 46.9109 111.059 47.0303 111.197 47.0387C111.323 47.051 111.455 46.9496 111.464 46.8035C111.893 39.8762 111.66 32.8895 110.773 26.0366C110.754 25.8986 110.629 25.8023 110.491 25.8197C110.353 25.8377 110.256 25.9634 110.273 26.1014C111.158 32.9225 111.389 39.8774 110.962 46.772Z" fill="black"/>
<path d="M106.181 46.8898C106.223 46.9837 106.315 47.0392 106.412 47.0392C106.592 47.0392 106.715 46.8523 106.641 46.6855C104.964 42.9046 102.897 39.2773 100.497 35.9056C100.417 35.7928 100.26 35.7661 100.147 35.8468C100.034 35.9272 100.007 36.0841 100.088 36.1975C102.467 39.5416 104.518 43.1395 106.181 46.8898Z" fill="black"/>
</svg>
