<svg width="150" height="110" viewBox="0 0 150 110" fill="none" xmlns="http://www.w3.org/2000/svg">
<path d="M35.5766 6.971L35.2817 6.71085C34.9294 6.40228 34.3976 6.41171 34.0568 6.73614L31.9804 8.71828C31.6513 9.03157 31.1263 9.01742 30.8156 8.68399L30.813 8.67928C30.3964 8.23014 29.655 8.36128 29.4158 8.92528L28.3084 11.5361H27.9677C27.1436 11.5361 26.4758 12.2039 26.4758 13.028C26.4758 13.3456 26.577 13.6541 26.7634 13.9121C27.3758 14.7478 28.8771 16.5436 30.4101 16.4604L31.2596 16.4167V19.8748L28.2531 22.6143C22.104 18.1529 22.9144 11.6467 23.8123 8.43285C24.1941 7.07 24.9287 5.82885 25.974 4.87614C27.7813 3.23 29.7518 2.56014 31.8677 2.75771C34.0478 2.963 35.6156 4.85771 35.5766 6.971Z" fill="#2E2E2E"/>
<path fill-rule="evenodd" clip-rule="evenodd" d="M28.2542 22.8472C28.207 22.8472 28.1594 22.8327 28.1192 22.8035C21.9272 18.3108 22.6249 11.8342 23.5917 8.37395C23.9942 6.93823 24.7647 5.67095 25.8199 4.7088C27.6336 3.05709 29.6757 2.32423 31.8902 2.53166C34.129 2.74209 35.8497 4.69509 35.8073 6.97809C35.8056 7.06766 35.752 7.14823 35.6702 7.18423C35.5879 7.22066 35.4923 7.20523 35.425 7.14609L35.1306 6.88595C34.8653 6.65409 34.4723 6.6618 34.2164 6.90566L32.14 8.88737C31.9352 9.08237 31.6652 9.18609 31.3836 9.17623C31.1012 9.16766 30.8402 9.04938 30.6482 8.84323C30.6427 8.83752 30.6376 8.83152 30.6327 8.82523C30.4896 8.67909 30.2929 8.61609 30.0897 8.65166C29.8797 8.68852 29.7117 8.8218 29.6286 9.01809L28.5212 11.6289C28.4852 11.7138 28.4016 11.7691 28.3094 11.7691H27.9687C27.2727 11.7691 26.707 12.3352 26.707 13.0308C26.707 13.2999 26.7914 13.5592 26.9509 13.7799C27.5097 14.5428 28.9656 16.3107 30.3987 16.2335L31.249 16.1898C31.3116 16.1855 31.3737 16.2095 31.4192 16.2528C31.465 16.2961 31.4907 16.3565 31.4907 16.4195V19.8777C31.4907 19.9424 31.4637 20.0041 31.4157 20.0474L28.4093 22.7872C28.3656 22.8271 28.3099 22.8472 28.2542 22.8472ZM31.1676 2.95766C29.347 2.95766 27.6554 3.65923 26.1297 5.04909C25.1384 5.95295 24.4137 7.14566 24.0349 8.4978C23.1079 11.8149 22.4342 17.9958 28.2387 22.3201L31.0309 19.7757V16.6617L30.4232 16.6929C28.8284 16.7778 27.3293 15.0747 26.5789 14.0508C26.3612 13.7499 26.2467 13.3977 26.2467 13.0308C26.2467 12.0815 27.019 11.3088 27.9687 11.3088H28.1569L29.2047 8.83852C29.3483 8.5008 29.6492 8.26166 30.0104 8.19823C30.3704 8.13566 30.7343 8.2578 30.9829 8.52566C30.988 8.53109 30.9929 8.53695 30.9974 8.54323C31.1037 8.65038 31.2452 8.71166 31.3977 8.71637C31.5559 8.72195 31.708 8.66366 31.8229 8.55438L33.8989 6.57266C34.294 6.19595 34.8842 6.15481 35.3234 6.45438C35.1199 4.63938 33.6773 3.16166 31.8469 2.98981C31.6186 2.96838 31.3922 2.95766 31.1676 2.95766Z" fill="black"/>
<path d="M48.8397 26.513L37.7889 21.0453C36.9048 20.6078 35.9311 20.3798 34.9458 20.3798H33.8889H28.4581C25.8819 20.3798 23.7939 22.4678 23.7939 25.0439V55.1729H41.6199L41.5231 42.971L41.3941 38.6845L41.1365 30.1019" fill="#2E2E2E"/>
<path d="M41.6186 55.4012H23.7926C23.6658 55.4012 23.5625 55.298 23.5625 55.1711V25.0421C23.5625 22.3434 25.7581 20.1478 28.4568 20.1478H34.9445C35.9602 20.1478 36.9785 20.3861 37.8896 20.837L48.9403 26.3047C49.0543 26.3613 49.1006 26.4993 49.0445 26.6133C48.9879 26.7268 48.8503 26.7735 48.7363 26.7174L37.6856 21.2497C36.8375 20.8297 35.8899 20.6081 34.9445 20.6081H28.4568C26.0118 20.6081 24.0228 22.5971 24.0228 25.0421V54.941H41.3868L41.2916 42.971L40.9051 30.107C40.9012 29.9801 41.0011 29.8743 41.1283 29.8704C41.2565 29.8618 41.3611 29.9664 41.3649 30.0933L41.7519 42.9624L41.8488 55.1694C41.8492 55.2307 41.8252 55.2894 41.7819 55.3331C41.7386 55.3764 41.6799 55.4012 41.6186 55.4012Z" fill="black"/>
<path d="M67.2559 21.4342C66.5861 22.4014 65.5429 23.0756 64.1021 23.4373C63.5518 23.5753 62.9415 23.6696 62.2742 23.7159L52.8971 31.5039L52.5336 31.8056L52.3288 31.9762C51.6263 32.5586 50.7632 32.8946 49.8675 32.9451C49.6052 32.9614 49.3403 32.9546 49.0781 32.9199L43.2949 30.8661L45.4725 24.846L48.8385 26.5106L51.9602 25.0213L53.9055 24.0934L61.0262 20.6974L61.1989 20.0092" fill="#F8F9FA"/>
<path d="M49.6051 33.1845C49.4162 33.1845 49.2316 33.1726 49.0514 33.1489C49.0354 33.1469 49.0198 33.1432 49.0046 33.1378L43.2215 31.0841C43.1636 31.0635 43.1165 31.0211 43.0904 30.9658C43.0642 30.9105 43.0612 30.8466 43.0822 30.7892L45.2598 24.7691C45.2821 24.7074 45.3296 24.6581 45.3905 24.6336C45.4514 24.6092 45.5195 24.6122 45.5782 24.6409L48.8439 26.2558L60.8332 20.5378L60.9793 19.9545C61.0102 19.8311 61.1353 19.7565 61.2588 19.7874C61.3818 19.8182 61.4568 19.9429 61.4259 20.0664L61.2532 20.7546C61.2365 20.8211 61.1911 20.8768 61.1289 20.9064L48.9412 26.7191C48.8778 26.7499 48.8036 26.7491 48.7402 26.7178L45.6052 25.1676L43.5935 30.7279L49.1354 32.6959C49.3672 32.7251 49.6098 32.7319 49.8571 32.7169C50.7164 32.6681 51.5208 32.3514 52.1855 31.8002L62.1309 23.5399C62.1678 23.5091 62.2136 23.4906 62.2621 23.4872C62.9058 23.4426 63.5071 23.3514 64.0496 23.2151C65.4125 22.8731 66.4291 22.2306 67.0706 21.3045C67.1426 21.1999 67.2862 21.1738 67.3908 21.2462C67.4949 21.3186 67.5211 21.4622 67.4486 21.5664C66.7419 22.5868 65.6358 23.2918 64.1615 23.6612C63.6142 23.7988 63.0108 23.8926 62.3679 23.9411L52.4795 32.1542C51.7385 32.7684 50.8411 33.1219 49.8841 33.1759C49.7906 33.1816 49.6976 33.1845 49.6051 33.1845Z" fill="black"/>
<path d="M62.5137 20.0364V20.7457C63.1835 20.6514 63.817 20.5177 64.4131 20.3381" fill="#F8F9FA"/>
<path d="M62.5173 20.9763C62.4624 20.9763 62.4084 20.9566 62.3664 20.9201C62.3163 20.8764 62.2871 20.813 62.2871 20.7466V20.0373C62.2871 19.9104 62.3904 19.8071 62.5173 19.8071C62.6445 19.8071 62.7474 19.9104 62.7474 20.0373V20.4791C63.3191 20.3883 63.8574 20.2674 64.3503 20.1187C64.4715 20.0827 64.6001 20.1508 64.637 20.2726C64.6734 20.3943 64.6048 20.5228 64.4831 20.5593C63.893 20.7371 63.2424 20.8764 62.5494 20.9741C62.5388 20.9756 62.5281 20.9763 62.5173 20.9763Z" fill="black"/>
<path d="M60.9982 43.311L60.5838 44.7176C60.3995 45.3416 59.794 45.7419 59.1472 45.6776C56.5964 45.4174 54.202 44.5727 51.9875 43.0715L41.5244 42.9729C41.5244 42.9729 37.2442 42.9407 34.4062 39.9686C35.5364 39.1076 37.795 37.3903 38.8861 36.5452L40.1847 38.3366L41.3954 38.6863L53.1382 40.0993L55.3025 39.4779C55.7144 39.3604 56.1472 39.5769 56.2994 39.975C56.3362 40.0693 56.3521 40.1683 56.3521 40.2673C56.3521 40.371 56.3337 40.4769 56.2947 40.5737L55.9655 41.3932C57.1004 42.6227 58.8687 43.1636 60.9982 43.311Z" fill="#F8F9FA"/>
<path fill-rule="evenodd" clip-rule="evenodd" d="M59.2821 45.9102C59.2295 45.9105 59.1765 45.9079 59.1231 45.9025C56.5182 45.6368 54.0934 44.7604 51.9145 43.2968L41.5208 43.1991C41.3425 43.1978 37.1108 43.1318 34.2385 40.1237C34.1931 40.0765 34.1704 40.0118 34.1755 39.9467C34.1807 39.8815 34.2132 39.8215 34.2651 39.7817L34.7781 39.3912C35.9815 38.475 37.8004 37.0898 38.7437 36.3595C38.793 36.3214 38.8555 36.3047 38.9172 36.3137C38.9789 36.3222 39.0342 36.3561 39.0711 36.4062L40.323 38.1334L41.4402 38.4561L53.1184 39.8614L55.2377 39.2528C55.7687 39.1015 56.3168 39.375 56.5127 39.8892C56.5577 40.0045 56.5808 40.131 56.5808 40.2634C56.5808 40.4001 56.5551 40.5355 56.5067 40.656L56.2328 41.3378C57.2378 42.3552 58.8034 42.9248 61.0127 43.0774C61.0821 43.0825 61.1455 43.1185 61.1854 43.1759C61.2252 43.2329 61.2372 43.305 61.2175 43.3722L60.8031 44.7788C60.6034 45.4547 59.9785 45.9102 59.2821 45.9102ZM34.752 39.9895C37.4862 42.6732 41.4839 42.7388 41.5251 42.7388L51.9882 42.8374C52.0332 42.8378 52.0774 42.8519 52.1151 42.8772C54.2451 44.3211 56.6185 45.1847 59.1689 45.4448C59.7081 45.4971 60.2095 45.1637 60.3617 44.6485L60.6959 43.5145C58.4399 43.3174 56.8349 42.672 55.7948 41.5452C55.7348 41.4801 55.7177 41.3858 55.7507 41.3035L56.0798 40.4841C56.1068 40.4177 56.1209 40.3414 56.1209 40.2634C56.1207 40.188 56.1082 40.1184 56.0837 40.0547C55.9727 39.7637 55.6637 39.6094 55.3641 39.6951L53.2007 40.3165C53.1707 40.3251 53.1402 40.3275 53.1094 40.3238L41.3665 38.9108C41.3542 38.9094 41.3421 38.907 41.3301 38.9035L40.1194 38.5534C40.0701 38.5392 40.0268 38.5088 39.9968 38.4677L38.8375 36.8687C37.8548 37.6268 36.1851 38.898 35.0567 39.7572L34.752 39.9895Z" fill="black"/>
<path d="M34.4074 40.1946C34.3418 40.1946 34.2767 40.1667 34.2313 40.1127C34.0954 39.9511 33.9621 39.7754 33.8353 39.5903L29.049 32.6148C28.9774 32.5098 29.004 32.3667 29.1085 32.2947C29.2135 32.2231 29.3567 32.2497 29.4287 32.3543L34.215 39.3301C34.3345 39.5054 34.455 39.6644 34.5831 39.8161C34.665 39.9134 34.6525 40.0587 34.5557 40.1406C34.5124 40.177 34.4597 40.1946 34.4074 40.1946Z" fill="black"/>
<path d="M38.8867 36.7753C38.8152 36.7753 38.7449 36.7423 38.6999 36.6801L33.1932 29.0785C33.1186 28.9757 33.1417 28.8317 33.2446 28.7571C33.3474 28.6825 33.4914 28.7057 33.566 28.8085L39.0727 36.4101C39.1473 36.5134 39.1242 36.657 39.0213 36.7315C38.9806 36.7611 38.9334 36.7753 38.8867 36.7753Z" fill="black"/>
<path d="M32.2143 22.1206H31.4442C30.4293 22.1206 29.6064 21.2977 29.6064 20.2828V16.1141H33.9517V20.3831C33.9517 21.3427 33.1739 22.1206 32.2143 22.1206Z" fill="#F8F9FA"/>
<path fill-rule="evenodd" clip-rule="evenodd" d="M32.2069 22.3489H31.3536C30.2642 22.3489 29.3779 21.4622 29.3779 20.3728V16.1123C29.3779 15.9855 29.4808 15.8822 29.6076 15.8822H33.9529C34.0798 15.8822 34.1826 15.9855 34.1826 16.1123V20.3728C34.1826 21.4622 33.2964 22.3489 32.2069 22.3489ZM29.8378 16.3425V20.3728C29.8378 21.2085 30.5179 21.8886 31.3536 21.8886H32.2069C33.0426 21.8886 33.7228 21.2085 33.7228 20.3728V16.3425H29.8378Z" fill="black"/>
<path d="M33.4412 16.3021L31.2564 16.4148L30.4069 16.4585C28.8739 16.5416 27.3727 14.7459 26.7602 13.9102C26.5738 13.6522 26.4727 13.3436 26.4727 13.0261C26.4727 12.2019 27.1404 11.5342 27.9645 11.5342H28.3052L29.4127 8.92335C29.6518 8.35935 30.3932 8.2282 30.8098 8.67735L30.8124 8.68206C31.1231 9.01549 31.6481 9.02963 31.9772 8.71635L34.0537 6.73421C34.3944 6.40978 34.9262 6.40035 35.2785 6.70892L35.5734 6.96906L35.6539 7.0402C37.2354 16.3136 33.4412 16.3021 33.4412 16.3021Z" fill="#F8F9FA"/>
<path fill-rule="evenodd" clip-rule="evenodd" d="M30.3031 16.6946C28.7509 16.6946 27.3083 15.048 26.5763 14.049C26.3586 13.7482 26.2441 13.3959 26.2441 13.029C26.2441 12.0797 27.0164 11.307 27.9661 11.307H28.1543L29.2021 8.83674C29.3457 8.49903 29.6466 8.25989 30.0079 8.19646C30.3679 8.13389 30.7317 8.25603 30.9803 8.52388C30.9854 8.52931 30.9903 8.53517 30.9949 8.54146C31.1011 8.6486 31.2426 8.70989 31.3951 8.7146C31.5533 8.72017 31.7054 8.66189 31.8203 8.5526L33.8963 6.57089C34.3257 6.1616 34.9857 6.14789 35.4319 6.53874L35.8077 6.87089C35.8471 6.9056 35.8733 6.95317 35.8823 7.0046C36.7823 12.2812 35.938 14.6092 35.0714 15.633C34.3454 16.4906 33.5461 16.533 33.4506 16.5352L30.4206 16.6912C30.3814 16.6935 30.3423 16.6946 30.3031 16.6946ZM27.9661 11.7673C27.2701 11.7673 26.7044 12.3335 26.7044 13.029C26.7044 13.2982 26.7889 13.5575 26.9483 13.7782C27.5071 14.541 28.963 16.3089 30.3961 16.2317L33.4313 16.0753C33.4347 16.075 33.4383 16.0749 33.442 16.0749C33.4711 16.0745 34.12 16.0569 34.7346 15.3185C35.5253 14.3696 36.2869 12.1839 35.4421 7.16189L35.128 6.88417C34.8627 6.65232 34.4697 6.66003 34.2139 6.90389L32.1374 8.8856C31.9326 9.0806 31.6626 9.18432 31.381 9.17446C31.0986 9.16589 30.8376 9.0476 30.6456 8.84146C30.6401 8.83574 30.635 8.82974 30.6301 8.82346C30.487 8.67732 30.2903 8.61431 30.0871 8.64988C29.8771 8.68674 29.7091 8.82003 29.626 9.01632L28.5186 11.6272C28.4826 11.712 28.399 11.7673 28.3069 11.7673H27.9661Z" fill="black"/>
<path d="M38.4854 29.1486L43.2956 30.8672L45.4736 24.847L42.6635 23.4554" fill="#2E2E2E"/>
<path d="M43.2993 31.0979C43.2736 31.0979 43.2478 31.0933 43.2221 31.0842L38.4114 29.3661C38.2918 29.3232 38.2297 29.1916 38.2721 29.0721C38.315 28.9525 38.4466 28.8899 38.5661 28.9328L43.1608 30.5738L45.191 24.9625L42.5651 23.6622C42.4511 23.6061 42.4048 23.4681 42.461 23.3541C42.5176 23.2405 42.6556 23.1933 42.7696 23.2499L45.5793 24.6415C45.6843 24.6933 45.7336 24.8155 45.6937 24.9256L43.5157 30.9462C43.4818 31.0396 43.3936 31.0979 43.2993 31.0979Z" fill="black"/>
<path d="M61.621 43.6141C55.1106 43.6141 49.8135 38.3174 49.8135 31.807C49.8135 25.2961 55.1106 19.9994 61.621 19.9994C68.1315 19.9994 73.4282 25.2961 73.4282 31.807C73.4282 38.3174 68.1315 43.6141 61.621 43.6141Z" fill="#D1AA67"/>
<path fill-rule="evenodd" clip-rule="evenodd" d="M61.6242 43.842C54.9865 43.842 49.5869 38.442 49.5869 31.8047C49.5869 25.167 54.9865 19.7675 61.6242 19.7675C68.2615 19.7675 73.6615 25.167 73.6615 31.8047C73.6615 38.442 68.2615 43.842 61.6242 43.842ZM61.6242 20.2273C55.2406 20.2273 50.0468 25.4212 50.0468 31.8047C50.0468 38.1883 55.2406 43.3817 61.6242 43.3817C68.0078 43.3817 73.2012 38.1883 73.2012 31.8047C73.2012 25.4212 68.0078 20.2273 61.6242 20.2273Z" fill="black"/>
<path d="M70.3466 31.8076C70.3466 36.6273 66.4393 40.5346 61.6196 40.5346C56.7999 40.5346 52.8926 36.6273 52.8926 31.8076C52.8926 26.9875 56.7999 23.0802 61.6196 23.0802C66.4393 23.0802 70.3466 26.9875 70.3466 31.8076Z" fill="#D1AA67"/>
<path fill-rule="evenodd" clip-rule="evenodd" d="M61.6202 40.7625C56.6814 40.7625 52.6631 36.7443 52.6631 31.8054C52.6631 26.8661 56.6814 22.8483 61.6202 22.8483C66.5591 22.8483 70.5774 26.8661 70.5774 31.8054C70.5774 36.7443 66.5591 40.7625 61.6202 40.7625ZM61.6202 23.3081C56.9351 23.3081 53.1229 27.1198 53.1229 31.8054C53.1229 36.4905 56.9351 40.3023 61.6202 40.3023C66.3054 40.3023 70.1171 36.4905 70.1171 31.8054C70.1171 27.1198 66.3054 23.3081 61.6202 23.3081Z" fill="black"/>
<path d="M62.4467 31.8077H60.1787V28.3423H62.2933C63.0394 28.3423 63.6437 28.947 63.6437 29.6927V30.6103C63.6437 31.2716 63.108 31.8077 62.4467 31.8077Z" fill="white"/>
<path fill-rule="evenodd" clip-rule="evenodd" d="M62.2475 32.0359H60.1745C60.0472 32.0359 59.9443 31.933 59.9443 31.8062V28.3407C59.9443 28.2139 60.0472 28.1106 60.1745 28.1106H62.2475C63.1419 28.1106 63.8696 28.8387 63.8696 29.7332V30.4137C63.8696 31.3082 63.1419 32.0359 62.2475 32.0359ZM60.4046 31.576H62.2475C62.8882 31.576 63.4098 31.0545 63.4098 30.4137V29.7332C63.4098 29.0925 62.8882 28.5709 62.2475 28.5709H60.4046V31.576Z" fill="black"/>
<path d="M62.8423 35.2744H60.1787V31.8094H63.0733C63.7071 31.8094 64.2214 32.3233 64.2214 32.9576V33.8953C64.2214 34.6569 63.6038 35.2744 62.8423 35.2744Z" fill="white"/>
<path fill-rule="evenodd" clip-rule="evenodd" d="M62.8248 35.5028H60.1745C60.0472 35.5028 59.9443 35.3999 59.9443 35.2727V31.8077C59.9443 31.6804 60.0472 31.5775 60.1745 31.5775H62.8248C63.7196 31.5775 64.4473 32.3052 64.4473 33.2001V33.8802C64.4473 34.7751 63.7196 35.5028 62.8248 35.5028ZM60.4046 35.0425H62.8248C63.4659 35.0425 63.987 34.5214 63.987 33.8802V33.2001C63.987 32.5589 63.4659 32.0374 62.8248 32.0374H60.4046V35.0425Z" fill="black"/>
<path d="M60.1762 28.5709H59.0212C58.8939 28.5709 58.791 28.468 58.791 28.3407C58.791 28.2139 58.8939 28.1106 59.0212 28.1106H60.1762C60.303 28.1106 60.4063 28.2139 60.4063 28.3407C60.4063 28.468 60.303 28.5709 60.1762 28.5709Z" fill="black"/>
<path d="M60.1762 35.5039H59.0212C58.8939 35.5039 58.791 35.401 58.791 35.2737C58.791 35.1469 58.8939 35.0436 59.0212 35.0436H60.1762C60.303 35.0436 60.4063 35.1469 60.4063 35.2737C60.4063 35.401 60.303 35.5039 60.1762 35.5039Z" fill="black"/>
<path d="M60.7526 28.5696C60.6253 28.5696 60.5225 28.4668 60.5225 28.3395V27.1845C60.5225 27.0576 60.6253 26.9543 60.7526 26.9543C60.8795 26.9543 60.9823 27.0576 60.9823 27.1845V28.3395C60.9823 28.4668 60.8795 28.5696 60.7526 28.5696Z" fill="black"/>
<path d="M62.4875 28.5696C62.3607 28.5696 62.2578 28.4668 62.2578 28.3395V27.1845C62.2578 27.0576 62.3607 26.9543 62.4875 26.9543C62.6148 26.9543 62.7177 27.0576 62.7177 27.1845V28.3395C62.7177 28.4668 62.6148 28.5696 62.4875 28.5696Z" fill="black"/>
<path d="M60.7526 36.6589C60.6253 36.6589 60.5225 36.556 60.5225 36.4287V35.2737C60.5225 35.1469 60.6253 35.0436 60.7526 35.0436C60.8795 35.0436 60.9823 35.1469 60.9823 35.2737V36.4287C60.9823 36.556 60.8795 36.6589 60.7526 36.6589Z" fill="black"/>
<path d="M62.4875 36.6589C62.3607 36.6589 62.2578 36.556 62.2578 36.4287V35.2737C62.2578 35.1469 62.3607 35.0436 62.4875 35.0436C62.6148 35.0436 62.7177 35.1469 62.7177 35.2737V36.4287C62.7177 36.556 62.6148 36.6589 62.4875 36.6589Z" fill="black"/>
<path d="M61.6237 23.3075C61.4964 23.3075 61.3936 23.2046 61.3936 23.0773V19.9972C61.3936 19.8703 61.4964 19.7675 61.6237 19.7675C61.7506 19.7675 61.8538 19.8703 61.8538 19.9972V23.0773C61.8538 23.2046 61.7506 23.3075 61.6237 23.3075Z" fill="black"/>
<path d="M55.4461 25.8675C55.387 25.8675 55.3283 25.8448 55.2833 25.7998L53.1053 23.6218C53.0157 23.5318 53.0157 23.3865 53.1053 23.2965C53.1953 23.2065 53.341 23.2065 53.4305 23.2965L55.6086 25.4745C55.6986 25.5645 55.6986 25.7102 55.6086 25.7998C55.564 25.8448 55.5048 25.8675 55.4461 25.8675Z" fill="black"/>
<path d="M52.8972 32.038H49.8166C49.6898 32.038 49.5869 31.9351 49.5869 31.8083C49.5869 31.681 49.6898 31.5781 49.8166 31.5781H52.8972C53.0241 31.5781 53.1269 31.681 53.1269 31.8083C53.1269 31.9351 53.0241 32.038 52.8972 32.038Z" fill="black"/>
<path d="M53.2681 40.3873C53.209 40.3873 53.1503 40.3646 53.1053 40.3196C53.0157 40.23 53.0157 40.0843 53.1053 39.9943L55.2833 37.8163C55.3733 37.7263 55.519 37.7263 55.6086 37.8163C55.6986 37.9063 55.6986 38.052 55.6086 38.1416L53.4305 40.3196C53.386 40.3646 53.3268 40.3873 53.2681 40.3873Z" fill="black"/>
<path d="M61.6237 43.8445C61.4964 43.8445 61.3936 43.7412 61.3936 43.6144V40.5342C61.3936 40.4074 61.4964 40.3041 61.6237 40.3041C61.7506 40.3041 61.8538 40.4074 61.8538 40.5342V43.6144C61.8538 43.7412 61.7506 43.8445 61.6237 43.8445Z" fill="black"/>
<path d="M69.9705 40.3873C69.9118 40.3873 69.8527 40.3646 69.8077 40.3196L67.6297 38.1416C67.5401 38.052 67.5401 37.9063 67.6297 37.8163C67.7197 37.7263 67.8654 37.7263 67.9554 37.8163L70.1334 39.9943C70.223 40.0843 70.223 40.23 70.1334 40.3196C70.0884 40.3646 70.0292 40.3873 69.9705 40.3873Z" fill="black"/>
<path d="M73.4265 32.0363H70.3464C70.2195 32.0363 70.1162 31.9334 70.1162 31.8066C70.1162 31.6793 70.2195 31.5764 70.3464 31.5764H73.4265C73.5538 31.5764 73.6566 31.6793 73.6566 31.8066C73.6566 31.9334 73.5538 32.0363 73.4265 32.0363Z" fill="black"/>
<path d="M67.7925 25.8675C67.7338 25.8675 67.6747 25.8448 67.6297 25.7998C67.5401 25.7102 67.5401 25.5645 67.6297 25.4745L69.8077 23.2965C69.8977 23.2065 70.0434 23.2065 70.1334 23.2965C70.223 23.3865 70.223 23.5318 70.1334 23.6218L67.9554 25.7998C67.9104 25.8448 67.8512 25.8675 67.7925 25.8675Z" fill="black"/>
<path d="M51.0914 104.701V108.944H38.4618L38.167 103.916H43.5936L51.0914 104.701Z" fill="#2E2E2E"/>
<path fill-rule="evenodd" clip-rule="evenodd" d="M51.092 109.173H38.4624C38.3407 109.173 38.24 109.078 38.2327 108.956L37.9378 103.928C37.9344 103.865 37.9567 103.803 38.0004 103.757C38.0437 103.711 38.1041 103.685 38.1676 103.685H43.5941C43.6021 103.685 43.61 103.685 43.6177 103.686L51.116 104.471C51.2334 104.483 51.3221 104.582 51.3221 104.7V108.943C51.3221 109.07 51.2193 109.173 51.092 109.173ZM38.6793 108.713H50.8623V104.907L43.5821 104.145H38.4114L38.6793 108.713Z" fill="black"/>
<path d="M11.4748 99.0256L8.14356 101.321L0.226562 92.9571L4.37942 88.9838L7.28042 92.5636L11.4748 99.0256Z" fill="#2E2E2E"/>
<path fill-rule="evenodd" clip-rule="evenodd" d="M8.14758 101.552C8.08587 101.552 8.02501 101.528 7.98001 101.48L0.0630166 93.1162C-0.0239834 93.0244 -0.0205547 92.8796 0.0711595 92.7917L4.22401 88.8184C4.27073 88.7739 4.3333 88.7507 4.39759 88.755C4.46187 88.7589 4.52144 88.7897 4.56173 88.8399L7.46273 92.4197C7.46787 92.426 7.47258 92.4324 7.47687 92.439L11.6717 98.9014C11.7394 99.006 11.7116 99.1453 11.6092 99.216L8.27787 101.511C8.23844 101.539 8.19258 101.552 8.14758 101.552ZM0.554588 92.9662L8.17887 101.021L11.1639 98.9644L7.09758 92.6996L4.36159 89.3233L0.554588 92.9662Z" fill="black"/>
<path fill-rule="evenodd" clip-rule="evenodd" d="M43.5916 104.144H38.165C38.0433 104.144 37.9426 104.049 37.9353 103.927L36.653 82.1047L32.9844 72.272L27.0148 82.1755C26.9934 82.211 26.963 82.2398 26.9266 82.2595L7.39014 92.7663C7.29286 92.819 7.172 92.7946 7.10257 92.7085L4.20157 89.1286C4.12657 89.0356 4.13472 88.9006 4.22129 88.8179L20.507 73.2385C20.8666 70.6902 21.002 68.2683 21.1216 66.1293C21.3676 61.7275 21.5797 57.9256 23.6043 55.0396C23.6471 54.9783 23.7174 54.9415 23.7924 54.9415L41.6158 54.9393C41.7204 54.9393 41.8121 55.01 41.8387 55.1112L44.7418 66.1683C45.0483 67.3362 45.1803 68.5358 45.1336 69.7328L43.8213 103.922C43.8166 104.046 43.715 104.144 43.5916 104.144ZM38.3818 103.684H43.37L44.6737 69.7152C44.6737 69.7152 44.6737 69.715 44.6737 69.7148C44.7187 68.5632 44.5918 67.4095 44.2966 66.2853L41.4388 55.3996L23.9133 55.4018C22.0271 58.166 21.83 61.6979 21.581 66.155C21.4597 68.3253 21.3221 70.7853 20.9514 73.3825C20.9441 73.4335 20.9201 73.4806 20.8829 73.5162L4.69272 89.0039L7.34 92.2709L26.6531 81.884L32.8366 71.6266C32.882 71.5508 32.9673 71.5088 33.0547 71.516C33.1426 71.5246 33.2184 71.582 33.2493 71.6648L37.0961 81.9762C37.1041 81.9979 37.1088 82.0203 37.1103 82.0435L38.3818 103.684Z" fill="black"/>
<path d="M70.6866 108.942H63.2607V79.046H70.6866V108.942Z" fill="#2E2E2E"/>
<path fill-rule="evenodd" clip-rule="evenodd" d="M70.6902 109.17H63.2643C63.1375 109.17 63.0342 109.067 63.0342 108.94V79.0445C63.0342 78.9176 63.1375 78.8143 63.2643 78.8143H70.6902C70.817 78.8143 70.9199 78.9176 70.9199 79.0445V108.94C70.9199 109.067 70.817 109.17 70.6902 109.17ZM63.4945 108.71H70.46V79.2746H63.4945V108.71Z" fill="black"/>
<path d="M89.2536 108.943H81.8281V85.2079H89.2536V108.943Z" fill="#2E2E2E"/>
<path fill-rule="evenodd" clip-rule="evenodd" d="M89.2523 109.171H81.8268C81.7 109.171 81.5967 109.068 81.5967 108.941V85.2061C81.5967 85.0788 81.7 84.976 81.8268 84.976H89.2523C89.3795 84.976 89.4824 85.0788 89.4824 85.2061V108.941C89.4824 109.068 89.3795 109.171 89.2523 109.171ZM82.057 108.711H89.0225V85.4362H82.057V108.711Z" fill="black"/>
<path d="M107.817 108.942H100.392V64.0302H107.817V108.942Z" fill="#2E2E2E"/>
<path fill-rule="evenodd" clip-rule="evenodd" d="M107.818 109.173H100.392C100.265 109.173 100.162 109.07 100.162 108.943V64.0315C100.162 63.9042 100.265 63.8014 100.392 63.8014H107.818C107.945 63.8014 108.048 63.9042 108.048 64.0315V108.943C108.048 109.07 107.945 109.173 107.818 109.173ZM100.622 108.713H107.588V64.2612H100.622V108.713Z" fill="black"/>
<path d="M126.38 108.942H118.954V70.9612H126.38V108.942Z" fill="#2E2E2E"/>
<path fill-rule="evenodd" clip-rule="evenodd" d="M126.383 109.176H118.958C118.83 109.176 118.728 109.073 118.728 108.946V70.9645C118.728 70.8372 118.83 70.7344 118.958 70.7344H126.383C126.51 70.7344 126.613 70.8372 126.613 70.9645V108.946C126.613 109.073 126.51 109.176 126.383 109.176ZM119.188 108.716H126.153V71.1947H119.188V108.716Z" fill="black"/>
<path d="M144.947 108.942H137.521V54.7893H144.947V108.942Z" fill="#2E2E2E"/>
<path fill-rule="evenodd" clip-rule="evenodd" d="M144.946 109.175H137.52C137.393 109.175 137.29 109.072 137.29 108.945V54.7926C137.29 54.6654 137.393 54.5625 137.52 54.5625H144.946C145.073 54.5625 145.176 54.6654 145.176 54.7926V108.945C145.176 109.072 145.073 109.175 144.946 109.175ZM137.75 108.715H144.715V55.0228H137.75V108.715Z" fill="black"/>
<path d="M149.768 46.3906L147.299 28.2136L129.122 30.6822L129.899 36.4053L138.098 35.2919L122.013 57.1216L103.415 44.1025L84.8119 70.1472L65.7637 60.2365L86.2652 78.0492L104.79 52.1146L123.32 65.0853L142.874 38.5456L144.045 47.168L149.768 46.3906Z" fill="#D1AA67"/>
<path fill-rule="evenodd" clip-rule="evenodd" d="M86.2686 78.2772C86.2133 78.2772 86.1598 78.2575 86.1178 78.221L65.6162 60.4087C65.5284 60.332 65.5112 60.2018 65.5772 60.1053C65.6428 60.0089 65.7701 59.9772 65.8734 60.0308L84.7442 69.8493L103.231 43.967C103.305 43.8642 103.447 43.8402 103.55 43.9122L121.965 56.8023L137.593 35.591L129.934 36.6316C129.808 36.6488 129.692 36.56 129.675 36.4345L128.897 30.7118C128.889 30.6509 128.905 30.59 128.942 30.5412C128.979 30.4928 129.034 30.4611 129.094 30.4529L147.271 27.9839C147.398 27.9663 147.514 28.0551 147.531 28.1811L149.999 46.358C150.007 46.4185 149.992 46.4798 149.954 46.5282C149.917 46.5766 149.863 46.6088 149.802 46.6169L144.079 47.3943C143.953 47.4115 143.838 47.3232 143.821 47.1972L142.726 39.1375L123.508 65.2203C123.434 65.3206 123.293 65.3438 123.191 65.2722L104.848 52.4322L86.4559 78.1812C86.4182 78.2339 86.3599 78.2682 86.2956 78.2759C86.2865 78.2767 86.2775 78.2772 86.2686 78.2772ZM67.3858 61.3362L86.2284 77.7076L104.606 51.9792C104.679 51.8763 104.821 51.8523 104.925 51.9243L123.271 64.7665L142.692 38.4076C142.748 38.3322 142.843 38.2979 142.934 38.321C143.025 38.3442 143.093 38.4205 143.105 38.513L144.245 46.9075L149.512 46.1918L147.106 28.4708L129.385 30.8776L130.1 36.1448L138.07 35.0622C138.162 35.0493 138.252 35.0935 138.299 35.1728C138.346 35.252 138.341 35.3523 138.286 35.4265L122.202 57.2562C122.128 57.3565 121.987 57.3796 121.885 57.308L103.473 44.42L85.0022 70.2792C84.9358 70.3726 84.8106 70.4026 84.7091 70.3499L67.3858 61.3362Z" fill="black"/>
<path d="M29.0068 16.0754C29.0068 16.0754 31.502 17.8887 34.5873 15.7955Z" fill="#F8F9FA"/>
<path d="M31.5416 17.0262C29.9524 17.0262 28.887 16.2723 28.8703 16.2603C28.7674 16.1853 28.7447 16.0418 28.8193 15.9389C28.8938 15.8365 29.0374 15.8133 29.1403 15.8879C29.2371 15.9578 31.5489 17.5769 34.4563 15.6042C34.5617 15.5326 34.7044 15.5601 34.776 15.6655C34.8471 15.7705 34.8197 15.9136 34.7147 15.9848C33.5503 16.775 32.4587 17.0262 31.5416 17.0262Z" fill="black"/>
<path d="M92.4139 24.6797L93.0769 26.7351C93.925 27.0437 94.282 27.174 95.1302 27.4825L96.9593 26.334C97.9887 27.198 97.948 27.1637 98.9774 28.0277L98.1644 30.0283C98.6157 30.81 98.8056 31.1391 99.2569 31.9208L101.396 32.217C101.63 33.5404 101.62 33.4881 101.854 34.8115L99.9447 35.8217C99.7879 36.7105 99.7219 37.0847 99.565 37.9735L101.014 39.5755C100.342 40.7391 100.369 40.6933 99.6966 41.8573L97.5846 41.4034C96.8933 41.9837 96.6023 42.228 95.911 42.8083L95.9907 44.9665C94.7282 45.4264 94.7779 45.408 93.5149 45.8678L92.1889 44.163C91.2863 44.163 90.9061 44.163 90.0036 44.163L88.6776 45.8678C87.4146 45.408 87.4647 45.4264 86.2017 44.9665L86.2819 42.8083C85.5906 42.228 85.2992 41.9837 84.6079 41.4034L82.4963 41.8573C81.8243 40.6933 81.8509 40.7391 81.1789 39.5755L82.6274 37.9735C82.4706 37.0847 82.4046 36.7105 82.2482 35.8217L80.3389 34.8115C80.572 33.4881 80.563 33.5404 80.7962 32.217L82.936 31.9208C83.3873 31.1391 83.5772 30.81 84.0284 30.0283L83.215 28.0277C84.2444 27.1637 84.2037 27.198 85.2332 26.334L87.0627 27.4825C87.9109 27.174 88.2679 27.0437 89.116 26.7351L89.779 24.6797C91.123 24.6797 91.0699 24.6797 92.4139 24.6797Z" fill="#2E2E2E"/>
<path fill-rule="evenodd" clip-rule="evenodd" d="M93.5189 46.0989C93.449 46.0989 93.3813 46.0671 93.3372 46.0097L92.0802 44.394H90.1199L88.8629 46.0097C88.8016 46.0886 88.6962 46.119 88.6027 46.0847L86.1269 45.1839C86.033 45.1496 85.9717 45.0587 85.9756 44.9589L86.0515 42.9129L84.5497 41.6529L82.5479 42.0831C82.4506 42.1037 82.3503 42.0596 82.3006 41.973L80.9832 39.6913C80.933 39.6047 80.9446 39.4963 81.0119 39.4222L82.385 37.9033L82.0447 35.973L80.2349 35.0156C80.1466 34.9693 80.0986 34.8707 80.1157 34.7726L80.5735 32.1776C80.5906 32.0794 80.6695 32.0036 80.7685 31.9899L82.7965 31.7092L83.7766 30.0116L83.0056 28.1152C82.9679 28.0226 82.994 27.9163 83.0707 27.852L85.0889 26.1587C85.1656 26.0944 85.2745 26.0867 85.3593 26.1403L87.0933 27.2289L88.9353 26.5582L89.5636 24.6099C89.594 24.5147 89.6827 24.4504 89.7826 24.4504H92.4174C92.5173 24.4504 92.6056 24.5147 92.636 24.6099L93.2647 26.5582L95.1067 27.2289L96.8407 26.1403C96.9252 26.0867 97.0344 26.0944 97.1107 26.1587L99.1293 27.852C99.2056 27.9163 99.2322 28.0226 99.1945 28.1152L98.4235 30.0116L99.4036 31.7092L101.432 31.9899C101.53 32.0036 101.609 32.0794 101.627 32.1776L102.084 34.7726C102.101 34.8707 102.053 34.9693 101.965 35.0156L100.155 35.973L99.815 37.9033L101.188 39.4222C101.255 39.4963 101.267 39.6047 101.216 39.6913L99.8994 41.973C99.8493 42.0596 99.749 42.1037 99.6517 42.0831L97.6499 41.6529L96.1486 42.9129L96.2244 44.9589C96.2279 45.0587 96.167 45.1496 96.0732 45.1839L93.5973 46.0847C93.5713 46.0941 93.5452 46.0989 93.5189 46.0989ZM86.4415 44.8089L88.6023 45.5953L89.8259 44.0224C89.8692 43.9663 89.9364 43.9337 90.0072 43.9337H92.1924C92.2636 43.9337 92.3304 43.9663 92.3742 44.0224L93.5973 45.5953L95.7582 44.8089L95.6844 42.8177C95.6819 42.7466 95.7123 42.6784 95.7667 42.6326L97.4403 41.2282C97.4947 41.1827 97.5672 41.1643 97.6366 41.1797L99.5844 41.598L100.734 39.6064L99.398 38.1287C99.3505 38.076 99.3299 38.0044 99.3423 37.9341L99.7216 35.7823C99.734 35.7124 99.7777 35.652 99.8407 35.619L101.602 34.6873L101.202 32.4227L99.2287 32.1497C99.1585 32.1399 99.0967 32.0983 99.0612 32.0366L97.9687 30.1444C97.9332 30.0827 97.928 30.0086 97.9546 29.9426L98.705 28.0972L96.9432 26.6186L95.2559 27.678C95.1959 27.7162 95.1217 27.7239 95.0549 27.6994L93.0016 26.9524C92.9347 26.928 92.8833 26.8744 92.8615 26.8067L92.2499 24.9103H89.9502L89.3386 26.8067C89.3167 26.8744 89.2649 26.928 89.198 26.952L87.1447 27.6994C87.0783 27.7239 87.0037 27.7162 86.9437 27.678L85.2565 26.6186L83.495 28.0972L84.245 29.9426C84.272 30.0086 84.2669 30.0827 84.2313 30.1444L83.1385 32.0366C83.1033 32.0983 83.0412 32.1399 82.9709 32.1497L80.9973 32.4227L80.5979 34.6873L82.3593 35.619C82.4219 35.652 82.466 35.7124 82.478 35.7823L82.8577 37.9341C82.8697 38.0044 82.8492 38.076 82.8016 38.1287L81.4653 39.6064L82.6152 41.598L84.563 41.1797C84.6325 41.1647 84.7049 41.1827 84.7593 41.2282L86.4333 42.6326C86.4877 42.6784 86.5177 42.7466 86.5152 42.8177L86.4415 44.8089Z" fill="black"/>
<path d="M96.8348 35.2733C96.8348 38.4405 94.2672 41.0076 91.1005 41.0076C87.9333 41.0076 85.3662 38.4405 85.3662 35.2733C85.3662 32.1066 87.9333 29.5391 91.1005 29.5391C94.2672 29.5391 96.8348 32.1066 96.8348 35.2733Z" fill="#F8F9FA"/>
<path fill-rule="evenodd" clip-rule="evenodd" d="M91.0963 41.2387C87.8074 41.2387 85.1318 38.5631 85.1318 35.2742C85.1318 31.9854 87.8074 29.3098 91.0963 29.3098C94.3847 29.3098 97.0603 31.9854 97.0603 35.2742C97.0603 38.5631 94.3847 41.2387 91.0963 41.2387ZM91.0963 29.7701C88.0611 29.7701 85.5921 32.2391 85.5921 35.2742C85.5921 38.3094 88.0611 40.7784 91.0963 40.7784C94.131 40.7784 96.6004 38.3094 96.6004 35.2742C96.6004 32.2391 94.131 29.7701 91.0963 29.7701Z" fill="black"/>
<path d="M131.029 0.229492L131.692 2.28535C132.54 2.59392 132.897 2.72378 133.745 3.03278L135.575 1.88421C136.604 2.74821 136.563 2.71392 137.593 3.57792L136.78 5.57849C137.231 6.3602 137.421 6.68935 137.872 7.47106L140.012 7.7672C140.245 9.09063 140.236 9.03835 140.469 10.3618L138.56 11.3715C138.403 12.2603 138.337 12.6349 138.18 13.5238L139.629 15.1258C138.957 16.2893 138.984 16.2435 138.312 17.4075L136.2 16.9536C135.509 17.5339 135.218 17.7782 134.526 18.3585L134.606 20.5168C133.343 20.9762 133.393 20.9582 132.131 21.4181L130.804 19.7132C129.902 19.7132 129.522 19.7132 128.619 19.7132L127.293 21.4181C126.03 20.9582 126.08 20.9762 124.817 20.5168L124.897 18.3585C124.206 17.7782 123.914 17.5339 123.223 16.9536L121.112 17.4075C120.44 16.2435 120.466 16.2893 119.794 15.1258L121.243 13.5238C121.086 12.6349 121.02 12.2603 120.863 11.3715L118.954 10.3618C119.187 9.03835 119.178 9.09063 119.411 7.7672L121.551 7.47106C122.003 6.68935 122.192 6.3602 122.644 5.57849L121.83 3.57792C122.86 2.71392 122.819 2.74821 123.848 1.88421L125.678 3.03278C126.526 2.72378 126.883 2.59392 127.731 2.28535L128.394 0.229492C129.738 0.229492 129.685 0.229492 131.029 0.229492Z" fill="#2E2E2E"/>
<path fill-rule="evenodd" clip-rule="evenodd" d="M127.296 21.648C127.27 21.6483 127.244 21.6437 127.218 21.6343L124.742 20.733C124.648 20.6991 124.587 20.6083 124.591 20.5084L124.667 18.4624L123.165 17.2029L121.163 17.6323C121.066 17.6537 120.966 17.6091 120.916 17.5226L119.598 15.2409C119.549 15.1543 119.56 15.0459 119.627 14.9717L121 13.4529L120.66 11.5226L118.85 10.5651C118.762 10.5184 118.714 10.4203 118.731 10.3217L119.189 7.72714C119.206 7.629 119.285 7.55314 119.384 7.53943L121.412 7.25871L122.392 5.56114L121.621 3.66471C121.583 3.57214 121.61 3.46586 121.686 3.40157L123.704 1.70828C123.781 1.644 123.89 1.63628 123.975 1.68943L125.709 2.77843L127.551 2.10771L128.179 0.15943C128.21 0.0642871 128.298 0 128.398 0H131.033C131.133 0 131.221 0.0642871 131.252 0.15943L131.88 2.10771L133.722 2.77843L135.456 1.68943C135.54 1.63628 135.65 1.644 135.726 1.70828L137.745 3.40157C137.821 3.46586 137.847 3.57214 137.81 3.66471L137.039 5.56114L138.019 7.25871L140.047 7.53943C140.146 7.55314 140.224 7.629 140.242 7.72714L140.699 10.3217C140.717 10.4203 140.669 10.5184 140.58 10.5651L138.771 11.5226L138.43 13.4529L139.803 14.9717C139.87 15.0459 139.882 15.1543 139.832 15.2409L138.515 17.5226C138.465 17.6091 138.365 17.6537 138.267 17.6323L136.265 17.2029L134.764 18.4624L134.84 20.5084C134.843 20.6083 134.782 20.6991 134.688 20.733L132.213 21.6343C132.119 21.6686 132.014 21.6381 131.952 21.5593L130.695 19.9431H128.735L127.478 21.5593C127.434 21.6167 127.366 21.648 127.296 21.648ZM125.057 20.358L127.218 21.1444L128.441 19.572C128.485 19.5159 128.552 19.4833 128.623 19.4833H130.808C130.879 19.4833 130.946 19.5159 130.989 19.572L132.213 21.1444L134.373 20.358L134.3 18.3673C134.297 18.2961 134.328 18.228 134.382 18.1821L136.056 16.7777C136.11 16.7323 136.182 16.7139 136.252 16.7293L138.2 17.1476L139.35 15.156L138.013 13.6783C137.966 13.6256 137.945 13.554 137.958 13.4837L138.337 11.3319C138.349 11.262 138.393 11.2016 138.456 11.1686L140.217 10.2369L139.818 7.97228L137.844 7.69928C137.774 7.68943 137.712 7.64786 137.676 7.58614L136.584 5.694C136.548 5.63228 136.543 5.55814 136.57 5.49214L137.32 3.64629L135.559 2.16814L133.871 3.22757C133.811 3.26528 133.737 3.27343 133.67 3.249L131.617 2.50157C131.55 2.47757 131.499 2.42357 131.477 2.35628L130.865 0.459856H128.565L127.954 2.35628C127.932 2.42357 127.88 2.47757 127.813 2.50157L125.76 3.249C125.694 3.27343 125.619 3.26571 125.559 3.22757L123.872 2.16814L122.11 3.64629L122.86 5.49214C122.887 5.55814 122.882 5.63228 122.847 5.694L121.754 7.58614C121.719 7.64786 121.656 7.68943 121.586 7.69928L119.613 7.97228L119.213 10.2369L120.975 11.1686C121.037 11.2016 121.081 11.262 121.094 11.3319L121.473 13.4837C121.485 13.554 121.464 13.6256 121.417 13.6783L120.081 15.156L121.23 17.1476L123.178 16.7293C123.248 16.7143 123.32 16.7323 123.375 16.7777L125.049 18.1821C125.103 18.228 125.133 18.2961 125.13 18.3673L125.057 20.358Z" fill="black"/>
<path d="M135.445 10.8232C135.445 13.9903 132.878 16.5574 129.711 16.5574C126.544 16.5574 123.977 13.9903 123.977 10.8232C123.977 7.65644 126.544 5.08887 129.711 5.08887C132.878 5.08887 135.445 7.65644 135.445 10.8232Z" fill="#F8F9FA"/>
<path fill-rule="evenodd" clip-rule="evenodd" d="M129.711 16.7865C126.423 16.7865 123.747 14.1109 123.747 10.8221C123.747 7.53366 126.423 4.85767 129.711 4.85767C133 4.85767 135.675 7.53366 135.675 10.8221C135.675 14.1109 133 16.7865 129.711 16.7865ZM129.711 5.31795C126.676 5.31795 124.207 7.78695 124.207 10.8221C124.207 13.8572 126.676 16.3262 129.711 16.3262C132.747 16.3262 135.216 13.8572 135.216 10.8221C135.216 7.78695 132.747 5.31795 129.711 5.31795Z" fill="black"/>
<path d="M34.5866 13.5366C34.5866 13.5366 33.2576 14.8772 32.4326 14.8361Z" fill="#F8F9FA"/>
<path d="M32.4666 15.0704C32.4506 15.0704 32.4347 15.07 32.419 15.0691C32.2922 15.0627 32.1945 14.9547 32.2005 14.8278C32.2069 14.701 32.3157 14.6045 32.4417 14.6097C33.0332 14.6388 34.0712 13.7307 34.4209 13.378C34.5105 13.2875 34.6562 13.2871 34.7466 13.3767C34.8366 13.4658 34.837 13.6115 34.7479 13.702C34.6069 13.8438 33.3649 15.0704 32.4666 15.0704Z" fill="black"/>
<path d="M34.0166 9.71124C34.0166 9.71124 34.6633 9.15624 35.9409 9.13953Z" fill="#F8F9FA"/>
<path d="M34.0175 9.94148C33.9524 9.94148 33.8872 9.91405 33.8422 9.86091C33.7599 9.76405 33.7711 9.62005 33.8671 9.53777C33.8962 9.51248 34.5931 8.92791 35.9384 8.91077C36.0656 8.91077 36.1698 9.01063 36.1715 9.13791C36.1732 9.26477 36.0716 9.36891 35.9444 9.37063C34.7769 9.38563 34.1718 9.88277 34.1658 9.88748C34.1225 9.92391 34.0698 9.94148 34.0175 9.94148Z" fill="black"/>
<path d="M34.9801 10.6203C34.8533 10.6203 34.75 10.5174 34.75 10.3901V10.0498C34.75 9.92299 34.8533 9.8197 34.9801 9.8197C35.1074 9.8197 35.2103 9.92299 35.2103 10.0498V10.3901C35.2103 10.5174 35.1074 10.6203 34.9801 10.6203Z" fill="black"/>
<path d="M31.403 10.9369C31.403 10.9369 30.1863 11.5553 29.8975 12.1536Z" fill="#F8F9FA"/>
<path d="M29.8929 12.3821C29.8591 12.3821 29.8259 12.3743 29.793 12.3589C29.6786 12.3036 29.631 12.1665 29.6859 12.0521C29.9996 11.4028 31.1631 10.7968 31.2947 10.7299C31.4079 10.6725 31.5463 10.7175 31.6041 10.8306C31.6616 10.9438 31.6166 11.0822 31.5034 11.1401C31.1837 11.3025 30.309 11.8198 30.1003 12.2522C30.0609 12.3341 29.9786 12.3821 29.8929 12.3821Z" fill="black"/>
<path d="M30.9258 11.9294L31.0188 12.1562Z" fill="#F8F9FA"/>
<path d="M31.0174 12.3848C30.927 12.3848 30.8409 12.3308 30.8044 12.2416L30.7114 12.0149C30.6634 11.8975 30.72 11.7629 30.8374 11.7149C30.9549 11.6669 31.0894 11.7231 31.1374 11.8405L31.2304 12.0676C31.2784 12.1851 31.2223 12.3196 31.1044 12.3676C31.0759 12.3791 31.0469 12.3848 31.0174 12.3848Z" fill="black"/>
<path d="M33.0703 11.042L34.122 12.6706L33.3485 12.6046" fill="#F8F9FA"/>
<path d="M34.1257 12.9014C34.1194 12.9014 34.113 12.9011 34.1064 12.9006L33.3328 12.8346C33.206 12.8239 33.1121 12.7124 33.1233 12.5856C33.134 12.4591 33.2454 12.3661 33.3718 12.376L33.6783 12.4021L32.8807 11.1674C32.8117 11.0607 32.8421 10.9184 32.9488 10.8494C33.0555 10.7804 33.1983 10.8109 33.2673 10.918L34.319 12.5466C34.3666 12.6203 34.3683 12.7146 34.3228 12.7896C34.2813 12.8594 34.2063 12.9014 34.1257 12.9014Z" fill="black"/>
</svg>
