<svg width="150" height="150" viewBox="0 0 150 150" fill="none" xmlns="http://www.w3.org/2000/svg">
<path d="M125.152 54.974L125.175 61.4046C125.176 61.7858 124.869 62.096 124.487 62.0974L122.733 62.1038L122.704 54.2926L124.459 54.2863C124.84 54.2848 125.15 54.5928 125.152 54.974Z" fill="#D3D3D3"/>
<path d="M125.189 65.0284L125.212 71.459C125.214 71.8403 124.906 72.1504 124.524 72.1519L122.77 72.1583L122.741 64.3471L124.496 64.3407C124.877 64.3393 125.187 64.6472 125.189 65.0284Z" fill="#D3D3D3"/>
<path d="M139.499 129.957L117.863 132.714L116.897 125.109L137.538 122.494L138.031 122.424L138.534 122.363L139.499 129.957Z" fill="#D1AA67"/>
<path d="M30.2558 38.2449C33.6569 34.8438 33.6569 29.3296 30.2558 25.9285C26.8548 22.5274 21.3405 22.5274 17.9394 25.9285C14.5384 29.3296 14.5384 34.8438 17.9394 38.2449C21.3405 41.6459 26.8548 41.6459 30.2558 38.2449Z" fill="#D1AA67"/>
<path d="M76.7904 51.9051C76.8836 55.6163 75.19 57.7861 73.0742 58.5961C75.6024 57.2854 76.6186 55.2187 76.7855 51.8953L76.7904 51.9051Z" fill="white"/>
<path d="M134.531 98.1627C134.28 96.4226 133.555 94.8233 132.449 93.5257C130.861 91.6801 129.047 90.2301 127.038 89.1966C126.337 87.6769 124.705 86.8157 123.073 87.0437L122.932 47.3733C122.922 45.1548 121.117 43.3576 118.904 43.3576C118.799 43.3576 107.746 43.3932 107.645 43.3964C103.113 34.0762 93.713 27.5817 82.8337 27.1644C83.8213 26.4259 84.4559 25.2446 84.4282 23.918C84.3825 21.7339 82.5745 19.9999 80.3903 20.0455C76.5963 20.1248 75.0773 24.9844 78.171 27.2044C77.9172 27.2142 77.2003 27.2024 75.7735 27.333C74.9027 26.642 73.92 26.0315 72.7859 25.5171C67.9312 23.5362 61.5636 26.4498 60.7303 30.6039C60.4126 31.092 60.5062 30.4877 60.552 33.4196C55.0477 37.7752 51.3664 43.8861 50.0973 50.7271C44.9577 49.8083 39.8236 47.7127 34.3518 44.2816L34.2497 44.3985L33.8158 43.9524L33.8425 43.061C37.3191 40.6519 39.5996 36.6388 39.5996 32.0875C39.5996 24.9168 33.9447 19.086 26.8523 18.77C18.3232 17.004 10.471 23.5894 10.5001 32.0863C10.4788 38.3079 14.809 43.9994 21.2531 45.3807C21.5591 45.941 21.4714 45.6693 27.977 51.5799L27.3711 52.2736C34.8662 58.1653 41.3739 61.0091 50.3461 62.5105C53.3031 75.3298 64.8136 84.8429 78.415 84.8429C78.8891 84.8429 79.0966 84.8337 79.9188 84.8178L80.0308 116.234C80.0406 118.315 81.744 120.009 83.8255 120.004L115.402 119.886L116.382 122.651C116.494 122.965 116.967 122.797 116.857 122.483L115.935 119.884C116.304 119.845 117.352 120.054 118.533 119.307L118.538 119.312C118.983 118.972 120.402 117.889 120.299 117.967C122.12 117.421 123.18 115.81 123.173 114.112L123.135 103.385C125.885 112.699 125.378 112.81 125.827 112.81C125.987 112.81 126.108 112.661 126.072 112.503C124.229 104.344 122.655 100.961 120.354 91.2293C120.127 89.5967 121.155 88.0398 122.746 87.6086C124.3 87.1884 125.953 87.9789 126.605 89.4493C126.605 89.4494 126.605 89.4495 126.605 89.4496C136.915 113.209 131.81 101.445 133.286 104.848C133.342 104.976 133.489 105.033 133.617 104.979C133.745 104.923 133.803 104.775 133.748 104.647L127.379 89.9645C129.097 90.9433 130.681 92.2387 132.067 93.8476C133.113 95.0748 133.797 96.5936 134.028 98.2433L137.539 122.495L138.031 122.424L134.531 98.1627ZM79.0483 27.6892C79.9871 28.0508 81.0008 28.0544 81.9812 27.6485C89.2332 27.7097 96.0616 30.4832 101.313 35.5189C106.91 40.8851 109.872 48.0585 110.024 55.3618L110.613 83.6715L96.2419 83.9727L96.081 74.4762L100.669 74.3805C100.807 74.3775 100.918 74.2626 100.915 74.1236L100.527 55.5622C100.305 45.2274 91.7317 36.9094 81.3216 37.1427L80.7482 37.1546C80.1867 33.1141 78.8303 30.024 76.3234 27.7863C77.447 27.7036 78.0892 27.7151 79.0483 27.6892ZM118.413 111.04L96.3869 111.117C95.8079 94.3624 96.0947 102.661 96.0118 100.261L96.5154 100.25L96.4614 97.1671C96.4565 97.172 96.4565 97.172 96.4516 97.172L92.4802 97.2554H92.4752L86.1278 97.388C86.0591 97.388 86.005 97.334 86.005 97.2652C86.0001 97.1965 86.0541 97.1425 86.1228 97.1425L92.3476 97.01L90.924 58.7683C90.924 58.6996 90.9731 58.6407 91.0418 58.6407C91.0467 58.6407 91.0467 58.6407 91.0467 58.6407C91.1154 58.6407 91.1694 58.6898 91.1694 58.7585L92.5931 97.005L96.4467 96.9265C96.4516 96.9265 96.4565 96.9265 96.4615 96.9314L96.2504 84.4756L110.875 84.169C111.013 84.1661 111.124 84.0512 111.121 83.9122C110.42 56.1035 110.813 54.6232 110.017 50.5112L118.194 50.4837L118.413 111.04ZM94.0721 111.199C94.0539 110.67 93.9129 106.574 93.9219 106.835C93.9165 106.696 93.7854 106.585 93.6616 106.592C93.5231 106.597 93.4146 106.714 93.419 106.853C93.4225 106.956 93.5724 111.319 93.5688 111.216C93.5786 111.499 93.0885 111.686 92.6091 111.702C92.1297 111.711 91.6297 111.566 91.6189 111.283C91.6189 111.283 91.6189 111.282 91.6189 111.282C91.6185 111.27 91.6071 111.264 91.6051 111.253L91.4584 107.006C91.453 106.868 91.3243 106.747 91.198 106.764C91.0595 106.769 90.951 106.885 90.9554 107.024C90.959 107.127 91.1102 111.491 91.1066 111.387C90.9877 111.976 89.2942 112.029 89.26 111.366C89.2549 111.223 89.1065 106.981 89.1106 107.1C89.1052 106.962 88.978 106.838 88.8503 106.858C88.7118 106.862 88.6033 106.979 88.6077 107.118L88.7548 111.389C88.7561 111.925 86.9196 111.993 86.9019 111.444L86.7143 106.071C86.7068 105.87 86.4825 105.763 86.3194 105.873L84.7261 106.977C84.3037 107.269 83.9034 106.931 83.7325 106.685C83.5616 106.439 83.3853 105.944 83.8072 105.651C86.5742 103.685 86.6384 103.807 86.6298 103.558L86.5225 100.477L95.5087 100.273L95.884 111.133C95.884 111.133 95.884 111.133 95.884 111.133C95.8958 111.434 94.879 111.656 94.2952 111.412C94.1953 111.37 94.0762 111.3 94.0721 111.199ZM33.645 47.8604C33.5909 47.826 33.5713 47.7475 33.6057 47.6934C33.645 47.6345 33.7186 47.6149 33.7774 47.6542C48.1047 56.6386 57.5118 54.2967 59.6761 54.5037C59.6696 54.5861 59.6585 54.6676 59.6531 54.7501C59.5515 54.7538 56.0808 54.8705 55.6179 54.8705C48.2691 54.8706 41.2344 52.6172 33.645 47.8604ZM61.1413 41.2437C61.0819 41.2039 61.0067 41.1904 60.9325 41.2113C60.9034 41.2196 60.8651 41.1999 60.8326 41.1993C60.5486 41.1891 60.158 40.845 59.8779 40.2571C59.8382 40.1733 59.7921 40.1021 59.7582 40.009C59.2941 38.7379 59.828 37.6325 60.7125 38.8002C60.8621 38.9982 61.1716 38.8791 61.1663 38.6406L61.1383 37.3168L61.3772 37.1298C61.3763 37.1571 61.3672 37.1791 61.3679 37.2071C61.3776 37.6745 61.5892 38.0497 61.8399 38.0445C62.2409 38.036 62.4466 37.0921 62.1046 36.5602L62.9182 35.9231C63.0273 35.8376 63.0464 35.6795 62.961 35.5699C62.875 35.4599 62.7169 35.4422 62.6078 35.5272L61.1251 36.6883L61.0861 34.8498C61.8029 34.5042 62.6951 34.4984 63.3922 34.8784C63.514 34.9462 63.6668 34.9005 63.7331 34.7782C63.7999 34.6564 63.7552 34.5037 63.6329 34.4374C62.8513 34.0096 61.8986 33.9853 61.0747 34.3091C61.071 34.1336 61.0284 32.1482 61.0311 32.2724C62.3207 31.5819 63.8759 30.4458 64.7258 28.4384C64.6669 28.5773 65.0698 29.2195 65.1405 29.3637C65.9896 31.0903 67.0657 32.4085 68.4566 33.5541C67.9872 33.6303 67.5289 33.8336 67.1549 34.1755C67.0528 34.2694 67.0454 34.4285 67.1392 34.5311C67.2324 34.6326 67.3911 34.6411 67.4948 34.5469C67.8929 34.1814 68.4859 33.9685 69.0579 34.0242C70.5562 35.1197 72.0036 35.7723 73.5535 36.2437L73.5742 37.2614C73.5762 37.3508 73.6253 37.4323 73.7029 37.476C73.7031 37.4763 73.7023 37.4754 73.7049 37.4775C73.8699 37.5678 73.9608 37.4565 74.1891 37.3576C75.6237 36.7469 77.0145 37.8544 76.3566 39.1636C75.9382 39.9953 74.8603 40.4512 73.9706 40.1641C73.8107 40.1108 73.6388 40.232 73.642 40.4087L73.6454 40.5663C73.735 44.8295 69.577 47.9236 65.5333 46.6171C63.0901 45.8384 61.5144 43.6918 61.2533 41.4248C61.2445 41.3517 61.2042 41.2858 61.1428 41.2446C61.1425 41.2444 61.1421 41.2447 61.1418 41.2445C61.1415 41.2444 61.1416 41.2439 61.1413 41.2437ZM98.8992 49.6662C98.9463 49.7947 99.0015 49.9199 99.0456 50.0495C85.897 50.1232 86.604 50.0263 86.4649 50.1669C86.3315 50.3016 86.4171 50.2893 86.3997 52.5363C85.5706 52.4582 84.722 52.3921 83.8402 52.3472C83.8398 52.3495 83.8396 52.3594 83.8392 52.3634L82.6561 52.275L82.6388 47.5162C82.6344 45.5747 84.211 43.9878 86.1535 43.9785L95.5215 43.9446C97.0628 45.7074 98.1641 47.6519 98.8992 49.6662ZM100.024 55.573L100.407 73.8829L96.0724 73.9733L95.8429 60.4226C95.7594 56.6426 92.9809 53.4714 89.245 52.8823C88.4947 52.7653 87.7075 52.6708 86.9029 52.5871L86.8956 50.5947L99.2058 50.5521C99.7221 52.2271 99.9925 54.057 100.024 55.573ZM72.5009 45.0954L73.1827 45.1399L76.5295 51.9441C76.3777 54.7744 75.5939 56.9283 73.1095 58.2832C72.3025 58.7241 70.5629 58.8483 69.9154 58.5871C67.3654 57.5492 66.2837 55.5993 65.7382 52.9624C65.7018 51.6897 65.6169 48.3897 65.6579 47.1812C68.0882 47.8469 70.7663 47.098 72.5009 45.0954ZM72.4462 71.2226C72.4511 71.2914 72.402 71.3503 72.3333 71.3551C72.3333 71.3551 72.3284 71.3551 72.3235 71.3551C72.2597 71.3551 72.2057 71.3061 72.2008 71.2422L72.0731 69.4701H70.7526C70.6839 69.4701 70.6299 69.4161 70.6299 69.3474C70.6299 69.2786 70.6839 69.2246 70.7526 69.2246H72.0535L71.7982 65.6705H70.0948C70.0261 65.6705 69.9721 65.6164 69.9721 65.5478C69.9721 65.4839 70.0261 65.425 70.0948 65.425H71.7786L71.5479 62.2684H69.8887C69.8199 62.2684 69.7659 62.2145 69.7659 62.1457C69.7659 62.077 69.8199 62.023 69.8887 62.023H71.5332L71.3761 59.8777C71.3644 59.7148 71.61 59.6965 71.6215 59.8581L71.7787 62.023H73.5263C73.689 62.023 73.6891 62.2684 73.5263 62.2684H71.7982L72.0241 65.425H73.7324C73.8012 65.425 73.8551 65.4838 73.8551 65.5478C73.8551 65.6164 73.8012 65.6705 73.7324 65.6705H72.0437L72.299 69.2246H74.3902C74.4589 69.2246 74.5129 69.2786 74.5129 69.3474C74.5129 69.4161 74.4589 69.4701 74.3902 69.4701H72.3186L72.4462 71.2226ZM70.3012 59.2674C69.0217 60.1686 67.7094 60.6274 66.4781 60.5841C65.2969 60.5488 64.2817 60.0625 63.6206 59.2153C62.4753 57.7482 62.5141 55.1839 65.1977 52.9016C65.8088 56.0245 67.2655 58.2731 70.3012 59.2674ZM79.8137 56.1686L79.8165 56.9542C79.7638 57.4288 79.6133 57.8687 79.3825 58.2507C78.8408 59.147 77.9032 59.7295 76.7416 59.8901C75.5299 60.0571 74.1734 59.7531 72.7938 59.009C72.8987 58.9607 72.987 58.9034 73.0876 58.8528C75.834 57.8487 77.0046 55.2124 77.0306 52.285C78.8413 53.4871 79.6691 54.9001 79.8137 56.1686ZM86.1515 43.4755C84.5184 43.4831 83.1181 44.4707 82.4909 45.8739C80.9307 46.3425 79.781 47.7852 79.7902 49.4951L79.7992 52.0615L77.3161 51.876C77.1908 51.7925 77.0665 51.7084 76.9342 51.6283L73.7617 45.1778C74.372 45.2177 81.4278 45.6789 80.9768 45.6494C81.1318 42.6584 81.0918 40.0076 80.8075 37.6567L81.3323 37.6457C86.3473 37.5302 91.2769 39.4345 95.0472 43.4434L86.1515 43.4755ZM65.1612 47.0198C65.1318 47.5878 65.1393 48.8981 65.1844 51.0034C65.0812 51.0065 60.4878 51.1449 60.7787 51.1361C61.2917 49.2878 62.0961 47.5256 63.181 45.9005C63.7786 46.39 64.4473 46.7642 65.1612 47.0198ZM60.5653 34.0501L60.5759 34.556C60.4909 34.6363 60.4584 34.7597 60.522 34.8632C60.5377 34.8886 60.5615 34.9041 60.5836 34.9216L60.6487 38.0331C60.2995 37.7858 59.9767 37.7608 59.7327 37.8509C59.6948 37.865 59.6638 37.8904 59.6291 37.9098C58.4251 38.5744 59.4002 41.6142 60.7845 41.7237C61.0017 43.1385 61.6898 44.5101 62.7773 45.5516L62.7906 45.5644C61.628 47.2933 60.7837 49.1784 60.2536 51.1529C58.0504 51.1771 55.1937 51.57 50.5916 50.8153C51.8164 44.2195 55.3225 38.3122 60.5653 34.0501ZM11.003 32.0863C10.9785 24.9165 16.8285 18.9913 24.0994 18.9913C31.0584 18.9685 37.2187 24.6548 37.1944 32.0863V32.0883C37.2193 39.39 31.5063 42.8406 31.4274 42.9412L31.4274 42.9412C29.6189 44.1594 27.4572 44.9544 25.1164 45.1336C17.299 45.7302 10.9777 39.5159 11.003 32.0863ZM21.9944 45.5241C23.3924 45.7411 25.1473 45.7561 26.8477 45.4052C29.224 45.3001 31.4349 44.5792 33.3295 43.3906C33.3324 43.9548 33.2545 44.0972 33.3812 44.2265L33.9179 44.7785L28.308 51.2011L21.9944 45.5241ZM79.0141 84.3336C65.7413 84.6257 53.9704 75.5295 50.8864 62.6007C53.9902 63.0961 57.4 63.4396 61.2396 63.6946C62.2196 65.8834 63.6196 67.8875 65.4049 69.5996C69.1377 73.1783 73.9483 74.9426 78.8187 74.8367L84.8628 74.7105C85.0214 77.9099 85.1833 81.1486 85.3367 84.2011C84.9342 84.2095 82.4157 84.262 82.519 84.2598C81.3465 84.2846 78.8648 84.3367 79.0141 84.3336ZM119.86 91.3221C120.906 95.7512 121.786 98.8144 122.626 101.662L122.67 114.114C122.679 116.058 121.101 117.646 119.155 117.652C119.013 117.652 86.3046 117.774 86.4132 117.774C84.4707 117.774 82.8883 116.2 82.8839 114.26L82.7768 84.7579L85.362 84.7038C85.716 91.7432 86.0198 97.7011 86.1237 99.7342C86.1063 99.7455 86.0828 99.744 86.0685 99.7595C85.9362 99.9004 86.0243 99.8637 86.1225 103.438L83.5209 105.238C82.2652 106.109 83.7422 108.267 85.013 107.39L86.2276 106.549L86.399 111.461C86.4331 112.461 88.3215 112.572 89.0002 111.951C89.5455 112.517 90.8968 112.473 91.4102 111.873C91.9964 112.364 93.3497 112.308 93.8625 111.745C94.4179 112.152 95.6866 112.101 96.1731 111.62L118.666 111.542C118.733 111.542 118.797 111.515 118.843 111.468C118.889 111.422 118.917 111.359 118.916 111.29L118.696 50.2303C118.695 50.0918 118.583 49.9798 118.444 49.9798C118.339 49.9798 109.814 50.0067 109.916 50.0086C109.723 49.0815 109.482 48.2201 109.247 47.456L110.3 47.448L112.513 43.8826C113.597 43.8788 117.384 43.8659 118.904 43.8606C120.833 43.8606 122.42 45.4301 122.429 47.3753L122.571 87.1397C120.762 87.6545 119.596 89.4319 119.86 91.3221Z" fill="black"/>
<path d="M63.7079 41.6569C63.7295 41.6628 63.7511 41.6652 63.7722 41.6652C64.0664 41.6652 64.1188 41.245 63.8366 41.1706C63.1688 40.9939 63.2268 40.4407 63.7167 40.401C64.1121 40.3701 64.4456 40.1279 64.5875 39.7699C64.9672 38.8136 65.3503 36.6442 64.8572 36.3049C64.7452 36.2278 64.5708 36.239 64.4918 36.354C64.4132 36.4684 64.4265 36.6099 64.5409 36.6884C64.6759 36.9252 64.5438 38.5175 64.12 39.5842C64.0492 39.763 63.8798 39.8839 63.677 39.9001C62.617 39.9845 62.4952 41.3364 63.7079 41.6569Z" fill="black"/>
<path d="M68.1732 36.2332C68.025 36.3738 67.9245 36.6588 67.9315 36.9937C67.9413 37.4611 68.1529 37.8363 68.4036 37.8311C68.6551 37.8258 68.85 37.4421 68.8402 36.9747C68.8363 36.7887 68.7945 36.6268 68.7372 36.4883L70.4491 37.2625C70.4825 37.2773 70.5179 37.2847 70.5527 37.2847C70.6485 37.2847 70.7399 37.2296 70.7821 37.1368C70.8391 37.0101 70.7831 36.8613 70.6564 36.8038L67.3377 35.3029C67.213 35.2478 67.0622 35.3024 67.0047 35.4286C66.9477 35.5553 67.0037 35.7041 67.1304 35.7616L68.1732 36.2332Z" fill="black"/>
<path d="M65.7013 43.617C65.7121 43.617 65.7229 43.6165 65.7337 43.6151C66.1728 43.5586 66.521 43.4333 66.7995 43.2325C67.162 42.9692 67.3815 42.5753 67.3874 42.1775C67.3894 42.039 67.2784 41.9245 67.1394 41.9226C66.9999 41.8931 66.8864 42.0316 66.8845 42.1706C66.881 42.4064 66.7352 42.6573 66.5043 42.8248C66.2961 42.9756 66.023 43.0709 65.6699 43.1161C65.5318 43.1337 65.4346 43.26 65.4523 43.3975C65.4685 43.5247 65.577 43.617 65.7013 43.617Z" fill="black"/>
<path d="M24.1262 23.6292C26.3471 23.6292 28.515 24.531 30.0798 26.1071C31.6613 27.6773 32.564 29.8565 32.5562 32.0863L33.0591 32.0883C33.0675 29.7244 32.1107 27.4145 30.4354 25.7515C28.7783 24.0821 26.4802 23.1263 24.1256 23.1263C24.1168 23.1263 24.107 23.1263 24.0977 23.1263L24.0996 23.6293C24.1085 23.6292 24.1173 23.6292 24.1262 23.6292Z" fill="black"/>
<path d="M24.0712 41.0478C24.0801 41.0478 24.0899 41.0478 24.0992 41.0478L24.0973 40.5449C19.3007 40.5219 15.6257 36.6378 15.6407 32.0883L15.1377 32.0863C15.1214 36.9988 19.1385 41.0478 24.0712 41.0478Z" fill="black"/>
<path d="M22.0639 35.2301H21.1228C20.9563 35.2301 20.8213 35.3652 20.8213 35.5317C20.8213 35.6982 20.9563 35.8332 21.1228 35.8332H22.0639V36.3465C22.0639 36.513 22.1989 36.648 22.3654 36.648C22.5319 36.648 22.667 36.513 22.667 36.3465V35.8332H22.9362V36.3465C22.9362 36.513 23.0712 36.648 23.2377 36.648C23.4042 36.648 23.5393 36.513 23.5393 36.3465V35.8332H25.0712C27.0847 35.8332 27.8627 33.1829 26.1187 32.1123C27.8593 31.0473 27.0852 28.3899 25.0712 28.3899H23.5393V27.828C23.5393 27.6615 23.4042 27.5265 23.2377 27.5265C23.0712 27.5265 22.9362 27.6615 22.9362 27.828V28.3899H22.667V27.8772C22.667 27.7107 22.5319 27.5756 22.3654 27.5756C22.1989 27.5756 22.0639 27.7107 22.0639 27.8772V28.3899H21.1228C20.9563 28.3899 20.8213 28.525 20.8213 28.6915C20.8213 28.858 20.9563 28.993 21.1228 28.993H22.0639V35.2301ZM26.4827 33.825C26.4827 34.5995 25.8497 35.2301 25.0712 35.2301H22.667V32.4134H25.0712C25.8497 32.4134 26.4827 33.0465 26.4827 33.825ZM25.0712 28.993C25.8497 28.993 26.4827 29.6266 26.4827 30.4051C26.4827 31.1796 25.8497 31.8102 25.0712 31.8102H22.667V28.993H25.0712Z" fill="black"/>
<path d="M37.3068 20.2173L39.3328 17.6987C39.4197 17.5906 39.4025 17.432 39.2944 17.3451C39.1859 17.2581 39.0278 17.2743 38.9408 17.3834L36.9148 19.902C36.8279 20.01 36.8451 20.1687 36.9531 20.2556C37.0629 20.3433 37.2209 20.3244 37.3068 20.2173Z" fill="black"/>
<path d="M38.0953 22.032C38.1966 22.032 40.1411 21.9253 40.0398 21.924C40.3606 21.9058 40.3581 21.4196 40.0123 21.422L38.0816 21.5296C37.7566 21.5479 37.7734 22.032 38.0953 22.032Z" fill="black"/>
</svg>
