<svg preserveAspectRatio="none" width="100%" height="100%" overflow="visible" style="display: block;" viewBox="0 0 22 22" fill="none" xmlns="http://www.w3.org/2000/svg">
<path id="Vector" d="M1.05 11C1.05 8.3611 2.0983 5.83027 3.96429 3.96429C5.83027 2.0983 8.3611 1.05 11 1.05C13.6389 1.05 16.1697 2.0983 18.0357 3.96429C19.9017 5.83027 20.95 8.3611 20.95 11C20.95 13.6389 19.9017 16.1697 18.0357 18.0357C16.1697 19.9017 13.6389 20.95 11 20.95C8.3611 20.95 5.83027 19.9017 3.96429 18.0357C2.0983 16.1697 1.05 13.6389 1.05 11ZM11 0C8.08262 0 5.28473 1.15893 3.22183 3.22183C1.15893 5.28473 0 8.08262 0 11C0 13.9174 1.15893 16.7153 3.22183 18.7782C5.28473 20.8411 8.08262 22 11 22C13.9174 22 16.7153 20.8411 18.7782 18.7782C20.8411 16.7153 22 13.9174 22 11C22 8.08262 20.8411 5.28473 18.7782 3.22183C16.7153 1.15893 13.9174 0 11 0ZM8 13.03C8.12465 12.985 8.26209 12.9913 8.3821 13.0475C8.50211 13.1038 8.59487 13.2054 8.64 13.33C8.81108 13.8195 9.13013 14.2437 9.55296 14.5438C9.97579 14.8439 10.4815 15.0051 11 15.0051C11.5185 15.0051 12.0242 14.8439 12.447 14.5438C12.8699 14.2437 13.1889 13.8195 13.36 13.33C13.4077 13.2089 13.5008 13.1112 13.6194 13.0576C13.738 13.004 13.8729 12.9988 13.9953 13.0431C14.1177 13.0874 14.218 13.1776 14.2749 13.2947C14.3318 13.4118 14.3408 13.5464 14.3 13.67C14.0588 14.3525 13.6119 14.9434 13.0209 15.3614C12.4299 15.7794 11.7239 16.0038 11 16.0038C10.2761 16.0038 9.57007 15.7794 8.97907 15.3614C8.38806 14.9434 7.94119 14.3525 7.7 13.67C7.65497 13.5453 7.66127 13.4079 7.71753 13.2879C7.77378 13.1679 7.87538 13.0751 8 13.03ZM8.5 8.5C8.23478 8.5 7.98043 8.60536 7.79289 8.79289C7.60536 8.98043 7.5 9.23478 7.5 9.5C7.5 9.76522 7.60536 10.0196 7.79289 10.2071C7.98043 10.3946 8.23478 10.5 8.5 10.5C8.76522 10.5 9.01957 10.3946 9.20711 10.2071C9.39464 10.0196 9.5 9.76522 9.5 9.5C9.5 9.23478 9.39464 8.98043 9.20711 8.79289C9.01957 8.60536 8.76522 8.5 8.5 8.5ZM13.5 8.5C13.2348 8.5 12.9804 8.60536 12.7929 8.79289C12.6054 8.98043 12.5 9.23478 12.5 9.5C12.5 9.76522 12.6054 10.0196 12.7929 10.2071C12.9804 10.3946 13.2348 10.5 13.5 10.5C13.7652 10.5 14.0196 10.3946 14.2071 10.2071C14.3946 10.0196 14.5 9.76522 14.5 9.5C14.5 9.23478 14.3946 8.98043 14.2071 8.79289C14.0196 8.60536 13.7652 8.5 13.5 8.5Z" fill="var(--fill-0, #565D73)"/>
</svg>
