<svg preserveAspectRatio="none" width="100%" height="100%" overflow="visible" style="display: block;" viewBox="0 0 28 28" fill="none" xmlns="http://www.w3.org/2000/svg">
<g id="Button - Measure &#226;&#134;&#146; Img &#226;&#134;&#146; SVG">
<path id="Vector" d="M2.50952 19.4801C2.22821 19.7614 2.07018 20.1429 2.07018 20.5407C2.07018 20.9386 2.22821 21.3201 2.50952 21.6014L6.39861 25.4905C6.67991 25.7718 7.06144 25.9298 7.45927 25.9298C7.85709 25.9298 8.23862 25.7718 8.51993 25.4905L25.4905 8.51992C25.7718 8.23862 25.9298 7.85708 25.9298 7.45926C25.9298 7.06143 25.7718 6.6799 25.4905 6.3986L21.6014 2.50951C21.3201 2.22821 20.9386 2.07017 20.5407 2.07017C20.1429 2.07017 19.7614 2.22821 19.4801 2.50951L2.50952 19.4801ZM3.21662 20.1872L5.33795 18.0659L7.10571 19.8336L7.81282 19.1265L6.04505 17.3588L8.34315 15.0607L11.1009 17.8184L11.808 17.1113L9.05026 14.3536L11.3484 12.0555L13.1161 13.8232L13.8232 13.1161L12.0555 11.3483L14.3536 9.05025L17.1113 11.808L17.8184 11.1009L15.0607 8.34314L17.3588 6.04505L19.1265 7.81281L19.8336 7.10571L18.0659 5.33794L20.1872 3.21662C20.281 3.12285 20.4081 3.07017 20.5407 3.07017C20.6734 3.07017 20.8005 3.12285 20.8943 3.21662L24.7834 7.10571C24.8772 7.19947 24.9298 7.32665 24.9298 7.45926C24.9298 7.59187 24.8772 7.71904 24.7834 7.81281L7.81282 24.7834C7.71905 24.8771 7.59187 24.9298 7.45927 24.9298C7.32666 24.9298 7.19948 24.8771 7.10571 24.7834L3.21662 20.8943C3.12286 20.8005 3.07018 20.6733 3.07018 20.5407C3.07018 20.4081 3.12286 20.281 3.21662 20.1872Z" fill="var(--fill-0, #565D73)"/>
</g>
</svg>
