<svg preserveAspectRatio="none" width="100%" height="100%" overflow="visible" style="display: block;" viewBox="0 0 28 28" fill="none" xmlns="http://www.w3.org/2000/svg">
<g id="Button - Zoom In &#226;&#134;&#146; Img &#226;&#134;&#146; SVG">
<path id="Vector" d="M17.646 18.354L21.646 22.354L22.354 21.646L18.354 17.646L17.646 18.354Z" fill="var(--fill-0, #565D73)"/>
<path id="Vector_2" d="M12.5 21C10.2457 21 8.08365 20.1045 6.48959 18.5104C4.89553 16.9163 4 14.7543 4 12.5C4 10.2457 4.89553 8.08365 6.48959 6.48959C8.08365 4.89553 10.2457 4 12.5 4C14.7543 4 16.9163 4.89553 18.5104 6.48959C20.1045 8.08365 21 10.2457 21 12.5C21 14.7543 20.1045 16.9163 18.5104 18.5104C16.9163 20.1045 14.7543 21 12.5 21ZM12.5 20C14.4891 20 16.3968 19.2098 17.8033 17.8033C19.2098 16.3968 20 14.4891 20 12.5C20 10.5109 19.2098 8.60322 17.8033 7.1967C16.3968 5.79018 14.4891 5 12.5 5C10.5109 5 8.60322 5.79018 7.1967 7.1967C5.79018 8.60322 5 10.5109 5 12.5C5 14.4891 5.79018 16.3968 7.1967 17.8033C8.60322 19.2098 10.5109 20 12.5 20Z" fill="var(--fill-0, #565D73)"/>
<path id="Vector_3" d="M9 13H16V12H9V13Z" fill="var(--fill-0, #565D73)"/>
<path id="Vector_4" d="M13 16V9H12V16H13Z" fill="var(--fill-0, #565D73)"/>
</g>
</svg>
