<svg preserveAspectRatio="none" width="100%" height="100%" overflow="visible" style="display: block;" viewBox="0 0 99.2021 103.189" fill="none" xmlns="http://www.w3.org/2000/svg">
<g id="Telescope">
<path id="Vector" d="M96.1812 47.1415C96.1812 47.0954 93.5996 45.7222 91.0128 44.3169C91.2394 42.7147 90.9658 41.105 89.599 40.2642C76.6942 27.1829 61.7175 16.0066 45.0268 6.86574C45.006 6.84465 44.9904 6.81574 44.9693 6.79543C44.8977 6.72668 44.8045 6.69934 44.7118 6.69426C39.4095 3.80259 35.7922 2.02433 31.6224 0.0798069C31.499 0.0173069 31.3592 -0.0170682 31.2396 0.0563694C31.2339 0.0598851 31.2318 0.0647678 31.2263 0.0684788C29.467 -0.237966 27.4547 0.485666 25.3513 2.20793C25.2556 2.28684 25.2187 2.39914 25.2182 2.51418C16.2162 2.54172 8.25329 8.89992 7.13737 17.1239C6.22068 23.7542 9.6363 29.6771 15.1298 32.707C15.0873 32.79 15.0642 32.8853 15.0888 32.9829C15.7453 35.5906 17.2044 38.0923 19.8834 38.0923C20.8095 38.0919 21.799 37.7599 22.8146 37.1677C34.3849 39.3986 45.9284 42.2779 57.1479 45.7157C53.0552 49.2175 52.2265 55.0935 55.1511 59.6222C46.2344 73.2158 37.3221 85.5124 26.9873 100.514C26.8623 100.695 26.9084 100.945 27.0904 101.07C27.2742 101.196 27.5207 101.149 27.6467 100.967C37.7038 86.3666 46.8118 73.7742 55.6456 60.3218C57.4763 62.706 60.155 64.1823 63.0977 64.4368C60.907 75.0011 59.9631 85.8157 60.265 96.6365C53.3537 96.7103 47.8452 97.9417 47.8452 99.4775C47.8452 101.045 53.7012 102.326 60.9172 102.326C68.1492 102.326 74.0052 101.045 74.0052 99.4775C74.0052 97.9044 68.2279 96.6482 61.0647 96.631C60.7627 85.8333 61.7061 75.0427 63.8996 64.504C63.9728 64.5058 64.0467 64.5173 64.117 64.5173C68.4194 64.5173 72.2627 61.9085 73.9368 58.0384C76.9308 74.1212 82.8434 89.2474 91.5717 103.003C91.6474 103.124 91.7771 103.189 91.9092 103.189C92.2201 103.189 92.4174 102.843 92.2467 102.575C83.3355 88.5286 77.3528 73.0546 74.4601 56.58C74.9471 54.8407 74.9405 53.2537 74.5708 51.5798C77.0967 52.5134 79.2091 53.3144 81.0818 54.047C82.6696 54.9781 84.4507 54.1341 85.8856 52.981C87.3781 54.1782 88.8596 55.3868 90.3092 56.5974C93.8772 58.7575 99.8772 49.3814 96.1812 47.1415ZM67.4452 99.4775C67.4452 100.261 64.5172 100.901 60.9172 100.901C57.3172 100.901 54.3892 100.261 54.3892 99.4775C54.3892 98.7386 56.9988 98.1347 60.3113 98.0667C60.3295 98.5429 60.3345 99.0193 60.3576 99.4954C60.3677 99.7095 60.5443 99.8767 60.7568 99.8767H60.7763C60.9967 99.8657 61.167 99.6782 61.156 99.4579C61.1335 98.9911 61.1287 98.5243 61.1108 98.0575C64.6194 98.0806 67.4452 98.7079 67.4452 99.4775ZM66.9175 40.7298C64.387 40.1548 61.88 39.3907 59.4651 38.4564C59.2596 38.3767 59.1565 38.1439 59.2362 37.9392C59.3159 37.7314 59.5495 37.6282 59.7542 37.7095C62.1323 38.6298 64.6018 39.3829 67.094 39.9486C67.3096 39.9986 67.4448 40.2126 67.3956 40.4282C67.3485 40.6339 67.1445 40.7776 66.9175 40.7298ZM62.0667 28.3361C61.8557 28.272 61.7362 28.0486 61.8003 27.8376C61.8643 27.6251 62.0846 27.5111 62.2995 27.5704C64.5081 28.2407 66.6964 28.9282 68.8034 29.6157C69.3055 29.7769 69.0566 30.5455 68.555 30.3751C66.4534 29.6907 64.2706 29.0048 62.0667 28.3361ZM54.592 13.3613C54.5684 13.3593 54.5494 13.34 54.5256 13.3423C54.306 13.3704 54.1521 13.572 54.1802 13.7907C55.0623 20.5579 54.5334 27.5673 52.6068 34.6251C52.549 34.8376 52.674 35.0579 52.8873 35.1157C53.106 35.1741 53.3218 35.0437 53.3787 34.8345C55.3326 27.6751 55.8693 20.5611 54.974 13.6876C54.9654 13.6245 54.9177 13.5853 54.8837 13.5368C56.9929 14.8597 59.0564 16.2325 61.1011 17.6259C62.1458 26.2352 60.7426 35.4831 56.4929 44.6884C49.6145 42.6027 42.6191 40.7419 35.5714 39.0978C37.0115 38.1741 38.4492 36.5439 39.795 34.5107C39.8724 34.4624 39.9368 34.3941 39.967 34.3001C39.9713 34.2864 39.9608 34.2743 39.9636 34.2607C43.4187 28.9223 46.4606 20.4807 46.7792 14.0114C47.047 13.8652 47.0582 13.484 46.799 13.322C46.7967 13.3204 46.7942 13.3193 46.792 13.3177C46.8275 11.2538 46.5553 9.55246 45.9751 8.29172C48.8995 9.92238 51.7794 11.604 54.592 13.3613ZM44.5178 7.49953C45.4836 8.52902 45.9883 10.3859 46.0024 12.8599C43.1055 11.2208 39.1004 9.76223 35.8497 9.19133C35.8716 6.86089 35.6091 4.2601 34.3718 2.29895C37.8242 3.94816 41.2026 5.68645 44.5178 7.49953ZM35.8229 10.0001C39.117 10.597 43.1708 12.106 45.9797 13.7704C45.8731 16.5127 45.322 19.1698 44.5675 21.8236C41.0173 21.1544 37.577 20.0683 34.3408 18.5825C35.2261 15.5329 35.716 12.6075 35.8229 10.0001ZM34.1076 19.3534C37.3521 20.832 40.7957 21.9193 44.3478 22.595C43.1474 26.57 41.3886 30.6017 39.4107 33.7001C32.3723 31.4227 29.7851 29.969 29.4259 29.8747C31.218 26.9267 32.8946 23.2707 34.1076 19.3534ZM22.1073 27.0814C26.1901 20.1032 27.5104 12.022 25.7284 4.90793C25.6036 4.40517 26.3697 4.18476 26.505 4.71418C28.337 12.0282 26.9854 20.3282 22.7979 27.4845C22.6866 27.6767 22.4398 27.7392 22.2503 27.6282C22.0596 27.5173 21.9956 27.272 22.1073 27.0814ZM12.7242 17.9736C11.6973 16.8345 11.7049 15.0814 11.9991 13.6407C12.367 11.8349 13.375 10.0888 14.9232 8.83254C15.4862 8.37551 16.2223 7.95676 16.927 8.11301C17.556 8.25285 17.9358 8.80481 18.1797 9.3427C19.3762 11.988 18.561 15.3333 16.3559 17.5122C15.2633 18.59 13.8455 19.2181 12.7242 17.9736ZM18.9865 37.1579C17.6236 36.7402 16.5854 35.3425 15.9631 33.1267C17.0663 33.6572 18.2346 34.0884 19.4695 34.3771C26.4337 36.2087 37.963 5.28059 30.2784 3.18801C28.2959 2.6399 27.2254 2.59125 26.2329 2.54192C28.1006 1.1134 29.8439 0.553635 31.3114 0.905979C31.3611 0.928049 31.4099 0.93801 31.4619 0.939377C32.6696 1.28047 33.4775 2.15716 34.0349 3.29231C35.8513 6.99231 35.2717 14.1251 32.5584 21.4657C28.8318 31.4767 22.8795 38.3782 18.9865 37.1579ZM29.0437 30.4755C29.0775 30.5161 29.095 30.5685 29.1451 30.5939C31.7842 31.9329 36.445 33.5732 38.9508 34.3917C37.4924 36.531 35.9347 38.14 34.4021 38.8226C30.8602 38.0099 27.3114 37.2407 23.7552 36.5464C25.5232 35.2435 27.3399 33.1597 29.0437 30.4755ZM64.117 63.7173C63.9607 63.7126 63.7967 63.7189 63.5927 63.6861C54.3809 63.2391 50.7783 51.4139 58.2146 45.8595C64.611 41.0189 74.0373 45.6043 74.0373 53.797C74.0373 59.2796 69.5636 63.7173 64.117 63.7173ZM81.431 53.3298C79.3694 52.5179 77.105 51.6603 74.3354 50.6404C72.6266 45.0951 67.7422 43.7753 67.5822 43.6724C69.6653 37.4368 70.7031 30.8904 70.4791 24.4189C82.8218 33.9695 88.639 40.6321 89.1451 40.9251C93.2063 43.3297 85.4626 55.6889 81.431 53.3298Z" fill="#ffffff"/>
<path id="Vector_2" d="M19.8021 45.293C21.0376 45.6863 20.0676 46.9892 29.0396 52.2617C29.688 52.642 30.2879 51.972 29.8318 51.4727C27.0966 48.4867 24.62 45.4383 22.47 42.4133C22.3411 42.2305 22.0919 42.1898 21.9122 42.318C21.7325 42.4461 21.6904 42.6961 21.8185 42.8758C23.6974 45.5211 25.8232 48.182 28.1505 50.8039C20.2496 46.0434 21.8235 45.1047 20.0474 44.5305C19.4763 44.3492 18.8989 44.4055 18.281 44.7102C14.4966 46.5758 11.9982 49.2133 9.80676 51.7211C9.7302 51.7414 9.54973 51.6758 9.51848 51.6383C9.03682 49.0716 10.1382 46.806 10.7185 44.3242C10.813 43.9211 10.688 43.3664 10.0263 43.1258C9.74817 43.0242 9.47942 43.0195 9.22864 43.0258C6.59583 43.0836 4.13254 43.3539 1.88489 43.8336L9.24739 39.1492C9.43333 39.0305 9.48879 38.7836 9.37004 38.5977C9.25129 38.4102 9.00286 38.3586 8.8177 38.4742L0.234887 43.9352C-0.316501 44.2849 0.195452 45.0779 0.819262 44.907C3.33645 44.2555 6.17161 43.893 9.24661 43.8258C9.54562 43.8078 10.0083 43.8504 9.93958 44.1414C9.37474 46.5674 8.20931 49.0017 8.73254 51.7867C8.85708 52.4401 9.92166 52.7887 10.3638 52.282C12.6365 49.6992 14.9794 47.2305 18.6349 45.4273C18.9036 45.2945 19.3169 45.1352 19.8021 45.293Z" fill="#ffffff"/>
<path id="Vector_3" d="M4.9789 46.7206C4.07421 47.2019 3.21953 47.7769 2.44062 48.4253C2.15434 48.6654 2.32477 49.1331 2.69687 49.1331C3.06982 49.1331 3.32426 48.5082 5.35546 47.4269C5.81859 47.1813 5.45199 46.4726 4.9789 46.7206Z" fill="#ffffff"/>
<path id="Vector_4" d="M19.8938 49.9518C19.6349 49.4867 18.9376 49.883 19.1953 50.3424L21.1656 53.8581C21.4212 54.3148 22.1236 53.9301 21.8641 53.4674L19.8938 49.9518Z" fill="#ffffff"/>
<path id="Vector_5" d="M65.5586 50.9547C63.1692 51.1431 61.9531 53.3039 62.8469 54.8968C63.364 55.8187 64.5984 56.2156 65.4844 55.7484C65.6797 55.6453 65.7547 55.4031 65.6515 55.2078C65.5476 55.014 65.3054 54.9406 65.1109 55.0422C64.6008 55.314 63.8531 55.0562 63.5445 54.5062C62.9439 53.4343 63.8027 51.8954 65.6211 51.7515C67.3354 51.6279 68.315 52.6587 68.6844 54.3578C69.3153 57.2484 67.778 59.335 65.032 59.5C62.6726 59.6375 60.2898 58.0718 59.5023 55.8343C58.7148 53.6 59.5797 50.8828 61.5125 49.5125C63.4461 48.1437 66.2984 48.2265 68.1445 49.7125C68.559 50.0433 69.0569 49.4198 68.6461 49.0875C66.5281 47.389 63.2617 47.289 61.05 48.8593C58.8359 50.4281 57.8461 53.5406 58.7476 56.1C59.6233 58.5866 62.2665 60.4521 65.0804 60.3C68.3225 60.1037 70.2005 57.5545 69.4656 54.1875C68.9568 51.8403 67.4526 50.8226 65.5586 50.9547Z" fill="#ffffff"/>
<path id="Vector_6" d="M98.0986 19.4136C96.8392 15.3589 92.683 12.412 88.4462 12.4636C88.2251 12.4682 88.0501 12.6511 88.0548 12.8729C88.0603 13.0932 88.2501 13.2932 88.4634 13.2636C92.3869 13.1964 96.1783 15.9245 97.3345 19.6511C97.8267 21.237 97.9095 23.4339 96.7869 25.1026C95.8443 24.1062 94.7949 24.0579 94.0556 24.6057C92.4162 25.811 94.6089 28.4127 96.7626 26.3745C98.7533 29.3667 98.9556 33.4604 97.2517 36.6292C97.0002 37.0946 97.7069 37.4738 97.9564 37.0073C99.8314 33.5214 99.5697 28.9995 97.3064 25.7511C98.5103 24.1182 98.8173 21.7307 98.0986 19.4136ZM94.465 26.0589C93.9405 25.5297 94.6757 24.9283 95.3291 25.0839C95.7033 25.1776 96.0212 25.4432 96.2775 25.7292C95.7326 26.277 94.9895 26.5929 94.465 26.0589Z" fill="#ffffff"/>
</g>
</svg>
