<svg preserveAspectRatio="none" width="100%" height="100%" overflow="visible" style="display: block;" viewBox="0 0 26 17" fill="none" xmlns="http://www.w3.org/2000/svg">
<path id="Vector" d="M2.5 16C3.328 16 4 15.328 4 14.5C4 13.672 3.328 13 2.5 13C1.672 13 1 13.672 1 14.5C1 15.328 1.672 16 2.5 16ZM2.5 17C1.119 17 0 15.881 0 14.5C0 13.119 1.119 12 2.5 12C3.881 12 5 13.119 5 14.5C5 15.881 3.881 17 2.5 17ZM23.5 4C24.328 4 25 3.328 25 2.5C25 1.672 24.328 1 23.5 1C22.672 1 22 1.672 22 2.5C22 3.328 22.672 4 23.5 4ZM23.5 5C22.119 5 21 3.881 21 2.5C21 1.119 22.119 0 23.5 0C24.881 0 26 1.119 26 2.5C26 3.881 24.881 5 23.5 5Z" fill="var(--fill-0, #565D73)"/>
</svg>
