<svg preserveAspectRatio="none" width="100%" height="100%" overflow="visible" style="display: block;" viewBox="0 0 18.18 14.187" fill="none" xmlns="http://www.w3.org/2000/svg">
<path id="Vector" d="M15.103 1.547L17.206 10.659L18.18 10.434L16.077 1.322L15.103 1.547ZM8.597 7.053L16.228 11.909L16.765 11.065L9.134 6.209L8.597 7.053ZM9.033 4.758L13.845 1.149L13.245 0.349L8.433 3.958L9.033 4.758ZM5.614 6.87L0.893 13.614L1.712 14.187L6.433 7.443L5.614 6.87ZM0.985 13.712L3.295 0.624L2.31 0.45L0 13.538L0.985 13.712ZM3.695 0.496L5.69 3.988L6.558 3.492L4.563 0L3.695 0.496Z" fill="var(--fill-0, #565D73)"/>
</svg>
