<svg preserveAspectRatio="none" width="100%" height="100%" overflow="visible" style="display: block;" viewBox="0 0 28 28" fill="none" xmlns="http://www.w3.org/2000/svg">
<g id="Button - Keep drawing &#226;&#134;&#146; Img &#226;&#134;&#146; SVG">
<path id="Vector" d="M17.27 4.56C17.0378 4.32718 16.7619 4.14247 16.4582 4.01644C16.1544 3.89041 15.8288 3.82553 15.5 3.82553C15.1712 3.82553 14.8456 3.89041 14.5418 4.01644C14.2381 4.14247 13.9622 4.32718 13.73 4.56L13.15 5.15L4.15 14.15L3.15 15.15L3 15.29V20H7.7L7.85 19.85L8.85 18.85L17.85 9.85L18.44 9.27C18.6728 9.03777 18.8575 8.76189 18.9836 8.45817C19.1096 8.15444 19.1745 7.82884 19.1745 7.5C19.1745 7.17116 19.1096 6.84556 18.9836 6.54183C18.8575 6.23811 18.6728 5.96223 18.44 5.73L17.27 4.56ZM14.44 5.26C14.7213 4.9791 15.1025 4.82132 15.5 4.82132C15.8975 4.82132 16.2787 4.9791 16.56 5.26L17.73 6.44C18.0109 6.72125 18.1687 7.1025 18.1687 7.5C18.1687 7.8975 18.0109 8.27875 17.73 8.56L17.5 8.79L14.2 5.5L14.44 5.27V5.26ZM13.5 6.21L16.8 9.5L8.5 17.8L5.2 14.5L13.5 6.2V6.21ZM4.5 15.21L7.8 18.5L7.3 19H4V15.7L4.5 15.2V15.21ZM21 15.5C21 15.1022 20.842 14.7206 20.5607 14.4393C20.2794 14.158 19.8978 14 19.5 14C19.1022 14 18.7206 14.158 18.4393 14.4393C18.158 14.7206 18 15.1022 18 15.5V18H22.5C23.33 18 24 18.67 24 19.5V23.5C24 24.33 23.33 25 22.5 25H16.5C16.1022 25 15.7206 24.842 15.4393 24.5607C15.158 24.2794 15 23.8978 15 23.5V19.5C15 18.67 15.67 18 16.5 18H17V15.5C17 14.837 17.2634 14.2011 17.7322 13.7322C18.2011 13.2634 18.837 13 19.5 13C20.163 13 20.7989 13.2634 21.2678 13.7322C21.7366 14.2011 22 14.837 22 15.5V16H21V15.5ZM16.5 19C16.3674 19 16.2402 19.0527 16.1464 19.1464C16.0527 19.2402 16 19.3674 16 19.5V23.5C16 23.78 16.22 24 16.5 24H22.5C22.6326 24 22.7598 23.9473 22.8536 23.8536C22.9473 23.7598 23 23.6326 23 23.5V19.5C23 19.3674 22.9473 19.2402 22.8536 19.1464C22.7598 19.0527 22.6326 19 22.5 19H16.5ZM19 23V21H20V23H19Z" fill="var(--fill-0, #565D73)"/>
</g>
</svg>
