<svg preserveAspectRatio="none" width="100%" height="100%" overflow="visible" style="display: block;" viewBox="0 0 15.8838 11.4879" fill="none" xmlns="http://www.w3.org/2000/svg">
<path id="Vector" d="M0 11.4869L0.859 10.6329L1.08 10.4049C1.26 10.2149 1.46 9.99591 1.677 9.74991C2.296 9.04591 2.915 8.27191 3.492 7.45191C4.474 6.05591 5.23 4.67591 5.669 3.37091C6.903 -0.296094 11.626 -1.34509 14.592 2.10791C17.843 5.89291 14.555 11.4879 9.213 11.4879H0.00199997L0 11.4869ZM9.211 10.4869C13.755 10.4869 16.483 5.84491 13.832 2.75891C11.382 -0.0940936 7.607 0.743906 6.616 3.68991C6.142 5.09791 5.343 6.55891 4.309 8.02691C3.71 8.87891 3.068 9.67991 2.427 10.4099L2.359 10.4879H9.212L9.211 10.4869Z" fill="var(--fill-0, #565D73)"/>
</svg>
