<svg preserveAspectRatio="none" width="100%" height="100%" overflow="visible" style="display: block;" viewBox="0 0 22.9995 21.005" fill="none" xmlns="http://www.w3.org/2000/svg">
<path id="Vector" fill-rule="evenodd" clip-rule="evenodd" d="M2.5 1.00252C2.10218 1.00252 1.72065 1.16055 1.43934 1.44186C1.15804 1.72316 1 2.10469 1 2.50252C1 2.90034 1.15804 3.28187 1.43934 3.56318C1.72065 3.84448 2.10218 4.00252 2.5 4.00252C2.89783 4.00252 3.27936 3.84448 3.56066 3.56318C3.84197 3.28187 4 2.90034 4 2.50252C4 2.10469 3.84197 1.72316 3.56066 1.44186C3.27936 1.16055 2.89783 1.00252 2.5 1.00252ZM1.26393e-06 2.50252C-0.000621812 1.88254 0.229142 1.28445 0.644688 0.824351C1.06023 0.364251 1.63192 0.0749695 2.24875 0.0126627C2.86559 -0.0496441 3.48357 0.119469 3.98274 0.487174C4.4819 0.854879 4.82663 1.39494 4.95 2.00252H22V3.00252H4.95C4.82663 3.61009 4.4819 4.15016 3.98274 4.51786C3.48357 4.88557 2.86559 5.05468 2.24875 4.99237C1.63192 4.93007 1.06023 4.64078 0.644688 4.18068C0.229142 3.72058 -0.000621812 3.12249 1.26393e-06 2.50252ZM2.5 11.0025C2.10218 11.0025 1.72065 11.1606 1.43934 11.4419C1.15804 11.7232 1 12.1047 1 12.5025C1 12.9003 1.15804 13.2819 1.43934 13.5632C1.72065 13.8445 2.10218 14.0025 2.5 14.0025C2.89783 14.0025 3.27936 13.8445 3.56066 13.5632C3.84197 13.2819 4 12.9003 4 12.5025C4 12.1047 3.84197 11.7232 3.56066 11.4419C3.27936 11.1606 2.89783 11.0025 2.5 11.0025ZM1.26393e-06 12.5025C-0.000621812 11.8825 0.229142 11.2845 0.644688 10.8244C1.06023 10.3643 1.63192 10.075 2.24875 10.0127C2.86559 9.95036 3.48357 10.1195 3.98274 10.4872C4.4819 10.8549 4.82663 11.3949 4.95 12.0025H18.05C18.1739 11.3955 18.5188 10.8561 19.0178 10.4889C19.5168 10.1217 20.1344 9.95291 20.7508 10.0152C21.3672 10.0774 21.9385 10.3664 22.354 10.8259C22.7695 11.2855 22.9995 11.883 22.9995 12.5025C22.9995 13.1221 22.7695 13.7195 22.354 14.1791C21.9385 14.6387 21.3672 14.9276 20.7508 14.9899C20.1344 15.0521 19.5168 14.8833 19.0178 14.5161C18.5188 14.1489 18.1739 13.6095 18.05 13.0025H4.95C4.82663 13.6101 4.4819 14.1502 3.98274 14.5179C3.48357 14.8856 2.86559 15.0547 2.24875 14.9924C1.63192 14.9301 1.06023 14.6408 0.644688 14.1807C0.229142 13.7206 -0.000621812 13.1225 1.26393e-06 12.5025ZM20.5 11.0025C20.1022 11.0025 19.7206 11.1606 19.4393 11.4419C19.158 11.7232 19 12.1047 19 12.5025C19 12.9003 19.158 13.2819 19.4393 13.5632C19.7206 13.8445 20.1022 14.0025 20.5 14.0025C20.8978 14.0025 21.2794 13.8445 21.5607 13.5632C21.842 13.2819 22 12.9003 22 12.5025C22 12.1047 21.842 11.7232 21.5607 11.4419C21.2794 11.1606 20.8978 11.0025 20.5 11.0025ZM2.5 17.0025C2.10218 17.0025 1.72065 17.1606 1.43934 17.4419C1.15804 17.7232 1 18.1047 1 18.5025C1 18.9003 1.15804 19.2819 1.43934 19.5632C1.72065 19.8445 2.10218 20.0025 2.5 20.0025C2.89783 20.0025 3.27936 19.8445 3.56066 19.5632C3.84197 19.2819 4 18.9003 4 18.5025C4 18.1047 3.84197 17.7232 3.56066 17.4419C3.27936 17.1606 2.89783 17.0025 2.5 17.0025ZM1.26393e-06 18.5025C-0.000621812 17.8825 0.229142 17.2845 0.644688 16.8244C1.06023 16.3643 1.63192 16.075 2.24875 16.0127C2.86559 15.9504 3.48357 16.1195 3.98274 16.4872C4.4819 16.8549 4.82663 17.3949 4.95 18.0025H22V19.0025H4.95C4.82663 19.6101 4.4819 20.1502 3.98274 20.5179C3.48357 20.8856 2.86559 21.0547 2.24875 20.9924C1.63192 20.9301 1.06023 20.6408 0.644688 20.1807C0.229142 19.7206 -0.000621812 19.1225 1.26393e-06 18.5025Z" fill="var(--fill-0, #565D73)"/>
</svg>
