<svg width="34" height="34" viewBox="0 0 34 34" fill="none" xmlns="http://www.w3.org/2000/svg">
<path d="M10.2459 6.99997V7.84423C10.2459 9.24088 9.10981 10.377 7.71315 10.377H6.8689V11.9171C6.8689 18.0462 10.2117 23.6765 15.5947 26.6133L15.685 26.6628C16.0968 26.8878 16.549 27 17.0008 27C17.4518 27 17.9024 26.8878 18.3125 26.6636L18.4074 26.6125C23.7883 23.6765 27.1311 18.0462 27.1311 11.9171V10.377H26.2868C24.8902 10.377 23.754 9.24088 23.754 7.84423V6.99997H10.2459ZM25.4426 11.9806C25.4195 17.4666 22.4192 22.5 17.5998 25.1292L17.5054 25.1804C17.1892 25.3543 16.8116 25.3543 16.4921 25.1795L16.4014 25.1301C11.5816 22.5008 8.5805 17.4666 8.55741 11.9806C10.2088 11.6442 11.5131 10.3399 11.8495 8.68848H22.1505C22.4868 10.3399 23.7911 11.6442 25.4426 11.9806Z" fill="#070808"/>
<path d="M17.0001 14.5983C17.4655 14.5983 17.8443 14.9767 17.8443 15.4426H19.5328C19.5328 14.3433 18.8249 13.415 17.8443 13.0654V12.0655H16.1558V13.0654C15.1752 13.415 14.4673 14.3433 14.4673 15.4426C14.4673 16.8392 15.6034 17.9753 17.0001 17.9753C17.4655 17.9753 17.8443 18.3538 17.8443 18.8196C17.8443 19.2854 17.4655 19.6638 17.0001 19.6638C16.5346 19.6638 16.1558 19.2854 16.1558 18.8196H14.4673C14.4673 19.9188 15.1752 20.8472 16.1558 21.1967V22.1966H17.8443V21.1967C18.8249 20.8472 19.5328 19.9188 19.5328 18.8196C19.5328 17.4229 18.3967 16.2868 17.0001 16.2868C16.5346 16.2868 16.1558 15.9084 16.1558 15.4426C16.1558 14.9767 16.5346 14.5983 17.0001 14.5983Z" fill="#D1AA67"/>
</svg>
