<svg width="32" height="32" viewBox="0 0 32 32" fill="none" xmlns="http://www.w3.org/2000/svg">
<path fill-rule="evenodd" clip-rule="evenodd" d="M4.52632 2.5C2.57879 2.5 1 4.07878 1 6.0263C1 9.44235 3.64584 12.2404 7 12.483V25C7 27.3351 8.6518 29.5 11 29.5H21C23.3482 29.5 25 27.3351 25 25V16.5C25 15.9477 24.5523 15.5 24 15.5C23.4477 15.5 23 15.9477 23 16.5V22.5C20.2386 22.5 18 24.7386 18 27.5H14C14 24.7386 11.7614 22.5 9 22.5V8.5H23V12.5H25V12.483C28.3542 12.2404 31 9.44235 31 6.0263C31 4.07878 29.4212 2.5 27.4737 2.5H4.52632ZM25 10.4752C27.248 10.2386 29 8.33705 29 6.0263C29 5.18335 28.3166 4.5 27.4737 4.5H4.52632C3.68336 4.5 3 5.18335 3 6.0263C3 8.33705 4.75193 10.2386 7 10.4752V8.5H6C5.4477 8.5 5 8.0523 5 7.5C5 6.9477 5.4477 6.5 6 6.5H26C26.5523 6.5 27 6.9477 27 7.5C27 8.0523 26.5523 8.5 26 8.5H25V10.4752ZM9 25V24.5C10.6568 24.5 12 25.8432 12 27.5H11C10.0345 27.5 9 26.5309 9 25ZM23 24.5C21.3432 24.5 20 25.8432 20 27.5H21C21.9655 27.5 23 26.5309 23 25V24.5Z" fill="#303236"/>
<path fill-rule="evenodd" clip-rule="evenodd" d="M11.5 14.5C11.5 12.0147 13.5147 10 16 10C18.4853 10 20.5 12.0147 20.5 14.5C20.5 16.9853 18.4853 19 16 19C13.5147 19 11.5 16.9853 11.5 14.5ZM16 12C14.6193 12 13.5 13.1193 13.5 14.5C13.5 15.8807 14.6193 17 16 17C17.3807 17 18.5 15.8807 18.5 14.5C18.5 13.1193 17.3807 12 16 12Z" fill="#D1AA67"/>
</svg>
