<svg width="32" height="32" viewBox="0 0 32 32" fill="none" xmlns="http://www.w3.org/2000/svg">
<path d="M6.6674 15.6673C8.6874 15.6673 10.3341 14.0207 10.3341 12.0007C10.3341 9.98065 8.6874 8.33398 6.6674 8.33398C4.6474 8.33398 3.00073 9.98065 3.00073 12.0007C3.00073 14.0207 4.6474 15.6673 6.6674 15.6673ZM6.6674 10.334C7.5874 10.334 8.33407 11.0807 8.33407 12.0007C8.33407 12.9207 7.5874 13.6673 6.6674 13.6673C5.7474 13.6673 5.00073 12.9207 5.00073 12.0007C5.00073 11.0807 5.7474 10.334 6.6674 10.334Z" fill="#303236"/>
<path d="M2.66748 23.6673H10.6675C11.2208 23.6673 11.6675 23.2207 11.6675 22.6673V20.0007C11.6675 17.9807 10.0208 16.334 8.00081 16.334H5.33415C3.31415 16.334 1.66748 17.9807 1.66748 20.0007V22.6673C1.66748 23.2207 2.11415 23.6673 2.66748 23.6673ZM3.66748 20.0007C3.66748 19.0807 4.41415 18.334 5.33415 18.334H8.00081C8.92081 18.334 9.66748 19.0807 9.66748 20.0007V21.6673H3.66748V20.0007Z" fill="#303236"/>
<path d="M25.3341 15.6673C27.3541 15.6673 29.0008 14.0207 29.0008 12.0007C29.0008 9.98065 27.3541 8.33398 25.3341 8.33398C23.3141 8.33398 21.6675 9.98065 21.6675 12.0007C21.6675 14.0207 23.3141 15.6673 25.3341 15.6673ZM25.3341 10.334C26.2541 10.334 27.0008 11.0807 27.0008 12.0007C27.0008 12.9207 26.2541 13.6673 25.3341 13.6673C24.4141 13.6673 23.6675 12.9207 23.6675 12.0007C23.6675 11.0807 24.4141 10.334 25.3341 10.334Z" fill="#303236"/>
<path d="M21.334 23.6673H29.334C29.8873 23.6673 30.334 23.2207 30.334 22.6673V20.0007C30.334 17.9807 28.6873 16.334 26.6673 16.334H24.0007C21.9807 16.334 20.334 17.9807 20.334 20.0007V22.6673C20.334 23.2207 20.7807 23.6673 21.334 23.6673ZM22.334 20.0007C22.334 19.0807 23.0807 18.334 24.0007 18.334H26.6673C27.5873 18.334 28.334 19.0807 28.334 20.0007V21.6673H22.334V20.0007Z" fill="#303236"/>
<path d="M13.334 15.0006H18.6673C19.014 15.0006 19.334 14.8206 19.5207 14.5273C19.7073 14.2339 19.7207 13.8673 19.5673 13.5539L18.234 10.8873C17.9873 10.3939 17.3873 10.1939 16.894 10.4406C16.4007 10.6873 16.2007 11.2873 16.4473 11.7806L17.054 13.0006H13.334C12.7807 13.0006 12.334 13.4473 12.334 14.0006C12.334 14.5539 12.7807 15.0006 13.334 15.0006Z" fill="#D1AA67"/>
<path d="M19.6674 16.667C19.6674 16.1137 19.2207 15.667 18.6674 15.667H13.334C12.9874 15.667 12.6674 15.847 12.4807 16.1403C12.294 16.4337 12.2807 16.8003 12.434 17.1137L13.7674 19.7803C13.9407 20.1337 14.294 20.3337 14.6607 20.3337C14.814 20.3337 14.9607 20.3003 15.1074 20.227C15.6007 19.9803 15.8007 19.3803 15.554 18.887L14.9474 17.667H18.6674C19.2207 17.667 19.6674 17.2203 19.6674 16.667Z" fill="#303236"/>
</svg>
