<svg width="32" height="32" viewBox="0 0 32 32" fill="none" xmlns="http://www.w3.org/2000/svg">
<path d="M7.60185 1C5.3888 1 3.58501 2.78547 3.58501 5V7.0001C3.58501 7.55235 4.03269 8 4.58492 8C5.13715 8 5.58485 7.5523 5.58485 7.0001V5C5.58485 3.90082 6.4825 3 7.60185 3H24.6979C25.8173 3 26.715 3.90082 26.715 5V17C26.715 18.0992 25.8173 19 24.6979 19H7.60185C6.4825 19 5.58485 18.0992 5.58485 17V11.9999C5.58485 11.4476 5.13715 11 4.58492 11C4.03269 11 3.58501 11.4476 3.58501 11.9999V17C3.58501 18.089 4.02119 19.0742 4.72771 19.7944C4.14793 20.2251 3.68292 20.813 3.4015 21.5126L1.79246 25.5126C0.732191 28.1484 2.68735 31 5.5213 31H17.5C18.0523 31 18.5 30.5523 18.5 30C18.5 29.4477 18.0523 29 17.5 29H5.5213C4.08644 29 3.12266 27.5645 3.64777 26.2591L5.2568 22.2591C5.56165 21.5013 6.30215 21 7.1303 21H25.0716C25.9323 21 26.6943 21.5407 26.976 22.341L28.3839 26.341C28.8387 27.6332 27.8765 29 26.4795 29H22.5C21.9477 29 21.5 29.4477 21.5 30C21.5 30.5523 21.9477 31 22.5 31H26.4795C29.2389 31 31.1885 28.2858 30.2702 25.6769L28.8623 21.6769C28.5993 20.9296 28.1292 20.2982 27.53 19.8367C28.2613 19.113 28.7148 18.1104 28.7148 17V5C28.7148 2.78547 26.911 1 24.6979 1H7.60185Z" fill="#303236"/>
<path d="M10.6198 25.5C10.0676 25.5 9.61987 25.9477 9.61987 26.5C9.61987 27.0523 10.0676 27.5 10.6198 27.5H21.6819C22.2342 27.5 22.6818 27.0523 22.6818 26.5C22.6818 25.9477 22.2342 25.5 21.6819 25.5H10.6198Z" fill="#D1AA67"/>
<path d="M16 5.5C16.5523 5.5 17 5.9477 17 6.5V6.61765H18.5C19.0523 6.61765 19.5 7.06535 19.5 7.61765C19.5 8.16995 19.0523 8.61765 18.5 8.61765H15.3055C14.8662 8.61765 14.5 8.9775 14.5 9.4338C14.5 9.8901 14.8662 10.25 15.3055 10.25H16.6945C18.2495 10.25 19.5 11.5164 19.5 13.0662C19.5 14.5131 18.4101 15.7129 17 15.8659V16C17 16.5523 16.5523 17 16 17C15.4477 17 15 16.5523 15 16V15.8823H13.5C12.9477 15.8823 12.5 15.4346 12.5 14.8823C12.5 14.33 12.9477 13.8823 13.5 13.8823H16.6945C17.1338 13.8823 17.5 13.5225 17.5 13.0662C17.5 12.6099 17.1338 12.25 16.6945 12.25H15.3055C13.7505 12.25 12.5 10.9836 12.5 9.4338C12.5 7.98695 13.5899 6.78715 15 6.6341V6.5C15 5.9477 15.4477 5.5 16 5.5Z" fill="#D1AA67"/>
</svg>
