<svg width="32" height="32" viewBox="0 0 32 32" fill="none" xmlns="http://www.w3.org/2000/svg">
<path fill-rule="evenodd" clip-rule="evenodd" d="M7 2C7 1.44771 6.5523 1 6 1C5.4477 1 5 1.44771 5 2V7H4C2.34315 7 1 8.34315 1 10V20C1 21.6568 2.34315 23 4 23H5V25C5 25.5523 5.4477 26 6 26C6.5523 26 7 25.5523 7 25V23H8C9.65685 23 11 21.6568 11 20V10C11 8.34315 9.65685 7 8 7H7V2ZM3 10C3 9.4477 3.44771 9 4 9H8C8.5523 9 9 9.4477 9 10V20C9 20.5523 8.5523 21 8 21H4C3.44771 21 3 20.5523 3 20V10Z" fill="#303236"/>
<path d="M27.5 1C28.0523 1 28.5 1.44771 28.5 2V2.11765H30C30.5523 2.11765 31 2.56536 31 3.11765C31 3.66993 30.5523 4.11764 30 4.11764H26.8055C26.3662 4.11764 26 4.47753 26 4.93383C26 5.3901 26.3662 5.75 26.8055 5.75H28.1945C29.7495 5.75 31 7.0164 31 8.5662C31 10.0131 29.9101 11.2129 28.5 11.3659V11.5C28.5 12.0523 28.0523 12.5 27.5 12.5C26.9477 12.5 26.5 12.0523 26.5 11.5V11.3823H25C24.4477 11.3823 24 10.9346 24 10.3823C24 9.83005 24.4477 9.38235 25 9.38235H28.1945C28.6338 9.38235 29 9.0225 29 8.5662C29 8.1099 28.6338 7.75 28.1945 7.75H26.8055C25.2505 7.75 24 6.4836 24 4.93383C24 3.48697 25.0899 2.28713 26.5 2.13412V2C26.5 1.44771 26.9477 1 27.5 1Z" fill="#D1AA67"/>
<path d="M18 6C18.5523 6 19 6.4477 19 7V12.5C19 13.0523 18.5523 13.5 18 13.5C17.4477 13.5 17 13.0523 17 12.5V7C17 6.4477 17.4477 6 18 6Z" fill="#303236"/>
<path fill-rule="evenodd" clip-rule="evenodd" d="M16 16.5C14.3432 16.5 13 17.8432 13 19.5V24.5C13 26.1568 14.3432 27.5 16 27.5H17V30C17 30.5523 17.4477 31 18 31C18.5523 31 19 30.5523 19 30V27.5H20C21.6568 27.5 23 26.1568 23 24.5V19.5C23 17.8432 21.6568 16.5 20 16.5H16ZM16 18.5C15.4477 18.5 15 18.9477 15 19.5V24.5C15 25.0523 15.4477 25.5 16 25.5H20C20.5523 25.5 21 25.0523 21 24.5V19.5C21 18.9477 20.5523 18.5 20 18.5H16Z" fill="#303236"/>
</svg>
