<svg width="98" height="113" viewBox="0 0 98 113" fill="none" xmlns="http://www.w3.org/2000/svg">
<path d="M92.6606 37.8564H5.33118V112.584H92.6606V37.8564Z" fill="white"/>
<path d="M92.9145 112.839H5.07739V37.6016H92.9145V112.839ZM5.58512 112.329H92.4068V38.1116H5.58512V112.329Z" fill="#2C3131"/>
<path d="M59.9118 52.3936H38.0795V112.584H59.9118V52.3936Z" fill="#D1AA67"/>
<path d="M59.9118 52.3936H38.0795V112.584H59.9118V52.3936Z" fill="#D1AA67"/>
<path d="M97.7379 30.9702H0.253906V52.3938H97.7379V30.9702Z" fill="white"/>
<path d="M97.9917 52.6495H0V30.7158H97.9917V52.6495ZM0.507729 52.1394H97.484V31.2259H0.507729V52.1394Z" fill="#2C3131"/>
<path d="M59.9118 28.9297H38.0795V52.1386H59.9118V28.9297Z" fill="#D1AA67"/>
<path d="M46.6585 8.69387C52.4216 17.2765 46.9917 31.0803 46.9917 31.0803C46.9917 31.0803 32.218 30.9691 26.4549 22.3865C20.6918 13.8039 26.1217 0 26.1217 0C26.1217 0 40.8954 0.111278 46.6585 8.69387Z" fill="#D1AA67"/>
<path d="M49.3024 8.69387C43.5393 17.2765 48.9693 31.0803 48.9693 31.0803C48.9693 31.0803 63.743 30.9691 69.5061 22.3865C75.2691 13.8039 69.8392 0 69.8392 0C69.8392 0 55.0655 0.111278 49.3024 8.69387Z" fill="#D1AA67"/>
<ellipse cx="17.6279" cy="17.7447" rx="17.6279" ry="17.7447" transform="matrix(1.00041 0 -0.0011555 0.999591 31.6362 59.0479)" fill="url(#paint0_linear_1_8881)"/>
<path d="M47.6035 86.1213C44.8561 85.8761 42.1224 83.8482 42.1236 82.7867C42.1248 81.7487 42.9632 81.2573 43.7871 80.629C44.611 80.0007 48.3675 83.8151 50.6157 83.0479C52.8639 82.2806 51.513 80.245 49.4919 78.921C47.1107 77.361 45.3924 76.2004 43.7947 73.7146C42.933 72.4887 41.557 69.0433 44.4118 67.5133C45.3046 67.0348 45.6438 66.732 48.2735 66.8129L48.3309 65.0002C48.9395 64.301 51.4767 64.334 52.1794 65.1186L52.122 66.9313C53.7357 67.3238 57.5803 68.4189 57.9577 69.5954C58.4079 70.0802 58.745 71.4886 57.9545 72.4548C56.6431 74.0579 47.6292 68.6955 48.3396 72.4548C48.9218 75.5357 59.6181 78.7165 56.5839 83.4242C55.943 85.0099 53.2177 86.3707 51.5113 86.2415L51.4553 88.0104C50.6041 89.0188 48.1261 88.8673 47.6013 88.0654L47.6035 86.1213Z" fill="white"/>
<defs>
<linearGradient id="paint0_linear_1_8881" x1="17.6279" y1="-1.90762" x2="17.6279" y2="38.4631" gradientUnits="userSpaceOnUse">
<stop stop-color="#FBC039"/>
<stop offset="0.87" stop-color="#E08F0E"/>
</linearGradient>
</defs>
</svg>
