<svg width="143" height="90" viewBox="0 0 143 90" fill="none" xmlns="http://www.w3.org/2000/svg">
<path d="M60.1803 12.4636C61.3451 12.4627 62.494 12.7338 63.535 13.2553C64.5759 13.7768 65.4799 14.5341 66.1746 15.4667L70.4796 9.85295L57.5626 0L47.6833 12.8826L53.2505 17.1291C53.8077 15.7511 54.7651 14.5706 55.9999 13.7393C57.2347 12.9079 58.6904 12.4637 60.1803 12.4636Z" fill="#D1AA67"/>
<path d="M120.729 60.3799H141.911C142.797 63.7367 142.898 67.2513 142.208 70.6534C141.518 74.0555 140.055 77.2544 137.931 80.0039C135.806 82.7534 133.078 84.9803 129.956 86.5132C126.833 88.0462 123.4 88.8443 119.919 88.8462C119.298 88.8462 118.683 88.8213 118.075 88.7715V76.3169C118.076 75.7197 117.929 75.1316 117.648 74.6044C117.366 74.0773 116.959 73.6272 116.463 73.294C115.966 72.9608 115.394 72.7547 114.799 72.6939C114.203 72.633 113.601 72.7193 113.047 72.9452V68.0441C113.047 67.0378 113.245 66.0412 113.631 65.1114C114.017 64.1815 114.583 63.3366 115.296 62.6249C116.01 61.9132 116.857 61.3486 117.789 60.9634C118.721 60.5782 119.72 60.3799 120.729 60.3799Z" fill="#D1AA67"/>
<path d="M13.0113 67.6066L5.63876 61.9829L1.28257e-06 69.3358L7.37259 74.9595L13.0113 67.6066Z" fill="#D1AA67"/>
<path d="M107.985 17.6342L114.601 67.1058L17.5404 82.2498L10.9237 32.7782L107.985 17.6342Z" fill="#F1F1F1" stroke="#111111" stroke-width="0.563637"/>
<path d="M106.008 22.0371L13.9728 36.397L19.5557 78.1392L111.591 63.7793L106.008 22.0371Z" fill="white"/>
<path d="M107.557 14.7499L108.081 18.6701L11.0198 33.8141L10.4955 29.8939L107.557 14.7499Z" fill="#E5E5E5" stroke="#111111" stroke-width="0.563637"/>
<path d="M13.6137 32.6493C14.0427 32.6493 14.3904 32.2738 14.3904 31.8105C14.3904 31.3472 14.0427 30.9717 13.6137 30.9717C13.1847 30.9717 12.837 31.3472 12.837 31.8105C12.837 32.2738 13.1847 32.6493 13.6137 32.6493Z" fill="#D1AA67"/>
<path d="M16.5312 32.1952C16.9602 32.1952 17.3079 31.8197 17.3079 31.3564C17.3079 30.8931 16.9602 30.5176 16.5312 30.5176C16.1022 30.5176 15.7545 30.8931 15.7545 31.3564C15.7545 31.8197 16.1022 32.1952 16.5312 32.1952Z" fill="#D1AA67"/>
<path d="M19.4488 31.7397C19.8778 31.7397 20.2256 31.3641 20.2256 30.9008C20.2256 30.4376 19.8778 30.062 19.4488 30.062C19.0199 30.062 18.6721 30.4376 18.6721 30.9008C18.6721 31.3641 19.0199 31.7397 19.4488 31.7397Z" fill="#D1AA67"/>
<path d="M130.368 39.1206V89.1069H32.3011V39.1206H130.368Z" fill="#E6E6E6" stroke="#111111" stroke-width="0.563637"/>
<path d="M130.306 36.2207V40.1416H32.2795V36.2207H130.306Z" fill="#E5E5E5" stroke="#111111" stroke-width="0.604864"/>
<path d="M35.0904 39.4179C35.5194 39.4179 35.8671 39.0423 35.8671 38.5791C35.8671 38.1158 35.5194 37.7402 35.0904 37.7402C34.6614 37.7402 34.3137 38.1158 34.3137 38.5791C34.3137 39.0423 34.6614 39.4179 35.0904 39.4179Z" fill="#D1AA67"/>
<path d="M38.0384 39.4179C38.4674 39.4179 38.8151 39.0423 38.8151 38.5791C38.8151 38.1158 38.4674 37.7402 38.0384 37.7402C37.6094 37.7402 37.2617 38.1158 37.2617 38.5791C37.2617 39.0423 37.6094 39.4179 38.0384 39.4179Z" fill="#D1AA67"/>
<path d="M40.9861 39.4179C41.4151 39.4179 41.7629 39.0423 41.7629 38.5791C41.7629 38.1158 41.4151 37.7402 40.9861 37.7402C40.5572 37.7402 40.2094 38.1158 40.2094 38.5791C40.2094 39.0423 40.5572 39.4179 40.9861 39.4179Z" fill="#D1AA67"/>
<path d="M127.548 43.4556V85.0669H35.1213V43.4556H127.548Z" fill="white" stroke="#111111" stroke-width="0.563637"/>
<ellipse cx="107.803" cy="60.2706" rx="5.09016" ry="5.10655" fill="#D1AA67"/>
<path d="M115.86 73.3809C115.86 72.424 115.653 71.4765 115.25 70.5924C114.847 69.7083 114.256 68.9051 113.512 68.2284C112.768 67.5518 111.884 67.0151 110.911 66.6489C109.939 66.2827 108.896 66.0942 107.844 66.0942C106.791 66.0942 105.748 66.2827 104.776 66.6489C103.803 67.0151 102.92 67.5518 102.175 68.2284C101.431 68.9051 100.84 69.7083 100.437 70.5924C100.035 71.4765 99.8273 72.424 99.8273 73.3809L107.844 73.3809H115.86Z" fill="#D1AA67"/>
<path d="M60.0888 73.6714H46.9922V74.7346H60.0888V73.6714Z" fill="#E6E6E6"/>
<path d="M61.7222 76.4346H45.2402V77.4978H61.7222V76.4346Z" fill="#E6E6E6"/>
<path d="M59.644 57.5225H46.6808V67.5899H59.644V57.5225Z" fill="#D1AA67"/>
<path d="M60.9403 66.7995H48.4956C48.3581 66.7993 48.2263 66.7387 48.1291 66.6308C48.0319 66.523 47.9772 66.3767 47.9771 66.2242V56.732C47.9772 56.5795 48.0319 56.4333 48.1291 56.3254C48.2263 56.2176 48.3581 56.1569 48.4956 56.1567H60.9403C61.0777 56.1569 61.2095 56.2176 61.3067 56.3254C61.404 56.4333 61.4586 56.5795 61.4588 56.732V66.2242C61.4586 66.3767 61.404 66.523 61.3067 66.6308C61.2095 66.7387 61.0777 66.7993 60.9403 66.7995ZM48.4956 56.732V66.2242H60.9406L60.9402 56.732H48.4956Z" fill="#3F3D56"/>
<path d="M59.5144 56.3722H58.9959C58.9959 55.1134 58.5452 53.9062 57.7429 53.0162C56.9407 52.1261 55.8526 51.6261 54.718 51.6261C53.5835 51.6261 52.4954 52.1261 51.6931 53.0162C50.8909 53.9062 50.4402 55.1134 50.4402 56.3722H49.9216C49.9216 54.9608 50.427 53.6073 51.3265 52.6094C52.226 51.6114 53.4459 51.0508 54.718 51.0508C55.9901 51.0508 57.2101 51.6114 58.1096 52.6094C59.0091 53.6073 59.5144 54.9608 59.5144 56.3722Z" fill="#3F3D56"/>
<path d="M56.0145 60.3271C56.0147 60.0767 55.956 59.8305 55.8442 59.6129C55.7323 59.3954 55.5712 59.214 55.3768 59.0867C55.1823 58.9595 54.9613 58.8907 54.7356 58.8873C54.5098 58.8839 54.2872 58.946 54.0897 59.0674C53.8922 59.1887 53.7267 59.3652 53.6096 59.5793C53.4924 59.7934 53.4278 60.0377 53.4219 60.2881C53.416 60.5384 53.4692 60.7862 53.5761 61.0067C53.6831 61.2273 53.8401 61.413 54.0316 61.5456V63.0893C54.0316 63.1893 54.0494 63.2883 54.0839 63.3807C54.1184 63.4731 54.1689 63.557 54.2327 63.6277C54.2964 63.6984 54.3721 63.7545 54.4553 63.7927C54.5386 63.831 54.6279 63.8507 54.718 63.8507C54.9 63.8507 55.0746 63.7705 55.2033 63.6277C55.3321 63.4849 55.4044 63.2912 55.4044 63.0893V61.5456C55.591 61.4167 55.7449 61.2372 55.8517 61.024C55.9584 60.8108 56.0144 60.571 56.0145 60.3271Z" fill="url(#paint0_linear_1_8847)"/>
<defs>
<linearGradient id="paint0_linear_1_8847" x1="54.718" y1="58.6204" x2="54.718" y2="64.2666" gradientUnits="userSpaceOnUse">
<stop stop-color="#FBC039"/>
<stop offset="0.87" stop-color="#E08F0E"/>
</linearGradient>
</defs>
</svg>
