<svg width="40" height="32" viewBox="0 0 40 32" fill="none" xmlns="http://www.w3.org/2000/svg">
<path d="M21.0958 22.3479C20.1642 22.3479 19.2859 22.2032 18.4609 21.9137C17.636 21.6242 16.889 21.3099 16.22 20.9749C15.5961 21.7234 14.96 22.4554 14.2992 23.1791C13.6425 23.9028 12.9653 24.6141 12.2717 25.313C12.678 25.6025 13.0843 25.8796 13.4907 26.1442C13.897 26.4089 14.3279 26.6487 14.7835 26.8679C15.2391 27.083 15.7275 27.2608 16.2528 27.3931C16.7782 27.5255 17.3651 27.5916 18.0094 27.5916C18.8467 27.5916 19.6347 27.5089 20.3776 27.3394C21.1205 27.1698 21.8715 27.0375 22.639 26.9424L22.8894 27.5213C22.5077 28.1003 22.0398 28.6586 21.4898 29.2003C20.9399 29.7421 20.3283 30.2259 19.6593 30.6477C18.9904 31.0695 18.2721 31.4004 17.5087 31.6402C16.7412 31.8801 15.9409 32 15.1036 32C13.6918 32 12.403 31.7395 11.2292 31.2225C10.0554 30.7056 9.01703 30.106 8.10999 29.4319C7.8227 29.2375 7.50667 29.0184 7.15781 28.762C6.80895 28.5097 6.44777 28.274 6.06197 28.0589C5.68028 27.8439 5.27806 27.6619 4.85943 27.5172C4.4408 27.3724 4.01806 27.3021 3.58711 27.3021C3.15617 27.3021 2.71291 27.3973 2.26144 27.5916C2.09317 27.8811 1.96183 28.1747 1.86743 28.4766C1.77303 28.7785 1.72378 29.0597 1.72378 29.3244C1.72378 29.7338 1.86743 30.0936 2.15473 30.4079L0.89883 31.7436C0.611533 31.5286 0.389903 31.2267 0.233942 30.8421C0.0779806 30.4575 0 30.0605 0 29.6511C0 29.0473 0.143648 28.5014 0.430946 28.0052C0.718243 27.5131 1.063 27.0582 1.46932 26.6487C1.87564 26.2393 2.29427 25.8589 2.72522 25.5115C3.15617 25.1641 3.52555 24.8416 3.83747 24.5521C4.24379 24.1675 4.7363 23.8656 5.30679 23.6464C5.88139 23.4314 6.50113 23.3197 7.17422 23.3197C8.13051 23.3197 8.95957 23.4769 9.6655 23.7912C10.3714 24.1055 11.0445 24.4776 11.693 24.9119C12.3374 24.213 12.9776 23.5017 13.6138 22.778C14.2458 22.0543 14.8738 21.3223 15.4976 20.5738C14.8286 20.214 14.1638 19.8253 13.5071 19.4159C12.8504 19.0065 12.1855 18.6136 11.5165 18.2414C10.8475 17.8692 10.1539 17.526 9.43566 17.2117C8.71742 16.8974 7.96634 16.6327 7.17422 16.4177C6.83768 16.3432 6.50934 16.2812 6.18921 16.2192C5.86497 16.1613 5.54894 16.1282 5.23702 16.1282C4.56803 16.1282 3.98112 16.2316 3.4804 16.4342C2.97968 16.641 2.5118 16.885 2.08085 17.1745C1.91258 17.3895 1.75662 17.6128 1.61297 17.8444C1.46932 18.0719 1.33798 18.32 1.21896 18.5847L0.320131 19.2711C0.394008 18.9817 0.49251 18.7087 0.623845 18.4565C0.755181 18.2042 0.902934 17.9561 1.07121 17.7162C1.35851 17.3316 1.78945 16.8436 2.36405 16.2523C2.93864 15.6609 3.59532 15.0943 4.33819 14.5526C5.08106 14.0109 5.88549 13.5394 6.7597 13.1424C7.6339 12.7454 8.53683 12.5469 9.4685 12.5469C10.4002 12.5469 11.3236 12.6751 12.1568 12.9274C12.994 13.1796 13.7944 13.4939 14.5619 13.8661C15.3253 14.2383 16.0517 14.6477 16.733 15.0943C17.4143 15.541 18.0669 15.9669 18.6866 16.3763C19.762 14.8586 20.7798 13.2913 21.7361 11.6785C22.6924 10.0657 23.5543 8.35358 24.3177 6.54639C24.4121 5.51254 24.5927 4.48695 24.8553 3.47377L24.999 3.00233C25.5243 2.64254 26.0373 2.26622 26.5422 1.88162L27.5477 1.1207C28.0484 0.736108 28.5656 0.359783 29.0909 0L29.4849 0.686482C29.4849 1.21582 29.448 1.74515 29.3782 2.27862L28.8775 5.42156C28.7831 5.95089 28.7338 6.49263 28.7338 7.04678C28.7338 10.2766 29.0868 13.2872 29.7927 16.0827C30.4987 18.8783 31.4591 21.3843 32.6821 23.6009C32.9202 24.06 33.2034 24.5231 33.5235 24.9904C33.8477 25.4619 34.2171 25.8961 34.6357 26.2931C35.0544 26.6901 35.5387 27.0168 36.0886 27.2691C36.6386 27.5213 37.2584 27.6495 37.9561 27.6495C38.6538 27.6495 39.1874 27.4924 39.6429 27.1781L40 27.5751C39.9056 27.7901 39.6224 28.1458 39.1586 28.642C38.6907 29.1341 38.1531 29.6304 37.5457 30.1225C36.9341 30.6146 36.3021 31.0489 35.6454 31.4252C34.9887 31.7974 34.3936 31.9876 33.8683 31.9876C33.2239 31.9876 32.6 31.818 32.0049 31.4831C31.143 31.024 30.392 30.412 29.7435 29.6387C29.0991 28.8653 28.5286 28.0134 28.0402 27.0706C27.5477 26.1318 27.1209 25.1352 26.7474 24.0889C26.378 23.0427 26.0497 22.0005 25.7624 20.9625C25.1385 21.3967 24.4244 21.7359 23.6117 21.9757C22.7991 22.2156 21.9618 22.3355 21.0999 22.3355M16.5812 3.61437L19.487 6.687L19.844 7.4107L16.1133 11.207L15.3253 10.7728C15.276 10.7025 15.2185 10.6405 15.1447 10.5909L14.8204 10.2311C14.7712 10.1608 14.7137 10.0987 14.6399 10.0491L13.3142 8.53141C13.2649 8.45697 13.2075 8.39907 13.1336 8.34944L12.8094 7.98966C12.7601 7.91936 12.7026 7.85733 12.6288 7.8077L16.573 3.61437H16.5812ZM19.487 16.8808C20.0616 17.2406 20.6238 17.5963 21.1738 17.9478C21.7238 18.2993 22.3107 18.6425 22.9304 18.9775C23.2875 19.1719 23.6651 19.3373 24.0591 19.482C24.4531 19.6268 24.8553 19.6971 25.2616 19.6971H25.4422C25.0852 18.2497 24.7773 16.6658 24.527 14.9455C24.2766 13.221 24.1494 11.4924 24.1494 9.75963C22.7375 12.2657 21.182 14.6394 19.487 16.8808Z" fill="#D1AA67"/>
</svg>
