<svg width="43" height="43" viewBox="0 0 43 43" fill="none" xmlns="http://www.w3.org/2000/svg">
<circle cx="21.5" cy="21.5" r="21.5" transform="matrix(-1 0 0 1 43 0)" fill="#222017"/>
<g clip-path="url(#clip0_80_731)">
<path d="M22.8907 19.8546H24.1998C25.1453 19.8546 25.9453 19.0546 25.9453 18.1091" stroke="white" stroke-width="0.727273" stroke-miterlimit="10" stroke-linecap="round" stroke-linejoin="round"/>
<path d="M25.4363 12.6546C23.8363 12.5455 21.9818 13.3091 20.5999 15.7818C20.1636 16.5455 18.9636 18 18.2363 18.8364C17.909 19.2 17.9454 19.7455 18.309 20.0727L18.9272 20.6182C19.3272 21.0182 19.9454 21.0546 20.3454 20.6909L20.7818 20.3273C21.1818 20 21.6908 19.8182 22.1999 19.8182H22.8545V21.3091L20.9272 23.2364C21.2181 24.0727 21.4363 24.3637 21.6181 25.0182C21.7999 25.6727 21.5818 26.3273 21.1454 26.6182L20.4545 27.4546C21.0363 27.4546 20.6727 27.4546 21.2908 27.4182H29.0363L28.9999 15.7818C28.9999 14.2909 27.3999 12.8 25.4363 12.6546ZM23.8727 17.6364C23.1454 17.6364 22.5636 17.0546 22.5636 16.3273C22.5636 16.1455 22.5999 15.9637 22.6727 15.8182C22.8545 15.3455 23.3272 15.0182 23.909 15.0182C24.4545 15.0182 24.9272 15.3455 25.1454 15.8182C25.2181 15.9637 25.2545 16.1455 25.2545 16.3273C25.2181 17.0182 24.6363 17.6364 23.8727 17.6364Z" stroke="white" stroke-width="0.727273" stroke-miterlimit="10" stroke-linecap="round" stroke-linejoin="round"/>
<path d="M25.218 16.291C25.218 17.0183 24.6362 17.6001 23.9089 17.6001C23.1817 17.6001 22.5999 17.0183 22.5999 16.291C22.5999 16.1092 22.6362 15.9274 22.7089 15.7819C22.8908 15.3092 23.3635 14.9819 23.9453 14.9819C24.4908 14.9819 24.9635 15.3092 25.1817 15.7819C25.1817 15.9274 25.218 16.1092 25.218 16.291Z" stroke="white" stroke-width="0.727273" stroke-miterlimit="10" stroke-linecap="round" stroke-linejoin="round"/>
<path d="M31.0726 16.3635V26.1817C30.4545 26.3635 30.0545 26.4726 29.509 26.4726H29.0363L28.9999 15.7817C28.9999 14.2908 27.3999 12.7999 25.4363 12.6544C25.4363 11.4908 26.5999 10.6908 27.6545 11.1272C28.4181 11.4181 29.0726 11.8544 29.5817 12.3999C30.4181 13.2726 30.9272 14.4726 31.0363 15.8181C31.0726 15.9635 31.0726 16.1817 31.0726 16.3635Z" stroke="white" stroke-width="0.727273" stroke-miterlimit="10" stroke-linecap="round" stroke-linejoin="round"/>
<path d="M32.4181 32.9819H16.6726C16.6726 32.6546 16.7453 32.3273 16.8908 32.0364C17.0726 31.6364 17.3999 31.2728 17.8362 30.9455C18.1999 30.6909 18.5999 30.4728 19.0726 30.3273C19.5453 30.1819 20.0908 30.1091 20.6362 30.1091H28.4544C28.9635 30.1091 29.4726 30.1819 29.909 30.3273C30.9635 30.6182 31.7999 31.2728 32.1635 32.0364C32.3453 32.3273 32.4181 32.6546 32.4181 32.9819Z" stroke="white" stroke-width="0.727273" stroke-miterlimit="10" stroke-linecap="round" stroke-linejoin="round"/>
<path d="M30.1998 30.1091H18.8907C18.8907 29.8546 18.9635 29.6364 19.0362 29.4182C19.1817 29.1273 19.5453 28.2546 19.8362 28.0364C20.0907 27.8546 20.3817 27.7091 20.7089 27.6C21.0362 27.4909 21.4362 27.4182 21.8362 27.4182H27.4726C27.8362 27.4182 28.1998 27.4546 28.5271 27.5637C29.2907 27.7818 29.7635 28.8364 30.018 29.4182C30.1635 29.6364 30.1998 29.8909 30.1998 30.1091Z" stroke="white" stroke-width="0.727273" stroke-miterlimit="10" stroke-linecap="round" stroke-linejoin="round"/>
<path d="M14.1273 26.1818C13.5091 26.1818 13.0364 25.7091 13.0364 25.0909C13.0364 24.4727 13.5091 24 14.1273 24C14.7455 24 15.2182 24.4727 15.2182 25.0909" stroke="white" stroke-width="0.727273" stroke-miterlimit="10" stroke-linecap="round" stroke-linejoin="round"/>
<path d="M14.1273 26.1819C14.7455 26.1819 15.2182 26.6546 15.2182 27.2728C15.2182 27.891 14.7455 28.3637 14.1273 28.3637C13.5091 28.3637 13.0364 27.891 13.0364 27.2728" stroke="white" stroke-width="0.727273" stroke-miterlimit="10" stroke-linecap="round" stroke-linejoin="round"/>
<path d="M14.1273 24.0001V23.5637" stroke="white" stroke-width="0.727273" stroke-miterlimit="10" stroke-linecap="round" stroke-linejoin="round"/>
<path d="M14.1273 28.3635V28.7999" stroke="white" stroke-width="0.727273" stroke-miterlimit="10" stroke-linecap="round" stroke-linejoin="round"/>
<path d="M14.1273 30.4727C16.4971 30.4727 18.4182 28.5516 18.4182 26.1818C18.4182 23.812 16.4971 21.8909 14.1273 21.8909C11.7575 21.8909 9.83643 23.812 9.83643 26.1818C9.83643 28.5516 11.7575 30.4727 14.1273 30.4727Z" stroke="white" stroke-width="0.727273" stroke-miterlimit="10" stroke-linecap="round" stroke-linejoin="round"/>
</g>
<defs>
<clipPath id="clip0_80_731">
<rect width="24" height="24" fill="white" transform="translate(9 10)"/>
</clipPath>
</defs>
</svg>
