<svg width="42" height="42" viewBox="0 0 42 42" fill="none" xmlns="http://www.w3.org/2000/svg">
<path d="M27.4495 11.9626C28.5585 12.0127 31.6645 12.4135 33.6563 15.3294C33.506 15.4262 30.1668 17.3644 29.9993 21.3963L29.9923 21.7937C30.039 26.9295 34.4993 28.6362 34.5494 28.6673C34.5131 28.7813 33.836 31.0979 32.2001 33.487C30.787 35.5547 29.3221 37.6122 27.009 37.6588C24.7304 37.6985 24.0032 36.3097 21.4033 36.3097C18.8035 36.3097 17.9916 37.6139 15.8443 37.6985C13.6107 37.7797 11.9091 35.4666 10.4839 33.404C7.56451 29.1942 5.33607 21.4965 8.33151 16.2986C9.81714 13.7194 12.4723 12.0887 15.352 12.0438C17.5459 12.0023 19.6119 13.5173 20.9525 13.5173C22.293 13.5173 24.8047 11.6966 27.4478 11.9626H27.4495ZM27.4858 3.75708C27.6879 5.62276 27.0004 7.49361 25.938 8.90151L25.7203 9.1779C24.5352 10.6117 22.5884 11.7311 20.6882 11.5808C20.4273 9.63396 21.3964 7.60244 22.4899 6.32929C23.713 4.89203 25.7808 3.82791 27.4858 3.75881V3.75708Z" fill="#070808"/>
</svg>
