<svg width="161" height="160" viewBox="0 0 161 160" fill="none" xmlns="http://www.w3.org/2000/svg">
<path d="M17.8524 107.899C17.8524 108.738 18.1466 109.577 18.7349 110.247C18.7769 110.331 18.861 110.373 18.903 110.415C19.1131 110.625 19.3232 110.793 19.6174 110.919L86.0976 149.248C88.9976 150.925 92.6111 150.925 95.5111 149.248L136.189 125.806L137.618 124.967C138.795 124.296 138.795 122.577 137.618 121.906L63.7835 79.3408L19.6174 104.796C18.4407 105.551 17.8524 106.725 17.8524 107.899Z" fill="black"/>
<path d="M17.8489 93.4307C17.8489 94.2693 18.1431 95.108 18.7314 95.7787C18.7735 95.8627 18.8575 95.9047 18.8995 95.9467C19.1096 96.1567 19.3198 96.324 19.6139 96.45L86.0942 134.779C88.9936 136.457 92.6077 136.457 95.5071 134.779L136.185 111.379L140.262 109.031L63.78 64.9561L19.6139 90.4113C18.4373 91.082 17.8489 92.2567 17.8489 93.4307Z" fill="#E1E1E1" stroke="black" stroke-width="0.672" stroke-miterlimit="10" stroke-linecap="round" stroke-linejoin="round"/>
<path d="M120.315 108.071L126.114 111.426C126.282 111.51 126.619 111.51 126.829 111.384L128.678 110.336C128.887 110.21 128.887 110.042 128.72 109.917L122.92 106.561C122.753 106.478 122.416 106.478 122.206 106.603L120.357 107.652C120.189 107.778 120.147 107.987 120.315 108.071Z" fill="#DCDCDC"/>
<path d="M115.189 105.094L117.121 106.226C117.29 106.31 117.626 106.31 117.836 106.184L119.685 105.136C119.895 105.01 119.895 104.842 119.727 104.717L117.794 103.584C117.626 103.5 117.29 103.5 117.079 103.626L115.231 104.675C115.02 104.842 114.978 105.01 115.189 105.094Z" fill="#DCDCDC"/>
<path d="M110.02 102.117L111.952 103.249C112.121 103.333 112.457 103.333 112.667 103.207L114.516 102.158C114.726 102.033 114.726 101.865 114.558 101.739L112.625 100.607C112.457 100.523 112.121 100.523 111.91 100.649L110.062 101.697C109.851 101.865 109.851 102.033 110.02 102.117Z" fill="#DCDCDC"/>
<path d="M104.85 99.1807L106.784 100.313C106.952 100.397 107.288 100.397 107.498 100.271L109.347 99.2227C109.558 99.0967 109.558 98.9293 109.389 98.8033L107.456 97.6713C107.288 97.5873 106.952 97.5873 106.742 97.7133L104.893 98.7613C104.683 98.8873 104.683 99.0553 104.85 99.1807Z" fill="#DCDCDC"/>
<path d="M99.6817 96.2032L101.615 97.3352C101.783 97.4192 102.119 97.4192 102.329 97.2939L104.178 96.2452C104.389 96.1192 104.389 95.9519 104.22 95.8259L102.287 94.6939C102.119 94.6099 101.783 94.6099 101.573 94.7352L99.7238 95.7839C99.5562 95.9099 99.5141 96.0772 99.6817 96.2032Z" fill="#DCDCDC"/>
<path d="M94.5551 93.2258L96.4884 94.3578C96.6561 94.4418 96.9921 94.4418 97.2026 94.3158L99.0517 93.2678C99.2615 93.1418 99.2615 92.9738 99.0938 92.8484L97.1605 91.7158C96.9921 91.6324 96.6561 91.6324 96.4463 91.7578L94.5972 92.8064C94.3868 92.9324 94.3447 93.1418 94.5551 93.2258Z" fill="#DCDCDC"/>
<path d="M89.3865 90.2487L91.3191 91.3807C91.4875 91.4647 91.8235 91.4647 92.0339 91.3387L93.8831 90.2907C94.0929 90.1647 94.0929 89.9967 93.9245 89.8714L91.9918 88.7387C91.8235 88.6547 91.4875 88.6547 91.2777 88.7807L89.4285 89.8294C89.2181 89.9547 89.2181 90.1647 89.3865 90.2487Z" fill="#DCDCDC"/>
<path d="M84.2176 87.2712L86.1503 88.4032C86.3187 88.4872 86.6547 88.4872 86.8651 88.3612L88.7136 87.3125C88.9241 87.1872 88.9241 87.0192 88.7557 86.8932L86.823 85.7612C86.6547 85.6772 86.3187 85.6772 86.1082 85.8032L84.2597 86.8512C84.0914 87.0192 84.0493 87.1872 84.2176 87.2712Z" fill="#DCDCDC"/>
<path d="M79.0904 84.2935L81.0237 85.4261C81.1921 85.5101 81.5281 85.5101 81.7378 85.3841L83.587 84.3355C83.7974 84.2101 83.7974 84.0421 83.6291 83.9161L81.6958 82.7841C81.5281 82.7001 81.1921 82.7001 80.9816 82.8261L79.1325 83.8741C78.9227 84.0421 78.8806 84.2101 79.0904 84.2935Z" fill="#DCDCDC"/>
<path d="M73.9217 81.3579L75.8551 82.4486C76.0227 82.5319 76.3594 82.5319 76.5692 82.4066L78.4184 81.3579C78.6281 81.2319 78.6281 81.0646 78.4604 80.9386L76.5271 79.8066C76.3594 79.7226 76.0227 79.7226 75.813 79.8486L73.9638 80.8966C73.754 81.0646 73.754 81.2319 73.9217 81.3579Z" fill="#DCDCDC"/>
<path d="M115.189 111.049L120.988 114.404C121.156 114.488 121.492 114.488 121.702 114.362L123.551 113.314C123.761 113.188 123.761 113.02 123.593 112.894L117.794 109.54C117.626 109.456 117.29 109.456 117.079 109.581L115.231 110.63C115.02 110.756 114.978 110.965 115.189 111.049Z" fill="#DCDCDC"/>
<path d="M54.5913 76.1579L60.3904 79.5126C60.5585 79.5966 60.8947 79.5966 61.1048 79.4706L62.9538 78.4226C63.1639 78.2966 63.1639 78.1286 62.9959 78.0032L57.1967 74.6479C57.0286 74.5646 56.6924 74.5646 56.4823 74.6899L54.6333 75.7386C54.4232 75.8646 54.3812 76.0319 54.5913 76.1579Z" fill="#DCDCDC"/>
<path d="M110.02 108.071L111.952 109.203C112.121 109.287 112.457 109.287 112.667 109.161L114.516 108.113C114.726 107.987 114.726 107.819 114.558 107.694L112.625 106.561C112.457 106.478 112.121 106.478 111.91 106.603L110.062 107.652C109.851 107.778 109.851 107.987 110.02 108.071Z" fill="#DCDCDC"/>
<path d="M104.85 105.094L106.784 106.226C106.952 106.31 107.288 106.31 107.498 106.184L109.347 105.136C109.558 105.01 109.558 104.842 109.389 104.717L107.456 103.584C107.288 103.5 106.952 103.5 106.742 103.626L104.893 104.675C104.683 104.842 104.683 105.01 104.85 105.094Z" fill="#DCDCDC"/>
<path d="M99.6817 102.117L101.615 103.249C101.783 103.333 102.119 103.333 102.329 103.207L104.178 102.158C104.389 102.033 104.389 101.865 104.22 101.739L102.287 100.607C102.119 100.523 101.783 100.523 101.573 100.649L99.7238 101.697C99.5562 101.865 99.5141 102.033 99.6817 102.117Z" fill="#DCDCDC"/>
<path d="M94.5551 99.1807L96.4884 100.313C96.6561 100.397 96.9921 100.397 97.2026 100.271L99.0517 99.2227C99.2615 99.0967 99.2615 98.9293 99.0938 98.8033L97.1605 97.6713C96.9921 97.5873 96.6561 97.5873 96.4463 97.7133L94.5972 98.7613C94.3868 98.8873 94.3447 99.0553 94.5551 99.1807Z" fill="#DCDCDC"/>
<path d="M89.3865 96.2032L91.3191 97.3352C91.4875 97.4192 91.8235 97.4192 92.0339 97.2939L93.8831 96.2452C94.0929 96.1192 94.0929 95.9519 93.9245 95.8259L91.9918 94.6939C91.8235 94.6099 91.4875 94.6099 91.2777 94.7352L89.4285 95.7839C89.2181 95.9099 89.2181 96.0772 89.3865 96.2032Z" fill="#DCDCDC"/>
<path d="M84.2176 93.2258L86.1503 94.3578C86.3187 94.4418 86.6547 94.4418 86.8651 94.3158L88.7136 93.2678C88.9241 93.1418 88.9241 92.9738 88.7557 92.8484L86.823 91.7158C86.6547 91.6324 86.3187 91.6324 86.1082 91.7578L84.2597 92.8064C84.0914 92.9324 84.0493 93.1418 84.2176 93.2258Z" fill="#DCDCDC"/>
<path d="M79.0904 90.2487L81.0237 91.3807C81.1921 91.4647 81.5281 91.4647 81.7378 91.3387L83.587 90.2907C83.7974 90.1647 83.7974 89.9967 83.6291 89.8714L81.6958 88.7387C81.5281 88.6547 81.1921 88.6547 80.9816 88.7807L79.1325 89.8294C78.9227 89.9547 78.8806 90.1647 79.0904 90.2487Z" fill="#DCDCDC"/>
<path d="M73.9217 87.2712L75.8551 88.4032C76.0227 88.4872 76.3594 88.4872 76.5692 88.3612L78.4184 87.3125C78.6281 87.1872 78.6281 87.0192 78.4604 86.8932L76.5271 85.7612C76.3594 85.6772 76.0227 85.6772 75.813 85.8032L73.9638 86.8512C73.754 87.0192 73.754 87.1872 73.9217 87.2712Z" fill="#DCDCDC"/>
<path d="M68.753 84.2935L70.6864 85.4261C70.854 85.5101 71.1901 85.5101 71.4005 85.3841L73.2497 84.3355C73.4594 84.2101 73.4594 84.0421 73.2918 83.9161L71.3584 82.7841C71.1901 82.7001 70.8541 82.7001 70.6443 82.8261L68.7951 83.8741C68.5847 84.0421 68.5847 84.2101 68.753 84.2935Z" fill="#DCDCDC"/>
<path d="M63.5842 81.358L65.5172 82.49C65.6853 82.574 66.0216 82.574 66.2317 82.4486L68.081 81.4C68.2907 81.274 68.2907 81.1066 68.1224 80.9806L66.1896 79.8486C66.0216 79.7646 65.6853 79.7646 65.4752 79.89L63.6262 80.9386C63.4581 81.0646 63.4161 81.232 63.5842 81.358Z" fill="#DCDCDC"/>
<path d="M110.02 114.026L115.818 117.381C115.987 117.465 116.323 117.465 116.533 117.339L118.382 116.291C118.592 116.165 118.592 115.997 118.424 115.871L112.625 112.517C112.457 112.433 112.121 112.433 111.91 112.559L110.062 113.607C109.851 113.733 109.851 113.901 110.02 114.026Z" fill="#DCDCDC"/>
<path d="M49.4225 79.0933L55.2217 82.4486C55.3898 82.5319 55.726 82.5319 55.9361 82.4066L57.7851 81.3579C57.9952 81.2319 57.9952 81.0646 57.8271 80.9386L52.028 77.5839C51.8599 77.4999 51.5237 77.4999 51.3136 77.6259L49.4645 78.6739C49.2544 78.8419 49.2544 79.0093 49.4225 79.0933Z" fill="#DCDCDC"/>
<path d="M104.85 111.049L106.784 112.181C106.952 112.265 107.288 112.265 107.498 112.14L109.347 111.091C109.558 110.965 109.558 110.798 109.389 110.672L107.456 109.54C107.288 109.456 106.952 109.456 106.742 109.581L104.893 110.63C104.683 110.756 104.683 110.965 104.85 111.049Z" fill="#DCDCDC"/>
<path d="M99.6817 108.071L101.615 109.203C101.783 109.287 102.119 109.287 102.329 109.161L104.178 108.113C104.389 107.987 104.389 107.819 104.22 107.694L102.287 106.561C102.119 106.478 101.783 106.478 101.573 106.603L99.7238 107.652C99.5562 107.778 99.5141 107.987 99.6817 108.071Z" fill="#DCDCDC"/>
<path d="M94.5551 105.094L96.4884 106.226C96.6561 106.31 96.9921 106.31 97.2026 106.184L99.0517 105.136C99.2615 105.01 99.2615 104.842 99.0938 104.717L97.1605 103.584C96.9921 103.5 96.6561 103.5 96.4463 103.626L94.5972 104.675C94.3868 104.842 94.3447 105.01 94.5551 105.094Z" fill="#DCDCDC"/>
<path d="M89.3865 102.117L91.3191 103.249C91.4875 103.333 91.8235 103.333 92.0339 103.207L93.8831 102.158C94.0929 102.033 94.0929 101.865 93.9245 101.739L91.9918 100.607C91.8235 100.523 91.4875 100.523 91.2777 100.649L89.4285 101.697C89.2181 101.865 89.2181 102.033 89.3865 102.117Z" fill="#DCDCDC"/>
<path d="M84.2176 99.1807L86.1503 100.313C86.3187 100.397 86.6547 100.397 86.8651 100.271L88.7136 99.2227C88.9241 99.0967 88.9241 98.9293 88.7557 98.8033L86.823 97.6713C86.6547 97.5873 86.3187 97.5873 86.1082 97.7133L84.2597 98.7613C84.0914 98.8873 84.0493 99.0553 84.2176 99.1807Z" fill="#DCDCDC"/>
<path d="M79.0904 96.2032L81.0237 97.3352C81.1921 97.4192 81.5281 97.4192 81.7378 97.2939L83.587 96.2452C83.7974 96.1192 83.7974 95.9519 83.6291 95.8259L81.6958 94.6939C81.5281 94.6099 81.1921 94.6099 80.9816 94.7352L79.1325 95.7839C78.9227 95.9099 78.8806 96.0772 79.0904 96.2032Z" fill="#DCDCDC"/>
<path d="M73.9217 93.2258L75.8551 94.3578C76.0227 94.4418 76.3594 94.4418 76.5692 94.3158L78.4184 93.2678C78.6281 93.1418 78.6281 92.9738 78.4604 92.8484L76.5271 91.7158C76.3594 91.6324 76.0227 91.6324 75.813 91.7578L73.9638 92.8064C73.754 92.9324 73.754 93.0998 73.9217 93.2258Z" fill="#DCDCDC"/>
<path d="M68.753 90.2487L70.6864 91.3807C70.854 91.4647 71.1901 91.4647 71.4005 91.3387L73.2497 90.2907C73.4594 90.1647 73.4594 89.9967 73.2918 89.8714L71.3584 88.7387C71.1901 88.6547 70.8541 88.6547 70.6443 88.7807L68.7951 89.8294C68.5847 89.9547 68.5847 90.1647 68.753 90.2487Z" fill="#DCDCDC"/>
<path d="M63.5842 87.2712L65.5172 88.4032C65.6853 88.4872 66.0216 88.4872 66.2317 88.3612L68.081 87.3125C68.2907 87.1872 68.2907 87.0192 68.1224 86.8932L66.1896 85.7612C66.0216 85.6772 65.6853 85.6772 65.4752 85.8032L63.6262 86.8512C63.4581 87.0192 63.4161 87.1872 63.5842 87.2712Z" fill="#DCDCDC"/>
<path d="M58.4575 84.2935L60.3905 85.4261C60.5586 85.5101 60.8948 85.5101 61.1049 85.3841L62.9539 84.3355C63.164 84.2101 63.164 84.0421 62.9959 83.9161L61.0629 82.7841C60.8948 82.7001 60.5586 82.7001 60.3484 82.8261L58.4995 83.8741C58.2894 84.0421 58.2474 84.2101 58.4575 84.2935Z" fill="#DCDCDC"/>
<path d="M99.6817 119.981L105.481 123.336C105.649 123.42 105.985 123.42 106.195 123.294L108.044 122.245C108.255 122.12 108.255 121.952 108.086 121.826L102.287 118.471C102.119 118.387 101.783 118.387 101.573 118.513L99.7238 119.562C99.5562 119.687 99.5141 119.855 99.6817 119.981Z" fill="#DCDCDC"/>
<path d="M39.0849 85.0485L44.884 88.4032C45.0521 88.4872 45.3884 88.4872 45.5985 88.3612L47.4475 87.3125C47.6576 87.1872 47.6576 87.0192 47.4895 86.8932L41.6903 83.5385C41.5222 83.4545 41.1861 83.4545 40.976 83.5805L39.1269 84.6292C38.9588 84.7545 38.9168 84.9645 39.0849 85.0485Z" fill="#DCDCDC"/>
<path d="M94.5551 117.003L96.4884 118.136C96.6561 118.22 96.9921 118.22 97.2026 118.094L99.0517 117.045C99.2615 116.92 99.2615 116.752 99.0938 116.626L97.1605 115.494C96.9921 115.41 96.6561 115.41 96.4463 115.536L94.5972 116.584C94.3868 116.71 94.3447 116.878 94.5551 117.003Z" fill="#DCDCDC"/>
<path d="M93.8831 114.026L91.9498 115.158C91.7814 115.242 91.4875 115.242 91.3191 115.158L53.2887 93.2258C53.1206 93.1418 53.1206 92.9738 53.2887 92.8485L55.2217 91.7158C55.3898 91.6325 55.6839 91.6325 55.852 91.7158L93.8831 113.648C94.0929 113.732 94.0929 113.9 93.8831 114.026Z" fill="#DCDCDC"/>
<path d="M48.1198 90.2487L50.0529 91.3807C50.221 91.4647 50.5571 91.4647 50.7673 91.3387L52.6163 90.2907C52.8264 90.1647 52.8264 89.9967 52.6583 89.8714L50.7253 88.7387C50.5571 88.6547 50.221 88.6547 50.0109 88.7807L48.1618 89.8294C47.9938 89.9547 47.9517 90.1647 48.1198 90.2487Z" fill="#DCDCDC"/>
<path d="M99.6817 114.026L110.65 120.359C110.818 120.443 111.154 120.443 111.365 120.317L113.213 119.268C113.424 119.142 113.424 118.975 113.255 118.849L102.287 112.517C102.119 112.433 101.783 112.433 101.573 112.559L99.7238 113.607C99.5562 113.733 99.5141 113.901 99.6817 114.026Z" fill="#DCDCDC"/>
<path d="M44.2537 82.0708L55.2217 88.4035C55.3898 88.4875 55.726 88.4875 55.9361 88.3615L57.7851 87.3128C57.9952 87.1875 57.9952 87.0195 57.8271 86.8935L46.8591 80.5615C46.6911 80.4775 46.3549 80.4775 46.1447 80.6035L44.2958 81.6515C44.0856 81.8195 44.0856 81.9875 44.2537 82.0708Z" fill="#DCDCDC"/>
<path d="M94.5551 111.049L96.4884 112.181C96.6561 112.265 96.9921 112.265 97.2026 112.14L99.0517 111.091C99.2615 110.965 99.2615 110.798 99.0938 110.672L97.1605 109.54C96.9921 109.456 96.6561 109.456 96.4463 109.581L94.5972 110.63C94.3868 110.756 94.3447 110.965 94.5551 111.049Z" fill="#DCDCDC"/>
<path d="M89.3865 108.071L91.3191 109.203C91.4875 109.287 91.8235 109.287 92.0339 109.161L93.8831 108.113C94.0929 107.987 94.0929 107.819 93.9245 107.694L91.9918 106.561C91.8235 106.478 91.4875 106.478 91.2777 106.603L89.4285 107.652C89.2181 107.778 89.2181 107.987 89.3865 108.071Z" fill="#DCDCDC"/>
<path d="M84.2176 105.094L86.1503 106.226C86.3187 106.31 86.6547 106.31 86.8651 106.184L88.7136 105.136C88.9241 105.01 88.9241 104.842 88.7557 104.717L86.823 103.584C86.6547 103.5 86.3187 103.5 86.1082 103.626L84.2597 104.675C84.0914 104.842 84.0493 105.01 84.2176 105.094Z" fill="#DCDCDC"/>
<path d="M79.0904 102.117L81.0237 103.249C81.1921 103.333 81.5281 103.333 81.7378 103.207L83.587 102.158C83.7974 102.033 83.7974 101.865 83.6291 101.739L81.6958 100.607C81.5281 100.523 81.1921 100.523 80.9816 100.649L79.1325 101.697C78.9227 101.865 78.8806 102.033 79.0904 102.117Z" fill="#DCDCDC"/>
<path d="M73.9217 99.1807L75.8551 100.313C76.0227 100.397 76.3594 100.397 76.5692 100.271L78.4184 99.2227C78.6281 99.0967 78.6281 98.9293 78.4604 98.8033L76.5271 97.6713C76.3594 97.5873 76.0227 97.5873 75.813 97.7133L73.9638 98.7613C73.754 98.8873 73.754 99.0553 73.9217 99.1807Z" fill="#DCDCDC"/>
<path d="M68.753 96.2032L70.6864 97.3352C70.854 97.4192 71.1901 97.4192 71.4005 97.2939L73.2497 96.2452C73.4594 96.1192 73.4594 95.9519 73.2918 95.8259L71.3584 94.6939C71.1901 94.6099 70.8541 94.6099 70.6443 94.7352L68.7951 95.7839C68.5847 95.9099 68.5847 96.0772 68.753 96.2032Z" fill="#DCDCDC"/>
<path d="M63.5842 93.2258L65.5172 94.3578C65.6853 94.4418 66.0216 94.4418 66.2317 94.3158L68.081 93.2678C68.2907 93.1418 68.2907 92.9738 68.1224 92.8484L66.1896 91.7158C66.0216 91.6324 65.6853 91.6324 65.4752 91.7578L63.6262 92.8064C63.4581 92.9324 63.4161 93.0998 63.5842 93.2258Z" fill="#DCDCDC"/>
<path d="M58.4575 90.2487L60.3905 91.3807C60.5586 91.4647 60.8948 91.4647 61.1049 91.3387L62.9539 90.2907C63.164 90.1647 63.164 89.9967 62.9959 89.8714L61.0629 88.7387C60.8948 88.6547 60.5586 88.6547 60.3484 88.7807L58.4995 89.8294C58.2894 89.9547 58.2474 90.1647 58.4575 90.2487Z" fill="#DCDCDC"/>
<path d="M120.315 108.071L126.114 111.426C126.282 111.51 126.619 111.51 126.829 111.384L128.678 110.336C128.887 110.21 128.887 110.042 128.72 109.917L122.92 106.561C122.753 106.478 122.416 106.478 122.206 106.603L120.357 107.652C120.189 107.778 120.147 107.987 120.315 108.071Z" stroke="black" stroke-width="0.672" stroke-miterlimit="10" stroke-linecap="round"/>
<path d="M115.189 105.094L117.121 106.226C117.29 106.31 117.626 106.31 117.836 106.184L119.685 105.136C119.895 105.01 119.895 104.842 119.727 104.717L117.794 103.584C117.626 103.5 117.29 103.5 117.079 103.626L115.231 104.675C115.02 104.842 114.978 105.01 115.189 105.094Z" stroke="black" stroke-width="0.672" stroke-miterlimit="10" stroke-linecap="round"/>
<path d="M110.02 102.117L111.952 103.249C112.121 103.333 112.457 103.333 112.667 103.207L114.516 102.158C114.726 102.033 114.726 101.865 114.558 101.739L112.625 100.607C112.457 100.523 112.121 100.523 111.91 100.649L110.062 101.697C109.851 101.865 109.851 102.033 110.02 102.117Z" stroke="black" stroke-width="0.672" stroke-miterlimit="10" stroke-linecap="round"/>
<path d="M104.85 99.1807L106.784 100.313C106.952 100.397 107.288 100.397 107.498 100.271L109.347 99.2227C109.558 99.0967 109.558 98.9293 109.389 98.8033L107.456 97.6713C107.288 97.5873 106.952 97.5873 106.742 97.7133L104.893 98.7613C104.683 98.8873 104.683 99.0553 104.85 99.1807Z" stroke="black" stroke-width="0.672" stroke-miterlimit="10" stroke-linecap="round"/>
<path d="M99.6817 96.2032L101.615 97.3352C101.783 97.4192 102.119 97.4192 102.329 97.2939L104.178 96.2452C104.389 96.1192 104.389 95.9519 104.22 95.8259L102.287 94.6939C102.119 94.6099 101.783 94.6099 101.573 94.7352L99.7238 95.7839C99.5562 95.9099 99.5141 96.0772 99.6817 96.2032Z" stroke="black" stroke-width="0.672" stroke-miterlimit="10" stroke-linecap="round"/>
<path d="M94.5551 93.2258L96.4884 94.3578C96.6561 94.4418 96.9921 94.4418 97.2026 94.3158L99.0517 93.2678C99.2615 93.1418 99.2615 92.9738 99.0938 92.8484L97.1605 91.7158C96.9921 91.6324 96.6561 91.6324 96.4463 91.7578L94.5972 92.8064C94.3868 92.9324 94.3447 93.1418 94.5551 93.2258Z" stroke="black" stroke-width="0.672" stroke-miterlimit="10" stroke-linecap="round"/>
<path d="M89.3865 90.2487L91.3191 91.3807C91.4875 91.4647 91.8235 91.4647 92.0339 91.3387L93.8831 90.2907C94.0929 90.1647 94.0929 89.9967 93.9245 89.8714L91.9918 88.7387C91.8235 88.6547 91.4875 88.6547 91.2777 88.7807L89.4285 89.8294C89.2181 89.9547 89.2181 90.1647 89.3865 90.2487Z" stroke="black" stroke-width="0.672" stroke-miterlimit="10" stroke-linecap="round"/>
<path d="M84.2176 87.2712L86.1503 88.4032C86.3187 88.4872 86.6547 88.4872 86.8651 88.3612L88.7136 87.3125C88.9241 87.1872 88.9241 87.0192 88.7557 86.8932L86.823 85.7612C86.6547 85.6772 86.3187 85.6772 86.1082 85.8032L84.2597 86.8512C84.0914 87.0192 84.0493 87.1872 84.2176 87.2712Z" stroke="black" stroke-width="0.672" stroke-miterlimit="10" stroke-linecap="round"/>
<path d="M79.0904 84.2935L81.0237 85.4261C81.1921 85.5101 81.5281 85.5101 81.7378 85.3841L83.587 84.3355C83.7974 84.2101 83.7974 84.0421 83.6291 83.9161L81.6958 82.7841C81.5281 82.7001 81.1921 82.7001 80.9816 82.8261L79.1325 83.8741C78.9227 84.0421 78.8806 84.2101 79.0904 84.2935Z" stroke="black" stroke-width="0.672" stroke-miterlimit="10" stroke-linecap="round"/>
<path d="M73.9217 81.3579L75.8551 82.4486C76.0227 82.5319 76.3594 82.5319 76.5692 82.4066L78.4184 81.3579C78.6281 81.2319 78.6281 81.0646 78.4604 80.9386L76.5271 79.8066C76.3594 79.7226 76.0227 79.7226 75.813 79.8486L73.9638 80.8966C73.754 81.0646 73.754 81.2319 73.9217 81.3579Z" stroke="black" stroke-width="0.672" stroke-miterlimit="10" stroke-linecap="round"/>
<path d="M115.189 111.049L120.988 114.404C121.156 114.488 121.492 114.488 121.702 114.362L123.551 113.314C123.761 113.188 123.761 113.02 123.593 112.894L117.794 109.54C117.626 109.456 117.29 109.456 117.079 109.581L115.231 110.63C115.02 110.756 114.978 110.965 115.189 111.049Z" stroke="black" stroke-width="0.672" stroke-miterlimit="10" stroke-linecap="round"/>
<path d="M54.5913 76.1579L60.3904 79.5126C60.5585 79.5966 60.8947 79.5966 61.1048 79.4706L62.9538 78.4226C63.1639 78.2966 63.1639 78.1286 62.9959 78.0032L57.1967 74.6479C57.0286 74.5646 56.6924 74.5646 56.4823 74.6899L54.6333 75.7386C54.4232 75.8646 54.3812 76.0319 54.5913 76.1579Z" stroke="black" stroke-width="0.672" stroke-miterlimit="10" stroke-linecap="round"/>
<path d="M110.02 108.071L111.952 109.203C112.121 109.287 112.457 109.287 112.667 109.161L114.516 108.113C114.726 107.987 114.726 107.819 114.558 107.694L112.625 106.561C112.457 106.478 112.121 106.478 111.91 106.603L110.062 107.652C109.851 107.778 109.851 107.987 110.02 108.071Z" stroke="black" stroke-width="0.672" stroke-miterlimit="10" stroke-linecap="round"/>
<path d="M104.85 105.094L106.784 106.226C106.952 106.31 107.288 106.31 107.498 106.184L109.347 105.136C109.558 105.01 109.558 104.842 109.389 104.717L107.456 103.584C107.288 103.5 106.952 103.5 106.742 103.626L104.893 104.675C104.683 104.842 104.683 105.01 104.85 105.094Z" stroke="black" stroke-width="0.672" stroke-miterlimit="10" stroke-linecap="round"/>
<path d="M99.6817 102.117L101.615 103.249C101.783 103.333 102.119 103.333 102.329 103.207L104.178 102.158C104.389 102.033 104.389 101.865 104.22 101.739L102.287 100.607C102.119 100.523 101.783 100.523 101.573 100.649L99.7238 101.697C99.5562 101.865 99.5141 102.033 99.6817 102.117Z" stroke="black" stroke-width="0.672" stroke-miterlimit="10" stroke-linecap="round"/>
<path d="M94.5551 99.1807L96.4884 100.313C96.6561 100.397 96.9921 100.397 97.2026 100.271L99.0517 99.2227C99.2615 99.0967 99.2615 98.9293 99.0938 98.8033L97.1605 97.6713C96.9921 97.5873 96.6561 97.5873 96.4463 97.7133L94.5972 98.7613C94.3868 98.8873 94.3447 99.0553 94.5551 99.1807Z" stroke="black" stroke-width="0.672" stroke-miterlimit="10" stroke-linecap="round"/>
<path d="M89.3865 96.2032L91.3191 97.3352C91.4875 97.4192 91.8235 97.4192 92.0339 97.2939L93.8831 96.2452C94.0929 96.1192 94.0929 95.9519 93.9245 95.8259L91.9918 94.6939C91.8235 94.6099 91.4875 94.6099 91.2777 94.7352L89.4285 95.7839C89.2181 95.9099 89.2181 96.0772 89.3865 96.2032Z" stroke="black" stroke-width="0.672" stroke-miterlimit="10" stroke-linecap="round"/>
<path d="M84.2176 93.2258L86.1503 94.3578C86.3187 94.4418 86.6547 94.4418 86.8651 94.3158L88.7136 93.2678C88.9241 93.1418 88.9241 92.9738 88.7557 92.8484L86.823 91.7158C86.6547 91.6324 86.3187 91.6324 86.1082 91.7578L84.2597 92.8064C84.0914 92.9324 84.0493 93.1418 84.2176 93.2258Z" stroke="black" stroke-width="0.672" stroke-miterlimit="10" stroke-linecap="round"/>
<path d="M79.0904 90.2487L81.0237 91.3807C81.1921 91.4647 81.5281 91.4647 81.7378 91.3387L83.587 90.2907C83.7974 90.1647 83.7974 89.9967 83.6291 89.8714L81.6958 88.7387C81.5281 88.6547 81.1921 88.6547 80.9816 88.7807L79.1325 89.8294C78.9227 89.9547 78.8806 90.1647 79.0904 90.2487Z" stroke="black" stroke-width="0.672" stroke-miterlimit="10" stroke-linecap="round"/>
<path d="M73.9217 87.2712L75.8551 88.4032C76.0227 88.4872 76.3594 88.4872 76.5692 88.3612L78.4184 87.3125C78.6281 87.1872 78.6281 87.0192 78.4604 86.8932L76.5271 85.7612C76.3594 85.6772 76.0227 85.6772 75.813 85.8032L73.9638 86.8512C73.754 87.0192 73.754 87.1872 73.9217 87.2712Z" stroke="black" stroke-width="0.672" stroke-miterlimit="10" stroke-linecap="round"/>
<path d="M68.753 84.2935L70.6864 85.4261C70.854 85.5101 71.1901 85.5101 71.4005 85.3841L73.2497 84.3355C73.4594 84.2101 73.4594 84.0421 73.2918 83.9161L71.3584 82.7841C71.1901 82.7001 70.8541 82.7001 70.6443 82.8261L68.7951 83.8741C68.5847 84.0421 68.5847 84.2101 68.753 84.2935Z" stroke="black" stroke-width="0.672" stroke-miterlimit="10" stroke-linecap="round"/>
<path d="M63.5842 81.358L65.5172 82.49C65.6853 82.574 66.0216 82.574 66.2317 82.4486L68.081 81.4C68.2907 81.274 68.2907 81.1066 68.1224 80.9806L66.1896 79.8486C66.0216 79.7646 65.6853 79.7646 65.4752 79.89L63.6262 80.9386C63.4581 81.0646 63.4161 81.232 63.5842 81.358Z" stroke="black" stroke-width="0.672" stroke-miterlimit="10" stroke-linecap="round"/>
<path d="M110.02 114.026L115.818 117.381C115.987 117.465 116.323 117.465 116.533 117.339L118.382 116.291C118.592 116.165 118.592 115.997 118.424 115.871L112.625 112.517C112.457 112.433 112.121 112.433 111.91 112.559L110.062 113.607C109.851 113.733 109.851 113.901 110.02 114.026Z" stroke="black" stroke-width="0.672" stroke-miterlimit="10" stroke-linecap="round"/>
<path d="M49.4225 79.0933L55.2217 82.4486C55.3898 82.5319 55.726 82.5319 55.9361 82.4066L57.7851 81.3579C57.9952 81.2319 57.9952 81.0646 57.8271 80.9386L52.028 77.5839C51.8599 77.4999 51.5237 77.4999 51.3136 77.6259L49.4645 78.6739C49.2544 78.8419 49.2544 79.0093 49.4225 79.0933Z" stroke="black" stroke-width="0.672" stroke-miterlimit="10" stroke-linecap="round"/>
<path d="M104.85 111.049L106.784 112.181C106.952 112.265 107.288 112.265 107.498 112.14L109.347 111.091C109.558 110.965 109.558 110.798 109.389 110.672L107.456 109.54C107.288 109.456 106.952 109.456 106.742 109.581L104.893 110.63C104.683 110.756 104.683 110.965 104.85 111.049Z" stroke="black" stroke-width="0.672" stroke-miterlimit="10" stroke-linecap="round"/>
<path d="M99.6817 108.071L101.615 109.203C101.783 109.287 102.119 109.287 102.329 109.161L104.178 108.113C104.389 107.987 104.389 107.819 104.22 107.694L102.287 106.561C102.119 106.478 101.783 106.478 101.573 106.603L99.7238 107.652C99.5562 107.778 99.5141 107.987 99.6817 108.071Z" stroke="black" stroke-width="0.672" stroke-miterlimit="10" stroke-linecap="round"/>
<path d="M94.5551 105.094L96.4884 106.226C96.6561 106.31 96.9921 106.31 97.2026 106.184L99.0517 105.136C99.2615 105.01 99.2615 104.842 99.0938 104.717L97.1605 103.584C96.9921 103.5 96.6561 103.5 96.4463 103.626L94.5972 104.675C94.3868 104.842 94.3447 105.01 94.5551 105.094Z" stroke="black" stroke-width="0.672" stroke-miterlimit="10" stroke-linecap="round"/>
<path d="M89.3865 102.117L91.3191 103.249C91.4875 103.333 91.8235 103.333 92.0339 103.207L93.8831 102.158C94.0929 102.033 94.0929 101.865 93.9245 101.739L91.9918 100.607C91.8235 100.523 91.4875 100.523 91.2777 100.649L89.4285 101.697C89.2181 101.865 89.2181 102.033 89.3865 102.117Z" stroke="black" stroke-width="0.672" stroke-miterlimit="10" stroke-linecap="round"/>
<path d="M84.2176 99.1807L86.1503 100.313C86.3187 100.397 86.6547 100.397 86.8651 100.271L88.7136 99.2227C88.9241 99.0967 88.9241 98.9293 88.7557 98.8033L86.823 97.6713C86.6547 97.5873 86.3187 97.5873 86.1082 97.7133L84.2597 98.7613C84.0914 98.8873 84.0493 99.0553 84.2176 99.1807Z" stroke="black" stroke-width="0.672" stroke-miterlimit="10" stroke-linecap="round"/>
<path d="M79.0904 96.2032L81.0237 97.3352C81.1921 97.4192 81.5281 97.4192 81.7378 97.2939L83.587 96.2452C83.7974 96.1192 83.7974 95.9519 83.6291 95.8259L81.6958 94.6939C81.5281 94.6099 81.1921 94.6099 80.9816 94.7352L79.1325 95.7839C78.9227 95.9099 78.8806 96.0772 79.0904 96.2032Z" stroke="black" stroke-width="0.672" stroke-miterlimit="10" stroke-linecap="round"/>
<path d="M73.9217 93.2258L75.8551 94.3578C76.0227 94.4418 76.3594 94.4418 76.5692 94.3158L78.4184 93.2678C78.6281 93.1418 78.6281 92.9738 78.4604 92.8484L76.5271 91.7158C76.3594 91.6324 76.0227 91.6324 75.813 91.7578L73.9638 92.8064C73.754 92.9324 73.754 93.0998 73.9217 93.2258Z" stroke="black" stroke-width="0.672" stroke-miterlimit="10" stroke-linecap="round"/>
<path d="M68.753 90.2487L70.6864 91.3807C70.854 91.4647 71.1901 91.4647 71.4005 91.3387L73.2497 90.2907C73.4594 90.1647 73.4594 89.9967 73.2918 89.8714L71.3584 88.7387C71.1901 88.6547 70.8541 88.6547 70.6443 88.7807L68.7951 89.8294C68.5847 89.9547 68.5847 90.1647 68.753 90.2487Z" stroke="black" stroke-width="0.672" stroke-miterlimit="10" stroke-linecap="round"/>
<path d="M63.5842 87.2712L65.5172 88.4032C65.6853 88.4872 66.0216 88.4872 66.2317 88.3612L68.081 87.3125C68.2907 87.1872 68.2907 87.0192 68.1224 86.8932L66.1896 85.7612C66.0216 85.6772 65.6853 85.6772 65.4752 85.8032L63.6262 86.8512C63.4581 87.0192 63.4161 87.1872 63.5842 87.2712Z" stroke="black" stroke-width="0.672" stroke-miterlimit="10" stroke-linecap="round"/>
<path d="M58.4575 84.2935L60.3905 85.4261C60.5586 85.5101 60.8948 85.5101 61.1049 85.3841L62.9539 84.3355C63.164 84.2101 63.164 84.0421 62.9959 83.9161L61.0629 82.7841C60.8948 82.7001 60.5586 82.7001 60.3484 82.8261L58.4995 83.8741C58.2894 84.0421 58.2474 84.2101 58.4575 84.2935Z" stroke="black" stroke-width="0.672" stroke-miterlimit="10" stroke-linecap="round"/>
<path d="M99.6817 119.981L105.481 123.336C105.649 123.42 105.985 123.42 106.195 123.294L108.044 122.245C108.255 122.12 108.255 121.952 108.086 121.826L102.287 118.471C102.119 118.387 101.783 118.387 101.573 118.513L99.7238 119.562C99.5562 119.687 99.5141 119.855 99.6817 119.981Z" stroke="black" stroke-width="0.672" stroke-miterlimit="10" stroke-linecap="round"/>
<path d="M39.0849 85.0485L44.884 88.4032C45.0521 88.4872 45.3884 88.4872 45.5985 88.3612L47.4475 87.3125C47.6576 87.1872 47.6576 87.0192 47.4895 86.8932L41.6903 83.5385C41.5222 83.4545 41.1861 83.4545 40.976 83.5805L39.1269 84.6292C38.9588 84.7545 38.9168 84.9645 39.0849 85.0485Z" stroke="black" stroke-width="0.672" stroke-miterlimit="10" stroke-linecap="round"/>
<path d="M94.5551 117.003L96.4884 118.136C96.6561 118.22 96.9921 118.22 97.2026 118.094L99.0517 117.045C99.2615 116.92 99.2615 116.752 99.0938 116.626L97.1605 115.494C96.9921 115.41 96.6561 115.41 96.4463 115.536L94.5972 116.584C94.3868 116.71 94.3447 116.878 94.5551 117.003Z" stroke="black" stroke-width="0.672" stroke-miterlimit="10" stroke-linecap="round"/>
<path d="M93.8831 114.026L91.9498 115.158C91.7814 115.242 91.4875 115.242 91.3191 115.158L53.2887 93.2258C53.1206 93.1418 53.1206 92.9738 53.2887 92.8485L55.2217 91.7158C55.3898 91.6325 55.6839 91.6325 55.852 91.7158L93.8831 113.648C94.0929 113.732 94.0929 113.9 93.8831 114.026Z" stroke="black" stroke-width="0.672" stroke-miterlimit="10" stroke-linecap="round"/>
<path d="M48.1198 90.2487L50.0529 91.3807C50.221 91.4647 50.5571 91.4647 50.7673 91.3387L52.6163 90.2907C52.8264 90.1647 52.8264 89.9967 52.6583 89.8714L50.7253 88.7387C50.5571 88.6547 50.221 88.6547 50.0109 88.7807L48.1618 89.8294C47.9938 89.9547 47.9517 90.1647 48.1198 90.2487Z" stroke="black" stroke-width="0.672" stroke-miterlimit="10" stroke-linecap="round"/>
<path d="M99.6817 114.026L110.65 120.359C110.818 120.443 111.154 120.443 111.365 120.317L113.213 119.268C113.424 119.142 113.424 118.975 113.255 118.849L102.287 112.517C102.119 112.433 101.783 112.433 101.573 112.559L99.7238 113.607C99.5562 113.733 99.5141 113.901 99.6817 114.026Z" stroke="black" stroke-width="0.672" stroke-miterlimit="10" stroke-linecap="round"/>
<path d="M44.2537 82.0708L55.2217 88.4035C55.3898 88.4875 55.726 88.4875 55.9361 88.3615L57.7851 87.3128C57.9952 87.1875 57.9952 87.0195 57.8271 86.8935L46.8591 80.5615C46.6911 80.4775 46.3549 80.4775 46.1447 80.6035L44.2958 81.6515C44.0856 81.8195 44.0856 81.9875 44.2537 82.0708Z" stroke="black" stroke-width="0.672" stroke-miterlimit="10" stroke-linecap="round"/>
<path d="M94.5551 111.049L96.4884 112.181C96.6561 112.265 96.9921 112.265 97.2026 112.14L99.0517 111.091C99.2615 110.965 99.2615 110.798 99.0938 110.672L97.1605 109.54C96.9921 109.456 96.6561 109.456 96.4463 109.581L94.5972 110.63C94.3868 110.756 94.3447 110.965 94.5551 111.049Z" stroke="black" stroke-width="0.672" stroke-miterlimit="10" stroke-linecap="round"/>
<path d="M89.3865 108.071L91.3191 109.203C91.4875 109.287 91.8235 109.287 92.0339 109.161L93.8831 108.113C94.0929 107.987 94.0929 107.819 93.9245 107.694L91.9918 106.561C91.8235 106.478 91.4875 106.478 91.2777 106.603L89.4285 107.652C89.2181 107.778 89.2181 107.987 89.3865 108.071Z" stroke="black" stroke-width="0.672" stroke-miterlimit="10" stroke-linecap="round"/>
<path d="M84.2176 105.094L86.1503 106.226C86.3187 106.31 86.6547 106.31 86.8651 106.184L88.7136 105.136C88.9241 105.01 88.9241 104.842 88.7557 104.717L86.823 103.584C86.6547 103.5 86.3187 103.5 86.1082 103.626L84.2597 104.675C84.0914 104.842 84.0493 105.01 84.2176 105.094Z" stroke="black" stroke-width="0.672" stroke-miterlimit="10" stroke-linecap="round"/>
<path d="M79.0904 102.117L81.0237 103.249C81.1921 103.333 81.5281 103.333 81.7378 103.207L83.587 102.158C83.7974 102.033 83.7974 101.865 83.6291 101.739L81.6958 100.607C81.5281 100.523 81.1921 100.523 80.9816 100.649L79.1325 101.697C78.9227 101.865 78.8806 102.033 79.0904 102.117Z" stroke="black" stroke-width="0.672" stroke-miterlimit="10" stroke-linecap="round"/>
<path d="M73.9217 99.1807L75.8551 100.313C76.0227 100.397 76.3594 100.397 76.5692 100.271L78.4184 99.2227C78.6281 99.0967 78.6281 98.9293 78.4604 98.8033L76.5271 97.6713C76.3594 97.5873 76.0227 97.5873 75.813 97.7133L73.9638 98.7613C73.754 98.8873 73.754 99.0553 73.9217 99.1807Z" stroke="black" stroke-width="0.672" stroke-miterlimit="10" stroke-linecap="round"/>
<path d="M68.753 96.2032L70.6864 97.3352C70.854 97.4192 71.1901 97.4192 71.4005 97.2939L73.2497 96.2452C73.4594 96.1192 73.4594 95.9519 73.2918 95.8259L71.3584 94.6939C71.1901 94.6099 70.8541 94.6099 70.6443 94.7352L68.7951 95.7839C68.5847 95.9099 68.5847 96.0772 68.753 96.2032Z" stroke="black" stroke-width="0.672" stroke-miterlimit="10" stroke-linecap="round"/>
<path d="M63.5842 93.2258L65.5172 94.3578C65.6853 94.4418 66.0216 94.4418 66.2317 94.3158L68.081 93.2678C68.2907 93.1418 68.2907 92.9738 68.1224 92.8484L66.1896 91.7158C66.0216 91.6324 65.6853 91.6324 65.4752 91.7578L63.6262 92.8064C63.4581 92.9324 63.4161 93.0998 63.5842 93.2258Z" stroke="black" stroke-width="0.672" stroke-miterlimit="10" stroke-linecap="round"/>
<path d="M58.4575 90.2487L60.3905 91.3807C60.5586 91.4647 60.8948 91.4647 61.1049 91.3387L62.9539 90.2907C63.164 90.1647 63.164 89.9967 62.9959 89.8714L61.0629 88.7387C60.8948 88.6547 60.5586 88.6547 60.3484 88.7807L58.4995 89.8294C58.2894 89.9547 58.2474 90.1647 58.4575 90.2487Z" stroke="black" stroke-width="0.672" stroke-miterlimit="10" stroke-linecap="round"/>
<path d="M48.8277 106.603L67.7383 117.506C68.3262 117.842 69.3349 117.8 70.0076 117.422L75.9747 113.983C76.6467 113.606 76.7309 113.019 76.1423 112.683L57.2323 101.78C56.644 101.445 55.6355 101.487 54.9631 101.864L48.9959 105.303C48.3235 105.68 48.2394 106.267 48.8277 106.603Z" fill="#D1AA67" stroke="black" stroke-width="0.672" stroke-miterlimit="10" stroke-linecap="round"/>
<path d="M63.78 15.4707V64.9551L140.262 109.03V58.8744C140.262 55.5195 138.455 52.4163 135.555 50.7388L69.0751 12.4094C68.6549 12.1577 68.2347 12.0319 67.8144 11.99C67.0575 11.8642 66.3014 12.0319 65.6711 12.3675C65.587 12.4094 65.461 12.4933 65.3769 12.5352C64.4524 13.1223 63.78 14.1707 63.78 15.4707Z" fill="#E1E1E1" stroke="black" stroke-width="0.672" stroke-miterlimit="10" stroke-linecap="round" stroke-linejoin="round"/>
<path d="M71.9784 29.8957L132.114 64.5348C133.921 65.5832 135.35 64.4509 135.35 62.1025C135.35 59.7122 133.879 56.9444 132.114 55.896L71.9784 21.2569C70.172 20.2085 68.743 21.3407 68.743 23.6892C68.743 26.1215 70.172 28.8892 71.9784 29.8957Z" fill="#E1E1E1" stroke="black" stroke-width="0.672" stroke-miterlimit="10" stroke-linecap="round" stroke-linejoin="round"/>
<path d="M130.137 60.3629C129.545 59.34 129.554 58.2292 130.157 57.8818C130.76 57.5344 131.729 58.082 132.321 59.1048C132.912 60.1278 132.903 61.2386 132.301 61.586C131.697 61.9334 130.729 61.3858 130.137 60.3629Z" fill="black"/>
<path d="M124.853 57.3112C124.261 56.2883 124.27 55.1775 124.873 54.83C125.476 54.4826 126.444 55.0302 127.036 56.0531C127.628 57.0761 127.619 58.1869 127.016 58.5343C126.413 58.8817 125.444 58.3341 124.853 57.3112Z" fill="black"/>
<path d="M119.608 54.274C119.016 53.2512 119.024 52.1403 119.628 51.7929C120.23 51.4455 121.199 51.9931 121.791 53.016C122.383 54.0389 122.373 55.1498 121.771 55.4972C121.168 55.8446 120.199 55.297 119.608 54.274Z" fill="black"/>
<path d="M73.3566 26.377L93.4856 37.9932" stroke="black" stroke-width="0.672" stroke-miterlimit="10" stroke-linecap="round" stroke-linejoin="round"/>
<path d="M92.2396 74.7687L129.766 96.282C130.942 96.9527 132.413 96.114 132.413 94.772V79.382C132.413 77.4947 131.405 75.7334 129.766 74.8107L92.2396 53.2977C91.0632 52.6267 89.5922 53.4654 89.5922 54.8074V70.198C89.5501 72.0434 90.6009 73.8047 92.2396 74.7687Z" fill="#E1E1E1" stroke="black" stroke-width="0.672" stroke-miterlimit="10" stroke-linecap="round"/>
<path d="M92.3304 65.8746C94.4776 67.478 96.0114 61.0634 97.5446 64.2708C99.349 68.044 99.3263 72.5907 102.145 71.3274C104.293 70.3654 109.813 62.0256 111.654 69.4027C112.389 72.3474 108.893 82.874 120.549 85.1194" stroke="black" stroke-width="0.96" stroke-linecap="round"/>
<path d="M17.8413 93.432V98.1287C17.8413 99.0513 18.2196 99.974 18.9339 100.687C19.144 100.897 19.3541 101.065 19.6483 101.19L86.1283 139.52C89.0283 141.197 92.6424 141.197 95.5418 139.52L142.019 112.723C143.28 111.968 144.078 110.626 144.078 109.158V56.6543C144.078 53.2994 142.271 50.1962 139.372 48.5187L72.8916 10.1893C71.7565 9.51833 70.4959 9.6022 69.4878 10.1054L69.1932 10.2731L69.1511 10.3151L65.7055 12.328C66.3358 11.9925 67.0922 11.8667 67.8484 11.9925C68.2686 12.0345 68.6888 12.2022 69.1091 12.4119L135.547 50.7413C138.447 52.4188 140.254 55.522 140.254 58.8769V109.032L136.178 111.381L95.4997 134.823C92.6003 136.5 88.9862 136.5 86.0869 134.823L19.6063 96.4933C19.3542 96.326 19.102 96.158 18.8919 95.99C18.8499 95.948 18.7658 95.8647 18.7238 95.8227C18.1355 95.1093 17.8413 94.2707 17.8413 93.432Z" fill="#494949"/>
<path d="M139.372 48.5187C142.271 50.1962 144.078 53.2995 144.078 56.6543L140.254 58.8769C140.254 55.5221 138.447 52.4188 135.547 50.7413L69.1091 12.4119C68.6889 12.2022 68.2687 12.0345 67.8485 11.9925C67.0922 11.8667 66.3358 11.9925 65.7054 12.328L69.1512 10.3151L69.1933 10.2731L69.4872 10.1054C70.496 9.6022 71.7566 9.51833 72.8916 10.1893L139.372 48.5187Z" fill="#E1E1E1"/>
<path d="M17.8413 93.432V98.1287C17.8413 99.0513 18.2196 99.974 18.9339 100.687C19.144 100.897 19.3542 101.065 19.6483 101.19L86.1283 139.52C89.0283 141.197 92.6424 141.197 95.5418 139.52L142.019 112.723C143.28 111.968 144.078 110.626 144.078 109.158V56.6543C144.078 53.2994 142.271 50.1962 139.372 48.5187L72.8916 10.1893C71.7565 9.51833 70.4959 9.6022 69.4878 10.1054L69.1932 10.2731L69.1511 10.3151L65.7055 12.328C66.3358 11.9925 67.0922 11.8667 67.8484 11.9925C68.2686 12.0345 68.6888 12.2022 69.1091 12.4119L135.547 50.7413C138.447 52.4188 140.254 55.5221 140.254 58.8769V109.032L136.178 111.381L95.4997 134.823C92.6004 136.5 88.9862 136.5 86.0869 134.823L19.6063 96.4933C19.3542 96.326 19.102 96.158 18.8919 95.99C18.8499 95.948 18.7658 95.8647 18.7238 95.8227C18.1355 95.1093 17.8413 94.2707 17.8413 93.432Z" stroke="black" stroke-width="0.672" stroke-miterlimit="10" stroke-linecap="round"/>
<path d="M46.2213 35.7327C45.3388 35.2713 44.5824 35.1875 43.952 35.523L51.3901 31.2455L51.8103 30.9939H51.8523C52.4407 30.7423 53.1971 30.8261 53.9535 31.2875L76.8978 44.4553C78.8733 45.5876 80.4699 48.607 80.4699 51.2489L72.6537 57.8103C72.6537 55.2102 71.0571 50.0328 69.0817 48.9005L50.3815 38.123L46.2213 35.7327Z" fill="#D1AA67"/>
<path d="M46.2148 35.7375C45.3323 35.2763 44.5759 35.1923 43.9456 35.5279L51.3836 31.2504L51.8038 30.9988H51.8458C52.4342 30.7471 53.1906 30.831 53.947 31.2923L65.4193 37.8763L58.2509 42.6361L46.2148 35.7375Z" fill="#E1E1E1"/>
<path d="M72.6537 74.4033V55.7001L80.4699 51.2549V69.958C80.4699 71.258 80.0497 72.1807 79.4191 72.684H79.3777L78.9989 72.894L71.6029 77.1714C72.2335 76.71 72.6537 75.7453 72.6537 74.4033Z" fill="black"/>
<path d="M42.6368 38.4697V57.1731C42.6368 59.8151 44.2337 62.8345 46.2088 63.9667L69.069 77.1347C69.868 77.596 70.6242 77.68 71.2548 77.386C71.2962 77.386 71.2962 77.344 71.3383 77.344L71.4646 77.2607L71.5488 77.2187C71.5488 77.2187 71.5488 77.2187 71.5909 77.1767C72.2629 76.7153 72.641 75.7507 72.641 74.4087V55.7053C72.641 53.0634 71.0444 50.044 69.069 48.9117L50.3691 38.1342L46.2088 35.7439C45.3684 35.2406 44.5699 35.1987 43.9396 35.5342L43.8556 35.5761C43.0991 36.0374 42.6368 37.0439 42.6368 38.4697Z" fill="#E1E1E1" stroke="black" stroke-width="0.672" stroke-miterlimit="10" stroke-linecap="round" stroke-linejoin="round"/>
<path d="M45.9355 53.7077C45.3694 53.3729 44.9081 52.515 44.9081 51.7617V43.5177C44.9081 42.7644 45.3694 42.4087 45.9355 42.7435C46.5016 43.0783 46.9629 43.9361 46.9629 44.6894V52.9335C46.9629 53.6868 46.5016 54.0425 45.9355 53.7077Z" fill="#D1AA67" stroke="black" stroke-width="0.672" stroke-miterlimit="10" stroke-linecap="round" stroke-linejoin="round"/>
<path d="M49.8303 54.6644C49.2641 54.3296 48.8029 53.4718 48.8029 52.7185V48.5128C48.8029 47.7595 49.2641 47.4038 49.8303 47.7386C50.3964 48.0733 50.8577 48.9312 50.8577 49.6845V53.8903C50.8577 54.6435 50.3964 54.9992 49.8303 54.6644Z" fill="#D1AA67" stroke="black" stroke-width="0.672" stroke-miterlimit="10" stroke-linecap="round" stroke-linejoin="round"/>
<path d="M53.725 63.4747C53.1589 63.1399 52.6976 62.2821 52.6976 61.5288V53.2637C52.6976 52.5105 53.1589 52.1548 53.725 52.4895C54.2912 52.8243 54.7525 53.6822 54.7525 54.4355V62.6796C54.7525 63.4538 54.2912 63.7886 53.725 63.4747Z" fill="#D1AA67" stroke="black" stroke-width="0.672" stroke-miterlimit="10" stroke-linecap="round" stroke-linejoin="round"/>
<path d="M57.6198 59.6888C57.0537 59.354 56.5924 58.4961 56.5924 57.7428V52.0724C56.5924 51.3191 57.0537 50.9634 57.6198 51.2982C58.1859 51.633 58.6472 52.4908 58.6472 53.2441V58.9146C58.6263 59.6678 58.1859 60.0236 57.6198 59.6888Z" fill="#D1AA67" stroke="black" stroke-width="0.672" stroke-miterlimit="10" stroke-linecap="round" stroke-linejoin="round"/>
<path d="M61.495 64.7731C60.9289 64.4383 60.4677 63.5804 60.4677 62.8271V56.4034C60.4677 55.6501 60.9289 55.2944 61.495 55.6292C62.0611 55.964 62.5224 56.8219 62.5224 57.5751V63.9989C62.5224 64.7521 62.0611 65.1079 61.495 64.7731Z" fill="#D1AA67" stroke="black" stroke-width="0.672" stroke-miterlimit="10" stroke-linecap="round" stroke-linejoin="round"/>
<path d="M69.3042 65.7154C68.7384 65.3806 68.2767 64.5227 68.2767 63.7694V56.7599C68.2767 56.0066 68.7384 55.6509 69.3042 55.9857C69.87 56.3205 70.3317 57.1783 70.3317 57.9316V64.9412C70.3109 65.6945 69.87 66.0501 69.3042 65.7154Z" fill="#D1AA67" stroke="black" stroke-width="0.672" stroke-miterlimit="10" stroke-linecap="round" stroke-linejoin="round"/>
<path d="M65.4094 68.9147C64.8432 68.58 64.382 67.722 64.382 66.9687V56.5694C64.382 55.8162 64.8432 55.4604 65.4094 55.7952C65.9755 56.13 66.4368 56.9879 66.4368 57.7412V68.1407C66.4368 68.894 65.9755 69.2287 65.4094 68.9147Z" fill="#D1AA67" stroke="black" stroke-width="0.672" stroke-miterlimit="10" stroke-linecap="round" stroke-linejoin="round"/>
<path d="M43.952 35.523C44.5824 35.1875 45.3388 35.2713 46.2213 35.7327L50.3815 38.123L69.0817 48.9005C71.0571 50.0328 72.6537 53.0941 72.6537 55.6941V74.3973C72.6537 75.7393 72.2335 76.704 71.6029 77.1653L78.9989 72.888L79.3776 72.678H79.4191C80.0497 72.1747 80.4699 71.2527 80.4699 69.9527V51.2489C80.4699 48.607 78.8733 45.5876 76.8978 44.4553L53.9535 31.2875C53.1971 30.8261 52.4407 30.7423 51.8523 30.9939H51.8103L51.3901 31.2455L43.952 35.523Z" stroke="black" stroke-width="0.672" stroke-miterlimit="10" stroke-linecap="round"/>
<mask id="mask0_1_6013" style="mask-type:luminance" maskUnits="userSpaceOnUse" x="117" y="69" width="35" height="41">
<path d="M151.141 69.0234H117.187V109.576H151.141V69.0234Z" fill="white"/>
</mask>
<g mask="url(#mask0_1_6013)">
<path d="M146.647 98.9686C146.647 102.365 145.764 105.007 144.293 106.769C143.79 107.356 143.201 107.859 142.571 108.279L142.192 108.488C139.587 109.914 135.973 109.662 132.065 107.356C123.955 102.701 117.441 91.4199 117.441 82.1519C117.441 77.5393 119.038 74.3099 121.643 72.7586C122.358 72.3393 123.198 72.0459 124.039 71.8779C126.35 71.4586 129.081 72.0459 132.023 73.7653C140.091 78.3779 146.647 89.6586 146.647 98.9686Z" fill="#D7EEFF" stroke="black" stroke-width="0.672" stroke-miterlimit="10" stroke-linecap="round" stroke-linejoin="round"/>
<path d="M139.737 103.876C143.998 101.421 144 93.4638 139.741 86.1025C135.482 78.7418 128.576 74.7645 124.315 77.2198C120.054 79.6745 120.052 87.6318 124.311 94.9932C128.57 102.354 135.476 106.331 139.737 103.876Z" fill="white" stroke="black" stroke-width="0.672" stroke-miterlimit="10" stroke-linecap="round" stroke-linejoin="round"/>
<path d="M127.11 88.2365L131.942 92.5138V81.9038L127.11 88.2365Z" fill="white" stroke="black" stroke-width="0.672" stroke-miterlimit="10" stroke-linecap="round" stroke-linejoin="round"/>
<path d="M131.944 81.9038V92.5138L136.734 93.7298L131.944 81.9038Z" fill="#D1AA67" stroke="black" stroke-width="0.672" stroke-miterlimit="10" stroke-linecap="round" stroke-linejoin="round"/>
<path d="M131.944 94.9854V99.4727L136.734 96.2014L131.944 94.9854Z" fill="#D1AA67" stroke="black" stroke-width="0.672" stroke-miterlimit="10" stroke-linecap="round" stroke-linejoin="round"/>
<path d="M127.11 90.6685L131.942 99.4751V94.9885L127.11 90.6685Z" fill="white" stroke="black" stroke-width="0.672" stroke-miterlimit="10" stroke-linecap="round" stroke-linejoin="round"/>
<path d="M150.894 96.4932C150.894 101.023 149.339 104.252 146.818 105.803L146.482 106.013L142.574 108.277C143.204 107.9 143.792 107.397 144.297 106.768C145.809 105.007 146.65 102.323 146.65 98.9679C146.65 89.6999 140.094 78.3772 132.068 73.7639C129.126 72.0865 126.395 71.4999 124.084 71.8772C123.201 72.0445 122.403 72.3385 121.688 72.7579L125.891 70.3252L126.016 70.2419C128.664 68.7319 132.32 68.9419 136.312 71.2479C144.339 75.9032 150.894 87.1839 150.894 96.4932Z" fill="black"/>
<path d="M132.068 73.7639C129.126 72.0865 126.395 71.4999 124.084 71.8772C123.231 72.0392 122.456 72.3185 121.761 72.7159L121.688 72.7579C121.712 72.7439 121.736 72.7299 121.761 72.7159L125.891 70.3252L126.016 70.2419C128.664 68.7319 132.32 68.9419 136.312 71.2479L132.068 73.7639Z" fill="white"/>
<path d="M132.061 73.766C140.087 78.3793 146.643 89.702 146.643 98.9693L150.888 96.4953C150.888 87.1853 144.332 75.9047 136.306 71.25L132.061 73.766Z" fill="#D1AA67"/>
<path d="M150.894 96.4932C150.894 101.023 149.339 104.252 146.818 105.803L146.482 106.013L142.574 108.277C143.204 107.9 143.792 107.397 144.297 106.768C145.809 105.007 146.65 102.323 146.65 98.9679C146.65 89.6999 140.094 78.3772 132.068 73.7639C129.126 72.0865 126.395 71.4999 124.084 71.8772C123.201 72.0445 122.403 72.3385 121.688 72.7579L125.891 70.3252L126.016 70.2419C128.664 68.7319 132.32 68.9419 136.312 71.2479C144.339 75.9032 150.894 87.1839 150.894 96.4932Z" stroke="black" stroke-width="0.672" stroke-miterlimit="10" stroke-linecap="round" stroke-linejoin="round"/>
<path d="M130.767 69.3213L126.523 71.7953M134.549 70.37L130.304 72.844M137.406 71.9633L133.12 74.3953M139.801 73.7666L135.557 76.2406M141.902 75.7793L137.658 78.2533M143.752 77.918L139.507 80.3926M145.432 80.1826L141.146 82.6566M146.861 82.5733L142.617 85.0473M148.122 85.0473L143.878 87.5213M149.34 88.0246L145.054 90.4566M150.265 91.128L145.979 93.602M150.812 94.4826L146.525 96.9153M150.812 98.0893L146.567 100.563M150.349 100.815L146.063 103.247" stroke="black" stroke-width="0.672" stroke-miterlimit="10" stroke-linecap="round" stroke-linejoin="round"/>
</g>
<path d="M106.926 56.1084L116.423 61.5601" stroke="black" stroke-width="0.672" stroke-miterlimit="10" stroke-linecap="round" stroke-linejoin="round"/>
<path d="M100.209 52.207L103.486 54.0942" stroke="black" stroke-width="0.672" stroke-miterlimit="10" stroke-linecap="round" stroke-linejoin="round"/>
</svg>
