<svg width="161" height="160" viewBox="0 0 161 160" fill="none" xmlns="http://www.w3.org/2000/svg">
<path d="M144.243 94.1372C144.243 95.0952 143.783 96.0532 142.822 96.5898L141.44 97.3945L66.8571 140.473C64.8215 141.661 62.2868 141.661 60.2513 140.473L20.1178 117.325L18.7352 116.519C17.775 115.983 17.3142 115.025 17.3142 114.067C17.3142 113.109 17.775 112.151 18.7352 111.614L94.7395 67.7692C96.7751 66.5808 99.3096 66.5808 101.345 67.7692L142.861 91.6845C143.783 92.2592 144.243 93.2172 144.243 94.1372Z" fill="black"/>
<path d="M144.243 77.2445C144.243 78.2025 143.783 79.1611 142.822 79.6971L141.44 80.5025L66.8571 123.542C64.8215 124.73 62.2868 124.73 60.2513 123.542L20.1178 100.393L18.7352 99.5885C17.775 99.0518 17.3142 98.0938 17.3142 97.1358C17.3142 96.1778 17.775 95.2191 18.7352 94.6825L94.7008 50.8764C96.7363 49.6883 99.2709 49.6883 101.306 50.8764L142.822 74.7918C143.783 75.3285 144.243 76.2865 144.243 77.2445Z" fill="#E1E1E1" stroke="black" stroke-width="0.586802" stroke-miterlimit="10" stroke-linecap="round" stroke-linejoin="round"/>
<path d="M112.282 68.808V91.382L75.7589 70.3414V47.7672C75.7589 40.7536 77.9861 35.6946 81.5963 33.3184C81.9036 33.0884 82.249 32.9352 82.5563 32.7436C85.6674 31.1722 89.6616 31.4788 94.0013 33.97C94.0013 33.97 94.0394 34.0083 94.0781 34.0083C95.6527 34.9281 97.1885 36.0779 98.6102 37.4193C101.797 40.3704 104.639 44.2412 106.905 48.5338C109.594 53.6311 111.437 59.3416 112.013 64.8605C112.206 66.2019 112.282 67.5047 112.282 68.808Z" fill="#E1E1E1" stroke="black" stroke-width="0.586802" stroke-miterlimit="10" stroke-linecap="round" stroke-linejoin="round"/>
<path d="M106.461 64.7837C106.461 69.3442 104.695 72.3722 101.891 73.4836L103.043 72.8322L84.0327 61.8709L102.237 51.3696C104.81 55.5855 106.461 60.4528 106.461 64.7837Z" fill="black" stroke="#030303" stroke-width="0.586802" stroke-miterlimit="10" stroke-linecap="round" stroke-linejoin="round"/>
<path d="M102.239 51.4085L84.0346 61.9098C81.961 58.0772 80.655 53.8231 80.655 49.9905C80.655 41.7887 86.4156 38.4544 93.5209 42.5553C96.9006 44.4715 99.973 47.6909 102.239 51.4085Z" fill="#494949" stroke="#030303" stroke-width="0.574887" stroke-miterlimit="10" stroke-linecap="round" stroke-linejoin="round"/>
<path d="M103.041 72.8315V86.0155L58.9516 111.426C58.2603 111.847 57.569 112 56.9929 112C56.5704 112 56.148 111.885 55.8023 111.694L55.6487 111.617C54.6502 111.004 54.0356 109.624 54.0356 107.67C54.0356 104.028 56.2632 99.7742 58.99 98.2029L103.041 72.8315Z" fill="#494949" stroke="black" stroke-width="0.586802" stroke-miterlimit="10" stroke-linecap="round" stroke-linejoin="round"/>
<path d="M62.6983 104.45C63.5043 103.058 63.5025 101.55 62.6943 101.085C61.8861 100.619 60.5775 101.371 59.7715 102.764C58.9655 104.157 58.9673 105.664 59.7755 106.13C60.5838 106.596 61.8923 105.844 62.6983 104.45Z" fill="#E1E1E1" stroke="black" stroke-width="0.586802" stroke-miterlimit="10" stroke-linecap="round" stroke-linejoin="round"/>
<path d="M74.1021 97.7318C74.9084 96.3384 74.9064 94.8318 74.0981 94.3658C73.2897 93.9004 71.981 94.6524 71.1753 96.0451C70.369 97.4384 70.371 98.9451 71.1793 99.4111C71.9877 99.8764 73.2964 99.1244 74.1021 97.7318Z" fill="#E1E1E1" stroke="black" stroke-width="0.586802" stroke-miterlimit="10" stroke-linecap="round" stroke-linejoin="round"/>
<path d="M85.5057 91.0448C86.312 89.6515 86.31 88.1448 85.5017 87.6788C84.694 87.2135 83.3853 87.9648 82.579 89.3581C81.7733 90.7515 81.7746 92.2581 82.583 92.7235C83.3913 93.1895 84.7 92.4375 85.5057 91.0448Z" fill="#E1E1E1" stroke="black" stroke-width="0.586802" stroke-miterlimit="10" stroke-linecap="round" stroke-linejoin="round"/>
<path d="M96.9407 84.3799C97.747 82.9872 97.745 81.4799 96.9367 81.0145C96.1283 80.5485 94.8203 81.3005 94.014 82.6939C93.2076 84.0865 93.2096 85.5939 94.018 86.0592C94.8263 86.5252 96.135 85.7732 96.9407 84.3799Z" fill="#E1E1E1" stroke="black" stroke-width="0.586802" stroke-miterlimit="10" stroke-linecap="round" stroke-linejoin="round"/>
<path d="M103.023 72.8293L101.871 73.4807L58.9338 98.2393C56.207 99.8107 53.9796 104.065 53.9796 107.705C53.9796 109.622 54.594 111.001 55.5926 111.653L36.6588 100.73L36.4668 100.615C35.4682 99.964 34.8538 98.6227 34.8538 96.668C34.8538 93.0267 37.0812 88.7727 39.808 87.2013L83.897 61.8296L84.0126 61.9063L103.023 72.8293Z" fill="#E1E1E1" stroke="black" stroke-width="0.586802" stroke-miterlimit="10" stroke-linecap="round" stroke-linejoin="round"/>
<path d="M98.9676 75.1716L79.8801 64.1724" stroke="black" stroke-width="0.586802" stroke-miterlimit="10" stroke-linecap="round" stroke-linejoin="round"/>
<path d="M94.5438 77.7382L75.4182 66.7002" stroke="black" stroke-width="0.586802" stroke-miterlimit="10" stroke-linecap="round" stroke-linejoin="round"/>
<path d="M90.1126 80.2666L70.9863 69.2666" stroke="black" stroke-width="0.586802" stroke-miterlimit="10" stroke-linecap="round" stroke-linejoin="round"/>
<path d="M85.6734 82.8327L66.5861 71.7954" stroke="black" stroke-width="0.586802" stroke-miterlimit="10" stroke-linecap="round" stroke-linejoin="round"/>
<path d="M81.2496 85.3612L62.1238 74.3618" stroke="black" stroke-width="0.586802" stroke-miterlimit="10" stroke-linecap="round" stroke-linejoin="round"/>
<path d="M76.8491 87.936L57.7234 76.936" stroke="black" stroke-width="0.586802" stroke-miterlimit="10" stroke-linecap="round" stroke-linejoin="round"/>
<path d="M72.3792 90.4639L53.292 79.4639" stroke="black" stroke-width="0.586802" stroke-miterlimit="10" stroke-linecap="round" stroke-linejoin="round"/>
<path d="M67.9554 93.0306L48.8297 82.0312" stroke="black" stroke-width="0.586802" stroke-miterlimit="10" stroke-linecap="round" stroke-linejoin="round"/>
<path d="M44.4293 84.5596L63.5551 95.5969" stroke="black" stroke-width="0.586802" stroke-miterlimit="10" stroke-linecap="round" stroke-linejoin="round"/>
<path d="M39.9979 87.126L59.1237 98.1253" stroke="black" stroke-width="0.586802" stroke-miterlimit="10" stroke-linecap="round" stroke-linejoin="round"/>
<path d="M55.9009 101.387L36.775 90.3501" stroke="black" stroke-width="0.586802" stroke-miterlimit="10" stroke-linecap="round" stroke-linejoin="round"/>
<path d="M54.2275 105.524L35.1017 94.4858" stroke="black" stroke-width="0.586802" stroke-miterlimit="10" stroke-linecap="round" stroke-linejoin="round"/>
<path d="M108.456 79.1726C108.915 78.908 108.918 78.054 108.461 77.266C108.006 76.478 107.263 76.0533 106.804 76.318C106.345 76.5826 106.342 77.436 106.798 78.224C107.255 79.0126 107.996 79.4366 108.456 79.1726Z" fill="black"/>
<path d="M108.425 84.5764C108.884 84.3118 108.886 83.4584 108.431 82.6698C107.974 81.8818 107.233 81.4571 106.773 81.7218C106.314 81.9864 106.311 82.8398 106.767 83.6278C107.223 84.4164 107.966 84.8404 108.425 84.5764Z" fill="black"/>
<path d="M135.114 55.6294V78.2035L112.263 91.3488V68.8135L135.114 55.6294Z" fill="#494949" stroke="black" stroke-width="0.586802" stroke-miterlimit="10" stroke-linecap="round" stroke-linejoin="round"/>
<path d="M103.154 28.7948L94.0902 34.0455L94.0521 34.0071C89.7124 31.5159 85.7562 31.2093 82.6071 32.7807L91.7092 27.5301C94.8203 25.9587 98.7759 26.2653 103.154 28.7948C103.154 28.7565 103.154 28.7565 103.154 28.7948Z" fill="#D1AA67"/>
<path d="M103.154 28.7948L94.0902 34.0455L94.0521 34.0071C89.7124 31.5159 85.7562 31.2093 82.6071 32.7807L91.7092 27.5301C94.8203 25.9587 98.7759 26.2653 103.154 28.7948ZM103.154 28.7948C103.154 28.7565 103.154 28.7565 103.154 28.7948Z" stroke="black" stroke-width="0.586802" stroke-miterlimit="10" stroke-linecap="round" stroke-linejoin="round"/>
<path d="M116.888 20.8269L103.139 28.7603C103.139 28.7603 103.101 28.7603 103.101 28.722C98.7611 26.2308 94.8049 25.9242 91.6558 27.4956L104.445 20.137L105.405 19.6005C108.554 18.0291 112.548 18.3357 116.888 20.8269Z" fill="#D1AA67" stroke="black" stroke-width="0.586802" stroke-miterlimit="10" stroke-linecap="round" stroke-linejoin="round"/>
<path d="M135.152 55.6238L121.403 63.5572L112.3 68.8079C112.3 67.5046 112.224 66.2017 112.07 64.8986C111.456 59.3414 109.612 53.6308 106.962 48.5718C104.697 44.2794 101.854 40.4085 98.6669 37.4574C97.2072 36.116 95.6714 34.9662 94.1349 34.0464L103.198 28.7958L116.947 20.8623C121.979 23.7751 126.549 29.1024 129.852 35.4261C133.116 41.6732 135.152 48.9168 135.152 55.6238Z" fill="#E1E1E1" stroke="black" stroke-width="0.586802" stroke-miterlimit="10" stroke-linecap="round" stroke-linejoin="round"/>
<path d="M121.388 86.1299V63.5559C121.388 62.2528 121.311 60.9881 121.158 59.6467C120.543 54.0894 118.699 48.3789 116.05 43.3199C113.784 39.0274 110.942 35.1565 107.754 32.2054C106.295 30.864 104.758 29.7143 103.184 28.7944" stroke="black" stroke-width="0.586802" stroke-miterlimit="10" stroke-linecap="round" stroke-linejoin="round"/>
<mask id="mask0_1_6281" style="mask-type:luminance" maskUnits="userSpaceOnUse" x="121" y="60" width="23" height="18">
<path d="M143.835 60.1831H121.56V77.0464H143.835V60.1831Z" fill="white"/>
</mask>
<g mask="url(#mask0_1_6281)">
<path d="M134.947 63.947C135.249 63.7963 135.646 63.8339 136.08 64.0977C136.08 64.0977 136.08 64.0977 136.099 64.0977C137.043 64.6442 137.799 65.9444 137.799 67.0375C137.799 67.5461 137.61 67.9228 137.326 68.1115L140.027 66.5662C140.121 66.3778 140.159 66.1328 140.178 65.8502V65.8313C140.178 64.6631 139.347 63.231 138.327 62.6468C138.327 62.6468 138.327 62.6468 138.308 62.6468C138.063 62.5149 137.836 62.4395 137.629 62.4019L134.947 63.947Z" fill="#DCDCDC" stroke="black" stroke-width="0.586802" stroke-miterlimit="10" stroke-linecap="round" stroke-linejoin="round"/>
<path d="M137.644 62.4077C137.851 62.4265 138.078 62.5019 138.323 62.6527C138.323 62.6527 138.323 62.6527 138.342 62.6527C139.362 63.2368 140.192 64.6689 140.192 65.8371C140.192 66.1198 140.136 66.3647 140.041 66.5532L142.817 64.9515L142.874 64.9138C143.157 64.7254 143.346 64.3674 143.346 63.8397V63.8209C143.346 62.7469 142.591 61.4278 141.647 60.8814C141.193 60.6176 140.797 60.5987 140.495 60.7495L140.438 60.7871L137.644 62.4077Z" fill="#D1AA67" stroke="black" stroke-width="0.586802" stroke-miterlimit="10" stroke-linecap="round" stroke-linejoin="round"/>
<path d="M134.42 65.0688C134.42 66.1428 135.176 67.4617 136.12 68.0084C136.573 68.2724 136.988 68.3097 137.291 68.1404L137.347 68.1024C137.63 67.9144 137.801 67.5564 137.819 67.0284C137.819 65.9544 137.064 64.6354 136.12 64.0889C136.12 64.0889 136.12 64.0889 136.101 64.0889C135.667 63.8439 135.27 63.8062 134.968 63.9382H134.949L134.893 63.9758C134.591 64.1831 134.42 64.56 134.42 65.0688Z" fill="black" stroke="black" stroke-width="0.586802" stroke-miterlimit="10" stroke-linecap="round" stroke-linejoin="round"/>
<path d="M128.409 68.8375C128.598 68.7428 128.843 68.7621 129.126 68.9128C129.712 69.2521 130.165 70.0621 130.165 70.7215C130.165 71.0421 130.051 71.2681 129.882 71.3815L136.698 67.4615C136.887 67.3488 136.982 67.1228 136.982 66.8021C136.982 66.1427 136.509 65.3325 135.943 64.9933C135.66 64.8426 135.414 64.8237 135.225 64.9179L135.169 64.9368L128.409 68.8375Z" fill="#E1E1E1" stroke="black" stroke-width="0.586802" stroke-miterlimit="10" stroke-linecap="round" stroke-linejoin="round"/>
<path d="M125.403 74.1767V74.1961C125.403 75.2321 125.762 75.9674 126.347 76.3254L126.441 76.3814C127.046 76.7021 127.877 76.6454 128.783 76.1181C130.652 75.0441 132.163 72.4434 132.163 70.2954C132.163 69.2587 131.804 68.5241 131.238 68.1474L131.087 68.0907C130.482 67.7701 129.671 67.8454 128.783 68.3547H128.764C126.913 69.4287 125.403 72.0287 125.403 74.1767Z" fill="#E1E1E1" stroke="black" stroke-width="0.586802" stroke-miterlimit="10" stroke-linecap="round" stroke-linejoin="round"/>
<path d="M128.037 72.6714C128.037 72.8974 128.113 73.0668 128.245 73.1428L128.264 73.1614C128.396 73.2368 128.585 73.2181 128.793 73.1048C129.208 72.8601 129.548 72.2754 129.548 71.8048C129.548 71.5788 129.472 71.4088 129.34 71.3334L129.321 71.3148C129.189 71.2394 129 71.2581 128.811 71.3714C128.377 71.6161 128.037 72.2001 128.037 72.6714Z" fill="#D1AA67" stroke="black" stroke-width="0.586802" stroke-miterlimit="10" stroke-linecap="round" stroke-linejoin="round"/>
<path d="M122.056 72.2216V72.2403C122.056 73.2763 122.415 74.0303 122.981 74.3883L123.095 74.4449L126.342 76.3103C125.776 75.9523 125.417 75.2176 125.398 74.1809V74.1623C125.398 72.0143 126.909 69.4136 128.778 68.3396H128.797C129.685 67.8309 130.496 67.7743 131.101 68.0756L127.872 66.2103L127.74 66.1349C127.135 65.8146 126.324 65.8899 125.417 66.3987C125.398 66.4175 125.38 66.4175 125.36 66.4364C123.548 67.5483 122.075 70.1109 122.056 72.2216Z" fill="#DCDCDC" stroke="black" stroke-width="0.586802" stroke-miterlimit="10" stroke-linecap="round" stroke-linejoin="round"/>
<path d="M129.432 67.1244C128.827 66.8044 128.016 66.8798 127.109 67.3884C127.091 67.4071 127.072 67.4071 127.053 67.4264C125.221 68.5191 123.73 71.0818 123.73 73.2111V73.2298C123.73 74.2664 124.088 75.0198 124.655 75.3778" stroke="black" stroke-width="0.586802" stroke-miterlimit="10" stroke-linecap="round" stroke-linejoin="round"/>
</g>
<path d="M144.243 77.2378V85.0945C144.243 86.0525 143.783 87.0105 142.822 87.5471L66.8571 131.43C64.8215 132.618 62.2868 132.618 60.2513 131.43L18.7352 107.515C17.775 106.978 17.3142 106.02 17.3142 105.062V97.1671C17.3142 98.1251 17.775 99.0831 18.7352 99.6198L20.1178 100.424L60.2513 123.535C62.2868 124.723 64.8215 124.723 66.8571 123.535L141.478 80.4571L142.861 79.6518C143.783 79.1158 144.243 78.1571 144.243 77.2378Z" fill="#494949" stroke="black" stroke-width="0.586802" stroke-miterlimit="10" stroke-linecap="round" stroke-linejoin="round"/>
<path d="M112.523 101.312L109.413 103.114" stroke="black" stroke-width="0.586802" stroke-miterlimit="10" stroke-linecap="round" stroke-linejoin="round"/>
<path d="M128.388 92.1899L116.137 99.2419" stroke="black" stroke-width="0.586802" stroke-miterlimit="10" stroke-linecap="round" stroke-linejoin="round"/>
<path d="M138.566 86.3291L131.538 90.3538" stroke="black" stroke-width="0.586802" stroke-miterlimit="10" stroke-linecap="round" stroke-linejoin="round"/>
<path d="M22.5445 106.999C22.9348 106.833 23.0156 106.146 22.7249 105.464C22.4342 104.783 21.8821 104.364 21.4917 104.53C21.1014 104.696 21.0206 105.383 21.3113 106.065C21.602 106.746 22.1542 107.165 22.5445 106.999Z" fill="black"/>
<path d="M26.2941 109.14C26.6845 108.975 26.7652 108.287 26.4746 107.605C26.1838 106.924 25.6317 106.506 25.2414 106.671C24.851 106.837 24.7702 107.524 25.0609 108.206C25.3516 108.888 25.9038 109.306 26.2941 109.14Z" fill="black"/>
<path d="M30.0128 111.282C30.4031 111.116 30.4839 110.428 30.1932 109.747C29.9025 109.065 29.3503 108.647 28.96 108.812C28.5696 108.978 28.4889 109.666 28.7795 110.347C29.0703 111.029 29.6224 111.447 30.0128 111.282Z" fill="black"/>
<path d="M102.256 64.8454C102.256 65.148 102.17 65.4508 102.021 65.7535C101.636 66.5182 100.761 67.2353 99.3724 67.8247C95.5706 69.4653 89.355 69.4653 85.5311 67.8247C84.1643 67.2353 83.2885 66.5182 82.883 65.7535C82.7547 65.4508 82.6692 65.148 82.6692 64.8454C82.6692 63.762 83.6305 62.6947 85.5311 61.8662C89.355 60.2093 95.5706 60.2093 99.3938 61.8662C101.294 62.6787 102.256 63.762 102.256 64.8454Z" fill="black"/>
<path d="M102.756 60.5059C102.756 60.8822 102.677 61.2584 102.538 61.6346C102.18 62.5852 101.367 63.4763 100.077 64.2089C96.5452 66.2486 90.7706 66.2486 87.2186 64.2089C85.9486 63.4763 85.1349 62.5852 84.7582 61.6346C84.6386 61.2584 84.5598 60.8822 84.5598 60.5059C84.5598 59.1594 85.4523 57.8326 87.2186 56.8029C90.7706 54.7435 96.5452 54.7435 100.097 56.8029C101.863 57.8128 102.756 59.1594 102.756 60.5059Z" fill="#A9E8A1" stroke="#080809" stroke-width="0.574887" stroke-miterlimit="10" stroke-linecap="round" stroke-linejoin="round"/>
<path d="M100.924 60.5114C100.924 60.7886 100.865 61.0658 100.746 61.343C100.468 62.0361 99.8133 62.7094 98.8013 63.2441C95.9634 64.7491 91.3799 64.7491 88.542 63.2441C87.5299 62.7094 86.8752 62.0361 86.5973 61.343C86.4784 61.0658 86.4189 60.7886 86.4189 60.5114C86.4189 59.5213 87.1331 58.5311 88.542 57.7787C91.3799 56.2737 95.9634 56.2737 98.8013 57.7787C100.21 58.5311 100.924 59.5213 100.924 60.5114Z" fill="white" stroke="black" stroke-width="0.586802" stroke-miterlimit="10" stroke-linecap="round" stroke-linejoin="round"/>
<path d="M102.769 63.3593V60.5078C102.769 60.8841 102.69 61.2603 102.571 61.6365C102.194 62.5871 101.381 63.4781 100.111 64.2109C99.0999 64.7911 97.9107 65.2063 96.6448 65.4565V68.3075C97.9114 68.0569 99.1005 67.6422 100.111 67.0622C101.876 66.0327 102.769 64.7059 102.769 63.3593Z" fill="black"/>
<path d="M84.5598 63.3593C84.5598 64.6861 85.4523 66.0327 87.2186 67.0622C90.4419 68.9135 95.4951 69.0849 99.0571 67.5762V64.7249C95.4984 66.233 90.4613 66.0617 87.2386 64.2109C85.9486 63.4781 85.1349 62.5871 84.7775 61.6365C84.6386 61.2603 84.5598 60.8841 84.5598 60.5078V63.3593Z" fill="#A9E8A1"/>
<path d="M84.5598 63.3593C84.5598 64.6861 85.4523 66.0327 87.2186 67.0622L87.2386 64.2109C85.9486 63.4781 85.1349 62.5871 84.7775 61.6365C84.6386 61.2603 84.5598 60.8841 84.5598 60.5078V63.3593Z" fill="white"/>
<path d="M88.367 64.8857V67.7594M91.2055 65.6795V68.5887M93.8002 65.77V68.5887M96.5893 65.5237V68.2547M99.1119 64.7872V67.5347M86.0161 63.4609V66.3875M101.178 63.5743V66.3875" stroke="black" stroke-width="0.612307" stroke-miterlimit="10" stroke-linecap="round" stroke-linejoin="round"/>
<path d="M102.756 60.5078V63.3593C102.756 64.7059 101.863 66.0327 100.097 67.0622C96.5452 69.1022 90.7706 69.1022 87.2186 67.0622C85.4523 66.0327 84.5598 64.6861 84.5598 63.3593V60.5078C84.5598 60.8841 84.6386 61.2603 84.7775 61.6365C85.1349 62.5871 85.9486 63.4781 87.2386 64.2109C90.7907 66.2505 96.5452 66.2505 100.097 64.2109C101.367 63.4781 102.18 62.5871 102.558 61.6365C102.677 61.2603 102.756 60.8841 102.756 60.5078Z" stroke="black" stroke-width="0.586802" stroke-miterlimit="10" stroke-linecap="round" stroke-linejoin="round"/>
<path d="M90.5154 62.4158L90.3711 62.5602L90.5628 62.6308L91.5108 62.9798L91.7025 63.0505L91.8475 62.9062L92.1982 62.5562C92.3719 62.584 92.5476 62.5994 92.7253 62.6018C93.1515 62.6085 93.559 62.5466 93.9432 62.4122C94.3313 62.2762 94.656 62.0744 94.9172 61.814C95.2124 61.519 95.3554 61.2266 95.3133 60.9455C95.2746 60.6706 95.0541 60.4003 94.6934 60.1329L94.6927 60.1325L93.9939 59.6204L93.9933 59.6202C93.8249 59.4976 93.7421 59.4009 93.7147 59.3302C93.692 59.2647 93.7107 59.2183 93.7521 59.1768C93.7975 59.1313 93.8563 59.0987 93.9385 59.0762C94.034 59.0502 94.1429 59.0382 94.2698 59.0454C94.3961 59.0534 94.5237 59.0811 94.652 59.1324L94.6526 59.1325C94.7856 59.1854 94.8811 59.2504 94.9459 59.3264L94.9486 59.329C95.0167 59.4052 95.0514 59.4884 95.0548 59.5802V59.5818C95.0588 59.6714 95.0307 59.7652 94.9673 59.8651L94.8717 60.0146L95.0768 60.0572L96.1825 60.2872L96.4136 60.3354L96.5131 60.1653C96.6768 59.8862 96.7543 59.6205 96.7396 59.3704C96.7289 59.1196 96.626 58.894 96.435 58.6954C96.3775 58.6348 96.3121 58.5774 96.2399 58.523L96.6087 58.1547L96.753 58.0104L96.5612 57.9397L95.6133 57.5907L95.4215 57.52L95.2766 57.6644L94.9312 58.0093C94.7715 57.983 94.6105 57.968 94.4482 57.9648C94.0534 57.956 93.6719 58.015 93.3118 58.1451L93.3098 58.1457C92.9491 58.278 92.6431 58.474 92.3913 58.7252C92.12 58.9958 91.9844 59.2691 92.0038 59.5388C92.0232 59.8059 92.1942 60.0527 92.4881 60.2806L93.4435 61.0213C93.553 61.1082 93.5958 61.1774 93.6038 61.2276L93.6044 61.2322C93.6131 61.2744 93.5984 61.3198 93.5403 61.3779C93.4622 61.4558 93.3446 61.5113 93.1408 61.5322L93.1388 61.5323C92.9364 61.5539 92.72 61.5294 92.4875 61.4437C92.2483 61.3556 92.102 61.2321 92.0352 61.0726C91.9711 60.914 91.9944 60.7409 92.1154 60.5466L92.2056 60.4015L92.0091 60.357L90.9596 60.1192L90.7492 60.0714L90.635 60.2238C90.4179 60.5122 90.3036 60.7962 90.2996 61.0733C90.2969 61.3474 90.3978 61.5979 90.5989 61.822L90.5996 61.8228C90.6771 61.9078 90.7679 61.9867 90.8728 62.0596L90.5154 62.4158Z" fill="#A9E8A1" stroke="black" stroke-width="0.612307"/>
<path d="M86.4517 74.7648C86.4517 75.0675 86.3662 75.3701 86.2165 75.6728C85.8324 76.4375 84.9566 77.1541 83.5684 77.7435C79.7665 79.3848 73.5503 79.3848 69.727 77.7435C68.3602 77.1541 67.4844 76.4375 67.0789 75.6728C66.9506 75.3701 66.8651 75.0675 66.8651 74.7648C66.8651 73.6815 67.8264 72.6141 69.727 71.7855C73.5503 70.1288 79.7665 70.1288 83.5897 71.7855C85.4903 72.5981 86.4517 73.6815 86.4517 74.7648Z" fill="black"/>
<path d="M86.9828 70.4173C86.9828 70.7933 86.9033 71.1693 86.7643 71.546C86.4076 72.4967 85.5939 73.3873 84.3039 74.12C80.7719 76.16 74.9973 76.16 71.4453 74.12C70.1753 73.3873 69.3616 72.4967 68.9848 71.546C68.8659 71.1693 68.7864 70.7933 68.7864 70.4173C68.7864 69.0707 69.6789 67.744 71.4453 66.714C74.9973 64.6546 80.7719 64.6546 84.3239 66.714C86.0896 67.724 86.9828 69.0707 86.9828 70.4173Z" fill="#A9E8A1" stroke="#080809" stroke-width="0.574887" stroke-miterlimit="10" stroke-linecap="round" stroke-linejoin="round"/>
<path d="M85.151 70.4226C85.151 70.6999 85.0915 70.9766 84.9726 71.2539C84.6947 71.9473 84.04 72.6206 83.0279 73.1553C80.1901 74.6599 75.6066 74.6599 72.7687 73.1553C71.7566 72.6206 71.1019 71.9473 70.824 71.2539C70.7051 70.9766 70.6456 70.6999 70.6456 70.4226C70.6456 69.4326 71.3598 68.4419 72.7687 67.6899C75.6066 66.1847 80.1901 66.1847 83.0279 67.6899C84.4368 68.4419 85.151 69.4326 85.151 70.4226Z" fill="white" stroke="black" stroke-width="0.586802" stroke-miterlimit="10" stroke-linecap="round" stroke-linejoin="round"/>
<path d="M86.9961 73.2705V70.4185C86.9961 70.7951 86.9166 71.1711 86.7977 71.5471C86.4209 72.4978 85.6072 73.3891 84.3372 74.1218C83.3265 74.7018 82.1374 75.1171 80.8721 75.3671V78.2178C82.1387 77.9678 83.3278 77.5531 84.3372 76.9731C86.1029 75.9438 86.9961 74.6165 86.9961 73.2705Z" fill="black"/>
<path d="M68.7864 73.2705C68.7864 74.5971 69.6789 75.9438 71.4453 76.9731C74.6686 78.8245 79.7224 78.9951 83.2845 77.4871V74.6358C79.7251 76.1438 74.6887 75.9725 71.4653 74.1218C70.1753 73.3891 69.3616 72.4978 69.0049 71.5471C68.8659 71.1711 68.7864 70.7951 68.7864 70.4185V73.2705Z" fill="#A9E8A1"/>
<path d="M68.7864 73.2705C68.7864 74.5971 69.6789 75.9438 71.4453 76.9731L71.4653 74.1218C70.1753 73.3891 69.3616 72.4978 69.0049 71.5471C68.8659 71.1711 68.7864 70.7951 68.7864 70.4185V73.2705Z" fill="white"/>
<path d="M72.5937 74.8046V77.6785M75.4322 75.5986V78.5072M78.0269 75.6885V78.5072M80.816 75.4426V78.1739M83.3386 74.7059V77.4532M70.2428 73.3799V76.3065M85.4049 73.4932V76.3065" stroke="black" stroke-width="0.612307" stroke-miterlimit="10" stroke-linecap="round" stroke-linejoin="round"/>
<path d="M86.9828 70.4185V73.2705C86.9828 74.6165 86.0896 75.9438 84.3239 76.9731C80.7719 79.0131 74.9973 79.0131 71.4453 76.9731C69.6789 75.9438 68.7864 74.5971 68.7864 73.2705V70.4185C68.7864 70.7951 68.8659 71.1711 69.0049 71.5471C69.3616 72.4978 70.1753 73.3891 71.4653 74.1218C75.0173 76.1611 80.7719 76.1611 84.3239 74.1218C85.5939 73.3891 86.4076 72.4978 86.7844 71.5471C86.9033 71.1711 86.9828 70.7951 86.9828 70.4185Z" stroke="black" stroke-width="0.586802" stroke-miterlimit="10" stroke-linecap="round" stroke-linejoin="round"/>
<path d="M74.7421 72.3271L74.5978 72.4712L74.7895 72.5418L75.7375 72.8911L75.9292 72.9618L76.0742 72.8171L76.4249 72.4671C76.5986 72.4951 76.7743 72.5105 76.952 72.5131C77.3782 72.5198 77.7857 72.4578 78.1698 72.3232C78.558 72.1872 78.8827 71.9858 79.1439 71.7251C79.4398 71.4298 79.5821 71.1378 79.54 70.8565C79.5013 70.5818 79.2808 70.3112 78.9201 70.0438L78.2206 69.5318L78.2199 69.5311C78.0523 69.4085 77.9688 69.3118 77.9414 69.2411C77.9187 69.1758 77.9374 69.1292 77.9788 69.0878C78.0249 69.0425 78.083 69.0098 78.1652 68.9872C78.2607 68.9612 78.3696 68.9491 78.4965 68.9565C78.6234 68.9645 78.751 68.9925 78.8793 69.0432C79.0123 69.0958 79.1085 69.1612 79.1726 69.2372L79.1753 69.2398C79.2434 69.3165 79.2781 69.3998 79.2815 69.4911V69.4931C79.2855 69.5825 79.2581 69.6765 79.194 69.7765L79.0984 69.9258L79.3035 69.9685L80.4091 70.1985L80.6403 70.2465L80.7398 70.0765C80.9035 69.7971 80.9817 69.5318 80.9663 69.2811C80.9556 69.0305 80.8534 68.8052 80.6617 68.6065C80.6042 68.5458 80.5387 68.4885 80.4666 68.4338L80.8354 68.0658L80.9803 67.9212L80.7879 67.8505L79.84 67.5018L79.6482 67.4312L79.5039 67.5751L79.1579 67.9205C78.9982 67.8938 78.8372 67.8792 78.6749 67.8758C78.2801 67.8672 77.8993 67.9258 77.5385 68.0565H77.5365C77.1758 68.1891 76.8698 68.3852 76.618 68.6365C76.3467 68.9072 76.2111 69.1805 76.2305 69.4498C76.2499 69.7172 76.4209 69.9638 76.7148 70.1918L77.6701 70.9325C77.7797 71.0192 77.8225 71.0885 77.8305 71.1385L77.8311 71.1431C77.8398 71.1851 77.8258 71.2311 77.767 71.2891C77.6895 71.3671 77.5713 71.4225 77.3675 71.4432H77.3662C77.1631 71.4652 76.9466 71.4405 76.7142 71.3545C76.475 71.2665 76.3287 71.1431 76.2619 70.9838C76.1978 70.8251 76.2211 70.6518 76.3421 70.4578L76.4322 70.3125L76.2365 70.2678L75.1863 70.0305L74.9759 69.9825L74.8617 70.1352C74.6445 70.4232 74.531 70.7071 74.5263 70.9845C74.5236 71.2585 74.6245 71.5091 74.8256 71.7331L74.8263 71.7338C74.9037 71.8191 74.9946 71.8978 75.0995 71.9705L74.7421 72.3271Z" fill="#A9E8A1" stroke="black" stroke-width="0.612307"/>
<path d="M68.3542 85.2554C68.3542 85.558 68.2687 85.8607 68.1197 86.1634C67.7349 86.928 66.8591 87.6454 65.4708 88.2347C61.6688 89.8754 55.4531 89.8754 51.6298 88.2347C50.2628 87.6454 49.3871 86.928 48.9812 86.1634C48.8531 85.8607 48.7676 85.558 48.7676 85.2554C48.7676 84.172 49.7288 83.1047 51.6298 82.2767C55.4531 80.6194 61.6688 80.6194 65.4921 82.2767C67.3929 83.0887 68.3542 84.172 68.3542 85.2554Z" fill="black"/>
<path d="M68.8853 80.9158C68.8853 81.2918 68.8058 81.6685 68.6669 82.0445C68.3101 82.9951 67.4964 83.8858 66.2065 84.6185C62.6744 86.6585 56.9 86.6585 53.3479 84.6185C52.078 83.8858 51.2644 82.9951 50.8874 82.0445C50.7683 81.6685 50.689 81.2918 50.689 80.9158C50.689 79.5691 51.5819 78.2425 53.3479 77.2125C56.9 75.1531 62.6744 75.1531 66.2263 77.2125C67.9921 78.2225 68.8853 79.5691 68.8853 80.9158Z" fill="#A9E8A1" stroke="#080809" stroke-width="0.574887" stroke-miterlimit="10" stroke-linecap="round" stroke-linejoin="round"/>
<path d="M67.0535 80.9212C67.0535 81.1986 66.9941 81.4759 66.8751 81.7532C66.5974 82.4459 65.9425 83.1192 64.9306 83.6539C62.093 85.1592 57.5091 85.1592 54.6715 83.6539C53.6595 83.1192 53.0047 82.4459 52.7268 81.7532C52.6078 81.4759 52.5483 81.1986 52.5483 80.9212C52.5483 79.9312 53.2626 78.9412 54.6715 78.1886C57.5091 76.6839 62.093 76.6839 64.9306 78.1886C66.3394 78.9412 67.0535 79.9312 67.0535 80.9212Z" fill="white" stroke="black" stroke-width="0.586802" stroke-miterlimit="10" stroke-linecap="round" stroke-linejoin="round"/>
<path d="M68.8679 83.7693V80.918C68.8679 81.294 68.7884 81.67 68.6695 82.0466C68.2921 82.9973 67.4784 83.888 66.2088 84.6206C65.1981 85.2013 64.0093 85.616 62.7435 85.8666V88.7173C64.0101 88.4666 65.1992 88.052 66.2088 87.4726C67.9748 86.4426 68.8679 85.116 68.8679 83.7693Z" fill="black"/>
<path d="M50.689 83.7693C50.689 85.096 51.5819 86.4426 53.3479 87.4726C56.5713 89.3233 61.6248 89.4946 65.1868 87.986V85.1346C61.6279 86.6426 56.591 86.4713 53.3678 84.6206C52.078 83.888 51.2644 82.9973 50.9072 82.0466C50.7683 81.67 50.689 81.294 50.689 80.918V83.7693Z" fill="#A9E8A1"/>
<path d="M50.689 83.7693C50.689 85.096 51.5819 86.4426 53.3479 87.4726L53.3678 84.6206C52.078 83.888 51.2644 82.9973 50.9072 82.0466C50.7683 81.67 50.689 81.294 50.689 80.918V83.7693Z" fill="white"/>
<path d="M54.4652 85.2958V88.1698M57.304 86.0891V88.9984M59.8988 86.1798V88.9984M62.6877 85.9338V88.6651M65.21 85.1971V87.9444M52.1144 83.8711V86.7971M67.2766 83.9838V86.7971" stroke="black" stroke-width="0.612307" stroke-miterlimit="10" stroke-linecap="round" stroke-linejoin="round"/>
<path d="M68.8853 80.918V83.7693C68.8853 85.116 67.9921 86.4426 66.2263 87.4726C62.6744 89.512 56.9 89.512 53.3479 87.4726C51.5819 86.4426 50.689 85.096 50.689 83.7693V80.918C50.689 81.294 50.7683 81.67 50.9072 82.0466C51.2644 82.9973 52.078 83.888 53.3678 84.6206C56.9198 86.6606 62.6744 86.6606 66.2263 84.6206C67.4964 83.888 68.3101 82.9973 68.6869 82.0466C68.8058 81.67 68.8853 81.294 68.8853 80.918Z" stroke="black" stroke-width="0.586802" stroke-miterlimit="10" stroke-linecap="round" stroke-linejoin="round"/>
<path d="M56.6139 82.8262L56.4693 82.9702L56.6612 83.0408L57.6093 83.3902L57.8012 83.4608L57.9458 83.3162L58.2964 82.9668C58.47 82.9942 58.6458 83.0095 58.8237 83.0122C59.2497 83.0188 59.6576 82.9568 60.0416 82.8222C60.4296 82.6868 60.7546 82.4848 61.0156 82.2242C61.3111 81.9295 61.4536 81.6368 61.4117 81.3555C61.3729 81.0808 61.1527 80.8108 60.7915 80.5435L60.7909 80.5428L60.0921 80.0308L60.0918 80.0302C59.9237 79.9082 59.8403 79.8115 59.8132 79.7408C59.7902 79.6748 59.8091 79.6288 59.8506 79.5868C59.8963 79.5415 59.9545 79.5088 60.0368 79.4862C60.1322 79.4602 60.2411 79.4488 60.3679 79.4555C60.4948 79.4635 60.6224 79.4915 60.7507 79.5428C60.8834 79.5955 60.9798 79.6608 61.0444 79.7368L61.0467 79.7395C61.1153 79.8155 61.1501 79.8988 61.153 79.9908L61.1531 79.9922C61.1573 80.0815 61.1294 80.1755 61.0657 80.2755L60.9704 80.4248L61.1752 80.4675L62.2807 80.6975L62.5119 80.7455L62.6117 80.5755C62.7752 80.2968 62.8531 80.0308 62.8381 79.7808C62.8271 79.5295 62.7248 79.3042 62.5332 79.1055C62.4757 79.0448 62.4106 78.9875 62.3381 78.9335L62.7071 78.5648L62.8517 78.4208L62.6599 78.3502L61.7118 78.0008L61.5199 77.9302L61.3753 78.0748L61.0297 78.4195C60.87 78.3935 60.7089 78.3782 60.5464 78.3748C60.1516 78.3662 59.7707 78.4255 59.4101 78.5555L59.4084 78.5562C59.0473 78.6882 58.7413 78.8842 58.4896 79.1355C58.2185 79.4062 58.0827 79.6795 58.1023 79.9488C58.1217 80.2162 58.2923 80.4628 58.5867 80.6908L59.5419 81.4315C59.6514 81.5188 59.6942 81.5875 59.7021 81.6382L59.703 81.6422C59.7117 81.6848 59.6971 81.7302 59.6389 81.7882C59.5609 81.8662 59.4432 81.9215 59.239 81.9422L59.2375 81.9428C59.0348 81.9642 58.8184 81.9395 58.5856 81.8542C58.3465 81.7662 58.2001 81.6422 58.1335 81.4828C58.0692 81.3242 58.0925 81.1515 58.2136 80.9568L58.304 80.8115L58.1078 80.7675L57.0579 80.5295L56.8475 80.4815L56.7331 80.6342C56.5164 80.9228 56.4024 81.2068 56.3978 81.4835C56.3951 81.7575 56.496 82.0082 56.697 82.2322L56.6978 82.2328C56.7754 82.3182 56.8666 82.3968 56.9709 82.4702L56.6139 82.8262Z" fill="#A9E8A1" stroke="black" stroke-width="0.612307"/>
<path d="M42.045 128.411C42.045 128.713 41.9596 129.016 41.81 129.319C41.4256 130.083 40.5498 130.801 39.1614 131.39C35.3594 133.031 29.1438 133.031 25.3205 131.39C23.9535 130.801 23.0777 130.083 22.6719 129.319C22.5438 129.016 22.4583 128.713 22.4583 128.411C22.4583 127.327 23.4195 126.26 25.3205 125.431C29.1438 123.775 35.3594 123.775 39.1828 125.431C41.0838 126.244 42.045 127.327 42.045 128.411Z" fill="black"/>
<path d="M42.576 124.072C42.576 124.448 42.4966 124.824 42.3577 125.2C42.0006 126.15 41.187 127.042 39.8972 127.774C36.3651 129.814 30.5906 129.814 27.0386 127.774C25.7686 127.042 24.9551 126.15 24.5781 125.2C24.459 124.824 24.3796 124.448 24.3796 124.072C24.3796 122.725 25.2726 121.398 27.0386 120.368C30.5906 118.309 36.3651 118.309 39.917 120.368C41.6831 121.378 42.576 122.725 42.576 124.072Z" fill="url(#paint0_linear_1_6281)" stroke="#080809" stroke-width="0.574887" stroke-miterlimit="10" stroke-linecap="round" stroke-linejoin="round"/>
<path d="M40.7445 124.077C40.7445 124.354 40.6849 124.631 40.5659 124.908C40.288 125.601 39.6332 126.275 38.6212 126.809C35.7836 128.314 31.1998 128.314 28.3621 126.809C27.3502 126.275 26.6953 125.601 26.4175 124.908C26.2985 124.631 26.239 124.354 26.239 124.077C26.239 123.087 26.9533 122.096 28.3621 121.344C31.1998 119.839 35.7836 119.839 38.6212 121.344C40.0301 122.096 40.7445 123.087 40.7445 124.077Z" fill="#A9E8A1" stroke="black" stroke-width="0.586802" stroke-miterlimit="10" stroke-linecap="round" stroke-linejoin="round"/>
<path d="M42.5584 126.925V124.073C42.5584 124.449 42.479 124.825 42.3599 125.201C41.9829 126.152 41.1693 127.043 39.8993 127.776C38.8888 128.356 37.6999 128.771 36.4341 129.021V131.872C37.7007 131.622 38.8898 131.207 39.8993 130.627C41.6654 129.598 42.5584 128.271 42.5584 126.925Z" fill="black"/>
<path d="M24.3796 126.925C24.3796 128.251 25.2726 129.598 27.0386 130.627C30.262 132.479 35.3155 132.649 38.8775 131.141V128.29C35.3185 129.798 30.2817 129.627 27.0585 127.776C25.7686 127.043 24.9551 126.152 24.5979 125.201C24.459 124.825 24.3796 124.449 24.3796 124.073V126.925Z" fill="#A9E8A1"/>
<path d="M24.3796 126.925C24.3796 128.251 25.2726 129.598 27.0386 130.627L27.0585 127.776C25.7686 127.043 24.9551 126.152 24.5979 125.201C24.459 124.825 24.3796 124.449 24.3796 124.073V126.925Z" fill="white"/>
<path d="M28.1869 128.259V131.324M31.0256 129.088V132.153M33.6204 129.088V132.153M36.4093 129.005V131.819M38.9316 128.259V131.099M25.836 126.887V129.952M40.9981 126.887V129.952" stroke="black" stroke-width="0.612307" stroke-miterlimit="10" stroke-linecap="round" stroke-linejoin="round"/>
<path d="M42.576 124.073V126.925C42.576 128.271 41.6831 129.598 39.917 130.627C36.3651 132.667 30.5906 132.667 27.0386 130.627C25.2726 129.598 24.3796 128.251 24.3796 126.925V124.073C24.3796 124.449 24.459 124.825 24.5979 125.201C24.9551 126.152 25.7686 127.043 27.0585 127.776C30.6104 129.815 36.3651 129.815 39.917 127.776C41.187 127.043 42.0006 126.152 42.3776 125.201C42.4966 124.825 42.576 124.449 42.576 124.073Z" stroke="black" stroke-width="0.586802" stroke-miterlimit="10" stroke-linecap="round" stroke-linejoin="round"/>
<path d="M30.3356 125.981L30.191 126.125L30.3828 126.196L31.3309 126.545L31.5228 126.616L31.6674 126.471L32.0181 126.121C32.1917 126.149 32.3674 126.165 32.5454 126.167C32.9713 126.174 33.3793 126.112 33.7632 125.977C34.1512 125.841 34.4762 125.64 34.7373 125.379C35.0328 125.084 35.1753 124.792 35.1334 124.511C35.0945 124.236 34.8744 123.965 34.5131 123.698L33.8138 123.185C33.6456 123.063 33.562 122.966 33.5348 122.895C33.5119 122.83 33.5308 122.783 33.5723 122.742C33.6179 122.697 33.6762 122.664 33.7584 122.641C33.8539 122.615 33.9628 122.603 34.0896 122.611C34.2165 122.619 34.344 122.646 34.4724 122.697L34.4726 122.698C34.6054 122.751 34.7014 122.815 34.7661 122.891L34.7684 122.894C34.837 122.971 34.8717 123.054 34.8746 123.145L34.8747 123.147C34.8789 123.237 34.8511 123.331 34.7874 123.431L34.692 123.58L34.8969 123.623L36.0023 123.853L36.2336 123.901L36.3333 123.731C36.4969 123.451 36.5747 123.186 36.5597 122.935C36.5488 122.685 36.4465 122.459 36.2548 122.261C36.1974 122.2 36.1323 122.143 36.0597 122.088L36.4288 121.72L36.5734 121.575L36.3815 121.505L35.4334 121.156L35.2416 121.085L35.0969 121.229L34.7513 121.575C34.5917 121.548 34.4306 121.533 34.268 121.53C33.8732 121.521 33.4924 121.58 33.1317 121.71L33.13 121.711C32.7689 121.843 32.463 122.039 32.2112 122.291C31.9401 122.561 31.8043 122.835 31.824 123.104C31.8434 123.371 32.014 123.618 32.3084 123.846L33.2635 124.587C33.3731 124.673 33.4159 124.743 33.4238 124.793L33.4246 124.797C33.4334 124.839 33.4188 124.885 33.3606 124.943C33.2825 125.021 33.1649 125.077 32.9607 125.097H32.9592C32.7564 125.119 32.54 125.095 32.3072 125.009C32.0682 124.921 31.9218 124.797 31.8552 124.638C31.7908 124.479 31.8142 124.306 31.9352 124.112L32.0256 123.967L31.8294 123.922L30.7796 123.685L30.5691 123.637L30.4547 123.789C30.2381 124.077 30.124 124.361 30.1194 124.639V124.639C30.1168 124.913 30.2176 125.163 30.4187 125.387L30.4194 125.388C30.497 125.473 30.5882 125.552 30.6926 125.625L30.3356 125.981Z" fill="#A9E8A1" stroke="black" stroke-width="0.612307"/>
<path d="M42.576 121.157C42.576 121.533 42.4966 121.909 42.3577 122.285C42.0006 123.236 41.187 124.127 39.8972 124.859C36.3651 126.899 30.5906 126.899 27.0386 124.859C25.7686 124.127 24.9551 123.236 24.5781 122.285C24.459 121.909 24.3796 121.533 24.3796 121.157C24.3796 119.81 25.2726 118.483 27.0386 117.453C30.5906 115.394 36.3651 115.394 39.917 117.453C41.6831 118.463 42.576 119.81 42.576 121.157Z" fill="#A9E8A1" stroke="#080809" stroke-width="0.574887" stroke-miterlimit="10" stroke-linecap="round" stroke-linejoin="round"/>
<path d="M40.7445 121.154C40.7445 121.431 40.6849 121.709 40.5659 121.986C40.288 122.679 39.6332 123.352 38.6212 123.887C35.7836 125.392 31.1998 125.392 28.3621 123.887C27.3502 123.352 26.6953 122.679 26.4175 121.986C26.2985 121.709 26.239 121.431 26.239 121.154C26.239 120.164 26.9533 119.174 28.3621 118.421C31.1998 116.917 35.7836 116.917 38.6212 118.421C40.0301 119.174 40.7445 120.164 40.7445 121.154Z" fill="white" stroke="black" stroke-width="0.586802" stroke-miterlimit="10" stroke-linecap="round" stroke-linejoin="round"/>
<path d="M42.5584 124.002V121.151C42.5584 121.527 42.479 121.904 42.3599 122.28C41.9829 123.23 41.1693 124.121 39.8993 124.854C38.8888 125.434 37.6999 125.85 36.4341 126.1V128.95C37.7007 128.7 38.8898 128.285 39.8993 127.706C41.6654 126.676 42.5584 125.349 42.5584 124.002Z" fill="black"/>
<path d="M24.3796 124.002C24.3796 125.329 25.2726 126.676 27.0386 127.706C30.262 129.556 35.3155 129.728 38.8775 128.219V125.368C35.3185 126.876 30.2817 126.705 27.0585 124.854C25.7686 124.121 24.9551 123.23 24.5979 122.28C24.459 121.904 24.3796 121.527 24.3796 121.151V124.002Z" fill="#A9E8A1"/>
<path d="M24.3796 124.002C24.3796 125.329 25.2726 126.676 27.0386 127.706L27.0585 124.854C25.7686 124.121 24.9551 123.23 24.5979 122.28C24.459 121.904 24.3796 121.527 24.3796 121.151V124.002Z" fill="white"/>
<path d="M28.1869 125.512V128.409M31.0256 126.288V129.238M33.6204 126.409V129.238M36.4093 126.288V128.905M38.9316 125.345V128.185M25.836 124.079V127.037M40.9981 123.973V127.037" stroke="black" stroke-width="0.612307" stroke-miterlimit="10" stroke-linecap="round" stroke-linejoin="round"/>
<path d="M42.576 121.151V124.002C42.576 125.349 41.6831 126.676 39.917 127.706C36.3651 129.745 30.5906 129.745 27.0386 127.706C25.2726 126.676 24.3796 125.329 24.3796 124.002V121.151C24.3796 121.527 24.459 121.904 24.5979 122.28C24.9551 123.23 25.7686 124.121 27.0585 124.854C30.6104 126.894 36.3651 126.894 39.917 124.854C41.187 124.121 42.0006 123.23 42.3776 122.28C42.4966 121.904 42.576 121.527 42.576 121.151Z" stroke="black" stroke-width="0.586802" stroke-miterlimit="10" stroke-linecap="round" stroke-linejoin="round"/>
<path d="M46.6665 117.067C46.6665 117.443 46.5871 117.819 46.4482 118.195C46.091 119.146 45.2775 120.037 43.9876 120.77C40.4555 122.809 34.6811 122.809 31.1291 120.77C29.8591 120.037 29.0456 119.146 28.6685 118.195C28.5495 117.819 28.4701 117.443 28.4701 117.067C28.4701 115.72 29.3631 114.393 31.1291 113.363C34.6811 111.304 40.4555 111.304 44.0075 113.363C45.7735 114.373 46.6665 115.72 46.6665 117.067Z" fill="#A9E8A1" stroke="#080809" stroke-width="0.574887" stroke-miterlimit="10" stroke-linecap="round" stroke-linejoin="round"/>
<path d="M44.835 117.072C44.835 117.349 44.7754 117.627 44.6563 117.904C44.3786 118.597 43.7237 119.27 42.7117 119.805C39.8741 121.31 35.2903 121.31 32.4527 119.805C31.4406 119.27 30.7858 118.597 30.508 117.904C30.3889 117.627 30.3294 117.349 30.3294 117.072C30.3294 116.082 31.0438 115.092 32.4527 114.339C35.2903 112.835 39.8741 112.835 42.7117 114.339C44.1206 115.092 44.835 116.082 44.835 117.072Z" fill="white" stroke="black" stroke-width="0.586802" stroke-miterlimit="10" stroke-linecap="round" stroke-linejoin="round"/>
<path d="M46.6799 119.92V117.069C46.6799 117.445 46.6005 117.821 46.4815 118.198C46.1044 119.148 45.2909 120.039 44.0209 120.772C43.0103 121.352 41.8214 121.768 40.5557 122.018V124.868C41.8222 124.618 43.0113 124.203 44.0209 123.624C45.787 122.594 46.6799 121.267 46.6799 119.92Z" fill="black"/>
<path d="M28.4701 119.92C28.4701 121.247 29.3631 122.594 31.1291 123.624C34.3524 125.474 39.4059 125.646 42.968 124.137V121.286C39.409 122.794 34.3721 122.623 31.149 120.772C29.8591 120.039 29.0456 119.148 28.6883 118.198C28.5495 117.821 28.4701 117.445 28.4701 117.069V119.92Z" fill="#A9E8A1"/>
<path d="M28.4701 119.92C28.4701 121.247 29.3631 122.594 31.1291 123.624L31.149 120.772C29.8591 120.039 29.0456 119.148 28.6883 118.198C28.5495 117.821 28.4701 117.445 28.4701 117.069V119.92Z" fill="white"/>
<path d="M32.2774 121.431V124.076M35.1162 122.207V124.827M37.711 122.328V125.08M40.4998 122.207V124.824M43.0222 121.264V124.104M29.9266 119.999V122.718M45.0886 120.153V122.957" stroke="black" stroke-width="0.612307" stroke-miterlimit="10" stroke-linecap="round" stroke-linejoin="round"/>
<path d="M46.6665 117.069V119.92C46.6665 121.267 45.7735 122.594 44.0075 123.624C40.4555 125.663 34.6811 125.663 31.1291 123.624C29.3631 122.594 28.4701 121.247 28.4701 119.92V117.069C28.4701 117.445 28.5495 117.821 28.6883 118.198C29.0456 119.148 29.8591 120.039 31.149 120.772C34.7009 122.812 40.4555 122.812 44.0075 120.772C45.2775 120.039 46.091 119.148 46.4681 118.198C46.5871 117.821 46.6665 117.445 46.6665 117.069Z" stroke="black" stroke-width="0.586802" stroke-miterlimit="10" stroke-linecap="round" stroke-linejoin="round"/>
<path d="M34.2402 119.209L34.0955 119.353L34.2875 119.423L35.2355 119.773L35.4273 119.843L35.572 119.699L35.9226 119.349C36.0963 119.377 36.272 119.392 36.4499 119.395C36.8759 119.401 37.2838 119.339 37.6678 119.205C38.0558 119.069 38.3808 118.867 38.6418 118.607C38.9373 118.312 39.0798 118.019 39.038 117.738C38.9991 117.463 38.779 117.193 38.4177 116.926L38.4171 116.925L37.7183 116.413L37.718 116.413C37.5499 116.291 37.4665 116.194 37.4394 116.123C37.4164 116.057 37.4353 116.011 37.4769 115.969C37.5225 115.924 37.5807 115.891 37.6629 115.868C37.7584 115.842 37.8673 115.831 37.9941 115.838C38.1211 115.846 38.2486 115.874 38.3769 115.925C38.5097 115.978 38.606 116.043 38.6706 116.119L38.6729 116.122C38.7415 116.198 38.7763 116.281 38.7792 116.373L38.7793 116.375C38.7835 116.464 38.7556 116.558 38.6919 116.658L38.5966 116.807L38.8014 116.85L39.9069 117.08L40.1382 117.128L40.2379 116.958C40.4014 116.679 40.4793 116.413 40.4643 116.163C40.4534 115.912 40.351 115.687 40.1594 115.488C40.102 115.427 40.0368 115.37 39.9643 115.316L40.3333 114.947L40.4779 114.803L40.2861 114.733L39.338 114.383L39.1461 114.312L39.0015 114.457L38.6559 114.802C38.4962 114.776 38.3351 114.761 38.1726 114.757C37.7778 114.749 37.3969 114.808 37.0363 114.938L37.0346 114.939C36.6735 115.071 36.3676 115.266 36.1157 115.518C35.8447 115.788 35.7089 116.062 35.7285 116.331C35.7479 116.599 35.9186 116.845 36.2129 117.073L37.1681 117.814C37.2776 117.901 37.3204 117.97 37.3283 118.021L37.3292 118.025C37.3379 118.067 37.3233 118.113 37.2652 118.171C37.1871 118.249 37.0694 118.304 36.8653 118.325L36.8637 118.325C36.6609 118.347 36.4447 118.322 36.2118 118.237C35.9727 118.149 35.8263 118.025 35.7598 117.865C35.6954 117.707 35.7188 117.534 35.8398 117.339L35.9302 117.194L35.7341 117.15L34.6841 116.912L34.4737 116.864L34.3593 117.016C34.1426 117.304 34.0286 117.589 34.024 117.866V117.867C34.0213 118.141 34.1222 118.391 34.3232 118.615L34.324 118.615C34.4016 118.701 34.4927 118.779 34.5972 118.853L34.2402 119.209Z" fill="#A9E8A1" stroke="black" stroke-width="0.612307"/>
<defs>
<linearGradient id="paint0_linear_1_6281" x1="25.5318" y1="127.256" x2="39.9221" y2="120.141" gradientUnits="userSpaceOnUse">
<stop stop-color="#A9E8A1"/>
<stop offset="1" stop-color="#A9E8A1"/>
</linearGradient>
</defs>
</svg>
