<svg width="116" height="116" viewBox="0 0 116 116" fill="none" xmlns="http://www.w3.org/2000/svg">
<g clip-path="url(#clip0_1_8947)">
<rect x="3.29945" y="0.299451" width="108.401" height="108.401" rx="9.28297" stroke="#DFE0E2" stroke-width="0.598901"/>
<path d="M35.9276 14.2671H34.3814V15.8133V17.3597H35.9276H37.474V15.8133H35.9276V14.2671Z" fill="white"/>
<path d="M69.9458 15.8133V14.2671H68.3995H66.8532V15.8133H68.3995H69.9458Z" fill="white"/>
<path d="M73.0385 15.8133H74.5847V17.3597H76.1311V15.8133V14.2671H74.5847H73.0385H71.4922V15.8133V17.3597H73.0385V15.8133Z" fill="white"/>
<path d="M71.4921 17.3594H69.9458V18.9057H71.4921V17.3594Z" fill="white"/>
<path d="M35.9276 18.9058H34.3814V20.452V21.9983H35.9276V20.452V18.9058Z" fill="white"/>
<path d="M37.4739 21.9985H35.9275V23.5449H37.4739V21.9985Z" fill="white"/>
<path d="M35.9276 25.0913H34.3814V26.6376H35.9276H37.474V25.0913H35.9276Z" fill="white"/>
<path d="M43.6591 29.73H42.1127V31.2762V32.8225H43.6591V31.2762H45.2054V32.8225H46.7517V31.2762V29.73H45.2054H43.6591Z" fill="white"/>
<path d="M31.2887 32.8227H32.8351H34.3813V31.2764H32.8351H31.2887H29.7425H28.1962V32.8227V34.369H29.7425V32.8227H31.2887Z" fill="white"/>
<path d="M49.8441 31.2764H48.2978V32.8227H49.8441V31.2764Z" fill="white"/>
<path d="M85.4086 31.2764H83.8624V32.8227H85.4086V31.2764Z" fill="white"/>
<path d="M88.5013 31.2764H86.9551V32.8227H88.5013V31.2764Z" fill="white"/>
<path d="M91.5938 31.2764H90.0475V32.8227H91.5938V31.2764Z" fill="white"/>
<path d="M18.9186 32.8227V31.2764H17.3723V32.8227V34.369H18.9186V32.8227Z" fill="white"/>
<path d="M60.6681 34.3687H62.2145V35.915H60.6681V37.4613H59.1218V39.0076H60.6681V40.5539H62.2145H63.7607V42.1001V43.6464H62.2145V45.1928H63.7607H65.3071H66.8533V46.7391V48.2853H68.3995V49.8316H69.9458V48.2853V46.7391V45.1928H68.3995V43.6464H66.8533V42.1001H68.3995H69.9458V40.5539H68.3995H66.8533H65.3071V39.0076H63.7607H62.2145V37.4613H63.7607V35.915H65.3071V37.4613V39.0076H66.8533H68.3995H69.9458V40.5539H71.4921V39.0076V37.4613V35.915H69.9458V34.3687H71.4921V32.8224V31.2761H69.9458V32.8224H68.3995V34.3687H66.8533V32.8224H65.3071V31.2761H66.8533V32.8224H68.3995V31.2761V29.7299H69.9458H71.4921H73.0384H74.5846V28.1836H76.131V29.7299V31.2761H74.5846V32.8224H73.0384V34.3687V35.915V37.4613V39.0076V40.5539V42.1001V43.6464H74.5846V42.1001H76.131V40.5539V39.0076H74.5846V37.4613V35.915V34.3687H76.131V32.8224H77.6772H79.2234V31.2761H77.6772V29.7299H79.2234V28.1836H80.7697V26.6373V25.0909V23.5447V21.9984H79.2234V23.5447H77.6772V21.9984H79.2234V20.4521H80.7697V18.9059V17.3596V15.8133V14.2671H79.2234V15.8133H77.6772V17.3596H79.2234V18.9059H77.6772V17.3596H76.131V18.9059H74.5846V17.3596H73.0384V18.9059H71.4921V20.4521H73.0384V21.9984H71.4921V20.4521H69.9458V21.9984H68.3995V23.5447V25.0909H69.9458V23.5447H71.4921H73.0384H74.5846H76.131V25.0909H77.6772H79.2234V26.6373H77.6772H76.131V25.0909H74.5846V26.6373H73.0384H71.4921V25.0909H69.9458V26.6373V28.1836H68.3995V26.6373H66.8533H65.3071H63.7607V28.1836H65.3071V29.7299H63.7607V31.2761V32.8224H62.2145H60.6681H59.1218V34.3687H60.6681ZM66.8533 35.9149H68.3995V37.4612H66.8533V35.9149ZM76.1311 21.9984H74.5847V20.4521H76.1311V21.9984Z" fill="white"/>
<path d="M59.1218 32.8224V31.3417H62.3557V23.5447H63.7606V25.0909H65.307V23.5447H66.8532V21.9984V20.4521H68.3994V18.9059H66.8532V17.3596H65.307V18.9059H63.7606V20.4521H62.2144V18.9059H63.7606V17.3596H65.307V15.8133V14.2671H63.7606V15.8133H62.2144V14.2671H60.668H59.1217H57.5754V15.8133V17.3596H56.0292V15.8133V14.2671H54.483V15.8133H52.9366V14.2671H51.3905V15.8133H49.8441V14.2671H48.2978V15.8133H46.7516V14.2671H45.2053V15.8133H43.659V14.2671H42.1127H40.5665H39.0203H37.474V15.8133H39.0203V17.3596V18.9059H40.5665H42.1127V17.3596H40.5665V15.8133H42.1127V17.3596H43.659V18.9059H45.2053V17.3596H46.7516V18.9059H48.2978H49.8441V17.3596H51.3905V18.9059H49.8441V20.4521H48.2978H46.7516V18.9059H45.2053V20.4521H43.659V18.9059H42.1127V20.4521V21.9984H40.5665V20.4521H39.0203H37.474V21.9984H39.0203V23.5447H37.474V25.0909H39.0203V26.6373H40.5665V28.1836H39.0203V26.6373H37.474V28.1836V29.7299H39.0203H40.5665H42.1127V28.1836V26.6373H43.659V28.1836H45.2053H46.7516V29.7299H48.2978H49.8441H51.3905V28.1836H52.909V31.2761H51.3905V32.8224H52.9366V31.3417H56.0293V32.8224H57.5755H59.1218ZM42.1127 25.0909H40.5665V23.5447H42.1127V25.0909ZM59.1218 15.8133H60.6681V17.3596H59.1218V15.8133ZM57.5755 18.9059H59.1218V20.452H57.5755V18.9059ZM52.9366 21.9984C52.909 21.9984 51.3905 21.9984 51.3905 21.9984V23.5447H49.8441V25.0909H51.3905V26.6373H49.8441H48.2978V25.0909H46.7516H45.2053H43.659V23.5447H45.2053V21.9984H46.7516H48.2978H49.8441H51.3905V20.4521H52.9366V21.9984ZM52.9366 18.9059V17.3595H54.483V18.9059H56.0292V20.452H54.483V18.9059H52.9366ZM54.6519 29.6804V23.6379H60.6946V29.6804H54.6519Z" fill="white"/>
<path d="M42.1127 35.9152V34.369H40.5665V32.8227H39.0203V31.2764H37.474H35.9275V32.8227H37.474V34.369H39.0203V35.9152H40.5665H42.1127Z" fill="white"/>
<path d="M59.1218 34.3691H57.5755V35.9154H59.1218V34.3691Z" fill="white"/>
<path d="M77.6773 34.3691H76.1311V35.9154H77.6773V34.3691Z" fill="white"/>
<path d="M79.2235 35.9153H80.7698V37.4616H82.316V35.9153V34.3691H80.7698V32.8228H79.2235V34.3691V35.9153Z" fill="white"/>
<path d="M20.4648 37.4615H22.0111H23.5574V39.0078H25.1037H26.65V37.4615H25.1037V35.9152V34.369H26.65V32.8227V31.2764H25.1037V32.8227H23.5574H22.0111V31.2764H20.4648V32.8227V34.369H22.0111H23.5574V35.9152H22.0111H20.4648H18.9186H17.3723V37.4615V39.0078H18.9186V37.4615H20.4648Z" fill="white"/>
<path d="M31.2887 35.9153V34.3691H29.7425V35.9153H28.1962V37.4616V39.008H29.7425H31.2887V37.4616V35.9153Z" fill="white"/>
<path d="M43.659 37.4612V39.0075V40.5539H45.2053V42.1001H43.659V43.6464H45.2053V45.1927H46.7516H48.2978V46.739H46.7516V48.2852H48.2978H49.8441H51.3905V46.739H52.9366H54.483V48.2852V49.8225H52.9366V48.2852H51.3905V49.8315H52.909V51.3777H51.3905V49.8315H49.8441V51.3777H48.2978V49.8315H46.7516V48.2852H45.2053H43.659V46.739V45.1927V43.6464H42.1127H40.5665V45.1927H39.0203V46.739V48.2852H37.474V49.8315V51.3777H39.0203V52.924H40.5665H42.1127H43.659V51.3777H42.1127H40.5665V49.8315V48.2852H42.1127V49.8315H43.659V51.3777H45.2053V52.924H43.659V54.4704V56.0167V57.5629H45.2053V56.0167H46.7516V57.5629H45.2053V59.1092H43.659H42.1127V57.5629V56.0167V54.4704H40.5665V56.0167V57.5629V59.1092V60.6555H42.1127V62.2018H40.5665V63.748H42.1127H43.659H45.2053V62.2018H46.7516V63.748H48.2978V62.2018H49.8441H51.1582H51.3905H52.9091H53.0012H54.7077V63.748H55.7972V65.2943V66.8406H57.3434V65.2943V63.748H56.2539V62.2018H57.8003H59.1143H59.3464H60.9573V60.6555H59.3464H59.1143H57.8003V59.1876H62.3557V57.5629H63.7606V56.0167V54.4704H65.307V52.924H63.7606V51.3777H62.3557V49.8315H63.7606V48.2852H62.2144V49.8225H60.668V48.2852H62.2144V46.739H60.668H59.1217V45.1927V43.6464H57.5754H56.0292V45.1927H54.483H52.9366H51.3905V43.6464H49.8441H48.2978V42.1001H49.8441H51.3905V43.6464H52.9366V42.1001V40.5539H51.3905V39.0075H52.9366V37.4612H51.3905V35.9149H49.8441H48.2978V37.4612V39.0075H49.8441V40.5539H48.2978H46.7516V39.0075V37.4612V35.9149H45.2053V34.3687H43.659V35.9149H42.1127V37.4612H43.659ZM48.2978 60.6555H46.7516V59.1092H48.2978V60.6555ZM48.2978 56.0167V54.4704H49.8441V56.0167H48.2978ZM51.3905 60.6555H51.1582H49.8441V59.1092V57.5629H51.3905V56.0167V54.4704V52.924H52.909V59.1876L52.9091 60.6555H51.3905ZM56.2539 60.6555H54.7076V59.1876H56.2539V60.6555ZM56.0293 48.2852V46.739H57.5755V48.2852H59.1218V49.8225H56.0293V48.2852ZM54.6519 51.4838H60.6681V52.924V54.4704C60.6946 54.4704 60.6946 57.5263 60.6946 57.5263H54.6519V51.4838Z" fill="white"/>
<path d="M52.9367 37.4616H54.4831V35.9153H56.0293V34.3691V32.8228H54.4831V34.3691H52.9367H51.3905V35.9153H52.9367V37.4616Z" fill="white"/>
<path d="M57.5755 35.915H56.0293V37.4614H57.5755V35.915Z" fill="white"/>
<path d="M79.2234 35.915H77.6772V37.4614H79.2234V35.915Z" fill="white"/>
<path d="M42.1127 39.0077V37.4614H40.5665H39.0203V39.0077H40.5665H42.1127Z" fill="white"/>
<path d="M83.8625 37.4614H82.3162V39.0077H83.8625V37.4614Z" fill="white"/>
<path d="M88.5012 37.4616H90.0475V35.9153H88.5012V34.3691H86.955V32.8228H85.4087V34.3691H83.8624V35.9153H85.4087V37.4616H86.955V39.0079H88.5012V37.4616Z" fill="white"/>
<path d="M54.4831 42.1003H56.0293H57.5754H59.1218H60.6681V40.5541H59.1218V39.0077H57.5754V40.5541H56.0293V39.0077V37.4614H54.4831V39.0077H52.9366V40.5541H54.4831V42.1003Z" fill="white"/>
<path d="M82.3161 40.5541V39.0078H80.7698H79.2235H77.6772V40.5541H79.2235H80.7698V42.1003H82.3161H83.8624V43.6466V45.193H85.4086V43.6466V42.1003H86.955H88.5012V40.5541H86.955V39.0078H85.4086H83.8624V40.5541H82.3161Z" fill="white"/>
<path d="M40.5665 42.1004H42.1127V40.5542H40.5665H39.0203V42.1004V43.6467H40.5665V42.1004Z" fill="white"/>
<path d="M77.6773 42.1001H76.1311V43.6464V45.1927V46.7391H77.6773V45.1927V43.6464H79.2235V42.1001H77.6773Z" fill="white"/>
<path d="M73.0385 45.1929H71.4922V46.7392H73.0385H74.5847V45.1929H73.0385Z" fill="white"/>
<path d="M35.9276 46.7393H34.3814V48.2854H35.9276V46.7393Z" fill="white"/>
<path d="M73.0385 48.2852H71.4922V49.8315H73.0385V48.2852Z" fill="white"/>
<path d="M25.1037 49.8315H23.5574V51.3777H25.1037V49.8315Z" fill="white"/>
<path d="M76.131 66.8407H77.6772H79.2235H80.7698V65.2944H79.2235V63.748H77.6772V65.2944H76.131H74.5846V66.8407H76.131Z" fill="white"/>
<path d="M68.3996 56.0166V54.4703V52.924H69.9458H71.4921V51.3777H69.9458H68.3996H66.8533V49.8315V48.2852H65.3071V49.8315H63.7607V51.3777H65.3071V52.924H66.8533V54.4703V56.0166H65.3071V57.5628H63.7607V59.1091H65.3071H66.8533H68.3996V57.5628V56.0166Z" fill="white"/>
<path d="M90.0474 59.1094H88.5013V60.6557H90.0474V59.1094Z" fill="white"/>
<path d="M86.955 63.7483H86.8905V62.2021V60.6558H85.3442H83.7978H82.2516H80.7698H80.7053H79.2235V62.2021V63.7483H80.7698V62.2021H82.2516V63.7483H83.7978H85.3442H85.4086V65.2946H83.8624V66.8409V68.3872V69.9334H85.4086H86.955V68.3872H85.4086V66.8409H86.955V65.2946V63.7483Z" fill="white"/>
<path d="M25.1037 65.2944V63.748H23.5574H22.0111V65.2944H23.5574V66.8407H25.1037V65.2944Z" fill="white"/>
<path d="M45.2053 66.8407H46.7516V65.2944V63.748H45.2053V65.2944V66.8407Z" fill="white"/>
<path d="M93.1401 65.2944H91.5938V66.8408H93.1401V65.2944Z" fill="white"/>
<path d="M46.7516 68.3872H45.2053V69.9334H46.7516V68.3872Z" fill="white"/>
<path d="M65.3071 68.3872H63.7607V69.9334H65.3071V68.3872Z" fill="white"/>
<path d="M73.0385 68.3872H71.4921H69.9458V69.9334H71.4921V71.4797H73.0385H74.5847V69.9334H73.0385V68.3872Z" fill="white"/>
<path d="M76.1309 68.3872H74.5846V69.9334H76.1309V68.3872Z" fill="white"/>
<path d="M18.9185 74.5723H17.3723V76.1186H18.9185V74.5723Z" fill="white"/>
<path d="M28.1962 74.5723V76.1186H29.7425V77.6649H31.2887H32.8351V76.1186H31.2887V74.5723H29.7425H28.1962Z" fill="white"/>
<path d="M83.8624 74.5723V76.1186H82.3161V77.5994H80.7697V76.1186H79.2234V74.5723H80.7697H82.3161H83.8624V73.0261V71.4797V69.9334H82.3161H80.7697V68.3872H79.2234H77.6772V69.9334H76.1311V71.4797V73.0261H74.5847H73.0385H71.4922H69.9458V74.5723H71.4922V76.1186H69.9458V74.5723H68.3995H66.8533V76.1186H68.3995V77.6649H66.8533V79.2111H65.3071V77.6649H66.8533V76.1186H65.3071H63.7607V74.5723V73.0261H65.3071V74.5723H66.8533V73.0261H68.3995V71.4797H66.8533H65.3071H63.7607V69.9334H62.2145V68.3872H60.701V66.8409H62.2145V68.3872H63.7607V66.8409H65.3071V68.3872H66.8533V69.9334H68.3995V68.3872V66.8409H66.8533V65.2946H65.3071V63.7483H66.8533V62.2021H68.3995V60.6558H66.8533H65.3071H63.7607H62.2145V62.2021V63.7483H63.7607V65.2946H62.2473C62.2145 65.2946 60.701 65.2946 60.701 65.2946H58.8893L58.8897 68.3872V69.9334H57.5756V68.3872H57.3435H56.0294H55.7973H54.4832H54.2509H52.9368H52.7047V66.8409H54.2509V65.2946H52.7047H51.3907H51.1584H49.8443V63.7483H48.298V65.2946V66.8409H49.8443H51.1584V68.3872V69.9334H49.8443V68.3872H48.298V69.9334V71.4797H46.7518H45.2055V69.9334H43.6592V71.4797H42.1129V69.9334H43.6592V68.3872H42.1129V66.8409H43.6592V65.2946H42.1129H40.5667V66.8409V68.3872V69.9334H39.0205V68.3872H37.4742V69.9334H35.9278H34.3816V68.3872V66.8409H32.8354V68.3872H31.289V66.8409H29.7428V68.3872V69.9334V71.4797V73.0261H31.289V74.5723H32.8354H34.3816V76.1186V77.6649V79.2111H35.9278V80.7574H37.4742V79.2111H39.0205V77.6649H37.4742H35.9278V76.1186V74.5723V73.0261H34.3816V71.4797H35.9278V73.0261H37.4742V71.4797H39.0205H40.5667V73.0261H39.0205H37.4742V74.5723V76.1186H39.0205V74.5723H40.5667V76.1186H39.0205V77.6649H40.5667V79.2111H42.1129V80.7574H40.5667H39.0205V82.3037H40.5667V83.85H39.0205H37.4742V82.3037H35.9278H34.3816V83.85H35.9278V85.3962H34.3816V86.9426V88.4889V90.0351V91.5814V93.1277V94.674H35.9278H37.4742H39.0205V93.1277H40.5667V94.674H42.1129V93.1277V91.5814H40.5667H39.0205H37.4742V93.1277H35.9278V91.5814H37.4742V90.0351H35.9278V88.4889V86.9426H37.4742H39.0205V85.3962H40.5667V86.9426H42.1129V85.3962V83.85H43.6592H45.2055V85.3962H43.6592V86.9426H45.2055V88.4889H46.7518V90.0351H45.2055V91.5814H46.7518V93.1277H45.2055V94.674H46.7518H48.298H49.8443H51.3907V93.1277H49.8443V91.5814V90.0351H48.298V88.4889H49.8443V90.0351H51.3907H52.9368V91.5814H51.3907V93.1277H52.9368V94.674H54.4832H56.0294V93.1277V91.5814H54.4832V90.0351V88.4889H52.9368H51.3907V86.9426V85.3962V83.85V82.3037V80.7574H52.9909V86.9645H60.6683V88.4889H62.2146V90.0351H60.6683V91.5814H62.2146V93.1277H60.6683V94.674H62.2146H63.7609H65.3073H66.8535V93.1277H65.3073V91.5814V90.0351H63.7609V88.4889H65.3073V90.0351H66.8535H68.3996V91.5814H66.8535V93.1277H68.3996V94.674H69.946H71.4923V93.1277V91.5814H69.946V90.0351V88.4889V86.9426V85.3962H68.3996V83.85H66.8535H65.3073V85.3962H66.8535V86.9426H68.3996V88.4889H66.8535V86.9426H65.3073V85.3962H63.7609V86.9426H62.356V79.2111H63.7609V80.7574V82.3037H65.3073V80.7574H66.8535V82.3037H68.3996V80.7574V79.2111H69.946V77.6649H71.4923V79.2111H69.946V80.7574H71.4923V82.3037H69.946V83.85H71.4923V85.3962V86.9426H73.0386V88.4889H71.4923V90.0351H73.0386V91.5814V93.1277H74.5848V94.674H76.1312V93.1277V91.5814H77.6774V90.0351H76.1312V88.4889H74.5848V86.9426H76.1312V88.4889H77.6774V90.0351H79.2236V91.5814H80.7699H82.3162V93.1277V94.674H83.8625V93.1277V91.5814H85.4087V93.1277V94.674H86.9551H88.5013V93.1277V91.5814H86.9551V90.0351V88.4889H85.4087V90.0351H83.8624V88.4889H82.3161H80.7697H79.2234V86.9645H88.4804V77.5995H86.955V76.1186V74.5723H85.4086L83.8624 74.5723ZM79.2235 71.4797H80.7698H82.3161V73.0261H80.7698H79.2235V71.4797ZM32.8351 71.4797H31.2887V69.9334H32.8351V71.4797ZM54.4831 69.9334H55.7972H56.0293V71.4797H54.4831V69.9334ZM51.3905 71.4797V69.9334H52.7045H52.9366V71.4797V73.0261H51.3905V71.4797ZM45.2053 74.5723H46.7516V73.0261H48.2978H49.8441V74.5723H48.2978H46.7516V76.1186H48.2978V77.6649H46.7516V76.1186H45.2053V74.5723ZM42.1127 73.0261H43.659V74.5723H42.1127V73.0261ZM49.8441 85.3962V86.9426H48.2978H46.7516V85.3962V83.85H48.2978H49.8441V85.3962ZM49.8441 80.7574H48.2978V82.3037H46.7516H45.2053V80.7574H43.659V79.2111V77.6649H42.1127V76.1186H43.659V77.6649H45.2053V79.2111V80.7574H46.7516V79.2111H48.2978H49.8441V80.7574ZM54.6519 85.3031V79.2606H60.6681V80.7574C60.6946 80.7574 60.6946 85.3031 60.6946 85.3031H54.6519ZM62.2144 77.5994H60.6681V76.1186H62.2144V77.5994ZM62.2144 74.5723H60.6681H59.1218V76.1186H57.5755V77.5994H52.9907V79.2111H51.3905V77.6649H49.8441V76.1186H51.3905H52.9366V74.5723H54.483V73.0261H56.0292V74.5723H54.483V76.1186H56.0292H57.5754V74.5723V73.0261V71.4797H59.1217V69.9334H60.4358H60.668V71.4797V73.0261H62.2143V74.5723H62.2144ZM74.5846 85.3962H73.0384V83.85H74.5846V85.3962ZM74.5846 80.7574V82.3037H73.0384V80.7574H74.5846V79.2111H73.0384V77.6649H74.5846V76.1186V74.5723H76.131H77.6772V76.1186H76.131V77.6649H74.5846V79.2111H76.131V80.7574H74.5846ZM79.1154 85.3962H77.6772V83.85H76.1311V82.3037H77.6772V83.85H79.1154V85.3962ZM79.1154 79.2111H77.6772V77.6649H79.1154V79.2111ZM86.8192 85.3031H80.7766V79.2606H86.8192V85.3031Z" fill="white"/>
<path d="M94.6863 35.915V37.4614V39.0077H96.2326V37.4614H97.7789V35.915H96.2326H94.6863Z" fill="white"/>
<path d="M96.2326 42.1004V43.6467H94.6864V42.1004H93.1401V40.5542V39.0079V37.4616V35.9153V34.369H94.6864H96.2326V32.8227V31.2764H94.6864V32.8227H93.1401H91.5938V34.369V35.9153V37.4616V39.0079H90.0475V40.5542V42.1004H91.5938V43.6467H90.0475V42.1004H88.5013V43.6467H86.9551V45.193V46.7394H85.4087H83.8624V45.193H82.316V43.6467H80.7697H79.2234V45.193V46.7394V48.2856H77.6772V49.8319H79.1154V51.3781H77.6772H76.131V49.8319V48.2856V46.7394H74.5846V48.2856V49.8319V51.3781H73.0385V52.9244V54.4707H74.5846H76.131H77.6772V52.9244H79.1154V56.017H77.6772H76.131H74.5846H73.0385V57.5632H71.4921V56.017H73.0385V54.4707H71.4921H69.9458V56.017V57.5632V59.1095H68.3995V60.6558H69.9458V62.2022H71.4921V63.7484H69.9458V62.2022H68.3995V63.7484H66.8533V65.2947H68.3995V66.841H69.9458H71.4921V65.2947H73.0385H74.5846V63.7484H76.131H77.6772V62.2022H76.131H74.5846V60.6558H76.131V59.1095H74.5846V57.5632H76.131V59.1095H77.6772H79.1154C79.1154 59.1235 88.5387 59.1061 88.5387 59.1061V54.4707H90.0475H91.5938V52.9244H90.0475V51.3781V49.8319H88.5387C88.5595 49.8145 88.5013 48.2856 88.5013 48.2856H90.0475V46.7394H88.5013V45.193H90.0475V46.7394H91.5938V48.2856H90.0475V49.8319H91.5938V51.3781H93.1401H94.6864H96.2326V52.9244H94.6864H93.1401V54.4707V56.017H91.5938H90.0475V57.5632V59.1095H91.5938H93.1401V60.6558H91.5938H90.0475V62.2022H91.5938V63.7484H93.1401V65.2947H94.6864V66.841H96.2326V68.3873V69.9335H94.6864H93.1401V68.3873H91.5938V66.841H90.0475V65.2947H91.5938V63.7484H90.0475H88.5013V65.2947V66.841H86.9551V68.3873H88.5013V69.9335V71.4798H90.0475V69.9335H91.5938V71.4798H90.0475V73.0261H88.5013V71.4798H86.9551V73.0261V74.5723H88.5013V76.1187H90.0475H91.5938H93.1401H94.6864H96.2326V74.5723H94.6864H93.1401H91.5938V73.0261H93.1401H94.6864V71.4798H96.2326V73.0261H97.7789V71.4798V69.9335V68.3873V66.841V65.2947H96.2326V63.7484V62.2022H97.7789V60.6558V59.1095V57.5632V56.017H96.2326V54.4707H97.7789V52.9244V51.3781V49.8319V48.2856H96.2326V46.7394H94.6864H93.1401V45.193H94.6864H96.2326V46.7394H97.7789V45.193V43.6467V42.1004V40.5542V39.0079H96.2326V40.5542V42.1004ZM73.0384 60.6558H71.4921V59.1095H73.0384V60.6558ZM80.7698 48.2856H82.3161H83.8624H85.4086V49.7584H80.7698V48.2856ZM86.8192 57.4622H80.7766V51.4197H86.8192V57.4622ZM96.2326 60.6558H94.6864V59.1095H96.2326V60.6558Z" fill="white"/>
<path d="M97.779 77.6646H96.2327V79.2107H97.779V77.6646Z" fill="white"/>
<path d="M91.5938 80.7571V79.2107V77.6646H90.0475V79.2107V80.7571V82.3034H91.5938V80.7571Z" fill="white"/>
<path d="M40.5665 86.9424H39.0203V88.4887V90.0349H40.5665H42.1127V88.4887H40.5665V86.9424Z" fill="white"/>
<path d="M43.6591 86.9424H42.1127V88.4887H43.6591V86.9424Z" fill="white"/>
<path d="M91.5938 86.9426H93.1401V85.3963V83.8501H91.5938H90.0475V85.3963V86.9426V88.4889H91.5938V86.9426Z" fill="white"/>
<path d="M90.0474 88.4888H88.5013V90.035H90.0474V88.4888Z" fill="white"/>
<path d="M91.5938 90.0347H90.0475V91.581H91.5938V90.0347Z" fill="white"/>
<path d="M45.2054 91.5811H43.6591V93.1274H45.2054V91.5811Z" fill="white"/>
<path d="M77.6772 93.1274V94.6737H79.2235V93.1274V91.5811H77.6772V93.1274Z" fill="white"/>
<path d="M94.6864 82.3034V80.7571V79.2107V77.6646H93.1401V79.2107V80.7571V82.3034V83.8497H94.6864H96.2326V85.3959H94.6864V86.9422H93.1401V88.4885H94.6864V90.0347H93.1401V91.581H91.5938V93.1274H93.1401H94.6864V94.6737H96.2326H97.779V93.1274H96.2326V91.581H97.779V90.0347H96.2326V88.4885V86.9422H97.779V85.3959V83.8497V82.3034H96.2326H94.6864Z" fill="white"/>
<path d="M59.1218 91.5813V90.035V88.4888H57.5755H56.0293V90.035H57.5755V91.5813V93.1276H59.1218H60.6681V91.5813H59.1218Z" fill="white"/>
<path d="M91.5938 93.1274H90.0475V94.6738H91.5938V93.1274Z" fill="white"/>
<path d="M29.7425 65.2944H28.1962V66.8408H29.7425V65.2944Z" fill="white"/>
<path d="M32.8351 65.2944H31.2887V66.8408H32.8351V65.2944Z" fill="white"/>
<path d="M35.9276 65.2944H34.3814V66.8408H35.9276V65.2944Z" fill="white"/>
<path d="M26.65 68.387H25.1037H23.5573V66.8407H22.011H20.4647V65.2944H18.9185V63.7481V62.2019H20.4647H22.011V60.6556H20.4647V59.1092V57.5629H22.011V56.0167H23.5573V57.5629H22.011V59.1092H23.5573V60.6556V62.2019H25.1037H26.65V63.7481H28.1962V62.2019H29.7425V63.7481V65.2944H31.2887V63.7481V62.2019V60.6556H29.7425V59.1232H32.8351V60.6556V62.2019H34.3813H35.9275H37.4739V63.7481H35.9275V65.2944H37.4739V66.8407H39.0202V65.2944V63.7481V62.2019V60.6556V59.1092V57.5629H37.4739V56.0167H39.0202V54.4704V52.9241H37.4739V54.4704H36.0355V52.9241H37.4739V51.3778H36.0355V49.758H34.3812V48.2852H32.8351V49.758H31.2887V48.2852V46.739H32.8351H34.3812V45.1927V43.6464H35.9274V45.1927H37.4738H39.0201V43.6464H37.4738V42.1001V40.5539H39.0201V39.0075H37.4738V37.4612H39.0201V35.9149H37.4738H35.9274V37.4612V39.0075V40.5539V42.1001H34.3812V40.5539V39.0075V37.4612V35.9149V34.3687H32.8351V35.9149V37.4612V39.0075H31.2887V40.5539V42.1001H32.8351V43.6464H31.2887V45.1927H29.7425H28.1962V46.739V48.2852H29.7425V49.758H28.1962V48.2852H26.65V49.8315C26.6706 49.8315 26.6707 59.1232 26.6707 59.1232H28.1962V60.6556H26.65V59.1092H25.1037V57.5629V56.0167V54.4704H23.5573V52.9241V51.3778H22.011V52.9241H20.4647V51.3778V49.8316H22.011H23.5573V48.2853H25.1037L26.65 48.2852V46.7391H25.1037H23.5573V45.1928H25.1037V43.6464H23.5573V42.1001H25.1037V43.6464H26.65H28.1962H29.7425L31.2887 43.6464V42.1001L29.7425 42.1001V40.5539H28.1962H26.65H25.1037H23.5573H22.011V42.1001H20.4647V40.5539H22.011V39.0076H20.4647H18.9185V40.5539V42.1001V43.6464H17.3723V45.1928H18.9185V46.7391H20.4647V48.2853H18.9185V46.7391H17.3723V48.2853V49.8316V51.3778H18.9185V52.9241H17.3723V54.4704V56.0167V57.5629V59.1092H18.9185V60.6556H17.3723V62.2019V63.7481V65.2944V66.8407H18.9185V68.387V69.9332H17.3723V71.4795H18.9185V73.0259H20.4647V74.5721H22.011V76.1184H20.4647V77.6647H22.011H23.5573V76.1184H25.1037H26.65V74.5721V73.0259H28.1962V71.4795H26.65H25.1037V73.0259V74.5721H23.5573V73.0259H22.011V71.4795H20.4647V69.9332V68.387H22.011V69.9332H23.5573V71.4795H25.1037V69.9332H26.65H28.1962V68.387V66.8407H26.65V68.387ZM28.3319 51.4194H34.3746V57.462H28.3319V51.4194ZM20.4647 43.6464H22.011V45.1928H20.4647V43.6464ZM18.9185 54.4704H20.4647V56.0167H18.9185V54.4704Z" fill="white"/>
<path d="M37.4739 66.8408H35.9275V68.3871H37.4739V66.8408Z" fill="white"/>
<path d="M84.6285 81.4512H82.9673V83.1124H84.6285V81.4512Z" fill="white"/>
<path d="M84.6285 53.6099H82.9673V55.271H84.6285V53.6099Z" fill="white"/>
<path d="M32.1839 53.6099H30.5227V55.271H32.1839V53.6099Z" fill="white"/>
<path d="M58.5039 81.4512H56.8427V83.1124H58.5039V81.4512Z" fill="white"/>
<path d="M58.5039 53.6748H56.8427V55.336H58.5039V53.6748Z" fill="white"/>
<path d="M58.5039 25.8286H56.8427V27.4898H58.5039V25.8286Z" fill="white"/>
<path d="M32.8351 14.1602H17.3723V29.623H32.8351V14.1602ZM31.2887 28.0766H18.9186V15.7063H31.2887V28.0766Z" fill="white"/>
<path d="M28.454 18.5415H21.7534V25.242H28.454V18.5415Z" fill="white"/>
<path d="M17.3723 94.7807H32.8351V79.3179H17.3723V94.7807ZM18.9186 80.8642H31.2887V93.2344H18.9186V80.8642Z" fill="white"/>
<path d="M28.454 83.6992H21.7534V90.3998H28.454V83.6992Z" fill="white"/>
<path d="M82.3162 14.1602V29.623H97.779V14.1602H82.3162ZM96.2327 28.0766H83.8625V15.7063H96.2327V28.0766Z" fill="white"/>
<path d="M93.3978 18.5415H86.6971V25.242H93.3978V18.5415Z" fill="white"/>
</g>
<defs>
<clipPath id="clip0_1_8947">
<rect width="116" height="116" rx="12" fill="white"/>
</clipPath>
</defs>
</svg>
