<svg width="107" height="121" viewBox="0 0 107 121" fill="none" xmlns="http://www.w3.org/2000/svg">
<path d="M93.2742 108.799C90.32 111.953 86.9351 114.676 83.2191 116.889C83.1339 116.941 83.0473 116.99 82.9603 117.041L76.9445 111.731C77.0077 111.672 77.0776 111.606 77.153 111.534C81.6354 107.29 103.888 77.6118 105.371 70.3848C105.269 70.9869 106.709 94.5982 93.2742 108.799Z" fill="#D1AA67"/>
<path d="M84.38 117.913C84.2663 117.94 84.1505 117.966 84.0345 117.989L79.5212 114.005C79.6094 113.974 79.7125 113.938 79.8304 113.897C81.7668 113.214 87.5343 111.149 93.2738 108.798C99.4411 106.271 105.579 103.415 106.899 101.586C106.616 102.011 97.8933 114.9 84.38 117.913Z" fill="#D1AA67"/>
<path d="M28.2699 23.4638V44.3863C24.9363 45.261 21.4459 45.3613 18.0673 44.6796C14.6887 43.998 11.5119 42.5525 8.78133 40.4543C6.05078 38.3562 3.83924 35.6614 2.31688 32.5771C0.794514 29.4929 0.00189552 26.1015 0 22.6639C0 22.0503 0.0247229 21.4431 0.0741689 20.8423H12.4429C13.0359 20.8428 13.62 20.6978 14.1435 20.42C14.6671 20.1423 15.114 19.7403 15.4449 19.2495C15.7758 18.7587 15.9805 18.1942 16.0409 17.6059C16.1013 17.0176 16.0156 16.4235 15.7913 15.876H20.6586C21.658 15.8756 22.6477 16.0716 23.5711 16.4528C24.4945 16.8339 25.3336 17.3928 26.0405 18.0974C26.7473 18.802 27.308 19.6386 27.6905 20.5594C28.073 21.4802 28.2699 22.4671 28.2699 23.4638Z" fill="#D1AA67"/>
<path d="M84.9901 28.6728H84.3216V10.5114C84.3216 9.13099 84.0474 7.76414 83.5148 6.48884C82.9821 5.21354 82.2014 4.05478 81.2171 3.07871C80.2329 2.10264 79.0645 1.32838 77.7785 0.800133C76.4926 0.271887 75.1143 1.30633e-06 73.7224 0H34.9234C32.1123 -6.15579e-06 29.4164 1.10743 27.4287 3.07869C25.4409 5.04994 24.3242 7.72354 24.3242 10.5113V110.146C24.3242 112.934 25.4409 115.608 27.4286 117.579C29.4164 119.55 32.1123 120.658 34.9234 120.658H73.7224C76.5334 120.658 79.2294 119.55 81.2171 117.579C83.2048 115.608 84.3215 112.934 84.3215 110.146V41.6004H84.99L84.9901 28.6728Z" fill="#111111"/>
<path d="M82.0654 10.585V110.073C82.0653 112.155 81.2313 114.152 79.7469 115.624C78.2624 117.096 76.249 117.924 74.1496 117.924H35.1645C33.0652 117.924 31.0518 117.096 29.5673 115.624C28.0829 114.152 27.2489 112.155 27.2488 110.073V10.585C27.2489 8.50302 28.0829 6.50633 29.5673 5.03415C31.0518 3.56198 33.0652 2.7349 35.1645 2.73486H39.8939C39.6615 3.30119 39.573 3.91548 39.6362 4.52369C39.6994 5.1319 39.9123 5.7154 40.2562 6.22285C40.6002 6.7303 41.0646 7.14616 41.6086 7.43384C42.1526 7.72153 42.7596 7.87222 43.3762 7.87267H65.6037C66.2202 7.87222 66.8272 7.72152 67.3712 7.43383C67.9152 7.14615 68.3797 6.73029 68.7236 6.22284C69.0675 5.71539 69.2804 5.1319 69.3436 4.52369C69.4068 3.91548 69.3183 3.30119 69.0859 2.73486H74.1496C76.249 2.7349 78.2624 3.56198 79.7469 5.03415C81.2313 6.50633 82.0653 8.50302 82.0654 10.585Z" fill="white"/>
<path d="M37.2426 11.9624C36.54 11.9624 35.8444 12.0996 35.1953 12.3662C34.5463 12.6328 33.9566 13.0236 33.4598 13.5163C32.9631 14.0089 32.569 14.5937 32.3002 15.2374C32.0313 15.8811 31.8929 16.5709 31.8929 17.2676C31.8929 17.9643 32.0313 18.6542 32.3001 19.2979C32.569 19.9415 32.963 20.5264 33.4598 21.019C33.9565 21.5117 34.5463 21.9024 35.1953 22.1691C35.8444 22.4357 36.54 22.5729 37.2425 22.5729H37.2426C38.6614 22.5729 40.022 22.014 41.0253 21.019C42.0285 20.0241 42.5921 18.6747 42.5921 17.2677C42.5921 15.8606 42.0285 14.5112 41.0253 13.5163C40.022 12.5213 38.6614 11.9624 37.2426 11.9624Z" fill="#F2F2F2"/>
<path d="M76.0839 21.7435H47.9986C47.6439 21.7435 47.3037 21.6037 47.0529 21.355C46.8021 21.1063 46.6612 20.7689 46.6612 20.4171C46.6612 20.0654 46.8021 19.728 47.0529 19.4793C47.3037 19.2306 47.6439 19.0908 47.9986 19.0908H76.0839C76.4386 19.0908 76.7788 19.2306 77.0296 19.4793C77.2804 19.728 77.4213 20.0654 77.4213 20.4171C77.4213 20.7689 77.2804 21.1063 77.0296 21.355C76.7788 21.6037 76.4386 21.7435 76.0839 21.7435Z" fill="#F2F2F2"/>
<path d="M56.8588 16.1072H47.9986C47.6439 16.1072 47.3037 15.9675 47.0529 15.7188C46.8021 15.47 46.6612 15.1327 46.6612 14.7809C46.6612 14.4291 46.8021 14.0918 47.0529 13.8431C47.3037 13.5943 47.6439 13.4546 47.9986 13.4546H56.8588C57.2135 13.4546 57.5537 13.5943 57.8045 13.8431C58.0553 14.0918 58.1962 14.4291 58.1962 14.7809C58.1962 15.1327 58.0553 15.47 57.8045 15.7188C57.5537 15.9675 57.2135 16.1072 56.8588 16.1072Z" fill="#F2F2F2"/>
<path d="M37.2426 34.1777C36.54 34.1777 35.8444 34.315 35.1953 34.5816C34.5463 34.8482 33.9566 35.239 33.4598 35.7316C32.9631 36.2242 32.569 36.8091 32.3002 37.4527C32.0313 38.0964 31.8929 38.7863 31.8929 39.483C31.8929 40.1797 32.0313 40.8695 32.3001 41.5132C32.569 42.1569 32.963 42.7417 33.4598 43.2344C33.9565 43.727 34.5463 44.1178 35.1953 44.3844C35.8444 44.651 36.54 44.7882 37.2425 44.7883H37.2426C38.6614 44.7883 40.022 44.2293 41.0253 43.2344C42.0285 42.2395 42.5921 40.89 42.5921 39.483C42.5921 38.076 42.0285 36.7265 41.0253 35.7316C40.022 34.7367 38.6614 34.1777 37.2426 34.1777Z" fill="#F2F2F2"/>
<path d="M76.0839 43.9593H47.9986C47.6439 43.9593 47.3037 43.8195 47.0529 43.5708C46.8021 43.3221 46.6612 42.9847 46.6612 42.633C46.6612 42.2812 46.8021 41.9438 47.0529 41.6951C47.3037 41.4464 47.6439 41.3066 47.9986 41.3066H76.0839C76.4386 41.3066 76.7788 41.4464 77.0296 41.6951C77.2804 41.9438 77.4213 42.2812 77.4213 42.633C77.4213 42.9847 77.2804 43.3221 77.0296 43.5708C76.7788 43.8195 76.4386 43.9593 76.0839 43.9593Z" fill="#F2F2F2"/>
<path d="M56.8588 38.3226H47.9986C47.6439 38.3226 47.3037 38.1828 47.0529 37.9341C46.8021 37.6854 46.6612 37.348 46.6612 36.9962C46.6612 36.6445 46.8021 36.3071 47.0529 36.0584C47.3037 35.8097 47.6439 35.6699 47.9986 35.6699H56.8588C57.2135 35.6699 57.5537 35.8097 57.8045 36.0584C58.0553 36.3071 58.1962 36.6445 58.1962 36.9962C58.1962 37.348 58.0553 37.6854 57.8045 37.9341C57.5537 38.1828 57.2135 38.3226 56.8588 38.3226Z" fill="#F2F2F2"/>
<path d="M37.2426 78.6089C35.8238 78.6089 34.4631 79.1678 33.4598 80.1627C32.4566 81.1577 31.8929 82.5071 31.8929 83.9141C31.8929 85.3212 32.4565 86.6706 33.4598 87.6655C34.463 88.6605 35.8237 89.2194 37.2425 89.2194H37.2426C38.6614 89.2194 40.022 88.6605 41.0253 87.6655C42.0285 86.6706 42.5921 85.3212 42.5921 83.9142C42.5921 82.5071 42.0285 81.1577 41.0253 80.1628C40.022 79.1678 38.6614 78.6089 37.2426 78.6089Z" fill="#F2F2F2"/>
<path d="M76.0839 88.3904H47.9986C47.6439 88.3904 47.3037 88.2507 47.0529 88.0019C46.8021 87.7532 46.6612 87.4159 46.6612 87.0641C46.6612 86.7123 46.8021 86.375 47.0529 86.1263C47.3037 85.8775 47.6439 85.7378 47.9986 85.7378H76.0839C76.4386 85.7378 76.7788 85.8775 77.0296 86.1263C77.2804 86.375 77.4213 86.7123 77.4213 87.0641C77.4213 87.4159 77.2804 87.7532 77.0296 88.0019C76.7788 88.2507 76.4386 88.3904 76.0839 88.3904Z" fill="#F2F2F2"/>
<path d="M56.8588 82.7532H47.9986C47.6439 82.7532 47.3037 82.6135 47.0529 82.3647C46.8021 82.116 46.6612 81.7787 46.6612 81.4269C46.6612 81.0751 46.8021 80.7378 47.0529 80.4891C47.3037 80.2403 47.6439 80.1006 47.9986 80.1006H56.8588C57.2135 80.1006 57.5537 80.2403 57.8045 80.4891C58.0553 80.7378 58.1962 81.0751 58.1962 81.4269C58.1962 81.7787 58.0553 82.116 57.8045 82.3647C57.5537 82.6135 57.2135 82.7532 56.8588 82.7532Z" fill="#F2F2F2"/>
<path d="M37.2426 100.825C36.54 100.825 35.8444 100.962 35.1953 101.229C34.5463 101.495 33.9566 101.886 33.4598 102.379C32.9631 102.871 32.569 103.456 32.3002 104.1C32.0313 104.743 31.8929 105.433 31.8929 106.13C31.8929 106.827 32.0313 107.517 32.3001 108.16C32.569 108.804 32.963 109.389 33.4598 109.881C33.9565 110.374 34.5463 110.765 35.1953 111.031C35.8444 111.298 36.54 111.435 37.2425 111.435H37.2426C38.6614 111.435 40.022 110.876 41.0253 109.881C42.0285 108.886 42.5921 107.537 42.5921 106.13C42.5921 104.723 42.0285 103.374 41.0253 102.379C40.022 101.384 38.6614 100.825 37.2426 100.825Z" fill="#F2F2F2"/>
<path d="M76.0839 110.607H47.9986C47.6439 110.607 47.3037 110.467 47.0529 110.218C46.8021 109.97 46.6612 109.632 46.6612 109.28C46.6612 108.929 46.8021 108.591 47.0529 108.343C47.3037 108.094 47.6439 107.954 47.9986 107.954H76.0839C76.4386 107.954 76.7788 108.094 77.0296 108.343C77.2804 108.591 77.4213 108.929 77.4213 109.28C77.4213 109.632 77.2804 109.97 77.0296 110.218C76.7788 110.467 76.4386 110.607 76.0839 110.607Z" fill="#F2F2F2"/>
<path d="M56.8588 104.969H47.9986C47.6439 104.969 47.3037 104.829 47.0529 104.581C46.8021 104.332 46.6612 103.994 46.6612 103.643C46.6612 103.291 46.8021 102.954 47.0529 102.705C47.3037 102.456 47.6439 102.316 47.9986 102.316H56.8588C57.2135 102.316 57.5537 102.456 57.8045 102.705C58.0553 102.954 58.1962 103.291 58.1962 103.643C58.1962 103.994 58.0553 104.332 57.8045 104.581C57.5537 104.829 57.2135 104.969 56.8588 104.969Z" fill="#F2F2F2"/>
<path d="M86.9219 74.4645H22.3925C21.6612 74.4636 20.96 74.1752 20.4429 73.6623C19.9258 73.1495 19.6349 72.4542 19.6341 71.7289V51.1711C19.6349 50.4458 19.9258 49.7505 20.4429 49.2377C20.96 48.7248 21.6612 48.4364 22.3925 48.4355H86.9219C87.6532 48.4364 88.3543 48.7248 88.8714 49.2377C89.3885 49.7505 89.6794 50.4458 89.6802 51.1711V71.7289C89.6794 72.4542 89.3885 73.1495 88.8714 73.6623C88.3543 74.1752 87.6532 74.4636 86.9219 74.4645Z" fill="white"/>
<ellipse cx="5.33791" cy="5.30416" rx="5.33791" ry="5.30416" transform="matrix(1.00041 0 -0.00116196 0.999591 32.1228 56.3657)" fill="url(#paint0_linear_1_8903)"/>
<path d="M36.958 64.4584C36.126 64.3851 35.2983 63.7789 35.2986 63.4616C35.299 63.1513 35.5528 63.0045 35.8023 62.8167C36.0518 62.6289 37.1893 63.769 37.8701 63.5397C38.5509 63.3104 38.1418 62.7019 37.5298 62.3061C36.8088 61.8398 36.2884 61.4929 35.8046 60.7499C35.5437 60.3834 35.127 59.3535 35.9915 58.8962C36.2619 58.7531 36.3646 58.6627 37.1609 58.6868L37.1782 58.145C37.3625 57.936 38.1308 57.9458 38.3436 58.1804L38.3262 58.7222C38.8149 58.8395 39.9791 59.1669 40.0933 59.5186C40.2297 59.6635 40.3317 60.0844 40.0924 60.3733C39.6953 60.8525 36.9658 59.2496 37.1809 60.3733C37.3572 61.2942 40.5961 62.245 39.6774 63.6522C39.4833 64.1262 38.658 64.533 38.1413 64.4943L38.1244 65.0231C37.8666 65.3245 37.1162 65.2792 36.9573 65.0395L36.958 64.4584Z" fill="white"/>
<path d="M76.0836 65.9261H47.9983C47.6436 65.9261 47.3034 65.7863 47.0526 65.5376C46.8018 65.2889 46.6609 64.9515 46.6609 64.5998C46.6609 64.248 46.8018 63.9106 47.0526 63.6619C47.3034 63.4132 47.6436 63.2734 47.9983 63.2734H76.0836C76.4383 63.2734 76.7785 63.4132 77.0293 63.6619C77.2801 63.9106 77.421 64.248 77.421 64.5998C77.421 64.9515 77.2801 65.2889 77.0293 65.5376C76.7785 65.7863 76.4383 65.9261 76.0836 65.9261Z" fill="#D1AA67"/>
<path d="M56.8585 60.2893H47.9983C47.6436 60.2893 47.3034 60.1496 47.0526 59.9009C46.8018 59.6521 46.6609 59.3148 46.6609 58.963C46.6609 58.6113 46.8018 58.2739 47.0526 58.0252C47.3034 57.7765 47.6436 57.6367 47.9983 57.6367H56.8585C57.2132 57.6367 57.5534 57.7765 57.8042 58.0252C58.055 58.2739 58.1959 58.6113 58.1959 58.963C58.1959 59.3148 58.055 59.6521 57.8042 59.9009C57.5534 60.1496 57.2132 60.2893 56.8585 60.2893Z" fill="#D1AA67"/>
<rect x="19.9482" y="48.4708" width="69.4179" height="25.8318" stroke="#2C3131" stroke-width="0.628217"/>
<ellipse cx="5.33791" cy="5.30416" rx="5.33791" ry="5.30416" transform="matrix(1.00041 0 -0.00116196 0.999591 32.1231 55.8359)" fill="url(#paint1_linear_1_8903)"/>
<path d="M36.9578 63.9291C36.1259 63.8558 35.2981 63.2496 35.2984 62.9323C35.2988 62.622 35.5527 62.4752 35.8021 62.2874C36.0516 62.0996 37.1891 63.2398 37.8699 63.0104C38.5507 62.7811 38.1416 62.1726 37.5296 61.7768C36.8086 61.3105 36.2882 60.9636 35.8045 60.2206C35.5435 59.8541 35.1269 58.8242 35.9913 58.3669C36.2617 58.2238 36.3644 58.1334 37.1607 58.1575L37.1781 57.6157C37.3624 57.4067 38.1307 57.4165 38.3434 57.6511L38.3261 58.1929C38.8147 58.3102 39.9789 58.6376 40.0932 58.9893C40.2295 59.1342 40.3316 59.5552 40.0922 59.844C39.6951 60.3232 36.9656 58.7203 37.1807 59.844C37.357 60.7649 40.596 61.7157 39.6772 63.1229C39.4831 63.5969 38.6578 64.0037 38.1411 63.965L38.1242 64.4938C37.8664 64.7952 37.116 64.7499 36.9571 64.5102L36.9578 63.9291Z" fill="white"/>
<path d="M100.976 29.9129L93.6735 24.3433L88.0885 31.6255L95.3907 37.1951L100.976 29.9129Z" fill="#D1AA67"/>
<defs>
<linearGradient id="paint0_linear_1_8903" x1="5.33794" y1="-0.570216" x2="5.33794" y2="11.4972" gradientUnits="userSpaceOnUse">
<stop stop-color="#FBC039"/>
<stop offset="0.87" stop-color="#E08F0E"/>
</linearGradient>
<linearGradient id="paint1_linear_1_8903" x1="5.33794" y1="-0.570216" x2="5.33794" y2="11.4972" gradientUnits="userSpaceOnUse">
<stop stop-color="#FBC039"/>
<stop offset="0.87" stop-color="#E08F0E"/>
</linearGradient>
</defs>
</svg>
