<svg width="236" height="236" viewBox="0 0 236 236" fill="none" xmlns="http://www.w3.org/2000/svg">
<path d="M43.3613 182.26C44.3831 181.658 46.0489 181.658 47.0987 182.246L47.1127 182.26C47.6446 182.554 47.8965 182.96 47.8825 183.366L55.1893 184.584L69.607 176.255C68.0392 173.344 67.1995 170.264 67.1995 167.115L67.1714 153.243V153.173C67.1855 144.956 72.7005 137.258 82.709 131.477C84.7666 130.287 86.9922 129.251 89.2878 128.299L100.248 33.9967C100.43 32.345 101.2 31.0712 102.348 30.4973C102.39 30.4693 102.446 30.4553 102.502 30.4413C102.516 30.4273 102.516 30.3993 102.544 30.3993L108.787 27.7818C109.822 27.3478 111.04 27.4879 112.216 28.1738L156.771 53.9015C156.785 53.9015 156.785 53.9015 156.785 53.9155C159.416 55.4272 161.25 59.2626 160.886 62.468C160.886 62.468 160.886 62.468 160.886 62.482L153.089 129.615C154.321 130.203 155.525 130.805 156.673 131.477C166.513 137.202 171.944 144.816 171.958 152.935C171.958 152.949 171.972 152.949 171.972 152.949L172 166.821C172 170.068 171.146 173.232 169.495 176.227L183.982 184.584L191.275 183.366C191.261 182.96 191.513 182.554 192.045 182.26C192.059 182.26 192.059 182.246 192.059 182.246C193.123 181.658 194.788 181.658 195.796 182.26C196.804 182.862 196.79 183.828 195.768 184.416C195.754 184.416 195.754 184.43 195.74 184.43C194.705 185.018 193.025 185.004 192.017 184.402C191.821 184.29 191.681 184.164 191.569 184.024L183.968 185.298H183.912C183.856 185.298 183.786 185.284 183.744 185.256L169.145 176.829C167.409 179.783 164.903 182.568 161.67 185.102L175.653 193.164L181.267 189.903C181.379 189.833 181.518 189.833 181.616 189.903L188.111 193.64C189.161 193.234 190.547 193.276 191.443 193.808C192.451 194.41 192.437 195.376 191.415 195.964L191.401 195.978C190.351 196.566 188.685 196.552 187.664 195.95C186.782 195.432 186.684 194.62 187.383 194.032L181.448 190.603L175.821 193.864C175.723 193.934 175.583 193.934 175.471 193.864L161.054 185.55C159.64 186.613 158.114 187.635 156.463 188.587C155.651 189.049 154.825 189.497 153.971 189.917L167.325 197.63C167.451 197.7 167.507 197.84 167.493 197.98L166.807 203.285C166.793 203.383 166.737 203.467 166.667 203.523C166.597 203.579 166.499 203.607 166.401 203.593L156.505 202.179L149.8 206.084C150.5 206.672 150.387 207.498 149.478 208.016L149.464 208.03C148.414 208.618 146.748 208.618 145.726 208.002C144.719 207.414 144.733 206.448 145.768 205.86L145.782 205.846C146.692 205.328 148.064 205.3 149.072 205.692L156.253 201.507C156.322 201.465 156.407 201.451 156.477 201.465L166.149 202.851L166.765 198.119L153.229 190.295C153.229 190.295 153.229 190.295 153.215 190.295C143.781 194.9 131.757 197.462 119.397 197.462C118.753 197.462 118.095 197.462 117.451 197.448C105.749 197.182 94.6908 194.69 85.8303 190.351C85.8303 190.351 85.8303 190.365 85.8163 190.365L72.3924 198.12L73.0083 202.851C83.2125 201.423 82.7088 201.395 82.9046 201.507L90.0995 205.692C91.1074 205.3 92.4652 205.328 93.3889 205.846C93.3889 205.846 93.3889 205.86 93.4029 205.86C94.4247 206.448 94.4387 207.414 93.4309 208.002C92.4231 208.618 90.7435 208.618 89.7076 208.03C89.6936 208.03 89.6936 208.016 89.6796 208.016C88.7698 207.498 88.6578 206.672 89.3577 206.084L82.6528 202.179L72.7564 203.593C72.6725 203.607 72.5746 203.579 72.5045 203.523C72.4204 203.467 72.3784 203.383 72.3644 203.285L71.6645 197.98C71.6505 197.84 71.7205 197.7 71.8466 197.63L85.1023 189.973C84.2205 189.525 83.3386 189.077 82.4986 188.587C80.875 187.649 79.3912 186.642 78.0054 185.606L63.6858 193.864C63.5739 193.934 63.4479 193.934 63.3359 193.864L57.7228 190.603L51.7878 194.032C52.4737 194.62 52.3896 195.432 51.4939 195.95C50.4861 196.552 48.8063 196.566 47.7704 195.978C47.7564 195.978 47.7564 195.964 47.7424 195.964C46.7206 195.376 46.7066 194.41 47.7146 193.808C48.6103 193.276 50.0101 193.234 51.0459 193.64L57.5408 189.903C57.6528 189.833 57.7789 189.833 57.8907 189.903L63.5179 193.164L77.4036 185.158C74.1701 182.624 71.6784 179.825 69.9568 176.871L55.4274 185.256C55.3714 185.284 55.3153 185.298 55.2453 185.298H55.1893L47.6026 184.024C47.4767 184.164 47.3367 184.29 47.1546 184.402C46.1328 185.004 44.4671 185.018 43.4173 184.43L43.4033 184.416C42.3815 183.828 42.3675 182.862 43.3613 182.26ZM119.509 164.791C114.414 164.791 109.332 163.671 105.483 161.432C101.69 159.234 99.604 156.28 99.604 153.117C99.604 151.913 99.9399 150.751 100.542 149.632L92.4372 144.97C89.8197 143.445 87.972 139.609 88.3498 136.404L88.5458 134.668C88.3639 134.752 88.1819 134.85 87.9999 134.948C79.5454 139.833 74.884 146.3 74.87 153.159C74.87 159.976 79.4473 166.401 87.7898 171.244C105.203 181.364 133.618 181.364 151.143 171.244C159.584 166.359 164.245 159.892 164.259 153.033C164.273 146.51 160.06 140.365 152.389 135.592L148.988 164.875C148.778 166.639 147.938 167.941 146.692 168.473L140.449 171.09C140.407 171.104 140.365 171.104 140.323 171.104C139.959 171.244 139.581 171.328 139.189 171.328C138.489 171.328 137.748 171.118 137.006 170.698L125.752 164.189C123.722 164.581 121.622 164.791 119.509 164.791ZM103.985 30.8752C103.775 30.8612 103.579 30.8612 103.383 30.8893C103.314 30.9033 103.243 30.9312 103.173 30.9452C102.992 30.9872 102.823 31.0292 102.656 31.1131C101.732 31.5891 101.102 32.6669 100.934 34.0807L89.0498 136.488C88.6998 139.441 90.3796 142.969 92.7872 144.354L137.356 170.082C138.378 170.684 139.4 170.782 140.239 170.404C140.393 170.334 140.519 170.236 140.659 170.124C140.743 170.068 140.827 170.026 140.911 169.956C141.037 169.83 141.149 169.676 141.247 169.536C141.317 169.452 141.387 169.382 141.443 169.284C141.555 169.102 141.625 168.906 141.709 168.71C141.751 168.612 141.793 168.528 141.835 168.43C141.933 168.109 142.003 167.773 142.045 167.409L145.447 138.195L153.943 65.0016C154.293 62.048 152.599 58.5206 150.192 57.1348L105.637 31.4071C105.105 31.0991 104.587 30.9172 104.083 30.8752C104.055 30.8612 104.027 30.8752 103.985 30.8752ZM111.866 28.7896C110.886 28.2156 109.878 28.0897 109.067 28.4256L104.685 30.2593C104.769 30.2873 104.853 30.3152 104.937 30.3433C104.993 30.3573 105.049 30.3713 105.105 30.3992C105.399 30.4973 105.693 30.6233 105.987 30.7912L150.402 56.4349L155.833 54.1673L111.866 28.7896ZM160.116 62.986L154.615 65.2815L146.258 137.258L142.745 167.493C142.703 167.913 142.619 168.291 142.493 168.654C142.423 168.878 142.325 169.06 142.227 169.256C142.157 169.382 142.115 169.536 142.045 169.648V169.662L146.426 167.829C147.434 167.409 148.12 166.303 148.302 164.791L160.116 62.986ZM70.3489 176.143C70.3769 176.157 70.4049 176.171 70.419 176.199C70.433 176.227 70.433 176.255 70.433 176.283C72.8966 180.637 77.0959 184.64 82.8488 187.985C92.0734 193.346 104.363 196.454 117.465 196.748C131.827 197.056 145.922 193.864 156.113 187.985C161.894 184.64 166.135 180.651 168.641 176.311C168.641 176.255 168.641 176.199 168.669 176.143C168.697 176.101 168.739 176.087 168.781 176.059C170.432 173.106 171.3 169.998 171.3 166.821L171.272 157.988C171.244 158.086 171.202 158.184 171.174 158.268C170.992 158.884 170.782 159.5 170.544 160.102C170.502 160.2 170.46 160.312 170.418 160.424C170.138 161.082 169.803 161.74 169.453 162.383C169.354 162.551 169.257 162.719 169.173 162.887C168.781 163.531 168.389 164.175 167.927 164.805C167.885 164.875 167.829 164.931 167.787 164.987C167.353 165.589 166.891 166.163 166.387 166.737C166.261 166.877 166.135 167.031 165.995 167.185C165.463 167.787 164.889 168.374 164.273 168.948C164.147 169.074 164.021 169.186 163.881 169.312C163.321 169.83 162.734 170.334 162.104 170.838C161.992 170.936 161.866 171.048 161.74 171.146C161.04 171.692 160.284 172.238 159.514 172.77C159.332 172.896 159.15 173.022 158.968 173.134C158.156 173.679 157.316 174.197 156.434 174.715C146.216 180.622 132.806 183.576 119.425 183.576C106.197 183.576 92.9689 180.678 82.8484 174.911C82.7227 174.841 82.5826 174.785 82.4707 174.715C81.5888 174.211 80.7768 173.679 79.9651 173.148C79.7971 173.036 79.6292 172.924 79.4612 172.812C78.6772 172.28 77.9353 171.734 77.2354 171.174C77.1375 171.09 77.0536 171.02 76.9555 170.95C76.3117 170.418 75.7099 169.9 75.1219 169.354C75.01 169.256 74.8979 169.144 74.7858 169.046C74.17 168.458 73.5822 167.857 73.0361 167.241C72.9382 167.129 72.8403 167.017 72.7422 166.905C72.2383 166.317 71.7624 165.729 71.3144 165.127C71.2726 165.071 71.2306 165.015 71.1885 164.959C70.7266 164.315 70.3206 163.657 69.9286 162.999C69.8588 162.873 69.7748 162.733 69.7048 162.593C69.3268 161.921 68.9909 161.25 68.697 160.578C68.697 160.55 68.683 160.522 68.669 160.494C68.389 159.836 68.165 159.164 67.9691 158.492C67.9411 158.408 67.899 158.324 67.885 158.254L67.899 167.114C67.8993 170.222 68.7531 173.26 70.3489 176.143Z" fill="black"/>
<path d="M154.834 87.9124C155.026 87.9349 155.163 88.1085 155.142 88.3006L154.004 98.1058C153.982 98.2842 153.831 98.4154 153.656 98.4154C153.643 98.4154 153.629 98.4147 153.615 98.4134C153.423 98.3908 153.286 98.2172 153.308 98.0252L154.446 88.2199C154.469 88.0271 154.643 87.8884 154.834 87.9124Z" fill="black"/>
<path d="M156.268 72.5017C156.291 72.3089 156.471 72.1757 156.656 72.1941C156.848 72.2167 156.986 72.3903 156.964 72.5823L155.826 82.3875C155.805 82.566 155.654 82.6972 155.479 82.6972C155.465 82.6972 155.451 82.6965 155.438 82.6951C155.246 82.6726 155.108 82.4989 155.13 82.3069L156.268 72.5017Z" fill="black"/>
<path d="M136.847 58.4621L124.681 51.4381C123.808 50.9344 123.2 49.6633 123.324 48.6002C123.446 47.5474 124.254 47.0937 125.127 47.5974L137.293 54.6214C138.165 55.1252 138.773 56.3963 138.651 57.4492C138.527 58.5122 137.719 58.9658 136.847 58.4621Z" fill="black"/>
<path d="M108.856 145.476L121.022 152.5C121.895 153.004 122.503 154.275 122.38 155.328C122.257 156.391 121.449 156.844 120.576 156.34L108.41 149.316C107.538 148.813 106.93 147.542 107.054 146.479C107.176 145.426 107.984 144.972 108.856 145.476Z" fill="black"/>
<path d="M118.984 48.149C118.111 47.6453 117.504 46.3742 117.627 45.3112C117.749 44.2584 118.557 43.8046 119.43 44.3083C120.303 44.812 120.902 46.0785 120.78 47.1314C120.656 48.1944 119.856 48.6528 118.984 48.149Z" fill="black"/>
<path d="M141.695 133.688C141.597 134.486 141.22 135.13 140.632 135.41C140.408 135.536 140.156 135.592 139.89 135.592C139.54 135.592 139.162 135.48 138.798 135.27L98.2886 111.88C97.0289 111.152 96.1609 109.332 96.3291 107.806C96.427 107.009 96.805 106.379 97.3789 106.085C97.9247 105.819 98.5825 105.861 99.2126 106.239L139.736 129.629C141.01 130.371 141.877 132.148 141.695 133.688Z" fill="#D1AA67"/>
<path d="M105.204 125.388C105.75 125.108 106.408 125.164 107.052 125.528L138.126 143.473C139.4 144.214 140.268 145.992 140.086 147.532C139.988 148.344 139.61 148.974 139.022 149.254C138.798 149.38 138.546 149.436 138.281 149.436C137.931 149.436 137.567 149.324 137.203 149.114L106.114 131.169C104.854 130.455 103.986 128.621 104.154 127.109C104.252 126.297 104.63 125.667 105.204 125.388Z" fill="#D1AA67"/>
<path d="M80.933 177.194C82.4048 178.044 83.5934 180.102 83.5886 181.794C83.5838 183.485 82.3875 184.167 80.9157 183.317C79.4438 182.467 78.2701 180.417 78.2749 178.726C78.2797 177.034 79.4611 176.344 80.933 177.194Z" fill="black"/>
<path d="M112.651 63.3348C116.669 61.3052 121.54 61.7391 126.383 64.5246C136.629 70.4456 143.782 85.3951 142.326 97.8671C141.599 104.194 138.715 109.065 134.418 111.221C132.766 112.047 130.974 112.467 129.099 112.467C126.439 112.467 123.626 111.641 120.812 110.017C110.524 104.082 103.329 89.0485 104.785 76.5065C105.512 70.2916 108.382 65.4765 112.651 63.3348ZM121.162 109.415C125.753 112.061 130.344 112.481 134.11 110.605C138.183 108.547 140.926 103.886 141.626 97.783C143.054 85.563 136.055 70.9214 126.033 65.1404C121.4 62.4667 116.767 62.0469 112.973 63.9506C108.914 65.9942 106.184 70.5995 105.484 76.5905C104.057 88.8807 111.098 103.606 121.162 109.415Z" fill="black"/>
<path d="M116.739 99.0729C117.009 99.0066 117.236 98.9328 117.431 98.8474C118.573 98.3491 119.444 97.4592 120.088 96.1415L120.145 96.0068C120.163 95.9651 120.188 95.9275 120.22 95.8961L120.305 95.812C120.384 95.7342 120.495 95.6992 120.602 95.7136C120.712 95.73 120.807 95.7963 120.859 95.8927L121.12 96.6C121.209 96.8884 121.297 97.1749 121.394 97.464C122.272 100.123 123.472 102.704 124.96 105.135C125.061 105.299 125.009 105.515 124.844 105.616C124.787 105.651 124.724 105.667 124.662 105.667C124.544 105.667 124.429 105.608 124.363 105.5C122.847 103.023 121.624 100.393 120.73 97.6848C120.642 97.4216 120.56 97.1598 120.479 96.8967C119.783 98.1194 118.853 98.9902 117.712 99.4884C117.479 99.5903 117.216 99.6771 116.906 99.7523C116.716 99.7988 116.528 99.6833 116.483 99.496C116.437 99.3081 116.552 99.1187 116.739 99.0729Z" fill="black"/>
<path d="M123.644 97.7242C123.581 97.707 123.519 97.7008 123.453 97.6628C123.007 97.4054 122.697 96.7555 122.76 96.2121C122.822 95.6739 123.235 95.4419 123.681 95.6995C124.127 95.957 124.434 96.6044 124.371 97.1426C124.358 97.257 124.322 97.3493 124.281 97.4345L124.373 97.6433C127.632 105.048 128.664 105.139 128.02 105.523C127.859 105.621 127.642 105.572 127.541 105.403C125.699 102.328 124.975 100.749 123.733 97.9249L123.644 97.7242Z" fill="black"/>
<path d="M124.221 86.8175C125.348 92.1558 127.658 98.0565 131.278 103.652C131.382 103.814 131.336 104.03 131.174 104.135C131.014 104.24 130.795 104.195 130.69 104.032C127.018 98.3532 124.68 92.3791 123.537 86.9623C123.441 86.5059 124.126 86.3691 124.221 86.8175Z" fill="black"/>
<path d="M125.42 86.3572C125.146 85.5493 124.616 84.8549 124.001 84.5002C122.616 83.6995 121.855 85.1451 122.244 86.7564C123.23 90.7676 123.686 92.0043 123.947 92.7908C124.089 93.2286 123.425 93.4499 123.281 93.0054L123.076 92.3856C122.923 91.9283 122.77 91.4697 122.642 91.0117C122.271 89.6509 121.9 88.2887 121.564 86.9218C120.943 84.3538 122.627 82.8969 124.351 83.8946C125.108 84.3313 125.756 85.1686 126.081 86.1275C126.472 87.2148 127.491 93.0767 131.933 100.298C132.069 100.274 132.217 100.285 132.376 100.376C132.822 100.634 133.128 101.281 133.066 101.819C133.003 102.363 132.594 102.597 132.148 102.34C131.702 102.082 131.391 101.432 131.454 100.889C131.455 100.88 131.46 100.874 131.462 100.865C126.844 93.4288 125.756 87.3007 125.42 86.3572Z" fill="black"/>
<path d="M114.858 95.5543C116.629 94.9631 117.817 93.644 118.488 91.5259C118.609 91.1308 118.701 90.6934 118.79 90.271C118.837 90.0475 118.883 89.824 118.927 89.6538C119.025 88.513 118.988 87.3894 118.816 86.2172C117.805 79.1397 124.272 77.6546 127.727 83.769C127.852 83.9929 127.9 84.0797 127.95 84.1585C128.195 84.5547 127.595 84.9216 127.355 84.529C127.3 84.4402 127.249 84.349 127.119 84.1168C124.162 78.8847 118.58 79.6427 119.509 86.1167C119.689 87.3414 119.727 88.5185 119.617 89.763C119.566 89.9784 119.52 90.1963 119.474 90.4144C118.905 93.1392 117.73 95.3333 115.079 96.2185C114.64 96.365 114.418 95.7019 114.858 95.5543Z" fill="black"/>
<path d="M128.522 86.9309C128.713 86.8776 128.899 86.9945 128.949 87.1811C129.089 87.7155 129.264 88.2972 129.487 88.9582C130.561 92.1077 132.113 94.9953 134.101 97.542C134.22 97.6945 134.193 97.9145 134.04 98.0335C133.976 98.0833 133.901 98.1072 133.825 98.1072C133.721 98.1072 133.618 98.0608 133.549 97.9726C130.994 94.6989 129.189 90.8741 128.272 87.3574C128.223 87.1709 128.335 86.9795 128.522 86.9309Z" fill="black"/>
<path d="M133.624 80.8548C132.556 78.6789 131.653 76.6401 129.396 74.13C128.196 72.8044 126.791 71.629 125.209 70.7789C122.615 69.3723 120.127 69.3182 118.368 70.0093C117.991 70.1603 117.627 70.3396 117.272 70.5238C117.32 70.7022 117.349 70.8831 117.329 71.0556C117.266 71.5989 116.857 71.8333 116.411 71.5758C115.965 71.3183 115.654 70.6685 115.717 70.125C115.78 69.5868 116.193 69.3549 116.639 69.6124C116.759 69.6816 116.865 69.7816 116.961 69.8974C117.33 69.7061 117.71 69.5193 118.11 69.3594C120.484 68.4246 123.254 68.9221 125.542 70.1631C129.348 72.2352 131.863 75.6742 133.786 79.5958L134.255 80.554C134.339 80.7284 134.265 80.9367 134.09 81.0201C133.917 81.1031 133.684 80.9806 133.624 80.8548Z" fill="black"/>
<path d="M134.495 88.2526C134.082 88.0143 133.799 87.4422 133.807 86.9272C132.359 84.3373 132.289 82.291 129.929 78.8798C124.97 71.7388 118.491 71.5806 115.616 76.4938C115.519 76.6619 115.302 76.7159 115.137 76.6196C114.97 76.5219 114.914 76.3079 115.011 76.1411C118.142 70.7871 125.203 70.8459 130.505 78.4814C132.901 81.9462 132.94 83.8017 134.212 86.2264C134.363 86.177 134.537 86.182 134.723 86.2892C135.169 86.5467 135.475 87.1941 135.413 87.7323C135.35 88.2758 134.941 88.5101 134.495 88.2526Z" fill="black"/>
<path d="M113.808 90.8927C113.904 90.9483 113.99 91.0289 114.071 91.1159C114.96 90.3282 115.567 89.2348 115.884 87.757C116.49 84.9366 115.433 83.5715 116.514 80.3166C118.721 73.7098 126.685 75.0993 130.406 83.3738C130.881 84.425 131.193 85.4878 131.515 86.7605C132.06 88.9384 133.018 90.8259 134.32 92.4242C134.446 92.4123 134.58 92.4285 134.723 92.5109C135.169 92.7685 135.475 93.4158 135.413 93.9541C135.349 94.4975 134.941 94.7319 134.495 94.4744C134.049 94.2169 133.738 93.567 133.801 93.0236C133.805 92.9862 133.823 92.9626 133.831 92.9281C132.436 91.237 131.414 89.2382 130.836 86.9313C128.139 76.2841 119.388 73.9153 117.178 80.5381C116.186 83.519 117.181 85.0548 116.568 87.904C116.211 89.5711 115.474 90.8383 114.417 91.731C114.481 91.9322 114.521 92.1395 114.498 92.3359C114.435 92.8793 114.026 93.1137 113.58 92.8562C113.134 92.5986 112.823 91.9488 112.886 91.4054C112.949 90.8672 113.362 90.6352 113.808 90.8927Z" fill="black"/>
<path d="M113.364 82.2301C113.382 81.3333 113.503 80.4825 113.676 79.6639C113.45 79.353 113.312 78.9436 113.355 78.5749C113.417 78.0367 113.83 77.8047 114.277 78.0623C114.722 78.3198 115.029 78.9672 114.967 79.5054C114.916 79.9433 114.637 80.1655 114.299 80.1063C114.171 80.7931 114.079 81.5005 114.064 82.2451C114.022 84.0504 113.705 85.7794 112.637 87.2461C112.366 87.6203 111.798 87.2096 112.071 86.8347C113.046 85.4945 113.326 83.8978 113.364 82.2301Z" fill="black"/>
<path d="M39.5127 34.2485C39.5127 32.5687 40.1425 31.3649 41.1224 30.8051C41.1224 30.8051 41.1224 30.7911 41.1365 30.7911L46.1055 27.9355C47.1135 27.3196 48.4992 27.4316 49.913 28.2434L83.0456 47.3922C85.8452 49.0019 88.0986 52.9213 88.0708 56.1128L87.9867 87.7055C87.9867 87.8315 87.9168 87.9435 87.8047 88.0134L82.8495 90.911C82.8217 90.925 82.8077 90.925 82.7797 90.925L82.7657 90.939C82.7377 90.953 82.7098 90.953 82.6817 90.953C82.6677 90.953 82.6677 90.953 82.6677 90.953C82.6677 90.953 82.6677 90.953 82.6537 90.953C82.5416 90.953 82.4297 90.897 82.3738 90.799L74.941 79.4609L44.4821 61.8797C41.6966 60.2701 39.4568 56.3646 39.4568 53.1732L39.5127 34.2485ZM44.8319 61.264L75.3609 78.9012C75.4028 78.9291 75.4449 78.9571 75.4729 79.0131L82.3177 89.4414L82.3457 75.6816L82.3876 59.0104C82.4016 56.8548 81.2819 54.3352 79.686 52.5435C79.6301 52.4876 79.588 52.4175 79.5462 52.3755L79.5042 52.3335C78.9442 51.7457 78.3422 51.2558 77.7124 50.8918L44.566 31.757C44.2579 31.5751 43.9781 31.435 43.684 31.3371C43.544 31.2951 43.4041 31.267 43.2641 31.2391C43.1242 31.2111 42.9981 31.169 42.8721 31.155C42.7182 31.141 42.5642 31.155 42.4103 31.169C42.3262 31.169 42.2143 31.155 42.1164 31.169C42.0323 31.197 41.9623 31.2391 41.8783 31.267C40.8704 31.589 40.2125 32.6108 40.2125 34.2485L40.1565 53.1735C40.1566 56.1408 42.2422 59.7802 44.8319 61.264Z" fill="#D1AA67"/>
<path d="M71.9268 62.3515C71.9537 62.367 71.9806 62.3845 72.008 62.4043L74.4209 64.1709L74.421 64.1163L72.9003 60.9152C72.6713 60.446 72.76 60.0053 73.085 59.9742L73.1169 59.9744C73.2115 59.9665 73.3141 59.9964 73.4152 60.0549C73.6524 60.1917 73.8817 60.4849 73.9864 60.8136L74.9605 63.9813L75 64.0042L76.0126 62.0015C76.118 61.7964 76.3453 61.7718 76.5801 61.9074C76.6833 61.9669 76.7879 62.0572 76.8842 62.1767L76.9396 62.2451C77.2636 62.6509 77.349 63.1922 77.1187 63.3961L75.6003 64.779V64.8244L77.9441 65.8314C77.9708 65.8428 77.9975 65.8563 78.0236 65.8714C78.3554 66.0629 78.6398 66.5378 78.6387 66.9339C78.6376 67.33 78.3513 67.4754 78.0196 67.2839C77.9934 67.2688 77.9668 67.2514 77.9401 67.2321L75.5822 65.5246L75.5821 65.5701L77.1114 68.7396C77.34 69.1995 77.2672 69.6403 76.9501 69.685C76.8459 69.6996 76.7304 69.6685 76.6169 69.603C76.3855 69.4694 76.162 69.1922 76.0564 68.8684L75.0191 65.655L74.9796 65.6322L74.0065 67.6666C73.9003 67.8735 73.6699 67.9012 73.4303 67.7629C73.328 67.7038 73.2237 67.6144 73.1271 67.4959L73.0559 67.4003C72.732 66.9946 72.6466 66.4442 72.8849 66.2447L74.4184 64.9257L74.4188 64.8802L71.9958 63.8092C71.9684 63.7975 71.9415 63.7838 71.9148 63.7685C71.579 63.5746 71.308 63.1074 71.3092 62.7023C71.3105 62.3064 71.5901 62.157 71.9268 62.3515Z" fill="black"/>
<path d="M62.7947 57.0789C62.8214 57.0942 62.8486 57.1119 62.8758 57.1317L65.2967 58.9029L65.297 58.8483L63.7679 55.6425C63.5393 55.1735 63.6358 54.7373 63.9607 54.7063L63.9847 54.7019C64.0795 54.694 64.1827 54.7244 64.2847 54.7832C64.5236 54.9212 64.7553 55.2158 64.8544 55.5411L65.8364 58.7135L65.8759 58.7363L66.8806 56.7292C66.9859 56.524 67.2133 56.4994 67.4483 56.635C67.5512 56.6945 67.6557 56.7848 67.7521 56.9043L67.8075 56.9728C68.1314 57.3784 68.2171 57.9198 67.9865 58.1238L66.4685 59.5066L66.4682 59.552L68.8121 60.5591C68.8395 60.5708 68.8665 60.5845 68.8931 60.5999C69.2301 60.7944 69.5078 61.2655 69.5066 61.6616C69.5056 62.0576 69.226 62.2069 68.889 62.0123C68.8624 61.997 68.8354 61.9794 68.808 61.9597L66.4504 60.2522L66.4502 60.2976L67.9872 63.4716C68.208 63.927 68.1354 64.3679 67.8183 64.4125C67.7139 64.4272 67.5985 64.396 67.4856 64.3309C67.2545 64.1975 67.0328 63.9214 66.9326 63.6005L65.8872 60.3825L65.8476 60.3597L64.8746 62.3942C64.7739 62.6044 64.5414 62.6307 64.3025 62.4927C64.2008 62.4341 64.0976 62.3452 64.0028 62.2279L63.9317 62.1323C63.6001 61.7221 63.5145 61.1717 63.7527 60.9722L65.2946 59.6578V59.6123L62.8638 58.5368C62.8372 58.5253 62.8106 58.512 62.7845 58.4969C62.4537 58.306 62.1762 57.835 62.1772 57.4298C62.1784 57.0337 62.4578 56.8844 62.7947 57.0789Z" fill="black"/>
<path d="M53.6621 51.8056C53.6882 51.8207 53.7148 51.8381 53.7418 51.8575L56.1625 53.6287L56.1627 53.5742L54.6337 50.3683C54.413 49.9039 54.5015 49.4631 54.8266 49.4321L54.8504 49.4276C54.9478 49.4211 55.052 49.4521 55.1538 49.5109C55.3933 49.6491 55.6209 49.9415 55.72 50.2668L56.7022 53.4392L56.7417 53.462L57.7543 51.4594C57.8596 51.2543 58.0867 51.2296 58.3218 51.3653C58.425 51.4248 58.5294 51.5151 58.6259 51.6346L58.6731 51.6984C58.9971 52.1039 59.0828 52.6455 58.8523 52.8494L57.342 54.2367V54.2822L59.6778 55.2847C59.7051 55.2965 59.7321 55.3102 59.7588 55.3255C60.0957 55.52 60.3736 55.9911 60.3726 56.3872C60.3711 56.7833 60.0916 56.9325 59.7549 56.738C59.7282 56.7226 59.7012 56.7051 59.674 56.6853L57.316 54.9778V55.0233L58.8531 58.1973C59.0735 58.6526 59.0011 59.0935 58.6916 59.1426C58.5875 59.1573 58.472 59.1263 58.3586 59.0608C58.1272 58.9271 57.9038 58.65 57.7982 58.3262L56.7608 55.1128L56.721 55.0898L55.7402 57.1198C55.6397 57.33 55.4109 57.3587 55.1715 57.2204C55.0696 57.1616 54.9654 57.0722 54.8687 56.9536L54.7974 56.8579C54.4658 56.4478 54.3879 55.9018 54.6264 55.7023L56.1602 54.3834L56.1605 54.3379L53.7297 53.2625C53.7027 53.2509 53.6764 53.2376 53.6501 53.2225C53.3195 53.0317 53.0418 52.5606 53.0432 52.1555C53.0443 51.7596 53.3306 51.6142 53.6621 51.8056Z" fill="black"/>
<path d="M44.5352 46.5355C44.5619 46.5509 44.5889 46.5684 44.616 46.5882L47.0292 48.3549V48.3003L45.5081 45.0991C45.2796 44.6301 45.3683 44.1893 45.6933 44.1583L45.7251 44.1585C45.82 44.1506 45.9225 44.1805 46.0237 44.2389C46.2607 44.3758 46.4902 44.669 46.5949 44.9977L47.5688 48.1654L47.6085 48.1882L48.6211 46.1856C48.7263 45.9805 48.9536 45.9558 49.1887 46.0915C49.2916 46.151 49.3962 46.2413 49.4926 46.3608L49.5479 46.4292C49.8717 46.8348 49.9575 47.3762 49.727 47.5802L48.2088 48.963L48.2086 49.0085L50.5523 50.0154C50.5792 50.027 50.6059 50.0404 50.632 50.0555C50.9635 50.2469 51.248 50.7218 51.2468 51.1179C51.2456 51.514 50.9596 51.6593 50.6281 51.468C50.6018 51.4529 50.5752 51.4355 50.5485 51.4161L48.1908 49.7088L48.1907 49.7543L49.7198 52.9237C49.9484 53.3836 49.8757 53.8246 49.5585 53.8691C49.4542 53.8838 49.3388 53.8526 49.2255 53.7873C48.994 53.6536 48.7705 53.3765 48.665 53.0527L47.6276 49.8392L47.588 49.8162L46.615 51.8509C46.5087 52.0578 46.2784 52.0855 46.0385 51.947C45.9363 51.8881 45.8322 51.7987 45.7354 51.6801L45.6642 51.5844C45.3404 51.1789 45.2546 50.6283 45.493 50.4289L47.0269 49.1099L47.0271 49.0644L44.6041 47.9935C44.5768 47.9817 44.5498 47.9681 44.5231 47.9527C44.1872 47.7587 43.9162 47.2916 43.9175 46.8864C43.9187 46.4902 44.1983 46.341 44.5352 46.5355Z" fill="black"/>
</svg>
