<svg width="80" height="80" viewBox="0 0 80 80" fill="none" xmlns="http://www.w3.org/2000/svg">
<g filter="url(#filter0_dd_162_1040)">
<path d="M12 16C12 8.26801 18.268 2 26 2H54C61.732 2 68 8.26801 68 16V44C68 51.732 61.732 58 54 58H26C18.268 58 12 51.732 12 44V16Z" fill="white" shape-rendering="crispEdges"/>
<path fill-rule="evenodd" clip-rule="evenodd" d="M28.5263 16.5C26.5788 16.5 25 18.0788 25 20.0263C25 23.4423 27.6458 26.2404 31 26.483V39C31 41.3351 32.6518 43.5 35 43.5H45C47.3482 43.5 49 41.3351 49 39V30.5C49 29.9477 48.5523 29.5 48 29.5C47.4477 29.5 47 29.9477 47 30.5V36.5C44.2386 36.5 42 38.7386 42 41.5H38C38 38.7386 35.7614 36.5 33 36.5V22.5H47V26.5H49V26.483C52.3542 26.2404 55 23.4423 55 20.0263C55 18.0788 53.4212 16.5 51.4737 16.5H28.5263ZM49 24.4752C51.248 24.2386 53 22.337 53 20.0263C53 19.1833 52.3166 18.5 51.4737 18.5H28.5263C27.6834 18.5 27 19.1833 27 20.0263C27 22.337 28.7519 24.2386 31 24.4752V22.5H30C29.4477 22.5 29 22.0523 29 21.5C29 20.9477 29.4477 20.5 30 20.5H50C50.5523 20.5 51 20.9477 51 21.5C51 22.0523 50.5523 22.5 50 22.5H49V24.4752ZM33 39V38.5C34.6568 38.5 36 39.8432 36 41.5H35C34.0345 41.5 33 40.5309 33 39ZM47 38.5C45.3432 38.5 44 39.8432 44 41.5H45C45.9655 41.5 47 40.5309 47 39V38.5Z" fill="#303236"/>
<path fill-rule="evenodd" clip-rule="evenodd" d="M35.5 28.5C35.5 26.0147 37.5147 24 40 24C42.4853 24 44.5 26.0147 44.5 28.5C44.5 30.9853 42.4853 33 40 33C37.5147 33 35.5 30.9853 35.5 28.5ZM40 26C38.6193 26 37.5 27.1193 37.5 28.5C37.5 29.8807 38.6193 31 40 31C41.3807 31 42.5 29.8807 42.5 28.5C42.5 27.1193 41.3807 26 40 26Z" fill="#D1AA67"/>
</g>
<defs>
<filter id="filter0_dd_162_1040" x="0" y="0" width="80" height="80" filterUnits="userSpaceOnUse" color-interpolation-filters="sRGB">
<feFlood flood-opacity="0" result="BackgroundImageFix"/>
<feColorMatrix in="SourceAlpha" type="matrix" values="0 0 0 0 0 0 0 0 0 0 0 0 0 0 0 0 0 0 127 0" result="hardAlpha"/>
<feMorphology radius="4" operator="erode" in="SourceAlpha" result="effect1_dropShadow_162_1040"/>
<feOffset dy="4"/>
<feGaussianBlur stdDeviation="3"/>
<feComposite in2="hardAlpha" operator="out"/>
<feColorMatrix type="matrix" values="0 0 0 0 0 0 0 0 0 0 0 0 0 0 0 0 0 0 0.1 0"/>
<feBlend mode="normal" in2="BackgroundImageFix" result="effect1_dropShadow_162_1040"/>
<feColorMatrix in="SourceAlpha" type="matrix" values="0 0 0 0 0 0 0 0 0 0 0 0 0 0 0 0 0 0 127 0" result="hardAlpha"/>
<feMorphology radius="3" operator="erode" in="SourceAlpha" result="effect2_dropShadow_162_1040"/>
<feOffset dy="10"/>
<feGaussianBlur stdDeviation="7.5"/>
<feComposite in2="hardAlpha" operator="out"/>
<feColorMatrix type="matrix" values="0 0 0 0 0 0 0 0 0 0 0 0 0 0 0 0 0 0 0.1 0"/>
<feBlend mode="normal" in2="effect1_dropShadow_162_1040" result="effect2_dropShadow_162_1040"/>
<feBlend mode="normal" in="SourceGraphic" in2="effect2_dropShadow_162_1040" result="shape"/>
</filter>
</defs>
</svg>
