<svg width="80" height="80" viewBox="0 0 80 80" fill="none" xmlns="http://www.w3.org/2000/svg">
<g filter="url(#filter0_dd_162_1097)">
<path d="M12 16C12 8.26801 18.268 2 26 2H54C61.732 2 68 8.26801 68 16V44C68 51.732 61.732 58 54 58H26C18.268 58 12 51.732 12 44V16Z" fill="white" shape-rendering="crispEdges"/>
<path d="M30.6672 29.6673C32.6872 29.6673 34.3338 28.0207 34.3338 26.0007C34.3338 23.9807 32.6872 22.334 30.6672 22.334C28.6472 22.334 27.0005 23.9807 27.0005 26.0007C27.0005 28.0207 28.6472 29.6673 30.6672 29.6673ZM30.6672 24.334C31.5872 24.334 32.3338 25.0807 32.3338 26.0007C32.3338 26.9207 31.5872 27.6673 30.6672 27.6673C29.7472 27.6673 29.0005 26.9207 29.0005 26.0007C29.0005 25.0807 29.7472 24.334 30.6672 24.334Z" fill="#303236"/>
<path d="M26.667 37.6673H34.667C35.2203 37.6673 35.667 37.2207 35.667 36.6673V34.0007C35.667 31.9807 34.0203 30.334 32.0003 30.334H29.3337C27.3137 30.334 25.667 31.9807 25.667 34.0007V36.6673C25.667 37.2207 26.1137 37.6673 26.667 37.6673ZM27.667 34.0007C27.667 33.0807 28.4137 32.334 29.3337 32.334H32.0003C32.9203 32.334 33.667 33.0807 33.667 34.0007V35.6673H27.667V34.0007Z" fill="#303236"/>
<path d="M49.3337 29.6673C51.3537 29.6673 53.0003 28.0207 53.0003 26.0007C53.0003 23.9807 51.3537 22.334 49.3337 22.334C47.3137 22.334 45.667 23.9807 45.667 26.0007C45.667 28.0207 47.3137 29.6673 49.3337 29.6673ZM49.3337 24.334C50.2537 24.334 51.0003 25.0807 51.0003 26.0007C51.0003 26.9207 50.2537 27.6673 49.3337 27.6673C48.4137 27.6673 47.667 26.9207 47.667 26.0007C47.667 25.0807 48.4137 24.334 49.3337 24.334Z" fill="#303236"/>
<path d="M45.334 37.6673H53.334C53.8873 37.6673 54.334 37.2207 54.334 36.6673V34.0007C54.334 31.9807 52.6873 30.334 50.6673 30.334H48.0007C45.9807 30.334 44.334 31.9807 44.334 34.0007V36.6673C44.334 37.2207 44.7807 37.6673 45.334 37.6673ZM46.334 34.0007C46.334 33.0807 47.0807 32.334 48.0007 32.334H50.6673C51.5873 32.334 52.334 33.0807 52.334 34.0007V35.6673H46.334V34.0007Z" fill="#303236"/>
<path d="M37.334 29.0006H42.6673C43.014 29.0006 43.334 28.8206 43.5207 28.5273C43.7073 28.2339 43.7207 27.8673 43.5673 27.5539L42.234 24.8873C41.9873 24.3939 41.3873 24.1939 40.894 24.4406C40.4007 24.6873 40.2007 25.2873 40.4473 25.7806L41.054 27.0006H37.334C36.7807 27.0006 36.334 27.4473 36.334 28.0006C36.334 28.5539 36.7807 29.0006 37.334 29.0006Z" fill="#D1AA67"/>
<path d="M43.6671 30.667C43.6671 30.1137 43.2204 29.667 42.6671 29.667H37.3338C36.9871 29.667 36.6671 29.847 36.4804 30.1403C36.2938 30.4337 36.2804 30.8003 36.4338 31.1137L37.7671 33.7803C37.9404 34.1337 38.2938 34.3337 38.6604 34.3337C38.8138 34.3337 38.9604 34.3003 39.1071 34.227C39.6004 33.9803 39.8004 33.3803 39.5538 32.887L38.9471 31.667H42.6671C43.2204 31.667 43.6671 31.2203 43.6671 30.667Z" fill="#303236"/>
</g>
<defs>
<filter id="filter0_dd_162_1097" x="0" y="0" width="80" height="80" filterUnits="userSpaceOnUse" color-interpolation-filters="sRGB">
<feFlood flood-opacity="0" result="BackgroundImageFix"/>
<feColorMatrix in="SourceAlpha" type="matrix" values="0 0 0 0 0 0 0 0 0 0 0 0 0 0 0 0 0 0 127 0" result="hardAlpha"/>
<feMorphology radius="4" operator="erode" in="SourceAlpha" result="effect1_dropShadow_162_1097"/>
<feOffset dy="4"/>
<feGaussianBlur stdDeviation="3"/>
<feComposite in2="hardAlpha" operator="out"/>
<feColorMatrix type="matrix" values="0 0 0 0 0 0 0 0 0 0 0 0 0 0 0 0 0 0 0.1 0"/>
<feBlend mode="normal" in2="BackgroundImageFix" result="effect1_dropShadow_162_1097"/>
<feColorMatrix in="SourceAlpha" type="matrix" values="0 0 0 0 0 0 0 0 0 0 0 0 0 0 0 0 0 0 127 0" result="hardAlpha"/>
<feMorphology radius="3" operator="erode" in="SourceAlpha" result="effect2_dropShadow_162_1097"/>
<feOffset dy="10"/>
<feGaussianBlur stdDeviation="7.5"/>
<feComposite in2="hardAlpha" operator="out"/>
<feColorMatrix type="matrix" values="0 0 0 0 0 0 0 0 0 0 0 0 0 0 0 0 0 0 0.1 0"/>
<feBlend mode="normal" in2="effect1_dropShadow_162_1097" result="effect2_dropShadow_162_1097"/>
<feBlend mode="normal" in="SourceGraphic" in2="effect2_dropShadow_162_1097" result="shape"/>
</filter>
</defs>
</svg>
