<svg width="80" height="80" viewBox="0 0 80 80" fill="none" xmlns="http://www.w3.org/2000/svg">
<g filter="url(#filter0_dd_162_1058)">
<path d="M12 16C12 8.26801 18.268 2 26 2H54C61.732 2 68 8.26801 68 16V44C68 51.732 61.732 58 54 58H26C18.268 58 12 51.732 12 44V16Z" fill="white" shape-rendering="crispEdges"/>
<path d="M31.6019 15C29.3888 15 27.585 16.7855 27.585 19V21.0001C27.585 21.5524 28.0327 22 28.5849 22C29.1372 22 29.5849 21.5523 29.5849 21.0001V19C29.5849 17.9008 30.4825 17 31.6019 17H48.6979C49.8173 17 50.715 17.9008 50.715 19V31C50.715 32.0992 49.8173 33 48.6979 33H31.6019C30.4825 33 29.5849 32.0992 29.5849 31V25.9999C29.5849 25.4476 29.1372 25 28.5849 25C28.0327 25 27.585 25.4476 27.585 25.9999V31C27.585 32.089 28.0212 33.0742 28.7277 33.7944C28.1479 34.2251 27.6829 34.813 27.4015 35.5126L25.7925 39.5126C24.7322 42.1484 26.6874 45 29.5213 45H41.5C42.0523 45 42.5 44.5523 42.5 44C42.5 43.4477 42.0523 43 41.5 43H29.5213C28.0864 43 27.1227 41.5645 27.6478 40.2591L29.2568 36.2591C29.5617 35.5013 30.3022 35 31.1303 35H49.0716C49.9323 35 50.6943 35.5407 50.976 36.341L52.3839 40.341C52.8387 41.6332 51.8765 43 50.4795 43H46.5C45.9477 43 45.5 43.4477 45.5 44C45.5 44.5523 45.9477 45 46.5 45H50.4795C53.2389 45 55.1885 42.2858 54.2702 39.6769L52.8623 35.6769C52.5993 34.9296 52.1292 34.2982 51.53 33.8367C52.2613 33.113 52.7148 32.1104 52.7148 31V19C52.7148 16.7855 50.911 15 48.6979 15H31.6019Z" fill="#303236"/>
<path d="M34.6195 39.5C34.0673 39.5 33.6196 39.9477 33.6196 40.5C33.6196 41.0523 34.0673 41.5 34.6195 41.5H45.6817C46.2339 41.5 46.6816 41.0523 46.6816 40.5C46.6816 39.9477 46.2339 39.5 45.6817 39.5H34.6195Z" fill="#D1AA67"/>
<path d="M40 19.5C40.5523 19.5 41 19.9477 41 20.5V20.6177H42.5C43.0523 20.6177 43.5 21.0654 43.5 21.6177C43.5 22.17 43.0523 22.6177 42.5 22.6177H39.3055C38.8662 22.6177 38.5 22.9775 38.5 23.4338C38.5 23.8901 38.8662 24.25 39.3055 24.25H40.6945C42.2495 24.25 43.5 25.5164 43.5 27.0662C43.5 28.5131 42.4101 29.7129 41 29.8659V30C41 30.5523 40.5523 31 40 31C39.4477 31 39 30.5523 39 30V29.8823H37.5C36.9477 29.8823 36.5 29.4346 36.5 28.8823C36.5 28.33 36.9477 27.8823 37.5 27.8823H40.6945C41.1338 27.8823 41.5 27.5225 41.5 27.0662C41.5 26.6099 41.1338 26.25 40.6945 26.25H39.3055C37.7505 26.25 36.5 24.9836 36.5 23.4338C36.5 21.9869 37.5899 20.7871 39 20.6341V20.5C39 19.9477 39.4477 19.5 40 19.5Z" fill="#D1AA67"/>
</g>
<defs>
<filter id="filter0_dd_162_1058" x="0" y="0" width="80" height="80" filterUnits="userSpaceOnUse" color-interpolation-filters="sRGB">
<feFlood flood-opacity="0" result="BackgroundImageFix"/>
<feColorMatrix in="SourceAlpha" type="matrix" values="0 0 0 0 0 0 0 0 0 0 0 0 0 0 0 0 0 0 127 0" result="hardAlpha"/>
<feMorphology radius="4" operator="erode" in="SourceAlpha" result="effect1_dropShadow_162_1058"/>
<feOffset dy="4"/>
<feGaussianBlur stdDeviation="3"/>
<feComposite in2="hardAlpha" operator="out"/>
<feColorMatrix type="matrix" values="0 0 0 0 0 0 0 0 0 0 0 0 0 0 0 0 0 0 0.1 0"/>
<feBlend mode="normal" in2="BackgroundImageFix" result="effect1_dropShadow_162_1058"/>
<feColorMatrix in="SourceAlpha" type="matrix" values="0 0 0 0 0 0 0 0 0 0 0 0 0 0 0 0 0 0 127 0" result="hardAlpha"/>
<feMorphology radius="3" operator="erode" in="SourceAlpha" result="effect2_dropShadow_162_1058"/>
<feOffset dy="10"/>
<feGaussianBlur stdDeviation="7.5"/>
<feComposite in2="hardAlpha" operator="out"/>
<feColorMatrix type="matrix" values="0 0 0 0 0 0 0 0 0 0 0 0 0 0 0 0 0 0 0.1 0"/>
<feBlend mode="normal" in2="effect1_dropShadow_162_1058" result="effect2_dropShadow_162_1058"/>
<feBlend mode="normal" in="SourceGraphic" in2="effect2_dropShadow_162_1058" result="shape"/>
</filter>
</defs>
</svg>
