<svg width="24" height="24" viewBox="0 0 24 24" fill="none" xmlns="http://www.w3.org/2000/svg">
<g clip-path="url(#clip0_162_665)">
<path fill-rule="evenodd" clip-rule="evenodd" d="M5.25 1.5C5.25 1.08579 4.91422 0.75 4.5 0.75C4.08578 0.75 3.75 1.08579 3.75 1.5V5.25H3C1.75736 5.25 0.75 6.25736 0.75 7.5V15C0.75 16.2426 1.75736 17.25 3 17.25H3.75V18.75C3.75 19.1642 4.08578 19.5 4.5 19.5C4.91422 19.5 5.25 19.1642 5.25 18.75V17.25H6C7.24264 17.25 8.25 16.2426 8.25 15V7.5C8.25 6.25736 7.24264 5.25 6 5.25H5.25V1.5ZM2.25 7.5C2.25 7.08578 2.58579 6.75 3 6.75H6C6.41422 6.75 6.75 7.08578 6.75 7.5V15C6.75 15.4142 6.41422 15.75 6 15.75H3C2.58579 15.75 2.25 15.4142 2.25 15V7.5Z" fill="#303236"/>
<path d="M20.625 0.75C21.0392 0.75 21.375 1.08579 21.375 1.5V1.58823H22.5C22.9142 1.58823 23.25 1.92402 23.25 2.33823C23.25 2.75245 22.9142 3.08823 22.5 3.08823H20.1042C19.7746 3.08823 19.5 3.35814 19.5 3.70037C19.5 4.04258 19.7746 4.3125 20.1042 4.3125H21.1458C22.3121 4.3125 23.25 5.2623 23.25 6.42465C23.25 7.50979 22.4325 8.40964 21.375 8.52443V8.625C21.375 9.03922 21.0392 9.375 20.625 9.375C20.2108 9.375 19.875 9.03922 19.875 8.625V8.53676H18.75C18.3358 8.53676 18 8.20099 18 7.78676C18 7.37254 18.3358 7.03676 18.75 7.03676H21.1458C21.4754 7.03676 21.75 6.76688 21.75 6.42465C21.75 6.08243 21.4754 5.8125 21.1458 5.8125H20.1042C18.9379 5.8125 18 4.8627 18 3.70037C18 2.61523 18.8175 1.71535 19.875 1.60059V1.5C19.875 1.08579 20.2108 0.75 20.625 0.75Z" fill="#303236"/>
<path d="M13.5 4.5C13.9142 4.5 14.25 4.83578 14.25 5.25V9.375C14.25 9.78922 13.9142 10.125 13.5 10.125C13.0858 10.125 12.75 9.78922 12.75 9.375V5.25C12.75 4.83578 13.0858 4.5 13.5 4.5Z" fill="#303236"/>
<path fill-rule="evenodd" clip-rule="evenodd" d="M12 12.375C10.7574 12.375 9.75 13.3824 9.75 14.625V18.375C9.75 19.6176 10.7574 20.625 12 20.625H12.75V22.5C12.75 22.9142 13.0858 23.25 13.5 23.25C13.9142 23.25 14.25 22.9142 14.25 22.5V20.625H15C16.2426 20.625 17.25 19.6176 17.25 18.375V14.625C17.25 13.3824 16.2426 12.375 15 12.375H12ZM12 13.875C11.5858 13.875 11.25 14.2108 11.25 14.625V18.375C11.25 18.7892 11.5858 19.125 12 19.125H15C15.4142 19.125 15.75 18.7892 15.75 18.375V14.625C15.75 14.2108 15.4142 13.875 15 13.875H12Z" fill="#303236"/>
</g>
<defs>
<clipPath id="clip0_162_665">
<rect width="24" height="24" fill="white"/>
</clipPath>
</defs>
</svg>
