<svg width="16" height="16" viewBox="0 0 16 16" fill="none" xmlns="http://www.w3.org/2000/svg">
<path d="M12.6667 7.3335H3.33333C2.59695 7.3335 2 7.93045 2 8.66683V13.3335C2 14.0699 2.59695 14.6668 3.33333 14.6668H12.6667C13.403 14.6668 14 14.0699 14 13.3335V8.66683C14 7.93045 13.403 7.3335 12.6667 7.3335Z" stroke="#303236" stroke-width="1.33333" stroke-linecap="round" stroke-linejoin="round"/>
<path d="M4.6665 7.3335V4.66683C4.6665 3.78277 5.01769 2.93493 5.64281 2.30981C6.26794 1.68469 7.11578 1.3335 7.99984 1.3335C8.88389 1.3335 9.73174 1.68469 10.3569 2.30981C10.982 2.93493 11.3332 3.78277 11.3332 4.66683V7.3335" stroke="#303236" stroke-width="1.33333" stroke-linecap="round" stroke-linejoin="round"/>
</svg>
