<svg width="20" height="20" viewBox="0 0 20 20" fill="none" xmlns="http://www.w3.org/2000/svg">
<path d="M12.9167 6.25016L14.8334 8.16683C14.9892 8.31952 15.1986 8.40504 15.4167 8.40504C15.6349 8.40504 15.8443 8.31952 16.0001 8.16683L17.7501 6.41683C17.9028 6.26105 17.9883 6.05162 17.9883 5.8335C17.9883 5.61537 17.9028 5.40594 17.7501 5.25016L15.8334 3.3335" stroke="#45556C" stroke-width="1.66667" stroke-linecap="round" stroke-linejoin="round"/>
<path d="M17.5 1.6665L9.5 9.6665" stroke="#45556C" stroke-width="1.66667" stroke-linecap="round" stroke-linejoin="round"/>
<path d="M6.25008 17.5002C8.78139 17.5002 10.8334 15.4481 10.8334 12.9168C10.8334 10.3855 8.78139 8.3335 6.25008 8.3335C3.71878 8.3335 1.66675 10.3855 1.66675 12.9168C1.66675 15.4481 3.71878 17.5002 6.25008 17.5002Z" stroke="#45556C" stroke-width="1.66667" stroke-linecap="round" stroke-linejoin="round"/>
</svg>
