<svg width="20" height="20" viewBox="0 0 20 20" fill="none" xmlns="http://www.w3.org/2000/svg">
<path d="M1.66675 7.49984C2.32979 7.49984 2.96567 7.76323 3.43451 8.23207C3.90336 8.70091 4.16675 9.3368 4.16675 9.99984C4.16675 10.6629 3.90336 11.2988 3.43451 11.7676C2.96567 12.2364 2.32979 12.4998 1.66675 12.4998V14.1665C1.66675 14.6085 1.84234 15.0325 2.1549 15.345C2.46746 15.6576 2.89139 15.8332 3.33341 15.8332H16.6667C17.1088 15.8332 17.5327 15.6576 17.8453 15.345C18.1578 15.0325 18.3334 14.6085 18.3334 14.1665V12.4998C17.6704 12.4998 17.0345 12.2364 16.5656 11.7676C16.0968 11.2988 15.8334 10.6629 15.8334 9.99984C15.8334 9.3368 16.0968 8.70091 16.5656 8.23207C17.0345 7.76323 17.6704 7.49984 18.3334 7.49984V5.83317C18.3334 5.39114 18.1578 4.96722 17.8453 4.65466C17.5327 4.3421 17.1088 4.1665 16.6667 4.1665H3.33341C2.89139 4.1665 2.46746 4.3421 2.1549 4.65466C1.84234 4.96722 1.66675 5.39114 1.66675 5.83317V7.49984Z" stroke="#45556C" stroke-width="1.66667" stroke-linecap="round" stroke-linejoin="round"/>
<path d="M10.8333 4.1665V5.83317" stroke="#45556C" stroke-width="1.66667" stroke-linecap="round" stroke-linejoin="round"/>
<path d="M10.8333 14.1665V15.8332" stroke="#45556C" stroke-width="1.66667" stroke-linecap="round" stroke-linejoin="round"/>
<path d="M10.8333 9.1665V10.8332" stroke="#45556C" stroke-width="1.66667" stroke-linecap="round" stroke-linejoin="round"/>
</svg>
