<svg width="20" height="20" viewBox="0 0 20 20" fill="none" xmlns="http://www.w3.org/2000/svg">
<path d="M13.3333 8.3335H14.9999" stroke="#303236" stroke-width="1.66667" stroke-linecap="round" stroke-linejoin="round"/>
<path d="M13.3333 11.6665H14.9999" stroke="#303236" stroke-width="1.66667" stroke-linecap="round" stroke-linejoin="round"/>
<path d="M5.1416 12.5C5.31338 12.0116 5.63252 11.5887 6.05495 11.2895C6.47738 10.9903 6.98228 10.8296 7.49993 10.8296C8.01759 10.8296 8.52249 10.9903 8.94492 11.2895C9.36735 11.5887 9.68648 12.0116 9.85827 12.5" stroke="#303236" stroke-width="1.66667" stroke-linecap="round" stroke-linejoin="round"/>
<path d="M7.49992 10.8333C8.42039 10.8333 9.16659 10.0871 9.16659 9.16667C9.16659 8.24619 8.42039 7.5 7.49992 7.5C6.57944 7.5 5.83325 8.24619 5.83325 9.16667C5.83325 10.0871 6.57944 10.8333 7.49992 10.8333Z" stroke="#303236" stroke-width="1.66667" stroke-linecap="round" stroke-linejoin="round"/>
<path d="M16.6667 4.1665H3.33341C2.41294 4.1665 1.66675 4.9127 1.66675 5.83317V14.1665C1.66675 15.087 2.41294 15.8332 3.33341 15.8332H16.6667C17.5872 15.8332 18.3334 15.087 18.3334 14.1665V5.83317C18.3334 4.9127 17.5872 4.1665 16.6667 4.1665Z" stroke="#303236" stroke-width="1.66667" stroke-linecap="round" stroke-linejoin="round"/>
</svg>
