<svg width="20" height="20" viewBox="0 0 20 20" fill="none" xmlns="http://www.w3.org/2000/svg">
<path d="M12.9165 6.25016L14.8332 8.16683C14.9889 8.31952 15.1984 8.40504 15.4165 8.40504C15.6346 8.40504 15.8441 8.31952 15.9998 8.16683L17.7498 6.41683C17.9025 6.26105 17.9881 6.05162 17.9881 5.8335C17.9881 5.61537 17.9025 5.40594 17.7498 5.25016L15.8332 3.3335" stroke="#45556C" stroke-width="1.66667" stroke-linecap="round" stroke-linejoin="round"/>
<path d="M17.5 1.6665L9.5 9.6665" stroke="#45556C" stroke-width="1.66667" stroke-linecap="round" stroke-linejoin="round"/>
<path d="M6.24984 17.5002C8.78114 17.5002 10.8332 15.4481 10.8332 12.9168C10.8332 10.3855 8.78114 8.3335 6.24984 8.3335C3.71853 8.3335 1.6665 10.3855 1.6665 12.9168C1.6665 15.4481 3.71853 17.5002 6.24984 17.5002Z" stroke="#45556C" stroke-width="1.66667" stroke-linecap="round" stroke-linejoin="round"/>
</svg>
