<svg width="20" height="20" viewBox="0 0 20 20" fill="none" xmlns="http://www.w3.org/2000/svg">
<path d="M13.3335 8.3335H15.0002" stroke="#303236" stroke-width="1.66667" stroke-linecap="round" stroke-linejoin="round"/>
<path d="M13.3335 11.6665H15.0002" stroke="#303236" stroke-width="1.66667" stroke-linecap="round" stroke-linejoin="round"/>
<path d="M5.1416 12.5C5.31338 12.0116 5.63252 11.5887 6.05495 11.2895C6.47738 10.9903 6.98228 10.8296 7.49993 10.8296C8.01759 10.8296 8.52249 10.9903 8.94492 11.2895C9.36735 11.5887 9.68648 12.0116 9.85827 12.5" stroke="#303236" stroke-width="1.66667" stroke-linecap="round" stroke-linejoin="round"/>
<path d="M7.50016 10.8333C8.42064 10.8333 9.16683 10.0871 9.16683 9.16667C9.16683 8.24619 8.42064 7.5 7.50016 7.5C6.57969 7.5 5.8335 8.24619 5.8335 9.16667C5.8335 10.0871 6.57969 10.8333 7.50016 10.8333Z" stroke="#303236" stroke-width="1.66667" stroke-linecap="round" stroke-linejoin="round"/>
<path d="M16.6665 4.1665H3.33317C2.4127 4.1665 1.6665 4.9127 1.6665 5.83317V14.1665C1.6665 15.087 2.4127 15.8332 3.33317 15.8332H16.6665C17.587 15.8332 18.3332 15.087 18.3332 14.1665V5.83317C18.3332 4.9127 17.587 4.1665 16.6665 4.1665Z" stroke="#303236" stroke-width="1.66667" stroke-linecap="round" stroke-linejoin="round"/>
</svg>
