<svg width="24" height="24" viewBox="0 0 24 24" fill="none" xmlns="http://www.w3.org/2000/svg">
<path fill-rule="evenodd" clip-rule="evenodd" d="M0.75 6.75C0.75 4.67895 2.42893 3 4.5 3H19.5C21.571 3 23.25 4.67895 23.25 6.75C23.25 8.82105 21.571 10.5 19.5 10.5H18.75V18C18.75 19.6569 17.4069 21 15.75 21H8.25C6.59314 21 5.25 19.6569 5.25 18V10.5H4.5C2.42893 10.5 0.75 8.82105 0.75 6.75ZM15.75 19.5C16.5784 19.5 17.25 18.8284 17.25 18V7.5H15.75V19.5ZM14.25 7.5V19.5H8.25C7.42159 19.5 6.75 18.8284 6.75 18V7.5H14.25ZM19.5 6C19.9142 6 20.25 6.33578 20.25 6.75C20.25 7.16422 19.9142 7.5 19.5 7.5H18.75V9H19.5C20.7426 9 21.75 7.99264 21.75 6.75C21.75 5.50736 20.7426 4.5 19.5 4.5H4.5C3.25736 4.5 2.25 5.50736 2.25 6.75C2.25 7.99264 3.25736 9 4.5 9H5.25V7.5H4.5C4.08578 7.5 3.75 7.16422 3.75 6.75C3.75 6.33578 4.08578 6 4.5 6H19.5Z" fill="#303236"/>
</svg>
