<svg width="14" height="14" viewBox="0 0 14 14" fill="none" xmlns="http://www.w3.org/2000/svg">
<path d="M10.1736 6.01125L7.36248 9.47042C7.31873 9.52429 7.2635 9.56773 7.20084 9.59757C7.13817 9.6274 7.06964 9.64289 7.00023 9.64289C6.93082 9.64289 6.86229 9.6274 6.79963 9.59757C6.73696 9.56773 6.68174 9.52429 6.63798 9.47042L3.8269 6.01125C3.77121 5.94283 3.73606 5.86003 3.72551 5.77245C3.71497 5.68487 3.72947 5.59609 3.76732 5.51641C3.80518 5.43673 3.86484 5.36941 3.9394 5.32226C4.01395 5.27511 4.10035 5.25005 4.18856 5.25H9.8119C9.90011 5.25005 9.98651 5.27511 10.0611 5.32226C10.1356 5.36941 10.1953 5.43673 10.2331 5.51641C10.271 5.59609 10.2855 5.68487 10.2749 5.77245C10.2644 5.86003 10.2293 5.94283 10.1736 6.01125Z" fill="#84888C"/>
</svg>
