<svg width="32" height="60" viewBox="0 0 32 60" fill="none" xmlns="http://www.w3.org/2000/svg">
<path d="M13.3335 19.6667C13.3335 19.4899 13.4037 19.3203 13.5287 19.1953C13.6538 19.0702 13.8233 19 14.0001 19H18.0001C18.1769 19 18.3465 19.0702 18.4715 19.1953C18.5966 19.3203 18.6668 19.4899 18.6668 19.6667V29.6667H21.8201C21.9495 29.6668 22.076 29.7045 22.1843 29.7753C22.2926 29.8461 22.3779 29.9468 22.4299 30.0653C22.4819 30.1837 22.4984 30.3147 22.4772 30.4424C22.4561 30.57 22.3982 30.6887 22.3108 30.784L16.9841 36.5947C16.8592 36.7309 16.7074 36.8396 16.5382 36.914C16.369 36.9884 16.1863 37.0268 16.0015 37.0268C15.8167 37.0268 15.6339 36.9884 15.4647 36.914C15.2956 36.8396 15.1437 36.7309 15.0188 36.5947L9.69347 30.784C9.60602 30.6887 9.54819 30.57 9.52704 30.4424C9.50589 30.3147 9.52232 30.1837 9.57433 30.0653C9.62634 29.9468 9.71169 29.8461 9.81997 29.7753C9.92824 29.7045 10.0548 29.6668 10.1841 29.6667H13.3335V19.6667Z" fill="#C4C7CA"/>
<path d="M4.66667 33.6665C4.48986 33.6665 4.32029 33.7367 4.19526 33.8618C4.07024 33.9868 4 34.1564 4 34.3332V40.3332C4 41.0404 4.28095 41.7187 4.78105 42.2188C5.28115 42.7189 5.95942 42.9998 6.66667 42.9998H25.3333C26.0406 42.9998 26.7189 42.7189 27.219 42.2188C27.719 41.7187 28 41.0404 28 40.3332V34.3332C28 34.1564 27.9298 33.9868 27.8047 33.8618C27.6797 33.7367 27.5101 33.6665 27.3333 33.6665H24.6667C24.4899 33.6665 24.3203 33.7367 24.1953 33.8618C24.0702 33.9868 24 34.1564 24 34.3332V38.9998H8V34.3332C8 34.1564 7.92976 33.9868 7.80474 33.8618C7.67971 33.7367 7.51014 33.6665 7.33333 33.6665H4.66667Z" fill="#C4C7CA"/>
</svg>
