<svg width="32" height="60" viewBox="0 0 32 60" fill="none" xmlns="http://www.w3.org/2000/svg">
<path fill-rule="evenodd" clip-rule="evenodd" d="M25.3386 32.986C23.6934 32.986 22.0676 32.6314 20.5719 31.9463C19.0762 31.2611 17.7458 30.2616 16.6713 29.0158C15.5968 27.77 14.8036 26.3072 14.3455 24.7271C13.8875 23.1469 13.7756 21.4867 14.0172 19.8594C14.0906 19.3567 13.6692 18.8994 13.1746 19.0194C10.5243 19.662 8.16691 21.1768 6.48122 23.3205C4.79552 25.4642 3.87935 28.1123 3.87989 30.8394C3.87609 33.8172 4.96515 36.693 6.94056 38.9213C8.91597 41.1497 11.6404 42.5757 14.5972 42.929C17.5541 43.2823 20.5378 42.5383 22.9826 40.8381C25.4274 39.1379 27.1633 36.5996 27.8612 33.7047C27.9812 33.21 27.5226 32.7887 27.0199 32.862C26.4637 32.9441 25.9021 32.9851 25.3399 32.9847L25.3386 32.986Z" fill="#C4C7CA"/>
</svg>
