<svg width="26" height="52" viewBox="0 0 26 52" fill="none" xmlns="http://www.w3.org/2000/svg">
<path d="M10.4447 15.8764C10.5866 15.455 10.9055 15.0945 11.345 15.0337C12.3096 14.9006 13.2879 14.9002 14.2527 15.0326C14.6922 15.0924 15.0122 15.454 15.154 15.8753C15.4855 16.8607 16.1654 17.6911 17.0659 18.2106C17.9665 18.7301 19.0257 18.9029 20.0447 18.6966C20.481 18.6092 20.9535 18.7052 21.2266 19.0572C21.823 19.8275 22.3111 20.6759 22.6772 21.5788C22.8447 21.9894 22.6911 22.446 22.3978 22.7788C21.7101 23.5583 21.3308 24.5621 21.3312 25.6016C21.3316 26.641 21.7116 27.6446 22.3999 28.4236C22.6932 28.7564 22.8458 29.2129 22.6794 29.6246C22.3114 30.526 21.8228 31.374 21.2255 32.143C20.9524 32.495 20.4788 32.591 20.0447 32.5025C19.0259 32.2969 17.9672 32.4701 17.067 32.9895C16.1668 33.5089 15.487 34.3389 15.1551 35.3238C15.0132 35.7441 14.6943 36.1046 14.2548 36.1665C13.2906 36.2998 12.3126 36.3006 11.3482 36.1686C10.9076 36.1089 10.5876 35.7473 10.4458 35.326C10.1145 34.3406 9.43486 33.5101 8.53453 32.9904C7.6342 32.4707 6.57511 32.2976 5.55616 32.5036C5.1199 32.591 4.64736 32.495 4.3743 32.143C3.77744 31.3728 3.28899 30.5243 2.92256 29.6214C2.7551 29.2108 2.9087 28.7542 3.20203 28.4214C3.8899 27.642 4.26932 26.6382 4.26893 25.5986C4.26854 24.5591 3.88836 23.5555 3.1999 22.7766C2.9055 22.4438 2.75403 21.9873 2.92043 21.5766C3.28805 20.6743 3.77758 19.8266 4.37536 19.0572C4.64736 18.7073 5.1199 18.6102 5.5551 18.6988C6.57418 18.9047 7.63338 18.7314 8.53373 18.2115C9.43408 17.6916 10.1136 16.8608 10.4447 15.8753V15.8764ZM12.801 28.8001C13.226 28.8079 13.6484 28.7308 14.0434 28.5735C14.4383 28.4162 14.798 28.1818 15.1014 27.8839C15.4047 27.5861 15.6457 27.2307 15.8102 26.8387C15.9747 26.4467 16.0594 26.0258 16.0594 25.6006C16.0594 25.1755 15.9747 24.7546 15.8102 24.3626C15.6457 23.9705 15.4047 23.6152 15.1014 23.3173C14.798 23.0195 14.4383 22.785 14.0434 22.6277C13.6484 22.4704 13.226 22.3934 12.801 22.4012C11.9625 22.4165 11.1636 22.7603 10.5761 23.3586C9.98856 23.957 9.65938 24.7621 9.65938 25.6006C9.65938 26.4392 9.98856 27.2443 10.5761 27.8426C11.1636 28.441 11.9625 28.7848 12.801 28.8001Z" fill="#C4C7CA"/>
</svg>
