<svg width="48" height="38" viewBox="0 0 48 38" fill="none" xmlns="http://www.w3.org/2000/svg">
<path d="M24.9578 26.2397C23.8556 26.2397 22.8165 26.0697 21.8405 25.7298C20.8645 25.3899 19.9808 25.0209 19.1893 24.6276C18.4513 25.5065 17.6987 26.3659 16.9169 27.2157C16.14 28.0654 15.3388 28.9005 14.5183 29.7211C14.999 30.061 15.4797 30.3864 15.9604 30.6971C16.4411 31.0079 16.9509 31.2895 17.4899 31.5468C18.0289 31.7993 18.6067 32.0081 19.2282 32.1635C19.8497 32.3189 20.5441 32.3966 21.3064 32.3966C22.2969 32.3966 23.2292 32.2995 24.1081 32.1004C24.9869 31.9013 25.8755 31.7459 26.7835 31.6342L27.0797 32.314C26.6281 32.9938 26.0746 33.6493 25.4239 34.2854C24.7733 34.9215 24.0498 35.4896 23.2583 35.9849C22.4669 36.4801 21.6171 36.8686 20.714 37.1502C19.806 37.4318 18.8592 37.5726 17.8686 37.5726C16.1983 37.5726 14.6736 37.2667 13.2849 36.6598C11.8962 36.0528 10.6678 35.3488 9.59467 34.5573C9.25478 34.3291 8.8809 34.0718 8.46817 33.7707C8.05544 33.4745 7.62815 33.1978 7.17173 32.9453C6.72015 32.6928 6.2443 32.4791 5.74903 32.3092C5.25376 32.1392 4.75363 32.0567 4.2438 32.0567C3.73396 32.0567 3.20955 32.1684 2.67544 32.3966C2.47636 32.7365 2.32098 33.0812 2.2093 33.4357C2.09762 33.7901 2.03935 34.1203 2.03935 34.4311C2.03935 34.9118 2.2093 35.3342 2.54919 35.7032L1.06338 37.2716C0.723485 37.0191 0.461282 36.6647 0.276769 36.2131C0.0922563 35.7615 0 35.2954 0 34.8147C0 34.1057 0.169946 33.4648 0.509838 32.8821C0.84973 32.3043 1.2576 31.7702 1.73831 31.2895C2.21901 30.8088 2.71428 30.3621 3.22412 29.9542C3.73396 29.5463 4.17096 29.1676 4.53999 28.8277C5.02069 28.3761 5.60337 28.0217 6.27829 27.7643C6.95808 27.5118 7.69127 27.3807 8.48759 27.3807C9.61895 27.3807 10.5998 27.5653 11.4349 27.9343C12.2701 28.3033 13.0664 28.7403 13.8336 29.2502C14.5959 28.4296 15.3534 27.5944 16.106 26.7447C16.8538 25.8949 17.5967 25.0355 18.3348 24.1566C17.5433 23.7342 16.7567 23.2778 15.9798 22.7971C15.2029 22.3163 14.4163 21.8551 13.6248 21.4181C12.8334 20.9811 12.0128 20.578 11.163 20.209C10.3133 19.84 9.42472 19.5292 8.48759 19.2767C8.08943 19.1893 7.70098 19.1165 7.32225 19.0437C6.93866 18.9757 6.56477 18.9368 6.19575 18.9368C5.40429 18.9368 4.70993 19.0582 4.11755 19.2962C3.52517 19.5389 2.97163 19.8254 2.46179 20.1653C2.26271 20.4178 2.0782 20.68 1.90825 20.9519C1.73831 21.219 1.58293 21.5103 1.44211 21.8211L0.378737 22.6271C0.466138 22.2872 0.582672 21.9667 0.738051 21.6706C0.893431 21.3744 1.06823 21.083 1.26731 20.8014C1.6072 20.3498 2.11704 19.7769 2.79683 19.0825C3.47661 18.3882 4.25351 17.723 5.13237 17.0869C6.01124 16.4508 6.96293 15.8972 7.99718 15.4311C9.03142 14.965 10.0997 14.7319 11.2019 14.7319C12.3041 14.7319 13.3966 14.8824 14.3823 15.1786C15.3728 15.4748 16.3197 15.8438 17.2277 16.2808C18.1308 16.7178 18.9903 17.1985 19.7963 17.7229C20.6023 18.2474 21.3744 18.7475 22.1076 19.2282C23.3797 17.4462 24.5839 15.6059 25.7153 13.7122C26.8466 11.8185 27.8663 9.80832 28.7694 7.68642C28.8811 6.47252 29.0948 5.26833 29.4055 4.07871L29.5755 3.52517C30.197 3.10273 30.8039 2.66087 31.4012 2.2093L32.5908 1.31587C33.1832 0.864297 33.795 0.422437 34.4165 0L34.8826 0.80603C34.8826 1.42755 34.8389 2.04906 34.7564 2.67544L34.164 6.36569C34.0523 6.98721 33.9941 7.6233 33.9941 8.27395C33.9941 12.0662 34.4117 15.6011 35.2468 18.8834C36.082 22.1658 37.2182 25.1083 38.6652 27.7109C38.9468 28.2499 39.2818 28.7937 39.6606 29.3424C40.0441 29.8959 40.4812 30.4058 40.9764 30.8719C41.4717 31.3381 42.0447 31.7216 42.6953 32.0178C43.346 32.314 44.0792 32.4646 44.9046 32.4646C45.7301 32.4646 46.3613 32.28 46.9003 31.911L47.3227 32.3772C47.211 32.6296 46.876 33.0472 46.3273 33.6299C45.7738 34.2077 45.1377 34.7904 44.419 35.3682C43.6956 35.946 42.9478 36.4559 42.1709 36.8977C41.394 37.3347 40.69 37.5581 40.0684 37.5581C39.3061 37.5581 38.568 37.359 37.864 36.9657C36.8443 36.4267 35.9557 35.7081 35.1886 34.8001C34.4262 33.8921 33.7513 32.8918 33.1735 31.7848C32.5908 30.6825 32.0858 29.5124 31.644 28.2839C31.207 27.0554 30.8185 25.8318 30.4786 24.613C29.7406 25.1229 28.8957 25.521 27.9343 25.8027C26.9729 26.0843 25.9823 26.2251 24.9627 26.2251M19.6166 4.2438L23.0544 7.85151L23.4768 8.70124L19.0631 13.1587L18.1308 12.6488C18.0726 12.5663 18.0046 12.4935 17.9172 12.4352L17.5336 12.0128C17.4753 11.9302 17.4073 11.8574 17.3199 11.7991L15.7516 10.0171C15.6933 9.92971 15.6253 9.86173 15.5379 9.80346L15.1543 9.38102C15.0961 9.29848 15.0281 9.22565 14.9407 9.16738L19.6069 4.2438H19.6166ZM23.0544 19.8206C23.7342 20.243 24.3994 20.6606 25.0501 21.0733C25.7007 21.486 26.3951 21.8891 27.1282 22.2824C27.5507 22.5106 27.9974 22.7048 28.4635 22.8747C28.9297 23.0447 29.4055 23.1272 29.8862 23.1272H30.0999C29.6774 21.4278 29.3133 19.5681 29.0171 17.5481C28.7209 15.5234 28.5704 13.4937 28.5704 11.4592C26.9 14.4017 25.0598 17.1888 23.0544 19.8206Z" fill="#D1AA67"/>
</svg>
