<svg width="16" height="16" viewBox="0 0 16 16" fill="none" xmlns="http://www.w3.org/2000/svg">
<path d="M7.99992 14.6668C11.6819 14.6668 14.6666 11.6822 14.6666 8.00016C14.6666 4.31816 11.6819 1.3335 7.99992 1.3335C4.31792 1.3335 1.33325 4.31816 1.33325 8.00016C1.33325 11.6822 4.31792 14.6668 7.99992 14.6668ZM5.17125 6.11483C5.14021 6.08387 5.11558 6.04708 5.09878 6.00659C5.08197 5.96609 5.07332 5.92267 5.07332 5.87883C5.07332 5.83498 5.08197 5.79157 5.09878 5.75107C5.11558 5.71058 5.14021 5.67379 5.17125 5.64283L5.64259 5.1715C5.67355 5.14045 5.71033 5.11583 5.75083 5.09902C5.79133 5.08222 5.83474 5.07357 5.87859 5.07357C5.92243 5.07357 5.96584 5.08222 6.00634 5.09902C6.04684 5.11583 6.08362 5.14045 6.11458 5.1715L7.99992 7.0575L9.88525 5.1715C9.91622 5.14045 9.953 5.11583 9.9935 5.09902C10.034 5.08222 10.0774 5.07357 10.1213 5.07357C10.1651 5.07357 10.2085 5.08222 10.249 5.09902C10.2895 5.11583 10.3263 5.14045 10.3573 5.1715L10.8286 5.64283C10.8596 5.67379 10.8843 5.71058 10.9011 5.75107C10.9179 5.79157 10.9265 5.83498 10.9265 5.87883C10.9265 5.92267 10.9179 5.96609 10.9011 6.00659C10.8843 6.04708 10.8596 6.08387 10.8286 6.11483L8.94259 8.00016L10.8286 9.8855C10.8596 9.91646 10.8843 9.95324 10.9011 9.99374C10.9179 10.0342 10.9265 10.0777 10.9265 10.1215C10.9265 10.1653 10.9179 10.2088 10.9011 10.2493C10.8843 10.2897 10.8596 10.3265 10.8286 10.3575L10.3573 10.8288C10.3263 10.8599 10.2895 10.8845 10.249 10.9013C10.2085 10.9181 10.1651 10.9268 10.1213 10.9268C10.0774 10.9268 10.034 10.9181 9.9935 10.9013C9.953 10.8845 9.91622 10.8599 9.88525 10.8288L7.99992 8.94283L6.11458 10.8288C6.08362 10.8599 6.04684 10.8845 6.00634 10.9013C5.96584 10.9181 5.92243 10.9268 5.87859 10.9268C5.83474 10.9268 5.79133 10.9181 5.75083 10.9013C5.71033 10.8845 5.67355 10.8599 5.64259 10.8288L5.17125 10.3575C5.14021 10.3265 5.11558 10.2897 5.09878 10.2493C5.08197 10.2088 5.07332 10.1653 5.07332 10.1215C5.07332 10.0777 5.08197 10.0342 5.09878 9.99374C5.11558 9.95324 5.14021 9.91646 5.17125 9.8855L7.05725 8.00016L5.17125 6.11483Z" fill="#A0A3A7"/>
</svg>
