<svg width="16" height="16" viewBox="0 0 16 16" fill="none" xmlns="http://www.w3.org/2000/svg">
<g clip-path="url(#clip0_1_18550)">
<path d="M7.27803 1.25316C7.35022 1.12522 7.45512 1.01875 7.58198 0.944667C7.70885 0.870583 7.85312 0.831543 8.00003 0.831543C8.14694 0.831543 8.29121 0.870583 8.41808 0.944667C8.54494 1.01875 8.64984 1.12522 8.72203 1.25316L10.576 4.54316C10.694 4.75216 10.898 4.90016 11.134 4.94816L14.834 5.69416C14.9782 5.72311 15.1121 5.78988 15.222 5.88765C15.3318 5.98541 15.4137 6.11064 15.4592 6.25049C15.5047 6.39033 15.5122 6.53977 15.4809 6.68346C15.4496 6.82715 15.3806 6.95993 15.281 7.06816L12.726 9.84717C12.6453 9.93473 12.5845 10.0386 12.5475 10.1518C12.5106 10.265 12.4985 10.3849 12.512 10.5032L12.946 14.2532C12.9629 14.3991 12.9406 14.5469 12.8815 14.6814C12.8225 14.8159 12.7287 14.9323 12.6099 15.0187C12.4911 15.1051 12.3514 15.1583 12.2053 15.173C12.0591 15.1876 11.9117 15.1632 11.778 15.1022L8.34503 13.5312C8.23676 13.4816 8.11909 13.456 8.00003 13.456C7.88096 13.456 7.76329 13.4816 7.65503 13.5312L4.22203 15.1022C4.08841 15.1632 3.94096 15.1876 3.79479 15.173C3.64863 15.1583 3.50898 15.1051 3.39015 15.0187C3.27132 14.9323 3.17758 14.8159 3.11852 14.6814C3.05946 14.5469 3.0372 14.3991 3.05403 14.2532L3.48803 10.5032C3.50156 10.3849 3.48945 10.265 3.45253 10.1518C3.4156 10.0386 3.35472 9.93473 3.27403 9.84717L0.720029 7.06716C0.620732 6.95891 0.551984 6.82621 0.520821 6.68266C0.489659 6.5391 0.497201 6.38984 0.542677 6.25016C0.588153 6.11048 0.669928 5.98539 0.779633 5.88769C0.889337 5.79 1.02303 5.72321 1.16703 5.69416L4.86703 4.94816C4.98374 4.92454 5.09399 4.87604 5.19028 4.80598C5.28657 4.73593 5.36664 4.64594 5.42503 4.54216L7.27903 1.25316H7.27803Z" fill="#DFE0E2"/>
</g>
<defs>
<clipPath id="clip0_1_18550">
<rect width="16" height="16" fill="white"/>
</clipPath>
</defs>
</svg>
