<svg width="14" height="14" viewBox="0 0 14 14" fill="none" xmlns="http://www.w3.org/2000/svg">
<path d="M10.1733 6.01125L7.36224 9.47042C7.31848 9.52429 7.26326 9.56773 7.20059 9.59757C7.13793 9.6274 7.06939 9.64289 6.99999 9.64289C6.93058 9.64289 6.86205 9.6274 6.79938 9.59757C6.73672 9.56773 6.68149 9.52429 6.63774 9.47042L3.82665 6.01125C3.77097 5.94283 3.73581 5.86003 3.72527 5.77245C3.71473 5.68487 3.72922 5.59609 3.76708 5.51641C3.80493 5.43673 3.8646 5.36941 3.93915 5.32226C4.01371 5.27511 4.1001 5.25005 4.18832 5.25H9.81165C9.89987 5.25005 9.98626 5.27511 10.0608 5.32226C10.1354 5.36941 10.195 5.43673 10.2329 5.51641C10.2708 5.59609 10.2852 5.68487 10.2747 5.77245C10.2642 5.86003 10.229 5.94283 10.1733 6.01125Z" fill="#84888C"/>
</svg>
