<svg width="24" height="24" viewBox="0 0 24 24" fill="none" xmlns="http://www.w3.org/2000/svg">
<path fill-rule="evenodd" clip-rule="evenodd" d="M15.8852 17.9997C14.5603 18.9129 12.9545 19.4475 11.2237 19.4475C6.6819 19.4475 3 15.7656 3 11.2237C3 6.6819 6.6819 3 11.2237 3C15.7656 3 19.4475 6.6819 19.4475 11.2237C19.4475 12.9545 18.9129 14.5603 17.9997 15.8852L21.2929 19.1783C21.6834 19.5688 21.6834 20.202 21.2929 20.5925L20.5925 21.2929C20.202 21.6834 19.5688 21.6834 19.1783 21.2929L15.8852 17.9997ZM16.457 11.2237C16.457 14.114 14.114 16.457 11.2237 16.457C8.33348 16.457 5.99045 14.114 5.99045 11.2237C5.99045 8.33348 8.33348 5.99045 11.2237 5.99045C14.114 5.99045 16.457 8.33348 16.457 11.2237Z" fill="#C4C7CA"/>
</svg>
