<svg width="32" height="64" viewBox="0 0 32 64" fill="none" xmlns="http://www.w3.org/2000/svg">
<path fill-rule="evenodd" clip-rule="evenodd" d="M25.3388 33.986C23.6937 33.986 22.0678 33.6314 20.5721 32.9463C19.0764 32.2611 17.746 31.2616 16.6715 30.0158C15.5971 28.77 14.8038 27.3072 14.3458 25.7271C13.8878 24.1469 13.7758 22.4867 14.0175 20.8594C14.0908 20.3567 13.6695 19.8994 13.1748 20.0194C10.5245 20.662 8.16716 22.1768 6.48146 24.3205C4.79577 26.4642 3.8796 29.1123 3.88014 31.8394C3.87634 34.8172 4.96539 37.693 6.9408 39.9213C8.91621 42.1497 11.6406 43.5757 14.5975 43.929C17.5543 44.2823 20.538 43.5383 22.9828 41.8381C25.4276 40.1379 27.1636 37.5996 27.8615 34.7047C27.9815 34.21 27.5228 33.7887 27.0201 33.862C26.4639 33.9441 25.9024 33.9851 25.3401 33.9847L25.3388 33.986Z" fill="#C4C7CA"/>
</svg>
