<svg width="26" height="52" viewBox="0 0 26 52" fill="none" xmlns="http://www.w3.org/2000/svg">
<path d="M10.4449 15.8764C10.5868 15.455 10.9057 15.0945 11.3452 15.0337C12.3099 14.9006 13.2882 14.9002 14.2529 15.0326C14.6924 15.0924 15.0124 15.454 15.1543 15.8753C15.4858 16.8607 16.1657 17.6911 17.0662 18.2106C17.9667 18.7301 19.026 18.9029 20.0449 18.6966C20.4812 18.6092 20.9537 18.7052 21.2268 19.0572C21.8233 19.8275 22.3113 20.6759 22.6775 21.5788C22.8449 21.9894 22.6913 22.446 22.398 22.7788C21.7103 23.5583 21.3311 24.5621 21.3315 25.6016C21.3319 26.641 21.7119 27.6446 22.4001 28.4236C22.6935 28.7564 22.846 29.2129 22.6796 29.6246C22.3116 30.526 21.8231 31.374 21.2257 32.143C20.9527 32.495 20.4791 32.591 20.0449 32.5025C19.0262 32.2969 17.9674 32.4701 17.0672 32.9895C16.167 33.5089 15.4872 34.3389 15.1553 35.3238C15.0135 35.7441 14.6945 36.1046 14.2551 36.1665C13.2908 36.2998 12.3129 36.3006 11.3484 36.1686C10.9079 36.1089 10.5879 35.7473 10.446 35.326C10.1147 34.3406 9.4351 33.5101 8.53477 32.9904C7.63444 32.4707 6.57535 32.2976 5.55641 32.5036C5.12014 32.591 4.64761 32.495 4.37454 32.143C3.77769 31.3728 3.28923 30.5243 2.92281 29.6214C2.75534 29.2108 2.90894 28.7542 3.20227 28.4214C3.89015 27.642 4.26957 26.6382 4.26918 25.5986C4.26878 24.5591 3.8886 23.5555 3.20014 22.7766C2.90574 22.4438 2.75427 21.9873 2.92067 21.5766C3.28829 20.6743 3.77782 19.8266 4.37561 19.0572C4.64761 18.7073 5.12014 18.6102 5.55534 18.6988C6.57442 18.9047 7.63362 18.7314 8.53398 18.2115C9.43433 17.6916 10.1139 16.8608 10.4449 15.8753V15.8764ZM12.8012 28.8001C13.2263 28.8079 13.6486 28.7308 14.0436 28.5735C14.4386 28.4162 14.7983 28.1818 15.1016 27.8839C15.405 27.5861 15.6459 27.2307 15.8104 26.8387C15.9749 26.4467 16.0596 26.0258 16.0596 25.6006C16.0596 25.1755 15.9749 24.7546 15.8104 24.3626C15.6459 23.9705 15.405 23.6152 15.1016 23.3173C14.7983 23.0195 14.4386 22.785 14.0436 22.6277C13.6486 22.4704 13.2263 22.3934 12.8012 22.4012C11.9628 22.4165 11.1638 22.7603 10.5763 23.3586C9.9888 23.957 9.65963 24.7621 9.65963 25.6006C9.65963 26.4392 9.9888 27.2443 10.5763 27.8426C11.1638 28.441 11.9628 28.7848 12.8012 28.8001Z" fill="#C4C7CA"/>
</svg>
