<svg width="20" height="20" viewBox="0 0 20 20" fill="none" xmlns="http://www.w3.org/2000/svg">
<path d="M13.2376 14.9998C11.8293 15.9685 10.1098 16.376 8.41659 16.1423C6.72335 15.9086 5.17856 15.0506 4.08531 13.7367C2.99207 12.4227 2.42929 10.7476 2.50741 9.04014C2.58553 7.33263 3.29889 5.71595 4.50754 4.5073C5.71619 3.29865 7.33288 2.58528 9.04038 2.50717C10.7479 2.42905 12.4229 2.99183 13.7369 4.08507C15.0509 5.17831 15.9089 6.72311 16.1426 8.41635C16.3763 10.1096 15.9688 11.829 15.0001 13.2373L17.7442 15.9815C17.8217 16.0589 17.8832 16.1508 17.9251 16.252C17.9671 16.3531 17.9886 16.4616 17.9886 16.5711C17.9886 16.6806 17.9671 16.789 17.9251 16.8902C17.8832 16.9914 17.8217 17.0833 17.7442 17.1607L17.1609 17.744C17.0835 17.8215 16.9916 17.8829 16.8904 17.9249C16.7893 17.9668 16.6808 17.9884 16.5713 17.9884C16.4618 17.9884 16.3534 17.9668 16.2522 17.9249C16.151 17.8829 16.0591 17.8215 15.9817 17.744L13.2376 14.9998ZM13.7142 9.35316C13.7142 8.78043 13.6014 8.21331 13.3823 7.68418C13.1631 7.15505 12.8418 6.67427 12.4369 6.26929C12.0319 5.86431 11.5511 5.54306 11.022 5.32389C10.4928 5.10472 9.92571 4.99191 9.35299 4.99191C8.78026 4.99191 8.21314 5.10472 7.68401 5.32389C7.15488 5.54306 6.6741 5.86431 6.26912 6.26929C5.86414 6.67427 5.54289 7.15505 5.32372 7.68418C5.10454 8.21331 4.99174 8.78043 4.99174 9.35316C4.99174 10.5098 5.45122 11.6191 6.26912 12.437C7.08701 13.2549 8.19631 13.7144 9.35299 13.7144C10.5097 13.7144 11.619 13.2549 12.4369 12.437C13.2547 11.6191 13.7142 10.5098 13.7142 9.35316Z" fill="#484B51"/>
</svg>
