<svg width="32" height="64" viewBox="0 0 32 64" fill="none" xmlns="http://www.w3.org/2000/svg">
<path d="M13.3335 20.6667C13.3335 20.4899 13.4037 20.3203 13.5287 20.1953C13.6538 20.0702 13.8233 20 14.0001 20H18.0001C18.1769 20 18.3465 20.0702 18.4715 20.1953C18.5966 20.3203 18.6668 20.4899 18.6668 20.6667V30.6667H21.8201C21.9495 30.6668 22.076 30.7045 22.1843 30.7753C22.2926 30.8461 22.3779 30.9468 22.4299 31.0653C22.4819 31.1837 22.4984 31.3147 22.4772 31.4424C22.4561 31.57 22.3982 31.6887 22.3108 31.784L16.9841 37.5947C16.8592 37.7309 16.7074 37.8396 16.5382 37.914C16.369 37.9884 16.1863 38.0268 16.0015 38.0268C15.8167 38.0268 15.6339 37.9884 15.4647 37.914C15.2956 37.8396 15.1437 37.7309 15.0188 37.5947L9.69347 31.784C9.60602 31.6887 9.54819 31.57 9.52704 31.4424C9.50589 31.3147 9.52232 31.1837 9.57433 31.0653C9.62634 30.9468 9.71169 30.8461 9.81997 30.7753C9.92824 30.7045 10.0548 30.6668 10.1841 30.6667H13.3335V20.6667Z" fill="#C4C7CA"/>
<path d="M4.66667 34.6665C4.48986 34.6665 4.32029 34.7367 4.19526 34.8618C4.07024 34.9868 4 35.1564 4 35.3332V41.3332C4 42.0404 4.28095 42.7187 4.78105 43.2188C5.28115 43.7189 5.95942 43.9998 6.66667 43.9998H25.3333C26.0406 43.9998 26.7189 43.7189 27.219 43.2188C27.719 42.7187 28 42.0404 28 41.3332V35.3332C28 35.1564 27.9298 34.9868 27.8047 34.8618C27.6797 34.7367 27.5101 34.6665 27.3333 34.6665H24.6667C24.4899 34.6665 24.3203 34.7367 24.1953 34.8618C24.0702 34.9868 24 35.1564 24 35.3332V39.9998H8V35.3332C8 35.1564 7.92976 34.9868 7.80474 34.8618C7.67971 34.7367 7.51014 34.6665 7.33333 34.6665H4.66667Z" fill="#C4C7CA"/>
</svg>
